<svg width="106" height="55" viewBox="0 0 106 55" fill="none" xmlns="http://www.w3.org/2000/svg">
<path d="M3.42496 54.1306C3.62996 54.56 4.14422 54.7418 4.57358 54.5368L11.5705 51.1962C11.9998 50.9912 12.1817 50.4769 11.9767 50.0475C11.7717 49.6182 11.2575 49.4363 10.8281 49.6413L4.60864 52.6108L1.63914 46.3913C1.43414 45.962 0.919881 45.7801 0.490517 45.9851C0.0611529 46.1901 -0.120729 46.7043 0.0842719 47.1337L3.42496 54.1306ZM4.23574 53.6651L3.51691 53.1903L3.45873 53.2784L3.42354 53.3779L4.23574 53.6651ZM4.88321 52.685L5.60204 53.1598L5.60204 53.1598L4.88321 52.685ZM5.2836 51.5988L4.42434 51.6609H4.42434L5.2836 51.5988ZM5.23672 50.9498L6.09598 50.8878V50.8878L5.23672 50.9498ZM5.18984 50.3008L4.33058 50.3629H4.33058L5.18984 50.3008ZM5.28262 49.4854L6.10216 49.751H6.10216L5.28262 49.4854ZM5.46866 48.9113L4.64912 48.6457H4.64912L5.46866 48.9113ZM5.6547 48.3372L6.47424 48.6028H6.47425L5.6547 48.3372ZM5.93316 47.5822L6.72893 47.9122L6.72893 47.9122L5.93316 47.5822ZM6.1648 47.0237L5.36904 46.6936H5.36904L6.1648 47.0237ZM6.39645 46.4652L7.19222 46.7952H7.19222L6.39645 46.4652ZM6.80505 45.7672L7.48418 46.2972L7.48418 46.2972L6.80505 45.7672ZM7.1863 45.2787L6.50717 44.7487L6.50716 44.7487L7.1863 45.2787ZM7.56755 44.7902L8.24669 45.3203L8.24669 45.3203L7.56755 44.7902ZM7.96169 44.0898L8.76874 44.3912L8.76874 44.3912L7.96169 44.0898ZM8.17165 43.5276L7.3646 43.2262L7.3646 43.2262L8.17165 43.5276ZM8.38161 42.9654L9.18866 43.2668H9.18866L8.38161 42.9654ZM8.73183 42.2484L9.46587 42.6994H9.46587L8.73183 42.2484ZM9.0472 41.7351L8.31315 41.2841H8.31315L9.0472 41.7351ZM9.36257 41.2217L10.0966 41.6727H10.0966L9.36257 41.2217ZM9.82218 40.5601L10.5012 41.0902H10.5012L9.82218 40.5601ZM10.1962 40.081L9.51718 39.5508H9.51718L10.1962 40.081ZM10.5703 39.6019L11.2493 40.132H11.2493L10.5703 39.6019ZM11.011 38.9357L11.7653 39.3519L11.7653 39.3519L11.011 38.9357ZM11.2981 38.4154L10.5438 37.9992L10.5438 37.9992L11.2981 38.4154ZM11.5851 37.8952L12.3394 38.3114H12.3394L11.5851 37.8952ZM11.8069 37.0998L12.6664 37.158V37.158L11.8069 37.0998ZM11.8524 36.4271L10.9929 36.3689V36.3689L11.8524 36.4271ZM11.8979 35.7544L12.7575 35.8126V35.8126L11.8979 35.7544ZM12.243 35.0296L12.8114 35.6769H12.8114L12.243 35.0296ZM12.715 34.6151L12.1466 33.9677L12.1466 33.9677L12.715 34.6151ZM13.1871 34.2006L13.7555 34.8479L13.7555 34.8479L13.1871 34.2006ZM13.8078 33.6517L14.3808 34.295L14.3808 34.295L13.8078 33.6517ZM14.267 33.2428L13.694 32.5994H13.694L14.267 33.2428ZM14.7261 32.8339L15.299 33.4772L15.299 33.4772L14.7261 32.8339ZM15.0987 32.1172L15.9507 32.2448V32.2448L15.0987 32.1172ZM15.1984 31.4511L14.3464 31.3235L14.3464 31.3235L15.1984 31.4511ZM15.2982 30.785L16.1502 30.9126V30.9126L15.2982 30.785ZM15.7259 30.1118L16.1874 30.8392L16.1874 30.8392L15.7259 30.1118ZM16.2677 29.768L15.8061 29.0406H15.8061L16.2677 29.768ZM16.8094 29.4243L17.271 30.1517L17.271 30.1517L16.8094 29.4243ZM17.4284 28.8925L18.0842 29.4512L18.0842 29.4512L17.4284 28.8925ZM17.8151 28.4386L17.1594 27.8799L17.1594 27.8799L17.8151 28.4386ZM18.2019 27.9847L18.8576 28.5434L18.8576 28.5434L18.2019 27.9847ZM18.702 27.3643L19.3871 27.8867L19.3871 27.8867L18.702 27.3643ZM19.0656 26.8875L18.3805 26.3651L18.3805 26.3652L19.0656 26.8875ZM19.4291 26.4108L20.1142 26.9332L20.1142 26.9332L19.4291 26.4108ZM19.956 25.8144L20.5587 26.4301L20.5587 26.43L19.956 25.8144ZM20.3829 25.3966L19.7802 24.7809L19.7802 24.7809L20.3829 25.3966ZM20.8097 24.9788L21.4123 25.5944L21.4123 25.5944L20.8097 24.9788ZM21.2462 24.2928L22.0534 24.5939L22.0534 24.5939L21.2462 24.2928ZM21.4742 23.6817L20.667 23.3806V23.3806L21.4742 23.6817ZM21.7021 23.0705L22.5093 23.3716V23.3716L21.7021 23.0705ZM22.2275 22.4691L22.6247 23.2335H22.6247L22.2275 22.4691ZM22.7876 22.178L22.3904 21.4136H22.3904L22.7876 22.178ZM23.3477 21.887L23.745 22.6515L23.745 22.6515L23.3477 21.887ZM24.0497 21.4629L24.5439 22.1686L24.5439 22.1686L24.0497 21.4629ZM24.5426 21.1178L24.0484 20.4121L24.0484 20.4121L24.5426 21.1178ZM25.0355 20.7726L25.5296 21.4783L25.5296 21.4783L25.0355 20.7726ZM25.5704 20.1713L26.3234 20.5899L26.3234 20.5899L25.5704 20.1713ZM25.8799 19.6145L25.1269 19.196L25.1269 19.196L25.8799 19.6145ZM26.1894 19.0577L26.9424 19.4762L26.9424 19.4762L26.1894 19.0577ZM26.7609 18.5013L27.1504 19.2697L27.1504 19.2697L26.7609 18.5013ZM27.3087 18.2237L26.9191 17.4553H26.9191L27.3087 18.2237ZM27.8564 17.946L28.2459 18.7144H28.2459L27.8564 17.946ZM28.5111 17.4825L29.1083 18.1034L29.1083 18.1034L28.5111 17.4825ZM28.9453 17.0648L28.3481 16.4439L28.3481 16.4439L28.9453 17.0648ZM29.3796 16.6472L29.9767 17.2681L29.9767 17.2681L29.3796 16.6472ZM29.96 16.0882L30.558 16.7083L30.558 16.7082L29.96 16.0882ZM30.3963 15.6673L29.7983 15.0472L29.7983 15.0472L30.3963 15.6673ZM30.8327 15.2464L31.4308 15.8665L31.4308 15.8665L30.8327 15.2464ZM31.5077 14.8184L31.8163 15.6227L31.8163 15.6227L31.5077 14.8184ZM32.0837 14.5974L31.7751 13.7931L31.7751 13.7931L32.0837 14.5974ZM32.6598 14.3763L32.9685 15.1806L32.9685 15.1806L32.6598 14.3763ZM33.3191 13.9164L33.9656 14.4858L33.9656 14.4858L33.3191 13.9164ZM33.732 13.4475L33.0855 12.8782L33.0855 12.8782L33.732 13.4475ZM34.1449 12.9787L34.7914 13.5481L34.7914 13.5481L34.1449 12.9787ZM34.758 12.4508L35.221 13.1773L35.2211 13.1773L34.758 12.4508ZM35.2648 12.1278L34.8017 11.4014L34.8017 11.4014L35.2648 12.1278ZM35.7715 11.8049L36.2346 12.5313V12.5313L35.7715 11.8049ZM36.4877 11.439L36.8063 12.2394L36.8063 12.2394L36.4877 11.439ZM37.0553 11.2131L36.7367 10.4126H36.7367L37.0553 11.2131ZM37.6229 10.9872L37.9414 11.7876V11.7876L37.6229 10.9872ZM38.357 10.6578L38.7439 11.4275V11.4275L38.357 10.6578ZM38.8906 10.3895L38.5036 9.6198L38.5036 9.61981L38.8906 10.3895ZM39.4242 10.1213L39.8111 10.891V10.891L39.4242 10.1213ZM40.1777 9.84104L40.3905 10.6758V10.6758L40.1777 9.84104ZM40.7743 9.68894L40.5614 8.85414L40.5614 8.85415L40.7743 9.68894ZM41.3709 9.53685L41.5837 10.3717V10.3717L41.3709 9.53685ZM42.0787 9.16103L42.6496 9.80621L42.6496 9.80621L42.0787 9.16103ZM42.544 8.74938L41.9731 8.10419L41.9731 8.1042L42.544 8.74938ZM43.0092 8.33773L43.5801 8.98292L43.5801 8.98291L43.0092 8.33773ZM43.6834 7.88829L44.0566 8.66474V8.66474L43.6834 7.88829ZM44.2295 7.62578L43.8562 6.84933L43.8562 6.84933L44.2295 7.62578ZM44.7756 7.36327L45.1488 8.13972V8.13972L44.7756 7.36327ZM45.496 7.00363L45.8923 7.76855L45.8923 7.76855L45.496 7.00363ZM46.0305 6.72668L45.6342 5.96176V5.96176L46.0305 6.72668ZM46.565 6.44972L46.9614 7.21464L46.9614 7.21464L46.565 6.44972ZM47.3038 6.13126L47.5884 6.94441V6.94441L47.3038 6.13126ZM47.8775 5.93052L47.5929 5.11737V5.11737L47.8775 5.93052ZM48.4511 5.72978L48.7357 6.54293L48.7357 6.54293L48.4511 5.72978ZM49.2093 5.46037L49.5017 6.27072V6.27072L49.2093 5.46037ZM49.7729 5.25699L49.4804 4.44664V4.44664L49.7729 5.25699ZM50.3364 5.05361L50.6289 5.86396V5.86396L50.3364 5.05361ZM51.1422 4.94261L51.093 5.80271V5.80271L51.1422 4.94261ZM51.7872 4.97949L51.8364 4.11939V4.11939L51.7872 4.97949ZM52.4323 5.01636L52.3831 5.87646V5.87646L52.4323 5.01636ZM53.2298 4.88575L53.5649 5.67939V5.67939L53.2298 4.88575ZM53.7811 4.65296L53.4459 3.85932L53.4459 3.85932L53.7811 4.65296ZM54.3324 4.42016L54.6675 5.2138V5.2138L54.3324 4.42016ZM55.0965 4.19349L55.2493 5.04134V5.04134L55.0965 4.19349ZM55.6914 4.08628L55.5386 3.23844V3.23844L55.6914 4.08628ZM56.2863 3.97907L56.4391 4.82691L56.4391 4.82691L56.2863 3.97907ZM57.0434 3.69768L57.4769 4.44213L57.4769 4.44213L57.0434 3.69768ZM57.584 3.38282L57.1504 2.63837L57.1504 2.63837L57.584 3.38282ZM58.1246 3.06795L58.5582 3.8124L58.5582 3.8124L58.1246 3.06795ZM58.9124 2.94513L59.0844 2.10099V2.10099L58.9124 2.94513ZM59.5534 3.07578L59.3813 3.91992V3.91992L59.5534 3.07578ZM60.1944 3.20643L60.3664 2.36228V2.36228L60.1944 3.20643ZM60.9949 3.11694L61.3633 3.89568V3.89567L60.9949 3.11694ZM61.5548 2.85206L61.1863 2.07332L61.1863 2.07332L61.5548 2.85206ZM62.1146 2.58717L62.4831 3.36591L62.4831 3.36591L62.1146 2.58717ZM62.8933 2.41924L62.9117 1.55793L62.8933 2.41924ZM63.5016 2.43221L63.4832 3.29352L63.5016 2.43221ZM64.1098 2.44519L64.1282 1.58389V1.58389L64.1098 2.44519ZM64.9125 2.3989L65.0306 3.25228V3.25228L64.9125 2.3989ZM65.5083 2.31649L65.3903 1.46312V1.46312L65.5083 2.31649ZM66.1041 2.23408L66.2222 3.08746V3.08746L66.1041 2.23408ZM66.9001 2.18458L66.8884 3.046L66.9001 2.18458ZM67.4983 2.19274L67.5101 1.33132L67.4983 2.19274ZM68.0965 2.20089L68.0848 3.06231L68.0965 2.20089ZM68.8875 2.07065L69.1692 2.88479V2.88479L68.8875 2.07065ZM69.4757 1.86713L69.194 1.05298V1.05298L69.4757 1.86713ZM70.0639 1.6636L70.3456 2.47775L70.3456 2.47775L70.0639 1.6636ZM70.8586 1.61575L71.0423 0.774046L71.0423 0.774046L70.8586 1.61575ZM71.4625 1.74749L71.2788 2.58919V2.58919L71.4625 1.74749ZM72.0663 1.87922L72.25 1.03752L72.25 1.03752L72.0663 1.87922ZM72.8659 1.92097L72.9652 2.77672V2.77672L72.8659 1.92097ZM73.4613 1.85185L73.362 0.996092V0.996092L73.4613 1.85185ZM74.0568 1.78272L74.1561 2.63848V2.63848L74.0568 1.78272ZM74.8497 1.56532L75.1918 2.35599L75.1918 2.35599L74.8497 1.56532ZM75.4437 1.30835L75.1016 0.51768L75.1016 0.517681L75.4437 1.30835ZM76.0376 1.05137L76.3797 1.84204V1.84204L76.0376 1.05137ZM76.8326 1.02279L77.1228 0.211618L77.1227 0.211617L76.8326 1.02279ZM77.4311 1.23689L77.141 2.04805V2.04805L77.4311 1.23689ZM78.0297 1.45099L78.3199 0.639821V0.63982L78.0297 1.45099ZM78.8327 1.46199L79.0998 2.28104V2.28104L78.8327 1.46199ZM79.4387 1.26439L79.1716 0.445333V0.445334L79.4387 1.26439ZM80.0447 1.06679L80.3118 1.88584V1.88584L80.0447 1.06679ZM80.8473 0.928762L80.8609 1.79015V1.79015L80.8473 0.928762ZM81.4452 0.919327L81.4316 0.0579352V0.0579352L81.4452 0.919327ZM82.0431 0.909893L82.0567 1.77128V1.77128L82.0431 0.909893ZM82.843 0.893217L82.8653 1.75443V1.75443L82.843 0.893217ZM83.445 0.877639L83.4227 0.0164274V0.0164274L83.445 0.877639ZM84.047 0.86206L84.0693 1.72327V1.72327L84.047 0.86206ZM84.8446 1.03178L85.201 0.247461V0.24746L84.8446 1.03178ZM85.4392 1.30194L85.0828 2.08626L85.0828 2.08626L85.4392 1.30194ZM86.0337 1.5721L86.3901 0.787778V0.787777L86.0337 1.5721ZM86.8267 1.72655L86.8823 2.58625V2.58625L86.8267 1.72655ZM87.4216 1.68807L87.366 0.828363V0.828363L87.4216 1.68807ZM88.0166 1.64958L88.0722 2.50929V2.50929L88.0166 1.64958ZM88.8131 1.64832L88.8656 0.788414V0.788414L88.8131 1.64832ZM89.4129 1.68489L89.3605 2.5448V2.5448L89.4129 1.68489ZM90.0128 1.72147L90.0652 0.861572V0.861572L90.0128 1.72147ZM90.8125 1.80446L90.9374 0.952069V0.952069L90.8125 1.80446ZM91.4123 1.89237L91.2874 2.74476V2.74476L91.4123 1.89237ZM92.0121 1.98027L92.137 1.12788V1.12788L92.0121 1.98027ZM92.8085 2.0485L92.8294 1.18726V1.18726L92.8085 2.0485ZM93.4034 2.06295L93.3824 2.92419V2.92419L93.4034 2.06295ZM93.9982 2.07739L94.0191 1.21615V1.21615L93.9982 2.07739ZM94.7837 2.20442L95.0326 1.37966V1.37966L94.7837 2.20442ZM95.3671 2.3805L95.1182 3.20526V3.20526L95.3671 2.3805ZM95.9506 2.55659L96.1995 1.73184V1.73184L95.9506 2.55659ZM96.7589 2.59603L96.9164 3.44302V3.44302L96.7589 2.59603ZM97.3881 2.4791L97.2307 1.6321L97.2307 1.6321L97.3881 2.4791ZM98.0172 2.36216L98.1746 3.20916V3.20916L98.0172 2.36216ZM98.8019 2.50399L99.2461 1.76581V1.76581L98.8019 2.50399ZM99.3498 2.83365L98.9056 3.57183L98.9056 3.57183L99.3498 2.83365ZM99.8977 3.16332L100.342 2.42514V2.42514L99.8977 3.16332ZM100.676 3.34081L100.764 4.19784V4.19784L100.676 3.34081ZM101.297 3.27739L101.209 2.42036V2.42036L101.297 3.27739ZM101.917 3.21397L102.005 4.071H102.005L101.917 3.21397ZM102.706 3.22891L102.835 2.37726V2.37726L102.706 3.22891ZM103.268 3.31475L103.138 4.1664L103.138 4.1664L103.268 3.31475ZM103.831 3.40059L103.961 2.54894V2.54893L103.831 3.40059ZM104.194 3.52551L105.04 3.68552L105.04 3.68546L104.194 3.52551ZM104.174 3.62705L104.829 4.18687L104.978 4.01249L105.021 3.78707L104.174 3.62705ZM104.044 3.77984L103.389 3.22002L102.398 4.37887L103.902 4.62961L104.044 3.77984ZM104.001 4.64605C104.47 4.7243 104.914 4.40728 104.992 3.93796C105.07 3.46865 104.753 3.02476 104.284 2.94652L104.142 3.79628L104.001 4.64605ZM4.20239 53.7594L5.01459 54.0467L5.04793 53.9524L4.23574 53.6651L3.42354 53.3779L3.3902 53.4722L4.20239 53.7594ZM4.23574 53.6651L4.95457 54.14L5.60204 53.1598L4.88321 52.685L4.16438 52.2101L3.51691 53.1903L4.23574 53.6651ZM4.88321 52.685L5.60204 53.1598C5.92024 52.6781 6.18467 52.1156 6.14286 51.5368L5.2836 51.5988L4.42434 51.6609C4.4235 51.6492 4.42859 51.6862 4.3908 51.7887C4.35343 51.8901 4.28363 52.0296 4.16437 52.2101L4.88321 52.685ZM5.2836 51.5988L6.14286 51.5368L6.09598 50.8878L5.23672 50.9498L4.37746 51.0119L4.42434 51.6609L5.2836 51.5988ZM5.23672 50.9498L6.09598 50.8878L6.04911 50.2388L5.18984 50.3008L4.33058 50.3629L4.37746 51.0119L5.23672 50.9498ZM5.18984 50.3008L6.04911 50.2388C6.03564 50.0523 6.05631 49.8925 6.10216 49.751L5.28262 49.4854L4.46308 49.2198C4.34356 49.5886 4.30238 49.9724 4.33058 50.3629L5.18984 50.3008ZM5.28262 49.4854L6.10216 49.751L6.2882 49.1769L5.46866 48.9113L4.64912 48.6457L4.46308 49.2198L5.28262 49.4854ZM5.46866 48.9113L6.2882 49.1769L6.47424 48.6028L5.6547 48.3372L4.83516 48.0717L4.64912 48.6457L5.46866 48.9113ZM5.6547 48.3372L6.47425 48.6028C6.54985 48.3695 6.63474 48.1393 6.72893 47.9122L5.93316 47.5822L5.13739 47.2521C5.02568 47.5215 4.92493 47.7947 4.83516 48.0717L5.6547 48.3372ZM5.93316 47.5822L6.72893 47.9122L6.96057 47.3537L6.1648 47.0237L5.36904 46.6936L5.13739 47.2521L5.93316 47.5822ZM6.1648 47.0237L6.96057 47.3537L7.19222 46.7952L6.39645 46.4652L5.60068 46.1351L5.36904 46.6936L6.1648 47.0237ZM6.39645 46.4652L7.19222 46.7952C7.26473 46.6204 7.36124 46.4548 7.48418 46.2972L6.80505 45.7672L6.12591 45.2371C5.90996 45.5138 5.73407 45.8135 5.60068 46.1351L6.39645 46.4652ZM6.80505 45.7672L7.48418 46.2972L7.86543 45.8088L7.1863 45.2787L6.50716 44.7487L6.12591 45.2371L6.80505 45.7672ZM7.1863 45.2787L7.86543 45.8088L8.24669 45.3203L7.56755 44.7902L6.88842 44.2602L6.50717 44.7487L7.1863 45.2787ZM7.56755 44.7902L8.24669 45.3203C8.4684 45.0362 8.6437 44.726 8.76874 44.3912L7.96169 44.0898L7.15464 43.7884C7.09305 43.9533 7.00559 44.11 6.88842 44.2602L7.56755 44.7902ZM7.96169 44.0898L8.76874 44.3912L8.9787 43.829L8.17165 43.5276L7.3646 43.2262L7.15464 43.7884L7.96169 44.0898ZM8.17165 43.5276L8.9787 43.829L9.18866 43.2668L8.38161 42.9654L7.57456 42.664L7.3646 43.2262L8.17165 43.5276ZM8.38161 42.9654L9.18866 43.2668C9.26244 43.0693 9.3547 42.8803 9.46587 42.6994L8.73183 42.2484L7.99778 41.7975C7.82863 42.0728 7.6874 42.3619 7.57456 42.664L8.38161 42.9654ZM8.73183 42.2484L9.46587 42.6994L9.78124 42.186L9.0472 41.7351L8.31315 41.2841L7.99778 41.7975L8.73183 42.2484ZM9.0472 41.7351L9.78124 42.186L10.0966 41.6727L9.36257 41.2217L8.62852 40.7708L8.31315 41.2841L9.0472 41.7351ZM9.36257 41.2217L10.0966 41.6727C10.2198 41.4722 10.3546 41.278 10.5012 41.0902L9.82218 40.5601L9.14313 40.0299C8.95726 40.268 8.78567 40.515 8.62852 40.7708L9.36257 41.2217ZM9.82218 40.5601L10.5012 41.0902L10.8753 40.6111L10.1962 40.081L9.51718 39.5508L9.14313 40.0299L9.82218 40.5601ZM10.1962 40.081L10.8753 40.6111L11.2493 40.132L10.5703 39.6019L9.89123 39.0717L9.51718 39.5508L10.1962 40.081ZM10.5703 39.6019L11.2493 40.132C11.443 39.884 11.6152 39.6239 11.7653 39.3519L11.011 38.9357L10.2567 38.5195C10.1517 38.7099 10.0301 38.8939 9.89122 39.0717L10.5703 39.6019ZM11.011 38.9357L11.7653 39.3519L12.0524 38.8316L11.2981 38.4154L10.5438 37.9992L10.2567 38.5195L11.011 38.9357ZM11.2981 38.4154L12.0524 38.8316L12.3394 38.3114L11.5851 37.8952L10.8308 37.479L10.5438 37.9992L11.2981 38.4154ZM11.5851 37.8952L12.3394 38.3114C12.5355 37.956 12.6388 37.5657 12.6664 37.158L11.8069 37.0998L10.9473 37.0417C10.9345 37.232 10.8899 37.3719 10.8308 37.479L11.5851 37.8952ZM11.8069 37.0998L12.6664 37.158L12.7119 36.4853L11.8524 36.4271L10.9929 36.3689L10.9473 37.0417L11.8069 37.0998ZM11.8524 36.4271L12.7119 36.4853L12.7575 35.8126L11.8979 35.7544L11.0384 35.6962L10.9929 36.3689L11.8524 36.4271ZM11.8979 35.7544L12.7575 35.8126C12.7636 35.7223 12.7861 35.6992 12.8114 35.6769L12.243 35.0296L11.6746 34.3822C11.2803 34.7284 11.0728 35.1885 11.0384 35.6962L11.8979 35.7544ZM12.243 35.0296L12.8114 35.6769L13.2835 35.2624L12.715 34.6151L12.1466 33.9677L11.6746 34.3822L12.243 35.0296ZM12.715 34.6151L13.2835 35.2624L13.7555 34.8479L13.1871 34.2006L12.6186 33.5532L12.1466 33.9677L12.715 34.6151ZM13.1871 34.2006L13.7555 34.8479C13.9668 34.6624 14.1752 34.4781 14.3808 34.295L13.8078 33.6517L13.2349 33.0083C13.0324 33.1887 12.827 33.3703 12.6186 33.5532L13.1871 34.2006ZM13.8078 33.6517L14.3808 34.295L14.8399 33.8861L14.267 33.2428L13.694 32.5994L13.2349 33.0083L13.8078 33.6517ZM14.267 33.2428L14.8399 33.8861L15.299 33.4772L14.7261 32.8339L14.1531 32.1905L13.694 32.5994L14.267 33.2428ZM14.7261 32.8339L15.299 33.4772C15.6683 33.1484 15.8795 32.7197 15.9507 32.2448L15.0987 32.1172L14.2467 31.9896C14.2291 32.1068 14.192 32.1559 14.1531 32.1905L14.7261 32.8339ZM15.0987 32.1172L15.9507 32.2448L16.0504 31.5787L15.1984 31.4511L14.3464 31.3235L14.2467 31.9896L15.0987 32.1172ZM15.1984 31.4511L16.0504 31.5787L16.1502 30.9126L15.2982 30.785L14.4462 30.6574L14.3464 31.3235L15.1984 31.4511ZM15.2982 30.785L16.1502 30.9126C16.1536 30.8898 16.1578 30.8754 16.1606 30.8675C16.1634 30.8599 16.1653 30.8569 16.1655 30.8566C16.1657 30.8563 16.1661 30.8557 16.1679 30.8539C16.1699 30.8519 16.1755 30.8467 16.1874 30.8392L15.7259 30.1118L15.2643 29.3843C14.8009 29.6784 14.5254 30.1282 14.4462 30.6574L15.2982 30.785ZM15.7259 30.1118L16.1874 30.8392L16.7292 30.4955L16.2677 29.768L15.8061 29.0406L15.2643 29.3843L15.7259 30.1118ZM16.2677 29.768L16.7292 30.4955L17.271 30.1517L16.8094 29.4243L16.3479 28.6968L15.8061 29.0406L16.2677 29.768ZM16.8094 29.4243L17.271 30.1517C17.5791 29.9563 17.8523 29.7234 18.0842 29.4512L17.4284 28.8925L16.7727 28.3338C16.6608 28.4651 16.5214 28.5868 16.3479 28.6968L16.8094 29.4243ZM17.4284 28.8925L18.0842 29.4512L18.4709 28.9973L17.8151 28.4386L17.1594 27.8799L16.7727 28.3338L17.4284 28.8925ZM17.8151 28.4386L18.4709 28.9973L18.8576 28.5434L18.2019 27.9847L17.5461 27.426L17.1594 27.8799L17.8151 28.4386ZM18.2019 27.9847L18.8576 28.5434C19.0396 28.3298 19.2161 28.1109 19.3871 27.8867L18.702 27.3643L18.017 26.8419C17.8648 27.0415 17.7078 27.2362 17.5461 27.426L18.2019 27.9847ZM18.702 27.3643L19.3871 27.8867L19.7506 27.4099L19.0656 26.8875L18.3805 26.3652L18.017 26.8419L18.702 27.3643ZM19.0656 26.8875L19.7506 27.4099L20.1142 26.9332L19.4291 26.4108L18.7441 25.8884L18.3805 26.3651L19.0656 26.8875ZM19.4291 26.4108L20.1142 26.9332C20.2507 26.7542 20.3988 26.5866 20.5587 26.4301L19.956 25.8144L19.3534 25.1988C19.1339 25.4136 18.9307 25.6436 18.7441 25.8884L19.4291 26.4108ZM19.956 25.8144L20.5587 26.43L20.9855 26.0122L20.3829 25.3966L19.7802 24.7809L19.3534 25.1988L19.956 25.8144ZM20.3829 25.3966L20.9855 26.0122L21.4123 25.5944L20.8097 24.9788L20.2071 24.3631L19.7802 24.7809L20.3829 25.3966ZM20.8097 24.9788L21.4123 25.5944C21.7006 25.3123 21.912 24.9731 22.0534 24.5939L21.2462 24.2928L20.439 23.9917C20.3779 24.1558 20.2982 24.2739 20.2071 24.3631L20.8097 24.9788ZM21.2462 24.2928L22.0534 24.5939L22.2814 23.9827L21.4742 23.6817L20.667 23.3806L20.439 23.9918L21.2462 24.2928ZM21.4742 23.6817L22.2814 23.9827L22.5093 23.3716L21.7021 23.0705L20.8949 22.7695L20.667 23.3806L21.4742 23.6817ZM21.7021 23.0705L22.5093 23.3716C22.5388 23.2925 22.5719 23.261 22.6247 23.2335L22.2275 22.4691L21.8303 21.7046C21.3852 21.9359 21.0681 22.3053 20.8949 22.7695L21.7021 23.0705ZM22.2275 22.4691L22.6247 23.2335L23.1848 22.9425L22.7876 22.178L22.3904 21.4136L21.8303 21.7046L22.2275 22.4691ZM22.7876 22.178L23.1848 22.9425L23.745 22.6515L23.3477 21.887L22.9505 21.1225L22.3904 21.4136L22.7876 22.178ZM23.3477 21.887L23.745 22.6515C24.0258 22.5055 24.2924 22.3447 24.5439 22.1686L24.0497 21.4629L23.5556 20.7572C23.369 20.8879 23.1675 21.0098 22.9505 21.1225L23.3477 21.887ZM24.0497 21.4629L24.5439 22.1686L25.0368 21.8235L24.5426 21.1178L24.0484 20.4121L23.5556 20.7572L24.0497 21.4629ZM24.5426 21.1178L25.0368 21.8235L25.5296 21.4783L25.0355 20.7726L24.5413 20.067L24.0484 20.4121L24.5426 21.1178ZM25.0355 20.7726L25.5296 21.4783C25.8618 21.2457 26.1262 20.9446 26.3234 20.5899L25.5704 20.1713L24.8174 19.7528C24.7394 19.8931 24.6472 19.9928 24.5413 20.067L25.0355 20.7726ZM25.5704 20.1713L26.3234 20.5899L26.6329 20.033L25.8799 19.6145L25.1269 19.196L24.8174 19.7528L25.5704 20.1713ZM25.8799 19.6145L26.6329 20.033L26.9424 19.4762L26.1894 19.0577L25.4364 18.6391L25.1269 19.196L25.8799 19.6145ZM26.1894 19.0577L26.9424 19.4762C26.9997 19.3731 27.0663 19.3124 27.1504 19.2697L26.7609 18.5013L26.3714 17.7329C25.9686 17.9371 25.6542 18.2473 25.4364 18.6391L26.1894 19.0577ZM26.7609 18.5013L27.1504 19.2697L27.6982 18.9921L27.3087 18.2237L26.9191 17.4553L26.3714 17.7329L26.7609 18.5013ZM27.3087 18.2237L27.6982 18.9921L28.2459 18.7144L27.8564 17.946L27.4669 17.1776L26.9191 17.4553L27.3087 18.2237ZM27.8564 17.946L28.2459 18.7144C28.564 18.5532 28.8525 18.3493 29.1083 18.1034L28.5111 17.4825L27.9139 16.8615C27.7836 16.9868 27.6357 17.092 27.4669 17.1776L27.8564 17.946ZM28.5111 17.4825L29.1083 18.1034L29.5425 17.6857L28.9453 17.0648L28.3481 16.4439L27.9139 16.8615L28.5111 17.4825ZM28.9453 17.0648L29.5425 17.6857L29.9767 17.2681L29.3796 16.6472L28.7824 16.0263L28.3481 16.4439L28.9453 17.0648ZM29.3796 16.6472L29.9767 17.2681C30.17 17.0822 30.3638 16.8956 30.558 16.7083L29.96 16.0882L29.3619 15.4681C29.1682 15.6549 28.9751 15.8409 28.7824 16.0263L29.3796 16.6472ZM29.96 16.0882L30.558 16.7082L30.9944 16.2874L30.3963 15.6673L29.7983 15.0472L29.3619 15.4681L29.96 16.0882ZM30.3963 15.6673L30.9944 16.2874L31.4308 15.8665L30.8327 15.2464L30.2347 14.6263L29.7983 15.0472L30.3963 15.6673ZM30.8327 15.2464L31.4308 15.8665C31.5401 15.7611 31.6662 15.6804 31.8163 15.6227L31.5077 14.8184L31.199 14.0141C30.8371 14.153 30.5133 14.3576 30.2347 14.6263L30.8327 15.2464ZM31.5077 14.8184L31.8163 15.6227L32.3924 15.4017L32.0837 14.5974L31.7751 13.7931L31.199 14.0141L31.5077 14.8184ZM32.0837 14.5974L32.3924 15.4017L32.9685 15.1806L32.6598 14.3763L32.3511 13.572L31.7751 13.7931L32.0837 14.5974ZM32.6598 14.3763L32.9685 15.1806C33.3561 15.0319 33.6913 14.7972 33.9656 14.4858L33.3191 13.9164L32.6726 13.347C32.5799 13.4523 32.4755 13.5243 32.3511 13.572L32.6598 14.3763ZM33.3191 13.9164L33.9656 14.4858L34.3785 14.0169L33.732 13.4475L33.0855 12.8782L32.6726 13.347L33.3191 13.9164ZM33.732 13.4475L34.3785 14.0169L34.7914 13.5481L34.1449 12.9787L33.4984 12.4093L33.0855 12.8782L33.732 13.4475ZM34.1449 12.9787L34.7914 13.5481C34.9236 13.398 35.0667 13.2757 35.221 13.1773L34.758 12.4508L34.295 11.7243C33.9989 11.9131 33.7333 12.1427 33.4984 12.4093L34.1449 12.9787ZM34.758 12.4508L35.2211 13.1773L35.7278 12.8543L35.2648 12.1278L34.8017 11.4014L34.295 11.7244L34.758 12.4508ZM35.2648 12.1278L35.7278 12.8543L36.2346 12.5313L35.7715 11.8049L35.3085 11.0784L34.8017 11.4014L35.2648 12.1278ZM35.7715 11.8049L36.2346 12.5313C36.4133 12.4174 36.6036 12.3201 36.8063 12.2394L36.4877 11.439L36.1692 10.6385C35.8674 10.7586 35.5802 10.9052 35.3085 11.0784L35.7715 11.8049ZM36.4877 11.439L36.8063 12.2394L37.3739 12.0135L37.0553 11.2131L36.7367 10.4126L36.1692 10.6385L36.4877 11.439ZM37.0553 11.2131L37.3739 12.0135L37.9414 11.7876L37.6229 10.9872L37.3043 10.1868L36.7367 10.4126L37.0553 11.2131ZM37.6229 10.9872L37.9414 11.7876C38.2164 11.6782 38.4839 11.5582 38.7439 11.4275L38.357 10.6578L37.97 9.88806C37.7557 9.9958 37.5338 10.0954 37.3043 10.1868L37.6229 10.9872ZM38.357 10.6578L38.7439 11.4275L39.2775 11.1592L38.8906 10.3895L38.5036 9.61981L37.97 9.88806L38.357 10.6578ZM38.8906 10.3895L39.2775 11.1592L39.8111 10.891L39.4242 10.1213L39.0373 9.35155L38.5036 9.6198L38.8906 10.3895ZM39.4242 10.1213L39.8111 10.891C39.9911 10.8005 40.1837 10.7286 40.3905 10.6758L40.1777 9.84104L39.9648 9.00624C39.6413 9.08871 39.3316 9.20357 39.0372 9.35155L39.4242 10.1213ZM40.1777 9.84104L40.3905 10.6758L40.9871 10.5237L40.7743 9.68894L40.5614 8.85415L39.9648 9.00624L40.1777 9.84104ZM40.7743 9.68894L40.9871 10.5237L41.5837 10.3717L41.3709 9.53685L41.158 8.70205L40.5614 8.85414L40.7743 9.68894ZM41.3709 9.53685L41.5837 10.3717C41.9828 10.2699 42.3412 10.0791 42.6496 9.80621L42.0787 9.16103L41.5078 8.51584C41.4027 8.60887 41.2892 8.66861 41.158 8.70205L41.3709 9.53685ZM42.0787 9.16103L42.6496 9.80621L43.1148 9.39456L42.544 8.74938L41.9731 8.1042L41.5078 8.51584L42.0787 9.16103ZM42.544 8.74938L43.1148 9.39456L43.5801 8.98292L43.0092 8.33773L42.4383 7.69255L41.9731 8.10419L42.544 8.74938ZM43.0092 8.33773L43.5801 8.98291C43.7288 8.85128 43.8873 8.74612 44.0566 8.66474L43.6834 7.88829L43.3101 7.11184C42.994 7.26381 42.703 7.45827 42.4383 7.69255L43.0092 8.33773ZM43.6834 7.88829L44.0566 8.66474L44.6027 8.40223L44.2295 7.62578L43.8562 6.84933L43.3101 7.11184L43.6834 7.88829ZM44.2295 7.62578L44.6027 8.40223L45.1488 8.13972L44.7756 7.36327L44.4023 6.58682L43.8562 6.84933L44.2295 7.62578ZM44.7756 7.36327L45.1488 8.13972C45.3992 8.01935 45.6471 7.89562 45.8923 7.76855L45.496 7.00363L45.0997 6.23871C44.8698 6.35782 44.6374 6.47386 44.4023 6.58682L44.7756 7.36327ZM45.496 7.00363L45.8923 7.76855L46.4268 7.49159L46.0305 6.72668L45.6342 5.96176L45.0997 6.23871L45.496 7.00363ZM46.0305 6.72668L46.4268 7.49159L46.9614 7.21464L46.565 6.44972L46.1687 5.6848L45.6342 5.96176L46.0305 6.72668ZM46.565 6.44972L46.9614 7.21464C47.1625 7.11042 47.3714 7.02033 47.5884 6.94441L47.3038 6.13126L47.0193 5.31811C46.7263 5.42062 46.4427 5.54284 46.1687 5.6848L46.565 6.44972ZM47.3038 6.13126L47.5884 6.94441L48.162 6.74367L47.8775 5.93052L47.5929 5.11737L47.0193 5.31811L47.3038 6.13126ZM47.8775 5.93052L48.162 6.74367L48.7357 6.54293L48.4511 5.72978L48.1666 4.91663L47.5929 5.11737L47.8775 5.93052ZM48.4511 5.72978L48.7357 6.54293C48.9932 6.4528 49.2486 6.36207 49.5017 6.27072L49.2093 5.46037L48.9169 4.65002C48.669 4.73945 48.4189 4.82832 48.1666 4.91663L48.4511 5.72978ZM49.2093 5.46037L49.5017 6.27072L50.0653 6.06734L49.7729 5.25699L49.4804 4.44664L48.9169 4.65002L49.2093 5.46037ZM49.7729 5.25699L50.0653 6.06734L50.6289 5.86396L50.3364 5.05361L50.044 4.24326L49.4804 4.44664L49.7729 5.25699ZM50.3364 5.05361L50.6289 5.86396C50.7617 5.81604 50.9132 5.79243 51.093 5.80271L51.1422 4.94261L51.1914 4.08252C50.7978 4.06002 50.4122 4.1104 50.044 4.24326L50.3364 5.05361ZM51.1422 4.94261L51.093 5.80271L51.7381 5.83958L51.7872 4.97949L51.8364 4.11939L51.1914 4.08252L51.1422 4.94261ZM51.7872 4.97949L51.7381 5.83958L52.3831 5.87646L52.4323 5.01636L52.4814 4.15626L51.8364 4.11939L51.7872 4.97949ZM52.4323 5.01636L52.3831 5.87646C52.7906 5.89975 53.1891 5.8381 53.5649 5.67939L53.2298 4.88575L52.8947 4.09211C52.7805 4.14033 52.6473 4.16575 52.4814 4.15626L52.4323 5.01636ZM53.2298 4.88575L53.5649 5.67939L54.1162 5.44659L53.7811 4.65296L53.4459 3.85932L52.8947 4.09211L53.2298 4.88575ZM53.7811 4.65296L54.1162 5.4466L54.6675 5.2138L54.3324 4.42016L53.9972 3.62652L53.4459 3.85932L53.7811 4.65296ZM54.3324 4.42016L54.6675 5.2138C54.8533 5.13533 55.0468 5.07782 55.2493 5.04134L55.0965 4.19349L54.9437 3.34565C54.6173 3.40447 54.3014 3.49807 53.9972 3.62652L54.3324 4.42016ZM55.0965 4.19349L55.2493 5.04134L55.8442 4.93412L55.6914 4.08628L55.5386 3.23844L54.9437 3.34565L55.0965 4.19349ZM55.6914 4.08628L55.8442 4.93412L56.4391 4.82691L56.2863 3.97907L56.1335 3.13123L55.5386 3.23844L55.6914 4.08628ZM56.2863 3.97907L56.4391 4.82691C56.8059 4.76082 57.1529 4.63086 57.4769 4.44213L57.0434 3.69768L56.6098 2.95323C56.4533 3.04439 56.2956 3.10202 56.1335 3.13123L56.2863 3.97907ZM57.0434 3.69768L57.4769 4.44213L58.0176 4.12726L57.584 3.38282L57.1504 2.63837L56.6098 2.95323L57.0434 3.69768ZM57.584 3.38282L58.0176 4.12727L58.5582 3.8124L58.1246 3.06795L57.6911 2.3235L57.1504 2.63837L57.584 3.38282ZM58.1246 3.06795L58.5582 3.8124C58.6068 3.78411 58.6524 3.77135 58.7403 3.78928L58.9124 2.94513L59.0844 2.10099C58.6026 2.00279 58.1231 2.07191 57.6911 2.3235L58.1246 3.06795ZM58.9124 2.94513L58.7403 3.78928L59.3813 3.91992L59.5534 3.07578L59.7254 2.23164L59.0844 2.10099L58.9124 2.94513ZM59.5534 3.07578L59.3813 3.91992L60.0223 4.05057L60.1944 3.20643L60.3664 2.36228L59.7254 2.23164L59.5534 3.07578ZM60.1944 3.20643L60.0223 4.05057C60.4787 4.1436 60.9363 4.0977 61.3633 3.89568L60.9949 3.11694L60.6265 2.3382C60.5558 2.37162 60.4797 2.38538 60.3664 2.36228L60.1944 3.20643ZM60.9949 3.11694L61.3633 3.89567L61.9232 3.63079L61.5548 2.85206L61.1863 2.07332L60.6265 2.3382L60.9949 3.11694ZM61.5548 2.85206L61.9232 3.63079L62.4831 3.36591L62.1146 2.58717L61.7462 1.80844L61.1863 2.07332L61.5548 2.85206ZM62.1146 2.58717L62.4831 3.36591C62.6133 3.30427 62.7407 3.27768 62.875 3.28054L62.8933 2.41924L62.9117 1.55793C62.5053 1.54926 62.1135 1.63463 61.7462 1.80844L62.1146 2.58717ZM62.8933 2.41924L62.875 3.28054L63.4832 3.29352L63.5016 2.43221L63.52 1.57091L62.9117 1.55793L62.8933 2.41924ZM63.5016 2.43221L63.4832 3.29352L64.0914 3.3065L64.1098 2.44519L64.1282 1.58389L63.52 1.57091L63.5016 2.43221ZM64.1098 2.44519L64.0914 3.3065C64.4069 3.31323 64.72 3.29523 65.0306 3.25228L64.9125 2.3989L64.7945 1.54553C64.5754 1.57583 64.3534 1.58869 64.1282 1.58389L64.1098 2.44519ZM64.9125 2.3989L65.0306 3.25228L65.6264 3.16987L65.5083 2.31649L65.3903 1.46312L64.7945 1.54553L64.9125 2.3989ZM65.5083 2.31649L65.6264 3.16987L66.2222 3.08746L66.1041 2.23408L65.9861 1.38071L65.3903 1.46312L65.5083 2.31649ZM66.1041 2.23408L66.2222 3.08746C66.4442 3.05675 66.6661 3.04297 66.8884 3.046L66.9001 2.18458L66.9119 1.32316C66.6024 1.31894 66.2936 1.33817 65.9861 1.38071L66.1041 2.23408ZM66.9001 2.18458L66.8884 3.046L67.4866 3.05416L67.4983 2.19274L67.5101 1.33132L66.9119 1.32316L66.9001 2.18458ZM67.4983 2.19274L67.4866 3.05416L68.0848 3.06231L68.0965 2.20089L68.1083 1.33947L67.5101 1.33132L67.4983 2.19274ZM68.0965 2.20089L68.0848 3.06231C68.4545 3.06735 68.8172 3.00655 69.1692 2.88479L68.8875 2.07065L68.6058 1.2565C68.4348 1.31565 68.2703 1.34168 68.1083 1.33947L68.0965 2.20089ZM68.8875 2.07065L69.1692 2.88479L69.7574 2.68127L69.4757 1.86713L69.194 1.05298L68.6058 1.2565L68.8875 2.07065ZM69.4757 1.86713L69.7574 2.68127L70.3456 2.47775L70.0639 1.6636L69.7822 0.849459L69.194 1.05298L69.4757 1.86713ZM70.0639 1.6636L70.3456 2.47775C70.4585 2.43868 70.5625 2.4329 70.675 2.45745L70.8586 1.61575L71.0423 0.774046C70.618 0.681497 70.1922 0.707623 69.7822 0.84946L70.0639 1.6636ZM70.8586 1.61575L70.675 2.45745L71.2788 2.58919L71.4625 1.74749L71.6461 0.905784L71.0423 0.774046L70.8586 1.61575ZM71.4625 1.74749L71.2788 2.58919L71.8827 2.72093L72.0663 1.87922L72.25 1.03752L71.6461 0.905784L71.4625 1.74749ZM72.0663 1.87922L71.8827 2.72092C72.2411 2.79911 72.6032 2.81874 72.9652 2.77672L72.8659 1.92097L72.7665 1.06521C72.5993 1.08463 72.4284 1.07644 72.25 1.03752L72.0663 1.87922ZM72.8659 1.92097L72.9652 2.77672L73.5607 2.7076L73.4613 1.85185L73.362 0.996092L72.7665 1.06521L72.8659 1.92097ZM73.4613 1.85185L73.5607 2.7076L74.1561 2.63848L74.0568 1.78272L73.9575 0.926971L73.362 0.996092L73.4613 1.85185ZM74.0568 1.78272L74.1561 2.63848C74.5108 2.5973 74.8567 2.501 75.1918 2.35599L74.8497 1.56532L74.5076 0.774658C74.3148 0.858075 74.132 0.906703 73.9575 0.926971L74.0568 1.78272ZM74.8497 1.56532L75.1918 2.35599L75.7858 2.09901L75.4437 1.30835L75.1016 0.517681L74.5076 0.774659L74.8497 1.56532ZM75.4437 1.30835L75.7858 2.09901L76.3797 1.84204L76.0376 1.05137L75.6955 0.260703L75.1016 0.51768L75.4437 1.30835ZM76.0376 1.05137L76.3797 1.84204C76.4472 1.81285 76.4862 1.81384 76.5424 1.83395L76.8326 1.02279L77.1227 0.211617C76.6469 0.0414152 76.156 0.0614669 75.6955 0.260704L76.0376 1.05137ZM76.8326 1.02279L76.5424 1.83395L77.141 2.04805L77.4311 1.23689L77.7213 0.425719L77.1228 0.211618L76.8326 1.02279ZM77.4311 1.23689L77.141 2.04805L77.7395 2.26215L78.0297 1.45099L78.3199 0.63982L77.7213 0.425719L77.4311 1.23689ZM78.0297 1.45099L77.7395 2.26215C78.1858 2.42179 78.6495 2.42787 79.0998 2.28104L78.8327 1.46199L78.5656 0.642934C78.4773 0.671747 78.4056 0.670497 78.3199 0.639821L78.0297 1.45099ZM78.8327 1.46199L79.0998 2.28104L79.7058 2.08344L79.4387 1.26439L79.1716 0.445334L78.5656 0.642934L78.8327 1.46199ZM79.4387 1.26439L79.7058 2.08344L80.3118 1.88584L80.0447 1.06679L79.7776 0.247732L79.1716 0.445333L79.4387 1.26439ZM80.0447 1.06679L80.3118 1.88584C80.5046 1.82297 80.6868 1.7929 80.8609 1.79015L80.8473 0.928762L80.8337 0.0673701C80.4763 0.0730094 80.1234 0.134961 79.7776 0.247733L80.0447 1.06679ZM80.8473 0.928762L80.8609 1.79015L81.4588 1.78072L81.4452 0.919327L81.4316 0.0579352L80.8337 0.0673701L80.8473 0.928762ZM81.4452 0.919327L81.4588 1.78072L82.0567 1.77128L82.0431 0.909893L82.0295 0.0485003L81.4316 0.0579352L81.4452 0.919327ZM82.0431 0.909893L82.0567 1.77128C82.3254 1.76705 82.5949 1.76143 82.8653 1.75443L82.843 0.893217L82.8208 0.0320058C82.5561 0.0388551 82.2924 0.044353 82.0295 0.0485003L82.0431 0.909893ZM82.843 0.893217L82.8653 1.75443L83.4673 1.73885L83.445 0.877639L83.4227 0.0164274L82.8208 0.0320058L82.843 0.893217ZM83.445 0.877639L83.4673 1.73885L84.0693 1.72327L84.047 0.86206L84.0247 0.000848889L83.4227 0.0164274L83.445 0.877639ZM84.047 0.86206L84.0693 1.72327C84.1956 1.72 84.3326 1.74537 84.4882 1.8161L84.8446 1.03178L85.201 0.24746C84.8282 0.0780541 84.4334 -0.00972867 84.0247 0.000848889L84.047 0.86206ZM84.8446 1.03178L84.4882 1.8161L85.0828 2.08626L85.4392 1.30194L85.7956 0.51762L85.201 0.247461L84.8446 1.03178ZM85.4392 1.30194L85.0828 2.08626L85.6773 2.35642L86.0337 1.5721L86.3901 0.787777L85.7956 0.517619L85.4392 1.30194ZM86.0337 1.5721L85.6773 2.35642C86.058 2.52942 86.4632 2.61335 86.8823 2.58625L86.8267 1.72655L86.7711 0.866845C86.6613 0.873948 86.5378 0.854919 86.3901 0.787778L86.0337 1.5721ZM86.8267 1.72655L86.8823 2.58625L87.4772 2.54777L87.4216 1.68807L87.366 0.828363L86.7711 0.866845L86.8267 1.72655ZM87.4216 1.68807L87.4772 2.54777L88.0722 2.50929L88.0166 1.64958L87.961 0.789881L87.366 0.828363L87.4216 1.68807ZM88.0166 1.64958L88.0722 2.50929C88.3004 2.49453 88.5298 2.49414 88.7607 2.50822L88.8131 1.64832L88.8656 0.788414C88.5633 0.76998 88.2617 0.770433 87.961 0.789882L88.0166 1.64958ZM88.8131 1.64832L88.7607 2.50822L89.3605 2.5448L89.4129 1.68489L89.4654 0.824993L88.8656 0.788414L88.8131 1.64832ZM89.4129 1.68489L89.3605 2.5448L89.9603 2.58138L90.0128 1.72147L90.0652 0.861572L89.4654 0.824993L89.4129 1.68489ZM90.0128 1.72147L89.9603 2.58138C90.2024 2.59614 90.4448 2.62128 90.6876 2.65686L90.8125 1.80446L90.9374 0.952069C90.647 0.909507 90.3563 0.879321 90.0652 0.861572L90.0128 1.72147ZM90.8125 1.80446L90.6876 2.65686L91.2874 2.74476L91.4123 1.89237L91.5372 1.03997L90.9374 0.952069L90.8125 1.80446ZM91.4123 1.89237L91.2874 2.74476L91.8872 2.83266L92.0121 1.98027L92.137 1.12788L91.5372 1.03997L91.4123 1.89237ZM92.0121 1.98027L91.8872 2.83266C92.1875 2.87669 92.4877 2.90247 92.7876 2.90975L92.8085 2.0485L92.8294 1.18726C92.6005 1.1817 92.3698 1.16199 92.137 1.12788L92.0121 1.98027ZM92.8085 2.0485L92.7876 2.90975L93.3824 2.92419L93.4034 2.06295L93.4243 1.2017L92.8294 1.18726L92.8085 2.0485ZM93.4034 2.06295L93.3824 2.92419L93.9773 2.93864L93.9982 2.07739L94.0191 1.21615L93.4243 1.2017L93.4034 2.06295ZM93.9982 2.07739L93.9773 2.93864C94.1625 2.94314 94.3477 2.97271 94.5348 3.02917L94.7837 2.20442L95.0326 1.37966C94.7011 1.27961 94.3626 1.22449 94.0191 1.21615L93.9982 2.07739ZM94.7837 2.20442L94.5348 3.02917L95.1182 3.20526L95.3671 2.3805L95.6161 1.55575L95.0326 1.37966L94.7837 2.20442ZM95.3671 2.3805L95.1182 3.20526L95.7016 3.38134L95.9506 2.55659L96.1995 1.73184L95.6161 1.55575L95.3671 2.3805ZM95.9506 2.55659L95.7016 3.38134C96.0993 3.50137 96.5084 3.51884 96.9164 3.44302L96.7589 2.59603L96.6015 1.74903C96.4502 1.77716 96.3204 1.76834 96.1995 1.73184L95.9506 2.55659ZM96.7589 2.59603L96.9164 3.44302L97.5455 3.32609L97.3881 2.4791L97.2307 1.6321L96.6015 1.74903L96.7589 2.59603ZM97.3881 2.4791L97.5455 3.32609L98.1746 3.20916L98.0172 2.36216L97.8598 1.51517L97.2307 1.6321L97.3881 2.4791ZM98.0172 2.36216L98.1746 3.20916C98.2474 3.19565 98.2949 3.20433 98.3578 3.24216L98.8019 2.50399L99.2461 1.76581C98.8219 1.51061 98.3463 1.42474 97.8598 1.51517L98.0172 2.36216ZM98.8019 2.50399L98.3578 3.24216L98.9056 3.57183L99.3498 2.83365L99.794 2.09548L99.2461 1.76581L98.8019 2.50399ZM99.3498 2.83365L98.9056 3.57183L99.4535 3.90149L99.8977 3.16332L100.342 2.42514L99.794 2.09548L99.3498 2.83365ZM99.8977 3.16332L99.4535 3.90149C99.8524 4.14148 100.298 4.24551 100.764 4.19784L100.676 3.34081L100.589 2.48378C100.504 2.49249 100.43 2.47819 100.342 2.42514L99.8977 3.16332ZM100.676 3.34081L100.764 4.19784L101.384 4.13442L101.297 3.27739L101.209 2.42036L100.589 2.48378L100.676 3.34081ZM101.297 3.27739L101.384 4.13442L102.005 4.071L101.917 3.21397L101.829 2.35694L101.209 2.42036L101.297 3.27739ZM101.917 3.21397L102.005 4.071C102.215 4.04952 102.404 4.05438 102.576 4.08056L102.706 3.22891L102.835 2.37726C102.507 2.32714 102.171 2.32204 101.829 2.35694L101.917 3.21397ZM102.706 3.22891L102.576 4.08056L103.138 4.1664L103.268 3.31475L103.398 2.4631L102.835 2.37726L102.706 3.22891ZM103.268 3.31475L103.138 4.1664L103.701 4.25224L103.831 3.40059L103.961 2.54893L103.398 2.4631L103.268 3.31475ZM103.831 3.40059L103.701 4.25224C103.815 4.26952 103.844 4.28034 103.829 4.2749C103.821 4.27229 103.802 4.26538 103.776 4.25271C103.751 4.24105 103.704 4.21647 103.649 4.17397C103.597 4.13379 103.505 4.05211 103.432 3.91684C103.351 3.76612 103.308 3.57235 103.347 3.36555L104.194 3.52551L105.04 3.68546C105.131 3.202 104.819 2.90102 104.703 2.81065C104.577 2.71377 104.45 2.66657 104.39 2.64596C104.254 2.59888 104.098 2.56981 103.961 2.54894L103.831 3.40059ZM104.194 3.52551L103.347 3.36549L103.328 3.46703L104.174 3.62705L105.021 3.78707L105.04 3.68552L104.194 3.52551ZM104.174 3.62705L103.52 3.06723L103.389 3.22002L104.044 3.77984L104.699 4.33966L104.829 4.18687L104.174 3.62705ZM104.044 3.77984L103.902 4.62961L104.001 4.64605L104.142 3.79628L104.284 2.94652L104.185 2.93007L104.044 3.77984Z" fill="white"/>
</svg>
