<svg width="69" height="66" viewBox="0 0 69 66" fill="none" xmlns="http://www.w3.org/2000/svg">
<path d="M46.1075 19.4881C46.1184 19.4885 46.0535 19.2204 46.0391 19.1703C45.92 18.787 46.0723 19.4875 46.1075 19.4881ZM46.8656 60.532C46.9837 60.3227 47.1001 60.1135 47.213 59.9046C46.8609 59.9418 46.3875 60.2394 46.045 60.202C45.9898 60.195 46.1192 59.6762 45.9903 59.6994C45.8614 59.7223 45.9006 60.3577 45.7089 60.4913C45.6875 60.5059 45.6584 60.5179 45.6228 60.5277C45.0899 60.6285 43.7817 60.4819 43.3302 60.5483C41.4058 60.86 39.6911 61.3387 38.7521 61.233C39.9688 60.5672 38.8807 60.218 38.629 60.4887C38.6049 60.5569 38.1819 61.7912 37.7316 61.7319C37.6247 61.7183 37.7401 61.2122 37.7917 60.8589C37.8588 60.5088 37.8219 60.3003 37.7504 60.9441C37.5449 61.9779 37.4167 62.1372 37.6682 62.441C37.6878 62.4665 37.7905 62.5188 37.9752 62.5947C38.1555 62.6704 38.423 62.7669 38.604 62.8758C38.7225 62.9501 38.8724 63.7456 39.0772 63.8346C39.2179 63.8949 39.3465 63.538 39.5671 63.6228C39.7388 63.687 39.9146 63.747 40.1001 63.8022C41.0644 64.0831 41.8351 64.2289 42.3198 64.2579C41.7828 62.2682 42.4927 63.527 42.4764 63.4451C42.53 62.9689 41.9908 62.6461 42.1676 62.3943C42.4738 62.5491 42.6556 62.7057 42.6995 62.881C42.7029 63.0181 43.0005 64.6184 42.8184 64.0478C42.9639 64.8838 42.8357 64.6725 42.3167 64.3734C41.8284 64.0728 40.9048 63.6715 40.697 64.03C40.656 64.1058 40.8279 64.3108 40.8152 64.5028C40.7903 64.6942 40.6529 64.8777 39.6819 64.9019C39.4652 64.9055 39.4874 64.3581 39.3806 64.4318C39.3231 64.4743 39.0615 66.2538 38.4599 65.408C38.2019 65.0865 39.4957 63.8221 36.6393 64.6354C37.8825 66.0587 33.3731 66.0844 30.8747 65.3176C30.6098 65.2366 30.3967 65.1566 30.2596 65.0891C30.4415 65.3179 30.6257 65.5446 30.8117 65.7692C30.8417 65.8002 30.8717 65.8312 30.9017 65.8621C30.8693 65.8435 30.8375 65.8256 30.8063 65.8084C29.7656 65.1483 29.4165 65.6584 29.1377 65.5904C27.9683 65.3009 26.2732 64.3279 24.8651 63.9503C23.2108 63.4869 22.7768 64.5356 20.817 63.225C21.2141 63.6712 21.6373 64.1126 22.0391 64.5298C20.5923 63.9056 19.0674 63.1213 17.5724 62.1818C21.8071 62.8269 16.8607 61.7487 16.5583 61.5209C16.0887 61.2835 17.0473 61.1875 16.2858 60.7808C16.2095 60.7397 15.9769 61.2906 14.8466 60.5693C12.5504 59.0191 13.4301 58.7284 12.6243 58.0632C12.5702 58.0124 12.3885 58.5714 11.1242 57.5518C7.89954 54.8642 11.2655 57.1776 11.6074 57.3711C11.7305 57.4232 11.8624 56.7782 12.2764 56.5474C12.7216 56.3237 13.2414 56.4474 14.9183 58.2804C13.7741 57.0568 14.3729 56.2753 14.2533 56.1481C14.2057 56.0939 13.688 55.6698 13.2475 55.2928C12.7994 54.9111 12.4374 54.5982 12.3925 54.5762C11.5767 54.1985 11.6017 55.1563 11.4045 55.1198C11.3228 55.1041 11.0797 54.5769 10.8219 54.3691C10.5473 54.1433 10.2924 54.2939 9.57129 54.9657C11.1097 54.0179 10.4268 53.4392 11.6452 54.3422C11.8547 54.2946 11.7473 53.917 11.6835 53.6521C11.6098 53.3765 11.6072 53.2519 11.6035 53.2502C11.5083 53.1723 11.5297 53.5097 11.3418 53.7479C10.0663 53.0769 10.8252 55.2069 9.24288 54.2943C7.90587 53.6422 5.43422 47.959 7.39548 53.2612C3.5221 47.8033 3.50611 45.6234 3.71207 45.9744C3.97583 46.1775 4.97477 47.8957 4.83834 47.4397C4.29245 46.1409 2.47454 41.3437 2.51586 40.7707C2.43065 39.9161 3.42895 42.735 2.9873 39.4226C2.94779 39.1459 2.58244 37.7949 2.30871 37.342C2.06704 36.9272 1.61736 37.07 2.025 40.6112C1.27817 35.8665 1.43168 34.5827 1.41841 33.6444C1.46635 32.7789 1.66506 32.4307 2.41067 31.7691C1.26324 30.2495 1.67975 30.1852 2.41402 30.1287C3.14767 30.1109 4.20851 30.2252 4.29798 30.1063C4.41308 29.9688 4.34782 30.011 4.20265 30.0326C4.0566 30.0598 3.82871 30.0796 3.59091 30.0673C3.11456 30.0479 2.59591 29.9164 2.54292 29.9326C2.28508 30.0341 2.06975 30.5459 1.96904 33.0443C1.8324 35.4146 2.39506 40.2115 3.70101 43.6677C4.27164 45.2761 4.74101 46.2826 4.97949 46.9018C5.19634 46.3421 4.8461 45.2808 4.24902 43.4742C2.60763 38.8797 2.03526 33.3377 2.33171 32.5851C2.64569 31.3751 2.83206 31.3804 2.94373 31.6544C3.05978 31.9569 3.10268 32.7676 3.24163 33.9388C3.47113 36.2744 4.4928 39.8149 5.0097 36.8404C4.79319 38.6629 4.82739 40.8794 5.19722 43.1393C5.28438 43.6924 5.37948 44.2183 5.47804 44.7176C6.88566 46.4574 7.06784 45.7356 7.44344 46.0155C7.62519 46.1243 7.85682 46.4555 8.23875 47.1115C8.61268 47.7563 9.17328 48.7363 9.69271 49.6187C9.46917 50.1701 9.12391 49.6705 8.59646 48.7508C8.08363 47.8722 7.41313 46.4344 7.42533 47.2899C7.43325 47.8006 7.98882 48.994 8.36168 49.718C8.74801 50.4737 8.96867 50.8879 8.88226 50.9827C8.77624 51.09 8.52911 50.7541 8.18325 50.2816C7.84821 49.8286 7.42341 49.2228 7.37695 49.5732C7.32429 49.9512 7.74884 50.795 8.12202 51.3482C8.50731 51.9228 8.81676 52.221 8.98082 52.2767C9.15063 52.3377 9.22543 52.212 9.3442 52.1203C9.39995 52.0702 9.46522 52.0267 9.49385 51.9428C9.51862 51.8534 9.51352 51.7365 9.30999 51.3785C9.76937 51.9623 10.8687 50.9302 10.6762 50.7345C10.6426 50.6991 10.576 50.6773 10.4646 50.6705C10.2516 50.6511 10.0438 51.1433 9.7223 51.5541C9.44642 51.9052 9.12944 52.2479 8.80541 52.3419C8.64176 52.3759 8.47428 52.3537 8.15875 52.0601C7.83243 51.7379 7.38138 51.2501 6.31808 49.5791C6.62769 49.2076 7.43799 50.2619 7.91296 50.9223C8.4116 51.6241 8.58123 52.0411 8.62092 52.0354C8.74252 52.0191 10.1507 50.411 10.1849 50.2878C10.2129 50.0957 9.76738 49.8004 8.32229 47.8481C7.0813 46.0763 3.63712 41.0886 3.43072 32.9395C3.48149 33.0426 3.59906 32.5579 3.87627 32.2775C3.28675 32.457 3.13586 31.79 3.39785 29.2227C3.57771 26.7625 4.98439 22.4379 5.19538 21.5776C5.26308 21.0939 3.95483 22.5034 4.05243 22.0042C4.32807 18.5707 10.9287 11.4486 13.2397 10.0589C15.805 8.00305 15.0459 7.91953 15.1979 7.77729C16.2584 7.09741 15.6784 8.01477 16.2988 7.603C16.6888 7.34105 18.0955 6.50013 19.2899 5.93863C21.4087 4.91466 22.7911 4.51937 22.8936 4.42069C22.9503 4.37248 21.994 3.91931 22.8937 3.47611C22.9785 3.43712 23.477 4.12342 25.3203 3.29159C26.3196 2.84207 25.8972 2.66067 25.2906 2.45862C24.6862 2.25602 23.6836 2.12792 24.1204 1.54511C26.0568 2.39923 25.5355 1.23863 25.9385 1.25509C26.0709 1.26573 27.1272 2.17687 27.7249 2.03861C27.3019 2.26727 26.8066 2.51785 26.1969 2.81422C26.91 2.8655 27.8049 2.50675 28.1545 2.68788C28.3319 2.7739 28.3669 3.6592 28.68 3.6056C28.7284 3.59396 28.692 1.42345 27.9364 2.47706C27.7203 1.72519 28.2711 2.16841 28.4095 1.93953C28.4299 1.90374 28.332 0.622141 28.6782 1.39773C28.7208 1.59819 28.955 5.30109 29.6453 2.58691C29.6648 2.5004 29.4821 2.03708 29.4992 1.94077C29.5162 1.8746 29.7846 2.06489 29.7941 2.00083C29.809 1.93105 29.6264 1.42197 29.6416 1.32328C29.7228 0.81566 30.1926 2.82995 29.8785 2.66503C30.0192 2.91582 30.1468 3.16858 30.2636 3.42279C29.9562 1.90572 30.334 3.00849 30.4011 2.97799C30.7389 2.80356 30.3328 1.74703 30.3191 1.26365C30.2279 0.503631 30.6292 3.02403 30.4941 2.33715C30.4867 2.3053 30.4502 1.99173 30.4166 1.78837C30.3679 1.58819 30.4191 1.47912 30.2376 1.92815C30.3231 1.92543 30.3803 1.92938 30.4136 1.93817C30.6615 3.39404 30.2206 1.97592 30.1658 1.97499C30.0159 1.94288 29.9884 2.03879 29.9435 2.07239C29.8837 2.11047 29.8458 2.07261 29.3458 1.87059C29.2654 1.83966 29.1812 2.15342 28.9918 2.17126C28.9597 2.17504 28.926 2.17258 28.8903 2.16195C28.3979 2.01776 28.5233 1.83268 28.8519 1.61936C29.2588 1.33958 29.6695 1.12456 29.6097 0.786917C29.5838 0.640015 29.2761 0.712179 28.6794 0.93852C28.0329 1.17237 27.4901 1.4719 27.4761 1.54992C27.3136 2.26613 28.618 1.35532 28.5535 2.19022C28.5478 2.33271 27.5992 2.62879 26.9353 2.92848C26.2304 3.23917 26.0678 3.39916 26.1723 3.5559C26.369 3.9474 27.3927 5.6359 26.5192 3.67424C27.4672 5.59281 27.0157 4.2487 27.0908 4.24783C28.1015 4.21287 28.1818 4.18782 29.4645 3.66756C29.7724 3.54786 30.2581 4.07911 30.3443 3.95103C30.396 3.87413 30.0474 3.26492 30.3424 2.98825C30.7072 2.57396 34.2698 2.71476 34.5709 3.1004C34.884 3.42955 33.2018 3.41003 33.6286 3.96966C34.8027 3.87815 35.914 3.65254 37.0473 3.70634C37.5121 3.73285 37.3153 4.14926 37.5132 4.15823C37.6119 4.15196 39.0974 3.85139 39.0214 3.70362C38.9687 3.22867 33.8559 3.64199 35.0856 2.87459C35.3384 2.71 36.4149 3.62582 36.1072 2.46901C37.2932 2.49261 38.4166 2.59309 39.4433 2.74802C42.876 3.17254 46.4274 4.39446 48.2541 5.53124C46.6391 5.62361 44.1331 4.0158 41.3923 3.72273C41.0285 3.67259 39.7771 3.43246 39.9388 4.03553C42.1773 4.36057 45.0485 4.73329 46.5582 5.71865C46.6066 5.7496 46.3122 6.17675 46.4851 6.32646C46.8246 6.60192 48.0134 6.25175 48.082 6.52622C48.0984 6.58478 47.4132 6.98326 47.4643 7.46583C47.5769 8.6931 48.293 6.4314 48.5816 6.62056C48.6907 6.69255 49.0142 7.20681 49.2111 7.59448C49.4214 7.98612 49.5077 8.24685 49.643 7.96843C49.7838 7.67109 49.7946 7.48283 49.7249 7.27611C49.6614 7.07144 49.4861 6.84082 49.6101 6.56693C50.3679 6.43712 50.0544 7.33082 49.6006 7.41174C49.5917 7.41271 49.7909 6.93107 49.696 6.90307C49.5167 6.85262 49.2827 7.51303 49.1433 7.64333C49.0018 7.78187 48.4896 7.78932 48.3641 8.04008C48.3503 8.07261 48.3405 8.69134 48.3513 8.70632C48.5208 8.92619 48.7647 8.07988 48.7891 8.06499C48.8699 8.0185 48.8688 8.32305 48.9333 8.29056C49.039 8.23653 49.1649 7.92933 49.29 7.87224C49.3738 7.83151 49.1556 8.41975 49.2339 8.3729C49.2642 8.35556 49.8711 6.96668 49.5083 8.28033C49.467 8.42405 49.2635 8.67757 48.7969 8.90562C48.3402 9.13478 47.6134 9.36333 47.0173 9.55401C46.4792 9.72463 46.2794 9.85935 46.2192 9.79586C46.3869 9.53401 46.6144 9.27592 46.9306 9.03336C46.2827 9.58285 46.0285 8.85352 45.9953 10.3793C45.3517 11.3756 46.5475 12.3067 48.876 13.3213C49.3335 13.6033 49.054 14.3212 49.8729 14.374C49.6584 14.0394 49.4481 13.7046 49.2472 13.3686C49.5493 13.6777 51.7856 14.7893 52.437 14.8713C52.5109 14.8794 52.6575 14.196 53.5656 14.4944C54.4076 14.7817 54.4635 15.3605 54.9228 15.6779C55.206 15.869 55.5576 15.9922 55.7948 16.089C55.8959 16.1301 55.975 16.1654 56.0135 16.1957C56.1103 16.2733 56.0412 16.5787 56.2736 16.77C57.0645 17.4157 56.7053 16.2114 57.2375 17.6784C56.9833 17.5602 56.7387 17.4558 56.5033 17.3626C57.4753 18.0503 59.4044 20.0475 57.1922 18.7277C56.8497 18.5495 57.2642 18.4725 57.0207 18.3178C56.2325 17.823 55.7375 17.572 55.3376 17.3733C53.9519 16.7262 53.6794 16.7447 53.7594 16.8422C53.8629 16.9618 54.413 17.2484 55.23 17.6755C55.9566 18.0738 57.1228 18.6483 58.4953 19.5727C58.7449 20.1377 61.262 21.7535 62.7175 25.9985C63.9664 30.281 62.8692 32.4933 62.9164 32.5352C62.8124 32.6967 62.7694 32.4415 62.6584 32.3483C62.5466 32.2405 62.378 32.3877 62.0133 33.0426C61.9777 33.1046 61.7817 33.6628 61.5603 34.0948C61.3372 34.5419 61.1145 34.8608 60.9766 34.9791C60.834 35.1058 60.7651 35.0555 60.7008 35.001C60.6399 34.938 60.5567 34.9331 60.4852 34.9186C60.456 34.9095 60.5486 34.9295 60.8113 34.5867C61.0619 34.2867 61.4887 33.4553 61.6314 32.9908C60.8505 33.9403 60.4323 34.6865 60.4316 34.8466C60.4085 35.0551 60.7593 34.6623 60.7625 34.5276C60.7897 33.9759 60.5259 34.497 60.3534 34.613C60.2656 34.6808 60.1923 34.6902 60.1274 34.6397C60.0675 34.5656 59.9951 34.5437 60.0746 33.9261C60.1428 33.4144 60.2149 32.9203 60.2701 32.7251C60.3279 32.5123 60.3898 32.5611 60.4563 32.6926C60.5889 32.946 60.7241 33.4892 60.8979 32.7924C61.0168 32.4507 60.9678 29.8952 59.8637 27.8596C59.4719 27.1941 59.2749 26.9058 59.5458 26.7567C59.072 26.1379 59.081 26.6976 58.9912 26.6385C58.9526 26.6153 58.7393 26.3538 58.5636 26.2186C58.3821 26.0733 58.2442 26.0361 58.1343 26.0861C58.1071 26.098 57.8953 26.3429 57.8593 26.3622C57.826 26.3774 57.7409 26.3756 57.7045 26.4097C57.6648 26.4401 57.6679 26.4984 57.6769 26.4938C57.6877 26.4857 57.9182 26.2061 57.9605 26.1799C57.9835 26.1641 57.9631 26.2371 57.9763 26.3398C57.9866 26.4396 58.0273 26.5669 58.0604 26.551C58.1101 26.5256 58.0728 26.3711 58.0892 26.2396C58.1025 26.1052 58.1679 25.9891 58.2772 25.899C58.1649 26.1134 58.4842 26.4538 58.8126 26.5869C58.7211 26.557 58.5686 26.2026 58.5663 26.0912C58.7385 25.9439 58.8752 26.0421 58.9607 26.221C59.0441 26.3979 59.0543 26.6263 58.8479 26.5906C59.0831 26.6597 59.0948 26.4476 59.286 26.4444C59.3315 26.4395 59.5061 26.7828 59.607 26.8155C59.6204 26.8099 59.5666 26.3163 59.6726 26.3309C59.7646 26.3399 59.9392 26.6283 60.1431 27.0346C60.3432 27.4299 60.567 27.9735 60.5854 28.072C60.6376 28.3437 60.447 28.0567 60.2371 27.7777C60.0243 27.4915 59.806 27.2338 59.7105 27.248C59.6688 27.2185 59.8958 28.5376 59.8868 28.6189C59.7587 28.7473 59.5888 28.4143 59.4438 28.1561C59.2983 27.8937 59.1784 27.6882 59.0829 27.8426C59.1521 28.131 59.235 28.45 59.3263 28.8143C58.4324 27.6356 58.1013 26.6501 57.8232 26.7641C58.0284 27.1681 58.8299 28.6683 58.1648 29.1676C57.8779 29.3388 57.4574 28.9403 57.4039 29.0284C57.2996 29.1622 57.3957 29.3321 57.5317 29.5135C57.6675 29.6922 57.8426 29.8928 57.8432 29.9151C57.84 29.9536 57.8303 29.9763 57.8153 29.9856C57.8153 29.9856 57.8153 29.9856 57.8153 29.9856C57.8153 29.9856 57.8153 29.9856 57.8152 29.9856C57.8152 29.9856 57.8152 29.9856 57.8152 29.9856C57.7396 30.0314 57.5258 29.7376 57.3426 29.5189C57.1573 29.2928 57.0058 29.122 56.9631 29.1292C56.814 29.1619 56.5257 29.9076 56.4184 29.9898C56.381 29.9719 56.0044 29.5807 55.9125 29.9017C55.8088 30.1984 56.0577 30.6792 56.0515 30.7288C56.0196 30.8212 55.8573 30.6412 55.711 30.4992C55.5629 30.3524 55.433 30.2348 55.3958 30.2543C55.3559 30.2698 55.3504 30.7865 55.2993 30.8494C55.2428 30.8994 54.9642 30.7393 54.7358 30.8266C54.564 30.8867 54.5684 31.1548 54.528 31.1419C54.4916 31.1146 54.2353 30.706 54.2096 30.7249C54.159 30.734 54.0536 30.9719 54.0066 30.9989C53.938 31.0373 53.9259 30.8762 53.8769 30.9491C53.8325 31.0012 53.5859 31.9528 53.4336 32.0746C53.1719 32.2794 53.4589 31.3812 52.7369 32.6322C52.7321 32.6393 52.8665 32.6573 52.8622 32.666C52.7077 32.8599 52.2453 32.8902 52.5087 33.1068C51.7839 32.9305 52.0807 33.3842 51.5873 33.6796C51.4083 33.8098 51.194 33.7806 51.1647 33.8012C50.9779 34.0125 51.1856 33.8871 51.1001 33.9913C51.0555 34.0482 50.6987 34.1869 50.5907 34.3433C50.5431 34.4291 50.6959 34.444 50.6786 34.451C50.5778 34.5698 50.3893 34.7007 50.3008 34.7865C50.245 34.8472 50.2711 34.8121 50.256 34.8153C50.2352 34.8345 49.9323 35.121 49.8206 35.2092C49.7408 35.2822 49.6687 35.3513 49.6303 35.3832C49.4249 35.6092 49.7094 35.1645 49.2136 35.7668C49.1835 35.8031 49.2318 35.7493 49.2225 35.7529C49.0524 35.8893 48.9903 35.995 48.8173 36.1422C48.5382 36.4176 48.7854 36.1618 48.5165 36.4326C48.4173 36.5203 48.4386 36.4573 48.398 36.0947C48.463 36.5981 48.132 36.7819 47.9381 36.9958C47.8364 37.0926 47.7626 37.1751 47.7243 37.2002C47.6829 37.2206 47.6828 37.1986 47.6319 36.9539C47.6946 37.2245 47.2827 37.5074 47.2765 37.5827C47.2914 37.6501 47.4961 37.4134 46.7377 38.1861C46.6523 38.2902 46.8393 38.0055 46.6075 38.2606C46.4631 38.5162 46.4903 38.4277 46.4402 38.4277C46.1909 38.6664 46.1336 38.989 45.7064 38.8601C45.3251 38.7903 44.4617 38.0615 44.0657 37.7222C43.4479 37.273 42.4408 36.5504 41.8499 35.8373C41.5259 35.3416 41.3274 34.9452 41.2461 34.7241C40.4258 31.96 41.4025 34.1845 41.3449 33.5461C41.292 33.2565 40.8074 31.1262 40.8415 29.7123C40.8349 28.2579 40.8996 27.493 40.9217 27.4206C41.1692 26.9425 41.431 27.6057 41.4615 27.5587C41.6455 27.2502 41.857 26.3808 41.7274 26.242C41.6682 26.1563 41.5286 26.2201 41.3575 26.4432C41.1888 26.657 40.9967 27.0474 40.906 27.3519C40.7799 27.284 40.9481 26.7087 40.9877 26.4832C41.0227 26.2585 40.9934 26.0896 40.5509 26.3935C40.0035 26.832 39.932 27.6112 40.0847 27.9998C40.2281 28.4203 40.536 28.5399 40.5539 28.5776C40.2926 29.7197 40.1718 31.7066 40.8217 33.7626C41.4494 35.8253 42.6677 37.4478 43.594 38.3857C45.4825 40.2272 46.3865 40.5483 46.9427 40.9561C49.1862 42.2046 49.4221 42.4279 49.4412 42.9701C49.4509 43.362 49.4559 43.281 49.4021 43.1128C49.3542 42.9449 49.2422 42.6896 49.2336 42.7333C49.1845 42.9929 49.394 43.3542 49.44 43.6184C49.5006 43.8832 49.4004 44.0554 49.3662 43.9651C49.4119 44.0595 49.4442 44.1514 49.4604 44.2405C49.4922 45.309 49.3028 44.4204 49.1374 45.0428C49.0903 45.2482 49.2193 45.4855 49.2168 45.5126C49.1846 45.9625 49.056 45.8027 49.1049 45.2082C48.9676 45.8776 48.956 45.3199 48.7965 45.4218C48.7874 45.4281 48.8857 45.7579 48.7642 46.0386C48.7164 46.1702 48.3253 46.464 48.2769 46.8573C48.2625 47.0259 48.5802 48.425 48.5175 47.0674C48.9744 47.3817 48.612 46.3567 48.7658 46.2611C48.7809 46.2493 48.8122 47.0286 49.0877 46.3616C49.1357 47.7327 48.6721 47.1369 48.583 47.3585C48.4493 47.8354 49.1481 47.9412 49.1287 46.8186C49.1538 47.887 49.1755 46.915 49.2638 46.834C49.3557 46.7432 49.3347 47.1019 49.377 47.0289C49.4758 46.8309 49.4035 46.2165 49.491 46.68C49.3473 44.8893 49.5762 46.1557 49.5233 46.5093C49.5647 46.8227 49.5306 47.138 49.4374 47.4581C49.4489 47.5489 49.4601 47.6395 49.4709 47.7299C49.4464 47.7742 49.4178 47.8183 49.3844 47.8624C49.3836 47.7532 49.3828 47.6442 49.3819 47.5352C49.2504 48.4878 49.1122 47.8286 49.0959 47.8423C48.8212 48.0694 48.3686 48.4379 47.821 48.745C47.7295 48.7887 47.8651 49.4613 47.1403 49.2452C46.899 49.173 47.1078 48.5255 46.837 48.7221C46.5185 50.3693 46.4831 49.1665 46.3732 49.204C46.0426 49.3209 45.8041 49.7662 45.7698 49.781C45.3065 49.9799 44.5222 50.0995 43.7883 50.2535C43.7733 50.2615 44.117 50.6882 43.6565 50.6122C43.5908 50.6005 43.3338 50.3016 42.9442 49.9785C42.3425 49.4919 41.5472 48.9378 40.693 49.3438C41.0079 49.4843 41.3328 49.6187 41.6734 49.7466C41.2306 49.5935 38.4383 50.0584 38.9637 50.6296C39.2755 50.983 40.5803 49.653 40.46 50.9375C40.0035 50.7577 38.3951 50.7563 37.3408 50.788C36.2406 50.8143 35.8284 51.0094 35.8377 50.8833C35.8358 50.8447 36.064 50.384 36.0607 50.3371C36.0289 50.2922 35.7808 50.5383 35.8551 50.4065C35.8763 50.3211 36.0017 49.9788 36.0499 49.8311C36.0648 49.7783 36.0401 49.7547 36.0417 49.8282C36.0385 49.9005 36.0642 50.0707 35.9924 50.355C35.9813 50.0528 35.9429 50.0741 35.7992 50.6239C35.7802 50.6927 35.9026 50.4074 35.8912 50.4971C35.8402 50.9133 35.7347 50.9558 35.7135 50.9035C35.6855 50.8493 35.8141 50.7255 35.8593 50.7101C35.2357 51.5332 35.9469 51.2961 36.9921 52.2523C37.496 51.9599 36.5362 51.2454 37.0632 51.0598C38.1743 50.6533 37.2101 51.8396 37.2175 51.9109C37.4072 52.5225 38.7184 50.2101 38.5098 52.2191C39.0038 52.0434 38.8596 51.7509 39.5123 52.1722C39.4172 52.2942 39.3209 52.4151 39.2234 52.5349C39.6064 53.2917 40.367 52.8057 40.8278 52.1379C41.1509 51.605 41.3502 50.9723 41.3 50.8643C41.1583 50.5677 40.9677 50.5862 40.7871 50.686C40.5343 50.8069 40.2931 51.0412 40.2559 51.0222C40.1339 50.9607 39.9751 48.8733 38.8635 50.4513C38.5931 48.9833 40.4687 49.8898 39.6437 48.741C39.8415 48.8421 40.2681 48.8492 40.7346 48.8123C41.4461 48.7629 42.5265 48.512 42.8322 48.9006C42.8904 48.9784 42.9226 50.3964 43.4594 49.6519C43.7012 49.2961 42.9496 49.317 43.0341 48.9894C43.0978 48.5264 44.8882 48.2346 45.6863 48.1558C46.0759 48.1361 46.0897 48.2944 45.7963 48.573C45.5158 48.8453 44.9927 49.1885 44.7257 49.3402C44.6548 49.3784 44.5118 48.9339 44.4423 48.9738C44.2556 49.0889 43.5507 50.1789 42.9194 50.1921C44.2422 50.5435 42.3273 51.4402 41.5158 51.5934C41.4855 51.5997 41.4579 51.6048 41.4333 51.6085C40.5681 51.7327 40.4809 50.8911 40.1461 50.81C38.8926 50.4746 38.2164 52.7079 37.6099 50.9781C37.8762 52.8066 36.9216 50.2627 36.8386 50.2938C36.7314 50.3271 36.908 51.5952 37.0605 52.2881C36.9742 52.2708 37.1503 52.6588 37.6404 52.7156C37.7233 52.7243 37.4935 52.1969 37.6411 52.2277C37.6577 52.2337 37.7869 52.7644 37.9472 52.7955C38.6519 52.9147 39.0528 52.6151 39.0023 52.3485C38.9816 52.0712 38.7048 51.7587 38.8618 51.5385C39.0374 51.2913 39.214 51.1365 39.3589 51.0563C37.6899 51.4662 37.2661 51.2093 37.1412 51.2175C37.0735 50.6247 37.2567 50.6788 37.7752 50.7454C38.2589 50.8257 39.2613 50.8265 39.7816 50.4548C39.8135 50.4305 39.4461 49.857 39.4815 49.839C39.4823 49.8387 39.483 49.8385 39.4838 49.8382C39.6434 49.7539 40.3056 49.5596 41.2388 49.2415C42.0104 49.0385 42.9891 48.7562 42.8366 49.346C42.8012 49.5001 42.3128 49.8469 41.7026 50.1566C40.9797 50.526 40.2143 50.8167 39.6129 50.9875C40.0327 50.9978 40.0218 51.7909 40.0981 51.7977C40.5145 51.8194 41.1796 51.5257 42.1022 50.945C42.9026 50.4026 43.9265 49.4846 44.5281 48.9847C44.7641 48.7918 45.0392 49.1815 45.0819 49.1523C46.1122 48.2317 44.7442 47.5951 46.867 47.6074C47.3574 45.9523 46.2665 46.9873 45.1736 47.8648C44.0568 48.7711 43.0668 49.4328 42.9344 48.8721C42.718 48.3708 45.5667 47.2448 49.0229 42.3923C50.6461 40.056 51.6764 37.3234 52.1974 35.7648C52.7367 34.162 53.023 33.4872 53.3698 33.5093C53.2295 33.4558 53.0682 33.2567 52.8835 32.942C52.7137 32.6456 52.6472 32.0275 52.6288 31.736C52.6115 31.4195 52.6656 31.4566 52.7574 31.622C52.7663 30.7322 52.7339 30.079 52.7325 29.713C52.7354 29.3316 54.055 29.3147 53.9973 28.825C54.0064 28.1869 52.7071 23.8665 51.3263 21.848C49.9685 19.6529 49.1933 18.9316 49.2577 18.3579C49.6836 18.6023 50.2915 19.069 51.1179 20.0388C50.1176 18.4712 49.8215 18.1525 49.6589 17.8603C49.5098 17.6068 49.5245 17.5308 49.5611 17.459C49.6517 17.3386 49.8341 17.2443 50.2788 17.4832C50.311 17.5176 50.3799 17.5244 50.416 17.5614C50.7789 17.7864 51.3317 18.2786 51.8912 18.9153C52.4444 19.5343 52.9607 20.2651 53.0147 20.2575C53.1607 20.2609 52.4233 18.7556 51.7979 17.8224C51.1515 16.8373 50.741 16.3841 50.6421 16.3959C50.5032 16.4045 50.6597 16.9816 50.1273 17.0926C50.0478 17.1112 49.951 16.902 50.0102 16.9388C50.0391 16.9518 50.1136 17.0458 50.0974 17.133C50.0861 17.2262 49.9448 17.2629 49.6795 17.3266C49.6397 17.338 49.6019 17.3137 49.5901 17.2998C49.5689 17.2749 49.6251 17.2932 49.73 17.3824C49.8305 17.4665 49.9661 17.6081 49.9535 17.6492C49.8434 18.0824 48.9279 17.6718 48.6654 18.0942C48.4296 18.3583 48.4164 18.9322 48.0338 19.0743C48.1516 18.7367 48.1763 18.5507 48.2065 18.4885C48.2576 18.3731 48.3341 18.6643 48.829 19.0411C49.1845 19.3181 49.8226 19.073 49.8736 19.1179C50.3026 19.5343 50.3215 19.7894 50.2188 19.8992C50.1221 20.0192 49.935 20.0456 50.0897 20.2471C50.1679 20.3491 50.9751 20.8322 51.6514 21.7517C52.3202 22.6419 52.7561 23.9011 51.5985 23.8244C52.0432 24.5713 52.4748 25.4132 52.8544 26.3063C55.4498 33.5093 54.7109 34.5627 55.1159 34.2228C55.2352 33.8571 55.6836 30.9479 54.0019 25.901C52.7294 22.3332 51.2237 20.3551 50.4085 19.2792C51.3103 19.8298 52.8628 21.5149 54.4287 25.7502C55.4491 28.623 55.7065 31.1922 55.8504 32.5924C55.9573 33.8165 56.6445 33.1823 56.7388 35.0149C56.7845 35.9044 56.6189 37.4551 56.4685 38.0863C56.3051 38.7391 56.3356 38.4765 56.4027 36.4898C56.4789 34.6047 56.1997 30.5743 54.826 27.1278C53.4889 23.6352 51.7267 21.445 50.8419 20.4018C51.8407 21.8568 51.9929 22.647 51.7291 22.5969C51.4582 22.5596 50.7729 21.8012 49.9927 20.8097C49.6891 20.4235 49.5216 20.1678 49.4492 19.9846C49.6249 19.9416 49.8123 19.7158 49.9577 19.5341C50.1756 19.5357 50.3588 19.5459 50.2755 19.3988C50.2651 19.3809 50.2431 19.351 50.2102 19.3104C50.3245 19.3939 50.5942 19.8664 50.5264 19.9402C50.487 20.0445 50.1586 19.8123 50.11 19.6803C50.3778 20.1986 50.0896 20.2758 49.928 20.4486C49.7375 20.5931 49.5859 20.7331 49.1994 20.4001C49.1509 20.6459 49.0781 20.8687 48.9818 21.0665C49.0605 20.7064 46.7834 20.0832 46.4397 19.4538C46.3918 19.3505 47.0634 19.1002 47.0378 19.0434C46.7714 18.4662 44.6532 17.8409 44.6786 17.6483C44.694 17.4543 45.7389 17.4845 45.5875 17.1026C45.5507 17.0174 44.366 17.263 43.7427 16.7458C43.509 16.5525 43.9292 16.1192 43.8757 16.0572C43.4166 15.5491 43.3214 16.5413 42.396 16.0082C41.7421 15.6413 41.5078 14.5783 40.5522 14.6633C44.0001 14.4225 41.1286 14.0239 40.1233 13.4918C39.9776 13.4108 40.3016 12.4004 39.2194 12.7556C40.9176 14.8968 38.3865 13.5994 38.0825 13.6568C38.0821 13.6569 38.0816 13.6572 38.0811 13.6578C38.049 13.687 37.942 14.3284 37.699 14.3256C37.6783 14.3243 37.7636 13.8714 37.5352 13.8271C35.4876 13.4894 36.7847 14.0115 36.3798 14.4602C36.2125 14.6504 35.4223 14.08 35.2483 14.0981C35.2062 14.1029 35.2329 14.5691 35.0797 14.5759C34.8132 14.5871 34.5838 14.1371 34.444 14.1339C34.4312 14.1361 34.4702 14.8706 34.2429 14.7001C34.1809 14.6526 34.0951 14.415 34.1521 14.1768C34.3401 13.3871 35.1823 14.4209 35.8608 13.6711C36.1796 13.3282 35.8302 13.1734 35.44 13.1259C35.045 13.0773 34.6737 13.139 34.6418 13.1447C34.6163 13.1476 34.9003 13.4585 34.6377 13.5874C34.4248 13.6939 33.9657 12.5262 33.8069 12.8839C33.7874 12.9115 33.7936 14.0388 33.8123 14.097C33.814 14.14 34.0369 14.2795 34.0444 14.6022C34.041 14.6391 33.9198 14.6892 33.9396 14.9256C33.9541 15.2148 34.2718 17.9728 34.2754 18.0494C34.2757 18.2423 34.2063 17.6041 34.1988 17.663C34.1555 17.7926 34.3498 18.6866 34.2207 17.7513C34.1899 17.6811 34.1661 17.6098 34.1496 17.5374C34.2105 17.5294 34.1256 17.0924 34.1075 16.9298C34.0994 16.7528 34.2226 17.5711 34.3017 17.6719C34.2869 17.6985 34.696 17.6047 34.6564 17.2596C34.4581 17.7656 34.403 16.7723 34.3829 16.753C34.3268 16.6795 34.3708 17.2342 34.3208 17.2114C34.02 17.0316 34.1492 16.2296 34.045 15.9777C34.0086 15.892 34.0518 16.3597 34.0408 16.3312C34.0041 16.2388 33.9 15.6023 33.8961 15.6449C33.8891 15.7436 34.0667 16.6688 34.0732 16.7136C34.1241 17.2631 33.9783 16.4822 33.8465 15.5474C33.7807 15.1614 33.9652 16.3553 33.8979 15.8506C33.7838 14.8463 33.7752 15.1723 33.7638 15.0347C33.7072 14.5402 33.7793 15.0221 34.017 14.9373C34.1086 14.9069 34.1739 14.3587 34.2406 14.3364C34.2686 14.3269 35.0844 16.3455 34.6126 13.2498C34.8862 13.5673 35.5964 15.6188 35.8695 15.5346C36.1194 15.459 35.89 14.3677 35.9084 14.3264C35.937 14.2617 36.2987 14.3606 36.4096 14.2122C36.5372 14.0369 36.4088 13.619 36.6391 13.4609C37.2357 13.0714 37.3494 14.1792 37.4192 14.2537C38.3064 15.1271 37.8275 13.54 38.0081 13.4256C38.1209 13.3489 39.5668 13.7348 40.7364 13.9175C41.176 13.9846 41.5241 14.0123 41.7001 13.9342C41.4409 14.1066 41.1834 14.2833 40.9253 14.4645C41.3574 15.2053 41.8574 14.1883 41.8058 15.3983C41.9969 13.461 42.8025 14.9448 43.0272 14.9535C43.1236 14.9561 43.1477 14.6257 43.268 14.6415C43.7565 14.6994 44.6377 15.2466 44.8434 15.1543C45.3123 14.9566 45.088 14.372 44.6263 13.8092C44.1729 13.2462 43.4145 12.7216 43.2943 12.6575C43.8572 12.7786 46.0608 13.1187 45.2083 11.8577C45.0718 11.6605 44.6653 12.4138 44.5675 12.4183C43.892 12.4382 44.4961 11.8292 44.4557 11.7412C44.3835 11.5951 43.846 12.2066 43.7325 12.0863C43.6895 12.0471 44.048 11.4196 43.336 11.2226C43.8141 10.6223 45.5283 11.7408 45.6784 11.6612C45.7281 11.6302 45.639 10.0544 46.503 11.9155C46.5145 11.78 46.5258 11.6444 46.537 11.5087C47.1187 11.7297 47.524 11.9363 47.7485 12.1108C47.6681 12.3778 47.4176 12.8397 47.606 12.8736C47.7018 12.8909 47.7713 12.1751 47.7827 12.1642C47.8435 12.1183 48.1598 12.5016 47.726 12.8076C47.3454 13.1156 46.3132 13.4469 45.9772 13.5362C45.7598 13.5857 45.0646 13.3398 45.0001 13.3564C44.9983 13.3568 44.9965 13.3572 44.9946 13.3577C44.8843 13.4335 44.6104 14.1806 44.5681 14.2036C44.5349 14.2166 44.5316 13.6662 44.505 13.7408C44.4806 13.8109 44.54 14.2404 44.5338 14.2746C44.4631 14.5495 44.0791 14.8568 44.1522 15.5125C44.1346 15.2406 44.4138 15.5087 44.4465 15.8627C44.4484 15.9113 44.4463 16.4145 44.4215 16.2727C44.4577 16.7221 44.2737 15.6851 44.2883 16.0246C44.2918 16.062 44.3824 16.695 44.3889 16.9859C44.3935 17.0835 44.3034 16.7263 44.4106 17.455C44.3943 17.4291 44.4625 17.9247 44.6135 18.3342C44.756 18.7455 44.9707 19.0718 44.9189 18.7921C44.9108 18.7618 44.756 18.3774 44.7606 18.2249C44.7699 18.0243 44.9683 19.0685 45.1136 19.3305C45.1243 19.371 45.4915 19.695 45.4996 19.6392C45.4635 19.1492 45.0165 18.4906 45.0115 18.4175C44.9828 18.2892 45.1182 18.3859 45.2144 18.4673C45.255 18.4939 45.2845 18.5198 45.2916 18.5345C45.3025 18.5574 45.294 18.6599 45.2976 18.7773C45.3076 18.893 45.3289 19.0234 45.3838 19.0988C45.4168 19.1357 45.4621 19.1573 45.5197 19.1578C45.4509 19.0233 45.3809 18.8885 45.3097 18.7533C45.4386 18.7107 45.6036 19.2956 45.6544 19.3654C45.8087 19.5819 45.7002 18.8743 46.1507 20.0998C46.2702 20.4218 46.2874 20.6418 46.304 20.6895C46.4608 21.1111 46.2413 20.2147 46.5188 21.0276C46.5374 21.0867 46.5175 21.3158 46.7773 21.6718C46.7401 21.5789 46.7024 21.4858 46.6644 21.3924C46.6666 21.2851 46.84 21.5926 46.8558 21.6896C46.9373 21.9571 47.0565 22.277 47.0788 22.3871C46.8579 21.632 46.8573 22.1238 47.0382 22.621C46.7952 22.0412 46.8313 23.1059 46.5141 23.5344C46.4295 23.6622 46.2332 23.8091 45.997 23.9891C45.7639 24.1652 45.4866 24.3852 45.4291 24.4754C45.2833 24.7008 45.6046 24.9787 45.3293 25.443C45.2731 25.5599 44.6976 25.9063 43.7797 27.3663C43.2257 28.2227 42.594 29.5156 42.3189 31.0355C42.1146 31.968 42.6193 33.9151 42.9998 32.3621C43.3756 30.9108 44.1586 29.0353 44.7412 28.1289C45.1139 27.4737 45.3576 27.1571 45.4889 27.2992C45.6042 27.4389 45.4138 27.7776 45.0515 28.375C44.2389 29.4302 43.1751 32.3383 43.2531 33.4662C43.2182 35.5407 43.6771 36.3981 43.8774 36.8399C44.1072 37.2699 44.2334 37.3224 44.2962 37.2672C44.4185 37.1579 44.3385 36.4501 44.4297 36.4907C44.6412 36.6391 44.9753 37.3446 45.2639 37.7575C45.5529 38.1935 45.7586 38.4222 45.7867 38.4373C45.909 38.4841 45.8963 38.3259 45.8662 38.0998C45.8368 37.8793 45.7905 37.5635 45.8806 37.5163C45.9981 37.4618 46.3658 37.7342 46.6531 37.8416C46.9424 37.9586 47.1592 37.9783 47.1362 37.8941C47.1021 37.7677 46.8543 37.5803 46.5748 37.2448C46.2972 36.9271 46.0211 36.4404 46.0126 36.3759C45.8868 35.4977 46.1685 35.6289 46.5021 36.0233C46.8444 36.4141 47.2877 36.8047 47.5095 36.883C47.6464 36.945 47.5794 36.5 47.6487 36.5709C47.9093 36.8597 47.9848 36.9514 47.977 37.0456C47.9686 37.1339 47.8744 37.1974 47.7657 37.26C47.5458 37.3771 47.2777 37.5209 47.5069 37.7128C47.8743 37.9659 47.8241 37.3985 47.8507 37.3797C47.8696 37.3846 47.9806 37.4934 48.0859 37.5485C48.1932 37.6078 48.2922 37.6183 48.3645 37.5864C48.4004 37.5666 48.4371 37.4123 48.4319 37.044C48.4274 36.6999 48.4339 36.042 48.6294 36.0381C48.8769 36.7611 49.0725 36.9587 49.1383 37.0517C49.3206 36.9246 49.3061 36.9021 49.2262 36.8708C49.1485 36.844 48.9952 36.7855 48.9965 36.7517C49.0109 36.6363 49.3918 36.7144 49.4957 36.6178C49.5664 36.5706 49.6745 36.2444 49.9383 36.3192C50.0158 36.3278 49.8733 36.5818 50.1629 36.3274C50.23 36.2967 50.2604 36.0571 50.4156 36.0338C50.5583 35.99 50.6936 35.9433 50.7567 35.893C50.8819 35.7965 51.121 35.6338 51.1416 35.6079C51.8212 35.0949 51.3619 35.458 51.4715 35.3957C51.5394 35.356 51.643 35.283 51.6979 35.2451C51.7446 35.1912 51.7978 35.2685 51.6034 35.2319C51.7986 35.1562 51.9182 35.1378 51.961 35.0847C52.0065 35.0363 51.9869 34.9811 51.998 34.9669C52.0172 34.9406 52.1914 34.8684 52.2392 34.8139C52.731 34.1352 52.5325 34.4945 52.8697 34.1283C52.9029 34.0958 52.8457 33.7387 53.0461 33.8814C53.4442 34.1714 52.9457 34.523 54.1412 34.1135C54.2744 33.7595 54.04 33.5802 53.8281 33.5334C53.6096 33.4807 53.3815 33.5146 53.3435 33.4804C53.2288 33.3797 53.5136 33.3463 53.5525 33.2902C53.5639 33.2713 53.4606 33.1912 53.4742 33.1788C54.0686 32.5579 53.9092 33.5615 54.2113 33.7696C54.2852 33.6269 54.3505 33.4826 54.4108 33.3398C54.4875 33.4227 54.5688 33.5186 54.6517 33.639C54.5294 32.9913 54.6954 33.4783 55.5306 33.4022C55.7209 33.3832 55.0947 32.9006 55.9398 33.4095C55.8347 33.0833 55.8385 32.9945 55.8113 32.9061C55.7858 32.8269 55.7216 32.7615 55.5074 32.6757C55.6354 32.6001 55.9104 32.6433 56.261 32.9262C56.6084 33.1829 57.023 33.8721 57.1476 34.453C57.1114 33.4687 56.8642 33.1499 56.7217 32.9545C56.5649 32.7706 56.4318 32.7396 56.3139 32.7102C56.0803 32.6682 55.8875 32.5875 55.7814 32.0941C55.3694 32.2024 55.7337 32.4545 55.6626 32.4754C55.3923 32.4973 55.4384 32.0874 54.692 32.4262C54.5731 32.4817 54.3915 32.8116 54.2476 32.6637C54.232 32.6451 54.3822 32.3738 54.4018 32.363C54.6002 32.2158 54.6245 32.3423 54.7096 32.2816C54.7872 32.22 54.6347 32.1821 54.6571 32.1671C54.889 31.9703 54.8353 32.1508 54.8967 32.0815C54.9608 32.0011 55.0272 31.8027 55.1291 31.6939C55.2408 31.597 55.2982 31.4657 55.5268 31.713C54.8138 31.6857 55.1579 31.8406 55.5133 31.9546C55.6018 31.9818 55.7655 31.873 55.9215 31.9212C56.1237 31.982 56.238 32.2375 56.3588 32.3316C56.4242 32.3797 56.4186 32.1748 56.479 32.0894C56.5094 32.0466 56.556 32.0283 56.6418 32.0903C56.7276 32.1591 56.8559 32.2806 57.0677 32.7082C56.9265 31.5468 55.9018 31.4571 55.9767 31.1873C56.0281 30.9247 56.2272 30.8338 56.4463 30.7968C56.6628 30.7577 57.0202 30.9424 57.1213 30.9922C57.1712 31.0105 57.2552 30.7567 57.2917 30.766C57.3206 30.7747 57.4941 30.9233 57.7617 31.2081C58.0244 31.4729 58.3896 31.9846 58.5544 32.0598C58.72 32.125 58.5998 31.9089 58.4639 31.7092C58.3288 31.5084 58.1881 31.3366 58.2693 31.2554C58.3193 31.1989 58.7666 31.543 59.1716 32.1147C59.37 32.3865 59.5373 32.6848 59.6077 32.7504C59.6769 32.8231 59.6588 32.5982 59.4505 32.1011C58.7724 30.615 57.5066 30.5579 57.9506 30.0987C58.3901 30.4942 59.7203 30.7261 60.3874 34.3905C60.4437 32.3534 59.9055 31.1849 59.6471 30.4478C60.171 31.0465 60.8861 32.1136 61.1387 34.1248C61.434 36.1502 60.5924 38.6572 59.7786 40.0546C59.7635 40.0854 59.7485 40.1161 59.7336 40.1467C59.7561 40.1218 59.7784 40.0969 59.8004 40.072C60.6417 39.1148 61.1553 38.049 61.4019 37.4881C61.6505 36.9166 61.7272 36.799 61.7311 37.0506C61.7737 37.5334 61.1715 39.4379 60.3809 40.5323C59.6771 41.6183 59.1084 42.1616 59.1229 42.2181C59.1264 42.2824 60.1662 41.8292 61.0096 41.0309C61.3324 40.7182 61.5821 40.4258 61.6949 40.2928C61.5629 40.5723 61.4015 40.8761 61.2103 41.1901C59.314 44.2469 57.5318 45.6299 59.4458 45.1304C58.9811 45.2857 58.5971 46.3281 58.627 46.354C58.7655 46.5059 59.156 46.2058 59.589 45.842C60.012 45.4898 60.4904 45.0449 60.4231 45.3708C60.2684 46.127 59.4465 46.1014 59.046 46.5271C58.0384 47.6007 58.0957 48.3563 58.01 49.1602C57.9544 49.9361 57.8223 50.6865 57.1476 51.1315C57.1997 51.1879 57.2522 51.2438 57.305 51.2993C56.1168 52.3677 55.3287 53.1607 54.7151 53.8736C54.6088 53.9833 54.4969 54.0932 54.3801 54.2027C54.286 55.3969 53.3204 57.0214 52.6259 57.4442C52.498 57.534 51.7398 57.5629 51.669 57.5118C51.5465 57.4189 52.0521 56.9851 51.7634 56.8543C51.7172 56.8352 50.4899 57.4147 50.6463 57.8795C50.7992 57.8527 51.1839 57.314 51.2705 57.3893C52.011 57.9711 47.7859 59.6257 47.4463 60.0128C47.5636 60.1508 47.6808 60.2874 47.7996 60.4224C47.4926 60.4649 47.1811 60.5015 46.8656 60.532ZM46.3048 20.0818C46.2172 19.7437 46.3901 20.2427 46.3825 20.2487C46.3868 20.2429 45.8555 19.0786 46.3825 20.4368C46.4117 20.2894 46.3769 20.1758 46.3048 20.0818ZM44.2038 16.4457C44.2819 16.8585 44.4706 17.8355 44.3626 17.2732C44.3503 17.2105 44.1082 15.884 44.2038 16.4457ZM44.9603 18.3866C44.9588 18.3944 44.8676 18.2542 44.8616 18.2343C44.6852 17.7277 44.9593 18.1607 44.9603 18.3866ZM46.8694 12.8155C47.1474 12.9166 47.1993 11.5795 46.9163 11.9788C46.8993 12.0047 46.8515 12.8082 46.8694 12.8155ZM47.0506 12.9605C47.0406 14.1711 47.7406 12.1969 47.4705 12.2333C47.4484 12.2372 47.0565 12.9013 47.0506 12.9605ZM44.4204 17.3738C44.4857 17.688 44.4016 17.3887 44.3692 17.2473C44.3058 16.9439 44.405 17.3519 44.4204 17.3738ZM46.012 14.0164C46.0133 14.2509 45.3748 14.5146 45.0096 14.4784C44.9792 14.4651 44.9572 14.4217 44.9502 14.336C44.9612 14.3563 44.9813 14.3432 45.0073 14.3116C45.3781 14.1797 46.0193 13.795 46.012 14.0164ZM47.7194 13.6219C47.7111 13.6869 47.627 13.7188 47.6715 13.4339C47.8027 13.0093 47.7886 13.3312 47.7194 13.6219ZM42.6257 11.1035C42.5746 11.1752 43.0088 13.2328 41.7825 11.6928C41.594 11.4664 42.3195 11.0844 42.2549 11.0024C42.1164 10.8363 42.0033 10.75 41.9088 10.721C42.5568 10.6748 43.1777 10.7471 43.2242 10.8791C43.4515 11.5014 42.6516 11.0729 42.6257 11.1035ZM37.0526 11.9132C36.978 12.2346 36.3552 12.0302 36.2145 11.8895C36.1893 11.863 36.1818 11.0037 35.9312 11.0561C35.7363 11.1002 36.1431 11.9991 35.7458 11.8404C35.3539 11.681 35.7678 11.0721 35.7336 11.0259C35.6704 10.9642 35.1622 11.3358 35.1117 10.8202C35.0606 10.4384 35.7125 10.7269 35.8795 10.654C36.0843 10.5604 35.7362 9.91193 36.1291 10.0671C36.381 10.1645 36.374 11.2733 36.4309 11.3322C36.4644 11.3778 37.2883 10.785 37.0509 11.9096C37.0514 11.9108 37.052 11.912 37.0526 11.9132ZM41.7335 10.7378C41.7835 10.7096 41.8411 10.7002 41.9088 10.721C41.8503 10.7251 41.7917 10.7318 41.7335 10.7378ZM46.1348 19.9805C46.0195 19.6934 46.0987 19.6296 46.2289 19.9922C46.2991 20.2159 46.1557 20.0241 46.1348 19.9805ZM41.1079 11.5286C40.9565 11.4617 40.8447 11.3995 40.7693 11.3409C40.5873 11.2014 40.6157 11.0812 40.7738 10.9826C40.9646 10.863 41.3363 10.7782 41.7335 10.7378C41.4531 10.8957 41.4247 11.6698 41.1079 11.5286ZM44.4215 16.2727C44.4159 16.1976 44.4055 16.0882 44.3865 15.9166C44.4018 16.1261 44.4132 16.2281 44.4215 16.2727ZM44.5414 15.4986C44.6454 15.8761 44.5218 16.1691 44.4909 15.7901C44.4768 15.6464 44.5362 15.4835 44.5414 15.4986ZM46.4832 12.5465C46.5 12.6205 45.6676 14.1891 46.6475 13.1915C46.3079 12.7803 46.7479 12.7911 46.7683 12.6296C46.8596 12.1671 46.0744 12.2618 45.8924 11.9833C45.6183 12.7508 46.4214 12.2959 46.4824 12.5461C46.4827 12.5462 46.4829 12.5464 46.4832 12.5465ZM33.1844 10.8539C33.0827 10.3384 33.0603 10.5748 33.0716 10.644C33.1525 11.1592 33.1404 10.9296 33.1844 10.8539ZM43.1602 50.8079C43.0563 50.8336 42.9541 50.8551 42.8541 50.8727C40.2984 51.2631 40.3804 49.6086 42.6381 50.1836C42.6576 50.1882 42.7787 50.2633 42.9055 50.3619C43.0849 50.5034 43.2657 50.6916 43.1602 50.8079ZM42.5406 52.8844C42.6261 51.9853 41.9649 51.8189 41.6078 52.1488C41.5307 52.2246 41.2427 53.1021 41.6487 53.3243C41.5678 52.2286 42.0938 51.8629 42.5406 52.8844ZM40.5544 12.0292C40.2688 12.5924 39.4484 12.0702 39.0335 11.9433C39.2593 11.4642 40.1513 11.7848 40.5544 12.0292ZM36.34 49.9739C36.2618 49.9296 35.9909 50.6419 35.9858 50.6959C35.9599 50.9417 36.3302 50.3503 36.34 49.9739ZM43.1455 12.6C43.1519 12.9571 42.1434 13.0821 42.1055 12.19C42.3365 12.2947 43.1469 12.3706 43.1455 12.6ZM33.1741 11.216C33.1948 11.4249 33.2856 11.6817 33.302 11.4605C33.2347 11.0591 33.1487 11.0812 33.1741 11.216ZM36.1651 50.905C36.2502 50.8998 36.496 51.0339 36.4634 51.35C36.4066 51.7438 36.0648 51.3823 36.1651 50.905ZM38.7614 29.7764C38.7173 29.843 38.6177 28.8105 38.6395 27.9099C38.6588 26.9845 38.7233 26.2584 38.8554 25.96C39.091 25.4653 39.1647 25.8418 39.069 26.7441C38.9562 27.5791 38.7651 29.6562 38.7614 29.7764ZM37.8231 49.5796C38.19 50.2485 37.7539 49.5979 37.5865 50.2869C37.9228 50.3188 38.9925 50.3909 38.4424 49.6912C38.3389 49.5558 37.9745 49.6282 37.8231 49.5796ZM37.4293 49.3403C37.3114 49.5618 36.7773 50.2691 37.0729 50.2165C37.2148 50.1915 37.6691 49.4139 37.4293 49.3403ZM38.5939 36.0655C39.2049 37.1274 39.0127 36.6814 38.5279 35.3379C38.0232 33.9926 37.5687 31.4517 37.7822 29.5884C38.2954 25.7419 39.0764 25.4816 38.9929 25.3622C38.989 25.308 38.9748 25.2735 38.958 25.2496C39.0515 25.2321 39.1829 25.145 39.2264 25.1188C39.2728 25.0853 39.2354 25.1001 39.097 25.0448C39.0944 25.0221 39.0547 24.9955 38.9953 25.0264C38.9382 25.0523 38.8636 25.134 38.8641 25.1586C38.8644 25.1795 38.8669 25.1973 38.8729 25.2115C38.7153 25.2714 38.1929 25.488 37.5896 28.0831C36.7702 30.6347 38.2661 35.8905 38.5939 36.0655ZM47.9715 44.4396C47.587 43.491 47.1772 44.5265 47.2326 44.596C47.8376 45.4303 47.5463 44.3534 47.5821 44.3291C47.6505 44.2924 47.9919 44.9084 47.9699 44.4387C47.9704 44.439 47.971 44.4393 47.9715 44.4396ZM42.2782 40.9613C42.2214 40.8969 41.7398 40.4707 41.1047 39.7558C40.5151 39.1037 39.8847 38.1804 39.8366 38.1116C38.7644 36.6494 39.8659 38.8331 41.0102 40.0444C42.142 41.2857 43.0916 41.8669 42.2782 40.9613ZM34.5511 13.0276C34.3116 12.8325 34.404 12.1896 34.5976 12.4375C34.6152 12.4617 34.7693 13.1988 34.5511 13.0276ZM37.1633 49.4918C37.1472 49.4391 36.7792 49.3136 36.5413 49.3469C36.2897 49.3765 36.1584 49.5697 36.0351 49.9932C36.0652 49.9263 36.2084 49.9203 36.534 49.9051C36.8453 49.8859 37.2622 49.8327 37.1633 49.4918ZM46.7428 51.2259C46.5004 51.2687 47.1156 52.1169 47.1 51.7725C47.0931 51.6447 46.8017 51.2163 46.7428 51.2259ZM44.2711 13.7425C44.737 13.3821 44.4373 14.9867 44.1679 14.3212C44.1569 14.2951 44.2525 13.7565 44.2711 13.7425ZM44.0364 52.1084C45.6353 52.5215 44.538 49.7275 43.0233 50.7699C43.098 50.8989 43.1773 51.0271 43.2561 51.1551C41.2839 51.5758 43.1245 51.3897 43.6947 51.5084C43.9077 51.559 43.8352 52.0533 44.0356 52.112C44.0359 52.1108 44.0361 52.1096 44.0364 52.1084ZM47.253 51.2486C46.7025 50.3939 46.715 50.141 46.7788 50.0936C46.8504 50.043 46.6958 50.3048 46.4438 50.2024C47.1172 50.9841 47.2889 50.8962 47.2303 51.728C47.6351 51.7883 47.4639 51.7076 47.4068 51.5197C47.3279 51.3399 47.2304 51.1047 47.2173 51.0764C47.1929 51.0111 47.2993 51.3222 47.253 51.2486ZM45.6746 51.3195C45.5972 51.2701 45.1708 51.7616 44.9356 51.7167C45.4435 52.3827 46.2651 51.6513 45.6746 51.3195ZM49.5155 46.2149C49.5016 45.8034 49.5007 45.4796 49.4604 45.4988C49.477 45.736 49.5032 45.9898 49.5155 46.2149ZM46.9252 21.9932C46.9844 22.1039 47.097 22.4107 46.9605 22.0081C46.9521 21.9708 46.8666 21.7928 46.9252 21.9932ZM37.4403 50.3393C37.4533 50.3041 38.8736 50.7418 38.3121 51.1679C38.0913 51.305 36.9256 50.7415 37.4403 50.3393ZM39.3776 49.2203C39.2174 49.2109 38.6026 49.2804 38.5649 49.3937C38.4148 49.7856 39.2153 49.5945 39.3776 49.2203ZM47.2142 22.7912C47.238 22.8329 47.2376 23.0862 47.1728 22.9034C47.0773 22.5413 47.1705 22.628 47.2142 22.7912ZM34.1261 14.289C34.0997 14.3056 33.9561 13.6801 33.9454 13.6713C33.8857 13.6632 33.5868 13.7845 33.5777 13.0311C33.5754 12.9682 33.6975 13.0596 33.928 13.1645C34.15 13.2706 34.4821 13.3913 34.5654 13.436C34.7533 14.2855 34.1611 13.4427 34.1 13.515C34.0874 13.5293 34.1961 14.2377 34.1257 14.2854C34.1258 14.2866 34.1259 14.2878 34.1261 14.289ZM49.0899 45.1048C49.0874 44.9138 48.9513 44.6297 48.7413 44.4339C48.5392 44.2402 48.2382 44.1204 48.2133 44.3325C48.6206 44.6218 48.8928 44.8674 49.0899 45.1048ZM49.3277 45.3069C49.4041 45.1527 49.2405 44.8215 49.1443 44.8568C49.1405 45.0998 49.3243 45.3303 49.3277 45.3069ZM37.2635 47.4634C37.1403 47.5828 37.201 48.2351 37.1005 48.3699C37.0292 48.4528 36.9182 48.2183 36.8036 48.4384C36.7643 48.5074 36.7429 49.1159 36.8176 49.0846C36.9164 49.0416 36.9858 48.5506 37.0844 48.5415C37.4177 48.514 37.6988 48.875 38.1824 48.8827C38.225 48.8825 37.9907 48.5228 38.3552 48.5406C38.4117 48.5427 38.6193 49.0747 39.1664 49.0159C40.6597 47.4804 41.317 48.9987 43.1041 48.3913C43.1378 48.3793 43.1715 48.3666 43.2054 48.353C43.1981 48.3322 43.1657 48.3084 43.1151 48.2824C42.8056 48.1343 41.9083 47.8781 41.8529 47.8635C40.451 47.6566 38.2833 47.4671 37.6072 47.4822C37.4175 47.4843 37.4044 47.8247 37.3218 47.8399C37.2608 47.8524 37.5208 47.2131 37.2635 47.4634ZM46.9746 22.1911C47.1378 22.6713 47.1318 22.5322 47.1747 22.6522C47.0354 22.2301 47.0622 22.3741 46.9746 22.1911ZM48.217 47.0481C48.1507 47.1168 47.9057 47.0853 47.8923 47.2702C47.8823 47.5129 48.2307 47.4453 48.217 47.0481ZM36.0948 13.1765C36.1057 13.1957 36.4903 13.1342 36.5098 13.1103C36.8933 12.4652 35.711 12.6549 36.0948 13.1765ZM49.8243 18.2695C50.1331 18.6842 50.218 19.1219 50.7767 18.7569C50.5704 18.6876 50.1071 17.9092 49.8243 18.2695ZM53.2564 21.152C52.774 21.1924 53.3608 22.3074 54.1609 24.4993C54.9961 26.6083 55.6315 30.2091 55.6497 31.4255C55.8648 30.9953 55.8145 27.4855 55.1044 25.0575C54.433 22.5595 53.5859 21.1439 53.2564 21.152ZM49.4756 44.5036C49.4646 44.3882 49.4547 43.5924 49.4385 43.8752C49.4334 43.924 49.4315 45.5854 49.4758 45.1129C49.4764 45.0258 49.4626 44.5023 49.4756 44.5036ZM42.7451 50.7954C42.5291 50.289 42.1404 50.4287 41.8807 50.4486C41.9716 50.8325 42.5283 50.762 42.7451 50.7954ZM47.3252 23.7005C47.3944 23.9459 47.3654 24.1091 47.2749 24.1878C47.1872 24.2645 47.0432 24.2573 47.0315 24.0577C47.0527 23.9883 47.3364 23.7662 47.3252 23.7005ZM38.8286 14.1579C38.3043 14.6814 39.4468 14.9443 39.8442 14.4413C39.6613 14.4553 38.8609 14.1216 38.8286 14.1579ZM50.863 18.1064C50.8327 18.0884 50.6222 17.8081 50.4739 17.6034C50.3209 17.3921 50.2289 17.2485 50.2318 17.2276C50.3349 16.8385 50.5675 16.9161 50.868 17.3278C51.1618 17.7295 51.5014 18.4746 50.863 18.1064ZM44.0197 15.6207C44.1137 16.1831 46.5129 17.0617 47.2905 17.0313C47.3055 16.0181 43.8268 14.7652 44.0197 15.6207ZM49.2926 45.3526C49.3581 45.2283 49.4113 45.234 49.4478 45.2822C49.4649 45.5896 49.3223 45.5608 49.2926 45.3526ZM50.2788 17.4832C50.311 17.5176 50.3799 17.5244 50.416 17.5614C50.3681 17.5309 50.3215 17.5065 50.2788 17.4832ZM44.921 47.3837C44.6155 47.314 44.6499 47.9076 44.6706 47.9228C44.9109 48.0731 45.2609 47.4583 44.921 47.3837ZM47.2389 22.939C47.383 23.3587 47.3664 23.2034 47.4263 23.3866C47.3175 23.0597 47.2699 22.964 47.2389 22.939ZM46.2019 50.3677C45.9251 50.1089 45.9917 49.6079 46.0637 49.2576C46.1455 48.9029 46.1781 48.7234 46.2736 48.9175C46.3635 49.1237 46.4774 49.4541 46.4442 49.7756C46.4217 50.0926 46.2412 50.4026 46.2019 50.3677ZM40.6898 15.3227C40.6929 15.3668 40.7024 15.4034 40.7171 15.4334C40.8715 15.746 41.5774 15.3312 41.4225 15.089C41.3299 14.9428 40.8488 14.9826 40.7201 15.1979C40.698 15.2346 40.6867 15.2763 40.6898 15.3227ZM46.314 49.1279C46.223 48.9717 46.2855 49.4588 46.4501 49.7507C46.6708 50.1223 46.344 49.1711 46.314 49.1279ZM36.806 47.3349C36.8026 47.2701 36.801 47.9492 36.6111 48.3343C36.4745 48.5986 36.6677 47.9259 36.6623 47.9109C36.6192 47.8888 36.455 48.4375 36.806 47.3349ZM37.6017 53.1006C37.6832 52.848 37.8844 53.0372 38.0543 52.9677C38.0236 53.3299 37.7035 53.5361 37.6017 53.1006ZM37.6271 15.1871C37.669 15.3797 40.2413 15.7068 38.7431 14.9549C38.6362 14.9061 37.2993 14.5436 37.6271 15.1871ZM49.4756 44.5036C49.4759 44.5179 49.4753 44.5219 49.4727 44.5104C49.4747 44.5002 49.4755 44.5036 49.4756 44.5036ZM48.0621 46.1166C48.102 45.7918 47.814 45.8791 47.7258 46.0846C47.72 46.461 48.0621 46.1619 48.0621 46.1166ZM37.984 52.4086C38.0462 52.1507 38.2793 52.334 38.4287 52.2623C38.4535 52.6399 38.0737 52.7732 37.984 52.4086ZM53.8687 31.6104C54.115 31.8888 53.9298 33.5247 53.4424 33.5297C53.5132 33.5635 53.5855 33.6345 53.6527 33.7553C53.7345 33.8314 53.3093 35.5265 53.2106 36.5613C52.9311 39.8113 54.6551 33.0546 54.2416 31.9535C54.1711 31.2375 54.0291 31.4952 53.8238 31.5304C53.7202 31.5558 53.5971 31.4946 53.4583 31.4734C53.3169 31.4722 53.1767 31.4851 52.9947 32.2748C53.2915 31.9767 53.58 31.7513 53.8687 31.6104ZM40.928 15.6278C40.4168 16.0591 39.786 15.2052 40.0556 15.0392C40.2222 14.9074 41.4403 15.1804 40.928 15.6278ZM54.0052 31.5531C54.0323 31.1139 52.6285 25.4825 52.6488 25.2526C53.5515 26.6857 54.3023 29.1005 54.4381 30.5897C54.5879 32.0824 54.4061 32.7429 54.0052 31.5531ZM38.6056 15.8235C38.4508 15.8893 38.4298 14.9869 38.4513 14.9497C38.655 14.639 38.9516 15.3628 38.6056 15.8235ZM49.3535 43.1832C49.3241 43.0628 49.2361 43.6718 49.2289 44.1176C49.2192 44.0465 49.1998 43.9639 49.1646 43.876C49.1647 43.8759 49.1648 43.8758 49.1649 43.8757C49.1512 43.8178 48.8142 44.0954 48.4545 44.37C48.0895 44.6417 47.9492 44.9298 48.6534 44.8463C48.6927 44.8415 48.6202 44.5066 48.7726 44.4495C48.7825 44.4462 48.8075 44.7476 48.8372 44.7367C48.9183 44.7108 49.2155 44.5823 49.2325 44.2805C49.2361 44.335 49.2419 44.3833 49.2505 44.4226C49.333 44.7675 49.379 43.2701 49.3535 43.1832ZM54.0084 37.7286C53.9393 37.6149 53.9736 37.3402 54.0796 36.939C54.1859 36.5505 54.3518 36.0444 54.5522 35.9534C54.6295 36.457 54.5523 37.2833 54.4391 37.5886C54.3265 37.9098 54.1719 37.9656 54.0084 37.7286ZM37.8263 16.6474C38.0937 16.9495 38.7435 16.4496 38.5185 16.147C38.3621 15.9567 37.4973 16.2964 37.8263 16.6474ZM49.2588 20.9732C49.4306 20.9726 49.4047 20.846 49.3853 20.8031C49.3599 20.7533 49.3262 20.7709 49.2866 20.8335C49.211 20.9632 49.0482 21.1993 48.8081 21.355C49.0022 21.2783 49.1515 21.1494 49.2588 20.9732ZM46.8272 41.7885C47.0639 41.8599 47.044 41.4078 46.8372 41.2523C46.777 41.2047 46.6953 41.1848 46.589 41.2152C46.4838 41.2445 46.5716 41.5164 46.6872 41.6739C46.7323 41.7308 46.7813 41.7739 46.8272 41.7885ZM45.2511 39.1865C45.3368 39.0145 45.4967 39.0211 45.5565 39.0657C45.6172 39.1113 45.5922 39.2042 45.3979 39.3077C45.3873 39.32 45.254 39.2063 45.2511 39.1865ZM40.0455 29.6587C39.6968 30.5617 39.2037 31.3447 40.4956 34.8364C39.6439 32.2416 40 32.1313 40.0117 32.031C40.1198 31.9745 39.9726 31.6669 40.0455 29.6587ZM53.3698 33.5093C53.3968 33.52 53.4167 33.529 53.4424 33.5297C53.418 33.518 53.3944 33.512 53.3698 33.5093ZM37.2919 15.5547C37.0349 16.1083 36.5623 16.0712 36.7471 15.5031C36.7588 15.4485 37.2532 15.1339 37.2919 15.5547ZM49.2289 44.1176C49.2374 44.1806 49.2377 44.2287 49.2325 44.2805C49.2292 44.2292 49.2283 44.1775 49.2289 44.1176ZM40.135 16.3977C40.212 15.9686 41.3809 16.1229 41.4334 16.204C41.8529 17.1219 40.5191 16.498 40.135 16.3977ZM43.5314 18.0147C43.5769 17.987 43.4359 16.9439 43.2306 17.2831C43.0769 17.5477 43.3751 18.1241 43.5314 18.0147ZM41.4474 26.1297C41.558 26.0638 41.5603 26.3078 41.3055 26.2731C41.3322 26.2014 41.3482 26.0873 41.3508 26.0658C41.3561 26.0385 41.3549 26.0904 41.4474 26.1297ZM45.2035 38.8723C44.807 38.9885 44.1415 38.642 43.5402 38.0008C43.6844 37.886 44.111 38.235 44.4544 38.4647C44.8052 38.7075 45.0709 38.8603 45.2035 38.8723ZM49.4226 43.2138C49.4251 43.1976 49.3609 43.1938 49.383 43.5327C49.4219 44.0281 49.4394 43.3615 49.4226 43.2138ZM42.3442 17.1924C42.0217 17.4638 42.6285 18.6288 42.9875 17.916C43.1878 17.551 42.4103 17.1452 42.3442 17.1924ZM35.7925 16.3313C35.504 16.049 36.2469 15.4343 36.3535 15.9938C36.1965 16.0437 35.8857 16.4305 35.7925 16.3313ZM49.4646 23.8783C48.4875 22.8717 47.8006 22.303 47.3293 21.8629C47.4453 22.4469 48.3925 21.2685 48.4685 20.8535C48.676 20.997 48.8452 21.1619 48.9383 21.3267C49.0522 21.4665 49.634 24.0117 49.4646 23.8783ZM46.9674 26.8953C46.7601 26.9659 47.0444 26.0277 47.2193 26.2215C47.3474 26.3242 47.1175 26.8302 46.9674 26.8953ZM39.3589 51.0563C39.441 51.0351 39.5228 51.0136 39.6129 50.9875C39.5373 50.985 39.4536 51.004 39.3589 51.0563ZM34.4335 18.8118C34.3326 16.4967 34.5481 18.2193 34.5507 18.2043C34.5882 18.1636 34.6556 17.5161 34.7913 17.5829C34.6326 17.3669 34.4905 17.1544 34.3672 16.9433C34.3943 16.8475 34.5718 16.5209 34.8989 16.2679C35.2126 16.0138 35.6634 15.848 35.6792 16.031C35.7168 16.5477 35.2285 16.4466 35.2259 16.497C35.2069 16.5657 35.1876 18.0284 35.1581 18.0898C35.1311 18.1388 34.8735 18.219 34.7013 18.3409C34.521 18.4626 34.4327 18.6192 34.4335 18.8118ZM47.9205 21.5608C48.1703 21.5569 48.635 21.1818 48.573 21.3202C48.5505 21.3662 48.1329 21.75 48.0618 21.8852C48.037 21.7999 47.9894 21.6903 47.9205 21.5608ZM34.0618 16.9751C34.1567 17.6497 34.1282 17.2994 34.1423 17.2197C34.0965 16.7551 33.9627 16.4256 34.0618 16.9751ZM39.517 16.7659C39.4395 16.7831 38.5526 16.8512 38.6478 16.4902C38.8757 16.2138 40.1821 16.394 39.517 16.7659ZM48.0741 21.9507C48.1419 21.9697 48.2923 21.8889 48.3155 21.839C48.3408 21.7917 48.2506 21.7892 47.9344 22.0795C47.9345 22.0796 47.9346 22.0798 47.9347 22.0799C48.0495 22.1157 48.0925 22.0674 48.0741 21.9507ZM41.1982 18.5973C41.7154 19.8988 41.5295 18.3265 41.0075 17.855C40.8342 18.3767 41.1115 18.3853 41.1982 18.5973ZM42.8428 19.8313C42.9861 20.0719 44.2374 20.2071 44.1345 19.534C44.112 19.2898 43.3102 19.6312 43.2732 19.5813C43.2246 19.5023 43.5601 18.8766 43.1184 18.9009C43.1174 19.1422 42.8032 19.7478 42.8428 19.8313ZM41.6305 19.4482C42.1061 20.4598 42.337 18.8033 41.9321 18.7174C41.7692 18.6829 41.5592 19.3021 41.6305 19.4482ZM39.3472 19.0206C39.547 19.1987 40.0629 19.4814 40.4486 18.9599C39.9356 18.8504 39.442 18.7575 38.9761 18.6759C38.9401 18.9967 39.1719 18.8633 39.3485 19.0207C39.348 19.0206 39.3476 19.0206 39.3472 19.0206ZM47.473 36.9971C47.5867 37.0544 47.6271 36.9356 47.6225 36.7871C47.6189 36.642 47.5466 36.4097 47.518 36.3998C47.337 36.3745 47.3776 36.9627 47.473 36.9971ZM51.9149 35.0412C52.0216 35.03 52.3129 34.9022 52.1771 34.9703C51.9649 35.0856 51.7086 35.1488 51.4222 35.0662C51.9094 34.8382 51.7984 35.0668 51.9149 35.0412ZM53.5549 34.0044C53.5725 34.0092 54.1945 33.5017 53.8562 33.9522C53.5938 34.2096 53.0064 33.961 53.1969 33.6746C53.3935 33.661 53.4119 33.9708 53.5549 34.0044ZM55.4187 31.4009C55.455 31.36 55.6233 31.2994 55.617 31.3408C55.5331 31.5085 55.1649 31.5525 55.4187 31.4009ZM55.857 31.7581C55.8484 31.5686 56.2028 31.7176 56.2454 31.8846C56.1299 31.9692 55.8534 31.7773 55.857 31.7581ZM55.0571 29.0913C55.5951 28.7722 54.7184 29.5829 54.7728 29.3596C54.7768 29.3506 55.0331 29.1084 55.0571 29.0913ZM56.0977 30.9381C56.0526 31.0368 55.8329 31.0681 55.8871 31.0549C55.9861 30.9706 56.0968 30.9154 56.0977 30.9381ZM56.1841 28.2785C56.7421 28.1938 55.5408 28.9559 55.4741 28.969C55.1865 29.0003 55.4173 28.645 55.4988 28.5877C55.5107 28.6015 55.6741 28.6072 55.8024 28.5224C55.9376 28.446 56.0618 28.3103 56.1841 28.2785ZM56.6945 31.8035C56.6016 32.1816 56.5216 31.9088 56.449 31.3832C56.3921 30.8534 56.1546 29.9969 56.2015 29.6731C56.5001 30.2152 56.7819 31.6286 56.6945 31.8035ZM57.3656 33.0534C57.4456 32.9815 57.6173 32.797 57.7716 32.4771C57.9256 32.1687 58.0419 31.6961 57.9526 31.5295C57.8959 31.8478 57.6782 32.2972 57.5235 32.5537C57.3659 32.825 57.2728 32.9666 57.3656 33.0534ZM58.3707 32.7453C58.6615 32.5195 58.5966 32.2081 58.4424 32.1401C58.2899 32.0617 58.0627 32.2135 58.0578 32.5833C58.0577 32.6111 58.3437 32.7592 58.3707 32.7453ZM57.8603 25.1107C57.5204 23.9296 56.1345 23.9747 57.0625 25.0701C57.3286 25.4204 57.8911 25.2419 57.8603 25.1107ZM57.7615 27.7311C57.9668 27.8398 58.0605 28.1571 57.991 28.3097C57.9267 28.4763 57.6859 28.3747 57.3641 28.0571C57.4554 28.2588 57.5627 28.5098 57.67 28.8311C57.7607 29.0641 57.8373 29.3027 57.8984 29.5405C57.781 29.2979 57.6622 29.0797 57.5486 28.8849C57.1486 28.3783 57.1473 28.2295 57.1893 28.0439C57.234 27.8739 57.3325 27.7403 57.2347 27.6779C56.9509 27.5173 56.4722 27.9966 56.3337 28.1404C56.4237 27.9635 56.3254 27.814 56.2898 27.823C56.2471 27.8235 56.2639 27.9601 56.3319 28.0828C56.3476 27.6946 56.6825 27.2475 57.1996 27.4721C57.3363 27.5265 57.3136 27.745 57.4564 27.8629C57.6953 28.0701 57.7391 27.721 57.7604 27.7299C57.7607 27.7303 57.7611 27.7307 57.7615 27.7311ZM53.1696 21.4251C52.5206 20.6175 52.7384 21.851 53.2184 21.8607C53.2427 21.8556 53.1855 21.4451 53.1696 21.4251ZM57.7449 29.7985C57.6158 29.688 57.507 29.8195 57.4817 29.8199C57.4809 29.8504 57.4962 29.6956 58.1984 29.7131C57.4814 29.8275 57.9217 29.9026 57.7104 29.9861C57.5381 30.0435 57.4645 29.918 57.3408 30.1313C57.3938 30.0062 57.2821 29.9365 57.2516 30.0091C57.2122 30.0675 57.2558 30.3 57.2804 30.3124C57.2803 30.312 57.2803 30.3117 57.2802 30.3113C57.3121 30.3283 57.8397 29.8942 57.7449 29.7985ZM59.6424 34.0229C60.2449 34.1386 60.1552 33.9669 60.0584 33.7436C59.9661 33.5025 59.8602 33.2668 60.5409 32.8335C60.1508 31.789 59.7152 33.1977 59.3725 33.738C59.0153 34.3654 58.9625 34.2448 58.4467 33.9505C58.4827 34.0621 58.5453 34.009 58.5714 33.9682C58.5994 33.9227 58.594 33.8798 58.5574 33.8682C58.4854 33.8428 58.3031 33.9119 58.2151 33.8867C58.1223 33.8727 58.1291 33.7455 58.2501 33.7145C58.3778 33.6684 58.5622 33.8789 58.9802 34.2105C58.8072 34.0357 58.7929 33.7837 58.8046 33.6555C58.8197 33.5202 58.8743 33.4989 58.9436 33.547C59.0823 33.643 59.2893 33.9537 59.411 33.8524C59.5379 33.746 59.612 33.339 59.6827 32.7414C59.7588 32.162 59.7609 31.4232 59.9619 31.5038C59.962 31.5055 59.9621 31.5072 59.9621 31.5088C59.9852 33.3891 59.644 34.1132 59.6437 34.4081C59.2416 34.0681 59.0813 34.1327 59.1349 34.252C59.1859 34.3771 59.5053 34.4587 59.9255 34.5317C59.819 34.3966 59.7254 34.2281 59.6424 34.0229ZM58.6442 31.4177C58.6697 31.4996 58.6537 32.3897 58.5336 32.8553C58.4212 33.351 58.3096 33.5379 58.2326 33.4795C58.1793 33.3992 58.2964 32.9437 58.3826 32.0955C58.461 31.2693 58.4069 30.3785 58.6442 31.4177ZM56.6953 27.9003C56.6237 27.7116 56.7254 27.4176 56.5466 27.5861C56.5051 27.6655 56.4597 27.9976 56.6953 27.9003ZM48.1608 18.8281C47.9525 19.1223 48.6556 19.4489 48.4355 18.9565C48.4221 18.933 48.1698 18.8145 48.1608 18.8281ZM60.3957 31.7041C60.7727 30.8144 60.5669 30.3752 60.3506 30.5887C60.1288 30.7792 59.8388 31.3856 59.8296 31.9625C59.8286 32.0355 60.3603 31.7952 60.3957 31.7041ZM57.8742 29.5094C57.9589 29.4417 58.0246 29.3695 58.1458 29.3976C58.2607 29.4174 58.4372 29.5487 58.5071 29.5916C58.3861 29.6299 58.105 29.559 57.9593 29.5559C57.8059 29.5428 57.7771 29.5863 57.8742 29.5094ZM57.4228 27.7009C57.5813 27.1722 57.4857 26.9506 57.387 26.905C57.2853 26.8549 57.163 26.9626 57.1771 26.9428C57.2079 26.9045 57.4366 26.685 57.4469 26.673C57.4579 26.6596 57.499 26.5889 57.6035 26.5947C57.7013 26.5924 57.8739 26.692 57.8829 26.7128C57.8889 26.7371 57.3697 27.0164 57.3759 27.1933C57.3445 27.0022 57.0791 26.9198 57.0454 27.0998C56.9912 27.2575 57.0944 27.5915 57.1239 27.6031C57.1795 27.631 57.3687 26.8652 57.4224 27.7C57.4225 27.7003 57.4227 27.7006 57.4228 27.7009ZM57.305 26.8161C57.0864 27.0022 57.2478 26.916 57.4329 26.9301C57.6117 26.9148 57.5517 26.8354 57.4713 26.8014C57.3889 26.7652 57.3169 26.8037 57.305 26.8161ZM58.6895 27.5166C58.7478 27.5578 58.9518 27.7753 59.1752 28.1645C59.7981 29.3349 59.951 30.8242 59.803 30.9697C59.5947 30.29 59.3062 29.1742 58.8857 28.2927C58.6003 27.7042 58.5001 27.4033 58.6895 27.5166ZM53.0629 19.0348C52.7663 18.9549 52.1227 18.4563 52.0473 18.729C52.2843 18.7661 52.9492 19.284 53.0629 19.0348ZM62.9155 34.7737C62.9282 33.7889 63.0996 34.3955 63.1034 35.5466C63.1235 36.7111 62.6764 38.338 62.3742 38.9135C62.2888 38.92 62.6206 38.012 62.7822 36.959C62.9606 35.91 62.9132 34.8505 62.9155 34.7737ZM62.8654 31.7124C62.8922 31.5485 63.1848 30.6519 63.0253 28.6271C62.931 26.6252 61.6368 23.5192 60.1304 21.9111C57.0757 18.7031 55.7527 18.6804 55.4186 18.4355C55.6856 18.8206 56.9275 19.011 59.7826 22.0677C61.1913 23.5982 62.4549 26.5102 62.5919 28.4462C62.7882 30.3984 62.5388 31.3018 62.5588 31.4574C62.5575 31.6332 62.8376 31.792 62.8654 31.7124ZM59.1915 25.9306C59.2207 25.5734 58.8272 25.7804 58.8047 25.7736C58.5468 25.6889 58.3938 25.7086 58.2312 25.905C58.3483 25.8275 58.4996 25.8987 58.7208 26.0389C58.9372 26.1739 59.1676 26.3032 59.1915 25.9306ZM53.2116 17.1057C51.9633 16.7737 54.2276 18.1434 54.0573 17.6297C54.0349 17.5882 53.335 17.1343 53.2116 17.1057ZM62.6489 33.0001C62.6662 33.2028 62.4451 33.9432 62.1689 34.4769C61.8937 35.0229 61.61 35.357 61.478 35.3606C61.338 35.3721 61.351 35.0595 61.43 34.4885C61.5107 33.934 61.6 33.0936 61.6151 32.6877C61.0264 33.9673 61.2071 34.6532 61.1721 35.0828C61.1669 35.1749 60.9683 35.0561 60.968 35.0664C60.9847 35.1683 61.1937 35.1984 61.2218 35.2474C61.2259 35.2655 61.2745 35.3512 61.6688 34.6776C62.051 34.1123 62.62 32.4209 62.6489 33.0001ZM59.2431 25.7096C59.2468 25.6014 58.9357 25.3631 58.7992 25.3785C58.6468 25.3737 58.6268 25.5413 58.6084 25.5694C58.4862 25.7974 58.4175 25.6267 58.5597 25.5646C58.6793 25.4733 59.1514 25.6724 59.2431 25.7096ZM63.4096 32.0613C63.5887 32.9035 63.0857 34.359 62.7658 34.741C62.6018 34.9695 62.4653 35.0602 62.3958 35.0352C62.3289 34.998 62.3161 34.8958 62.4834 34.4054C62.5329 34.2472 63.2707 33.3985 63.4096 32.0613ZM53.4915 16.4934C53.4011 16.4267 52.1765 15.8103 52.1536 16.0488C52.2251 16.1218 52.6813 16.3304 53.0879 16.4938C53.5026 16.6576 53.8405 16.7622 53.4915 16.4934ZM54.4438 16.0782C54.4083 16.0698 54.6486 16.6409 53.9471 16.2771C53.8979 16.2532 53.8652 15.7005 53.0326 15.5668C52.8669 15.5416 52.5828 15.7821 52.5972 15.8092C52.9041 16.3327 53.7289 16.466 54.4258 16.5231C55.1157 16.582 55.4823 16.4219 54.4438 16.0782ZM59.4552 25.4985C59.6607 25.4503 59.8211 25.009 59.5019 25.1084C59.3699 25.1568 59.2509 25.3656 59.4552 25.4985ZM50.1745 15.0834C50.6438 14.8447 49.2137 14.2707 49.195 14.3623C49.2188 14.6278 50.109 15.1012 50.1745 15.0834ZM63.9927 40.5557C63.9938 40.5533 63.9949 40.5509 63.996 40.5485C63.3441 41.8058 63.1417 41.863 63.1168 41.7908C63.0891 41.6999 63.213 41.3604 63.1804 41.4077C62.9562 41.7404 62.748 42.0198 62.5602 42.2607C61.6515 43.3899 61.48 43.6162 61.4372 43.8465C61.3997 44.0512 61.5278 44.1182 61.4132 44.2962C60.9136 45.0689 60.5242 44.4562 59.9088 45.4732C61.0025 43.7734 59.8553 45.1785 59.6965 44.9716C59.0465 44.3188 60.9285 44.104 62.4383 42.164C62.7123 41.8103 62.9282 41.4601 63.0729 41.1426C63.1646 40.9465 62.5534 41.727 62.2117 41.9842C62.0616 42.0917 61.9763 42.1115 62.0696 41.917C62.0748 41.9061 62.0801 41.8952 62.0855 41.8842C63.8404 40.3954 66.7429 28.5619 63.9927 40.5557ZM59.4309 25.0418C59.4573 24.9152 59.2015 24.873 59.0809 25.0187C58.9489 25.1525 58.8773 25.3857 58.8086 25.3715C58.7976 25.3693 58.7991 25.2342 58.9531 25.2005C59.0955 25.154 59.3871 25.2179 59.4309 25.0418ZM6.31373 29.0683C6.1541 28.1241 5.76959 28.7277 5.51687 29.5778C5.26344 30.4375 5.18758 31.3047 5.39601 31.5215C5.50031 31.6329 5.75185 31.3117 5.96958 30.7784C6.18469 30.2545 6.38708 29.4736 6.31373 29.0683ZM9.53393 49.0231C9.08541 48.3017 8.88455 46.8279 9.03467 45.9595C9.168 45.0461 9.71292 45.1369 10.3322 46.5316C10.4742 46.8676 9.91357 49.0267 9.53393 49.0231ZM28.339 6.80575C27.703 6.18842 28.2925 7.46879 28.5141 7.39977C28.5991 7.37307 28.3602 6.82485 28.339 6.80575ZM23.3126 6.4403C23.2405 6.43749 22.8388 6.5882 22.4429 6.80613C22.0374 7.02634 21.6361 7.31786 21.7399 7.46069C22.5759 7.30886 24.225 6.50805 23.3126 6.4403ZM28.3791 6.5937C28.2614 6.87871 29.0048 7.72804 28.9822 6.72044C28.8323 6.84326 28.3889 6.56568 28.3791 6.5937ZM64.3834 24.2281C63.8378 23.2432 62.6898 21.3393 61.5345 20.1152C60.3572 18.8237 59.3376 18.0447 58.668 17.5954C58.7133 17.3744 59.5481 17.8079 60.9026 19.1001C62.2425 20.2914 63.9091 22.96 64.3834 24.2281ZM11.2788 49.8305C11.6791 49.8648 11.786 49.5943 11.6891 49.3343C11.5951 49.0794 11.2032 48.7049 10.9772 49.0205C10.9706 49.045 11.0676 49.2879 11.1386 49.4808C11.2126 49.6779 11.2618 49.8291 11.2788 49.8305ZM49.1747 8.04972C48.9338 8.32523 49.1521 9.16195 49.2586 8.40788C49.2672 8.37801 49.1932 8.03606 49.1747 8.04972ZM48.8522 9.18107C49.0147 9.03154 49.3498 8.93281 49.1181 9.34792C49.0952 9.41396 48.7906 9.51898 48.8522 9.18107ZM61.545 44.5631C61.803 44.5675 61.5453 44.9792 61.2244 45.3388C60.9103 45.696 60.5535 45.9861 60.4561 46.0326C60.371 46.0795 60.8626 44.577 61.545 44.5631ZM27.7721 6.50822C27.8835 6.53598 28.1822 6.14793 28.4035 6.4931C28.1522 6.52622 28.0276 7.29108 27.7721 6.50822ZM6.23397 41.0748C6.90553 45.6583 9.05243 48.2079 9.50327 46.86C8.9818 46.1011 8.6263 45.6247 8.41595 45.4423C8.20255 45.2513 8.11956 45.3213 8.03347 45.3389C7.94575 45.3512 7.86089 45.3299 7.61383 44.8545C7.37301 44.3486 6.94647 43.5457 6.23397 41.0748ZM29.799 5.31414C29.503 5.32374 29.6821 6.34207 29.7277 6.38033C30.1479 6.74773 30.2039 5.62571 29.799 5.31414ZM29.759 4.69625C29.6893 4.22927 29.3149 4.45946 29.4145 4.75738C29.4564 4.85543 29.8275 5.07146 29.759 4.69625ZM48.7466 12.5468C48.5304 12.1823 49.1647 12.1673 49.3909 12.5729C49.483 13.0727 48.7611 12.588 48.7466 12.5468ZM38.9682 4.60819C39.0019 3.96833 37.405 4.27054 38.0808 4.81661C38.2483 4.94958 38.9656 4.81616 38.9682 4.60819ZM49.8847 7.31143C49.7374 7.55418 49.7406 7.98952 49.6717 8.19315C49.6116 8.39928 49.4894 8.38762 49.6978 7.91692C49.7121 7.88311 49.8121 7.7358 49.8571 7.58764C49.9069 7.44092 49.897 7.29116 49.8847 7.31143ZM48.1771 8.43579C48.2654 8.34951 48.5591 6.51023 48.0847 7.28822C48.0262 7.38889 48.159 7.8351 48.1028 7.95373C48.0734 8.01768 47.3007 8.43138 47.2706 8.40108C47.2385 8.3613 47.3475 7.76374 47.3154 7.70699C47.3058 7.69036 47.2612 7.7215 47.1963 7.77801C47.0099 7.93573 46.7218 8.30014 46.5963 8.36008C46.2737 8.51255 46.2954 8.05406 46.2672 8.06442C46.2047 8.09944 46.1034 8.50424 46.0207 8.58333C45.5435 8.97655 45.7861 9.2764 46.2258 10.54C45.9037 9.87255 45.7703 9.99506 45.778 9.84114C45.7188 8.95203 45.897 10.1738 45.7854 9.34144C45.795 9.41593 45.9951 8.99559 47.0973 8.76078C47.654 8.6341 48.0791 8.53287 48.1762 8.43595C48.1765 8.4359 48.1768 8.43585 48.1771 8.43579ZM4.21796 35.8273C3.90703 37.1174 3.48993 34.2925 3.7106 32.433C3.91815 30.4623 4.34018 30.0581 4.7957 30.1296C4.85855 30.1816 4.70069 30.5699 4.48863 32.0087C4.2632 33.3573 4.23829 35.6834 4.21796 35.8273ZM1.16191 32.9375C1.09105 32.8843 0.65561 32.8479 0.337607 32.6279C0.0242138 32.3855 -0.197147 32.015 0.262099 30.6092C0.262215 30.6066 0.262331 30.604 0.262447 30.6014C0.542064 29.7419 0.880788 30.7532 1.02799 30.595C1.06144 30.6264 2.09832 27.6322 2.03298 30.1313C2.04691 31.7875 1.78423 31.6231 1.45404 31.5818C1.13262 31.4827 0.78315 31.2718 0.767482 31.9077C0.765126 31.9867 0.981958 32.5714 1.22549 32.7991C1.46861 33.056 1.72837 32.9955 1.82373 32.9987C1.8466 33.0227 1.66502 32.9435 1.74285 32.8745C2.03781 32.705 2.53748 32.7668 2.56099 32.7437C2.59558 32.7041 2.37145 32.2873 2.29927 30.9655C2.20887 29.7204 2.44825 27.518 2.92897 26.9971C3.04999 26.83 2.82424 29.3777 2.94106 30.967C3.03481 32.6633 3.19805 33.0829 3.1967 32.9458C3.23231 34.0873 3.30493 34.7802 3.30329 34.9504C3.31223 35.7785 1.89339 35.5932 1.87639 36.4827C1.84679 36.7105 2.57258 40.2628 3.65662 42.6807C4.71769 45.1912 5.75408 46.7021 5.88778 47.0803C5.97396 47.3036 6.02999 47.4753 6.06461 47.5968C6.01561 47.0941 6.69839 48.0639 7.19975 48.8218C7.71405 49.6095 8.03151 50.2305 7.81158 50.3431C7.72095 50.3799 7.38922 49.9784 6.99822 49.3997C6.61061 48.8322 6.16446 48.0508 6.14504 47.9846C6.1282 47.9305 6.11958 47.8793 6.10745 47.8337C6.08755 48.1476 5.06878 47.0038 3.64074 44.0124C2.15092 41.1804 0.941534 35.3657 0.809984 33.0095C0.712675 33.0309 0.594396 33.0368 0.444863 33.0193C0.441801 33.0537 0.438802 33.0891 0.43588 33.1256C0.433244 33.09 0.430706 33.0548 0.428262 33.0197C0.228942 33.0745 0.512233 32.9844 0.797973 33.0102C1.08287 33.0045 1.36846 33.0494 1.16191 32.9375ZM2.34123 20.701C2.31654 21.1817 2.3047 21.6569 2.30666 22.1201C4.13886 14.3086 12.072 7.39109 16.035 5.3699C17.0911 4.75121 15.4341 4.67625 16.923 4.1201C17.3755 3.96129 17.8661 3.90628 18.2689 3.92439C19.0246 3.88489 19.4794 4.06248 19.1422 4.34034C19.106 4.37067 18.9013 4.43583 18.582 4.54218C17.8808 4.73222 16.3932 5.21726 15.5007 5.84146C13.7612 7.05282 13.1051 7.92945 12.9681 8.30311C12.8263 8.69303 13.1457 8.68498 13.0359 8.78806C12.8438 8.93458 9.82925 10.8698 8.37961 12.7983C4.95623 17.3519 3.56065 21.2829 1.91136 27.4475C2.12619 23.6727 0.40512 25.5945 2.34123 20.701ZM45.964 3.99224C46.098 3.60066 46.8813 4.25805 47.1605 4.3097C47.0352 4.6939 46.3086 4.03665 45.964 3.99224ZM43.6398 60.3586C43.8888 59.7164 42.1933 59.7835 42.6004 60.2424C42.6842 60.3474 43.4068 60.3902 43.6398 60.3586ZM38.0955 60.7374C37.9818 60.9437 38.2002 61.2963 38.3102 60.8008C38.3349 60.6405 38.1027 60.7094 38.0955 60.7374ZM30.175 1.21015C30.1849 1.18755 30.3071 1.39058 30.3104 1.43113C30.5126 2.25569 30.068 1.69078 30.175 1.21015ZM40.2058 63.2848C40.1564 63.2315 40.1249 63.1845 40.1085 63.1435C40.0886 63.0928 40.0913 63.0513 40.1101 63.0184C40.2653 62.7923 41.1183 62.9511 40.7728 63.3402C40.757 63.3658 40.2381 63.3153 40.2058 63.2848ZM42.064 63.8331C41.9942 63.7889 41.6073 63.9262 41.58 63.708C41.5615 63.3591 41.9793 63.2245 42.064 63.8331ZM29.0636 2.68485C28.6546 1.94388 30.3289 2.17974 30.8926 1.97388C31.2464 2.72274 29.485 2.46715 29.0636 2.68485ZM26.588 2.11874C25.82 2.36475 25.7388 2.50659 25.7703 2.62311C25.8124 2.73863 25.9393 2.85897 25.9706 2.98348C26.0798 3.22233 25.7476 3.45125 26.9019 2.40993C26.7252 1.89801 26.7834 2.05774 26.588 2.11874ZM27.7301 2.50184C27.7423 3.03812 27.1888 3.02211 26.9169 3.04303C26.804 2.69895 27.4781 2.66472 27.7301 2.50184ZM45.7879 60.8994C45.7542 61.0051 45.699 61.0824 45.6309 61.1362C45.077 61.4087 44.1074 61.0666 44.3332 60.8367C44.3746 60.796 45.1819 60.6957 45.6256 60.7361C45.7377 60.7552 45.8086 60.803 45.7879 60.8994ZM30.1342 0.498007C30.0177 -0.344895 30.1866 0.093855 30.1848 0.292095C30.2377 0.681208 30.258 0.681987 30.2327 0.613929C30.2106 0.545272 30.1302 0.409248 30.1342 0.498007ZM38.8699 1.04166C38.9777 0.848107 39.1643 0.762974 39.387 0.740108C39.8741 0.692677 40.5032 0.895919 40.9674 0.960827C40.7254 1.3048 40.0049 1.20293 39.3976 1.11786C39.1984 1.08595 39.0129 1.05447 38.8699 1.04166ZM33.7732 0.661103C33.8123 0.62975 34.8555 0.59688 34.8994 0.626636C35.8224 1.14621 32.9375 1.24016 33.7732 0.661103ZM68.0906 36.7227C68.1847 36.8971 67.4267 40.316 67.295 40.3725C66.6409 41.6616 67.2761 40.1037 67.633 38.3644C67.9948 36.632 68.0417 34.9254 68.0906 36.7227Z" fill="black"/>
</svg>
