<svg width="844" height="462" viewBox="0 0 844 462" fill="none" xmlns="http://www.w3.org/2000/svg">
<path d="M345.335 6.48107C355.139 5.42287 364.85 5.04054 374.276 5.20959C403.364 5.46823 432.617 12.5779 455.626 21.4547C437.318 17.0905 413.959 9.04452 390.601 7.72229C387.454 7.44541 376.706 6.86707 378.041 8.42443C397.613 8.83791 422.119 12.2729 438.412 18.1832C438.935 18.3666 436.675 19.0697 438.608 19.8424C442.284 21.2284 454.333 23.0458 455.955 24.2545C456.241 24.4747 449.397 23.9018 451.021 25.6061C455.15 29.9525 458.184 24.5527 462.26 26.1588C465.749 27.4349 484.069 38.078 488.675 38.0553C494.079 38.2124 475.846 31.4824 477.524 30.4664C490.992 34.3091 501.511 40.746 511.101 44.0563C511.267 44.1116 510.163 42.4131 512.322 43.0338C516.029 44.0841 516.503 46.0324 518.179 46.8854C520.005 47.8365 526.51 49.5496 527.247 50.3512C527.346 50.4616 525.716 51.7358 525.499 51.7233C522.503 51.5908 521.952 49.134 521.703 49.027C520.746 48.6436 519.593 49.1504 518.699 48.8072C517.221 48.236 516.607 47.2138 514.632 46.4508C513.266 45.9166 514.202 47.8327 512.879 47.2926C512.388 47.1029 508.02 41.8155 506.439 44.9576C506.318 45.7129 524.372 53.5561 537.53 56.069C544.715 57.5955 551.812 58.2141 553.458 58.0856C549.767 57.3749 546.196 56.5771 542.853 55.6901C550.147 57.4729 559.622 55.9545 560.329 59.6735C592.919 62.2207 630.308 59.3755 671.969 61.7926C679.569 62.5905 675.245 64.2401 687.987 64.858C684.664 63.8405 681.467 62.8847 678.187 61.9674C684.315 62.4281 714.492 67.9053 720.344 69.9176C721.077 70.1299 722.295 68.3626 730.909 71.3502C734.476 72.6433 736.606 73.8742 738.187 74.9381C740.056 76.1933 741.243 77.2513 743.304 78.485C746.75 80.4929 750.883 82.7226 752.086 83.6363C752.92 84.2766 752.858 85.1493 754.782 86.7447C761.332 92.5484 757.131 85.9805 762.319 94.2809C760.593 92.6585 758.894 91.2506 757.258 90.0094C764.349 95.7688 772.168 109.159 766.352 102.563C767.482 104.052 768.563 105.628 769.575 107.291C771.629 110.893 777.125 126.843 775.247 137.899C773.954 148.925 771.044 154.849 770.89 155.343C770.172 156.365 770.999 152.01 768.206 157.129C767.927 157.783 764.638 165.283 762.469 169.517C760.284 173.897 759.098 176.21 759.857 172.925C759.966 171.892 765.664 161.114 767.218 156.983C764.495 160.803 761.895 166.638 760.441 170.812C758.934 175.095 758.768 177.525 758.582 177.895C757.848 179.374 757.89 177.993 758.024 176.494C758.081 175.775 758.124 175.121 757.84 175.339C757.582 175.508 756.878 176.79 756.229 178.52C755.771 179.763 755.774 179.932 755.824 180.061C755.887 180.161 756.065 180.129 756.282 180.088C756.383 180.064 756.494 180.036 756.605 180.01C756.935 181.714 758.068 183.855 758.789 183.232C760.363 186.006 758.755 184.868 758.862 185.254C758.823 185.55 763.252 191.692 764.838 194.315C765.007 194.622 763.683 194.341 763.832 194.673C764.04 195.259 769.653 202.183 770.026 202.493C770.208 202.641 769.412 200.395 770.11 200.976C770.858 201.594 776.529 208.995 777.065 209.353C777.711 209.634 770.41 200.775 772.252 201.718C775.237 205.837 781.302 212.609 784.125 215.465C783.41 214.767 780.011 210.295 778.922 208.802C780.333 208.527 787.618 218.526 784.402 215.706C786.378 217.601 785.498 215.913 786.762 216.887C787.093 217.13 789.377 220.455 789.972 221.036C790.061 221.075 788.071 217.305 788.724 217.859C789.937 218.576 796.678 230.095 797.005 231.547C798.226 234.568 792.641 224.563 791.73 224.318C791.657 224.179 795.379 232.834 795.318 233.164C794.87 233.936 790.411 224.56 790.296 226.123C791.425 228.318 792.519 230.61 793.548 233.04C788.35 224.052 779.123 211.722 776.15 209.554C783.696 218.175 791.434 230.892 789.517 232.08C788.784 232.449 785.378 227.785 785.285 228.13C785.114 229.182 789.873 235.794 789.931 236.236C790.003 236.489 790.012 236.616 789.973 236.638C789.665 236.605 783.579 226.919 783.036 226.794C782.229 226.266 783.62 231.237 783.31 231.438C783.177 231.234 778.599 225.241 779.555 227.708C780.569 230.099 784.084 235.838 784.128 236.164C784.555 237.322 778.017 227.701 777.563 227.725C777.403 227.643 780.306 233.024 780.222 233.329C780.159 233.546 777.226 229.94 775.668 228.936C774.522 228.161 776.512 231.471 776.051 230.97C775.774 230.5 769.471 222.496 769.061 222.24C768.499 221.76 769.573 223.938 769.246 223.767C768.782 223.519 766.86 220.936 766.966 221.39C767.101 221.682 773.519 232.697 772.974 233.008C772.252 233.329 765.612 221.862 770.518 233.558C770.562 233.634 772.501 235.84 772.542 235.946C772.869 237.069 770.667 234.849 770.465 235.098C772.699 238.055 774.709 241.044 776.37 244.081C780.414 251.474 786.177 258.924 791.554 266.374C790.772 265.166 790.174 264.178 789.898 263.606C792.442 266.354 796.79 273.282 798.752 276.058C798.973 276.385 799.632 273.438 801.091 278.568C801.623 280.147 799.365 277.409 796.723 273.815C798.593 276.663 800.303 279.51 801.737 282.35C802.578 283.33 803.423 283.942 804.475 284.186C801.062 273.415 791.091 264.386 789.3 261.76C786.326 257.797 789.852 261.575 789.628 260.983C789.531 260.764 786.975 257.381 786.98 257.302C786.873 253.595 798.63 272.347 802.274 278.584C801.64 276.742 800.929 274.917 800.183 273.133C801.618 275.295 803 277.523 804.272 279.858C798.539 268.716 804.391 279.086 807.554 281.315C808.304 281.79 803.658 274.307 809.246 282.743C806.222 275.935 807.603 277.823 803.727 272.599C804.447 272.158 812.525 283.416 814.423 290.913C811.912 279.872 809.481 278.87 808.425 277.275C807.08 275.844 806.168 274.48 801.816 267.059C799.209 265.014 804.067 271.565 803.539 271.144C801.746 269.427 799.175 264.369 793.706 260.355C792.825 259.703 794.719 263.813 790.805 258.534C790.371 257.944 788.55 254.182 788.621 254.168C789.444 254.24 791.728 257.649 792.053 257.638C792.344 257.612 789.462 254.051 789.516 254C790.061 253.433 792.054 256.86 791.911 256.262C791.579 254.92 783.07 240.999 795.651 258.25C784.091 244.656 793.441 256.829 798.119 262.358C799.294 263.77 799.973 263.847 801.692 265.9C803.908 268.53 806.024 272.119 807.078 273.666C808.194 275.458 803.34 264.567 811.535 279.624C808.586 270.716 798.647 260.348 794.798 254.124C786.957 241.583 802.755 261.001 804.816 263.582C805.309 264.163 804.325 261.753 804.66 262.13C805.256 262.462 814.243 276.159 815.399 278.078C816.781 279.367 812.23 272.288 812.423 271.688C812.505 271.441 815.478 275.601 817.49 279.33C819.477 283.074 820.76 285.668 818.334 279.586C814.789 271.104 805.342 261.66 805.428 259.087C811.648 267.155 819.244 275.659 822.881 290.831C821.829 282.366 818.946 275.62 816.075 269.829C823.048 280.148 830.012 298.032 822.497 316.994C826.493 308.92 826.838 303.363 827.251 301.331C827.559 299.206 827.765 299.956 827.759 302.422C828.091 307.403 824.579 319.27 820.412 324.997C818.443 328.081 816.857 330.022 816.828 330.176C816.828 330.28 818.915 328.408 821.272 325.6C824.646 321.746 827.921 315.28 828.542 313.558C827.61 317.201 825.596 322.205 822.822 326.687C813.158 342.23 798.671 352.572 812.604 343.468C809.351 345.946 803.135 352.581 803.278 352.553C804.021 352.671 808.145 349.645 811.896 346.314C815.662 343.03 818.976 339.412 818.036 341.142C815.78 345.191 810.614 347.974 806.202 351.634C783.772 368.666 792.554 369.419 769.771 380.806C770.292 380.785 770.82 380.761 771.35 380.732C748.849 391.922 727.088 400.282 705.882 408.267C704.194 408.898 702.48 409.533 700.776 410.159C692.407 415.772 667.835 426.244 654.986 429.92C652.44 430.723 639.509 433.306 638.482 433.329C636.626 433.435 646.349 430.456 641.774 430.973C640.871 431.19 619.036 436.429 620.774 437.295C623.285 436.85 630.81 434.182 632.111 434.142C641.774 434.729 572.654 448.38 568.665 448.544C570.28 448.797 571.892 449.04 573.515 449.271C568.993 449.704 564.463 450.069 559.902 450.362C561.72 449.739 563.527 449.107 565.319 448.467C560.125 448.868 553.127 449.918 548.243 449.94C547.447 449.942 549.47 448.561 547.59 448.669C545.716 448.772 546.122 450.393 543.377 450.785C543.01 450.836 542.486 450.879 541.839 450.916C536.391 451.284 523.569 450.619 518.855 450.468C498.699 450.182 479.297 448.57 462.489 445.14C480.606 446.633 462.735 442.558 457.947 442.297C456.98 442.27 455.874 445.43 440.057 441.961C430.391 439.883 440.084 436.449 423.995 436.503C435.264 441.595 423.256 439.452 414.675 438.641C413.088 438.431 401.622 436.903 397.012 437.029C395.378 437.035 392.834 438.836 390.803 438.917C389.413 438.97 388.384 437.983 386.348 438.118C385.679 438.162 385.012 438.211 384.347 438.263C375.701 438.952 366.475 440.269 356.021 441.915C361.937 435.871 350.575 440.812 349.915 440.754C346.981 439.96 359.314 437.203 354.317 437.313C347.523 438.741 340.372 440.442 332.822 442.317C339.144 441.492 325.37 448.308 322.128 447.416C324.949 451.369 282.849 452.527 275.021 454.931C273.473 455.428 283.956 456.29 260.639 458.622C258.055 458.833 258.892 457.351 257.552 457.641C256.773 457.812 252.159 462.735 246.481 460.783C244.295 459.897 257.51 456.749 228.619 459.045C236.939 461.916 213.342 462.997 193.634 459.257C185.816 457.875 178.922 456.024 175.888 454.997C177.787 456.038 179.729 457.057 181.596 458.03C171.897 454.437 169.609 455.247 167.313 454.6C158.028 451.901 145.258 445.756 136.285 441.636C125.827 436.719 124.191 439.22 112.905 430.797C115.34 433.146 117.849 435.429 120.448 437.652C112.071 432.647 104.005 426.837 96.7027 420.61C116.62 431.402 92.9062 417.625 91.8004 416.287C89.6345 414.529 93.6168 416.054 90.0836 413.101C89.7441 412.806 89.1197 414.335 84.0191 409.594C73.7831 399.653 77.0508 400.086 73.3619 396.005C73.0995 395.685 72.9266 397.645 67.1539 391.144C51.1358 372.533 67.5555 390.176 68.8267 391.309C70.1951 392.362 67.2229 381.511 81.4957 399.867C77.1523 394.011 78.4978 392.138 77.9361 391.442C77.2101 390.638 68.8248 380.835 68.5787 380.575C64.5021 376.697 66.1761 381.542 65.2759 380.874C64.6294 380.365 60.7934 373.284 57.4576 372.035C54.5861 369.217 52.1175 366.953 50.0318 365.797C46.3655 354.128 50.5188 360.645 58.9381 370.877C60.3852 372.216 62.369 374.59 64.9488 377.48C65.7862 377.788 64.635 375.536 63.4732 373.475C62.2886 371.383 61.1554 369.598 61.0308 369.447C60.9964 369.404 60.961 369.36 60.9273 369.319C49.0309 353.566 47.0836 347.705 45.5289 348.052C44.1376 347.99 44.2636 352.177 41.1168 347.949C37.4794 343.38 34.7837 323.98 36.6617 342.126C30.0209 321.18 31.8981 317.925 32.0631 318.477C32.5905 319.102 33.9214 324.274 33.8863 323C33.4826 318.912 31.8227 306.692 32.0855 305.522C32.2783 303.526 33.457 310.439 33.897 302.637C33.9664 301.404 32.324 289.46 30.9273 304.943C31.1911 293.966 31.4598 291.004 31.6773 288.693C31.9518 286.568 32.5019 285.737 34.4966 283.968C34.4061 283.826 34.3223 283.685 34.2398 283.55C33.9016 284.229 33.2893 284.474 32.1441 283.764C30.2534 282.293 27.46 280.223 19.2017 266.225C19.932 265.125 22.9309 269.78 25.4244 273.563C27.9497 277.441 29.9038 280.663 30.0943 280.778C30.6304 281.059 33.383 275.673 33.3111 275.107C33.1818 274.243 29.5488 270.149 23.6529 260.552C18.0236 251.477 9.01536 232.667 8.9859 211.416C9.07829 208.792 9.34192 205.894 9.95075 204.282C8.45042 205.607 8.01387 199.954 8.58454 190.206C8.9779 180.719 11.9907 166.795 12.3824 163.885C12.4757 162.342 9.31497 167.433 9.48688 165.814C9.41592 155.731 25.7149 127.309 35.2896 117.844C45.1422 106.62 42.9563 107.421 43.4693 106.713C48.07 102.501 45.2029 106.703 47.9839 104.163C50.6359 101.513 63.3827 91.7677 72.0025 87.1988C77.6904 83.9878 81.7398 82.1722 82.2398 81.8326C82.6358 81.5717 77.0824 82.0647 83.274 78.8365C84.1115 78.5525 85.284 79.7347 101.045 73.3356C110.181 69.8731 106.783 70.2224 101.884 70.861C97.0151 71.4977 90.0492 73.0558 93.8882 70.4156C107.695 69.176 105.789 66.6517 109.165 65.8961C110.306 65.663 119.016 66.1857 126.731 64.3727C121.201 66.0271 115.45 67.8625 109.341 70.0543C115.702 68.7048 126.533 65.6121 131.007 65.2955C133.232 65.1193 131.951 67.6849 136.53 66.7291C137.456 66.5482 140.38 60.2514 128.584 65.1871C127.16 63.4592 133.366 63.4811 135.884 62.4449C136.271 62.2814 137.213 58.7378 140.951 60.149C141.715 60.579 135.441 71.2598 155.566 60.9049C156.204 60.5772 153.639 59.7659 154.257 59.4156C154.701 59.171 160.111 58.8249 160.651 58.5748C161.215 58.3037 158.447 57.3998 159.113 57.0377C162.55 55.1756 168.1 59.5953 160.611 60.3219C163.228 60.573 165.788 60.8412 168.327 61.1149C165.083 57.6429 171.982 59.4669 175.208 58.8805C195.622 55.1459 181.439 54.6471 184.741 52.8463C189.858 49.9768 186.9 57.1411 194.477 53.9742C195.055 53.674 185.568 52.3778 203.643 51.0758C201.115 51.6134 198.507 52.143 195.836 52.6686C198.124 56.1143 205.288 50.8824 205.768 50.7311C212.104 49.0673 208.399 51.1744 216.723 47.5377C217.437 47.213 219.273 47.75 220.621 46.9664C221.03 46.7287 221.323 46.5307 221.523 46.3678C222.074 45.9015 221.907 45.7127 221.326 45.6803C219.506 45.601 211.396 47.3208 210.733 46.3268C210.518 45.9331 216.678 44.6539 220.761 43.7174C223.501 43.1197 226.016 42.5063 226.27 42.5826C228.765 43.5066 220.282 44.8972 222.399 46.2975C222.81 46.5425 227.659 45.2152 233.657 42.9098C239.554 40.693 247.288 37.1604 250.308 36.2194C257.147 34.1208 262.853 36.8649 260.411 31.9401C264.868 35.8431 265.14 31.6782 266.151 31.2633C278.697 26.2275 278.915 26.0996 291.095 20.8121C293.853 19.6508 296.892 20.2801 297.806 19.6715C298.348 19.3093 296.591 18.0864 299.378 16.568C302.997 14.1269 330.112 8.94453 332.405 9.88537C334.594 10.3527 321.194 12.6233 323.961 13.6461C333.485 11.6115 342.737 9.72513 352.417 8.95178C356.389 8.65955 354.477 9.90937 356.192 9.78576C356.97 9.63086 370.503 8.07889 369.877 7.78674C368.696 5.90506 325.744 11.8632 336.711 8.64807C338.87 7.87914 347.043 9.27844 345.335 6.48107ZM541.848 451.426C543.606 451.444 544.749 451.543 544.42 451.812C543.873 452.122 542.965 452.349 541.865 452.503C536.426 453.231 527.161 452.151 529.304 451.621C529.721 451.543 537.423 451.43 541.848 451.426ZM522.025 450.14C524.536 448.697 506.102 447.661 510.842 449.152C511.868 449.522 519.631 450.137 522.025 450.14ZM446.346 440.621C444.277 440.746 451.928 443.259 452.234 441.994C452.283 441.582 446.593 440.601 446.346 440.621ZM366.708 439.114C366.767 438.187 360.249 438.608 359.75 440.278C361.066 439.966 366.704 439.66 366.708 439.114ZM380.861 437.168C385.667 435.573 371.08 436.376 375.607 437.467C375.861 437.499 380.649 437.225 380.861 437.168ZM389.217 348.421C389.569 349.567 388.318 348.697 388.018 348.876C386.568 349.693 392.566 349.074 392.651 349.576C392.74 349.72 390.976 350.052 390.86 350.065C390.628 350.061 390.859 349.638 390.313 349.627C388.979 349.611 387.676 349.893 386.317 350.059C385.833 349.52 387.778 349.441 387.419 349.129C387.053 348.749 382.983 348.842 382.576 349.298C382.239 349.602 382.624 350.191 382.567 350.275C382.469 350.411 381.924 349.913 381.579 350.058C380.131 350.694 380.048 350.726 378.897 350.861C378.817 350.872 379.237 352.06 378.415 350.613C378.402 350.607 378.39 350.601 378.378 350.593C379.083 352.104 378.06 350.61 377.81 350.268C377.758 350.19 377.724 350.134 377.816 350.042C377.857 350 377.927 349.95 378.021 349.894C377.985 349.82 377.947 349.764 377.898 349.749C377.874 349.741 377.846 349.736 377.818 349.731C377.513 350.046 377.682 349.887 377.635 349.718C377.08 349.727 376.126 350.047 375.356 350.073C376.149 349.702 376.794 349.401 377.354 349.13C376.566 349.324 375.244 348.512 375.071 348.516C374.846 348.519 374.824 348.827 374.61 349.031C374.383 349.242 374.019 349.32 372.751 349.039C372.183 349.697 373.444 349.687 374.211 349.819C374.976 349.952 375.51 350.084 374.224 350.666C371.864 351.76 371.262 351.168 371.152 351.214C370.015 351.828 371.197 352.133 371.128 352.193C371.026 352.283 369.988 352.681 368.347 353.554C366.73 354.368 364.324 356.049 363.744 356.553C363.079 357.099 363.679 356.028 362.549 356.937C362.397 357.118 363.175 357.065 360.579 359.685C358.108 361.737 352.759 369.248 352.877 371.999C352.841 372.432 353.956 371.169 353.949 371.587C353.864 372.372 352.941 376.024 352.831 377.996C352.775 378.7 352.752 379.228 352.768 379.612C352.657 379.599 352.547 379.583 352.443 379.571C352.433 379.461 352.42 379.345 352.411 379.221C352.292 377.945 352.348 376.067 352.239 376.195C351.803 376.632 351.68 378.416 351.785 379.418C351.788 379.459 351.794 379.5 351.798 379.539C351.661 379.553 351.646 379.614 351.827 379.792C351.873 380.14 351.932 380.385 351.979 380.55C351.813 380.649 351.7 380.748 351.624 380.869C351.492 380.881 351.352 380.907 351.241 380.958C351.184 380.998 351.265 381.039 351.304 381.05C351.198 381.052 350.952 381.091 350.723 380.899C350.482 380.719 350.264 380.254 350.265 380.19C350.276 379.681 350.626 379.845 350.949 379.922C351.276 379.953 351.555 380.082 351.5 378.748C351.476 376.739 350.555 379.143 350.506 379.133C350.363 379.26 349.999 378.455 349.741 379.146C349.741 379.148 349.741 379.151 349.741 379.153C349.311 380.284 349.522 380.577 349.836 380.768C350.152 380.94 350.586 380.968 350.659 381.009C351.046 381.124 349.689 381.038 349.877 381.086C349.897 381.456 349.931 381.878 349.986 382.348C350.272 379.171 350.437 385.336 352.037 389.475C352.303 390.22 352.573 390.894 352.833 391.497C352.839 391.533 352.845 391.57 352.85 391.603C352.881 392.011 352.295 390.403 352.081 390.216C351.982 390.015 351.419 391.264 354.092 397.577C353.256 391.914 354.455 397.956 355.763 399.123C356.357 399.692 356.635 399.613 356.837 399.396C356.894 399.462 356.943 399.525 356.993 399.579C357.318 399.916 357.507 399.972 357.684 399.961C357.717 399.956 357.749 399.947 357.781 399.938C357.701 399.857 357.606 399.74 357.503 399.584C357.49 399.591 357.481 399.596 357.474 399.596C357.445 399.595 357.348 399.378 357.139 399.007C357.147 398.998 357.155 398.989 357.164 398.98C356.983 398.597 356.846 398.175 356.912 397.942C356.995 397.642 357.326 398.12 357.583 398.486C357.799 398.797 357.959 399.027 358.071 399.047C358.044 399.075 358.016 399.103 357.99 399.13C358.103 399.233 358.231 399.363 358.378 399.521C358.416 399.48 358.453 399.435 358.49 399.391C358.557 399.56 358.552 399.636 358.524 399.686C359.054 400.277 359.809 401.195 360.912 402.518C360.882 402.536 360.843 402.581 360.832 402.683C360.803 402.849 360.82 403.148 360.629 403.21C360.202 402.934 360.204 403.014 360.138 403.325C358.617 401.768 357.873 401.417 358.702 403.954C358.852 403.99 359.009 404.044 359.171 404.112C359.713 403.492 359.829 403.268 359.965 403.381C360.088 403.48 360.199 403.864 360.263 403.872C360.431 403.885 360.59 403.081 361.241 403.339C361.277 403.356 361.545 403.604 361.901 403.949C362.247 404.284 362.677 404.699 362.719 404.755C362.818 404.886 362.131 405.576 363.089 406.839C361.69 404.95 361.267 404.905 360.814 405.097C360.396 405.31 360.176 405.899 360.07 405.852C359.743 405.611 357.182 403.86 359.596 406.021C360.608 406.951 360.879 406.476 360.921 406.511C361.604 407.183 360.689 407.368 362.765 409.084C363.81 409.909 364.108 409.401 364.18 409.445C364.914 409.942 363.937 409.926 364.391 410.22C364.643 410.464 369.794 412.283 365.379 411.019C366.856 412.172 368.48 413.231 370.095 414.105C369.646 413.607 369.203 413.092 368.783 412.569C370.897 414.225 371.457 413.233 373.37 413.965C375.005 414.572 377.064 415.796 378.511 416.217C378.863 416.317 379.317 415.827 380.677 416.667C380.417 416.392 380.16 416.113 379.908 415.832C380.257 416 381.009 416.25 381.859 416.447C385.035 417.184 388.799 416.947 387.571 415.733C391.222 414.949 389.551 416.19 389.862 416.518C390.602 417.359 391.009 415.576 391.087 415.525C391.229 415.45 391.181 415.997 391.462 415.989C392.736 415.934 392.943 415.735 392.984 415.543C393.009 415.349 392.789 415.152 392.846 415.073C393.142 414.703 394.379 415.049 395.113 415.297C395.848 415.534 396.168 415.702 396.043 414.988C395.651 414.931 394.948 414.78 394.035 414.496C393.926 414.461 393.819 414.425 393.716 414.386C393.5 414.304 393.374 414.661 393.237 414.601C393.035 414.511 392.891 413.719 392.779 413.645C392.606 413.537 392.355 413.441 392.197 413.368C392.034 413.294 391.956 413.245 391.942 413.22C391.754 412.925 392.012 412.791 392.112 411.738C392.264 411.111 392.326 411.325 392.263 411.675C392.218 412.03 392.096 412.534 392.26 412.562C392.904 412.67 393.366 411.452 393.403 411.382C393.723 411.13 395.083 411.552 393.586 412.143C394.771 412.315 396.831 411.928 399.146 411.653C399.683 411.598 401.217 411.751 401.874 411.652C401.926 411.641 401.969 411.628 402 411.611C402.239 411.475 402.193 410.843 402.354 410.817C402.515 410.793 402.354 411.308 402.421 411.318C402.851 411.352 403.448 411.047 403.89 411.002C403.747 411.213 403.6 411.426 403.45 411.637C403.846 411.601 404.237 411.556 404.623 411.505C404.475 411.373 404.328 411.239 404.182 411.104C404.605 410.734 409.974 408.842 409.062 408.288C408.953 408.222 408.451 408.786 408.256 408.823C408.073 408.369 409.628 407.706 409.706 407.712C410.069 407.822 409.415 408.297 409.566 408.382C409.655 408.429 410.618 408.341 410.787 408.239C411.683 407.756 413.004 406.003 413.205 404.766C413.317 404.678 413.429 404.589 413.536 404.501C414.488 403.648 415.641 402.706 417.284 401.372C417.22 401.322 417.155 401.271 417.092 401.22C417.975 400.661 418.176 399.856 418.287 399.035C418.431 398.176 418.418 397.405 419.67 396.064C420.167 395.53 421.128 395.382 421.318 394.52C421.398 394.151 420.848 394.745 420.338 395.215C419.818 395.701 419.337 396.096 419.175 395.963C419.151 395.924 419.652 394.748 420.19 394.478C418.104 395.352 419.784 393.91 421.578 390.776C422.011 390.011 422.356 389.181 422.556 388.491C422.383 388.813 421.762 389.785 421.109 390.434C420.459 391.066 419.877 391.401 419.865 391.365C419.86 391.317 420.212 390.887 420.672 390.117C421.498 388.93 422.181 386.463 422.078 385.574C422.058 385.13 421.993 385.065 421.855 385.59C421.709 386.082 421.44 387.351 420.532 388.796C421.255 387.032 421.52 384.584 421.128 382.965C421.074 382.714 421.012 382.479 420.948 382.259C421.019 382.183 421.097 382.076 421.174 381.95C421.372 381.631 421.545 381.18 421.522 381.051C421.473 380.72 421.094 381.46 420.826 381.872C420.772 381.716 420.714 381.567 420.657 381.428C420.779 381.212 420.884 381.004 420.91 380.975C421.232 380.615 421.409 380.555 421.516 380.64C421.624 380.72 421.671 380.886 421.769 380.802C421.792 380.694 422.475 379.771 422.612 376.645C422.858 373.356 420.577 369.283 420.142 368.575C417.595 365.671 415.292 364.691 414.491 364.12C413.672 363.639 413.413 363.394 414.577 363.899C415.171 364.224 415.929 364.403 418.232 366.297C418.549 366.58 418 366.471 418.454 366.838C421.367 369.651 418.929 366.108 417.462 364.973C417.769 365.156 418.148 365.404 418.517 365.673C417.649 363.721 418.291 365.285 417.101 364.222C416.738 363.913 416.85 363.627 416.709 363.508C416.521 363.353 415.784 363.053 415.319 362.709C415.239 362.649 415.17 362.588 415.108 362.525C414.719 362.136 414.519 361.614 413.579 361.249C412.382 360.806 412.173 361.486 412.076 361.468C411.724 361.416 410.615 360.986 409.719 360.63C408.806 360.265 408.05 359.919 407.784 359.75C408.052 360.089 408.338 360.43 408.623 360.771C407.505 360.695 407.896 359.987 407.274 359.699C404.063 358.683 402.275 357.867 402.412 356.857C402.414 356.436 402.426 356.186 402.451 356.034C402.457 356.085 402.464 356.173 402.467 356.315C402.629 356.462 402.936 356.328 403.461 356.977C403.266 356.618 403.072 356.34 402.904 356.117C402.998 356.072 403.117 356.019 403.264 355.966C403.812 355.77 404.443 355.546 404.818 355.318C405.202 355.092 405.349 354.843 405.392 354.706C405.427 354.59 405.453 354.493 405.473 354.417C405.474 354.347 405.477 354.269 405.482 354.19C405.39 354.333 405.188 354.793 405.17 354.809C405.126 354.84 405.205 354.592 405.242 354.434C405.211 354.443 405.18 354.435 405.147 354.414C405.065 354.528 404.982 354.694 404.914 354.734C404.858 354.764 404.866 354.498 404.802 354.51C404.835 354.606 404.866 354.714 404.864 354.734C404.816 355.148 404.697 355.076 404.644 354.883C404.559 355.084 404.454 355.268 404.375 355.154C404.367 355.12 404.387 354.525 404.4 354.49C404.489 354.311 404.755 354.253 404.947 354.184C404.89 354.101 404.827 354 404.755 353.891C404.491 353.472 404.09 352.922 403.959 352.839C403.611 352.626 402.822 354.859 402.658 353.608C402.587 353.117 403.382 352.764 403.365 352.703C403.273 352.419 401.884 352.685 401.481 352.387C401.279 352.225 401.612 351.816 401.557 351.78C399.772 350.686 396.387 350.204 393.736 349.899C393.547 349.297 395.023 349.532 395.454 349.588C398.693 349.904 401.646 351.674 403.544 351.708C401.383 350.414 397.229 349.002 393.183 348.618C391.956 348.471 390.617 348.396 389.217 348.421ZM396.122 415.001C396.13 415.002 396.139 415.004 396.147 415.005C396.145 414.997 396.144 414.988 396.142 414.981C396.135 414.99 396.13 414.999 396.122 415.001ZM396.043 414.988C396.064 414.991 396.085 414.995 396.104 414.998C396.082 414.988 396.054 414.954 396.023 414.887C396.03 414.922 396.037 414.956 396.043 414.988ZM395.943 413.146C395.85 413.391 396.194 413.73 396.194 414.201C396.156 414.123 395.712 413.158 396.142 414.981C396.253 414.827 396.204 413.775 396.105 413.682C396.202 413.483 396.143 413.309 395.943 413.146ZM395.943 414.577C395.858 413.971 395.535 414.103 395.555 414.451C395.586 414.667 395.89 414.534 395.943 414.577ZM394.58 413.672C394.344 413.65 394.081 413.75 394.336 414.041C394.369 414.071 394.835 414.115 394.85 414.09C395.035 413.843 394.816 413.694 394.58 413.672ZM401.878 411.854C401.341 411.823 400.406 411.916 400.354 411.956C400.089 412.181 401.217 412.525 401.884 412.267C401.977 412.213 402.053 412.132 402.098 412.019C402.125 411.919 402.027 411.871 401.878 411.854ZM392.711 411.588C392.727 411.561 393.027 411.516 393.003 411.672C392.883 412.165 392.568 411.788 392.711 411.588ZM398.264 411.331C397.771 410.863 399.813 410.835 399.518 411.469C399.237 411.498 398.367 411.439 398.264 411.331ZM358.378 399.521C358.194 399.719 357.994 399.878 357.781 399.938C357.874 400.032 357.948 400.078 358.001 400.079C358.118 400.084 358.173 399.929 358.3 399.849C358.361 399.805 358.439 399.778 358.496 399.726C358.507 399.714 358.516 399.701 358.524 399.686C358.473 399.629 358.425 399.572 358.378 399.521ZM387.892 397.102C387.936 397.09 388.068 397.288 388.223 397.533C388.029 397.562 387.976 397.679 388.028 398.051C388.092 398.041 388.229 398.105 388.591 398.094C388.828 398.423 389.02 398.588 388.98 398.06C389.02 398.055 389.063 398.05 389.107 398.043C389.365 398.432 389.643 398.423 389.961 398.268C389.838 398.502 390.128 398.77 390.151 399.034C390.211 399.299 389.725 399.659 388.924 399.591C388.748 399.57 388.6 399.056 388.58 399.041C388.418 399.02 388.673 399.533 388.585 399.531C388.052 399.5 387.921 399.102 388.089 399.103C387.864 398.424 387.725 397.149 387.892 397.102ZM357.99 399.13C357.661 398.833 357.458 398.765 357.295 398.878C357.247 398.902 357.204 398.938 357.164 398.98C357.235 399.132 357.312 399.279 357.388 399.405C357.427 399.469 357.466 399.529 357.503 399.584C357.58 399.536 357.769 399.356 357.99 399.13ZM359.388 398.331C359.507 398.352 359.581 398.389 359.622 398.436C359.853 398.703 358.859 399.667 358.506 399.37C358.549 399.318 358.594 399.267 358.634 399.213C358.954 398.794 359.162 398.285 359.388 398.331ZM389.949 398.979C389.76 399.059 389.47 398.889 389.381 399.151C389.487 399.512 389.97 399.357 389.949 398.979ZM395.496 398.005C395.842 397.674 396.494 397.833 396.424 398.732C395.965 397.718 395.459 398.087 395.547 399.181C395.148 398.961 395.422 398.082 395.496 398.005ZM357.199 396.007C357.27 395.296 357.772 396.436 358.149 397.146C358.538 397.888 358.787 398.292 359.066 397.801C359.038 397.748 359.01 397.695 358.983 397.642C359.066 397.762 359.1 397.835 359.091 397.89C359.07 397.961 358.593 398.498 358.162 398.951C358.165 398.801 358.033 398.486 357.816 397.99C357.558 397.399 357.155 396.428 357.199 396.007ZM394.903 397.679C394.849 397.794 394.79 397.91 394.725 398.02C394.275 398.679 393.525 399.145 393.155 398.394C393.21 398.327 393.265 398.258 393.319 398.19C393.378 398.188 393.443 398.181 393.51 398.17C393.595 398.154 393.711 398.126 393.848 398.086C394.175 397.994 394.562 397.846 394.903 397.679ZM392.408 396.97C392.813 396.993 393.277 397.02 393.74 397.048C393.388 397.346 393.05 397.605 392.76 397.776C392.693 397.816 392.624 397.852 392.56 397.888C392.59 397.919 392.623 397.948 392.657 397.976C392.603 398.009 392.538 398.045 392.454 398.075C392.459 398.028 392.462 397.983 392.465 397.941C392.056 398.161 391.718 398.288 391.461 398.311C391.412 398.311 391.392 398.071 391.305 397.86C391.264 397.853 391.231 397.823 391.213 397.756C391.214 397.75 391.222 397.737 391.232 397.718C391.193 397.663 391.145 397.616 391.086 397.587C391.181 397.541 391.28 397.5 391.381 397.469C391.411 397.419 391.442 397.366 391.47 397.312C391.667 397.226 391.87 397.13 392.076 397.027C392.168 397.046 392.242 397.047 392.276 397.022C392.299 397.004 392.316 396.984 392.333 396.966C392.357 396.968 392.383 396.969 392.408 396.97ZM391.085 397.587C391.155 397.784 391.189 397.976 390.992 398.095C390.889 397.986 390.786 397.892 390.689 397.811C390.815 397.73 390.947 397.652 391.085 397.587ZM396.893 397.044C397.106 397.246 397.676 397.42 398.624 397.387C398.68 397.769 398.477 398.079 397.882 397.933C397.882 397.934 397.882 397.936 397.882 397.937C397.686 397.881 397.741 397.387 397.534 397.339C396.992 397.236 395.309 397.427 396.893 397.044ZM392.465 397.941C392.497 397.924 392.528 397.906 392.56 397.888C392.531 397.858 392.504 397.825 392.477 397.795C392.475 397.84 392.47 397.889 392.465 397.941ZM391.955 397.415C391.754 397.392 391.562 397.415 391.381 397.469C391.318 397.575 391.26 397.668 391.232 397.718C391.261 397.761 391.285 397.81 391.305 397.86C391.449 397.882 391.713 397.608 391.955 397.415ZM392.477 397.795C392.512 397.068 392.251 397.178 391.955 397.415C391.986 397.418 392.019 397.422 392.05 397.428C392.215 397.456 392.329 397.623 392.477 397.795ZM399.49 397.176C399.908 397.52 399.233 398.148 398.74 397.527C398.847 397.545 398.986 397.447 399.111 397.343C399.225 397.327 399.341 397.308 399.46 397.284C399.492 397.253 399.5 397.216 399.49 397.176ZM390.54 397.69C390.536 397.687 390.531 397.683 390.527 397.68C390.544 397.675 390.563 397.669 390.581 397.664C390.567 397.672 390.553 397.681 390.54 397.69ZM400.347 397.048C400.395 397.043 400.67 397.471 400.693 397.595C400.748 397.927 400.153 397.081 400.347 397.048ZM400.764 397.436C400.834 397.619 401.061 397.667 400.783 397.564C400.771 397.506 400.759 397.452 400.749 397.403C400.754 397.414 400.759 397.426 400.764 397.436ZM391.085 397.587C391.029 397.559 390.964 397.545 390.885 397.553C390.939 397.533 390.993 397.511 391.048 397.489C391.061 397.521 391.073 397.554 391.085 397.587ZM359.919 396.633C360.154 396.324 360.546 396.738 360.65 397.023C360.756 397.314 360.655 397.602 360.228 397.513C360.21 397.507 360.153 397.337 360.079 397.126C360.005 396.915 359.912 396.659 359.919 396.633ZM390.421 395.745C390.467 395.688 390.539 395.728 390.527 395.781C390.48 395.929 390.28 396.244 390.267 396.335C390.253 396.407 390.315 396.385 390.419 396.363C390.516 396.34 390.652 396.317 390.665 396.335C390.675 396.376 390.489 396.671 390.421 396.804C390.384 396.774 390.346 396.761 390.324 396.764C390.258 397.017 390.307 397.236 390.377 397.324C390.291 397.351 390.203 397.373 390.116 397.395C390.063 397.358 390.021 397.326 389.993 397.296C389.853 397.152 390.012 397.063 390.401 396.684C390.329 396.69 390.108 396.78 390.072 396.814C390.035 396.842 390.079 396.805 390.159 396.532C390.156 396.546 390.156 396.55 390.163 396.535C390.274 396.272 390.308 396.125 390.31 396.082C390.358 395.899 390.381 395.79 390.421 395.745ZM390.513 396.923C390.616 396.938 390.788 396.939 391.036 396.938C390.98 396.973 390.953 397.019 390.944 397.073C390.818 397.15 390.676 397.216 390.526 397.272C390.533 397.251 390.539 397.226 390.544 397.198C390.56 397.083 390.544 396.991 390.513 396.923ZM390.73 396.4C390.735 396.427 390.782 396.496 390.839 396.578C390.724 396.745 390.602 396.831 390.602 396.7C390.603 396.674 390.659 396.542 390.73 396.4ZM396.859 396.612C397.306 396.282 397.726 396.322 398.044 396.522C397.459 396.47 397.077 396.551 396.904 396.682C396.89 396.659 396.873 396.635 396.859 396.612ZM396.047 396.269C396.243 396.263 396.447 396.32 396.588 396.641C396.404 396.616 395.98 396.667 395.805 396.439C395.887 396.389 395.968 396.331 396.047 396.269ZM393.76 395.993C394.262 396.565 393.525 396.572 393.003 396.52C393.291 396.342 393.553 396.157 393.76 395.993ZM391.034 396.006C391.039 396.088 391.021 396.176 390.994 396.262C390.874 396.317 390.785 396.358 390.736 396.387C390.836 396.189 390.966 395.974 391.034 396.006ZM391.252 395.385C391.59 395.393 392.072 395.565 392.102 395.622C392.129 395.686 392.134 395.741 392.122 395.785C391.984 395.841 391.854 395.891 391.742 395.93C391.71 395.945 391.677 395.959 391.646 395.972C391.533 395.976 391.412 395.973 391.298 395.965C390.858 395.934 390.599 395.897 390.551 395.958C390.675 395.535 390.897 395.374 391.252 395.385ZM354.243 394.286C354.586 394.844 354.855 395.178 355.002 395.291C355.017 395.536 354.987 395.736 354.903 395.898C354.774 395.536 354.542 395.02 354.243 394.286ZM392.435 395.497C392.495 395.516 392.523 395.561 392.529 395.619C392.437 395.656 392.346 395.693 392.258 395.729C392.333 395.635 392.401 395.551 392.435 395.497ZM397.14 395.627C397.029 395.737 396.948 395.722 396.882 395.642C396.969 395.631 397.055 395.626 397.14 395.627ZM422.582 393.374C421.835 393.557 421.246 395.306 421.342 395.235C421.455 395.164 421.87 394.771 422.229 394.301C422.584 393.84 422.867 393.316 422.582 393.374ZM392.071 393.538C392.401 393.318 392.105 393.938 392.185 393.937C392.294 393.932 392.286 393.583 392.537 393.605C393.029 393.65 394.037 393.778 395.127 393.924C394.806 394.25 394.563 394.503 394.422 394.686C394.062 394.705 393.745 394.688 393.586 394.603C393.703 394.773 393.763 394.898 393.782 394.992C393.661 394.876 393.59 394.775 393.56 394.771C393.102 394.719 393.414 395.107 393.361 395.104C392.756 395.051 392.372 394.649 391.925 394.63C391.793 394.627 391.741 395.125 391.611 395.156C391.514 395.175 391.477 394.545 391.524 394.479C391.665 394.27 391.844 394.531 391.932 394.456C392.058 394.33 391.913 393.644 392.071 393.538ZM355.213 391.487C355.869 392.982 356.539 394.145 357.031 394.913C356.773 394.94 356.406 394.961 355.549 394.066C355.431 393.292 355.311 392.432 355.213 391.487ZM396.992 394.182C396.969 394.347 396.913 394.535 396.763 394.751C396.711 394.741 396.659 394.732 396.608 394.724C396.423 394.528 396.022 394.522 395.591 394.563C395.768 394.415 395.956 394.246 396.147 394.064C396.434 394.104 396.719 394.144 396.992 394.182ZM355.64 389.021C356.216 391.218 356.576 391.996 356.785 392.466C356.997 392.91 357.082 392.935 357.169 392.923C357.326 392.842 357.56 392.831 358.532 394.408C358.002 395.726 356.052 393.089 355.64 389.021ZM424.879 388.319C425.709 377.261 424.695 387.756 423.135 390.144C422.984 390.547 423.259 390.251 423.542 389.85C423.82 389.464 424.108 388.91 424.057 389.095C423.854 389.842 423.33 390.805 422.694 391.589C421.277 393.303 419.889 393.757 420.487 394.25C420.669 394.442 422.001 392.65 420.722 394.747C421.452 393.503 421.88 394.082 422.431 393.112C422.633 392.726 422.105 392.932 422.881 391.727C423.178 391.247 423.633 390.59 424.203 389.35C424.24 389.22 423.922 391.001 424.879 388.319ZM351.914 383.627C351.995 383.602 352.075 383.66 352.141 383.743C352.169 383.781 352.197 383.83 352.224 383.884C352.227 384.041 352.236 384.221 352.253 384.42C352.301 384.398 352.35 384.376 352.397 384.353C352.501 384.709 352.57 385.088 352.569 385.208C352.557 385.673 352.525 385.969 352.483 386.146C352.757 387.745 353.247 389.794 353.953 391.801C354.275 392.739 354.549 393.498 354.738 394.109C354.393 393.448 353.702 392.206 353.015 390.52C352.944 390.353 352.874 390.179 352.806 390.004C352.477 388.692 352.242 387.359 352.097 386.156C351.999 386.017 351.92 385.903 351.904 386.116C351.863 386.281 352.03 387.243 352.238 388.344C351.839 387.049 351.56 385.847 351.478 385.368C351.49 385.203 351.503 385.052 351.517 384.916C351.603 384.76 351.766 384.653 351.95 384.561C351.929 384.228 351.917 383.914 351.914 383.627ZM391.215 393.261C391.089 394.054 391.031 394.014 391.017 393.917C391.121 393.57 391.204 393.215 391.215 393.261ZM407.264 391.232C407.371 391.201 407.517 391.533 407.442 391.686C407.441 391.71 407.256 391.475 407.264 391.232ZM407.55 390.909C407.569 391.011 407.555 391.416 407.559 391.495C407.546 391.764 407.548 391.334 407.55 390.909ZM407.125 391.194C407.172 391.297 407.199 391.396 407.199 391.477C407.144 391.413 407.081 391.347 407.01 391.28C407.049 391.232 407.087 391.206 407.125 391.194ZM406.38 390.549C406.512 390.574 406.687 390.672 406.818 390.789C406.863 390.828 406.906 390.871 406.944 390.915C406.883 390.969 406.811 391.014 406.741 391.048C406.59 390.927 406.412 390.794 406.202 390.65C406.262 390.615 406.323 390.582 406.38 390.549ZM424.879 388.319C424.879 388.32 424.879 388.322 424.879 388.324C424.88 388.321 424.881 388.317 424.881 388.315C424.881 388.316 424.88 388.318 424.879 388.319ZM428.295 384.302C428.031 382.836 428.16 384.198 428.087 385.754C428.023 387.312 427.678 388.971 428.098 387.615C428.206 387.489 428.387 384.4 428.295 384.302ZM406.248 386.294C406.246 386.586 406.243 386.83 406.242 387.014C406.112 386.977 405.998 386.952 405.937 386.98C405.847 387.025 405.859 387.252 405.856 387.409C405.855 387.552 405.844 387.659 405.769 387.67C405.734 387.648 405.696 387.627 405.66 387.605C405.589 387.537 405.472 387.413 405.326 387.234C405.257 387.154 405.183 387.057 405.107 386.958C405.361 386.968 405.493 386.798 405.685 386.631C405.734 386.632 405.586 386.588 405.862 386.474C406.12 386.249 405.871 386.466 405.956 386.362C406.03 386.285 406.097 386.22 406.155 386.163C406.169 386.189 406.202 386.236 406.248 386.294ZM406.625 386.695C406.854 386.899 407.047 386.996 407.057 387.08C407.062 387.136 406.874 387.158 406.624 387.114C406.569 387.106 406.51 387.09 406.451 387.074C406.478 386.942 406.508 386.786 406.538 386.611C406.567 386.639 406.595 386.67 406.625 386.695ZM423.201 383.872C423.067 382.92 422.871 382.451 422.933 383.255C422.937 383.324 423.084 384.171 423.079 385.115C423.087 386.057 422.926 386.999 423.006 386.981C423.209 386.343 423.35 384.825 423.201 383.872ZM416.691 377.907C416.736 377.904 416.901 378.109 417.09 378.363C417.198 378.505 417.314 378.669 417.407 378.775C417.407 378.783 417.407 378.793 417.407 378.801C417.411 378.798 417.414 378.793 417.419 378.79C417.441 378.815 417.464 378.837 417.483 378.853C417.472 378.864 417.459 378.873 417.446 378.884C417.433 378.885 417.42 378.886 417.411 378.886C417.411 378.895 417.41 378.904 417.411 378.913C417.347 378.966 417.271 379.025 417.202 379.074C417.257 379.122 417.301 379.202 417.275 379.287C417.32 379.19 417.366 379.163 417.416 379.162C417.416 379.409 417.41 379.627 417.401 379.811C417.405 379.813 417.41 379.814 417.414 379.816C417.547 379.88 417.621 380.057 417.456 380.185C417.431 380.159 417.408 380.135 417.387 380.115C417.385 380.156 417.384 380.196 417.382 380.231C417.381 380.232 417.38 380.233 417.378 380.234C417.363 380.237 417.264 380.191 417.181 380.148C417.153 380.204 417.125 380.254 417.101 380.243C417.042 380.208 416.895 380.115 416.733 380.033C416.618 380.202 416.502 380.307 416.44 380.35C416.343 380.275 416.417 380.171 416.548 379.988C416.555 379.978 416.562 379.967 416.569 379.957C416.488 379.924 416.408 379.899 416.338 379.892C416.078 379.866 415.851 379.92 415.852 380.264C415.835 380.611 416.942 380.898 417.052 382.005C416.643 381.227 416.526 381.308 416.461 381.372C416.401 381.458 416.409 381.674 416.342 381.621C416.219 381.516 416.093 381.23 415.872 381.131C415.701 381.055 415.529 381.152 415.428 381.103C415.024 380.904 414.549 380.552 415.414 380.813C415.105 380.439 415.027 380.544 414.926 380.657C414.834 380.78 414.799 381.028 414.737 381.113C414.678 381.186 414.703 380.962 414.464 381.15C414.444 381.165 414.631 381.262 414.551 381.318C414.462 381.373 414.407 381.199 414.198 381.33C414.177 381.341 414.056 381.647 414.074 381.68C414.268 381.909 414.425 381.537 414.555 381.498C415.368 381.262 415.344 381.718 415.627 381.723C415.702 381.712 415.298 381.376 415.732 381.309C415.873 381.878 416.063 381.961 416.299 382.01C416.418 382.042 416.553 382.077 416.708 382.253C416.854 382.437 417.069 382.733 417.169 383.585C416.997 383.096 416.596 382.498 416.248 382.229C415.897 381.942 415.603 381.857 415.473 381.93C415.934 382.19 415.713 382.106 415.929 382.713C415.073 382.19 415.709 382.69 415.519 382.709C414.685 382.785 414.452 382.165 414.632 382.93C414.539 382.788 414.444 382.665 414.352 382.553C414.301 382.714 414.245 382.877 414.18 383.037C413.843 382.748 413.841 381.495 413.25 382.125C413.239 382.14 413.372 382.271 413.365 382.294C413.328 382.354 413 382.317 413.152 382.479C413.229 382.584 414.306 382.589 414.14 383.442C412.938 383.837 413.389 383.385 412.875 382.916C412.611 382.674 412.742 383.145 412.714 383.188C412.394 383.583 412.532 383.132 412.123 383.939C412.082 384.005 411.883 384.036 411.866 384.069C411.865 384.111 411.956 384.31 411.78 384.461C411.747 384.47 411.701 384.483 411.641 384.504C411.694 384.415 411.644 384.367 411.603 384.407C411.547 384.443 411.456 384.535 411.366 384.54C411.221 384.546 411.682 384.19 410.993 384.688C411.096 384.903 410.75 384.902 410.628 385.004C410.566 385.056 410.472 385.164 410.342 385.23C410.202 385.28 410.14 385.457 409.96 385.33C409.886 385.434 409.855 385.489 409.845 385.515C409.654 385.558 409.478 385.745 409.407 385.789C409.298 385.874 408.987 385.911 408.945 385.983C408.937 386.005 409.057 386.008 409.108 385.996C409.161 385.986 409.152 385.978 408.969 386.103C408.968 386.109 408.871 386.017 408.706 385.578C408.52 385.607 408.451 386.052 408.382 386.279C408.316 386.522 408.221 386.603 408.187 386.626C408.07 386.732 407.842 386.634 407.795 386.605C407.771 386.626 407.696 386.997 407.425 386.893C407.254 386.796 407.517 386.651 407.739 386.536C407.952 386.396 408.147 386.368 407.716 386.075C407.66 386.039 407.674 386.333 407.552 386.311C407.355 386.287 406.97 386.076 406.643 385.846C406.646 385.824 406.65 385.801 406.652 385.779C406.779 385.671 407.025 385.474 407.036 385.329C406.993 385.653 406.983 385.392 407.224 385.243C407.426 385.068 407.783 384.951 407.871 384.638C407.865 384.666 407.86 384.691 407.855 384.712C408.178 384.547 407.853 384.686 408.157 384.449C408.346 384.321 408.473 384.288 408.628 384.136C408.635 384.132 408.555 384.144 408.581 384.104C409.019 383.432 408.803 383.957 409.06 383.793C409.106 383.77 409.145 383.66 409.237 383.603C409.366 383.534 409.743 383.343 409.763 383.323C409.775 383.317 409.705 383.292 409.757 383.23C409.843 383.14 410.075 383.063 410.151 382.912C410.161 382.899 409.939 382.79 409.981 382.699C410.08 382.53 410.512 382.488 410.556 382.428C410.637 382.318 410.4 382.404 410.587 382.193C410.621 382.175 410.912 382.304 411.107 382.199C411.641 381.963 411.195 381.277 412.106 381.739C411.752 381.373 412.297 381.475 412.444 381.267C412.44 381.256 412.288 381.199 412.293 381.191C412.954 379.838 412.753 380.867 413.023 380.678C413.183 380.563 413.352 379.488 413.394 379.432C413.442 379.358 413.48 379.553 413.554 379.524C413.606 379.502 413.699 379.246 413.757 379.246C413.793 379.239 414.12 379.759 414.161 379.798C414.206 379.82 414.182 379.512 414.367 379.473C414.615 379.416 414.921 379.634 414.978 379.586C415.031 379.522 415.013 378.949 415.054 378.934C415.094 378.919 415.243 379.073 415.403 379.252C415.562 379.426 415.728 379.632 415.761 379.537C415.765 379.507 415.688 379.33 415.632 379.124C415.664 379.135 415.69 379.087 415.709 378.954C415.72 378.889 415.695 378.727 415.644 378.524C415.782 378.394 416.098 378.754 416.134 378.778C416.246 378.7 416.534 377.927 416.691 377.907ZM403.698 386.11C403.969 386.34 404.268 386.578 404.517 386.732C404.512 386.771 404.507 386.81 404.5 386.845C404.474 386.828 404.447 386.81 404.42 386.792C404.414 386.751 404.406 386.709 404.395 386.671C404.36 386.676 404.326 386.688 404.294 386.704C404.142 386.597 403.978 386.474 403.802 386.331C403.768 386.265 403.733 386.192 403.698 386.11ZM351.95 384.561C351.98 385.053 352.029 385.591 352.097 386.156C352.225 386.337 352.384 386.558 352.483 386.146C352.369 385.482 352.292 384.894 352.253 384.42C352.151 384.465 352.048 384.512 351.95 384.561ZM407.031 384.9C407.056 384.906 407.086 385.086 407.061 385.2C407.037 385.316 406.976 385.413 406.889 385.383C406.817 385.368 406.868 384.895 407.031 384.9ZM397.461 382.878C396.612 380.914 396.486 378.833 396.937 380.45C396.959 380.521 397.212 381.607 397.634 382.61C398.052 383.637 398.58 384.497 398.627 384.588C399.469 386.119 398.304 384.83 397.461 382.878ZM411.601 384.558C411.608 384.551 411.613 384.543 411.619 384.536C411.646 384.529 411.673 384.521 411.7 384.512C411.671 384.528 411.639 384.545 411.601 384.558ZM412.148 384.245C412.31 384.228 412.029 384.375 411.935 384.419C411.89 384.444 411.894 384.439 411.866 384.441C411.967 384.388 412.062 384.321 412.148 384.245ZM352.885 380.272C352.983 380.476 353.142 380.524 353.376 380.465C353.121 380.677 352.997 381.029 352.94 381.011C352.95 382.088 353.029 383.123 353.156 384.108C353.013 383.222 352.932 382.565 352.823 382.292C352.799 382.234 352.773 382.189 352.745 382.163C352.723 381.828 352.701 381.445 352.687 381.018C352.672 381.063 352.597 380.826 352.516 380.221C352.608 380.234 352.738 380.254 352.885 380.272ZM403.787 380.47C403.733 381.418 403.434 383.025 403.214 383.514C403.23 382.859 403.325 381.986 403.569 381.152C403.636 380.913 403.711 380.685 403.787 380.47ZM413.014 382.69C412.846 383.007 413.583 383.507 413.819 383.208C414.126 382.711 413.523 383.217 413.493 383.215C413.324 383.135 413.245 382.728 413.014 382.69ZM420.655 381.433C420.633 381.745 420.619 381.986 420.628 382.148C420.446 382.381 420.449 382.243 420.448 382.209C420.437 382.156 420.347 382.144 420.28 382.106C420.329 382.436 420.368 382.801 420.387 383.202C420.274 382.788 420.152 382.423 420.029 382.1C420.057 382.118 420.089 382.124 420.129 382.106C420.155 382.096 420.185 382.075 420.218 382.046C420.211 382.03 420.205 382.011 420.205 381.989C420.207 381.986 420.23 381.993 420.259 382.003C420.26 382.001 420.262 382 420.263 381.999C420.264 382 420.264 382.003 420.264 382.005C420.325 382.025 420.412 382.044 420.419 381.963C420.424 381.911 420.424 381.857 420.424 381.801C420.466 381.743 420.511 381.677 420.554 381.606C420.589 381.551 420.622 381.491 420.655 381.433ZM400.216 375.922C400.208 375.945 400.2 375.968 400.191 375.988C400.16 376.054 399.885 375.273 399.639 375.908C399.62 375.993 399.565 376.971 399.723 378.543C399.843 380.094 400.551 382.061 400.614 382.32C400.628 382.403 400.619 382.434 400.593 382.434C399.909 381.068 399.421 379.393 399.395 378.025C399.347 376.752 399.517 375.822 399.708 375.169C399.855 375.389 400.024 375.64 400.216 375.922ZM402.249 380.157C402.288 380.253 402.338 380.346 402.4 380.413C402.595 380.619 402.766 380.756 402.908 380.792C402.529 380.705 402.327 381.264 401.937 382.421C401.931 381.642 402.057 380.868 402.249 380.157ZM422.25 380.592C422.1 381.387 421.5 381.85 421.465 381.949C421.36 382.252 421.394 382.32 421.461 382.354C421.53 382.38 421.643 382.342 421.772 382.212C422.018 381.997 422.4 381.135 422.25 380.592ZM404.431 376.589C405.301 379.877 405.153 381.83 405.044 382.129C404.842 382.354 404.921 381.787 404.223 379.38C404.404 378.973 404.56 378.65 404.641 378.428C404.689 378.263 404.693 378.147 404.634 378.093C404.566 378.034 404.478 378.088 404.374 378.234C404.276 378.342 404.165 378.536 404.047 378.791C403.908 378.334 403.742 377.82 403.548 377.248C403.663 377.069 403.769 376.917 403.863 376.789C403.948 376.815 403.998 376.758 404.003 376.603C404.13 376.441 404.225 376.327 404.288 376.254C404.335 376.363 404.384 376.475 404.431 376.589ZM420.218 382.046C420.232 382.072 420.254 382.091 420.28 382.106C420.275 382.072 420.27 382.038 420.264 382.005C420.263 382.004 420.261 382.003 420.259 382.003C420.245 382.018 420.232 382.033 420.218 382.046ZM419.826 381.908C419.695 382.009 419.658 381.948 419.689 381.933C419.738 381.911 419.785 381.901 419.826 381.908ZM419.704 381.356C419.852 381.134 419.996 380.866 419.998 381.338C420.032 381.303 420.068 381.266 420.107 381.229C420.129 381.318 420.151 381.411 420.171 381.506C420.081 381.637 419.99 381.753 419.919 381.822C419.898 381.772 419.874 381.724 419.853 381.676C419.751 381.834 419.63 381.974 419.606 381.928C419.579 381.908 419.64 381.762 419.8 381.558C419.768 381.489 419.736 381.421 419.704 381.356ZM417.493 375.395C417.552 375.384 417.615 375.414 417.683 375.478C417.667 375.587 417.787 375.878 418.032 376.303C418.299 376.856 418.518 377.429 418.714 377.85C418.771 377.766 418.746 377.431 418.628 376.996C418.775 377.242 418.938 377.503 419.118 377.765C419.037 377.391 418.958 377.055 418.889 376.747C418.988 376.594 419.111 376.82 419.253 377.099C419.394 377.375 419.553 377.716 419.685 377.593C419.687 377.579 419.68 377.526 419.672 377.449C419.956 378.419 420.03 379.236 419.994 379.48C419.892 380.212 419.702 379.668 419.544 379.426C419.54 379.421 419.535 379.416 419.532 379.412C419.508 379.521 419.445 379.659 419.329 379.817C419.318 379.974 419.307 380.166 419.295 380.376C419.354 380.424 419.416 380.498 419.476 380.607C419.408 380.624 419.347 380.643 419.295 380.662C419.291 380.655 419.286 380.647 419.282 380.64C419.281 380.649 419.279 380.658 419.279 380.667C419.183 380.704 419.115 380.744 419.07 380.786C419.137 380.871 419.202 380.963 419.262 381.061C419.251 381.476 419.296 381.525 419.348 381.589C419.396 381.629 419.45 381.622 419.512 381.577C419.61 381.835 419.612 381.94 419.558 381.896C419.488 381.843 419.327 381.6 419.139 381.365L419.138 381.363C419.095 381.371 419.009 381.364 418.858 381.333C418.864 381.263 418.875 381.177 418.891 381.074C418.792 380.965 418.695 380.868 418.608 380.791C418.672 380.688 418.742 380.583 418.816 380.498C418.862 380.544 418.908 380.594 418.953 380.645C418.964 380.555 418.975 380.456 418.984 380.35C419.002 380.339 419.021 380.329 419.04 380.322C419.023 380.303 419.006 380.284 418.99 380.265C418.998 380.158 419.004 380.042 419.008 379.919C418.9 379.932 418.797 379.936 418.767 379.923C418.766 379.957 418.764 379.992 418.762 380.024C418.438 379.708 418.148 379.53 417.943 379.353C417.639 379.665 418.167 379.881 418.722 380.406C418.695 380.58 418.657 380.705 418.603 380.764C418.599 380.768 418.593 380.771 418.589 380.774C418.423 380.627 418.298 380.55 418.271 380.578C418.264 380.584 418.26 380.593 418.256 380.601C418.206 380.554 418.157 380.511 418.115 380.486C418.042 380.443 417.989 380.471 417.982 380.621C417.981 380.665 417.983 380.723 417.991 380.787C417.912 380.692 417.836 380.597 417.763 380.518C417.687 380.432 417.613 380.356 417.551 380.29C417.586 380.174 417.621 380.01 417.647 379.799C417.673 379.623 417.679 379.403 417.675 379.19C417.901 379.13 417.41 378.964 418.189 378.956C417.954 378.914 417.785 378.897 417.664 378.889C417.648 378.629 417.622 378.422 417.607 378.388C417.35 377.685 417.369 377.984 417.397 378.528C417.36 378.478 417.32 378.425 417.285 378.374C417.147 378.172 417.045 377.979 417.153 377.847C417.212 377.764 417.643 378.219 417.934 378.059C418.624 377.597 417.819 375.952 417.493 375.395ZM403.449 379.731C403.561 379.646 403.646 379.53 403.704 379.661C403.476 380.313 403.254 381.1 403.088 381.863C403.166 381.382 403.246 380.987 403.201 380.961C403.128 380.878 403.053 380.829 402.981 380.806C403.382 380.799 403.543 380.018 403.449 379.731ZM419.998 381.338C419.921 381.417 419.854 381.49 419.8 381.558C419.818 381.596 419.836 381.637 419.853 381.676C419.932 381.554 420 381.421 419.999 381.353C419.999 381.349 419.998 381.343 419.998 381.338ZM418.555 381.179C418.614 381.206 418.684 381.25 418.766 381.313C418.753 381.31 418.738 381.308 418.723 381.304C418.829 381.457 418.945 381.582 419.071 381.675C418.67 381.566 418.373 381.438 418.328 381.28C418.321 381.259 418.319 381.238 418.321 381.22C418.329 381.211 418.338 381.202 418.346 381.192C418.342 381.188 418.338 381.183 418.335 381.178C418.344 381.165 418.358 381.155 418.376 381.149C418.393 381.125 418.413 381.099 418.431 381.07C418.44 381.057 418.448 381.041 418.458 381.027C418.493 381.079 418.528 381.132 418.555 381.179ZM420.695 379.298C420.723 379.705 420.723 380.583 420.67 381.219C420.665 381.29 420.659 381.359 420.655 381.424C420.595 381.28 420.534 381.142 420.47 381.014C420.451 381.051 420.432 381.091 420.41 381.13C420.409 381.081 420.407 381.03 420.408 380.978C420.418 380.971 420.429 380.963 420.439 380.956C420.43 380.937 420.419 380.917 420.41 380.899C420.419 380.477 420.477 379.958 420.695 379.298ZM418.891 381.074C418.972 381.163 419.058 381.259 419.138 381.363C419.31 381.331 418.802 381.032 419.07 380.786C419.032 380.737 418.992 380.69 418.953 380.645C418.932 380.813 418.91 380.955 418.891 381.074ZM418.376 381.149C418.365 381.164 418.356 381.179 418.346 381.192C418.421 381.269 418.485 381.326 418.534 381.344C418.647 381.382 418.623 381.298 418.555 381.179C418.474 381.142 418.414 381.136 418.376 381.149ZM416.214 381.13C416.166 380.947 415.765 380.714 415.79 380.934C415.791 380.96 416.1 381.215 416.214 381.13ZM420.439 380.956C420.449 380.975 420.461 380.995 420.47 381.014C420.496 380.966 420.521 380.921 420.539 380.88C420.504 380.905 420.471 380.932 420.439 380.956ZM419.04 380.322C419.12 380.417 419.2 380.524 419.282 380.64C419.287 380.55 419.291 380.461 419.295 380.376C419.207 380.303 419.122 380.292 419.04 380.322ZM415.445 380.345C415.441 380.297 415.212 380.262 415.175 380.301C414.927 380.461 415.392 380.56 415.445 380.345ZM352.462 380.313C352.377 380.349 352.298 380.385 352.227 380.419C352.269 380.333 352.314 380.273 352.36 380.233C352.393 380.258 352.427 380.286 352.462 380.313ZM415.943 365.711C416.207 365.855 416.81 366.176 417.855 367.048C418.86 367.897 420.529 369.584 421.537 372.167C422.566 374.751 422.437 377.241 422.223 378.439C422.001 379.703 421.771 380.18 421.724 380.283C421.694 380.326 421.423 380.178 421.431 380.071C421.434 379.964 421.638 379.479 421.837 378.245C422.032 377.066 422.131 374.646 421.147 372.174C420.185 369.701 418.626 368.067 417.69 367.198C416.713 366.305 416.162 365.925 415.943 365.711ZM417.401 379.811C417.252 379.745 417.046 379.818 417.065 380.076C417.066 380.085 417.119 380.116 417.181 380.148C417.215 380.081 417.252 380.006 417.273 380.012C417.286 380.018 417.327 380.055 417.387 380.115C417.392 380.027 417.395 379.925 417.401 379.811ZM415.935 379.955C415.925 379.928 415.764 379.905 415.665 379.985C415.632 380.027 415.915 380.09 415.935 379.955ZM416.925 379.325C416.872 379.516 416.697 379.78 416.569 379.957C416.624 379.979 416.679 380.006 416.733 380.033C416.748 380.01 416.767 379.987 416.782 379.962C416.908 379.755 417.011 379.45 416.925 379.325ZM402.494 379.987C402.666 379.511 402.818 379.608 402.96 379.674C402.986 379.69 403.014 379.705 403.04 379.719C402.859 379.784 402.676 379.873 402.494 379.987ZM418.756 379.919C418.757 379.922 418.762 379.922 418.767 379.923C418.769 379.878 418.769 379.829 418.77 379.781C418.761 379.825 418.756 379.872 418.756 379.919ZM419.317 379.139C419.22 379.171 419.107 379.247 419.009 379.349C419.016 379.555 419.014 379.745 419.008 379.919C419.144 379.901 419.289 379.872 419.309 379.846C419.316 379.837 419.322 379.826 419.329 379.817C419.339 379.672 419.349 379.555 419.362 379.48C419.395 379.272 419.457 379.301 419.532 379.412C419.58 379.19 419.472 379.081 419.317 379.139ZM354.961 378.255C355.178 377.56 355.526 377.06 355.734 377.828C355.827 378.157 355.655 378.796 355.451 379.225C355.245 379.662 354.995 379.927 354.89 379.838C354.68 379.661 354.742 378.957 354.961 378.255ZM418.925 378.326C418.717 378.274 418.794 378.962 418.779 379.56C418.778 379.634 418.774 379.707 418.772 379.776C418.807 379.611 418.9 379.463 419.009 379.349C419 379.047 418.976 378.708 418.926 378.331C418.926 378.329 418.926 378.327 418.925 378.326ZM417.093 379.029C417.011 379.028 417 379.181 417.019 379.19V379.189C417.03 379.191 417.108 379.14 417.202 379.074C417.165 379.043 417.123 379.025 417.093 379.029ZM397.075 373.61C397.536 372.469 397.743 372.526 397.888 372.579C397.897 372.599 397.931 372.695 397.933 372.804C397.801 372.981 397.569 373.399 397.226 374.41C396.478 376.155 396.904 380.491 396.519 378.404C396.358 378.004 396.532 374.636 397.075 373.61ZM417.407 378.801C417.376 378.829 417.352 378.861 417.348 378.873C417.353 378.891 417.364 378.89 417.411 378.886C417.41 378.858 417.408 378.829 417.407 378.801ZM418.096 378.569C417.947 378.497 417.845 378.522 417.756 378.584C417.655 378.654 417.72 378.659 417.904 378.72C418.082 378.772 418.387 378.89 418.513 378.861C418.438 378.806 418.24 378.633 418.096 378.569ZM405.159 378.588C405.145 378.673 405.129 378.738 405.11 378.776C405.101 378.642 405.083 378.472 405.056 378.276C405.09 378.379 405.126 378.483 405.159 378.588ZM399.444 374.867C399.323 375.33 399.254 375.695 399.205 375.869C399.155 376.05 399.118 376.076 399.074 376.098C399.03 376.122 398.977 376.141 398.907 376.349C398.842 376.568 398.729 376.945 398.726 377.944C398.663 375.362 398.986 375.31 399.444 374.867ZM404.921 374.63C405.118 375.744 405.203 376.923 405.205 377.744C405.043 377.022 404.838 376.232 404.57 375.401C404.535 375.295 404.498 375.19 404.462 375.088C404.535 374.989 404.728 374.802 404.921 374.63ZM402.927 375.538C403.085 375.827 403.237 376.074 403.373 376.271C403.42 376.471 403.447 376.619 403.449 376.697C403.455 376.747 403.44 376.793 403.409 376.834C403.305 376.534 403.192 376.218 403.072 375.886C403.025 375.77 402.976 375.653 402.927 375.538ZM415.994 375.954C415.913 376.14 415.878 376.38 415.9 376.599C415.804 376.445 415.733 376.266 415.704 376.179C415.786 376.111 415.889 376.027 415.994 375.954ZM366.784 352.694C367.256 352.22 365.709 352.121 364.38 352.774C362.72 353.621 364.582 353.398 363.399 354.251C358.729 357.217 351.961 365.718 351.17 372.154C351.116 371.762 351.072 371.354 351.038 370.936C350.281 373.132 350.448 373.623 350.644 374.129C350.865 374.602 351.16 375.128 351.254 376.579C352.497 371.528 353.072 368.077 355.919 363.176C357.098 361.118 360.058 358.597 360.288 358.387C360.394 358.263 360.062 358.323 360.183 357.895C360.297 357.494 360.935 356.44 362.822 354.841C364.143 353.698 366.704 352.774 366.784 352.694ZM416.029 376C416.241 375.869 416.204 376.237 416.312 376.476C416.048 376.536 416.035 376.132 416.029 376ZM416.563 375.552C416.524 375.292 416.682 375.264 416.666 375.396C416.668 375.389 416.673 375.382 416.678 375.375C416.652 375.404 417.38 375.217 417.126 376.394V376.393C417.104 376.238 417.079 376.127 417.057 376.054C417.082 375.931 417.029 375.776 416.895 375.734L416.894 375.733C416.876 375.736 416.796 375.952 416.644 375.898C416.607 375.781 416.572 375.652 416.563 375.552ZM416.802 376.207C416.793 376.221 416.785 376.229 416.778 376.224C416.773 376.221 416.765 376.21 416.756 376.194C416.772 376.199 416.788 376.203 416.802 376.207ZM422.989 369.39C421.736 367.128 420.497 366.094 420.458 366.338C421.308 367.203 422.575 368.847 423.43 370.876C424.303 372.882 424.573 374.852 424.769 375.729C424.739 374.737 424.289 371.634 422.989 369.39ZM418.627 375.38C418.668 375.392 418.7 375.39 418.726 375.383C418.731 375.39 418.736 375.399 418.741 375.406C418.709 375.405 418.671 375.398 418.627 375.38ZM417.603 374.158C417.07 372.803 417.95 373.016 418.258 373.873C418.267 373.846 418.28 373.823 418.298 373.808C418.325 373.777 418.373 373.777 418.42 373.795C418.418 373.848 418.426 373.899 418.435 373.926C418.385 373.92 418.327 373.916 418.273 373.919C418.283 373.95 418.294 373.984 418.302 374.017C418.407 373.975 418.529 373.951 418.473 374.129C418.444 374.231 418.401 374.29 418.353 374.32C418.358 374.389 418.362 374.461 418.359 374.534C418.357 374.548 418.347 374.56 418.333 374.571C418.402 374.528 418.503 374.535 418.665 374.736C418.635 374.753 418.61 374.771 418.59 374.789C418.501 374.71 418.392 374.687 418.279 374.77C418.297 374.903 418.489 375.323 418.587 375.37C418.261 375.196 417.894 374.795 417.878 374.514C417.862 374.504 417.845 374.493 417.83 374.481C417.746 374.56 417.718 374.687 417.728 374.827C417.737 374.99 417.798 375.179 417.744 375.198C417.707 375.207 417.645 375.049 417.608 374.918C417.569 374.783 417.557 374.676 417.527 374.682C417.471 374.696 417.264 374.988 417.246 375C417.234 374.999 417.202 374.909 417.209 374.844C417.213 374.776 417.26 374.738 417.288 374.717C417.32 374.691 417.556 374.476 417.579 374.458C417.63 374.415 417.682 374.396 417.74 374.401C417.683 374.338 417.634 374.257 417.603 374.158ZM416.962 375.121C416.956 375.133 416.806 375.24 416.726 375.315C416.785 375.255 416.876 375.181 416.962 375.117C416.962 375.118 416.962 375.12 416.962 375.121ZM416.856 375.109C416.898 375.103 416.924 375.147 416.784 375.202C416.78 375.202 416.776 375.204 416.773 375.205C416.785 375.181 416.816 375.113 416.856 375.109ZM418.316 374.579C418.259 374.608 418.153 374.617 418.036 374.584C418.101 374.647 418.158 374.706 418.176 374.714C418.213 374.731 418.248 374.632 418.316 374.579ZM417.878 374.514C417.929 374.546 417.984 374.569 418.036 374.584C417.986 374.536 417.93 374.485 417.879 374.454C417.877 374.473 417.876 374.494 417.878 374.514ZM417.83 374.481C417.842 374.469 417.857 374.459 417.873 374.449C417.824 374.417 417.78 374.404 417.74 374.401C417.767 374.432 417.799 374.458 417.83 374.481ZM417.873 374.449L417.876 374.451C417.877 374.451 417.878 374.453 417.879 374.454C417.88 374.45 417.881 374.446 417.881 374.443C417.879 374.445 417.875 374.447 417.873 374.449ZM418.237 374.044C418.236 374.086 418.237 374.121 418.232 374.133C418.147 374.357 418.045 374.211 418.065 374.077C417.972 374.098 417.908 374.163 417.812 374.255C417.871 374.225 417.942 374.24 418.047 374.287C418.148 374.33 418.262 374.376 418.353 374.32C418.345 374.214 418.327 374.112 418.302 374.017C418.279 374.026 418.256 374.034 418.237 374.044ZM418.25 373.921C418.171 373.929 418.103 373.954 418.084 374.019C418.075 374.037 418.068 374.057 418.065 374.077C418.097 374.07 418.134 374.066 418.176 374.071C418.181 374.071 418.205 374.059 418.237 374.044C418.238 374.006 418.243 373.961 418.25 373.921ZM400.378 373.703C400.494 373.621 400.614 373.671 400.602 374.003C400.537 373.951 400.471 373.9 400.403 373.853C400.41 373.792 400.409 373.739 400.402 373.709C400.394 373.705 400.385 373.705 400.378 373.703ZM418.539 373.881C418.555 373.904 418.564 373.927 418.559 373.948C418.546 373.945 418.524 373.942 418.499 373.937C418.512 373.925 418.527 373.906 418.539 373.881ZM418.25 373.921C418.257 373.92 418.265 373.919 418.273 373.919C418.268 373.904 418.264 373.887 418.258 373.873C418.254 373.887 418.252 373.904 418.25 373.921ZM402.375 373.262C402.132 373.242 401.954 373.339 402.134 373.877C401.918 373.468 401.694 373.075 401.465 372.707C401.755 372.704 401.946 372.63 402.06 372.51C402.169 372.757 402.274 373.01 402.375 373.262ZM406.006 373.466C406.067 373.48 406.182 373.551 406.311 373.87C406.215 373.702 406.176 373.875 406.006 373.466ZM418.905 373.44C419.189 373.308 418.97 373.683 418.783 373.751C418.635 373.678 418.787 373.502 418.905 373.44ZM399.728 373.422C400.05 373.436 400.118 373.506 400.145 373.567C400.155 373.59 400.151 373.638 400.148 373.691C399.966 373.585 399.784 373.501 399.617 373.445C399.65 373.434 399.687 373.425 399.728 373.422ZM418.666 373.538C418.737 373.34 418.912 373.304 418.863 373.405C418.822 373.477 418.742 373.514 418.663 373.546C418.664 373.543 418.665 373.54 418.666 373.538ZM405.877 372.916C405.908 372.96 405.946 373.033 405.997 373.159C405.946 373.091 405.909 373.13 405.837 373.044C405.849 372.981 405.861 372.935 405.877 372.916ZM398.309 372.576C398.619 372.279 398.765 372.354 398.813 372.494C398.862 372.636 398.8 372.824 398.794 372.88C398.697 372.859 398.54 372.761 398.31 372.577L398.309 372.576ZM405.949 372.876C405.931 372.854 405.912 372.816 405.892 372.771C405.864 372.683 405.842 372.607 405.827 372.555C405.848 372.618 405.885 372.723 405.949 372.876ZM397.631 369.976C397.609 370.141 397.523 370.32 397.553 370.362C397.58 370.388 397.884 370.314 398.165 370.276C398.338 370.38 398.498 370.486 398.619 370.588C398.379 370.976 397.175 370.807 397.015 370.6C396.974 370.525 397.239 370.082 397.317 369.803C397.413 369.857 397.52 369.916 397.631 369.976ZM395.848 369.468C396.356 369.559 396.1 371.213 395.488 370.198C395.398 370.05 395.647 369.434 395.848 369.468ZM403.128 370.166C403.208 370.162 403.31 370.234 403.425 370.375C403.289 370.334 403.111 370.262 403.012 370.214C403.042 370.188 403.079 370.17 403.128 370.166ZM392.25 369.465C392.811 369.533 393.405 369.614 394.023 369.716C393.566 370.243 392.939 369.972 392.698 369.799H392.7C392.487 369.647 392.208 369.787 392.25 369.465ZM394.687 368.606C395.341 369.075 395.597 370.648 394.936 369.347C394.861 369.207 394.685 369.155 394.635 368.983C394.619 368.925 394.615 368.851 394.637 368.756C394.648 368.712 394.665 368.662 394.687 368.606ZM401.022 365.84C401.107 365.814 401.46 366.24 401.999 367.153C402.398 367.817 402.836 368.764 402.957 369.171C402.943 369.182 402.937 369.201 402.942 369.227C402.944 369.238 402.959 369.261 402.985 369.294C402.992 369.342 402.988 369.368 402.968 369.369C402.949 369.37 402.883 369.291 402.785 369.165C402.817 369.19 402.845 369.211 402.849 369.21C402.897 368.984 402.508 368.64 402.648 368.989C402.47 368.756 402.236 368.448 401.993 368.163C401.816 367.953 401.637 367.76 401.467 367.588C401.586 367.486 401.394 367.052 401.208 366.773C401.148 366.684 401.086 366.611 401.031 366.554C400.98 366.36 400.951 366.199 400.935 366.063C400.962 365.947 400.975 365.852 401.022 365.84ZM386.242 368.594C386.27 368.662 386.306 368.73 386.35 368.795C386.431 369.369 386.357 369.258 386.295 369.057C386.286 368.976 386.267 368.81 386.242 368.594ZM396.588 368.827C396.674 368.858 396.762 368.882 396.849 368.902C396.761 368.91 396.671 368.882 396.588 368.827ZM386.029 366.704C386.058 366.801 386.146 367.287 386.189 367.37C386.204 367.397 386.175 366.932 386.22 367.011C386.348 367.245 386.143 367.999 386.48 368.208C386.561 368.342 386.649 368.48 386.746 368.617C386.742 368.619 386.738 368.622 386.734 368.624C386.601 368.695 386.497 368.715 386.484 368.705C386.374 368.607 386.247 367.798 386.244 367.971C386.253 368.134 386.369 368.559 386.242 368.588C386.217 368.373 386.187 368.11 386.156 367.836C386.2 367.985 386.223 367.988 386.208 367.756C386.202 367.722 386.12 367.332 386.065 367.032C386.052 366.918 386.04 366.807 386.029 366.704ZM412.772 368.566C412.395 368.245 412.295 367.497 412.924 368.172C412.945 368.195 412.967 368.221 412.99 368.248C413.011 368.272 413.07 368.699 413.041 368.705C412.938 368.684 412.848 368.632 412.772 368.566ZM397.436 368.055C397.6 367.836 397.744 368.215 397.808 368.507C397.665 368.436 397.524 368.36 397.391 368.283C397.381 368.198 397.392 368.117 397.436 368.055ZM398.695 367.991C398.916 368.151 399.109 368.322 399.241 368.49C399.193 368.47 399.147 368.443 399.106 368.41C398.906 368.249 398.78 368.1 398.695 367.991ZM390.863 367.475C390.471 367.137 391.5 366.765 391.688 366.95C391.957 367.245 391.184 367.766 390.863 367.475ZM387.679 365.319C387.991 365.478 388.393 365.697 388.514 365.577C388.561 365.53 388.587 365.482 388.599 365.433C388.651 365.761 388.743 366.382 388.517 366.45C388.334 366.504 387.998 365.911 387.679 365.319ZM390.623 366.02C390.235 365.39 391.818 365.702 391.949 365.75C393.732 366.459 390.675 366.206 390.623 366.02ZM394.552 365.797C394.76 365.935 394.738 366.03 394.261 366.068C394.255 365.938 394.385 365.847 394.552 365.797ZM385.816 364.56C385.844 364.609 385.877 364.643 385.914 364.664C386.017 364.723 386.17 364.683 386.189 364.688C386.197 364.697 386.241 364.855 386.288 365.007C386.236 365.056 386.194 365.13 386.167 365.239C386.107 365.476 386.192 365.714 386.253 365.763C386.294 365.794 386.326 365.796 386.352 365.779C386.315 365.872 386.277 365.948 386.235 365.962C386.109 366.002 386.018 365.955 385.956 365.911C385.963 365.74 386.053 365.696 386.056 365.664C386.049 365.343 385.835 365.202 385.833 365.158C385.823 365.125 385.818 364.843 385.816 364.56ZM386.468 365.2C386.614 365.206 386.846 365.656 387.128 365.651C387.146 365.651 387.163 365.644 387.177 365.632C387.151 366.499 386.578 365.347 386.544 365.339C386.512 365.35 386.479 365.434 386.443 365.537C386.464 365.378 386.462 365.204 386.468 365.2ZM411.525 365.309C411.629 365.044 412.489 365.64 412.874 365.779C412.726 366.01 411.843 365.374 411.525 365.309ZM406.158 365.212C406.174 365.199 406.523 365.31 406.548 365.336C406.852 365.825 405.855 365.509 406.158 365.212ZM392.061 364.951C392.196 364.954 393.035 365.221 393.245 365.209L393.248 365.211C392.896 365.593 392.039 365.556 391.904 365.284C392.055 365.262 392.129 365.169 392.061 364.951ZM390.279 364.842C390.437 364.875 390.729 364.989 391.032 365.094C391.002 365.355 390.862 365.482 390.375 365.093C390.351 365.072 390.322 364.969 390.279 364.842ZM388.586 365.229C388.501 364.953 388.251 364.742 389.246 364.904C389.234 364.978 389.216 365.046 389.174 365.095C389.049 365.241 388.659 365.181 388.586 365.229ZM386.695 364.212C386.733 364.206 387.129 364.15 387.549 364.21C387.967 364.268 388.336 364.437 387.985 364.768C387.832 364.916 387.673 364.989 387.516 365.02C387.319 364.653 387.141 364.33 387.026 364.222C387.08 364.543 387.116 364.81 387.141 365.029C386.862 364.994 386.608 364.897 386.424 364.937C386.409 364.739 386.38 364.53 386.388 364.52C386.404 364.505 386.445 364.527 386.499 364.562C386.55 364.618 386.599 364.654 386.641 364.66C386.856 364.811 387.104 364.958 386.965 364.413C386.93 364.399 386.857 364.379 386.766 364.353C386.73 364.276 386.684 364.214 386.695 364.212ZM413.091 364.168C412.594 363.871 412.261 363.575 413.088 363.842C413.252 363.89 414.154 364.481 414.187 364.536C414.336 364.851 413.586 364.461 413.091 364.168ZM391.478 364.016C392.173 363.869 392.34 364.125 392.385 364.39C392.124 364.349 391.883 364.315 391.681 364.287C391.621 364.203 391.554 364.113 391.478 364.016ZM388.251 364.283C387.856 363.747 389.131 363.606 388.699 364.234C388.676 364.257 388.265 364.302 388.251 364.283ZM385.828 363.944C385.907 363.771 386.06 363.963 386.22 364.191C386.208 364.187 386.194 364.182 386.182 364.178C386.022 364.128 385.898 364.082 385.822 364.06C385.824 363.993 385.824 363.949 385.828 363.944ZM412.862 362.252C413.959 362.515 413.998 363.094 414.062 363.13C414.96 363.636 414.664 363.015 414.707 363.024C414.77 363.05 414.831 363.075 414.886 363.099C415.918 363.583 415.504 363.655 414.735 363.488C413.847 363.289 412.689 363.012 412.283 362.435C412.273 362.403 412.646 362.202 412.862 362.252ZM411.687 362.621C411.723 362.378 413.345 363.173 413.461 363.267C413.913 363.603 413.476 363.433 412.931 363.201C412.391 362.968 411.783 362.703 411.687 362.621ZM385.224 362.273C385.194 362.14 385.265 362.12 385.334 362.519C385.32 362.739 385.251 362.481 385.224 362.273ZM385.13 361.699C385.106 361.631 385.117 361.401 385.217 361.912C385.179 361.987 385.209 362.214 385.13 361.699ZM407.696 360.743C407.735 360.649 409.665 361.272 409.025 361.493C408.93 361.502 407.729 361.005 407.696 360.743ZM407.993 358.958C407.691 358.547 406.819 358.559 407.109 358.923C407.136 358.965 408.112 359.456 407.993 358.958ZM403.07 355.496C402.934 355.624 402.823 355.758 402.732 355.892C402.698 355.849 402.667 355.806 402.636 355.767C402.734 355.733 402.873 355.698 403.07 355.496ZM405.01 355.774C405.219 355.356 404.957 355.469 404.805 355.619C404.739 355.955 404.991 355.841 405.01 355.774ZM371.6 354.214C372.748 354.12 370.643 355.247 369.622 355.592C369.5 355.463 369.993 355.072 370.504 354.761C371.004 354.453 371.508 354.225 371.6 354.214ZM404.149 353.741C404.608 352.964 404.302 354.795 404.218 354.885C404.133 354.974 403.801 355.068 403.349 355.183C402.92 355.288 402.627 355.44 402.491 355.568C402.354 355.369 402.309 355.226 402.42 355.061C402.46 354.98 402.528 354.576 402.57 354.539C402.591 354.531 402.565 354.986 402.809 354.829C402.929 354.742 403.365 354.107 403.417 354.165C403.445 354.222 403.345 354.813 403.373 354.858C403.374 354.86 403.379 354.86 403.385 354.859C403.492 354.834 404.125 354.469 404.157 354.406C404.211 354.286 404.093 353.842 404.149 353.741ZM404.734 354.355C404.602 354.472 404.6 354.721 404.644 354.883C404.718 354.71 404.778 354.524 404.791 354.511C404.794 354.509 404.799 354.511 404.802 354.51C404.774 354.427 404.745 354.352 404.734 354.355ZM405.658 353.783C405.623 353.811 405.584 353.832 405.544 353.844C405.506 353.949 405.489 354.071 405.482 354.19C405.536 354.107 405.55 354.131 405.473 354.417C405.472 354.483 405.471 354.543 405.465 354.591C405.484 354.529 405.513 354.444 405.556 354.336C405.57 354.3 405.645 354.146 405.662 353.99C405.672 353.916 405.667 353.839 405.658 353.783ZM405.391 353.623C405.292 353.803 405.193 354.016 405.126 354.087C405.088 354.126 405.023 354.157 404.947 354.184C405.022 354.294 405.088 354.375 405.147 354.414C405.18 354.368 405.213 354.328 405.245 354.311C405.269 354.298 405.26 354.355 405.242 354.434C405.278 354.424 405.313 354.392 405.349 354.335C405.523 354.051 405.504 353.85 405.393 353.627C405.393 353.625 405.392 353.624 405.391 353.623ZM380.437 353.959C380.175 354.054 379.541 352.797 380.254 353.364C380.278 353.382 380.535 353.92 380.437 353.959ZM405.2 352.881C405.061 353.147 405.286 353.402 405.391 353.623C405.481 353.46 405.571 353.323 405.642 353.343C405.718 353.369 405.535 353.826 405.533 353.848C405.537 353.847 405.541 353.846 405.544 353.844C405.565 353.788 405.589 353.733 405.626 353.69C405.634 353.683 405.648 353.723 405.658 353.783C405.946 353.549 406.021 352.837 405.2 352.881ZM380.306 353.142C380.326 353.116 380.818 353.352 380.99 353.213C380.994 354.243 380.162 353.448 380.306 353.142ZM381.935 351.706C382.389 351.988 382.307 353.135 381.839 352.797C381.788 352.749 381.604 351.742 381.935 351.706ZM379.51 351.731C379.387 351.439 379.911 351.176 379.991 351.639C380.068 352.013 379.563 351.826 379.51 351.731ZM391.53 350.709C390.734 350.179 392.624 349.839 392.586 350.481C392.582 350.688 391.727 350.836 391.53 350.709ZM378.442 349.673C378.273 349.753 378.13 349.829 378.021 349.894C378.122 350.103 378.197 350.47 378.378 350.593C378.342 350.515 378.3 350.427 378.253 350.332C378.31 350.435 378.366 350.528 378.415 350.613C378.458 350.633 378.507 350.641 378.563 350.63C378.595 350.618 378.617 350.057 378.499 349.649C378.48 349.658 378.46 349.665 378.442 349.673ZM379.634 349.159C379.546 349.536 379.087 349.592 378.797 349.631C378.952 350.502 379.263 351.234 379.927 349.518C379.947 349.459 379.856 349.247 379.796 349.08C379.748 349.104 379.694 349.132 379.634 349.159ZM402.238 350.395C401.911 350.323 400.988 349.62 400.835 350.005C401.24 350.068 402.098 350.774 402.238 350.395ZM380.703 348.613C380.629 348.581 380.571 348.917 380.383 348.904C380.462 349.277 380.465 349.636 380.261 349.576C380.454 349.816 380.632 350.061 380.797 350.306C380.421 348.805 380.934 349.875 381.059 349.838C381.421 349.715 381.416 349.384 381.335 349.024C381.257 349.044 381.19 349.065 381.14 349.091C381.07 348.979 381.057 348.887 381.086 348.81C381.021 348.776 380.908 348.714 380.703 348.613ZM378.266 348.838C378.217 348.749 378.201 348.83 378.079 348.871C377.35 349.122 377.312 349.25 377.375 349.351C377.449 349.451 377.594 349.561 377.624 349.687C377.628 349.697 377.632 349.708 377.635 349.718C377.702 349.717 377.764 349.722 377.818 349.731C377.915 349.631 378.061 349.484 378.275 349.275C378.128 349.178 377.916 349.227 377.617 349.555C377.359 348.815 378.066 349.212 378.26 348.969C378.265 348.961 378.265 348.91 378.266 348.838ZM378.641 348.399C378.287 347.787 378.272 348.521 378.266 348.838C378.292 348.886 378.329 348.983 378.393 349.157C378.351 349.198 378.312 349.238 378.275 349.275C378.378 349.343 378.45 349.484 378.499 349.649C378.569 349.616 378.645 349.584 378.72 349.55C378.717 349.578 378.718 349.609 378.729 349.641C378.75 349.638 378.774 349.635 378.797 349.631C378.791 349.596 378.786 349.56 378.78 349.524C379.08 349.394 379.397 349.266 379.634 349.159C379.644 349.116 379.651 349.067 379.65 349.015C379.43 349.16 378.929 349.252 378.768 349.444C378.693 348.952 378.661 348.469 378.641 348.399ZM381.318 348.612C381.228 348.16 381.136 347.705 381.138 348.095C381.125 348.245 381.178 348.445 381.237 348.655C381.164 348.699 381.11 348.748 381.086 348.81C381.157 348.847 381.174 348.85 381.197 348.832C381.215 348.812 381.232 348.772 381.262 348.752C381.288 348.842 381.314 348.934 381.335 349.024C381.356 349.019 381.378 349.012 381.401 349.007C381.385 348.933 381.366 348.848 381.348 348.758C381.365 348.79 381.399 348.89 381.431 349.003C381.439 349.001 381.447 349 381.455 348.999C381.471 349.071 381.484 349.126 381.485 349.14C381.485 349.159 381.484 349.177 381.484 349.191C381.547 349.418 381.583 349.544 381.475 348.995C382.197 348.856 383.533 348.843 383.209 348.229C382.794 348.388 381.873 348.404 381.386 348.584C381.394 348.314 381.328 348.418 381.37 348.59C381.352 348.597 381.334 348.605 381.318 348.612ZM381.401 349.007C381.449 349.231 381.481 349.357 381.484 349.191C381.467 349.132 381.449 349.065 381.431 349.003C381.421 349.005 381.411 349.005 381.401 349.007ZM380.007 348.904C379.897 348.876 379.768 348.84 379.751 348.878C379.74 348.912 379.764 348.99 379.796 349.08C379.925 349.014 380.007 348.96 380.007 348.919C380.008 348.914 380.007 348.908 380.007 348.904ZM380.865 347.547C380.835 347.388 380.552 347.473 379.932 347.737C379.374 347.963 378.951 348.219 378.932 348.292C378.789 349.004 380.037 348.096 380.007 348.904C380.091 348.925 380.165 348.94 380.173 348.912C380.178 348.896 380.171 348.862 380.159 348.819C380.183 348.831 380.21 348.843 380.241 348.854C380.267 348.866 380.295 348.879 380.326 348.891C380.346 348.899 380.366 348.903 380.383 348.904C380.344 348.72 380.285 348.533 380.225 348.392C380.195 348.417 380.162 348.44 380.133 348.466C380.105 348.492 380.083 348.518 380.064 348.543C380.017 348.412 379.973 348.286 379.986 348.241C380.035 348.068 380.133 348.177 380.225 348.392C380.558 348.113 380.95 347.894 380.865 347.547ZM381.394 348.71C381.39 348.709 381.384 348.706 381.378 348.706C381.38 348.687 381.381 348.668 381.382 348.651C381.386 348.67 381.39 348.69 381.394 348.71ZM380.836 348.07C380.589 348.575 381.354 349.083 381.079 348.272C381.069 348.23 380.855 348.049 380.836 348.07ZM381.095 347.109C381.082 346.913 380.706 346.512 380.846 347.348C380.851 347.26 381.002 347.383 381.08 347.442C381.16 347.5 381.181 347.491 381.095 347.109ZM387.822 346.625C387.748 346.599 386.578 346.681 386.515 346.717C385.542 347.344 388.889 347.099 387.822 346.625ZM393.122 346.605C392.845 346.626 392.61 346.712 392.477 346.915C392.653 346.926 392.886 346.958 393.133 346.989C393.84 347.066 394.666 347.161 394.945 346.824C394.41 346.758 393.69 346.564 393.122 346.605ZM824.863 333.974C827.174 332.856 818.33 343.385 816.948 344.125C816.459 344.63 822.018 335.932 824.863 333.974ZM829.511 319.723C835.827 308.41 835.961 268.497 834.893 311.191C831.736 322.167 832.96 315.076 832.845 315.638C829.809 323.687 827.336 326.933 826.203 329.058C824.343 332.259 825.598 331.512 824.611 333.112C821.264 338.121 820.488 336.459 814.792 343.405C824.324 331.648 815.28 342.116 814.542 341.793C812.602 341.119 819.498 336.473 825.489 328.557C828.923 324.087 831.652 318.436 832.514 314.755C832.694 314.013 831.809 316.293 830.823 318.152C829.827 320.058 828.886 321.437 829.511 319.723ZM834.893 311.199C834.893 311.197 834.893 311.193 834.893 311.191C834.895 311.184 834.898 311.175 834.9 311.168C834.898 311.177 834.895 311.189 834.893 311.199ZM843.193 300.456C843.205 294.911 842.56 290.016 843.523 295.248C843.822 295.598 843.679 306.584 843.35 307.042C842.271 311.967 843.211 305.997 843.193 300.456ZM829.517 291.456C829.046 287.925 829.792 290.074 830.386 294.106C831.034 298.115 830.731 304.313 830.102 307.018C829.892 307.133 830.426 303.207 830.294 299.324C830.219 295.414 829.548 291.747 829.517 291.456ZM37.8843 290.888C38.3786 292.156 38.6726 292.823 38.7261 293.264C38.91 293.107 39.0575 292.945 39.1714 292.776C38.7984 292.291 38.3471 291.626 37.8843 290.888ZM44.2496 291.55C44.4649 291.641 44.4049 291.153 43.9918 291.339C44.0737 291.455 44.1803 291.536 44.2496 291.55ZM44.6724 290.322C44.3251 290.424 44.1162 290.557 43.9996 290.694C44.3051 290.572 44.5449 290.448 44.7662 290.447C44.7805 290.445 44.796 290.444 44.8101 290.443C44.7678 290.406 44.72 290.365 44.6724 290.322ZM48.0338 289.121C46.932 289.621 45.7451 290.177 45.4283 290.441C45.8647 290.858 46.9658 289.96 48.0338 289.121ZM38.0494 273.922C36.8534 271.91 34.7308 269.204 34.3394 270.31C34.399 270.581 36.5038 274.371 37.1714 275.446C36.2864 275.347 35.5091 275.305 35.4156 275.273C34.8655 275.082 34.6553 274.653 34.6509 276.633C34.6469 277.135 34.6895 277.859 34.7828 278.735C34.7874 278.734 34.7928 278.735 34.7974 278.734C34.7945 278.748 34.7895 278.763 34.7867 278.777C35.0073 280.824 35.5113 283.7 36.3785 286.583C36.8796 286.91 37.6886 287.633 38.6548 288.597C38.5111 288.203 38.3496 287.772 38.1744 287.301C36.8655 283.707 35.9229 280.535 35.5904 278.654C35.6982 278.646 35.8083 278.64 35.9175 278.632C35.8272 278.555 35.7325 278.477 35.6363 278.4C35.6032 278.373 35.5704 278.349 35.5396 278.328C35.4368 277.641 35.4298 277.166 35.5416 276.962C35.835 276.265 36.1054 276.035 36.3336 275.922C36.5626 275.821 36.7586 275.855 36.9361 275.985C37.2945 276.238 37.5733 277.007 38.0406 278.348C38.0548 278.392 38.0717 278.436 38.0865 278.48C38.4801 278.437 38.827 278.375 39.0953 278.284C39.0171 277.707 38.9926 277.125 39.0435 276.655C39.0712 276.314 39.1254 276.046 39.1998 275.85C39.1169 275.818 39.0286 275.787 38.9361 275.76C38.7842 275.277 38.4625 274.62 38.0494 273.922ZM34.7974 278.734C34.9002 278.246 35.1055 278.028 35.5396 278.328C35.5551 278.431 35.5705 278.541 35.5904 278.654C35.3178 278.675 35.0507 278.701 34.7974 278.734ZM37.1714 275.446C37.4777 275.48 37.7976 275.522 38.106 275.572C38.3967 275.637 38.6828 275.689 38.9361 275.76C39.2264 276.685 38.8918 276.977 37.3648 275.727C37.3437 275.715 37.2751 275.613 37.1714 275.446ZM41.2271 275.591C41.1902 275.471 41.0747 275.634 40.9595 276.189C41.0137 276.212 41.0696 276.235 41.1265 276.253C41.2279 276.076 41.2665 275.707 41.2271 275.591ZM7.23297 182.354C7.52712 181.832 7.17323 189.142 7.43414 195.956C7.65378 202.925 8.1775 208.866 8.30914 211.43C8.4959 217.254 9.04887 220.827 9.05622 221.484C9.14829 223.654 5.50007 223.261 5.5152 225.587C5.48038 226.178 7.44102 235.383 10.3765 242.658C13.2492 250.111 16.4712 255.761 16.9732 257.123C17.2764 257.923 17.4872 258.541 17.6256 258.981C17.3373 257.246 19.5114 260.912 21.4625 264.239C23.4328 267.639 25.128 270.758 24.4849 270.916C24.0308 271.29 18.2153 261.229 17.9879 260.375C17.9203 260.175 17.877 259.99 17.8267 259.825C17.9924 261.283 12.2635 252.834 7.59625 239.078C2.69337 225.616 2.10417 207.68 1.52497 217.069C1.25845 214.875 1.13237 213.057 1.0777 211.595C0.799132 208.624 4.11437 213.124 3.07672 209.529C2.71563 207.842 -1.55233 207.716 0.606996 196.233C0.607223 196.223 0.607827 196.211 0.607973 196.201C1.28789 192.673 2.19848 196.726 2.56891 196.077C2.66771 195.975 5.17497 184.388 5.12555 194.027C5.45436 207.21 2.01744 195.509 1.95954 202.146C1.94432 203.063 3.67404 210.433 4.48102 211.518C4.65459 212.811 4.80297 213.413 4.86383 213.076C4.87415 213.018 4.83587 212.426 4.78961 211.511C4.68651 210.884 4.40467 209.258 4.55426 208.888C5.27857 207.141 6.57228 207.94 6.62946 207.696C6.70774 207.285 6.07294 203.319 5.84137 197.521C5.5714 191.864 6.05339 184.257 7.23297 182.354ZM799.775 262.949C798.018 260 802.814 265.882 803.97 267.972C803.793 268.331 800.053 263.373 799.775 262.949ZM16.9859 238.441C18.7758 251.712 26.6595 263.68 27.3511 259.058C23.3491 252.174 22.9283 252.368 22.4703 252.51C22.0523 252.221 21.2192 252.837 16.9859 238.441ZM795.943 244.568C796.42 244.41 804.741 255.041 806.489 257.258C804.992 256.196 795.028 244.51 795.943 244.568ZM788.602 237.474C788.496 237.153 790.361 237.059 791.615 239.251C796.066 246.481 790.763 241.591 804.722 256.195C798.36 250.19 803.741 256.297 802.307 255.27C801.151 254.421 798.314 250.445 799.514 253.089C797.51 249.544 788.402 237.895 788.593 237.461C788.596 237.465 788.599 237.47 788.602 237.474ZM786.698 245.035C786.687 244.829 790.766 250.085 791.205 250.783C793.253 254.436 786.545 246.342 786.698 245.035ZM788.3 244.766C788.451 244.435 791.806 248.828 792.093 249.256C793.727 251.996 789.239 246.52 788.3 244.766ZM759.885 190.719C759.644 190.459 759.617 192.834 758.097 191.326C760.333 193.988 774.233 211.602 775.335 212.824C776.027 213.548 772.42 206.808 779.044 216.499C779.046 216.502 779.05 216.507 779.053 216.51C775.206 208.204 766.796 201.708 766.194 200.827C765.547 199.92 767.311 200.668 767.173 200.454C766.678 199.865 759.987 190.992 759.885 190.719ZM764.822 202.753C767.197 205.711 770.906 210.75 772.865 212.037C770.241 208.807 766.657 203.859 764.822 202.753ZM750.696 182.45C751.22 185.375 752.45 186.832 753.25 187.482C754.097 188.169 754.714 188.228 755.23 189.181C756.736 191.883 755.319 192.765 754.49 192.526C756.587 194.091 764.249 203.878 769.689 210.007C765.438 204.264 759.219 195.471 756.607 190.676C755.826 189.304 754.687 188.314 754.154 187.214C753.334 185.466 754.717 186.603 754.678 186.472C754.677 186.47 754.675 186.466 754.673 186.463C753.909 184.121 751.318 182.139 753.36 186.828C752.284 185.277 751.386 183.798 750.696 182.45ZM762.702 187.286C763.197 187.743 772.77 200.369 773.437 201.239C774.769 203.626 771.676 200.016 768.609 196.025C765.478 191.994 762.861 187.751 762.702 187.286ZM774.175 200.978C773.328 200.214 763.837 187.864 766.472 189.65C767.655 190.479 777.236 204.072 774.175 200.978ZM753.914 192.623C752.651 188.703 750.506 191.868 750.641 192.382C751.193 194.459 756.825 199.749 758.13 200.795C750.716 191.937 754.701 194.531 753.914 192.623ZM16.0611 188.905C15.076 181.819 12.5349 197.99 13.7984 199.896C14.3165 201.218 16.4058 192.229 16.0611 188.905ZM760.267 193.189C758.292 189.605 764.339 198.031 764.7 198.461C766.05 201.101 761.042 194.755 760.267 193.189ZM752.409 196.523C751.732 193.052 747.655 192.546 750.919 196.223C751.077 196.399 752.432 196.679 752.409 196.523ZM767.124 196.175C763.93 191.684 758.4 184.344 761.675 186.676C763.299 187.829 763.306 189.571 763.443 189.805C764.713 192.009 768.477 196.73 767.124 196.175ZM763.456 187.016C763.423 186.168 765.237 186.871 765.67 188.637C765.87 189.405 764.523 188.719 763.456 187.016ZM746.462 180.91C746.215 179.329 745.475 182.337 746.231 183.581C746.525 184.226 746.882 184.763 747.199 184.97C747.032 184.586 746.829 184.016 746.655 183.415C746.45 182.537 746.53 181.326 746.462 180.91ZM764.378 156.605C764.142 152.318 762.085 157.709 759.728 162.865C757.31 168.16 755.267 172.957 753.561 173.439C755.499 168.945 756.468 166.744 756.199 166.827C755.981 166.849 754.82 168.774 753.86 170.723C751.94 174.668 750.952 178.349 755.226 173.243C752.476 177.948 752.868 178.012 753.213 178.024C753.641 177.935 754.591 177.135 754.676 177.745C754.757 178.404 754.433 179.49 754.347 179.963C754.267 180.397 754.27 180.471 754.595 180.435C754.558 180.457 754.497 180.475 754.412 180.49C754.157 180.543 753.983 180.569 753.876 180.593C754.212 182.54 756.202 185.185 755.908 184.026C755.797 183.628 755.039 181.63 754.657 180.427C754.695 180.422 754.737 180.418 754.783 180.411H754.784C754.956 180.35 755.194 178.409 756.438 175.224C753.031 177.682 756.197 171.354 759.587 168.842C759.71 167.475 759.87 166.033 760.05 164.52C763.834 163.36 759.878 160.926 764.378 156.605ZM53.2466 91.067C58.8654 87.5148 65.5644 85.942 63.0631 88.0504C62.5285 88.4253 51.2216 94.4165 45.856 99.5016C30.271 114.655 35.9724 113.039 35.0445 113.749C34.1123 114.655 23.7134 125.639 19.8531 133.328C10.369 151.921 8.47845 163.123 4.6568 184.185C4.82346 171.594 0.675797 178.504 4.82575 162.64C4.85154 164.117 4.90838 165.569 4.99274 166.989C7.78134 143.709 28.1529 112.113 48.4107 96.9313C53.4288 92.9162 46.1957 95.6629 53.2466 91.067ZM751.613 176.928C751.311 177.349 750.758 179.623 750.821 180.445C750.851 181.322 751.068 181.452 751.444 180.929C751.48 180.876 751.459 180.424 751.545 179.355C751.617 178.33 751.896 176.773 751.613 176.928ZM754.657 180.427C754.636 180.43 754.616 180.432 754.597 180.434C754.621 180.42 754.637 180.404 754.643 180.387C754.647 180.4 754.653 180.414 754.657 180.427ZM757.022 179.94C757.222 179.924 757.384 179.953 757.439 180.08C757.469 180.129 757.377 180.177 757.213 180.078C757.159 180.047 757.094 179.997 757.022 179.94ZM765.633 165.219C767.831 160.599 770.164 154.885 769.92 156.93C769.817 158.495 765.696 167.306 762.867 172.825C761.444 175.678 760.449 177.883 759.961 178.967C759.466 180.083 759.314 180.107 759.22 180.078C758.217 180.033 759.347 179.197 760.61 176.223C760.966 175.369 760.342 175.405 760.381 175.314C761.086 173.695 761.146 175.124 761.631 174.098C761.759 173.791 763.394 169.994 765.633 165.219ZM757.022 179.94C756.894 179.95 756.748 179.978 756.605 180.01C756.575 179.855 756.549 179.701 756.533 179.555C756.706 179.68 756.879 179.828 757.022 179.94ZM772.416 153.956C772.335 159.549 764.592 172.577 768.42 162.81C768.785 161.855 771.416 157.828 772.416 153.956ZM758.572 151.256C757.603 154.431 753.95 161.088 754.162 162.165C755.261 160.175 758.716 152.971 758.572 151.256ZM758.244 157.651C760.706 154.053 758.7 152.205 757.54 156.993C757.495 157.175 758.138 157.773 758.244 157.651ZM764.869 152.054C768.006 145.469 764.128 148.19 763.185 153.023C763.127 153.309 764.72 152.35 764.869 152.054ZM750.777 89.8033C752.601 91.7266 767.732 100.942 772.628 121.411C776.365 141.15 770.198 150.896 770.575 151.854C770.471 152.385 771.097 152.963 771.212 152.731C771.056 151.765 777.413 141.991 773.66 121.71C768.651 100.562 752.832 91.3796 750.777 89.8033ZM769.775 99.6432C769.758 98.778 774.67 104.475 777.868 113.38C781.235 122.306 781.197 132.136 781.024 135.467C780.769 132.49 780.776 126.179 778.864 118.794C777.042 111.366 773.078 103.949 769.775 99.6432ZM764.967 127.894C765.368 122.739 761.197 118.112 763.029 125.706C763.415 127.931 764.894 128.411 764.967 127.894ZM736.435 79.2965C734.442 78.524 734.666 78.7557 736.31 79.6061C739.651 81.5599 752.921 87.15 763.492 99.0807C763.315 98.8562 763.131 98.6234 762.944 98.3824C760.963 96.3246 763.154 97.6205 761.687 96.0533C745.79 81.2037 739.398 81.0638 736.435 79.2965ZM75.147 92.6754C80.3373 89.8279 87.4712 86.0351 82.6539 87.4391C82.0989 87.5942 77.6093 89.89 74.7125 91.9186C73.3637 92.8701 72.4706 93.6721 72.7388 93.8658C73.3624 93.6025 74.2035 93.1774 75.147 92.6754ZM732.16 89.9332C731.556 89.7591 731.555 90.001 731.957 90.4381C732.785 91.2979 734.99 92.8688 737.356 93.8512C737.554 93.9097 736.322 92.2543 736.128 92.1266C734.107 90.7553 732.795 90.1231 732.16 89.9332ZM731.395 83.8375C728.373 82.6054 720.561 79.3967 719.955 80.0358C722.825 80.6737 730.673 84.2335 731.395 83.8375ZM730.399 78.2779C721.672 75.4053 730.371 79.0027 735.587 81.4039C737.923 82.4508 739.502 83.1203 738.688 82.3404C738.603 82.268 737.378 81.5715 735.836 80.7848C733.775 79.7153 731.167 78.5449 730.399 78.2779ZM727.003 73.2389C725.365 72.7637 722.725 72.8187 722.885 72.9293C725.867 74.6798 731.718 76.5838 736.763 78.4791C744.294 81.3451 750.222 83.4325 740.046 78.4645C739.732 78.3443 742.216 80.62 736.92 78.0895C736.683 77.9794 736.427 77.8608 736.157 77.733C735.672 77.5532 735.008 75.6205 727.003 73.2389ZM732.335 77.1647C731.624 76.6116 718.7 71.9392 718.355 72.6305C720.041 72.9005 739.251 80.4877 732.335 77.1647ZM660.113 76.4069C659.841 76.3456 654.025 76.2381 653.758 76.2906C648.467 77.2312 664.905 77.5107 660.113 76.4069ZM152.279 66.9606C151.951 65.7841 144.616 67.5868 145.741 68.1881C146.147 68.3739 152.572 67.8945 152.279 66.9606ZM692.591 66.9401C699.495 66.7006 678.098 64.0955 677.169 64.4977C677.775 65.112 691.829 66.8484 692.591 66.9401ZM669.99 59.8121C666.451 58.8869 677.246 58.813 680.579 59.9762C682.1 61.2575 670.379 59.8719 669.99 59.8121ZM528.447 51.6783C527.607 51.2478 528.929 46.6925 532.116 49.4C532.543 49.7525 530.176 50.4535 530.498 50.8336C530.65 51.0297 535.694 52.7127 537.852 53.2213C538.349 53.3468 538.691 53.4188 538.764 53.4117C539.165 53.3605 538.869 51.771 539.277 51.6754C539.697 51.5864 544.542 53.768 547.393 54.1285C552.679 54.823 553.4 53.6044 553.829 53.6549C555.138 53.7811 557.359 54.8652 560.132 55.0699C573.956 56.1958 597.829 55.2786 611.121 57.568C599.494 56.6794 588.935 57.7482 578.315 57.8385C581.236 55.4711 563.006 59.245 573.652 56.7487C570.125 57.1418 548.517 56.4555 537.755 54.0778C532.948 53.1376 529.3 52.081 528.457 51.6803C528.454 51.6796 528.45 51.6791 528.447 51.6783ZM175.886 54.1393C176.265 54.0239 181.572 53.7042 181.754 53.7789C185.634 55.33 167.963 56.6511 175.886 54.1393ZM242.878 49.1442C241.015 50.1807 236.127 51.4764 235.714 52.7106C237.755 51.8113 244.315 50.8277 242.878 49.1442ZM178.898 51.7916C177.7 49.7909 189.385 49.0027 190.239 49.3463C194.074 50.7248 179.91 51.1804 178.898 51.7916ZM515.905 50.4381C514.119 49.5422 505.646 46.5428 508.66 48.6666C509.161 49.0311 515.568 51.2868 515.905 50.4381ZM490.937 36.9567C484.394 36.2379 509.083 47.6038 503.169 42.8395C502.843 42.5814 491.656 37.1171 490.937 36.9567ZM233.198 40.6647C246.012 35.0991 254.586 31.5801 253.403 32.9723C252.538 34.0654 243.115 39.3463 232.044 42.1754C231.509 40.8949 231.6 41.3367 233.198 40.6647ZM271.345 36.8336C265.438 37.3893 267.362 40.4705 271.002 38.7545C272.304 38.1436 271.536 36.8172 271.345 36.8336ZM476.758 34.3961C473.203 34.0405 482.927 39.5019 480.727 36.6735C480.608 36.5421 476.972 34.4216 476.758 34.3961ZM279.221 33.5494C277.271 34.6174 273.042 35.4351 272.759 35.6354C269.996 37.5945 276.297 37.5731 279.221 33.5494ZM290.622 25.6227C288.023 26.4588 287.236 29.6477 287.556 29.6549C290.632 29.6811 293.535 25.6031 290.622 25.6227ZM278.634 21.4596C277.468 23.3975 272.173 25.2326 268.905 26.5709C269.034 25.4741 276.079 22.7676 278.634 21.4596ZM305.153 12.3072C306.822 13.9056 293.599 16.5849 289.655 18.4664C287.794 16.885 300.626 13.8831 305.153 12.3072ZM430.587 12.2252C431.325 11.2894 439.29 14.4088 442.133 15.149C441.453 16.0176 433.686 12.8074 430.587 12.2252ZM369.144 10.1383C369.545 8.41037 355.13 10.098 360.932 11.1266C362.353 11.3513 369.06 10.6593 369.144 10.1383ZM337.068 2.71057C343.813 3.06529 321.432 6.6917 328.393 4.09826C328.766 3.92737 336.649 2.67029 337.068 2.71057ZM374.106 0.0406447C378.045 -0.141453 382.955 0.334543 386.629 0.555293C384.743 1.3799 379.055 1.1163 374.139 1.03479C372.253 0.994339 370.511 0.96432 369.196 0.981074C370.233 0.413055 371.999 0.134872 374.106 0.0406447Z" fill="white"/>
</svg>
