<svg width="342" height="693" viewBox="0 0 342 693" fill="none" xmlns="http://www.w3.org/2000/svg">
<path d="M65.0419 0.62918C154.888 -0.728507 243.131 0.488077 332 0.792266L339.942 0.695587L340.04 8.83231C339.969 29.5361 339.948 50.2744 340.02 71.0745C340.026 72.2055 340.489 71.7135 340.51 72.1946C340.626 75.1905 339.904 78.1336 339.874 79.2415C339.813 81.6075 340.48 80.3055 340.48 82.0335C340.473 99.9001 340.081 116.761 340.195 134.642C340.203 135.806 339.668 134.618 339.763 136.662C339.814 137.718 340.633 141.023 340.645 143.406C340.688 151.728 340.426 158.719 340.438 167.495C340.446 172.296 340.376 179.498 340.389 184.866C340.394 187.236 340.768 189.705 340.78 192.047C340.798 195.37 340.039 194.693 339.991 195.203C339.785 197.447 340.619 197.758 340.6 199.888C340.56 203.85 340.003 204.064 340.05 209.091C340.085 212.684 340.524 220.908 340.653 225.439C340.008 236.034 340.264 249.385 340.477 259.27C340.604 265.12 339.825 265.663 339.827 268.049C339.842 276.455 340.838 282.835 340.87 290.731C340.912 301.209 340.254 310.497 340.207 320.649C340.199 322.295 340.913 321.918 340.932 323.533C340.999 329.512 341.128 337.158 341.026 342.484C340.914 348.419 339.879 350.609 340.09 356.416C340.152 358.119 341.061 358.619 341.178 361.472C341.361 366.03 340.56 371.029 340.471 374.21C340.351 378.57 341.276 374.779 341.152 380.658C341.146 380.901 340.486 381.78 340.517 383.042C340.607 386.721 341.128 386.356 341.078 391.739C341.071 392.258 340.441 399.387 340.438 400.101C340.428 404.276 340.208 412.682 340.342 415.155C340.819 423.988 341.814 417.035 339.653 424.547C340.182 427.855 340.717 431.136 341.231 434.643C340.752 432.305 340.061 441.799 340.105 442.469C340.466 447.99 341.306 444.702 341.167 451.702C339.225 442.457 340.917 460.734 340.967 464.811C341.208 484.437 340.723 502.278 340.735 522.004C340.74 528.608 341.15 537.458 341.141 544.445C341.14 546.073 340.681 544.843 340.671 546.277C340.664 547.706 341.179 546.121 341.152 547.752C340.973 557.906 340 565.862 341.217 575.164C341.041 575.617 340.902 575.603 340.709 576.353C341.799 583.965 340.333 598.625 340.132 604.136C339.819 612.755 340.556 614.957 340.407 621.218C340.208 629.498 338.769 641.929 341.145 636.377C341.22 642.057 341.24 647.526 341.019 653.263C340.994 653.9 340.391 653.462 340.378 653.717C340.291 655.335 340.831 655.863 340.856 656.956C340.923 659.92 340.276 655.083 340.457 659.31C340.554 661.539 341.025 662.806 341.035 668.997C341.041 672.909 341.044 676.857 341.045 680.832L341.153 689.767L332 689.877C298.042 689.885 261.98 689.743 227.729 689.672C225.102 689.667 226.831 690.251 223.536 690.214C212.089 690.085 191.599 689.102 181.728 689.236C171.859 689.37 174.085 690.224 167.909 690.581C166.716 690.651 167.693 690.164 166.615 690.156C159.358 690.112 150.705 689.353 144.825 689.239C140.938 689.162 141.248 689.928 138.552 689.983C134.533 690.062 130.396 689.288 128.251 689.263C118.169 689.154 111.237 689.777 101.822 689.459C102.19 689.628 102.433 689.784 102.745 689.95C91.5976 689.923 80.4638 689.896 69.3163 689.868C69.8416 690.022 70.3496 690.178 70.8749 690.334C57.7957 690.25 59.288 688.581 60.4384 692.105C59.4874 692.229 58.4787 692.372 57.5702 692.487C57.9371 690.671 50.0258 689.343 39.9589 688.881C39.2203 688.846 34.2649 690.616 34.8046 688.525C33.5123 689.036 32.7416 689.39 31.6483 689.839C29.5186 689.206 27.3601 688.58 25.2304 687.949C24.0806 688.044 22.9143 688.134 21.7645 688.229C21.5942 688.638 21.7243 689.065 21.3554 689.467C18.9836 689.495 15.5043 689.41 11.9999 689.312L3.6249 689.412L3.5204 680.832C3.64308 676.448 3.78757 672.023 3.75869 669.678C3.62703 659.197 2.51858 648.525 3.71572 640.373C3.59363 636.403 2.78975 640.345 2.8915 634.44C3.29859 633.773 3.68881 633.145 4.10829 632.449C2.28882 627.623 3.39608 626.614 3.77626 619.999C4.03452 615.526 3.58984 612.596 3.67665 608.336C3.69911 607.257 4.2331 607.41 4.21572 606.671C4.16059 604.198 3.42515 597.142 3.40517 595.395C3.21148 579.575 3.29393 565.983 3.49013 550.915C3.50993 549.297 2.9834 551.395 3.00576 549.719C3.04097 547.024 3.85068 548.609 3.89052 547.048C3.99675 542.692 3.14225 542.657 3.09755 536.58C2.95112 516.57 3.59316 493.563 3.65029 472.658C3.65013 472.006 3.14951 472.044 3.14443 471.334C3.11999 466.706 3.79638 462.019 3.78896 457.817C3.77898 450.844 3.07652 445.602 3.079 438.714C3.08149 425.251 3.44095 413.221 3.46083 399.374C3.47822 388.041 3.41148 378.198 3.41396 365.771C3.42389 311.489 1.83606 256.098 2.68056 201.447C2.703 200.056 3.14502 200.622 3.12587 200.198C2.93459 196.165 2.33777 195.805 3.58681 194.37C3.3406 189.232 2.40258 187.61 2.46962 181.406C2.50493 178.099 3.95877 180.567 3.20888 174.973C2.53087 169.921 1.73419 175.495 2.54872 160.472C2.57162 160.074 3.45715 158.116 3.22646 154.992C2.99793 151.854 2.36302 155.487 2.17177 147.931C1.72475 130.193 2.49162 107.74 2.25576 87.1194C2.24078 85.8252 1.76631 73.3803 1.54775 70.9231C1.12303 66.1687 0.464101 67.1613 0.302631 60.9856C0.178506 56.2137 0.925288 52.2761 0.776263 46.6663C0.757781 46.0127 -0.0100471 44.9174 0.0916931 40.7024C0.193469 36.4982 -0.352214 26.8667 0.427631 21.555C0.620251 20.2475 3.10907 15.8946 3.4374 15.9163C4.54241 16.0451 4.69278 21.3602 5.41298 15.6663C5.42046 17.5818 5.46245 19.4417 5.48232 21.343C6.22485 21.0024 6.96591 20.6626 7.70595 20.3362C7.59418 18.0213 7.48133 15.7028 7.36708 13.388C7.61273 13.2744 7.85972 13.1616 8.10536 13.0481C8.11035 21.3702 9.06002 16.4586 9.94423 20.7757C10.3912 16.7999 10.8361 12.7938 11.2831 8.83231C11.2285 11.1184 11.1875 13.8167 11.1229 15.8333C11.605 15.9364 11.8575 15.2949 11.9999 14.4173V8.83231H32.5175C29.4371 8.50641 25.5445 8.07483 25.331 8.01004C23.7695 7.53323 26.139 6.83994 25.4442 6.59891C23.5117 5.92323 11.7756 4.2268 12.0028 3.97098C14.8746 0.831831 54.3617 0.790619 65.0419 0.62918ZM320.502 682.648C318.102 682.593 315.696 682.535 313.282 682.481C313.211 682.895 313.141 683.314 313.07 683.729C323.705 683.19 321.254 684.386 326.518 685.566C325.496 684.088 324.491 682.61 323.469 681.13C322.475 681.637 321.482 682.141 320.502 682.648ZM167.379 681.967C162.397 682.059 161.26 682.427 162.111 683.254C160.976 683.353 159.826 683.45 158.69 683.547C158.165 683.386 157.626 683.227 157.101 683.066C156.505 683.406 155.905 683.743 155.323 684.083C154.117 684.016 152.896 683.95 151.69 683.88C151.549 684.051 151.306 684.2 151.221 684.388C156.335 684.309 164.325 685.008 167.826 683.977C169.863 683.376 161.858 682.911 167.379 681.967ZM180.548 683.033C180.704 683.445 180.839 683.856 180.995 684.27C188.019 684.354 188.887 683.745 190.35 682.67C187.083 682.792 183.814 682.912 180.548 683.033ZM216.271 680.832C215.435 680.971 214.696 681.114 214.432 681.32C213.198 682.278 217.103 682.952 213.683 683.893C225.58 683.41 237.062 682.636 236.425 680.832H216.271ZM250.767 681.123C247.274 681.195 243.779 681.265 240.3 681.337C240.229 681.752 240.152 682.165 240.096 682.579C243.831 682.455 247.584 682.327 251.319 682.202C248.593 682.481 245.85 682.759 243.123 683.037C247.454 683.236 251.787 683.435 256.118 683.634C251.982 682.263 256.385 681.974 256.5 680.832H250.238C250.414 680.929 250.59 681.027 250.767 681.123ZM67.2792 680.832C67.3699 680.985 67.3903 681.148 67.3261 681.323C67.0704 682.019 59.5716 682.733 63.5341 683.476C66.7529 683.622 64.5744 682.791 65.8876 682.747C75.3745 682.444 74.8238 683.609 78.7011 683.298C79.3112 682.799 79.9537 682.29 80.578 681.786C82.0399 681.933 83.5063 682.079 84.9823 682.226C85.323 681.891 85.6788 681.555 86.0194 681.22C84.642 681.198 83.09 681.175 81.8261 681.153C81.9796 681.04 82.243 680.934 82.5907 680.832H74.3642C72.0736 680.993 70.063 681.214 69.2255 681.92C68.8612 681.5 69.5833 681.139 70.4022 680.832H67.2792ZM333.696 680.832L333.716 682.507L332 682.529C331.702 682.532 331.404 682.535 331.105 682.538C331.401 682.76 331.701 682.981 332 683.202L334.398 683.174L334.37 680.832C334.637 680.471 334.904 680.108 335.172 679.751C334.653 677.578 334.131 675.401 333.612 673.228C333.641 675.757 333.668 678.292 333.696 680.832ZM258.801 680.832C265.401 681.998 271.34 683.212 281.941 682.266C284.297 682.055 283.018 681 289.706 682.283C289.163 681.721 289.745 681.259 290.717 680.832H288.378C288.109 680.884 287.811 680.931 287.481 680.969C282.497 681.545 275.227 680.49 275.523 682.181C273.536 682.101 271.686 682.055 269.756 681.988C270.483 681.604 271.198 681.217 271.912 680.832H271.164C267.787 681.189 265.222 681.186 263.143 680.832H258.801ZM89.6893 680.832C88.4274 681.028 87.8456 681.353 89.3944 682.17C93.7256 681.949 98.6407 681.723 103.199 681.502C103.341 681.832 103.474 682.164 103.616 682.494C108.308 682.331 106.158 681.521 104.885 680.832H89.6893ZM168.375 680.832C170.753 681.099 172.412 681.651 173.01 681.704C179.44 682.277 182.325 681.751 187.564 682.469C187.296 681.909 187.141 681.377 186.933 680.832H186.352C181.903 681.619 179.406 681.575 172.934 681.391C175.192 681.272 177.45 681.15 179.708 681.031C179.658 680.965 179.609 680.898 179.558 680.832H168.375ZM333.174 653.649C333.071 653.379 332.514 654.536 332 654.368V674.665C332.129 674.817 332.258 674.968 332.388 675.119C332.366 677.565 332.219 679.319 332 680.517V680.832H324.842C330.483 681.17 329.021 682.073 332 682.097L333.28 682.081L333.265 680.832C333.276 679.472 333.103 677.185 332.608 672.872C333.015 672.489 333.431 672.077 333.836 671.722C333.86 666.684 332.94 667.091 332.767 662.761C332.659 660.049 334.274 656.644 333.174 653.649ZM157.236 680.832C157.806 681.087 158.324 681.416 158.774 681.838C162.648 681.922 161.419 681.124 162.565 680.945C162.847 680.9 163.126 680.864 163.4 680.832H157.236ZM123.509 680.832C123.731 681.127 123.937 681.426 124.096 681.741C131.209 680.945 134.447 682.225 142.797 681.299C143.836 681.184 144.951 681.011 146.098 680.832H137.055C135.547 681.054 133.809 681.119 132.656 680.832H123.509ZM116.1 680.832C116.061 681.141 116.395 681.383 118.82 681.299C118.747 681.148 118.623 680.99 118.506 680.832H116.1ZM110.2 681.159C110.211 681.068 110.246 680.954 110.319 680.832H109.574C109.778 680.943 109.986 681.053 110.2 681.159ZM51.4315 612.941C47.7192 612.845 42.8338 612.775 39.1073 612.84C37.5032 612.869 37.8556 613.112 37.0526 613.217C36.2491 613.32 35.716 613.141 35.2313 613.229C34.7469 613.317 35.1736 613.531 34.9374 613.6C34.5966 613.699 33.2141 613.796 33.1308 613.816C31.9997 614.109 33.9086 613.979 33.9706 614.1C34.1742 614.505 33.8771 614.918 33.7626 615.315H32.7733C32.4551 615.315 32.1401 615.331 31.83 615.362C32.3971 615.169 32.9197 615.043 32.7352 615.014C30.6145 614.777 29.3703 615.721 27.6259 616.609C27.1462 616.876 27.4294 616.576 27.7733 616.282C28.1158 615.99 28.5205 615.718 28.1181 615.911C25.9345 617.108 25.8303 617.83 26.3983 617.524C26.5809 617.449 26.8448 617.311 27.1806 617.142C25.9371 618.052 24.9234 619.258 24.244 620.656C24.1616 620.664 24.0851 620.705 24.0497 620.765C23.5916 621.723 23.5054 622.325 23.5155 622.766C23.4084 623.258 23.3369 623.763 23.3095 624.281C23.2411 624.37 23.1604 624.469 23.0565 624.573C23.0819 624.643 23.106 624.716 23.1278 624.791C23.2259 625.122 23.2727 625.52 23.2968 625.962V637.809C23.2505 637.715 23.201 637.626 23.1561 638.077C23.0627 639.021 23.2702 639.597 23.0331 640.827C22.9706 641.148 22.6117 643.019 22.8466 644.154C22.8735 644.287 23.0325 644.295 23.0546 644.458C23.1458 645.129 23.0119 645.784 23.0956 646.49C23.1149 646.657 23.2651 646.296 23.2968 646.604V649.232C23.2968 650.642 23.6066 651.979 24.1591 653.182C24.1892 653.277 24.2223 653.37 24.2597 653.463C24.616 654.28 25.0025 654.78 25.4149 655.202C25.8858 655.782 26.4243 656.304 27.0175 656.758C27.1751 656.952 27.2411 657.057 27.7255 657.386C29.2472 658.347 31.0018 658.771 32.7733 658.746C33.5417 658.736 34.3214 658.733 35.121 658.748C35.7507 658.76 36.2351 658.93 37.1171 658.938C37.4697 658.941 37.8943 658.814 38.2343 658.708H65.204C65.3201 658.75 65.4648 658.785 65.6493 658.812C67.2292 659.038 69.5745 658.752 70.3905 658.767C74.8423 658.848 77.8003 659.035 81.9559 658.917C82.0543 658.913 81.7198 658.734 82.1737 658.708H82.8524C84.0575 658.722 85.5042 658.772 86.5673 658.78C86.8001 658.781 87.0152 658.75 87.205 658.708H92.8388C92.959 658.746 93.0686 658.783 93.1659 658.823C94.0423 659.185 94.4496 658.76 95.1952 658.974C95.4255 659.041 95.2516 659.161 95.411 659.198C96.6104 659.465 98.1051 659.123 98.6962 659.076C101.138 658.881 104.454 659.106 106.213 659.121C107.971 659.136 106.737 659.328 106.802 659.349C107.8 659.656 108.016 659.236 108.148 659.225C111.887 658.924 115.079 659.231 118.996 659.076C119.357 659.06 120.086 658.654 121.163 658.951C121.231 658.971 120.868 659.147 121.424 659.166C123.042 659.224 124.851 659.2 126.525 659.217C127.514 658.799 129.95 658.661 129.897 659.267C132.478 659.304 136.508 659.535 138.773 659.499C141.664 659.453 141.985 659.074 144.659 659.153C145.072 659.165 144.692 659.364 144.811 659.371C147.539 659.533 146.48 659.127 147.152 658.765C147.357 658.655 148.482 658.816 148.791 658.766C148.904 658.748 149.001 658.728 149.087 658.708H154.221C154.519 658.848 154.581 659.026 154.413 659.239C155.4 659.029 155.545 658.832 155.934 658.708H158.679C158.658 658.772 158.64 658.844 158.962 658.855C163.146 658.987 167.499 658.997 171.688 659.147C172.215 659.166 171.769 659.361 171.907 659.368C174.302 659.498 173.187 659.129 173.865 658.777C173.907 658.755 173.984 658.733 174.089 658.708H179.102C179.252 658.92 178.445 659.561 180.504 659.432C182.696 659.294 181.403 658.994 184.933 659.095C186.888 659.151 187.972 659.122 191.326 659.156C194.688 659.189 202.491 659.506 206.672 659.258C207.629 659.201 206.951 658.891 207.014 658.708H207.867C207.97 658.793 207.61 658.931 207.928 659.037C208.418 659.203 209.202 658.91 209.922 659.157C210.118 659.225 210.874 659.554 211.961 659.299C212.026 659.281 211.63 659.114 212.362 659.091C213.861 659.044 214.747 659.121 214.563 658.708H214.677C215.971 658.913 214.424 659.444 216.522 659.357C216.617 659.352 216.199 659.14 216.829 659.131C224.87 659.018 232.486 659.36 240.744 659.335C240.911 659.335 242.76 659.237 243.232 659.159C243.308 659.145 242.784 658.943 243.748 658.938C244.716 658.932 247.257 658.925 248.251 658.982C249.249 659.038 248.264 659.195 248.796 659.232C249.992 659.315 248.903 659.048 249.853 659.008C251.141 658.954 253.301 658.989 254.499 659.043C255.3 659.08 254.85 659.242 255.009 659.283C256.129 659.57 257.859 659.179 258.21 659.149C260.351 658.963 261.483 659.165 263.365 659.113C263.839 659.099 263.405 658.951 263.938 658.968C265.91 659.032 267.588 659.681 269.742 659.352C270.655 659.213 269.101 658.514 271.874 658.779C272.291 658.819 271.706 658.939 272.176 659.01C272.647 659.082 274.562 659.287 275.096 659.19C275.364 659.14 275.405 658.894 275.547 658.708H276.966C277.692 658.979 277.216 659.086 279.504 659.304C279.571 659.313 278.909 659.501 279.877 659.538C280.848 659.576 284.31 659.566 285.093 659.577C287.055 659.605 286.677 659.021 286.925 658.983C288.885 658.691 289.342 659.192 290.626 659.343C291.187 659.408 291.755 659.333 292.328 659.392C292.512 659.411 292.224 659.601 292.293 659.603C294.49 659.602 294.225 658.571 295.854 658.769C296.05 658.794 295.442 659.106 296.029 659.236C296.192 659.271 298.015 659.752 298.614 659.652C300.994 659.253 300.304 658.928 303.901 659.045C304.199 659.055 303.932 659.264 304.081 659.27C306.408 659.359 308.738 659.42 311.068 659.461C316.517 659.689 321.526 654.738 321.385 649.232C321.384 644.705 321.385 640.171 321.452 635.629C320.946 633.724 321.302 631.104 321.186 628.3C321.17 627.944 320.745 627.221 321.062 626.104C321.083 626.039 321.247 626.81 321.274 625.723C321.282 625.413 321.29 625.103 321.298 624.791C321.593 619.465 316.665 614.231 311.068 614.387C309.128 614.386 307.199 614.393 305.301 614.409C304.238 614.418 305.089 614.638 304.712 614.646C301.55 614.708 299.458 614.266 296.185 614.394C295.927 614.403 295.053 614.826 294.047 614.528C293.983 614.508 294.18 614.336 293.829 614.319C292.158 614.236 291.771 614.618 290.028 614.525C289.634 614.503 290.393 614.3 289.566 614.276C285.849 614.17 281.915 614.15 278.118 614.184C277.386 614.191 278.285 614.429 277.524 614.428C274.246 614.422 271.675 614.513 268.156 614.281C267.694 614.25 265.573 613.824 264.3 614.082C264.149 614.114 264.294 614.291 263.76 614.313C261.13 614.415 258.226 614.35 255.568 614.422C254.937 614.439 255.483 614.637 255.063 614.658C253.197 614.755 254.672 614.529 253.153 614.412C250.797 614.231 247.598 614.195 244.964 614.159C242.654 615.061 236.501 614.652 232.612 614.482C231.977 614.453 232.796 614.246 232.161 614.23C225.822 614.071 219.498 614.045 213.132 614.073C212.533 614.075 213.107 614.311 212.617 614.313C207.968 614.331 203.911 614.223 199.126 614.209C195.109 614.198 190.594 614.278 186.373 614.279C180.812 614.279 175.731 614.038 169.808 614.216C169.481 614.227 166.957 614.649 165.886 614.344C165.756 614.308 166.068 614.15 165.333 614.103C164.597 614.056 162.414 614.039 161.589 614.073C160.764 614.108 161.448 614.307 160.932 614.318C158.51 614.362 155.825 614.265 153.567 614.26C151.916 614.258 151.626 614.26 149.881 614.229C148.975 614.213 146.758 614.248 145.589 614.201C145.074 614.181 145.549 613.985 145.419 613.971C143.527 613.766 145.41 614.132 143.531 614.162C139.114 614.233 134.009 614.217 129.419 614.022C128.262 613.972 128.851 613.6 127.08 613.832C126.967 613.847 127.32 614.032 126.727 614.042C121.643 614.126 115.658 613.935 110.735 613.904C95.8051 613.808 81.3062 613.729 66.5565 613.509C63.5623 613.464 60.7652 613.518 57.8095 613.425C57.2701 613.408 57.9093 613.198 57.3954 613.177C55.8434 613.116 54.3799 613.181 52.8095 613.129C52.0064 613.103 52.5946 612.97 51.4315 612.941ZM306.806 659.066C305.757 658.658 310.533 658.699 309.302 659.087C309.219 659.106 306.866 659.087 306.806 659.066ZM199.507 658.708C199.504 658.709 199.502 658.711 199.5 658.712C199.483 658.719 198.965 658.714 198.657 658.708H199.507ZM8.50673 645.686C9.15501 650.529 9.49176 652.15 10.5399 649.864C10.5404 649.859 10.5414 649.854 10.5419 649.849C10.0775 648.046 9.61267 646.241 9.14833 644.438C8.93489 644.849 8.72018 645.26 8.50673 645.686ZM11.9999 638.528C11.293 635.803 10.5233 636.805 9.65517 638.86C9.78914 639.753 9.92452 640.63 10.0585 641.524C10.7067 641.266 11.3523 641.008 11.9999 640.743V638.528ZM333.463 615.708C334.965 608.103 333.672 599.629 332 601.187V602.361C332.312 603.161 332.745 601.842 332.348 604.772C332.231 604.876 332.116 604.984 332 605.091V641.37C332.393 640.751 332.812 640.376 333.041 638.323C333.535 633.877 331.601 623.708 333.794 620.711C333.503 623.039 333.347 626.006 333.108 628.59C333.535 629.641 333.958 630.664 334.383 631.7C333.831 625.792 334.481 619.685 333.463 615.708ZM336.396 622.528C334.228 626.234 335.624 633.702 336.379 632.397C336.341 629.927 336.016 628.279 336.133 625.525H336.13C336.143 625.225 337.311 622.231 336.396 622.528ZM11.9452 606.005C11.9634 606.008 11.9817 606.011 11.9999 606.014V605.383C11.9816 605.59 11.9635 605.798 11.9452 606.005ZM332 597.577C332.118 597.717 332.254 597.955 332.408 598.301C332.438 597.35 332.467 596.407 332.497 595.455C332.332 595.424 332.166 595.395 332 595.365V597.577ZM332 586.621C332.103 585.635 332.219 584.352 332.355 582.702C332.237 582.696 332.118 582.687 332 582.679V586.621ZM10.4022 563.812C10.1788 565.089 9.92806 566.408 9.72451 567.671C9.56093 569.797 10.1936 568.715 10.1815 568.936C9.84872 574.318 9.5582 575.077 10.0351 581.681C10.2014 582.49 10.3765 583.286 10.5477 584.095C12.0053 581.388 11.467 579.337 11.9999 574.402V572.902C11.5227 573.886 11.0453 574.868 10.5663 575.853C10.6855 572.261 10.8036 568.683 10.9227 565.091C10.7489 564.665 10.5761 564.238 10.4022 563.812ZM332 544.652C332.07 546.363 332.083 547.899 332.008 548.955C332.005 548.953 332.002 548.951 332 548.949V574.229C332.38 571.863 332.678 569.263 332.655 564.1C334.371 571.911 331.33 576.185 334.772 576.156C334.546 578.116 334.317 580.092 334.091 582.052C334.59 582.35 335.091 582.646 335.59 582.93C335.326 572.407 332.043 554.927 334.22 547.881C333.954 547.029 333.723 546.174 333.437 545.308C334.751 538.406 331.802 535.424 333.501 528.422C333.681 527.702 336.451 529.208 336.351 520.097C335.991 520.324 335.385 520.443 334.931 520.627C335.152 518.654 335.382 516.691 335.608 514.732C335.276 514.377 334.943 514.004 334.608 513.649C334.479 517.014 334.348 520.372 334.219 523.738C334.104 520.941 333.99 518.126 333.876 515.329C333.332 518.978 333.326 520.624 332.455 518.425C332.403 515.258 332.347 512.086 332.295 508.919C332.197 508.776 332.098 508.633 332 508.491V544.652ZM11.9999 513.398C10.8116 517.691 10.1335 518.808 8.47451 515.548C8.6434 519.908 8.40164 522.62 9.32314 523.018C8.92343 523.926 8.52265 524.841 8.12294 525.736C8.1329 527.154 8.17039 528.432 8.16298 529.936C9.55256 527.865 8.69718 531.88 9.32704 534.734C9.95793 537.588 11.0553 533.76 11.0702 541.599C11.3956 538.986 11.6753 536.596 11.9833 534.068C11.9888 534.146 11.9944 534.224 11.9999 534.302V523.828C11.3372 525.276 10.6568 526.634 9.8622 525.645C10.1658 521.045 11.144 521.475 11.9999 520.832V513.398ZM336.108 487.175C335.823 487.102 336.299 481.969 335.679 483.573C334.613 486.342 335.225 496.689 333.927 496.719C334.351 493.083 333.996 485.985 333.13 488.083C332.179 490.384 333.772 497.074 332.983 501.335C335.059 495.231 334.418 507.839 332.824 509.275C334.049 516.674 334.548 509.873 334.491 502.289C335.713 506.919 335.053 500.104 336.068 498.982C336.681 503.756 336.171 520.14 337.808 512.514C338.388 509.801 335.627 504.73 337.665 497.105C337.057 495.288 336.476 494.148 335.88 492.586C336.528 491.677 337.185 490.645 337.828 489.779V489.764C337.609 482.849 336.796 487.329 336.108 487.175ZM11.9999 482.943C10.5688 488.662 10.2209 498.23 10.8768 510.228C11.7061 508.537 11.2795 503.434 11.5526 500.494C11.67 499.232 11.8275 499.099 11.9999 499.068V482.943ZM332.335 463.501C332.149 462.885 332.085 464.027 332 464.999V486.133C332.379 486.018 332.709 485.855 333.076 485.744C331.79 476.741 332.174 473.782 333.102 464.395C332.236 470.473 332.799 465.049 332.335 463.501ZM11.9999 444.33C11.9244 445.635 11.8047 446.937 11.5917 448.243C10.6455 454.021 9.73582 446.913 10.9403 460.375C11.367 456.176 11.7163 453.247 11.9999 451.35V444.33ZM332.599 447.706C332.562 447.525 332.267 448.646 332 448.559V457.449C332.706 457.13 333.169 450.786 332.599 447.706ZM332 435.776C332.22 434.459 332.488 433.187 332.78 431.873C332.524 431.767 332.256 431.402 332 430.82V435.776ZM11.9999 413.503C11.2739 414.995 10.4028 415.596 10.0243 415.185C10.5458 418.437 10.5897 423.19 11.4042 423.858C11.4241 425.519 11.4429 427.169 11.4628 428.83C9.47873 427.099 9.8416 434.029 11.5477 434.484C11.59 431.629 11.6344 428.771 11.6767 425.916C11.7866 426.03 11.8949 426.112 11.9999 426.171V413.503ZM11.9999 400.976C11.5014 403.107 11.1567 405.481 11.4306 407.397C11.609 407.367 11.8012 407.303 11.9999 407.227V400.976ZM332 405.128C332.683 405.639 333.394 406.402 333.729 402.371C331.738 400.042 331.546 393.398 332.809 384.934C332.8 383.997 332.797 383.055 332.784 382.118C332.551 381.994 332.221 381.968 332 381.832V405.128ZM336.771 384.223C334.882 380.276 335.819 386.749 335.093 388.37C334.911 387.021 334.735 385.641 334.554 384.306C334.02 392.373 334.469 393.551 335.85 390.611C335.943 390.397 335.677 387.178 335.88 386.865C336.084 386.555 337.377 389.205 336.771 384.223ZM334.483 322.609C331.805 315.367 336.323 309.205 332.658 311.703C332.515 315.17 332.316 317.765 332 319.958V336.412C332.109 336.539 332.202 336.782 332.283 337.103C332.19 336.923 332.094 336.747 332 336.579V345.904C332.462 347.083 332.734 350.697 332.966 351.247C333.986 353.675 334.329 346.46 333.93 355.221H333.933C333.669 361.016 333.599 362.295 333.519 367.663C332.79 366.588 332.319 362.74 332 362.123V370.425C332.107 370.726 332.178 371.222 332.142 372.053C332.132 372.255 332.078 372.578 332 373.013V376.686C332.603 370.844 334.644 369.51 334.879 368.731C336.167 364.442 334.384 361.101 334.369 359.837C334.307 354.512 335.099 352.964 334.759 347.895C334.391 342.443 333.784 346.17 333.24 344.512C332.808 343.181 332.731 338.88 332.283 337.103C332.649 337.809 333.008 338.593 333.376 339.297C333.875 333.646 334.362 329.027 334.483 322.609ZM9.88076 353.979C10.3253 350.472 10.7683 346.951 11.2128 343.444C11.4748 344.779 11.7377 346.115 11.9999 347.45V340.785C11.3901 340.391 10.7805 339.997 10.1698 339.607C10.073 344.392 9.9776 349.18 9.88076 353.979ZM336.811 333.848C334.027 332.74 335.279 342.921 336.143 342.552C336.178 341.147 335.707 340.053 335.915 338.563C336.124 337.058 336.774 336.673 336.811 333.848ZM11.9999 311.433C11.7018 313.386 11.3564 315.271 11.3476 317.735C11.5635 317.254 11.7824 316.775 11.9999 316.296V311.433ZM10.7128 276.026C11.0729 277.985 11.4304 279.962 11.788 281.936C10.5469 282.234 10.1986 281.935 10.4169 289.656C10.124 286.306 9.82656 282.969 9.53115 279.605C9.28065 279.491 9.01937 279.024 8.77626 279.136C9.25294 283.257 9.4587 294.859 9.78896 297.671C10.1192 300.482 10.2099 295.054 10.5302 295.862C13.1722 302.606 11.2234 302.072 11.6767 306.911C11.786 308.07 11.8964 307.628 11.9999 306.802V268.08C11.5698 270.728 11.1407 273.378 10.7128 276.026ZM335.743 295.386C331.762 285.09 334.202 308.275 335.559 303.863C335.62 303.655 335.304 296.353 335.743 295.386ZM332 286.2C332.187 287.819 332.307 289.735 332.248 292.744C333.097 290.955 332.922 286.741 333.94 289.467C333.692 281.531 332.8 283.982 332 281.015V286.2ZM11.9999 245.379C11.9368 245.9 11.86 246.449 11.7616 247.024C11.5058 248.528 10.859 245.051 10.5311 247.152C10.3833 248.104 10.8718 250.419 10.495 252.745C10.3086 253.882 9.10697 259.193 9.67763 262.871C10.5092 261.386 11.2734 262.836 11.9999 263.44V256.453C11.8288 256.317 11.6573 256.181 11.4862 256.045C11.4341 253.817 11.3821 251.598 11.33 249.369C11.3304 249.365 11.3305 249.359 11.331 249.355C11.5539 249.569 11.7783 249.78 11.9999 249.993V245.379ZM332 256.835C332.452 258.764 332.905 260.693 333.354 262.622C333.55 260.948 333.745 259.271 333.941 257.597C332.443 245.733 334.884 225.894 332 225.919V256.835ZM7.25771 207.002C7.08192 210.847 7.95649 209.201 8.12294 210.748C8.74874 216.599 8.12335 220.59 8.51552 226.369C8.34665 225.986 8.18919 225.633 8.02529 225.264V225.28C7.28769 252.646 9.27198 238.272 8.94911 221.897C9.2744 221.513 9.60093 221.144 9.92372 220.761C9.35503 213.434 8.80716 206.677 7.25771 207.002ZM11.9999 221.449V211.354C11.6745 211.253 11.3479 211.154 11.0233 211.051C11.3485 214.512 11.6746 217.986 11.9999 221.449ZM332 217.574C332.116 217.103 332.243 216.595 332.377 216.009C332.245 215.851 332.124 215.694 332 215.538V217.574ZM332.566 194.431C332.784 195.336 333.003 196.266 333.221 197.171C332.756 190.742 334.426 190.635 333.493 184.351C333.185 187.716 332.874 191.08 332.566 194.431ZM11.9999 166.908C11.4634 167.635 11.0809 168.82 11.7265 172.331C10.9371 172.175 10.2267 172.049 9.46962 171.893C9.61364 173.326 9.80464 174.278 9.91884 176.009C11.457 170.903 11.392 175.082 11.3944 177.228C11.3977 179.443 11.7227 177.965 11.9999 176.934V166.908ZM332 157.845V165.812C333.017 164.286 333.976 162.35 333.654 157.369C333.102 157.529 332.551 157.686 332 157.845ZM9.73134 143.572C9.43863 143.129 9.23976 149.945 8.38857 145.206C8.32158 147.279 8.33593 149.068 8.29872 151.027C7.9364 151.169 7.57316 151.309 7.21083 151.465C7.34212 149.043 7.47506 146.637 7.60634 144.215C6.51351 147.19 6.11713 154.825 7.30556 158.557C7.44465 156.597 7.58444 154.636 7.72353 152.676C7.86008 156.381 8.01043 160.046 8.13954 163.78C9.66139 163.977 8.77843 159.674 9.19814 153.199C9.26625 152.195 11.1557 145.785 9.73134 143.572ZM11.3095 148.4C10.5602 155.919 11.2971 158.474 11.9999 159.912V155.357C11.8075 152.815 11.7232 149.625 11.3095 148.4ZM332 152.279C332.209 152.183 332.419 152.094 332.628 151.995C332.553 152.961 332.479 153.914 332.402 154.879C332.81 154.041 333.215 153.22 333.622 152.397C333.081 149.813 332.541 147.226 332 144.632V152.279ZM332.024 132.537C332.015 132.541 332.008 132.548 332 132.556V134.769C332.038 135.381 332.062 135.953 332 136.238V141.282C332.169 141.513 332.349 141.776 332.546 142.043C332.451 140.666 332.36 139.273 332.266 137.896C333.371 138.804 334.03 136.475 333.94 144.526C334.255 143.972 334.556 143.408 334.884 142.868C334.834 141.548 335.1 140.691 334.978 139.243C334.646 135.296 332.705 132.269 332.024 132.537ZM332.945 52.4641C332.739 53.9125 332.553 55.3766 332.359 56.8391C332.224 56.0173 332.104 55.3273 332 54.7571V120.431C332.611 119.142 333.222 119.53 334.041 125.991C334.135 121.703 334.231 117.428 334.33 113.155C334.546 114.035 334.759 114.916 334.975 115.796C334.861 117.727 334.749 119.647 334.638 121.578C335.032 119.307 335.424 117.031 335.819 114.759C335.33 109.391 334.577 107.286 333.648 104.829C332.97 111.077 333.897 109.037 334.081 113.905C333.493 113.735 332.951 113.959 332.333 113.533C333.551 111.018 332.665 102.812 332.605 100.909C332.424 95.1188 333.622 99.6592 333.647 95.7854C333.672 91.9083 332.959 87.3353 334.146 84.1682C333.481 84.2251 332.792 84.4782 332.186 84.7054C331.968 78.6698 332.755 79.8732 332.856 79.2483C334.53 69.2788 333.117 63.8684 332.945 52.4641ZM9.41396 110.763C9.69462 118.446 10.2185 121.171 11.4628 116.84C11.1773 114.129 10.8919 111.4 10.6063 108.689C10.2091 109.384 9.81119 110.082 9.41396 110.763ZM8.36611 108.25C7.89426 104.132 8.25378 95.7963 6.95009 97.8968V97.8811C6.87241 98.0231 6.40216 105.499 6.83876 106.464C7.33041 107.259 7.85709 107.654 8.36611 108.25ZM11.1688 58.6848C12.1122 71.2097 10.7787 85.8785 11.8436 98.0628C11.8768 98.4439 11.9309 98.7772 11.9999 99.0823V60.0462C11.8555 59.1212 11.6247 58.5701 11.1688 58.6848ZM332 49.8714C332.224 49.5669 332.457 49.2582 332.71 48.9446C332.305 47.5828 332.093 46.384 332 45.3294V49.8714ZM332 32.7932V42.6868C332.11 41.4448 332.343 40.5093 332.427 39.8098C332.98 35.1816 331.76 35.3266 333.073 32.5296C332.687 32.6267 332.353 32.7027 332 32.7932ZM333.202 16.802C333.403 16.6458 333.613 16.4598 333.82 16.2805C333.984 16.152 334.147 16.0224 334.31 15.8938C333.726 16.7167 332.755 23.4817 333.379 26.3313C333.692 27.763 334.804 24.5045 334.998 30.5764C334.941 26.1753 334.789 22.098 334.694 17.8245C335.025 18.2079 335.359 18.5758 335.689 18.9593C335.69 18.9569 335.69 18.9538 335.69 18.9514C335.765 17.532 335.843 16.0955 335.918 14.6761C335.001 13.966 334.086 13.2669 333.17 12.5569C333.18 13.9764 333.19 15.3826 333.202 16.802ZM59.3886 7.46609C55.5257 8.02889 53.1329 8.50641 50.5351 8.83231H59.2694C60.9885 8.70278 62.66 8.64682 65.3134 8.83231H65.8358C63.6833 8.37767 61.4971 7.92049 59.3886 7.46609ZM104.942 8.83231H107.971C108.08 8.63446 108.274 8.44844 108.567 8.28348C107.361 8.46621 106.152 8.64952 104.942 8.83231ZM149.172 8.70145C142.544 6.18375 142.676 7.36417 144.234 8.83231H161.121C158.175 8.3695 156.84 7.86339 159.715 7.40652C155.809 7.80889 152.751 8.27424 149.172 8.70145ZM184.506 8.83231C180.856 8.18499 177.274 7.73091 172.565 8.65848C174.106 8.73108 175.201 8.78796 175.982 8.83231H184.506ZM224.295 5.17508C216.456 6.32503 212.404 8.20098 200.788 7.58035C202.683 7.99668 204.577 8.41514 206.47 8.83231H212.168C212.528 8.62756 212.889 8.42512 213.246 8.22098C218.599 8.42212 223.967 8.6214 229.32 8.82254C230.201 8.24886 231.067 7.67649 231.947 7.10281C233.367 7.17729 234.773 7.25002 236.192 7.32449C235.837 7.73901 235.479 8.15216 235.11 8.56668C237.922 8.46487 240.737 8.36087 243.534 8.25906C242.986 8.49462 242.396 8.68252 241.778 8.83231H264.492C264.259 8.82473 264.007 8.81601 263.734 8.80203C258.125 8.51393 253.961 6.40583 244.404 7.22C243.921 7.26261 241.091 8.87637 237.669 7.75906C236.89 7.50575 240.167 7.13084 238.38 6.79813C236.59 6.46535 228.608 6.19179 227.981 5.39969C228.067 5.68019 228.565 5.97067 228.807 6.25613C227.444 6.39021 226.065 6.52493 224.688 6.65652C224.561 6.16239 224.423 5.66673 224.295 5.17508ZM288.135 7.9407C280.636 8.63615 275.193 7.70217 267.624 7.92313C266.592 7.95362 268.39 8.71151 266.033 8.83231H297.778C297.767 8.80246 297.756 8.77194 297.746 8.74051C294.324 8.72808 291.085 8.6319 287.733 8.58719C290.999 8.43818 294.267 8.29381 297.519 8.14481C294.736 7.50409 291.97 6.86462 289.186 6.22391C288.832 6.79496 288.475 7.37709 288.135 7.9407ZM328.269 6.45535C324.223 7.27227 320.756 6.43637 317.349 6.62723C313.954 6.81847 315.246 7.69562 311.256 8.03348C310.517 8.09557 308.979 7.54675 307.161 7.95145C306.595 8.07698 305.56 8.45186 304.375 8.83231H329.486C329.106 8.04676 328.748 7.26731 328.269 6.45535ZM44.2899 7.62332C40.3283 7.34023 34.619 7.52559 30.2733 7.46609C30.615 8.4817 41.6604 8.20104 45.539 8.81668C46.1611 8.63391 45.9633 7.74256 44.2899 7.62332Z" fill="white"/>
</svg>
