<svg width="340" height="607" viewBox="0 0 340 607" fill="none" xmlns="http://www.w3.org/2000/svg">
<path d="M60.3553 0.62925C151.367 -0.879358 240.574 0.790125 330.765 0.854836L338.635 0.750344L338.742 8.83238C338.735 18.7193 338.747 28.6183 338.785 38.5326C338.791 39.5641 339.254 39.1146 339.274 39.5541C339.391 42.2853 338.668 44.9681 338.639 45.9779C338.577 48.135 339.244 46.9476 339.245 48.5238C339.238 64.8115 338.846 80.1821 338.96 96.4828C338.967 97.5438 338.433 96.4606 338.527 98.3246C338.579 99.2869 339.399 102.3 339.411 104.472C339.453 112.059 339.191 118.432 339.203 126.433C339.21 130.809 339.141 137.375 339.153 142.268C339.158 144.429 339.533 146.681 339.546 148.816C339.563 151.845 338.803 151.227 338.756 151.693C338.55 153.738 339.384 154.022 339.364 155.963C339.324 159.575 338.767 159.77 338.814 164.353C338.849 167.629 339.289 175.126 339.418 179.256C338.772 188.915 339.028 201.086 339.242 210.097C339.369 215.431 338.589 215.926 338.592 218.101C338.607 225.765 339.602 231.581 339.635 238.779C339.677 248.331 339.019 256.798 338.972 266.053C338.964 267.554 339.678 267.21 339.696 268.682C339.763 274.133 339.894 281.103 339.792 285.958C339.68 291.369 338.643 293.366 338.854 298.661C338.917 300.213 339.826 300.668 339.942 303.269C340.126 307.424 339.325 311.981 339.235 314.881C339.116 318.856 340.042 315.4 339.918 320.759C339.912 320.979 339.251 321.782 339.282 322.933C339.372 326.286 339.892 325.954 339.843 330.861C339.836 331.333 339.206 337.837 339.203 338.485C339.193 342.291 338.972 349.954 339.106 352.207C339.583 360.261 340.579 353.921 338.418 360.77C338.947 363.786 339.482 366.777 339.996 369.974C339.517 367.842 338.826 376.494 338.87 377.108C339.23 382.141 340.072 379.144 339.932 385.526C337.99 377.097 339.682 393.76 339.731 397.476C339.972 415.368 339.487 431.632 339.5 449.616C339.505 455.636 339.916 463.703 339.906 470.073C339.906 471.557 339.445 470.436 339.435 471.743C339.429 473.046 339.945 471.6 339.918 473.088C339.739 482.345 338.765 489.598 339.982 498.078C339.806 498.491 339.667 498.478 339.474 499.161C340.564 506.101 339.098 519.466 338.896 524.49C338.584 532.347 339.321 534.354 339.172 540.062C338.973 547.61 337.533 558.943 339.91 553.882C339.984 559.06 340.005 564.045 339.784 569.275C339.759 569.857 339.155 569.456 339.142 569.689C339.056 571.164 339.597 571.645 339.622 572.642C339.689 575.344 339.041 570.934 339.222 574.787C339.318 576.82 339.791 577.975 339.801 583.619C339.806 587.186 339.808 590.784 339.809 594.409L339.928 603.332L330.765 603.453C299.807 603.462 266.932 603.319 235.708 603.247C233.313 603.243 234.889 603.827 231.886 603.789C221.45 603.66 202.771 602.677 193.772 602.811C184.775 602.945 186.804 603.8 181.174 604.158C180.087 604.227 180.978 603.74 179.994 603.733C173.378 603.688 165.49 602.928 160.13 602.814C156.586 602.737 156.869 603.503 154.41 603.558C150.746 603.637 146.975 602.864 145.02 602.839C135.829 602.73 129.51 603.353 120.927 603.036C121.262 603.204 121.484 603.36 121.768 603.526C111.606 603.498 101.455 603.471 91.2928 603.444C91.7718 603.598 92.2357 603.753 92.7147 603.91C80.7913 603.825 82.1513 602.157 83.2001 605.681C82.3329 605.805 81.4132 605.949 80.5848 606.063C80.9209 604.247 73.7085 602.918 64.5301 602.456C63.856 602.422 59.3393 604.192 59.8309 602.101C58.653 602.612 57.9507 602.965 56.954 603.414C55.0125 602.781 53.0449 602.155 51.1034 601.525C50.055 601.619 48.9915 601.711 47.9432 601.805C47.7879 602.215 47.9068 602.64 47.5702 603.042C42.7024 603.104 32.7193 602.598 28.8729 602.65C23.1326 602.729 17.3295 603.16 11.9999 603.233L3.29382 603.349L3.17565 594.409C3.12758 590.867 3.23779 587.534 3.71569 584.567C3.59362 580.947 2.7897 584.541 2.89147 579.157C3.2986 578.548 3.68874 577.976 4.10827 577.342C2.28891 572.942 3.39607 572.023 3.77624 565.993C4.0345 561.915 3.58984 559.244 3.67663 555.361C3.69901 554.377 4.23308 554.515 4.21569 553.842C4.16053 551.587 3.42501 545.154 3.40515 543.562C3.21146 529.14 3.2939 516.749 3.49011 503.013C3.50985 501.538 2.98338 503.451 3.00573 501.923C3.04086 499.466 3.85077 500.912 3.8905 499.488C3.99674 495.516 3.14222 495.486 3.09753 489.946C2.95108 471.703 3.59313 450.73 3.65026 431.672C3.65021 431.077 3.14937 431.112 3.1444 430.464C3.11999 426.245 3.79636 421.973 3.78893 418.142C3.77899 411.785 3.07652 407.007 3.07897 400.728C3.08146 388.454 3.44093 377.487 3.46081 364.864C3.47819 354.532 3.41145 345.558 3.41393 334.23C3.42387 284.745 1.83604 234.248 2.68054 184.426C2.70291 183.158 3.14499 183.674 3.12585 183.287C2.93458 179.611 2.33775 179.282 3.58679 177.975C3.34058 173.291 2.40261 171.813 2.4696 166.157C2.50478 163.142 3.95886 165.392 3.20886 160.291C2.53085 155.686 1.73415 160.768 2.5487 147.072C2.57179 146.708 3.45716 144.923 3.22643 142.077C2.9979 139.216 2.36299 142.527 2.17175 135.639C1.72474 119.468 2.49159 99.0002 2.25573 80.2015C2.2408 79.0227 1.76629 67.6757 1.54772 65.4359C1.12301 61.102 0.464075 62.007 0.302606 56.3773C0.178436 52.0272 0.925229 48.4376 0.776239 43.3236C0.758018 42.7278 -0.0100896 41.7292 0.0916686 37.8861C0.193445 34.0534 -0.35218 25.2733 0.427606 20.431C0.619851 19.2399 3.108 15.2725 3.43737 15.2904C4.54263 15.4068 4.69272 20.2539 5.41296 15.0628C5.42044 16.8091 5.46242 18.5042 5.48229 20.2376C6.2249 19.9269 6.9658 19.6175 7.70593 19.3197C7.59416 17.2093 7.48131 15.0961 7.36706 12.9857C7.61285 12.882 7.85955 12.7788 8.10534 12.6751C8.11031 20.2623 9.05998 15.7843 9.94421 19.7201C10.3912 16.0956 10.8361 12.4438 11.2831 8.83238C11.2284 10.9164 11.1875 13.3759 11.1229 15.2142C11.6051 15.3084 11.8575 14.7233 11.9999 13.9232V8.83238H30.7069C27.8988 8.50648 24.3488 8.075 24.1532 8.01011C22.7302 7.53329 24.8901 6.83998 24.2567 6.59898C22.4952 5.92335 11.7969 4.22702 12.0028 3.97105C14.6195 0.831712 50.6187 0.790692 60.3553 0.62925ZM320.283 596.224C318.095 596.169 315.901 596.112 313.7 596.057C313.635 596.472 313.572 596.89 313.508 597.305C323.203 596.766 320.968 597.962 325.767 599.142C324.835 597.665 323.919 596.186 322.987 594.706C322.081 595.213 321.176 595.717 320.283 596.224ZM180.69 595.543C176.149 595.635 175.112 596.004 175.889 596.83C174.853 596.93 173.805 597.027 172.77 597.123C172.292 596.962 171.8 596.803 171.321 596.642C170.778 596.982 170.231 597.319 169.7 597.66C168.601 597.593 167.487 597.526 166.388 597.456C166.258 597.627 166.038 597.776 165.96 597.964C170.622 597.885 177.905 598.584 181.098 597.553C182.957 596.952 175.657 596.487 180.69 595.543ZM192.696 596.61C192.838 597.021 192.961 597.433 193.103 597.846C199.506 597.93 200.298 597.321 201.631 596.246C198.653 596.368 195.674 596.488 192.696 596.61ZM225.264 594.409C224.5 594.548 223.826 594.69 223.585 594.896C222.462 595.854 226.022 596.528 222.902 597.469C233.747 596.986 244.215 596.212 243.637 594.409H225.264ZM256.71 594.7C253.526 594.772 250.339 594.841 247.168 594.913C247.103 595.328 247.033 595.741 246.981 596.156C250.386 596.031 253.809 595.903 257.214 595.779C254.728 596.057 252.227 596.335 249.741 596.614C253.689 596.812 257.639 597.012 261.588 597.21C257.819 595.84 261.827 595.55 261.934 594.409H256.227C256.388 594.505 256.548 594.603 256.71 594.7ZM89.4364 594.409C89.5189 594.562 89.5372 594.724 89.4784 594.9C89.2453 595.595 82.4105 596.309 86.0223 597.052C88.9565 597.198 86.9711 596.367 88.1678 596.324C96.8163 596.021 96.3142 597.185 99.8485 596.874C100.405 596.375 100.99 595.867 101.559 595.363C102.892 595.509 104.229 595.656 105.575 595.802C105.886 595.467 106.21 595.131 106.52 594.796C105.265 594.774 103.85 594.751 102.698 594.729C102.838 594.616 103.078 594.51 103.395 594.409H95.8885C93.8028 594.57 91.9723 594.791 91.2098 595.496C90.8782 595.077 91.5367 594.715 92.2831 594.409H89.4364ZM332.461 594.409L332.482 596.081L330.765 596.104C330.493 596.107 330.221 596.111 329.949 596.115C330.219 596.336 330.492 596.557 330.765 596.779L333.166 596.746L333.135 594.409C333.402 594.079 333.669 593.749 333.936 593.423C333.417 591.442 332.896 589.457 332.377 587.476C332.406 589.782 332.432 592.092 332.461 594.409ZM264.04 594.409C270.055 595.574 275.469 596.788 285.13 595.842C287.278 595.631 286.111 594.576 292.208 595.86C291.713 595.297 292.244 594.835 293.13 594.409H290.998C290.752 594.461 290.48 594.507 290.18 594.545C285.635 595.121 279.007 594.066 279.278 595.757C277.467 595.678 275.781 595.631 274.021 595.564C274.685 595.18 275.335 594.793 275.986 594.409H275.306C272.227 594.765 269.889 594.762 267.994 594.409H264.04ZM109.866 594.409C108.716 594.604 108.186 594.93 109.598 595.746C113.546 595.525 118.027 595.299 122.182 595.078C122.312 595.409 122.433 595.74 122.562 596.071C126.839 595.907 124.88 595.097 123.72 594.409H109.866ZM181.6 594.409C183.768 594.675 185.279 595.227 185.824 595.281C191.687 595.854 194.315 595.328 199.092 596.045C198.847 595.485 198.706 594.953 198.516 594.409H197.986C193.931 595.195 191.655 595.151 185.755 594.967C187.813 594.848 189.873 594.726 191.931 594.607C191.885 594.541 191.84 594.474 191.794 594.409H181.6ZM331.938 569.626C331.835 569.382 331.278 570.436 330.765 570.282V588.786C330.894 588.924 331.023 589.063 331.152 589.201C331.13 591.43 330.984 593.029 330.765 594.12V594.409H324.25C329.38 594.747 328.051 595.649 330.765 595.673L332.046 595.657L332.029 594.409C332.04 593.168 331.867 591.083 331.373 587.152C331.78 586.802 332.196 586.426 332.6 586.103C332.625 581.51 331.705 581.882 331.531 577.934C331.423 575.461 333.038 572.357 331.938 569.626ZM171.44 594.409C171.961 594.663 172.434 594.992 172.846 595.414C176.378 595.499 175.258 594.7 176.303 594.521C176.559 594.477 176.811 594.44 177.06 594.409H171.44ZM140.698 594.409C140.901 594.703 141.087 595.003 141.232 595.318C147.717 594.521 150.669 595.802 158.281 594.875C159.228 594.76 160.243 594.587 161.287 594.409H153.04C151.667 594.629 150.086 594.695 149.037 594.409H140.698ZM133.944 594.409C133.909 594.718 134.214 594.959 136.423 594.875C136.356 594.724 136.243 594.566 136.137 594.409H133.944ZM128.564 594.736C128.574 594.644 128.606 594.531 128.673 594.409H127.994C128.18 594.519 128.369 594.629 128.564 594.736ZM8.50671 589.41C9.15498 593.825 9.49175 595.303 10.5399 593.218C10.5404 593.214 10.5414 593.209 10.5419 593.204C10.0775 591.56 9.61269 589.915 9.14831 588.271C8.93471 588.646 8.7203 589.021 8.50671 589.41ZM11.9999 582.881C11.2931 580.401 10.523 581.314 9.65515 583.186C9.78911 584.001 9.9245 584.8 10.0585 585.615C10.7065 585.379 11.3524 585.145 11.9999 584.904V582.881ZM51.0106 534.943C47.3735 534.847 42.5874 534.777 38.9364 534.842C37.3646 534.871 37.7093 535.114 36.9227 535.219C36.1357 535.322 35.6133 535.143 35.1385 535.231C34.6639 535.319 35.082 535.533 34.8505 535.602C34.5172 535.701 33.1671 535.798 33.0809 535.818C31.9721 536.111 33.8445 535.981 33.9032 536.102C34.1028 536.507 33.8111 536.92 33.6991 537.317H32.7294C32.448 537.317 32.1696 537.331 31.8944 537.355C32.4158 537.175 32.8479 537.018 32.6932 537.016C30.615 536.777 29.3969 537.704 27.6766 538.552C27.2026 538.808 27.483 538.516 27.8221 538.231C28.1597 537.946 28.5583 537.683 28.162 537.869C26.0101 539.017 25.8975 539.722 26.4618 539.434C26.6432 539.364 26.9051 539.233 27.2382 539.072C26.007 539.949 24.9958 541.113 24.2997 542.466C24.2167 542.47 24.1389 542.509 24.1024 542.567C23.6321 543.488 23.5327 544.074 23.5321 544.506C23.413 544.987 23.3325 545.482 23.2899 545.989C23.2185 546.075 23.1335 546.171 23.0253 546.272C23.0791 546.43 23.1219 546.604 23.1591 546.793C23.2089 547.043 23.2366 547.321 23.2538 547.62V559.246C23.2075 559.155 23.158 559.067 23.1132 559.51C23.0197 560.435 23.2274 560.999 22.9901 562.204C22.9275 562.52 22.5688 564.351 22.8036 565.462C22.8226 565.555 22.9076 565.586 22.9637 565.653C22.9869 565.681 23.0056 565.716 23.0126 565.764C23.1119 566.431 23.0502 567.102 23.287 567.78C23.3436 567.94 23.4118 567.543 23.5135 567.859C24.0346 570.044 25.3106 571.935 27.0526 573.241C27.1179 573.303 27.1848 573.365 27.2548 573.423C27.9313 573.956 28.4905 574.208 29.035 574.382C29.7062 574.667 30.4174 574.873 31.1571 574.996C31.3835 575.094 31.4881 575.156 32.0594 575.219C32.2848 575.237 32.5059 575.245 32.7303 575.244C34.9836 575.24 37.1578 575.124 39.5135 575.17C40.1305 575.182 40.6057 575.352 41.4696 575.36C41.8154 575.363 42.232 575.235 42.5653 575.129H68.9872C69.1011 575.171 69.2435 575.206 69.4247 575.233C70.9726 575.458 73.2707 575.173 74.0702 575.188C78.4316 575.269 81.3299 575.457 85.4012 575.339C85.4989 575.335 85.1607 575.151 85.6327 575.129H86.2333C87.4232 575.142 88.8645 575.194 89.9198 575.202C90.1477 575.203 90.3581 575.171 90.5438 575.129H96.0643C96.182 575.167 96.2894 575.204 96.3846 575.244C97.2431 575.606 97.6424 575.181 98.3729 575.395C98.5984 575.462 98.4283 575.583 98.5848 575.619C99.76 575.886 101.225 575.544 101.804 575.497C104.196 575.302 107.445 575.528 109.168 575.543C110.888 575.558 109.684 575.749 109.744 575.771C110.723 576.078 110.934 575.657 111.064 575.646C114.727 575.345 117.854 575.653 121.692 575.498C122.046 575.482 122.76 575.076 123.814 575.373C123.881 575.393 123.526 575.568 124.071 575.587C125.657 575.645 127.429 575.621 129.069 575.638C130.038 575.22 132.424 575.082 132.372 575.688C134.9 575.725 138.849 575.956 141.069 575.92C143.901 575.874 144.216 575.496 146.836 575.575C147.239 575.587 146.868 575.784 146.984 575.792C149.658 575.954 148.62 575.548 149.279 575.186C149.481 575.076 150.583 575.237 150.885 575.187C150.995 575.169 151.091 575.149 151.175 575.129H156.204C156.496 575.27 156.558 575.448 156.392 575.661C157.361 575.451 157.502 575.253 157.886 575.129H160.572C160.552 575.193 160.532 575.266 160.849 575.277C164.948 575.409 169.213 575.418 173.318 575.568C173.834 575.587 173.398 575.782 173.532 575.789C175.878 575.919 174.786 575.55 175.451 575.198C175.492 575.176 175.567 575.154 175.67 575.129H180.582C180.728 575.342 179.938 575.983 181.956 575.854C184.103 575.716 182.837 575.416 186.296 575.517C188.21 575.573 189.273 575.545 192.558 575.577C195.852 575.611 203.498 575.928 207.594 575.68C208.533 575.623 207.865 575.312 207.929 575.129H208.764C208.867 575.213 208.512 575.352 208.824 575.458C209.304 575.623 210.072 575.331 210.777 575.578C210.969 575.646 211.712 575.975 212.776 575.72C212.837 575.702 212.454 575.535 213.169 575.512C214.637 575.465 215.504 575.541 215.325 575.129H215.435C216.704 575.334 215.188 575.866 217.245 575.779C217.337 575.774 216.929 575.562 217.546 575.553C225.423 575.44 232.885 575.781 240.976 575.756C241.14 575.756 242.953 575.658 243.415 575.58C243.487 575.566 242.977 575.364 243.919 575.359C244.867 575.353 247.357 575.347 248.331 575.404C249.309 575.46 248.345 575.616 248.865 575.653C250.037 575.735 248.971 575.469 249.902 575.429C251.164 575.375 253.279 575.411 254.453 575.465C255.237 575.501 254.798 575.663 254.952 575.704C256.049 575.991 257.745 575.6 258.089 575.57C260.186 575.384 261.296 575.587 263.14 575.535C263.604 575.521 263.179 575.372 263.701 575.389C265.633 575.453 267.278 576.103 269.389 575.774C270.282 575.634 268.76 574.935 271.476 575.2C271.884 575.24 271.312 575.36 271.771 575.431C272.233 575.503 274.109 575.708 274.633 575.611C274.895 575.561 274.936 575.315 275.075 575.129H276.462C277.178 575.401 276.707 575.506 278.952 575.725C279.016 575.734 278.371 575.922 279.318 575.959C280.27 575.997 283.661 575.987 284.428 575.998C286.35 576.026 285.979 575.441 286.223 575.404C288.143 575.112 288.591 575.613 289.849 575.764C290.398 575.829 290.955 575.755 291.516 575.814C291.696 575.833 291.415 576.022 291.482 576.024C293.635 576.023 293.375 574.993 294.972 575.191C295.163 575.216 294.568 575.527 295.143 575.657C295.306 575.693 297.089 576.172 297.676 576.073C300.007 575.675 299.331 575.35 302.855 575.467C303.147 575.477 302.885 575.686 303.032 575.691C305.312 575.78 307.594 575.842 309.878 575.883C315.327 576.112 320.336 571.159 320.194 565.653C320.194 561.318 320.196 556.976 320.262 552.627C319.839 551.069 320.017 549.024 320.02 546.793C320.021 546.319 319.983 545.84 319.895 545.361C319.82 544.981 319.31 544.358 319.201 543.185C319.192 543.11 319.649 543.813 319.246 542.737C317.84 539.125 313.991 536.378 309.878 536.407C306.472 536.381 303.061 536.383 299.743 536.411C298.702 536.42 299.535 536.64 299.166 536.648C296.068 536.71 294.019 536.268 290.812 536.396C290.559 536.405 289.702 536.828 288.717 536.53C288.655 536.51 288.847 536.338 288.504 536.321C286.867 536.238 286.487 536.62 284.78 536.527C284.393 536.505 285.137 536.302 284.328 536.278C280.685 536.172 276.83 536.152 273.11 536.186C272.394 536.193 273.273 536.431 272.529 536.43C269.317 536.424 266.798 536.515 263.35 536.284C262.898 536.253 260.82 535.826 259.572 536.084C259.424 536.116 259.566 536.293 259.043 536.315C256.467 536.417 253.621 536.352 251.017 536.424C250.399 536.441 250.934 536.639 250.522 536.661C248.694 536.757 250.138 536.531 248.651 536.414C246.343 536.233 243.209 536.197 240.628 536.161C238.365 537.063 232.335 536.654 228.525 536.484C227.904 536.455 228.705 536.248 228.083 536.232C221.872 536.073 215.677 536.047 209.439 536.075C208.853 536.077 209.414 536.313 208.934 536.315C204.38 536.333 200.405 536.225 195.717 536.211C191.781 536.2 187.358 536.28 183.223 536.281C177.774 536.281 172.796 536.04 166.992 536.218C166.674 536.229 164.2 536.651 163.149 536.346C163.022 536.31 163.328 536.152 162.607 536.105C161.886 536.058 159.748 536.042 158.939 536.076C158.132 536.11 158.8 536.31 158.295 536.32C155.922 536.364 153.291 536.267 151.08 536.262C149.462 536.26 149.179 536.262 147.469 536.231C146.581 536.215 144.408 536.25 143.263 536.203C142.759 536.183 143.223 535.987 143.097 535.973C141.243 535.768 143.087 536.134 141.247 536.164C136.919 536.236 131.918 536.219 127.421 536.024C126.288 535.974 126.863 535.602 125.129 535.834C125.018 535.85 125.364 536.034 124.783 536.044C119.801 536.128 113.937 535.937 109.114 535.906C94.4864 535.81 80.2809 535.731 65.8299 535.511C62.8963 535.466 60.1556 535.52 57.2596 535.427C56.7313 535.41 57.3575 535.2 56.8544 535.179C55.3336 535.118 53.8991 535.183 52.3602 535.131C51.574 535.105 52.1497 534.972 51.0106 534.943ZM305.701 575.487C304.676 575.079 309.353 575.12 308.147 575.508C308.072 575.528 305.766 575.508 305.701 575.487ZM200.576 575.129C200.573 575.131 200.57 575.133 200.567 575.134C200.55 575.141 200.021 575.135 199.722 575.129H200.576ZM332.227 535.039C333.73 528.104 332.437 520.378 330.765 521.802V522.868C331.076 523.604 331.51 522.394 331.112 525.07C330.996 525.165 330.881 525.263 330.765 525.361V558.433C331.158 557.868 331.577 557.526 331.806 555.655C332.3 551.602 330.365 542.332 332.558 539.6C332.268 541.723 332.111 544.427 331.873 546.783C332.3 547.74 332.723 548.673 333.147 549.618C332.596 544.232 333.246 538.665 332.227 535.039ZM11.9452 553.236C11.9633 553.239 11.9818 553.241 11.9999 553.244V552.668C11.9816 552.857 11.9635 553.047 11.9452 553.236ZM335.161 541.255C332.993 544.634 334.388 551.443 335.143 550.252C335.106 548.001 334.781 546.498 334.897 543.988H334.894C334.908 543.714 336.077 540.984 335.161 541.255ZM10.4022 514.77C10.1787 515.935 9.92807 517.138 9.72448 518.289C9.56094 520.228 10.1941 519.239 10.1815 519.442C9.8487 524.348 9.55819 525.04 10.035 531.06C10.2014 531.798 10.3764 532.523 10.5477 533.261C12.0046 530.794 11.4684 528.926 11.9999 524.432V523.057C11.5226 523.954 11.0453 524.849 10.5663 525.747C10.6855 522.473 10.8035 519.211 10.9227 515.936C10.7489 515.548 10.576 515.158 10.4022 514.77ZM330.765 518.51C330.883 518.638 331.018 518.855 331.173 519.17C331.203 518.303 331.232 517.443 331.262 516.576C331.096 516.547 330.93 516.521 330.765 516.494V518.51ZM330.765 508.525C330.868 507.626 330.984 506.455 331.12 504.951C331.001 504.944 330.883 504.935 330.765 504.928V508.525ZM330.765 470.252C330.835 471.816 330.848 473.22 330.772 474.185C330.77 474.183 330.767 474.181 330.765 474.179V497.23C331.145 495.072 331.442 492.702 331.42 487.992C333.136 495.112 330.095 499.007 333.537 498.982C333.311 500.769 333.081 502.57 332.855 504.357C333.355 504.629 333.855 504.899 334.354 505.158C334.091 495.564 330.807 479.629 332.984 473.205C332.719 472.429 332.488 471.649 332.202 470.86C333.516 464.567 330.567 461.849 332.265 455.466C332.445 454.809 335.215 456.184 335.116 447.877C334.756 448.084 334.149 448.192 333.695 448.36C333.916 446.561 334.147 444.772 334.373 442.986C334.04 442.662 333.708 442.322 333.373 441.998C333.244 445.067 333.112 448.127 332.983 451.196C332.869 448.646 332.755 446.08 332.64 443.531C332.097 446.857 332.091 448.357 331.22 446.352C331.167 443.465 331.112 440.573 331.059 437.686C330.961 437.555 330.863 437.425 330.765 437.295V470.252ZM11.9999 468.813C10.812 472.725 10.1332 473.743 8.47448 470.772C8.64336 474.746 8.40191 477.219 9.32311 477.581C8.92335 478.41 8.52268 479.243 8.12292 480.059C8.13288 481.352 8.17037 482.517 8.16296 483.888C9.55293 482 8.69699 485.66 9.32702 488.262C9.9579 490.864 11.0553 487.373 11.0702 494.52C11.3956 492.138 11.6753 489.959 11.9833 487.655C11.9888 487.726 11.9944 487.797 11.9999 487.868V478.322C11.3375 479.641 10.6565 480.877 9.86218 479.976C10.1657 475.784 11.1441 476.174 11.9999 475.589V468.813ZM11.9999 441.049C10.5693 446.264 10.221 454.985 10.8768 465.921C11.7063 464.381 11.2795 459.728 11.5526 457.048C11.6699 455.898 11.8276 455.776 11.9999 455.747V441.049ZM334.873 417.864C334.588 417.794 335.064 413.118 334.443 414.579C333.378 417.104 333.99 426.538 332.691 426.564C333.116 423.249 332.761 416.777 331.894 418.692C330.943 420.789 332.537 426.889 331.748 430.773C333.824 425.207 333.183 436.703 331.589 438.011C332.813 444.756 333.313 438.556 333.256 431.642C334.478 435.862 333.817 429.651 334.833 428.627C335.446 432.98 334.935 447.915 336.572 440.963C337.153 438.49 334.391 433.868 336.43 426.916C335.821 425.26 335.24 424.221 334.644 422.797C335.293 421.969 335.949 421.027 336.593 420.238V420.224C336.374 413.919 335.561 418.005 334.873 417.864ZM11.9999 405.855C11.9243 407.042 11.8043 408.226 11.5917 409.414C10.6454 414.681 9.73577 408.201 10.9403 420.474C11.3666 416.65 11.7164 413.981 11.9999 412.251V405.855ZM331.099 396.283C330.913 395.718 330.85 396.77 330.765 397.658V416.911C331.144 416.805 331.473 416.661 331.841 416.56C330.554 408.351 330.938 405.654 331.867 397.096C331 402.637 331.564 397.694 331.099 396.283ZM11.9999 377.744C11.2739 379.103 10.4027 379.652 10.0243 379.277C10.5458 382.241 10.5897 386.575 11.4042 387.184C11.424 388.698 11.4429 390.202 11.4628 391.716C9.47937 390.139 9.84195 396.455 11.5477 396.87C11.5899 394.268 11.6344 391.662 11.6766 389.06C11.7864 389.163 11.895 389.238 11.9999 389.291V377.744ZM331.363 381.883C331.327 381.718 331.032 382.741 330.765 382.66V390.765C331.471 390.477 331.933 384.692 331.363 381.883ZM11.9999 366.325C11.5015 368.267 11.1567 370.431 11.4305 372.177C11.6092 372.15 11.8008 372.089 11.9999 372.019V366.325ZM330.765 371.011C330.984 369.809 331.252 368.648 331.545 367.449C331.288 367.351 331.021 367.017 330.765 366.486V371.011ZM330.765 343.067C331.448 343.532 332.159 344.23 332.494 340.554C330.502 338.431 330.31 332.373 331.574 324.658C331.564 323.803 331.561 322.946 331.549 322.091C331.316 321.977 330.985 321.953 330.765 321.829V343.067ZM335.536 324.009C333.646 320.411 334.584 326.313 333.857 327.79C333.676 326.56 333.5 325.302 333.318 324.085C332.784 331.439 333.234 332.513 334.615 329.832C334.708 329.64 334.441 326.703 334.644 326.417C334.848 326.133 336.142 328.553 335.536 324.009ZM9.88073 323.48C10.3253 320.282 10.7682 317.073 11.2128 313.875C11.4747 315.093 11.7377 316.31 11.9999 317.528V311.452C11.3903 311.092 10.7803 310.733 10.1698 310.377C10.0729 314.74 9.97758 319.105 9.88073 323.48ZM333.248 267.84C330.569 261.238 335.088 255.62 331.423 257.898C331.28 261.062 331.081 263.429 330.765 265.43V280.424C330.873 280.54 330.967 280.76 331.048 281.052C330.954 280.888 330.859 280.727 330.765 280.574V289.072C331.228 290.143 331.499 293.445 331.73 293.948C332.751 296.161 333.094 289.583 332.694 297.57H332.697C332.434 302.852 332.364 304.019 332.284 308.913C331.553 307.931 331.083 304.415 330.765 303.86V311.43C330.871 311.705 330.943 312.156 330.906 312.914C330.897 313.099 330.843 313.395 330.765 313.795V317.146C331.366 311.814 333.408 310.597 333.643 309.886C334.932 305.976 333.149 302.931 333.134 301.779C333.072 296.924 333.863 295.512 333.523 290.891C333.156 285.921 332.549 289.319 332.005 287.807C331.573 286.594 331.495 282.672 331.048 281.052C331.414 281.695 331.773 282.412 332.14 283.053C332.64 277.901 333.126 273.691 333.248 267.84ZM11.9999 284.694C11.7018 286.474 11.3564 288.192 11.3475 290.438C11.5633 290 11.7826 289.564 11.9999 289.128V284.694ZM335.576 278.085C332.792 277.076 334.044 286.355 334.908 286.02C334.942 284.739 334.471 283.743 334.68 282.384C334.888 281.012 335.539 280.661 335.576 278.085ZM10.7128 252.414C11.0729 254.201 11.4303 256.003 11.788 257.803C10.5471 258.075 10.1986 257.803 10.4169 264.84C10.1239 261.786 9.82653 258.745 9.53112 255.678C9.28056 255.574 9.01938 255.148 8.77624 255.25C9.2529 259.007 9.45869 269.583 9.78893 272.147C10.1193 274.71 10.2098 269.761 10.5301 270.498C13.1721 276.647 11.2232 276.16 11.6766 280.572C11.786 281.627 11.8964 281.224 11.9999 280.471V245.171C11.5698 247.585 11.1407 250.001 10.7128 252.414ZM334.508 243.022C330.527 233.637 332.967 254.774 334.323 250.749C334.385 250.563 334.068 243.902 334.508 243.022ZM11.9999 224.483C11.937 224.956 11.8595 225.454 11.7616 225.975C11.5058 227.347 10.859 224.177 10.5311 226.093C10.3835 226.962 10.8718 229.071 10.495 231.192C10.3086 232.228 9.10688 237.07 9.67761 240.423C10.5091 239.069 11.2734 240.39 11.9999 240.941V234.572C11.8289 234.447 11.6572 234.324 11.4862 234.2C11.4341 232.168 11.3821 230.146 11.3299 228.115C11.3304 228.11 11.3304 228.105 11.3309 228.1C11.5538 228.296 11.7784 228.488 11.9999 228.683V224.483ZM330.765 234.64C330.952 236.118 331.072 237.866 331.013 240.615C331.862 238.983 331.687 235.141 332.705 237.626C332.457 230.391 331.565 232.627 330.765 229.92V234.64ZM7.25768 189.491C7.08186 192.996 7.95644 191.495 8.12292 192.906C8.74873 198.239 8.1233 201.878 8.5155 207.147C8.34663 206.797 8.18917 206.476 8.02526 206.139V206.153C7.28765 231.101 9.27198 217.997 8.94909 203.069C9.27445 202.719 9.60082 202.383 9.9237 202.034C9.35496 195.353 8.80739 189.193 7.25768 189.491ZM330.765 207.879C331.217 209.637 331.669 211.395 332.119 213.154C332.315 211.627 332.51 210.099 332.706 208.573C331.207 197.757 333.65 179.668 330.765 179.694V207.879ZM11.9999 202.66V193.458C11.6745 193.366 11.3478 193.275 11.0233 193.182C11.3485 196.337 11.6746 199.503 11.9999 202.66ZM330.765 172.09C330.881 171.66 331.007 171.196 331.141 170.66C331.01 170.515 330.888 170.372 330.765 170.23V172.09ZM11.9999 152.94C11.4638 153.604 11.0813 154.684 11.7264 157.883C10.9371 157.741 10.2267 157.626 9.4696 157.484C9.61363 158.79 9.80462 159.658 9.91882 161.237C11.4573 156.581 11.392 160.392 11.3944 162.348C11.3977 164.366 11.7229 163.021 11.9999 162.081V152.94ZM331.331 150.989C331.549 151.814 331.768 152.661 331.985 153.487C331.52 147.626 333.19 147.528 332.258 141.799C331.95 144.867 331.639 147.934 331.331 150.989ZM9.73132 131.665C9.43862 131.262 9.23971 137.475 8.38854 133.156C8.32155 135.045 8.33591 136.676 8.2987 138.461C7.93623 138.591 7.57328 138.719 7.21081 138.862C7.34211 136.653 7.47502 134.459 7.60632 132.251C6.51344 134.963 6.11704 141.925 7.30554 145.327C7.44463 143.54 7.58441 141.752 7.7235 139.965C7.86006 143.343 8.0104 146.683 8.13952 150.087C9.66179 150.268 8.77841 146.345 9.19811 140.442C9.26594 139.527 11.1557 133.683 9.73132 131.665ZM11.3094 136.067C10.5604 142.919 11.2973 145.248 11.9999 146.56V142.404C11.8078 140.087 11.7229 137.183 11.3094 136.067ZM330.765 117.635V124.899C331.781 123.508 332.741 121.743 332.419 117.202C331.867 117.347 331.316 117.49 330.765 117.635ZM330.765 112.561C330.974 112.474 331.183 112.393 331.392 112.303C331.318 113.183 331.244 114.052 331.167 114.932C331.574 114.168 331.979 113.419 332.387 112.668C331.846 110.313 331.305 107.956 330.765 105.591V112.561ZM9.41393 101.755C9.69459 108.76 10.2185 111.245 11.4628 107.296C11.1772 104.824 10.8918 102.338 10.6063 99.8656C10.2091 100.5 9.81112 101.134 9.41393 101.755ZM330.789 94.5638C330.78 94.5672 330.772 94.5737 330.765 94.5814V96.5931C330.803 97.1547 330.827 97.6806 330.765 97.9398V102.536C330.934 102.746 331.114 102.986 331.31 103.23C331.216 101.975 331.124 100.705 331.03 99.4496C332.135 100.278 332.794 98.1543 332.705 105.494C333.02 104.989 333.321 104.473 333.648 103.982C333.599 102.778 333.865 101.997 333.743 100.677C333.41 97.0782 331.47 94.3184 330.789 94.5638ZM8.36608 99.4652C7.89418 95.7105 8.25406 88.1105 6.95007 90.0267V90.013C6.87191 90.1514 6.40271 96.9553 6.83874 97.8363C7.33038 98.561 7.85708 98.9217 8.36608 99.4652ZM11.1688 54.2796C12.1122 65.698 10.7786 79.0704 11.8436 90.1781C11.8767 90.5242 11.9313 90.8266 11.9999 91.1039V55.5209C11.8554 54.6772 11.6249 54.1746 11.1688 54.2796ZM331.71 21.5668C331.504 22.8872 331.318 24.2217 331.124 25.555C330.989 24.8042 330.868 24.1741 330.765 23.6537V83.5296C331.376 82.3525 331.986 82.7033 332.806 88.596C332.9 84.687 332.995 80.791 333.095 76.8949C333.311 77.6971 333.524 78.4999 333.74 79.3021C333.626 81.0626 333.514 82.813 333.402 84.5736C333.797 82.5027 334.189 80.4276 334.584 78.3568C334.095 73.4633 333.342 71.5448 332.413 69.305C331.735 75.0003 332.662 73.1398 332.846 77.5775C332.257 77.4226 331.716 77.6275 331.098 77.2396C332.316 74.9464 331.43 67.4655 331.37 65.7308C331.189 60.4519 332.387 64.5914 332.412 61.0599C332.437 57.5253 331.724 53.3563 332.911 50.4691C332.246 50.521 331.557 50.7523 330.951 50.9593C330.733 45.4575 331.519 46.5539 331.621 45.9847C333.295 36.8957 331.881 31.9635 331.71 21.5668ZM330.765 19.2044C330.989 18.9267 331.221 18.6449 331.474 18.3587C331.07 17.1173 330.857 16.0243 330.765 15.0628V19.2044ZM325.567 8.83238H330.765V12.6507C330.875 11.5197 331.108 10.6678 331.191 10.0306C331.25 9.58556 331.288 9.18886 331.312 8.83238L331.306 8.27671L330.765 8.28452C327.742 8.08145 327.607 8.9339 325.326 7.75913C325.415 8.14577 325.485 8.47958 325.567 8.83238ZM55.201 7.46616C51.6798 8.02892 49.4989 8.50649 47.1307 8.83238H55.0848C56.6548 8.70237 58.1795 8.6466 60.6024 8.83238H61.079C59.1166 8.37772 57.1233 7.92058 55.201 7.46616ZM96.7294 8.83238H99.4911C99.5911 8.6345 99.7668 8.44853 100.034 8.28355C98.9341 8.4663 97.832 8.64957 96.7294 8.83238ZM137.051 8.70152C131.009 6.18421 131.129 7.36446 132.549 8.83238H147.946C145.26 8.3695 144.041 7.86354 146.662 7.40659C143.102 7.80896 140.313 8.27431 137.051 8.70152ZM169.263 8.83238C165.935 8.18503 162.669 7.73087 158.377 8.65855C159.787 8.73144 160.788 8.78792 161.501 8.83238H169.263ZM205.536 5.17515C198.389 6.32511 194.695 8.20111 184.105 7.58042C185.832 7.99675 187.56 8.41518 189.285 8.83238H194.479C194.808 8.62763 195.137 8.42516 195.462 8.22105C200.342 8.4222 205.237 8.62146 210.117 8.82261C210.92 8.24896 211.708 7.67654 212.511 7.10288C213.805 7.17737 215.087 7.25007 216.382 7.32456C216.058 7.73927 215.732 8.15204 215.395 8.56675C217.958 8.46495 220.524 8.36094 223.074 8.25913C222.574 8.49471 222.037 8.68259 221.474 8.83238H242.181C241.968 8.82479 241.738 8.81609 241.489 8.8021C236.375 8.51395 232.58 6.40593 223.868 7.22007C223.427 7.2628 220.847 8.87648 217.727 7.75913C217.018 7.50582 220.005 7.13087 218.376 6.7982C216.744 6.46539 209.465 6.19203 208.895 5.39976C208.973 5.68015 209.427 5.97085 209.647 6.2562C208.405 6.39027 207.15 6.52501 205.894 6.65659C205.778 6.16244 205.653 5.66682 205.536 5.17515ZM263.733 7.94077C256.897 8.63618 251.936 7.7022 245.035 7.9232C244.096 7.95396 245.734 8.71157 243.586 8.83238H272.526C272.516 8.80246 272.505 8.77209 272.496 8.74058C269.376 8.72814 266.423 8.63196 263.368 8.58726C266.345 8.43825 269.324 8.29388 272.289 8.14488C269.752 7.50415 267.23 6.8647 264.692 6.22398C264.369 6.79522 264.044 7.37698 263.733 7.94077ZM300.322 6.45542C296.633 7.27229 293.473 6.43639 290.366 6.6273C287.272 6.81857 288.449 7.69573 284.811 8.03355C284.138 8.09543 282.736 7.54675 281.079 7.95152C280.563 8.07714 279.618 8.45167 278.537 8.83238H301.433C301.086 8.0466 300.759 7.26761 300.322 6.45542ZM41.4364 7.62339C37.8247 7.34031 32.6197 7.52568 28.6581 7.46616C28.9695 8.48175 39.039 8.20116 42.5751 8.81675C43.1429 8.63432 42.9628 7.74252 41.4364 7.62339ZM307.118 7.66245C308.412 7.65252 309.694 7.64264 310.988 7.63023C310.846 7.42895 310.676 7.21891 310.513 7.01206C310.395 6.84857 310.277 6.68532 310.16 6.52183C310.91 7.10618 317.077 8.0773 319.675 7.45347C320.981 7.14039 318.009 6.02836 323.546 5.83433C319.533 5.89149 315.816 6.04368 311.92 6.13804C312.269 5.80771 312.605 5.47325 312.955 5.14292C312.953 5.1425 312.95 5.1424 312.948 5.14195C311.654 5.06746 310.344 4.98889 309.05 4.91441C308.402 5.83085 307.765 6.74601 307.118 7.66245Z" fill="white"/>
</svg>
