<svg width="620" height="693" viewBox="0 0 620 693" fill="none" xmlns="http://www.w3.org/2000/svg">
<path d="M79.9091 0.629251C221.736 -1.04474 360.441 1.19437 501.377 0.811868C502.825 0.805891 502.194 0.342706 502.81 0.32261C506.646 0.20622 510.414 0.928427 511.832 0.958352C514.862 1.01971 513.194 0.35246 515.407 0.351907C538.281 0.359358 559.867 0.752283 582.76 0.63804C584.25 0.630647 582.729 1.164 585.347 1.06968C586.698 1.01798 590.93 0.199337 593.98 0.186868C599.612 0.164566 604.767 0.227026 610.035 0.289407L618.497 0.209329L618.578 8.83238C618.522 13.5316 618.468 18.3211 618.474 23.6185C618.481 29.7643 618.411 38.9852 618.424 45.8568C618.429 48.8916 618.804 52.0537 618.816 55.0521C618.834 59.3054 618.074 58.4388 618.026 59.0921C617.82 61.9647 618.654 62.3633 618.635 65.0902C618.595 70.1631 618.038 70.4372 618.085 76.8734C618.12 81.4738 618.559 92.0017 618.688 97.8021C618.043 111.366 618.299 128.46 618.513 141.115C618.639 148.605 617.86 149.3 617.862 152.355C617.877 163.118 618.873 171.286 618.905 181.395C618.947 194.81 618.289 206.7 618.242 219.698C618.235 221.805 618.948 221.322 618.967 223.389C619.034 231.044 619.164 240.833 619.062 247.652C618.95 255.251 617.914 258.055 618.125 265.491C618.188 267.67 619.096 268.31 619.213 271.963C619.396 277.799 618.595 284.198 618.506 288.271C618.387 293.853 619.313 288.999 619.188 296.526C619.183 296.835 618.521 297.962 618.553 299.578C618.642 304.288 619.163 303.821 619.113 310.711C619.106 311.372 618.476 320.506 618.474 321.418C618.464 326.764 618.243 337.527 618.377 340.692C618.854 352.001 619.849 343.098 617.688 352.716C618.217 356.951 618.753 361.152 619.267 365.642C618.788 362.647 618.096 374.804 618.141 375.661C618.501 382.73 619.342 378.52 619.203 387.483C617.261 375.646 618.952 399.046 619.002 404.265C619.243 429.393 618.758 452.234 618.77 477.489C618.776 485.943 619.187 497.274 619.177 506.218C619.176 508.303 618.716 506.729 618.706 508.564C618.699 510.393 619.216 508.364 619.188 510.452C619.009 523.453 618.036 533.639 619.253 545.548C619.077 546.128 618.937 546.11 618.744 547.07C619.834 556.816 618.368 575.585 618.167 582.64C617.854 593.674 618.591 596.494 618.442 604.51C618.244 615.11 616.804 631.025 619.181 623.918C619.255 631.19 619.276 638.191 619.055 645.536C619.029 646.352 618.426 645.79 618.413 646.117C618.326 648.189 618.868 648.864 618.892 650.264C618.959 654.059 618.311 647.866 618.492 653.278C618.589 656.132 619.061 657.753 619.071 665.68C619.077 670.688 619.079 675.742 619.08 680.832L619.165 689.791L610.035 689.877C566.559 689.886 520.391 689.743 476.54 689.672C473.177 689.667 475.39 690.251 471.172 690.214C456.516 690.085 430.283 689.102 417.646 689.236C405.011 689.37 407.861 690.224 399.953 690.581C398.427 690.651 399.678 690.164 398.297 690.157C389.006 690.112 377.928 689.353 370.4 689.239C365.423 689.162 365.82 689.928 362.367 689.983C357.222 690.062 351.925 689.288 349.18 689.263C336.272 689.154 327.398 689.777 315.344 689.459C315.815 689.628 316.127 689.785 316.526 689.951C302.254 689.923 287.999 689.896 273.727 689.869C274.4 690.022 275.051 690.178 275.724 690.334C258.979 690.25 260.888 688.581 262.361 692.105C261.144 692.229 259.852 692.372 258.688 692.487C259.16 690.671 249.031 689.343 236.142 688.881C235.195 688.847 228.852 690.616 229.543 688.525C227.888 689.036 226.902 689.39 225.502 689.839C222.775 689.206 220.012 688.58 217.285 687.95C215.813 688.044 214.32 688.135 212.848 688.229C212.629 688.639 212.797 689.065 212.324 689.467C205.488 689.529 191.467 689.023 186.065 689.075C172.647 689.206 158.985 690.314 148.548 689.117C143.465 689.239 148.512 690.043 140.951 689.942C140.097 689.535 139.293 689.144 138.402 688.724C132.223 690.543 130.931 689.437 122.463 689.057C116.736 688.799 112.985 689.243 107.531 689.157C106.15 689.134 106.345 688.6 105.399 688.618C102.232 688.673 93.1974 689.407 90.9618 689.427C70.7078 689.621 53.3072 689.538 34.0165 689.342C31.9444 689.322 34.6307 689.85 32.4853 689.827C29.0346 689.792 31.0643 688.983 29.0653 688.943C23.4879 688.836 23.4443 689.69 15.664 689.735C14.4511 689.742 13.2293 689.747 11.9999 689.75L3.1669 689.834L3.08194 680.832C3.01059 656.094 3.59588 628.155 3.6503 602.659C3.65017 601.822 3.14952 601.872 3.14444 600.963C3.12 595.037 3.79638 589.038 3.78897 583.658C3.77902 574.73 3.07653 568.019 3.07901 559.201C3.0815 541.963 3.44097 526.562 3.46085 508.834C3.47823 494.325 3.41149 481.723 3.41397 465.813C3.4239 396.317 1.83608 325.401 2.68058 255.432C2.70301 253.652 3.14503 254.376 3.12589 253.833C2.93462 248.67 2.3377 248.209 3.58683 246.372C3.34062 239.795 2.40263 237.718 2.46964 229.775C2.50485 225.541 3.95882 228.701 3.2089 221.538C2.53089 215.071 1.73419 222.207 2.54874 202.973C2.57144 202.463 3.45725 199.956 3.22647 195.957C2.99793 191.94 2.36303 196.59 2.17179 186.917C1.72476 164.208 2.49162 135.462 2.25577 109.062C2.24081 107.406 1.76633 91.471 1.54776 88.3255C1.12305 82.2386 0.464115 83.5095 0.302646 75.6029C0.17853 69.4937 0.925278 64.4529 0.776278 57.2709C0.757981 56.4343 -0.0100449 55.032 0.0917081 49.6351C0.193508 44.2526 -0.352254 31.9208 0.427646 25.1205C0.620111 23.4477 3.10727 17.8789 3.43741 17.9017C4.54267 18.0653 4.69276 24.8724 5.413 17.5824C5.42048 20.0346 5.46246 22.4147 5.48233 24.849C6.22486 24.4126 6.96592 23.979 7.70597 23.5609C7.5942 20.5973 7.48135 17.6291 7.3671 14.6654C7.61281 14.5199 7.85967 14.3753 8.10538 14.2298C8.11037 24.8844 9.06004 18.5955 9.94425 24.1224C10.3912 19.0323 10.8361 13.9043 11.2831 8.83238C11.2285 11.7593 11.1875 15.2134 11.123 17.7953C11.6052 17.9276 11.8575 17.1058 11.9999 15.9818V8.83238H38.2694C34.3241 8.50635 29.3372 8.07464 29.0673 8.01011C27.069 7.53326 30.103 6.83992 29.2128 6.59898C26.7386 5.92335 11.7158 4.22711 12.0038 3.97105C15.677 0.831551 66.2348 0.790695 79.9091 0.629251ZM595.314 682.648C592.242 682.593 589.162 682.535 586.071 682.481C585.98 682.895 585.891 683.314 585.8 683.729C599.416 683.19 596.277 684.386 603.017 685.566C601.709 684.088 600.422 682.61 599.113 681.13C597.841 681.637 596.569 682.141 595.314 682.648ZM399.275 681.967C392.897 682.059 391.441 682.428 392.531 683.254C391.077 683.354 389.605 683.45 388.151 683.547C387.479 683.386 386.788 683.227 386.116 683.066C385.353 683.406 384.585 683.743 383.84 684.083C382.296 684.016 380.732 683.95 379.188 683.88C379.007 684.051 378.697 684.2 378.588 684.388C385.135 684.309 395.364 685.008 399.847 683.977C402.457 683.376 392.206 682.911 399.275 681.967ZM153.751 683.684C154.278 683.897 154.804 684.112 155.35 684.326C161.55 683.677 163.625 683.34 160.698 682.292C160.692 682.292 160.685 682.291 160.679 682.29C158.37 682.755 156.06 683.22 153.751 683.684ZM416.135 683.034C416.334 683.445 416.508 683.856 416.707 684.27C425.699 684.354 426.811 683.745 428.683 682.67C424.501 682.792 420.317 682.912 416.135 683.034ZM461.872 680.832C460.801 680.971 459.854 681.114 459.516 681.32C457.936 682.278 462.937 682.952 458.556 683.893C473.786 683.41 488.489 682.636 487.677 680.832H461.872ZM11.9999 654.819C10.812 660.313 10.1332 661.742 8.47452 657.57C8.64338 663.151 8.40217 666.623 9.32315 667.133C8.9234 668.297 8.52271 669.467 8.12296 670.612C8.13291 672.428 8.17041 674.064 8.163 675.99C9.39376 673.641 8.86408 677.403 9.16397 680.832L9.19034 683.696L11.9999 683.668C12.4432 683.63 12.8815 683.577 13.2997 683.505C16.9545 682.874 12.0523 681.777 22.0888 681.762C18.7434 681.437 15.6837 681.157 12.4472 680.849C12.5473 680.843 12.6478 680.838 12.748 680.832H11.9999V668.172C11.3374 670.026 10.6567 671.762 9.86222 670.495C10.1658 664.608 11.144 665.157 11.9999 664.335V654.819ZM506.035 681.123C501.563 681.195 497.088 681.265 492.634 681.337C492.543 681.752 492.446 682.165 492.373 682.579C497.155 682.455 501.96 682.327 506.742 682.202C503.251 682.481 499.739 682.759 496.248 683.037C501.793 683.236 507.341 683.435 512.886 683.634C507.591 682.263 513.228 681.974 513.375 680.832H505.357C505.582 680.929 505.808 681.027 506.035 681.123ZM271.119 680.832C271.235 680.986 271.261 681.148 271.179 681.324C270.851 682.019 261.252 682.733 266.324 683.476C270.446 683.622 267.657 682.791 269.338 682.747C281.484 682.444 280.779 683.609 285.742 683.298C286.523 682.799 287.346 682.29 288.145 681.786C290.017 681.933 291.894 682.079 293.784 682.226C294.22 681.891 294.676 681.555 295.112 681.22C293.349 681.198 291.362 681.175 289.744 681.153C289.941 681.04 290.278 680.934 290.724 680.832H280.19C277.258 680.993 274.683 681.214 273.611 681.92C273.146 681.501 274.071 681.139 275.119 680.832H271.119ZM611.731 680.832L611.747 682.512L610.035 682.529C609.654 682.532 609.271 682.535 608.89 682.538C609.268 682.76 609.652 682.981 610.035 683.202L612.428 683.18L612.405 680.832C612.672 680.37 612.94 679.906 613.208 679.449C612.689 676.667 612.166 673.878 611.647 671.096C611.676 674.334 611.703 677.58 611.731 680.832ZM146.186 680.832C142.696 681.539 143.979 682.309 146.609 683.177C147.754 683.043 148.876 682.908 150.02 682.774C149.69 682.126 149.362 681.48 149.022 680.832H146.186ZM65.9433 682.266C61.3444 682.147 56.7638 682.029 52.165 681.91C51.6196 682.083 51.0726 682.256 50.5273 682.43C52.163 682.653 53.8522 682.904 55.4696 683.108C58.1906 683.271 56.8049 682.639 57.0878 682.651C63.9786 682.984 64.9498 683.274 73.4042 682.797C74.4404 682.631 75.4599 682.456 76.496 682.285C73.0302 680.827 70.4056 681.365 64.0888 680.832H62.1659C63.4255 681.31 64.6825 681.787 65.9433 682.266ZM516.32 680.832C524.771 681.998 532.374 683.212 545.946 682.266C548.963 682.055 547.325 681 555.888 682.284C555.193 681.721 555.938 681.259 557.183 680.832H554.187C553.843 680.885 553.461 680.931 553.039 680.969C546.657 681.545 537.35 680.49 537.729 682.181C535.185 682.102 532.817 682.055 530.346 681.988C531.277 681.604 532.191 681.217 533.105 680.832H532.149C527.826 681.189 524.542 681.186 521.881 680.832H516.32ZM299.811 680.832C298.196 681.028 297.45 681.353 299.434 682.17C304.979 681.949 311.271 681.723 317.107 681.502C317.289 681.832 317.459 682.164 317.641 682.494C323.648 682.331 320.895 681.521 319.266 680.832H299.811ZM400.552 680.832C403.596 681.099 405.719 681.651 406.484 681.704C414.717 682.278 418.409 681.752 425.117 682.469C424.774 681.909 424.577 681.377 424.311 680.832H423.565C417.87 681.619 414.673 681.575 406.388 681.391C409.278 681.272 412.169 681.15 415.059 681.031C414.995 680.965 414.931 680.898 414.866 680.832H400.552ZM611.21 646.03C611.107 645.685 610.55 647.168 610.036 646.953V672.939C610.165 673.132 610.294 673.326 610.423 673.519C610.401 676.648 610.255 678.894 610.036 680.427V680.832H600.872C608.094 681.17 606.222 682.073 610.035 682.097L611.312 682.085L611.301 680.832C611.312 679.091 611.139 676.163 610.644 670.641C611.052 670.15 611.467 669.623 611.872 669.168C611.896 662.718 610.976 663.24 610.803 657.696C610.695 654.223 612.31 649.865 611.21 646.03ZM386.289 680.832C387.019 681.087 387.681 681.416 388.258 681.838C393.218 681.923 391.645 681.124 393.112 680.945C393.474 680.9 393.831 680.864 394.183 680.832H386.289ZM343.109 680.832C343.395 681.127 343.657 681.427 343.86 681.742C352.968 680.945 357.113 682.225 367.804 681.299C369.134 681.184 370.562 681.011 372.03 680.832H360.451C358.521 681.054 356.296 681.119 354.82 680.832H343.109ZM333.626 680.832C333.575 681.142 334.001 681.383 337.106 681.299C337.013 681.148 336.854 680.99 336.704 680.832H333.626ZM326.07 681.16C326.084 681.068 326.129 680.955 326.224 680.832H325.269C325.531 680.943 325.796 681.053 326.07 681.16ZM104.547 680.887C104.551 680.869 104.554 680.851 104.559 680.832H103.751C104.016 680.851 104.281 680.869 104.547 680.887ZM75.7392 612.941C69.1432 612.845 60.4636 612.775 53.8427 612.84C50.9927 612.869 51.6196 613.112 50.1923 613.217C48.7644 613.32 47.8173 613.141 46.956 613.229C46.0954 613.317 46.8549 613.531 46.4335 613.6C45.8264 613.699 43.364 613.796 43.2235 613.816C41.2168 614.108 44.6015 613.979 44.7157 614.1C45.0778 614.505 44.5468 614.918 44.3437 615.315H42.5888C42.0116 615.315 41.447 615.369 40.8983 615.468C41.9067 615.143 42.853 615.049 42.5204 615.015C38.7649 614.885 36.54 616.784 34.4667 619.549C33.9308 620.363 34.1976 619.691 34.5966 619.002C34.9942 618.316 35.5496 617.653 35.0067 618.234C33.5611 619.901 33.2087 621.274 33.0751 621.892C32.964 622.532 33.0771 622.508 33.3261 622.013C33.4691 621.731 33.6965 621.265 34.0351 620.707C33.4436 621.944 33.1123 623.329 33.1122 624.791V628.753C33.0409 628.831 32.9888 628.956 32.9833 629.073C32.9077 630.744 33.0024 631.804 33.1122 632.572V635.394C33.0477 635.57 32.9699 635.763 32.87 635.978C33.0126 636.611 33.0813 637.42 33.1122 638.344V649.232C33.1122 652.861 35.1535 656.012 38.1493 657.604C37.9759 657.565 37.7799 657.511 38.5028 657.94C39.8487 658.626 40.8617 658.745 42.5888 658.905C42.8172 658.921 43.0595 658.944 43.3173 658.972C43.8878 659.035 47.21 659.393 49.2265 659.159C49.4635 659.132 49.4778 658.972 49.7675 658.95C50.9597 658.858 52.1223 658.993 53.3778 658.91C53.6763 658.89 53.0313 658.74 53.5819 658.708H65.5009C65.6727 658.72 65.8441 658.73 66.0155 658.737C67.526 658.798 68.6191 658.757 69.6317 658.708H73.7851C74.167 658.76 74.4005 658.816 75.3642 658.821C79.8858 658.843 84.1783 658.697 88.8681 658.748C89.9871 658.76 90.8479 658.93 92.415 658.938C93.0412 658.941 93.7962 658.814 94.4003 658.708H142.318C142.524 658.75 142.781 658.786 143.108 658.812C145.915 659.038 150.082 658.752 151.532 658.767C159.442 658.848 164.698 659.035 172.081 658.917C172.258 658.914 171.661 658.734 172.468 658.708H173.675C175.816 658.722 178.386 658.772 180.275 658.78C180.689 658.781 181.072 658.75 181.409 658.708H191.418C191.631 658.746 191.825 658.783 191.998 658.824C193.555 659.185 194.28 658.76 195.604 658.974C196.014 659.041 195.704 659.161 195.987 659.198C198.118 659.465 200.774 659.124 201.824 659.077C206.163 658.881 212.054 659.107 215.18 659.121C218.294 659.136 216.124 659.327 216.225 659.349C217.999 659.656 218.382 659.237 218.618 659.225C225.26 658.924 230.932 659.232 237.892 659.077C238.534 659.06 239.827 658.654 241.74 658.952C241.865 658.97 241.216 659.147 242.205 659.166C245.08 659.224 248.294 659.2 251.268 659.217C253.025 658.799 257.354 658.661 257.259 659.267C261.843 659.305 269.004 659.535 273.03 659.499C278.166 659.453 278.736 659.074 283.487 659.153C284.221 659.165 283.547 659.363 283.757 659.371C288.605 659.533 286.723 659.127 287.917 658.765C288.279 658.654 290.28 658.816 290.829 658.766C291.03 658.748 291.203 658.728 291.355 658.708H300.476C301.008 658.849 301.118 659.026 300.817 659.239C302.572 659.029 302.83 658.832 303.522 658.708H308.398C308.361 658.772 308.326 658.844 308.898 658.855C316.333 658.987 324.068 658.997 331.512 659.147C332.448 659.166 331.656 659.361 331.899 659.369C336.155 659.498 334.174 659.129 335.379 658.777C335.452 658.755 335.59 658.733 335.777 658.708H344.684C344.951 658.92 343.515 659.561 347.175 659.432C351.069 659.294 348.771 658.994 355.044 659.095C358.517 659.151 360.443 659.123 366.402 659.156C372.374 659.189 386.239 659.507 393.667 659.258C395.368 659.201 394.162 658.892 394.272 658.708H395.79C395.981 658.793 395.333 658.931 395.897 659.037C396.768 659.203 398.161 658.91 399.44 659.158C399.787 659.225 401.133 659.554 403.064 659.299C403.183 659.282 402.475 659.114 403.776 659.091C406.44 659.044 408.016 659.12 407.691 658.708H407.891C410.19 658.913 407.44 659.444 411.169 659.357C411.338 659.353 410.594 659.14 411.714 659.131C426 659.018 439.531 659.36 454.204 659.335C454.497 659.335 457.785 659.238 458.625 659.16C458.763 659.146 457.826 658.943 459.54 658.938C461.258 658.932 465.774 658.925 467.541 658.982C469.316 659.038 467.566 659.195 468.51 659.232C470.636 659.315 468.701 659.048 470.39 659.008C472.678 658.954 476.514 658.989 478.642 659.043C480.066 659.08 479.268 659.242 479.548 659.284C481.538 659.57 484.613 659.179 485.236 659.149C489.04 658.963 491.051 659.165 494.394 659.113C495.239 659.099 494.467 658.951 495.414 658.968C498.918 659.032 501.899 659.681 505.726 659.352C507.349 659.213 504.587 658.514 509.513 658.779C510.255 658.819 509.214 658.939 510.049 659.01C510.885 659.082 514.286 659.287 515.236 659.19C515.713 659.141 515.788 658.894 516.04 658.708H518.56C519.852 658.979 519.005 659.086 523.07 659.304C523.192 659.312 522.012 659.501 523.732 659.538C525.457 659.576 531.609 659.566 533 659.577C536.485 659.605 535.814 659.021 536.254 658.983C539.737 658.691 540.55 659.192 542.83 659.343C543.826 659.408 544.836 659.333 545.854 659.392C546.181 659.411 545.671 659.6 545.791 659.603C549.696 659.603 549.225 658.572 552.119 658.769C552.469 658.794 551.387 659.106 552.431 659.236C552.718 659.271 555.958 659.752 557.023 659.652C561.252 659.254 560.026 658.928 566.417 659.045C566.946 659.055 566.472 659.264 566.736 659.27C570.871 659.36 575.009 659.42 579.15 659.461C584.596 659.648 589.586 654.734 589.461 649.232C589.476 641.098 589.458 632.952 589.477 624.791C589.539 620.669 586.856 616.675 582.999 615.145C581.841 614.856 580.547 614.642 579.15 614.672C576.359 614.735 573.118 614.595 569.725 614.673C569.094 614.69 567.808 615.114 565.822 614.796C565.709 614.775 567.078 614.611 565.146 614.584C552.689 614.409 539.379 614.349 526.794 614.41C524.906 614.418 526.42 614.638 525.749 614.646C520.132 614.708 516.414 614.266 510.6 614.394C510.139 614.404 508.586 614.826 506.8 614.528C506.688 614.508 507.037 614.336 506.412 614.319C503.443 614.236 502.756 614.619 499.66 614.525C498.96 614.503 500.309 614.3 498.84 614.276C492.234 614.17 485.245 614.15 478.499 614.184C477.199 614.191 478.796 614.429 477.444 614.428C471.619 614.422 467.052 614.513 460.799 614.282C459.976 614.25 456.21 613.824 453.948 614.082C453.68 614.114 453.937 614.292 452.988 614.313C448.317 614.415 443.156 614.35 438.434 614.422C437.313 614.44 438.285 614.637 437.537 614.659C434.222 614.755 436.842 614.529 434.143 614.412C429.956 614.231 424.274 614.195 419.594 614.16C415.49 615.061 404.557 614.652 397.647 614.482C396.52 614.453 397.975 614.246 396.846 614.23C385.582 614.071 374.348 614.045 363.036 614.073C361.973 614.075 362.993 614.311 362.122 614.313C353.862 614.332 346.655 614.223 338.152 614.209C331.015 614.198 322.995 614.278 315.494 614.279C305.614 614.279 296.587 614.038 286.061 614.216C285.482 614.227 280.998 614.649 279.094 614.344C278.863 614.308 279.417 614.15 278.11 614.103C276.802 614.056 272.924 614.04 271.458 614.074C269.994 614.108 271.209 614.308 270.291 614.318C265.988 614.362 261.217 614.265 257.206 614.26C254.273 614.258 253.759 614.26 250.657 614.229C249.047 614.213 245.108 614.248 243.031 614.202C242.116 614.181 242.962 613.985 242.728 613.971C239.368 613.766 242.714 614.132 239.375 614.162C231.526 614.234 222.457 614.217 214.302 614.022C212.247 613.972 213.292 613.6 210.145 613.832C209.947 613.848 210.573 614.032 209.519 614.042C200.485 614.126 189.852 613.935 181.105 613.904C154.578 613.808 128.818 613.729 102.611 613.509C97.2912 613.465 92.322 613.518 87.0702 613.425C86.1132 613.408 87.2496 613.198 86.3358 613.177C83.578 613.116 80.9772 613.181 78.1864 613.129C76.7606 613.103 77.806 612.97 75.7392 612.941ZM571.577 659.066C569.717 658.658 578.202 658.699 576.013 659.087C575.868 659.107 571.677 659.087 571.577 659.066ZM380.937 658.708C380.933 658.709 380.929 658.711 380.925 658.712C380.887 658.719 379.969 658.714 379.424 658.708H380.937ZM11.9999 615.827C10.5693 623.151 10.221 635.399 10.8769 650.758C11.7063 648.594 11.2796 642.061 11.5526 638.297C11.6698 636.683 11.8278 636.511 11.9999 636.47V615.827ZM611.498 597.455C613.001 587.717 611.709 576.868 610.036 578.865V580.366C610.348 581.393 610.781 579.702 610.384 583.454C610.267 583.589 610.152 583.726 610.036 583.863V630.308C610.429 629.516 610.848 629.035 611.076 626.409C611.57 620.717 609.636 607.698 611.829 603.861C611.539 606.842 611.382 610.639 611.143 613.948C611.571 615.293 611.993 616.603 612.418 617.93C611.867 610.366 612.516 602.546 611.498 597.455ZM614.432 606.186C612.264 610.931 613.659 620.492 614.414 618.822C614.377 615.659 614.051 613.549 614.168 610.023H614.165C614.178 609.638 615.347 605.805 614.432 606.186ZM11.9999 566.411C11.9243 568.075 11.8039 569.735 11.5917 571.4C10.6454 578.798 9.73583 569.696 10.9403 586.932C11.3666 581.562 11.7165 577.814 11.9999 575.385V566.411ZM610.036 574.243C610.154 574.422 610.289 574.727 610.443 575.169C610.473 573.951 610.503 572.745 610.533 571.527C610.368 571.487 610.202 571.45 610.036 571.411V574.243ZM610.036 560.216C610.139 558.954 610.254 557.311 610.391 555.2C610.272 555.191 610.154 555.179 610.036 555.169V560.216ZM610.036 506.454C610.107 508.657 610.119 510.635 610.044 511.994C610.041 511.991 610.039 511.988 610.036 511.986V544.357C610.416 541.326 610.714 537.997 610.691 531.382C612.407 541.382 609.366 546.854 612.808 546.818C612.582 549.327 612.353 551.857 612.127 554.366C612.626 554.747 613.126 555.126 613.625 555.49C613.362 542.017 610.079 519.638 612.256 510.618C611.99 509.527 611.759 508.431 611.474 507.323C612.787 498.486 609.837 494.67 611.536 485.705C611.715 484.782 614.486 486.715 614.387 475.047C614.026 475.338 613.42 475.489 612.966 475.725C613.187 473.199 613.418 470.685 613.643 468.177C613.311 467.723 612.979 467.246 612.643 466.791C612.514 471.101 612.383 475.398 612.254 479.707C612.14 476.127 612.025 472.523 611.911 468.943C611.367 473.614 611.361 475.722 610.49 472.906C610.438 468.851 610.383 464.79 610.331 460.736C610.233 460.552 610.135 460.37 610.036 460.187V506.454ZM11.9999 526.923C11.2739 528.832 10.4028 529.602 10.0243 529.076C10.5458 533.239 10.59 539.324 11.4042 540.18C11.4241 542.307 11.4429 544.419 11.4628 546.546C9.47932 544.331 9.84205 553.201 11.5478 553.785C11.59 550.13 11.6344 546.47 11.6767 542.816C11.7863 542.961 11.8951 543.066 11.9999 543.142V526.923ZM11.9999 510.89C11.502 513.618 11.1569 516.655 11.4306 519.106C11.609 519.068 11.8012 518.986 11.9999 518.888V510.89ZM614.143 432.898C613.859 432.797 614.334 426.233 613.714 428.286C612.649 431.831 613.261 445.076 611.963 445.116C612.387 440.461 612.032 431.373 611.166 434.06C610.215 437.005 611.809 445.572 611.019 451.027C613.096 443.21 612.454 459.354 610.859 461.191C612.084 470.664 612.583 461.957 612.526 452.247C613.748 458.175 613.088 449.45 614.103 448.013C614.717 454.125 614.206 475.101 615.843 465.338C616.423 461.865 613.662 455.373 615.7 445.61C615.092 443.284 614.511 441.825 613.915 439.826C614.563 438.662 615.22 437.34 615.863 436.231V436.211C615.645 427.357 614.831 433.097 614.143 432.898ZM9.88077 450.716C10.3253 446.226 10.7683 441.718 11.2128 437.228C11.4748 438.938 11.7377 440.648 11.9999 442.358V433.824C11.3904 433.319 10.7802 432.815 10.1698 432.316C10.073 438.442 9.97762 444.572 9.88077 450.716ZM610.37 402.588C610.184 401.797 610.121 403.269 610.036 404.515V431.564C610.415 431.416 610.744 431.207 611.111 431.066C609.825 419.538 610.209 415.751 611.138 403.732C610.271 411.514 610.835 404.57 610.37 402.588ZM11.9999 396.253C11.702 398.751 11.3564 401.162 11.3476 404.313C11.5633 403.698 11.7827 403.085 11.9999 402.473V396.253ZM610.634 382.367C610.597 382.135 610.303 383.57 610.036 383.457V394.84C610.743 394.434 611.204 386.31 610.634 382.367ZM10.7128 350.913C11.0729 353.423 11.4304 355.954 11.788 358.481C10.5471 358.862 10.1986 358.481 10.4169 368.365C10.124 364.076 9.82658 359.804 9.53116 355.496C9.28066 355.351 9.01936 354.752 8.77628 354.896C9.25295 360.171 9.45873 375.024 9.78897 378.625C10.1193 382.225 10.2099 375.275 10.5302 376.31C13.1722 384.945 11.2234 384.261 11.6767 390.456C11.7857 391.934 11.8967 391.378 11.9999 390.327V340.742C11.5698 344.132 11.1407 347.524 10.7128 350.913ZM610.036 367.091C610.256 365.405 610.523 363.777 610.815 362.095C610.559 361.958 610.292 361.491 610.036 360.746V367.091ZM11.9999 311.687C11.937 312.351 11.8595 313.05 11.7616 313.783C11.5058 315.71 10.859 311.257 10.5312 313.948C10.3833 315.168 10.8719 318.13 10.495 321.109C10.3086 322.564 9.10705 329.364 9.67765 334.073C10.5089 332.172 11.2736 334.027 11.9999 334.8V325.857C11.8288 325.682 11.6573 325.508 11.4862 325.333C11.4341 322.48 11.3821 319.64 11.33 316.786C11.3304 316.78 11.3305 316.774 11.331 316.768C11.554 317.043 11.7783 317.313 11.9999 317.586V311.687ZM610.036 327.855C610.719 328.508 611.429 329.486 611.765 324.326C609.773 321.343 609.581 312.836 610.845 302C610.835 300.801 610.833 299.596 610.82 298.396C610.587 298.236 610.257 298.204 610.036 298.03V327.855ZM614.807 301.09C612.917 296.038 613.855 304.324 613.129 306.4C612.948 304.673 612.771 302.906 612.59 301.197C612.056 311.525 612.505 313.032 613.886 309.268C613.978 308.998 613.712 304.875 613.915 304.472C614.119 304.073 615.412 307.471 614.807 301.09ZM7.25772 262.544C7.08187 267.467 7.95651 265.36 8.12296 267.341C8.74872 274.832 8.12336 279.941 8.51554 287.34C8.34669 286.849 8.18919 286.398 8.0253 285.925V285.945C7.28769 320.982 9.27202 302.579 8.94913 281.614C9.27448 281.123 9.60087 280.651 9.92374 280.161C9.355 270.779 8.8074 262.127 7.25772 262.544ZM612.519 222.207C609.841 212.935 614.359 205.046 610.694 208.244C610.551 212.687 610.353 216.012 610.036 218.822V239.879C610.145 240.042 610.239 240.353 610.319 240.763C610.226 240.533 610.131 240.307 610.036 240.092V252.028C610.499 253.536 610.771 258.168 611.002 258.872C612.023 261.98 612.366 252.742 611.966 263.959H611.969C611.705 271.378 611.635 273.016 611.556 279.889C610.825 278.51 610.355 273.572 610.036 272.792V283.426C610.142 283.812 610.214 284.446 610.177 285.509C610.168 285.767 610.114 286.181 610.036 286.739V291.452C610.638 283.962 612.68 282.253 612.915 281.255C614.204 275.765 612.421 271.489 612.405 269.87C612.343 263.053 613.135 261.07 612.795 254.58C612.427 247.6 611.819 252.372 611.275 250.248C610.844 248.544 610.767 243.038 610.319 240.763C610.685 241.667 611.045 242.672 611.412 243.573C611.911 236.338 612.398 230.424 612.519 222.207ZM11.9999 281.039V268.117C11.6747 267.987 11.3477 267.86 11.0233 267.729C11.3485 272.16 11.6747 276.607 11.9999 281.039ZM614.847 236.596C612.063 235.179 613.314 248.21 614.179 247.739C614.213 245.94 613.742 244.541 613.95 242.633C614.159 240.706 614.809 240.213 614.847 236.596ZM11.9999 211.213C11.4638 212.145 11.0812 213.663 11.7265 218.157C10.9371 217.957 10.2268 217.794 9.46964 217.594C9.61367 219.429 9.80464 220.648 9.91886 222.866C11.4572 216.328 11.3921 221.678 11.3944 224.425C11.3977 227.259 11.723 225.372 11.9999 224.053V211.213ZM9.73136 181.336C9.43869 180.771 9.2397 189.495 8.38858 183.429C8.32159 186.082 8.33594 188.372 8.29874 190.88C7.93624 191.062 7.57335 191.243 7.21085 191.443C7.34215 188.342 7.47506 185.26 7.60636 182.16C6.51349 185.968 6.11712 195.744 7.30558 200.522C7.44466 198.013 7.58446 195.502 7.72354 192.993C7.8601 197.736 8.01044 202.427 8.13956 207.207C9.66185 207.461 8.77844 201.953 9.19815 193.661C9.2661 192.377 11.1556 184.17 9.73136 181.336ZM11.3095 187.518C10.5607 197.138 11.2975 200.411 11.9999 202.253V196.417C11.8078 193.164 11.7229 189.086 11.3095 187.518ZM613.778 187.354C609.797 174.173 612.237 203.856 613.594 198.206C613.656 197.947 613.339 188.592 613.778 187.354ZM610.036 175.582C610.224 177.658 610.344 180.112 610.284 183.972C611.133 181.681 610.957 176.286 611.975 179.777C611.727 169.616 610.837 172.755 610.036 168.954V175.582ZM9.41397 139.331C9.69464 149.168 10.2185 152.658 11.4628 147.113C11.1773 143.641 10.8919 140.149 10.6064 136.677C10.2091 137.568 9.81119 138.459 9.41397 139.331ZM610.036 138.005C610.488 140.473 610.94 142.94 611.39 145.408C611.586 143.264 611.781 141.117 611.977 138.974C610.479 123.786 612.92 98.3861 610.036 98.4173V138.005ZM8.36612 136.115C7.89427 130.841 8.25402 120.169 6.95011 122.86V122.84C6.87237 123.023 6.40232 132.592 6.83878 133.828C7.33029 134.846 7.85725 135.352 8.36612 136.115ZM11.1689 72.6576C12.1122 88.6932 10.7786 107.473 11.8437 123.073C11.8767 123.558 11.9314 123.983 11.9999 124.372V74.3939C11.8554 73.2132 11.6241 72.5103 11.1689 72.6576ZM610.036 87.7376C610.153 87.1331 610.278 86.4816 610.413 85.7289C610.281 85.5267 610.16 85.3266 610.036 85.1273V87.7376ZM610.601 58.1039C610.819 59.2629 611.039 60.4525 611.257 61.6117C610.792 53.3805 612.462 53.2432 611.529 45.1976C611.221 49.5058 610.909 53.8139 610.601 58.1039ZM610.036 11.263V21.4632C611.053 19.5101 612.012 17.0305 611.69 10.6546C611.138 10.8587 610.587 11.0603 610.036 11.263ZM72.6708 7.46616C67.7255 8.02893 64.6627 8.50649 61.3368 8.83238H72.5194C74.7202 8.70289 76.8601 8.64693 80.2567 8.83238H80.9247C78.1692 8.37778 75.37 7.92051 72.6708 7.46616ZM130.993 8.83238H134.871C135.012 8.6349 135.259 8.44824 135.634 8.28355C134.089 8.46628 132.542 8.6496 130.993 8.83238ZM187.618 8.70152C179.134 6.18435 179.301 7.36455 181.296 8.83238H202.921C199.147 8.36947 197.435 7.86359 201.116 7.40659C196.116 7.80897 192.2 8.27431 187.618 8.70152ZM232.856 8.83238C228.184 8.18507 223.596 7.73089 217.568 8.65855C219.549 8.73145 220.955 8.78792 221.956 8.83238H232.856ZM283.797 5.17515C273.76 6.32511 268.573 8.20111 253.701 7.58042C256.127 7.99675 258.553 8.41519 260.975 8.83238H268.27C268.732 8.62753 269.194 8.42532 269.65 8.22105C276.504 8.42219 283.377 8.62147 290.23 8.82261C291.358 8.24892 292.466 7.67657 293.593 7.10288C295.41 7.17737 297.211 7.25007 299.029 7.32456C298.575 7.73931 298.116 8.15201 297.643 8.56675C301.243 8.46495 304.847 8.36094 308.428 8.25913C307.726 8.49473 306.971 8.68259 306.18 8.83238H335.26C334.961 8.82479 334.638 8.81608 334.289 8.8021C327.108 8.51387 321.777 6.40585 309.542 7.22007C308.922 7.26336 305.299 8.87629 300.919 7.75913C299.923 7.50581 304.118 7.13087 301.829 6.7982C299.537 6.46541 289.316 6.19202 288.516 5.39976C288.625 5.68021 289.263 5.97079 289.572 6.2562C287.827 6.39028 286.064 6.525 284.301 6.65659C284.137 6.16251 283.96 5.66675 283.797 5.17515ZM365.528 7.94077C355.928 8.63613 348.961 7.7022 339.269 7.9232C337.95 7.95388 340.25 8.71161 337.233 8.83238H377.877C377.862 8.80246 377.847 8.77209 377.835 8.74058C373.453 8.72814 369.306 8.63196 365.016 8.58726C369.197 8.43825 373.381 8.29388 377.544 8.14488C373.981 7.50418 370.439 6.86467 366.876 6.22398C366.421 6.79525 365.965 7.37695 365.528 7.94077ZM416.912 6.45542C411.731 7.2722 407.294 6.43631 402.931 6.6273C398.586 6.81857 400.239 7.69571 395.131 8.03355C394.185 8.09547 392.216 7.54681 389.889 7.95152C389.164 8.07707 387.839 8.45197 386.322 8.83238H418.473C417.985 8.04675 417.525 7.26746 416.912 6.45542ZM452.366 8.83238H465.032C463.442 8.7225 462.244 8.48938 461.349 8.40562C455.423 7.85217 455.608 9.07261 452.027 7.75913C452.152 8.14577 452.25 8.47959 452.366 8.83238ZM473.044 8.12241C471.301 8.52719 469.766 8.73966 468.416 8.83238H474.23C473.841 8.60783 473.445 8.3756 473.044 8.12241ZM557.305 5.01304C550.432 5.50235 547.737 6.25504 544.592 7.18394C552.59 7.8618 549.978 6.93538 556.21 6.75132C555.992 7.33961 556.28 7.88129 555.735 8.49937C552.514 7.28111 542.01 8.16726 539.573 8.22691C532.16 8.40785 537.972 7.21017 533.014 7.18491C528.05 7.16012 522.194 7.8731 518.14 6.68589C518.212 7.35111 518.536 8.04012 518.827 8.64585C511.101 8.86432 512.641 8.07794 511.842 7.97593C499.078 6.30198 492.15 7.71568 477.55 7.88706C479.404 8.09316 481.278 8.27931 483.15 8.473C482.098 8.60792 481.215 8.72872 480.485 8.83238H564.567C562.916 8.22074 563.411 7.61095 571.684 6.79136C566.195 6.697 560.723 6.60162 555.251 6.5023C556.378 6.28629 557.506 6.0728 558.633 5.85679C561.105 5.97101 563.563 6.08294 566.035 6.19468C563.127 5.7999 560.213 5.40782 557.305 5.01304ZM593.292 5.94859C591.601 5.9982 590.504 5.73232 588.65 5.85386C583.597 6.18673 579.723 8.12686 580.065 8.80796C580.07 8.81719 580.08 8.8245 580.091 8.83238H582.923C583.707 8.79451 584.44 8.7704 584.804 8.83238H591.262C591.557 8.66346 591.894 8.48277 592.236 8.28648C590.473 8.38082 588.689 8.47241 586.926 8.56675C588.089 7.46167 585.107 6.80264 595.414 6.89195C594.705 6.57684 593.982 6.2761 593.292 5.94859ZM595.552 8.83238H605.34C605.217 8.62303 605.104 8.41368 604.977 8.20445C606.213 8.27893 607.434 8.35306 608.67 8.43003C607.597 8.02275 606.546 7.61759 605.491 7.21031C602.184 7.75108 598.873 8.29157 595.552 8.83238ZM53.3398 7.62339C48.2676 7.34033 40.9579 7.52568 35.3944 7.46616C35.8318 8.48172 49.9722 8.20122 54.9384 8.81675C55.7363 8.63452 55.4838 7.74253 53.3398 7.62339ZM426.457 7.66245C428.275 7.65252 430.075 7.64264 431.892 7.63023C431.692 7.42897 431.453 7.21889 431.224 7.01206C431.059 6.84872 430.894 6.68517 430.729 6.52183C431.783 7.10619 440.443 8.0774 444.092 7.45347C445.926 7.1404 441.753 6.0284 449.527 5.83433C443.893 5.89149 438.672 6.04368 433.201 6.13804C433.692 5.80776 434.163 5.4732 434.654 5.14292C434.651 5.1425 434.648 5.14241 434.644 5.14195C432.827 5.06746 430.987 4.98889 429.17 4.91441C428.261 5.83085 427.366 6.74601 426.457 7.66245Z" fill="white"/>
</svg>
