<svg width="471" height="794" viewBox="0 0 471 794" fill="none" xmlns="http://www.w3.org/2000/svg">
<path d="M77.3192 0.629215C206.467 -0.955554 332.923 0.966926 461.057 0.851871L468.959 0.773746L469.038 8.83234C469.044 16.0468 469.057 23.2666 469.077 30.4925C469.083 31.886 469.546 31.2784 469.566 31.8724C469.683 35.5618 468.96 39.185 468.931 40.5491C468.869 43.4637 469.537 41.8593 469.537 43.9886C469.53 65.9907 469.138 86.7532 469.252 108.773C469.259 110.207 468.725 108.743 468.819 111.261C468.871 112.561 469.691 116.631 469.703 119.566C469.745 129.814 469.483 138.423 469.495 149.232C469.502 155.143 469.433 164.012 469.445 170.621C469.451 173.541 469.825 176.582 469.838 179.466C469.855 183.559 469.095 182.723 469.048 183.353C468.842 186.116 469.676 186.498 469.656 189.121C469.616 194.001 469.059 194.264 469.106 200.455C469.141 204.88 469.581 215.007 469.71 220.586C469.064 233.634 469.32 250.075 469.534 262.247C469.661 269.453 468.881 270.121 468.884 273.059C468.899 283.411 469.894 291.268 469.927 300.992C469.969 313.896 469.311 325.332 469.264 337.834C469.256 339.861 469.97 339.396 469.988 341.385C470.055 348.748 470.186 358.163 470.084 364.722C469.972 372.031 468.935 374.728 469.146 381.881C469.209 383.978 470.118 384.593 470.234 388.107C470.418 393.72 469.617 399.875 469.527 403.792C469.408 409.162 470.334 404.493 470.21 411.734C470.204 412.032 469.543 413.115 469.574 414.669C469.664 419.199 470.184 418.75 470.135 425.378C470.128 426.017 469.498 434.803 469.495 435.677C469.485 440.819 469.264 451.17 469.398 454.214C469.875 465.093 470.871 456.529 468.71 465.781C469.239 469.855 469.775 473.895 470.289 478.214C469.81 475.332 469.117 487.029 469.162 487.851C469.522 494.65 470.364 490.6 470.225 499.221C468.282 487.836 469.974 510.344 470.023 515.364C470.264 539.533 469.779 561.504 469.792 585.796C469.797 593.928 470.208 604.826 470.198 613.43C470.198 615.435 469.737 613.921 469.727 615.686C469.721 617.447 470.237 615.493 470.21 617.503C470.031 630.008 469.057 639.806 470.274 651.261C470.098 651.819 469.959 651.801 469.766 652.724C470.856 662.099 469.39 680.153 469.188 686.939C468.876 697.552 469.613 700.264 469.464 707.974C469.265 718.17 467.825 733.479 470.202 726.642C470.277 733.636 470.297 740.37 470.076 747.435C470.051 748.221 469.447 747.68 469.434 747.994C469.348 749.988 469.889 750.637 469.914 751.984C469.981 755.634 469.333 749.677 469.514 754.882C469.61 757.628 470.083 759.187 470.093 766.812C470.098 771.629 470.101 776.491 470.102 781.387L470.19 790.342L461.057 790.432C419.238 790.44 374.83 790.297 332.651 790.226C329.416 790.221 331.545 790.805 327.488 790.768C313.392 790.639 288.159 789.655 276.004 789.789C263.849 789.924 266.591 790.777 258.985 791.135C257.516 791.205 258.72 790.719 257.392 790.711C248.454 790.666 237.799 789.907 230.559 789.792C225.77 789.716 226.154 790.482 222.832 790.536C217.882 790.616 212.788 789.843 210.147 789.818C197.732 789.709 189.196 790.332 177.601 790.014C178.055 790.182 178.355 790.338 178.738 790.504C165.01 790.477 151.299 790.449 137.571 790.422C138.218 790.576 138.844 790.732 139.491 790.888C123.385 790.803 125.222 789.135 126.639 792.659C125.467 792.783 124.225 792.927 123.106 793.041C123.561 791.226 113.818 789.897 101.419 789.435C100.509 789.4 94.4082 791.17 95.0722 789.079C93.4806 789.591 92.532 789.943 91.1855 790.393C88.5628 789.76 85.9048 789.134 83.2821 788.503C81.8661 788.598 80.4297 788.689 79.0136 788.784C78.8039 789.193 78.9644 789.619 78.5097 790.021C71.9342 790.083 58.4478 789.576 53.2519 789.628C40.3445 789.76 27.204 790.868 17.1649 789.671C12.8651 789.779 16.1002 790.413 11.9999 790.495L2.98135 790.584L2.89151 781.387C2.88018 780.824 2.87923 780.122 2.89151 779.244C3.29872 778.423 3.6887 777.65 4.10831 776.793C2.28874 770.849 3.3961 769.607 3.77628 761.461C4.03453 755.953 3.58985 752.345 3.67667 747.099C3.69909 745.77 4.23296 745.958 4.21573 745.049C4.16065 742.003 3.42505 733.312 3.40518 731.161C3.21149 711.68 3.29394 694.942 3.49014 676.387C3.50995 674.394 2.98342 676.978 3.00577 674.914C3.04092 671.595 3.8508 673.548 3.89053 671.624C3.99676 666.26 3.14226 666.218 3.09757 658.735C2.95112 634.092 3.59317 605.76 3.6503 580.017C3.65021 579.213 3.14941 579.26 3.14444 578.386C3.11998 572.686 3.79637 566.916 3.78897 561.741C3.77903 553.153 3.07653 546.699 3.07901 538.216C3.0815 521.636 3.44097 506.822 3.46085 489.77C3.47823 475.813 3.41149 463.692 3.41397 448.389C3.42391 381.543 1.83607 313.331 2.68057 246.03C2.70296 244.318 3.14476 245.014 3.12589 244.492C2.93464 239.526 2.3378 239.082 3.58682 237.316C3.34063 230.988 2.40259 228.991 2.46964 221.35C2.50486 217.278 3.95889 220.318 3.20889 213.428C2.53088 207.207 1.73417 214.072 2.54874 195.571C2.57122 195.081 3.45728 192.669 3.22647 188.823C2.99794 184.958 2.36303 189.431 2.17178 180.127C1.72475 158.283 2.49164 130.634 2.25577 105.24C2.2408 103.646 1.76634 88.3218 1.54776 85.2952C1.12306 79.4401 0.464134 80.6625 0.302643 73.0579C0.178462 67.1813 0.925265 62.3326 0.776276 55.4241C0.758121 54.6193 -0.010057 53.271 0.0917058 48.0794C0.193532 42.9023 -0.352271 31.0406 0.427643 24.4993C0.620091 22.8897 3.10905 17.5294 3.43741 17.556C4.54268 17.7135 4.69273 24.2609 5.41299 17.2484C5.42047 19.6073 5.46246 21.897 5.48233 24.2386C6.22497 23.8189 6.96581 23.4015 7.70596 22.9993C7.59419 20.1485 7.48135 17.2936 7.3671 14.4427C7.6129 14.3029 7.85957 14.1635 8.10538 14.0237C8.11035 24.2727 9.06001 18.2227 9.94424 23.5394C10.3912 18.6432 10.8361 13.711 11.2831 8.83234C11.2285 11.6477 11.1875 14.97 11.123 17.4534C11.6051 17.5807 11.8575 16.7902 11.9999 15.7093V8.83234H37.2665C33.4731 8.50642 28.6797 8.07484 28.4169 8.01007C26.4939 7.53322 29.4128 6.83991 28.5565 6.59894C26.1779 5.92334 11.724 4.22684 12.0038 3.97101C15.538 0.831616 64.1667 0.790659 77.3192 0.629215ZM446.897 783.202C443.942 783.148 440.979 783.09 438.006 783.035C437.918 783.45 437.833 783.869 437.745 784.284C450.843 783.745 447.823 784.941 454.308 786.12C453.048 784.643 451.81 783.165 450.551 781.685C449.327 782.191 448.104 782.696 446.897 783.202ZM258.333 782.521C252.197 782.613 250.796 782.982 251.846 783.809C250.447 783.908 249.031 784.005 247.633 784.102C246.986 783.941 246.322 783.781 245.676 783.619C244.941 783.96 244.202 784.298 243.485 784.638C242 784.571 240.497 784.503 239.012 784.434C238.837 784.605 238.54 784.754 238.434 784.943C244.732 784.864 254.571 785.562 258.883 784.531C261.393 783.93 251.532 783.464 258.333 782.521ZM22.1698 784.238C22.6768 784.451 23.1825 784.666 23.7069 784.879C29.6709 784.231 31.668 783.894 28.8524 782.846C28.8464 782.846 28.84 782.846 28.8339 782.845C26.6132 783.309 24.3905 783.773 22.1698 784.238ZM274.55 783.587C274.742 783.998 274.908 784.41 275.1 784.824C283.75 784.908 284.818 784.299 286.619 783.224C282.596 783.346 278.572 783.466 274.55 783.587ZM318.536 781.387C317.508 781.526 316.602 781.668 316.276 781.873C314.757 782.832 319.567 783.506 315.353 784.448C330.002 783.965 344.143 783.19 343.363 781.387H318.536ZM361.022 781.677C356.721 781.749 352.416 781.819 348.132 781.891C348.044 782.305 347.951 782.719 347.881 783.133C352.48 783.009 357.102 782.881 361.702 782.757C358.344 783.035 354.966 783.314 351.608 783.592C356.942 783.791 362.277 783.989 367.611 784.188C362.52 782.817 367.936 782.528 368.081 781.387H360.372C360.588 781.484 360.804 781.581 361.022 781.677ZM135.063 781.387C135.175 781.54 135.2 781.703 135.12 781.878C134.804 782.574 125.572 783.287 130.451 784.03C134.416 784.176 131.732 783.346 133.35 783.302C145.033 782.999 144.354 784.163 149.129 783.853C149.88 783.354 150.671 782.845 151.44 782.341C153.241 782.488 155.046 782.634 156.864 782.781C157.284 782.445 157.722 782.109 158.142 781.774C156.445 781.751 154.534 781.729 152.977 781.706C153.166 781.594 153.489 781.488 153.915 781.387H143.771C140.957 781.548 138.489 781.769 137.46 782.474C137.012 782.055 137.899 781.693 138.906 781.387H135.063ZM462.753 781.387L462.769 783.066L461.057 783.082C460.69 783.086 460.322 783.089 459.955 783.092C460.319 783.314 460.688 783.536 461.057 783.757L463.45 783.734L463.428 781.387C463.695 780.942 463.962 780.496 464.229 780.056C463.71 777.38 463.188 774.698 462.669 772.022C462.698 775.137 462.724 778.258 462.753 781.387ZM14.8993 781.387C11.5351 782.094 12.7688 782.862 15.3007 783.731C16.4014 783.597 17.4804 783.462 18.581 783.328C18.2632 782.68 17.9472 782.035 17.621 781.387H14.8993ZM370.923 781.387C379.048 782.552 386.361 783.765 399.412 782.82C402.313 782.608 400.738 781.553 408.974 782.837C408.306 782.275 409.021 781.813 410.216 781.387H407.339C407.007 781.439 406.64 781.486 406.234 781.524C400.096 782.1 391.143 781.044 391.508 782.735C389.06 782.655 386.784 782.608 384.406 782.541C385.302 782.157 386.18 781.771 387.059 781.387H386.141C381.982 781.744 378.824 781.74 376.265 781.387H370.923ZM162.653 781.387C161.104 781.583 160.393 781.909 162.298 782.725C167.632 782.504 173.684 782.278 179.298 782.057C179.473 782.387 179.636 782.718 179.81 783.048C185.587 782.885 182.943 782.075 181.375 781.387H162.653ZM259.571 781.387C262.494 781.654 264.531 782.206 265.267 782.259C273.186 782.832 276.737 782.306 283.189 783.024C282.859 782.463 282.669 781.932 282.414 781.387H281.696C276.218 782.174 273.143 782.129 265.174 781.946C267.954 781.826 270.735 781.704 273.516 781.585C273.453 781.519 273.391 781.453 273.329 781.387H259.571ZM462.231 747.91C462.128 747.578 461.571 749.007 461.057 748.799V773.792C461.186 773.979 461.315 774.165 461.444 774.352C461.422 777.365 461.276 779.527 461.057 781.001V781.387H452.274C459.183 781.726 457.394 782.627 461.057 782.652L462.334 782.639L462.322 781.387C462.333 779.712 462.16 776.895 461.666 771.584C462.073 771.112 462.489 770.604 462.893 770.167C462.918 763.962 461.998 764.465 461.824 759.132C461.716 755.792 463.331 751.6 462.231 747.91ZM245.844 781.387C246.545 781.641 247.181 781.97 247.735 782.392C252.507 782.476 250.993 781.678 252.405 781.498C252.746 781.455 253.082 781.419 253.414 781.387H245.844ZM204.309 781.387C204.584 781.681 204.835 781.981 205.031 782.295C213.791 781.499 217.778 782.779 228.06 781.853C229.337 781.738 230.705 781.565 232.113 781.387H220.981C219.129 781.607 216.997 781.672 215.579 781.387H204.309ZM195.185 781.387C195.138 781.696 195.552 781.937 198.535 781.853C198.446 781.702 198.293 781.544 198.149 781.387H195.185ZM187.919 781.714C187.932 781.622 187.975 781.509 188.065 781.387H187.149C187.4 781.498 187.655 781.608 187.919 781.714ZM63.079 703.692C57.9558 703.596 51.2139 703.526 46.0712 703.591C43.8577 703.62 44.344 703.863 43.2362 703.968C42.1274 704.071 41.3914 703.892 40.7226 703.98C40.0538 704.068 40.643 704.282 40.3163 704.351C39.8458 704.45 37.9365 704.547 37.8232 704.567C36.2616 704.86 38.8996 704.73 38.9823 704.851C39.2629 705.256 38.8489 705.669 38.6913 706.066H37.329C36.8853 706.066 36.4489 706.098 36.0214 706.157C36.8041 705.909 37.5331 705.796 37.2773 705.765C34.355 705.576 32.6294 706.905 30.5673 708.636C30.0119 709.151 30.3232 708.681 30.7265 708.21C31.128 707.741 31.6323 707.298 31.1337 707.662C28.5112 709.889 28.677 710.955 29.2265 710.268C29.4135 710.094 29.6914 709.805 30.0614 709.46C28.7328 711.046 27.9168 713.074 27.8593 715.291C27.785 715.348 27.7312 715.447 27.7245 715.542V715.544C27.6487 716.847 27.7432 717.671 27.8534 718.267V720.451C27.7888 720.589 27.7114 720.74 27.6112 720.908C27.7553 721.404 27.823 722.04 27.8534 722.767V739.164C27.8071 739.035 27.7577 738.912 27.7128 739.536C27.6194 740.839 27.8271 741.633 27.5898 743.331C27.5442 743.654 27.3418 745.106 27.3251 746.476C27.3182 747.019 27.386 747.552 27.5175 747.984C27.5745 748.17 27.7327 748.156 27.7978 748.377C28.0714 749.283 28.2541 750.209 28.8017 751.055C28.9316 751.253 28.8201 750.727 29.0634 751.108C30.5645 753.78 33.3222 755.649 36.537 755.915C36.6668 755.938 36.7977 755.958 36.9296 755.972C37.0662 755.985 37.2 755.994 37.33 755.998C38.3064 756.032 39.0517 755.995 39.7489 755.951H42.9608C43.2595 756.003 43.44 756.06 44.1913 756.065C47.7035 756.087 51.0378 755.941 54.6806 755.992C55.5497 756.004 56.2191 756.174 57.4364 756.182C57.9235 756.185 58.5102 756.057 58.9794 755.951H96.1962C96.3565 755.993 96.5566 756.03 96.8114 756.056C98.9918 756.282 102.229 755.996 103.355 756.011C109.499 756.092 113.581 756.279 119.316 756.161C119.453 756.157 118.984 755.975 119.628 755.951H120.489C122.165 755.964 124.194 756.016 125.681 756.024C126.001 756.025 126.298 755.993 126.559 755.951H134.335C134.501 755.989 134.652 756.027 134.787 756.068C135.996 756.429 136.559 756.004 137.588 756.218C137.905 756.285 137.665 756.405 137.886 756.442C139.541 756.709 141.603 756.368 142.419 756.321C145.789 756.125 150.366 756.351 152.793 756.366C155.214 756.38 153.522 756.571 153.604 756.593C154.983 756.9 155.281 756.48 155.464 756.469C160.623 756.168 165.029 756.476 170.434 756.321C170.933 756.304 171.938 755.898 173.424 756.196C173.518 756.215 173.018 756.39 173.785 756.409C176.018 756.467 178.514 756.444 180.825 756.461C182.19 756.043 185.553 755.905 185.478 756.511C189.039 756.549 194.6 756.779 197.727 756.743C201.717 756.698 202.16 756.318 205.85 756.397C206.42 756.409 205.895 756.607 206.06 756.615C209.826 756.776 208.363 756.371 209.292 756.009C209.574 755.899 211.128 756.06 211.554 756.01C211.71 755.992 211.843 755.971 211.962 755.951H219.046C219.458 756.092 219.545 756.27 219.311 756.483C220.674 756.273 220.874 756.075 221.412 755.951H225.2C225.171 756.016 225.143 756.089 225.589 756.099C231.364 756.231 237.371 756.241 243.153 756.391C243.88 756.411 243.265 756.605 243.454 756.613C246.759 756.742 245.221 756.373 246.157 756.021C246.214 755.999 246.321 755.976 246.466 755.951H253.385C253.591 756.164 252.476 756.805 255.319 756.676C258.344 756.538 256.56 756.238 261.432 756.339C264.129 756.395 265.626 756.367 270.255 756.4C274.894 756.433 285.664 756.751 291.433 756.502C292.755 756.445 291.815 756.135 291.904 755.951H293.08C293.228 756.036 292.725 756.175 293.165 756.282C293.841 756.447 294.923 756.154 295.917 756.402C296.187 756.469 297.232 756.798 298.731 756.543C298.822 756.526 298.275 756.358 299.285 756.335C301.355 756.288 302.577 756.364 302.323 755.951H302.475C304.269 756.156 302.128 756.688 305.026 756.601C305.157 756.597 304.58 756.384 305.45 756.375C316.547 756.262 327.057 756.604 338.454 756.579C338.684 756.579 341.238 756.482 341.889 756.404C341.993 756.389 341.27 756.187 342.6 756.182C343.935 756.177 347.442 756.169 348.813 756.226C350.192 756.282 348.832 756.439 349.566 756.476C351.217 756.559 349.714 756.292 351.026 756.252C352.804 756.198 355.783 756.233 357.436 756.287C358.542 756.324 357.922 756.485 358.14 756.527C359.686 756.813 362.075 756.423 362.559 756.393C365.513 756.207 367.076 756.41 369.673 756.357C370.327 756.343 369.728 756.195 370.464 756.212C373.185 756.276 375.501 756.925 378.474 756.596C379.734 756.457 377.588 755.759 381.415 756.023C381.99 756.063 381.183 756.183 381.831 756.254C382.481 756.326 385.124 756.531 385.861 756.434C386.232 756.384 386.289 756.137 386.485 755.951H388.442C389.445 756.223 388.788 756.33 391.945 756.548C392.037 756.557 391.125 756.745 392.46 756.783C393.8 756.82 398.578 756.81 399.658 756.822C402.366 756.849 401.844 756.265 402.186 756.227C404.891 755.936 405.523 756.436 407.294 756.587C408.068 756.652 408.853 756.577 409.643 756.636C409.896 756.655 409.501 756.845 409.594 756.847C412.626 756.847 412.261 755.816 414.51 756.013C414.779 756.039 413.94 756.35 414.751 756.48C414.977 756.516 417.491 756.996 418.318 756.896C421.603 756.498 420.651 756.172 425.615 756.289C426.026 756.299 425.657 756.509 425.863 756.514C429.075 756.604 432.289 756.664 435.506 756.705C440.952 756.908 445.953 751.982 445.821 746.476C445.828 738.35 445.802 730.207 445.89 722.046C445.545 720.258 445.6 718.013 445.634 715.542C445.652 714.304 445.429 712.993 444.901 711.779C444.675 711.287 443.927 710.527 443.144 709.096C443.09 709.007 443.973 709.772 442.93 708.538C441.101 706.512 438.347 705.234 435.506 705.221C428.171 705.136 420.649 705.116 413.434 705.16C411.968 705.169 413.143 705.389 412.622 705.397C408.259 705.459 405.372 705.017 400.855 705.145C400.498 705.154 399.292 705.577 397.904 705.279C397.815 705.26 398.089 705.087 397.603 705.07C395.297 704.987 394.763 705.37 392.358 705.276C391.814 705.254 392.862 705.051 391.722 705.027C386.591 704.921 381.162 704.901 375.922 704.935C374.912 704.942 376.151 705.18 375.102 705.179C370.578 705.173 367.03 705.264 362.173 705.033C361.534 705.001 358.609 704.575 356.851 704.833C356.642 704.865 356.843 705.042 356.105 705.064C352.477 705.166 348.469 705.101 344.801 705.173C343.93 705.19 344.684 705.388 344.104 705.409C341.529 705.506 343.564 705.28 341.468 705.163C338.216 704.982 333.802 704.946 330.167 704.91C326.98 705.812 318.488 705.403 313.121 705.233C312.245 705.204 313.373 704.997 312.497 704.981C303.749 704.822 295.023 704.796 286.236 704.824C285.41 704.826 286.202 705.062 285.525 705.064C279.109 705.082 273.511 704.974 266.907 704.96C261.364 704.949 255.133 705.029 249.308 705.03C241.633 705.03 234.622 704.789 226.446 704.967C225.997 704.978 222.513 705.4 221.034 705.095C220.854 705.059 221.286 704.901 220.27 704.854C219.255 704.807 216.243 704.79 215.103 704.825C213.966 704.859 214.909 705.059 214.196 705.069C210.854 705.113 207.148 705.016 204.033 705.011C201.754 705.009 201.355 705.011 198.946 704.98C197.696 704.964 194.636 704.999 193.022 704.952C192.312 704.932 192.967 704.736 192.788 704.722C190.177 704.517 192.776 704.883 190.184 704.913C184.087 704.985 177.042 704.968 170.707 704.773C169.111 704.723 169.923 704.351 167.479 704.583C167.324 704.598 167.811 704.783 166.992 704.793C159.975 704.877 151.715 704.686 144.922 704.655C124.317 704.559 104.308 704.48 83.9521 704.26C79.8198 704.215 75.96 704.269 71.8808 704.176C71.1369 704.159 72.0192 703.949 71.3105 703.928C69.1683 703.867 67.148 703.932 64.9804 703.88C63.8723 703.854 64.684 703.721 63.079 703.692ZM429.623 756.31C428.177 755.902 434.768 755.943 433.068 756.331C432.961 756.351 429.714 756.331 429.623 756.31ZM281.547 755.951C281.543 755.953 281.539 755.955 281.535 755.956C281.51 755.964 280.72 755.958 280.307 755.951H281.547ZM11.9452 744.229C11.9634 744.233 11.9817 744.236 11.9999 744.24V743.463C11.9816 743.718 11.9635 743.974 11.9452 744.229ZM462.519 701.189C464.022 691.82 462.73 681.383 461.057 683.308V684.747C461.369 685.741 461.803 684.108 461.405 687.721C461.289 687.85 461.173 687.982 461.057 688.115V732.79C461.45 732.027 461.869 731.566 462.098 729.037C462.592 723.563 460.657 711.039 462.85 707.349C462.56 710.216 462.403 713.87 462.165 717.052C462.592 718.346 463.015 719.606 463.439 720.882C462.888 713.607 463.538 706.086 462.519 701.189ZM465.454 709.586C463.286 714.151 464.681 723.349 465.436 721.74C465.399 718.698 465.074 716.669 465.19 713.277H465.187C465.201 712.907 466.369 709.221 465.454 709.586ZM10.4023 692.269C10.1788 693.842 9.92809 695.466 9.72452 697.022C9.56089 699.64 10.194 698.305 10.1815 698.578C9.84872 705.207 9.55817 706.141 10.0351 714.274C10.2014 715.27 10.3764 716.25 10.5478 717.246C12.0043 713.914 11.4686 711.391 11.9999 705.322V703.464C11.5227 704.676 11.0452 705.884 10.5663 707.097C10.6855 702.673 10.8036 698.268 10.9228 693.844C10.7489 693.319 10.5761 692.794 10.4023 692.269ZM461.057 678.862C461.175 679.034 461.31 679.327 461.465 679.752C461.495 678.581 461.525 677.42 461.555 676.248C461.389 676.21 461.222 676.174 461.057 676.137V678.862ZM461.057 665.372C461.16 664.158 461.276 662.576 461.412 660.543C461.293 660.535 461.175 660.524 461.057 660.514V665.372ZM11.9999 630.185C10.8116 635.472 10.1335 636.849 8.47452 632.834C8.64342 638.204 8.40167 641.544 9.32315 642.034C8.9234 643.152 8.5227 644.278 8.12296 645.379C8.13291 647.127 8.17041 648.7 8.16299 650.552C9.553 648.001 8.6969 652.946 9.32706 656.461C9.95796 659.976 11.0553 655.26 11.0702 664.914C11.3956 661.696 11.6753 658.754 11.9833 655.641C11.9888 655.737 11.9944 655.833 11.9999 655.929V643.033C11.3374 644.815 10.6566 646.485 9.86221 645.268C10.1658 639.603 11.1439 640.133 11.9999 639.341V630.185ZM461.057 613.657C461.128 615.775 461.141 617.678 461.065 618.985C461.062 618.982 461.059 618.979 461.057 618.976V650.115C461.437 647.199 461.735 643.998 461.713 637.635C463.429 647.254 460.387 652.517 463.829 652.482C463.603 654.895 463.374 657.329 463.148 659.742C463.647 660.11 464.147 660.474 464.646 660.824C464.383 647.865 461.1 626.338 463.277 617.661C463.012 616.612 462.781 615.559 462.495 614.492C463.809 605.993 460.859 602.322 462.558 593.7C462.736 592.81 465.507 594.671 465.408 583.448C465.048 583.727 464.442 583.873 463.987 584.1C464.208 581.67 464.44 579.252 464.666 576.839C464.333 576.402 464 575.944 463.665 575.507C463.536 579.652 463.404 583.785 463.275 587.93C463.161 584.486 463.047 581.02 462.933 577.576C462.389 582.069 462.383 584.096 461.512 581.388C461.459 577.488 461.405 573.582 461.352 569.682C461.254 569.505 461.155 569.329 461.057 569.153V613.657ZM11.9999 592.683C10.5692 599.727 10.221 611.509 10.8769 626.283C11.7064 624.201 11.2795 617.917 11.5526 614.296C11.6699 612.743 11.8276 612.578 11.9999 612.539V592.683ZM465.165 542.905C464.88 542.812 465.357 536.495 464.736 538.468C463.671 541.878 464.283 554.621 462.984 554.658C463.409 550.18 463.054 541.438 462.187 544.024C461.236 546.857 462.83 555.096 462.041 560.343C464.117 552.824 463.475 568.353 461.881 570.119C463.105 579.231 463.605 570.856 463.548 561.517C464.77 567.218 464.11 558.827 465.126 557.445C465.739 563.324 465.228 583.499 466.864 574.109C467.445 570.768 464.684 564.524 466.723 555.133C466.114 552.895 465.532 551.492 464.936 549.569C465.585 548.449 466.241 547.178 466.885 546.111V546.092C466.666 537.575 465.853 543.097 465.165 542.905ZM11.9999 545.143C11.9244 546.746 11.8043 548.346 11.5917 549.951C10.6454 557.066 9.73577 548.312 10.9403 564.891C11.3666 559.725 11.7165 556.119 11.9999 553.784V545.143ZM461.392 513.751C461.205 512.989 461.142 514.409 461.057 515.609V541.621C461.436 541.479 461.765 541.279 462.133 541.143C460.846 530.055 461.23 526.412 462.159 514.851C461.292 522.337 461.856 515.658 461.392 513.751ZM11.9999 507.168C11.2738 509.005 10.4028 509.746 10.0243 509.24C10.5459 513.245 10.5896 519.099 11.4042 519.921C11.4241 521.967 11.4429 523.998 11.4628 526.044C9.47878 523.912 9.84164 532.446 11.5478 533.006C11.59 529.491 11.6344 525.972 11.6767 522.456C11.7866 522.596 11.8949 522.698 11.9999 522.771V507.168ZM461.655 494.3C461.619 494.077 461.324 495.46 461.057 495.349V506.299C461.764 505.914 462.226 498.095 461.655 494.3ZM11.9999 491.742C11.5014 494.367 11.1567 497.29 11.4306 499.65C11.6091 499.613 11.801 499.534 11.9999 499.44V491.742ZM461.057 479.617C461.276 477.992 461.544 476.423 461.837 474.803C461.58 474.672 461.313 474.221 461.057 473.503V479.617ZM461.057 441.866C461.74 442.494 462.451 443.439 462.786 438.473C460.794 435.605 460.602 427.422 461.866 416.999C461.856 415.845 461.854 414.686 461.842 413.532C461.608 413.377 461.277 413.346 461.057 413.178V441.866ZM9.88077 433.868C10.3253 429.549 10.7683 425.213 11.2128 420.894C11.4748 422.539 11.7377 424.184 11.9999 425.828V417.62C11.3902 417.135 10.7805 416.65 10.1698 416.169C10.073 422.062 9.97762 427.958 9.88077 433.868ZM465.829 416.123C463.939 411.262 464.877 419.235 464.15 421.231C463.969 419.569 463.793 417.87 463.611 416.226C463.077 426.16 463.526 427.609 464.907 423.99C465 423.731 464.733 419.761 464.936 419.375C465.141 418.993 466.435 422.259 465.829 416.123ZM463.541 340.247C460.862 331.329 465.381 323.741 461.716 326.818C461.572 331.095 461.374 334.295 461.057 336.999V357.245C461.166 357.402 461.26 357.701 461.341 358.096C461.247 357.874 461.151 357.657 461.057 357.45V368.929C461.52 370.378 461.792 374.838 462.023 375.515C463.044 378.505 463.387 369.619 462.987 380.409H462.99C462.727 387.544 462.657 389.12 462.577 395.731C461.846 394.403 461.376 389.644 461.057 388.902V399.13C461.163 399.501 461.235 400.111 461.198 401.136C461.189 401.386 461.135 401.785 461.057 402.326V406.852C461.658 399.648 463.702 398.004 463.936 397.044C465.225 391.763 463.442 387.65 463.427 386.093C463.365 379.535 464.156 377.629 463.816 371.386C463.449 364.672 462.841 369.263 462.297 367.22C461.865 365.581 461.788 360.284 461.341 358.096C461.707 358.965 462.066 359.932 462.434 360.799C462.933 353.84 463.419 348.151 463.541 340.247ZM11.9999 381.474C11.7018 383.879 11.3564 386.2 11.3476 389.234C11.5633 388.642 11.7827 388.053 11.9999 387.464V381.474ZM10.7128 337.87C11.073 340.284 11.4303 342.719 11.788 345.15C10.5469 345.516 10.1986 345.149 10.4169 354.657C10.124 350.531 9.82659 346.422 9.53116 342.279C9.28054 342.139 9.01948 341.563 8.77628 341.701C9.25294 346.776 9.45872 361.062 9.78897 364.526C10.1193 367.988 10.2099 361.303 10.5302 362.298C13.1723 370.604 11.2234 369.946 11.6767 375.906C11.786 377.332 11.8964 376.788 11.9999 375.771V328.087C11.5698 331.348 11.1407 334.61 10.7128 337.87ZM465.868 354.088C463.084 352.724 464.336 365.261 465.2 364.806C465.234 363.076 464.763 361.73 464.972 359.895C465.18 358.041 465.831 357.567 465.868 354.088ZM11.9999 300.135C11.9369 300.775 11.8598 301.449 11.7616 302.156C11.5058 304.009 10.859 299.726 10.5312 302.314C10.3833 303.487 10.8719 306.336 10.495 309.201C10.3088 310.601 9.10682 317.142 9.67764 321.672C10.5092 319.843 11.2734 321.629 11.9999 322.372V313.769C11.8287 313.601 11.6574 313.433 11.4862 313.265C11.4341 310.521 11.3821 307.789 11.33 305.045C11.3305 305.039 11.3305 305.033 11.331 305.027C11.5539 305.291 11.7783 305.55 11.9999 305.813V300.135ZM464.801 306.723C460.819 294.044 463.26 322.598 464.616 317.161C464.678 316.907 464.361 307.912 464.801 306.723ZM461.057 295.401C461.244 297.397 461.365 299.757 461.306 303.47C462.155 301.266 461.979 296.077 462.997 299.435C462.749 289.657 461.857 292.683 461.057 289.02V295.401ZM7.25772 252.87C7.08186 257.606 7.95656 255.579 8.12296 257.485C8.74872 264.69 8.12334 269.604 8.51553 276.721C8.3467 276.249 8.18916 275.815 8.0253 275.361V275.379C7.28771 309.08 9.27199 291.379 8.94913 271.213C9.2745 270.741 9.60085 270.287 9.92374 269.815C9.355 260.791 8.80735 252.469 7.25772 252.87ZM11.9999 270.66V258.231C11.6745 258.106 11.3479 257.983 11.0233 257.857C11.3485 262.119 11.6746 266.397 11.9999 270.66ZM461.057 259.251C461.509 261.626 461.961 264.001 462.411 266.376C462.607 264.314 462.803 262.25 462.999 260.188C461.5 245.578 463.941 221.144 461.057 221.177V259.251ZM11.9999 203.496C11.4637 204.393 11.0811 205.852 11.7265 210.175C10.937 209.983 10.2268 209.827 9.46964 209.635C9.61366 211.4 9.80465 212.572 9.91885 214.704C11.4573 208.416 11.392 213.563 11.3944 216.205C11.3977 218.932 11.7229 217.115 11.9999 215.846V203.496ZM461.057 210.906C461.173 210.324 461.3 209.698 461.434 208.974C461.303 208.779 461.18 208.586 461.057 208.394V210.906ZM9.73135 174.759C9.43858 174.211 9.23988 182.608 8.38858 176.772C8.32159 179.324 8.33594 181.527 8.29874 183.939C7.93617 184.114 7.57342 184.288 7.21085 184.48C7.34214 181.497 7.47506 178.534 7.60635 175.551C6.51352 179.214 6.11718 188.617 7.30557 193.212C7.44466 190.799 7.58446 188.384 7.72354 185.971C7.8601 190.534 8.01044 195.046 8.13956 199.644C9.66182 199.888 8.77841 194.588 9.19815 186.614C9.26629 185.377 11.1555 177.485 9.73135 174.759ZM11.3095 180.705C10.5604 189.963 11.2973 193.109 11.9999 194.881V189.266C11.8078 186.137 11.7229 182.214 11.3095 180.705ZM461.623 182.402C461.841 183.517 462.061 184.661 462.278 185.776C461.813 177.858 463.483 177.726 462.551 169.988C462.243 174.132 461.931 178.275 461.623 182.402ZM461.057 137.347V147.159C462.074 145.28 463.034 142.896 462.712 136.761C462.16 136.957 461.608 137.152 461.057 137.347ZM9.41397 134.356C9.69463 143.818 10.2185 147.174 11.4628 141.84C11.1773 138.501 10.8919 135.141 10.6064 131.802C10.2091 132.659 9.81124 133.517 9.41397 134.356ZM461.057 130.492C461.266 130.374 461.475 130.265 461.684 130.144C461.61 131.333 461.536 132.506 461.459 133.695C461.866 132.663 462.272 131.652 462.68 130.638C462.138 127.455 461.598 124.267 461.057 121.071V130.492ZM8.36612 131.262C7.89421 126.19 8.25407 115.924 6.9501 118.512V118.493C6.87209 118.677 6.40244 127.873 6.83878 129.062C7.33047 130.041 7.85706 130.528 8.36612 131.262ZM461.081 106.182C461.072 106.187 461.064 106.196 461.057 106.206V108.925C461.095 109.683 461.119 110.393 461.057 110.742V116.95C461.226 117.234 461.406 117.558 461.602 117.888C461.508 116.192 461.417 114.476 461.323 112.781C462.428 113.899 463.086 111.031 462.997 120.945C463.312 120.263 463.613 119.568 463.94 118.904C463.891 117.278 464.158 116.223 464.036 114.44C463.703 109.578 461.762 105.85 461.081 106.182ZM11.1689 70.2239C12.1122 85.6482 10.7786 103.712 11.8437 118.717C11.8768 119.186 11.931 119.596 11.9999 119.972V71.9007C11.8555 70.7609 11.625 70.0821 11.1689 70.2239ZM461.057 7.8675C460.644 7.87485 460.225 7.88183 459.8 7.88703C460.218 7.93533 460.637 7.98217 461.057 8.02863L461.852 8.02082L461.86 8.83234C461.709 10.2034 461.565 11.5826 461.417 12.9612C461.281 11.9416 461.161 11.0863 461.057 10.3812V91.2747C461.669 89.6849 462.279 90.1598 463.099 98.1194C463.193 92.8388 463.287 87.5759 463.387 82.3128C463.603 83.3969 463.817 84.4816 464.033 85.5657C463.919 87.9438 463.806 90.3077 463.694 92.6859C464.089 89.8885 464.482 87.0858 464.877 84.2884C464.388 77.678 463.635 75.0864 462.706 72.0609C462.028 79.7543 462.954 77.2409 463.138 83.2357C462.549 83.0264 462.009 83.3026 461.391 82.7786C462.609 79.6805 461.723 69.5758 461.663 67.2327C461.482 60.1015 462.679 65.6936 462.704 60.9232C462.729 56.1484 462.017 50.5168 463.204 46.6165C462.539 46.6865 461.85 46.9989 461.244 47.2786C461.026 39.8464 461.811 41.3278 461.913 40.5589C463.536 28.6535 462.257 22.0281 462.021 8.83234L462.012 7.85871L461.057 7.8675ZM70.3573 7.46613C65.6004 8.02891 62.6542 8.50645 59.455 8.83234H70.2001C72.3207 8.70237 74.3805 8.64658 77.6532 8.83234H78.2968C75.646 8.37768 72.954 7.92054 70.3573 7.46613ZM126.456 8.83234H130.185C130.321 8.63466 130.559 8.44835 130.92 8.28351C129.434 8.46625 127.945 8.64955 126.456 8.83234ZM180.922 8.70148C172.762 6.18433 172.922 7.36461 174.84 8.83234H195.64C192.01 8.36945 190.364 7.86352 193.905 7.40656C189.095 7.80894 185.329 8.27426 180.922 8.70148ZM224.435 8.83234C219.941 8.18498 215.529 7.73082 209.73 8.65851C211.635 8.7314 212.987 8.78789 213.95 8.83234H224.435ZM273.434 5.17511C263.78 6.32507 258.79 8.20107 244.485 7.58039C246.818 7.99673 249.152 8.41513 251.482 8.83234H258.499C258.943 8.62749 259.387 8.42524 259.826 8.22101C266.419 8.42216 273.03 8.62142 279.622 8.82257C280.706 8.24882 281.772 7.6766 282.856 7.10285C284.605 7.17734 286.336 7.25004 288.085 7.32453C287.648 7.7392 287.206 8.15204 286.752 8.56672C290.214 8.4649 293.681 8.36091 297.126 8.2591C296.451 8.49479 295.724 8.68251 294.963 8.83234H322.934C322.647 8.82476 322.336 8.81605 322.001 8.80207C315.093 8.51393 309.966 6.40579 298.197 7.22004C297.602 7.26266 294.117 8.87667 289.902 7.7591C288.944 7.50578 292.98 7.13086 290.778 6.79816C288.574 6.46536 278.742 6.19199 277.973 5.39972C278.078 5.68016 278.691 5.97077 278.988 6.25617C277.31 6.39023 275.615 6.52498 273.919 6.65656C273.761 6.16237 273.591 5.66682 273.434 5.17511ZM352.049 7.94074C342.815 8.63612 336.113 7.70219 326.792 7.92316C325.521 7.95358 327.735 8.71163 324.832 8.83234H363.926C363.912 8.80237 363.898 8.77211 363.886 8.74054C359.671 8.72811 355.683 8.63193 351.556 8.58722C355.578 8.43821 359.602 8.29385 363.606 8.14484C360.179 7.5041 356.772 6.86468 353.345 6.22394C352.907 6.7952 352.468 7.37693 352.049 7.94074ZM401.474 6.45539C396.49 7.27226 392.222 6.43631 388.025 6.62726C383.845 6.81851 385.436 7.69568 380.522 8.03351C379.613 8.0956 377.719 7.54673 375.48 7.95148C374.783 8.07708 373.506 8.45155 372.046 8.83234H402.974C402.504 8.0467 402.063 7.26744 401.474 6.45539ZM435.575 8.83234H447.759C446.229 8.72245 445.077 8.48935 444.216 8.40558C438.516 7.85203 438.695 9.0726 435.25 7.7591C435.37 8.14577 435.463 8.4795 435.575 8.83234ZM455.466 8.12238C453.789 8.52724 452.312 8.73962 451.014 8.83234H456.607C456.232 8.60766 455.852 8.37571 455.466 8.12238ZM51.7636 7.62336C46.8848 7.34025 39.8544 7.52564 34.5028 7.46613C34.9236 8.48174 48.5254 8.20107 53.3017 8.81672C54.0689 8.63435 53.8256 7.74248 51.7636 7.62336ZM410.654 7.66242C412.403 7.65249 414.134 7.64261 415.883 7.63019C415.69 7.42887 415.461 7.21893 415.24 7.01203C415.082 6.84854 414.923 6.68528 414.765 6.52179C415.779 7.10619 424.108 8.07747 427.617 7.45343C429.381 7.14031 425.367 6.0283 432.846 5.83429C427.425 5.89145 422.404 6.04364 417.142 6.138C417.614 5.80771 418.067 5.47318 418.539 5.14289C418.536 5.14243 418.533 5.14237 418.53 5.14191C416.782 5.06742 415.012 4.98886 413.264 4.91437C412.389 5.83086 411.529 6.74593 410.654 7.66242Z" fill="white"/>
</svg>
