<svg width="223" height="244" viewBox="0 0 223 244" fill="none" xmlns="http://www.w3.org/2000/svg">
<path d="M27.7861 0.183448C78.5083 -0.304802 128.114 0.34872 178.518 0.237159C179.035 0.235432 178.81 0.0995638 179.03 0.093604C180.402 0.059657 181.75 0.27043 182.257 0.279151C183.34 0.297062 182.744 0.102532 183.536 0.102393C191.717 0.104571 199.436 0.218722 207.623 0.185401C208.156 0.183229 207.612 0.339883 208.549 0.312354C209.033 0.297153 210.545 0.0581951 211.636 0.0545415C214.573 0.045053 217.148 0.0885719 220.015 0.107276L222.465 0.0877446L222.484 2.57603C222.479 3.42818 222.476 4.30654 222.477 5.22739C222.479 7.42524 222.458 10.7222 222.462 13.1795C222.463 14.2649 222.572 15.3963 222.576 16.4686C222.581 17.9901 222.359 17.6798 222.346 17.9139C222.286 18.9408 222.529 19.0834 222.523 20.0584C222.512 21.8725 222.35 21.9707 222.363 24.2723C222.373 25.9176 222.501 29.6833 222.539 31.7577C222.351 36.6088 222.425 42.722 222.487 47.2479C222.524 49.9265 222.297 50.175 222.298 51.2674C222.302 55.1165 222.593 58.038 222.603 61.6532C222.615 66.451 222.422 70.7031 222.408 75.3514C222.406 76.105 222.615 75.9322 222.62 76.6717C222.64 79.4093 222.677 82.9099 222.647 85.3485C222.615 88.066 222.312 89.0691 222.374 91.7284C222.392 92.5079 222.657 92.7373 222.691 94.0438C222.745 96.1308 222.511 98.4195 222.485 99.8758C222.451 101.872 222.721 100.136 222.685 102.828C222.683 102.939 222.49 103.342 222.499 103.92C222.525 105.604 222.678 105.437 222.663 107.901C222.661 108.139 222.477 111.405 222.477 111.73C222.474 113.642 222.409 117.491 222.448 118.623C222.587 122.667 222.877 119.484 222.247 122.924C222.401 124.438 222.558 125.941 222.708 127.547C222.568 126.475 222.366 130.824 222.379 131.13C222.484 133.657 222.729 132.152 222.688 135.357C222.122 131.124 222.615 139.493 222.63 141.359C222.7 150.346 222.559 158.515 222.562 167.547C222.564 170.57 222.685 174.622 222.682 177.821C222.681 178.567 222.547 178.004 222.544 178.66C222.542 179.314 222.693 178.589 222.685 179.336C222.632 183.985 222.348 187.628 222.703 191.887C222.652 192.094 222.611 192.088 222.555 192.431C222.873 195.917 222.445 202.629 222.387 205.152C222.295 209.098 222.51 210.107 222.467 212.973C222.409 216.764 221.99 222.456 222.683 219.915C222.704 222.515 222.71 225.019 222.645 227.645C222.638 227.937 222.463 227.737 222.459 227.853C222.434 228.594 222.591 228.836 222.599 229.337C222.618 230.694 222.429 228.479 222.481 230.415C222.51 231.435 222.647 232.016 222.65 234.85C222.652 236.641 222.653 238.449 222.653 240.269L222.674 242.887L220.015 242.907C204.466 242.909 187.955 242.868 172.272 242.847C171.069 242.846 171.861 243.017 170.353 243.006C165.111 242.968 155.729 242.68 151.21 242.72C146.691 242.759 147.71 243.008 144.883 243.112C144.337 243.132 144.784 242.991 144.29 242.989C140.967 242.976 137.006 242.754 134.313 242.721C132.533 242.698 132.675 242.922 131.44 242.938C129.6 242.961 127.707 242.736 126.725 242.728C122.108 242.697 118.934 242.878 114.623 242.785C114.792 242.834 114.903 242.88 115.046 242.929C109.942 242.921 104.843 242.912 99.7392 242.904C99.9797 242.949 100.213 242.995 100.453 243.041C94.4655 243.016 95.1481 242.529 95.6748 243.556C95.2392 243.593 94.7774 243.635 94.3613 243.669C94.5303 243.139 90.9079 242.752 86.2978 242.617C85.9597 242.607 83.6907 243.122 83.9375 242.513C83.346 242.662 82.9936 242.765 82.4931 242.896C81.518 242.712 80.5288 242.529 79.5537 242.345C79.0273 242.372 78.4932 242.399 77.9668 242.427C77.8891 242.546 77.9492 242.671 77.7803 242.788C75.3354 242.806 70.3206 242.658 68.3887 242.673C63.5895 242.711 58.7033 243.035 54.9707 242.685C53.1532 242.721 54.9578 242.955 52.2539 242.926C51.9485 242.807 51.6611 242.693 51.3428 242.571C49.133 243.102 48.671 242.779 45.6426 242.668C43.5944 242.592 42.2531 242.722 40.3027 242.697C39.8085 242.691 39.8782 242.535 39.54 242.54C38.4076 242.556 35.1769 242.77 34.3769 242.776C27.1333 242.833 20.9098 242.808 14.0107 242.751C13.27 242.745 14.2303 242.899 13.4639 242.892C12.2294 242.882 12.9553 242.646 12.2402 242.635C10.2454 242.604 10.2298 242.853 7.44725 242.866C6.15653 242.872 4.83864 242.873 3.49998 242.871L0.917953 242.891L0.898421 240.269C0.910535 232.106 1.05012 223.172 1.06444 214.949C1.06444 214.65 0.918594 214.667 0.916976 214.343C0.90984 212.223 1.1076 210.077 1.10545 208.153C1.10256 204.96 0.896747 202.561 0.897445 199.407C0.898169 193.242 1.00395 187.734 1.00975 181.393C1.01482 176.204 0.995354 171.697 0.996078 166.008C0.998974 141.154 0.535902 115.792 0.78221 90.7684C0.788747 90.1323 0.916498 90.3905 0.911117 90.1971C0.85534 88.3505 0.681623 88.1848 1.04588 87.5282C0.974064 85.1759 0.701157 84.4333 0.720687 81.5926C0.730939 80.0784 1.15418 81.2084 0.935531 78.6473C0.73778 76.3341 0.505592 78.8861 0.743148 72.0077C0.749678 71.8256 1.00861 70.9289 0.94139 69.4989C0.874743 68.0617 0.689562 69.7246 0.633773 66.2655C0.503389 58.1438 0.72697 47.8634 0.658187 38.4217C0.653841 37.83 0.514914 32.1313 0.451156 31.0057C0.327287 28.8287 0.134984 29.2831 0.0878745 26.4559C0.0516534 24.2709 0.269997 22.4679 0.226546 19.8993C0.221264 19.6001 -0.00329112 19.0988 0.0263511 17.1688C0.0560529 15.2439 -0.102473 10.8334 0.124984 8.40122C0.181077 7.80278 0.907196 5.80909 1.00291 5.81919C1.32504 5.87903 1.36908 8.31132 1.57909 5.70493C1.58127 6.58197 1.59282 7.43394 1.59862 8.30454C1.81505 8.14866 2.03134 7.99303 2.24705 7.8436C2.21446 6.78366 2.18174 5.72188 2.14842 4.66196C2.22006 4.61001 2.2926 4.55867 2.36424 4.50669C2.36572 8.31658 2.64248 6.06794 2.90037 8.04478C3.03074 6.22439 3.16063 4.38991 3.291 2.57603C3.27507 3.62268 3.26295 4.85784 3.24412 5.7811C3.38482 5.82837 3.4585 5.53394 3.49998 5.13169V2.57603H12.9043C11.4918 2.48091 9.70065 2.35468 9.6035 2.33579C8.88967 2.19676 9.97338 1.995 9.65623 1.92466C8.77202 1.72765 3.40021 1.23284 3.50194 1.15806C4.81876 0.242654 22.8959 0.230529 27.7861 0.183448ZM214.75 240.799C213.651 240.783 212.55 240.766 211.444 240.75C211.412 240.871 211.38 240.993 211.348 241.114C216.217 240.957 215.095 241.306 217.506 241.65C217.038 241.219 216.576 240.788 216.108 240.356C215.653 240.504 215.198 240.651 214.75 240.799ZM3.49998 233.596C3.1528 235.566 2.95597 236.081 2.47166 234.587C2.52089 236.582 2.45047 237.824 2.71873 238.007C2.60215 238.423 2.4857 238.841 2.36912 239.251C2.37069 239.6 2.37503 239.931 2.37791 240.269L2.3867 241.4L3.49998 241.391C3.79057 241.389 4.08693 241.388 4.40526 241.389C3.45674 240.983 5.29561 241.232 6.60252 241.049C7.90881 240.865 6.15597 240.544 9.7451 240.54C8.54866 240.445 7.45434 240.364 6.29686 240.274C6.33299 240.273 6.36912 240.271 6.40526 240.269H3.49998V238.378C3.30651 239.041 3.10772 239.662 2.87596 239.21C2.96465 237.1 3.24993 237.3 3.49998 237.004V233.596ZM144.64 240.6C142.358 240.627 141.838 240.734 142.228 240.975C141.709 241.004 141.182 241.033 140.662 241.061C140.422 241.014 140.174 240.968 139.934 240.921C139.661 241.02 139.386 241.118 139.12 241.218C138.568 241.198 138.008 241.178 137.456 241.158C137.391 241.208 137.28 241.252 137.241 241.306C139.583 241.284 143.242 241.487 144.845 241.186C145.777 241.011 142.112 240.876 144.64 240.6ZM56.832 241.1C57.0206 241.163 57.2092 241.226 57.4043 241.288C59.6213 241.099 60.3632 241.001 59.3164 240.695C59.3141 240.695 59.3118 240.694 59.3096 240.694C58.4839 240.83 57.6576 240.965 56.832 241.1ZM150.67 240.911C150.741 241.031 150.803 241.151 150.874 241.271C154.09 241.296 154.488 241.119 155.157 240.806C153.662 240.841 152.165 240.875 150.67 240.911ZM167.04 240.269C166.651 240.31 166.306 240.35 166.184 240.411C165.619 240.69 167.408 240.887 165.841 241.162C171.287 241.021 176.544 240.795 176.255 240.269H167.04ZM182.821 240.354C181.222 240.375 179.621 240.396 178.028 240.417C177.996 240.537 177.96 240.658 177.935 240.778C179.645 240.742 181.364 240.705 183.074 240.669C181.826 240.75 180.57 240.831 179.321 240.912C181.304 240.97 183.288 241.028 185.27 241.086C183.38 240.686 185.388 240.602 185.445 240.269H182.579C182.659 240.298 182.74 240.326 182.821 240.354ZM98.8047 240.269C98.8472 240.314 98.858 240.361 98.8281 240.413C98.7057 240.616 95.2799 240.823 97.0918 241.04C98.5659 241.083 97.5686 240.841 98.1699 240.828C102.514 240.74 102.262 241.079 104.037 240.988C104.316 240.843 104.611 240.695 104.896 240.548C105.566 240.59 106.237 240.633 106.913 240.676C107.069 240.578 107.232 240.48 107.388 240.383C106.757 240.376 106.046 240.369 105.468 240.362C105.54 240.328 105.664 240.3 105.829 240.269H102.057C101.005 240.317 100.082 240.38 99.6982 240.587C99.5302 240.463 99.8676 240.359 100.246 240.269H98.8047ZM220.51 240.269L220.514 240.76L220.015 240.764C219.878 240.764 219.742 240.765 219.605 240.766C219.741 240.831 219.878 240.896 220.015 240.961L220.712 240.955L220.706 240.269C220.784 240.104 220.862 239.938 220.94 239.774C220.789 238.779 220.637 237.782 220.485 236.787C220.494 237.945 220.501 239.106 220.51 240.269ZM54.1338 240.269C52.877 240.476 53.3357 240.699 54.2783 240.953C54.6875 240.914 55.0888 240.875 55.498 240.836C55.3797 240.647 55.2612 240.458 55.1396 240.269H54.1338ZM25.4297 240.687C23.785 240.653 22.1466 240.619 20.5019 240.584C20.3069 240.635 20.111 240.684 19.916 240.735C20.501 240.8 21.1051 240.873 21.6836 240.932C22.6562 240.98 22.1607 240.796 22.2617 240.8C24.7263 240.897 25.0738 240.982 28.0976 240.843C28.4682 240.794 28.8326 240.743 29.2031 240.693C27.9644 240.268 27.0263 240.424 24.7705 240.269H24.0781C24.5287 240.409 24.9787 240.548 25.4297 240.687ZM186.492 240.269C189.517 240.61 192.237 240.963 197.095 240.687C198.174 240.626 197.588 240.318 200.65 240.692C200.402 240.528 200.668 240.394 201.113 240.269H200.032C199.911 240.284 199.778 240.299 199.631 240.309C197.349 240.477 194.022 240.169 194.156 240.662C193.246 240.639 192.4 240.626 191.516 240.606C191.848 240.494 192.174 240.381 192.501 240.269H192.12C190.611 240.37 189.458 240.368 188.52 240.269H186.492ZM109.075 240.269C108.493 240.326 108.221 240.42 108.934 240.659C110.917 240.595 113.167 240.529 115.254 240.465C115.319 240.561 115.379 240.658 115.444 240.754C117.589 240.706 116.612 240.47 116.028 240.269H109.075ZM145.085 240.269C146.179 240.347 146.943 240.508 147.218 240.523C150.162 240.69 151.483 240.538 153.882 240.747C153.759 240.583 153.688 240.428 153.593 240.269H153.317C151.286 240.498 150.142 240.486 147.184 240.432C148.217 240.398 149.251 240.362 150.285 240.327C150.262 240.308 150.24 240.288 150.217 240.269H145.085ZM220.357 227.822C220.327 227.699 220.165 228.231 220.015 228.151V237.444C220.052 237.514 220.09 237.584 220.128 237.653C220.122 238.762 220.078 239.56 220.015 240.108V240.269H216.75C219.318 240.368 218.653 240.631 220.015 240.639L220.387 240.636L220.384 240.269C220.387 239.646 220.337 238.599 220.192 236.624C220.311 236.448 220.433 236.26 220.551 236.097C220.558 233.791 220.289 233.977 220.238 231.995C220.207 230.753 220.678 229.194 220.357 227.822ZM139.995 240.269C140.256 240.344 140.494 240.439 140.7 240.562C142.473 240.587 141.911 240.354 142.436 240.302C142.563 240.289 142.689 240.279 142.812 240.269H139.995ZM124.55 240.269C124.652 240.356 124.748 240.442 124.821 240.534C128.078 240.302 129.561 240.675 133.385 240.405C133.858 240.372 134.364 240.321 134.886 240.269H130.735C130.054 240.332 129.275 240.35 128.752 240.269H124.55ZM121.163 240.269C121.145 240.359 121.297 240.43 122.406 240.405C122.373 240.361 122.316 240.315 122.263 240.269H121.163ZM118.459 240.365C118.464 240.338 118.48 240.305 118.514 240.269H118.182C118.272 240.301 118.364 240.335 118.459 240.365ZM39.2353 240.285C39.2367 240.28 39.2379 240.275 39.2392 240.269H38.957C39.0498 240.275 39.1425 240.28 39.2353 240.285ZM3.49998 219.662C3.08339 222.282 2.98165 226.66 3.17284 232.15C3.41462 231.376 3.28951 229.04 3.36912 227.694C3.40327 227.117 3.44967 227.057 3.49998 227.042V219.662ZM220.441 210.451C220.88 206.967 220.503 203.084 220.015 203.803V204.334C220.105 204.71 220.233 204.096 220.116 205.443C220.082 205.491 220.049 205.54 220.015 205.59V222.203C220.13 221.918 220.251 221.748 220.318 220.806C220.462 218.77 219.898 214.113 220.538 212.741C220.453 213.807 220.407 215.165 220.338 216.348C220.462 216.83 220.586 217.299 220.71 217.773C220.549 215.068 220.738 212.272 220.441 210.451ZM221.298 213.573C220.666 215.27 221.072 218.689 221.292 218.092C221.281 216.961 221.187 216.206 221.221 214.945H221.22C221.223 214.808 221.564 213.438 221.298 213.573ZM3.49998 201.94C3.47812 202.55 3.44428 203.159 3.38084 203.769C3.10486 206.415 2.83911 203.16 3.19041 209.324C3.31506 207.398 3.41718 206.056 3.49998 205.187V201.94ZM220.015 202.148C220.049 202.212 220.089 202.322 220.134 202.48C220.142 202.045 220.151 201.613 220.16 201.178C220.112 201.163 220.063 201.149 220.015 201.136V202.148ZM3.49998 187.86C3.28812 188.545 3.03436 188.821 2.92381 188.633C3.07592 190.122 3.08855 192.299 3.32616 192.604C3.33195 193.365 3.33794 194.12 3.34373 194.881C2.76503 194.088 2.87049 197.261 3.36815 197.47C3.38046 196.163 3.39294 194.854 3.40526 193.547C3.43693 193.598 3.46971 193.634 3.49998 193.661V187.86ZM220.015 197.12C220.044 196.67 220.08 196.087 220.119 195.339C220.084 195.336 220.049 195.331 220.015 195.327V197.12ZM220.015 177.889C220.036 178.683 220.04 179.397 220.018 179.887C220.017 179.885 220.016 179.884 220.015 179.883V191.459C220.125 190.375 220.213 189.185 220.206 186.821C220.706 190.397 219.82 192.353 220.823 192.341C220.757 193.238 220.691 194.143 220.625 195.041C220.77 195.177 220.917 195.312 221.062 195.442C220.986 190.624 220.027 182.62 220.662 179.394C220.585 179.005 220.518 178.613 220.435 178.217C220.818 175.056 219.958 173.691 220.453 170.485C220.505 170.155 221.313 170.846 221.284 166.674C221.179 166.777 221.002 166.832 220.87 166.916C220.935 166.012 221.001 165.114 221.067 164.217C220.97 164.054 220.873 163.883 220.775 163.721C220.738 165.262 220.7 166.799 220.662 168.34C220.629 167.059 220.596 165.77 220.562 164.49C220.404 166.161 220.402 166.914 220.147 165.907C220.132 164.457 220.117 163.005 220.102 161.555C220.073 161.488 220.044 161.422 220.015 161.356V177.889ZM3.49998 182.127C3.35462 183.103 3.25408 184.19 3.33397 185.067C3.38619 185.054 3.4418 185.023 3.49998 184.988V182.127ZM221.213 151.599C221.13 151.563 221.269 149.216 221.088 149.95C220.777 151.219 220.956 155.955 220.577 155.969C220.701 154.304 220.597 151.054 220.345 152.014C220.067 153.068 220.532 156.132 220.302 158.083C220.907 155.288 220.721 161.059 220.256 161.718C220.613 165.105 220.758 161.992 220.741 158.519C221.098 160.639 220.906 157.519 221.202 157.005C221.381 159.191 221.232 166.692 221.709 163.201C221.878 161.959 221.072 159.637 221.667 156.145C221.49 155.314 221.32 154.792 221.146 154.077C221.336 153.661 221.527 153.188 221.715 152.791V152.784C221.651 149.618 221.414 151.671 221.213 151.599ZM2.88182 160.609C3.01147 159.003 3.14084 157.391 3.27049 155.785C3.34685 156.396 3.42356 157.007 3.49998 157.618V154.567C3.32199 154.387 3.14389 154.207 2.9658 154.028C2.93756 156.219 2.91007 158.412 2.88182 160.609ZM220.112 140.76C220.059 140.482 220.039 140.983 220.015 141.423V151.12C220.125 151.067 220.222 150.995 220.329 150.944C219.954 146.821 220.066 145.467 220.337 141.169C220.084 143.951 220.248 141.469 220.112 140.76ZM3.49998 141.132C3.413 142.025 3.31213 142.887 3.30955 144.014C3.37205 143.795 3.43708 143.578 3.49998 143.36V141.132ZM3.12498 124.916C3.23001 125.813 3.33416 126.718 3.43846 127.622C3.07648 127.758 2.97439 127.622 3.03807 131.157C2.95264 129.623 2.86641 128.096 2.78026 126.556C2.70716 126.504 2.63049 126.289 2.55955 126.341C2.69856 128.228 2.75913 133.54 2.85545 134.827C2.95178 136.114 2.97783 133.628 3.07127 133.999C3.84174 137.087 3.27301 136.843 3.40526 139.058C3.43728 139.59 3.46956 139.384 3.49998 139.003V121.279C3.3746 122.491 3.24976 123.704 3.12498 124.916ZM220.189 133.527C220.179 133.444 220.093 133.963 220.015 133.914V137.987C220.22 137.837 220.356 134.936 220.189 133.527ZM220.015 128.077C220.079 127.47 220.156 126.884 220.242 126.278C220.167 126.229 220.09 126.058 220.015 125.787V128.077ZM3.43065 111.637C3.35602 112.326 3.16689 110.734 3.07127 111.696C3.02833 112.133 3.17042 113.192 3.06053 114.257C3.00611 114.777 2.65578 117.209 2.82225 118.893C3.06461 118.214 3.28817 118.876 3.49998 119.152V115.954C3.45023 115.892 3.40033 115.83 3.35057 115.767C3.33536 114.747 3.31988 113.731 3.30467 112.711C3.3048 112.709 3.30455 112.706 3.30467 112.704C3.36963 112.802 3.43536 112.898 3.49998 112.996V110.872C3.48145 111.114 3.4598 111.369 3.43065 111.637ZM220.015 114.032C220.214 114.266 220.422 114.616 220.52 112.77C219.939 111.704 219.882 108.661 220.251 104.786C220.248 104.357 220.248 103.926 220.244 103.497C220.176 103.439 220.079 103.427 220.015 103.364V114.032ZM2.11717 93.3123C2.06593 95.0725 2.32055 94.3191 2.36912 95.0272C2.55163 97.7059 2.36902 99.5336 2.48338 102.18C2.43418 102.004 2.38856 101.843 2.3408 101.674V101.681C2.12568 114.211 2.7045 107.629 2.61034 100.132C2.70518 99.9562 2.8004 99.7877 2.89451 99.6122C2.72866 96.2576 2.56899 93.1641 2.11717 93.3123ZM221.407 104.46C220.856 102.653 221.129 105.617 220.917 106.359C220.864 105.741 220.813 105.109 220.76 104.498C220.604 108.191 220.735 108.731 221.138 107.385C221.165 107.287 221.088 105.815 221.146 105.67C221.206 105.527 221.584 106.742 221.407 104.46ZM220.739 76.2489C219.958 72.9328 221.276 70.1116 220.207 71.2557C220.165 72.8377 220.106 74.0231 220.015 75.0252V86.9139C220.15 87.4537 220.229 89.1108 220.297 89.3622C220.594 90.4723 220.695 87.1702 220.578 91.1815H220.579C220.502 93.8341 220.481 94.4201 220.458 96.8778C220.245 96.3841 220.108 94.6178 220.015 94.3397V98.1473C220.045 98.2857 220.067 98.5114 220.057 98.8875C220.054 98.9807 220.038 99.13 220.015 99.3319V101.015C220.19 98.3361 220.786 97.7242 220.854 97.367C221.23 95.4035 220.711 93.8738 220.706 93.2948C220.688 90.8566 220.918 90.1477 220.819 87.827C220.712 85.3306 220.536 87.0363 220.377 86.2772C220.251 85.6675 220.228 83.6982 220.098 82.8846C220.204 83.2078 220.309 83.5682 220.416 83.8905C220.562 81.303 220.704 79.1876 220.739 76.2489ZM3.49998 99.9325V95.3045C3.40506 95.2581 3.30944 95.2128 3.21483 95.1659C3.3098 96.7526 3.405 98.3452 3.49998 99.9325ZM221.418 81.3954C220.606 80.8886 220.972 85.548 221.224 85.3797C221.234 84.7365 221.096 84.2359 221.157 83.5536C221.218 82.8648 221.407 82.6882 221.418 81.3954ZM3.49998 74.9569C3.3441 75.2905 3.23215 75.834 3.41991 77.4373C3.18976 77.3659 2.98246 77.3077 2.7617 77.2362C2.80371 77.8925 2.86023 78.329 2.89354 79.1219C3.34228 76.7834 3.32253 78.6972 3.32323 79.6795C3.32418 80.6895 3.41923 80.0222 3.49998 79.5506V74.9569ZM2.83885 64.2694C2.75346 64.0655 2.69456 67.1872 2.44627 65.0174C2.42674 65.9662 2.43173 66.7856 2.42088 67.6825C2.31521 67.7475 2.20917 67.8122 2.1035 67.8836C2.14179 66.7746 2.18044 65.6724 2.21873 64.5633C1.9 65.9255 1.78419 69.4222 2.13084 71.1307C2.17141 70.2335 2.21235 69.3356 2.25291 68.4383C2.29274 70.1346 2.33635 71.8121 2.37401 73.5213C2.81801 73.6122 2.56023 71.6425 2.6826 68.6776C2.70234 68.2185 3.25401 65.2833 2.83885 64.2694ZM3.29881 66.4803C3.08123 69.9083 3.29582 71.0818 3.49998 71.742V69.5926C3.44636 68.4415 3.41694 67.0301 3.29881 66.4803ZM221.106 63.784C219.945 59.0703 220.657 69.6857 221.053 67.6649C221.07 67.5647 220.978 64.2261 221.106 63.784ZM220.015 59.5682C220.07 60.3117 220.105 61.1907 220.088 62.575C220.336 61.7557 220.284 59.826 220.581 61.0741C220.509 57.4376 220.248 58.5642 220.015 57.2V59.5682ZM2.74608 49.2469C2.82793 52.7645 2.98087 54.0126 3.34373 52.0301C3.26046 50.7886 3.17701 49.5392 3.09373 48.2977C2.9779 48.6161 2.86191 48.935 2.74608 49.2469ZM220.015 46.1327C220.147 47.0161 220.279 47.8996 220.41 48.7831C220.467 48.0166 220.524 47.2487 220.581 46.4823C220.144 41.0486 220.857 31.961 220.015 31.9784V46.1327ZM2.44041 48.0965C2.30277 46.2107 2.40766 42.3938 2.02733 43.3563L1.99412 43.9286C1.95195 44.9395 1.89958 46.9479 1.9951 47.2791C2.13844 47.6427 2.29202 47.8236 2.44041 48.0965ZM3.2578 25.4022C3.53293 31.1371 3.14343 37.8536 3.45409 43.4325C3.4638 43.6074 3.47977 43.7602 3.49998 43.9002V26.0262C3.45795 25.6022 3.39083 25.3496 3.2578 25.4022ZM220.015 28.1541C220.048 27.9391 220.086 27.7077 220.125 27.4403C220.086 27.3678 220.051 27.296 220.015 27.2245V28.1541ZM220.181 17.5604C220.244 17.9747 220.308 18.3999 220.371 18.8143C220.236 15.8708 220.722 15.8214 220.45 12.9442C220.36 14.485 220.27 16.0261 220.181 17.5604ZM218.029 2.0936C218.102 2.25459 218.174 2.41521 218.247 2.57603H220.015V4.45688C220.204 4.01098 220.387 3.4888 220.47 2.57603L220.467 2.11802L220.015 2.12095C219.497 2.07409 218.854 2.05964 218.029 2.0936ZM25.1982 2.17759C23.4069 2.34383 22.3059 2.48104 21.0986 2.57603H25.1416C25.918 2.53883 26.6728 2.52463 27.8584 2.57603H28.1484C27.1634 2.44348 26.1631 2.31005 25.1982 2.17759ZM46.0537 2.57603H47.4424C47.4926 2.51834 47.5816 2.46398 47.7158 2.41587C47.1626 2.46924 46.6083 2.52268 46.0537 2.57603ZM66.3066 2.53794C63.2713 1.80349 63.3327 2.14772 64.0469 2.57603H71.7881C70.4327 2.44073 69.8155 2.29357 71.1347 2.16001C69.3464 2.27737 67.9454 2.41333 66.3066 2.53794ZM82.4775 2.57603C80.8092 2.38775 79.1709 2.25513 77.0185 2.52524C77.7143 2.54613 78.2115 2.56321 78.5683 2.57603H82.4775ZM100.704 1.50962C97.1146 1.84502 95.2592 2.39183 89.9404 2.21079C90.8079 2.33222 91.6756 2.45434 92.542 2.57603H95.1504C95.3159 2.51613 95.4809 2.45698 95.6445 2.39731C98.0957 2.45598 100.554 2.51443 103.005 2.5731C103.408 2.40582 103.804 2.23939 104.207 2.07212C104.857 2.09385 105.501 2.11485 106.151 2.13657C105.989 2.25746 105.825 2.37799 105.656 2.49888C106.943 2.46919 108.232 2.43873 109.513 2.40903C109.262 2.47765 108.992 2.53238 108.71 2.57603H119.27C119.12 2.57404 118.952 2.57345 118.762 2.56724C116.193 2.4832 114.287 1.86881 109.911 2.1063C109.689 2.11888 108.394 2.58938 106.827 2.26353C106.471 2.18965 107.971 2.08028 107.153 1.98325C106.334 1.8862 102.68 1.806 102.392 1.57505C102.431 1.65678 102.659 1.74188 102.77 1.82505C102.145 1.86416 101.514 1.90288 100.884 1.94126C100.825 1.7973 100.763 1.65286 100.704 1.50962ZM129.934 2.31626C126.5 2.51906 124.009 2.24692 120.543 2.31138C120.073 2.32021 120.886 2.53931 119.83 2.57603H134.352C134.346 2.56712 134.339 2.55905 134.335 2.54966C132.768 2.54603 131.285 2.51778 129.75 2.50474C131.245 2.46127 132.742 2.41929 134.231 2.37583C132.957 2.18897 131.69 2.00215 130.416 1.81528C130.253 1.98188 130.09 2.15183 129.934 2.31626ZM148.311 1.88267C146.458 2.12092 144.871 1.87682 143.311 1.93247C141.756 1.98825 142.348 2.24409 140.52 2.34263C140.182 2.36073 139.478 2.20111 138.645 2.31919C138.385 2.35603 137.907 2.4645 137.361 2.57603H148.872C148.697 2.34632 148.53 2.12019 148.311 1.88267ZM160.99 2.57603H165.571C164.977 2.54521 164.532 2.47619 164.202 2.45103C162.083 2.28966 162.149 2.64643 160.869 2.26353C160.914 2.37618 160.949 2.47316 160.99 2.57603ZM168.385 2.36899C167.751 2.48896 167.195 2.54976 166.706 2.57603H168.811C168.671 2.51039 168.529 2.44308 168.385 2.36899ZM198.52 1.46177C196.062 1.60447 195.098 1.82466 193.974 2.09556C196.834 2.2932 195.899 2.02326 198.128 1.96958C198.051 2.14093 198.153 2.29832 197.958 2.47837C196.806 2.12316 193.049 2.38189 192.178 2.39927C189.527 2.45201 191.606 2.1029 189.832 2.09556C188.057 2.08832 185.963 2.29631 184.513 1.95005C184.539 2.14398 184.655 2.34474 184.759 2.52134C181.996 2.58506 182.546 2.35587 182.261 2.32603C177.696 1.83778 175.219 2.25063 169.997 2.30064C170.66 2.36073 171.33 2.41505 172 2.47153C171.629 2.51035 171.317 2.5461 171.058 2.57603H201.122C200.525 2.39702 200.695 2.22004 203.662 1.98032C201.699 1.9528 199.742 1.92531 197.785 1.89634C198.188 1.83335 198.591 1.77085 198.994 1.70786C199.878 1.74118 200.757 1.7739 201.642 1.80649C200.602 1.69136 199.56 1.5769 198.52 1.46177ZM209.73 1.70689C207.923 1.80396 206.537 2.37069 206.66 2.56919C206.662 2.57259 206.668 2.57326 206.674 2.57603H207.683C207.959 2.56517 208.217 2.55889 208.349 2.57603H210.669C210.774 2.52732 210.892 2.47338 211.013 2.41685C210.382 2.44436 209.744 2.47136 209.113 2.49888C209.529 2.17657 208.463 1.98456 212.148 2.0106C211.895 1.9187 211.636 1.83072 211.39 1.73521C210.785 1.74965 210.393 1.67149 209.73 1.70689ZM212.196 2.57603H215.698C215.654 2.51485 215.615 2.45349 215.569 2.39243C216.011 2.41416 216.448 2.43639 216.89 2.45884C216.506 2.34003 216.13 2.2212 215.753 2.10239C214.57 2.2602 213.385 2.41816 212.196 2.57603ZM11.8672 2.17759C12.0266 2.47348 17.0811 2.39164 18.8564 2.57114C19.1416 2.51793 19.0508 2.25823 18.2842 2.22349C16.4703 2.14095 13.8567 2.19493 11.8672 2.17759ZM151.724 2.23521C152.374 2.23231 153.018 2.22906 153.668 2.22544C153.596 2.16672 153.511 2.10513 153.429 2.04478C153.37 1.99717 153.311 1.9498 153.252 1.9022C153.629 2.07265 156.727 2.35569 158.031 2.17368C158.686 2.08229 157.195 1.75859 159.975 1.702C157.959 1.71868 156.093 1.76237 154.136 1.78989C154.311 1.69359 154.48 1.59616 154.655 1.49985H154.652C154.002 1.47813 153.344 1.45517 152.694 1.43345C152.369 1.70075 152.049 1.9679 151.724 2.23521Z" fill="white"/>
</svg>
