<svg width="322" height="84" viewBox="0 0 322 84" fill="none" xmlns="http://www.w3.org/2000/svg">
<path d="M153.62 80.075C153.819 80.1506 153.77 81.5367 153.978 81.6687C154.103 81.7346 157.301 81.1393 157.718 81.2517C157.839 81.2851 157.933 81.3226 158.002 81.3533C157.506 80.94 160.397 80.8819 160.323 81.367C160.277 81.5583 158.299 81.5122 158.215 81.4803C158.183 81.4672 158.154 81.448 158.129 81.4353C158.572 81.9556 151.748 82.0891 153.236 82.8308C151.25 83.2911 153.494 81.6867 152.005 82.1258C151.497 82.274 151.042 83.8854 148.323 83.0945C148.321 83.0945 148.318 83.0945 148.315 83.0945C147.52 82.8624 148.417 82.4682 148.272 82.3299C148.217 82.2748 145.744 81.4881 147.79 81.3533C150.903 81.1364 148.099 82.5417 149.762 82.5447C149.976 82.5454 153.076 81.6367 152.891 81.4471C152.872 81.4255 151.939 81.6242 151.781 81.5476C151.191 81.2602 151.464 80.7584 151.383 80.7342C151.12 80.685 146.163 81.5705 145.424 80.8181C145.21 80.5993 153.32 79.9776 153.62 80.075ZM135.155 81.1062C135.354 81.0875 137.275 81.641 138.32 81.6258C140.603 81.5913 141.803 81.2394 144.411 81.5623C144.84 81.6109 145.303 81.6738 145.808 81.7547C145.013 81.9338 144.656 82.1875 144.413 82.4256C144.015 82.8516 143.955 83.2267 142.483 83.0086C142.675 82.8645 142.868 82.7201 143.061 82.576C139.794 82.9105 135.989 82.1802 132.155 82.1336C131.183 82.1205 132.3 83.0221 131.024 82.7615C130.001 82.552 128.868 81.7127 129.427 81.5388C129.566 81.4968 131.648 82.0622 132.686 82.0203C135.752 81.8958 134.975 81.1242 135.155 81.1062ZM238.29 1.14822C241.666 0.240038 250.66 -0.218987 255.016 0.102326C255.895 0.147995 260.14 0.858855 260.44 0.971467C261.015 1.16875 257.713 1.03046 259.159 1.42166C259.479 1.4824 266.641 2.221 266.206 1.66971C265.416 1.54334 262.847 1.61392 262.454 1.46561C260.76 0.816153 268.267 1.3726 274.412 2.01444C278.5 2.42313 282.331 2.91674 282.814 2.82889C282.34 2.58622 281.874 2.34713 281.403 2.11014C282.82 2.36407 284.257 2.63527 285.728 2.9324C285.092 3.00507 284.465 3.08116 283.841 3.15994C285.496 3.47884 287.828 3.70013 289.483 4.14334C289.752 4.21641 288.929 4.5497 289.576 4.68338C290.223 4.81897 290.243 4.16833 291.237 4.28299C292.302 4.38456 297.464 5.91295 300.592 7.14627C301.865 7.62901 303.321 8.18808 305.484 9.40604C307.565 11.0849 311.014 11.115 316.46 21.4158C317.871 24.4466 318.579 28.421 318.45 32.2097C319.707 34.468 320.858 37.3953 321.543 41.6092C322.913 50.804 318.99 58.7519 315.986 62.4353C313.527 65.6184 310.644 67.7187 309.367 68.5359C306.148 70.5815 304.397 71.1441 302.527 71.8806C302.289 71.97 302.047 72.0604 301.803 72.1521C295.365 74.401 292.976 74.6219 289.817 75.2625C286.883 75.7878 284.219 76.1492 281.6 76.4314C284.492 74.1291 279.142 75.9391 278.929 75.864C277.669 75.5029 283.167 74.6537 280.962 74.6111C277.907 75.0643 274.932 75.4564 272.017 75.8181C274.432 75.8048 268.939 77.7743 267.896 77.2312C268.384 78.9454 254.786 76.8924 252.858 77.5926C252.452 77.7479 255.201 78.4044 248.868 78.5008C248.184 78.5093 248.419 77.9575 248.065 78.034C247.856 78.0791 246.631 79.8735 245.222 79.0437C244.816 78.8021 246.709 77.8959 244.016 78.0242C243.238 78.0608 242.115 78.1666 240.525 78.3572C243.631 79.9409 229.893 79.8753 227.534 79.4363C228.023 79.6584 228.513 79.8794 229.007 80.0994C226.579 79.5394 226.154 80.1444 225.61 80.1277C223.425 80.056 220.463 79.5092 218.476 79.5965C216.154 79.6974 216.135 80.803 213.46 80.4109C214.092 80.6464 214.727 80.881 215.363 81.115C213.506 81.0847 211.666 81.0504 209.841 81.0154C214.088 79.4933 208.927 80.9552 208.593 80.993C208.055 81.0535 208.83 80.4417 207.931 80.5281C207.839 80.5417 207.967 81.1068 206.589 81.1892C203.716 81.3599 204.178 80.6398 202.98 80.6648C202.872 80.6704 203.248 81.1764 201.196 81.3308C194.72 81.8334 201.216 80.9343 201.478 80.8621C201.813 80.7645 199.549 78.6503 205.14 79.3347C203.259 79.1178 203.076 78.1736 202.864 78.1521C202.671 78.1344 199.447 78.3153 199.271 78.3523C197.696 78.7017 199.084 79.3273 198.777 79.449C198.521 79.5451 194.681 78.7752 193.825 80.7566C191.997 78.9996 194.831 79.0841 197.921 78.7517C198.366 78.3732 194.991 78.0805 194.811 78.0867C190.492 78.1949 192.907 79.6235 191.982 80.5974C191.844 80.7442 191.6 80.7695 191.363 80.7615C190.772 80.7418 190.215 80.5174 191.375 81.4314C187.51 81.697 189.834 80.8495 189.586 80.742C189.204 80.5862 187.85 81.0162 187.676 80.9724C187.424 80.9058 188.283 80.4121 187.289 80.2859C187.121 80.2693 185.548 81.1246 187.617 81.4265C184.862 81.4178 185.103 82.091 184.118 80.7625C182.288 83.4294 182.669 79.293 181.903 79.1795C179.859 78.8862 180.522 80.8916 180.42 80.9969C179.719 81.6627 173.989 81.232 172.544 81.5926C173.057 80.1005 177.116 81.3624 177.978 81.0379C180.89 79.9565 173.779 80.4986 175.85 78.5584C174.966 79.1058 174.078 79.6538 173.186 80.2019C171.453 79.0953 173.833 78.4706 169.298 79.1092C168.598 80.1653 172.51 78.8022 171.749 79.6433C171.306 80.1374 168.666 80.3582 168.619 80.6092C168.583 80.9114 170.96 80.4495 170.601 80.9275C169.849 81.9655 160.956 81.3872 167.665 80.5613C166.04 80.6461 165.03 79.1885 163.734 79.2547C163.54 79.2646 163.338 79.3087 163.127 79.3972C162.735 79.5621 163.342 80.0165 163.783 80.5115C164.161 80.9351 164.419 81.3895 163.83 81.7195C163.264 82.0342 161.929 82.2397 159.134 82.1746C158.915 81.2486 162.751 81.776 162.844 81.699C162.978 81.5902 162.214 79.5076 162.091 79.4051C161.691 79.0941 152.394 80.4924 150.335 79.4285C150.915 80.2898 147.039 80.0794 144.409 79.9744C143.428 79.934 142.633 79.9226 142.4 80.0281C142.184 80.1291 142.993 80.8787 142.762 80.9568C141.323 81.4182 137.393 80.0602 135.557 80.0066C133.507 79.9468 133.762 80.5891 133.648 80.5877C132.743 80.5411 133.466 80.1147 132.913 80.1092C132.083 80.1056 126.306 79.9258 126.003 80.0056C125.917 80.0321 126.861 80.7819 125.594 80.8953C125.372 80.9127 125.525 80.0585 121.75 80.3406C117.19 80.6693 124.899 81.4966 123 82.3533C120.088 80.9905 120.166 82.2649 119.37 82.1424C119.094 82.0972 117.055 80.9526 114.806 80.9363C116.421 80.8215 118.034 80.6982 119.632 80.5681C118.066 80.3351 114.995 80.4652 113.685 80.1971C113.05 80.0672 113.596 79.2021 112.206 79.1687C111.91 79.1651 110.691 81.282 114.351 80.4578C114.625 81.2416 112.909 80.6718 112.095 80.8543C111.972 80.885 111.461 82.1496 110.446 81.3015C110.197 81.0817 113.033 77.4921 105.948 79.8338C105.717 79.9081 106.49 80.422 106.264 80.5066C106.106 80.5642 104.322 80.2683 104.111 80.3201C103.903 80.3785 104.757 80.9432 104.511 81.0291C103.232 81.468 101.686 79.3372 104.252 79.656C103.401 79.3523 102.553 79.0457 101.701 78.7361C102.553 80.3234 100.321 79.0729 99.1111 79.0232C91.2817 78.66 96.4404 80.0857 95.0613 80.4803C92.7969 81.0816 94.6895 78.6742 91.3308 79.1004C91.048 79.1304 94.0555 80.3342 89.4939 79.6004C88.7939 79.4883 87.9938 79.3394 86.9305 79.1189C87.8181 79.2103 88.6453 79.286 89.5174 79.3592C89.8871 79.3897 90.2581 79.4195 90.6297 79.448C90.4768 79.0172 90.0776 78.798 89.5789 78.7039C88.2079 78.4595 86.0964 78.9812 85.8533 78.9588C82.3334 78.6059 84.8771 78.557 79.3328 78.2556C78.8378 78.2224 77.8276 77.6448 76.7068 77.5633C72.0989 77.2458 82.4811 79.3181 82.5535 79.8006C82.79 80.2805 71.5431 77.6656 71.2498 77.2488C69.7824 76.2201 76.3567 78.3983 75.2547 77.3045C75.1334 77.1519 70.6278 76.0414 67.1433 74.8543C63.6527 73.6836 62.1954 73.2061 61.5437 72.8582C60.2312 72.0861 59.8202 70.0385 59.4158 72.1433C59.4116 71.9882 59.4042 71.85 59.3933 71.7283C59.2959 70.1438 58.647 71.2662 58.45 71.2078C55.4861 70.3785 55.3262 70.355 52.2322 70.0193C51.5257 69.9436 51.0104 69.222 50.742 69.2849C50.588 69.3247 50.7822 70.0383 50.0408 70.1267C49.0585 70.2451 42.8507 68.5718 42.3689 68.1277C41.9372 67.69 45.0917 68.3921 44.5867 67.7019C42.3085 67.2873 40.0515 67.0883 37.6277 66.6316C36.6174 66.439 37.1856 66.1099 36.7508 66.0301C36.581 66.0025 32.9409 65.7561 33.0555 65.9256C33.5451 66.4075 44.1685 67.8594 41.2908 68.1433C40.7463 68.2011 38.9602 66.9379 39.1267 68.1531C36.0816 67.5732 32.9778 66.9758 29.4793 66.2107C27.7109 65.8194 25.8943 65.4076 23.5447 64.7742C22.3496 64.4443 21.0841 64.0969 19.1316 63.4119C18.7034 63.2584 18.0596 63.0237 17.4529 62.7771C17.1386 62.65 16.8261 62.5183 16.4676 62.3611C16.0633 62.1848 15.636 61.9893 15.1795 61.7664C14.7229 61.5433 14.2358 61.2926 13.7117 61.0008C13.0718 60.646 12.3688 60.2274 11.5955 59.7078C10.2749 58.7909 7.63955 57.0014 4.91971 53.3211C2.71609 50.3193 0.374365 45.6867 0.0564257 39.6883C-0.432105 33.5799 2.36589 27.0812 4.03885 24.7498C8.32516 18.6601 10.5144 18.0137 12.3933 16.6717C15.5087 14.8622 16.9031 14.5009 18.2156 14.0349C20.5988 13.2809 21.9005 13.0586 23.2478 12.8025C25.7623 12.3618 27.7043 12.1619 29.5935 11.9744C27.8443 12.4379 25.9712 12.783 23.5027 13.2888C22.1809 13.5767 20.9339 13.8023 18.5711 14.5457C17.3286 14.9796 15.9185 15.3585 12.9744 17.0271C11.0903 18.3451 9.15488 18.7909 4.82791 24.6463C3.14083 26.9474 0.298681 32.9949 0.636504 39.2019C0.851052 45.2983 3.19596 49.9555 5.40213 52.9666C9.89267 58.6672 12.3844 59.4233 14.1922 60.5887C15.7674 61.4498 17.0214 61.9688 17.8953 62.3221C19.7906 63.0669 20.9268 63.408 22.0105 63.7361C24.1146 64.3556 25.6536 64.7138 27.1394 65.0164C28.148 65.2314 31.1578 65.918 30.8582 65.2644C29.1042 64.885 27.1748 64.512 24.7273 63.9383C23.4825 63.6395 22.1403 63.3176 20.1873 62.6961C19.2169 62.3771 18.0607 61.9994 16.2859 61.2049C15.2975 60.7459 14.4319 60.3539 12.701 59.2791C11.2581 58.3082 8.72107 56.795 5.68436 52.7596C3.32984 49.5425 0.825978 44.4865 0.971465 37.7556C1.04647 34.4798 1.83925 31.339 2.92361 28.8328C4.01655 26.3469 4.93349 25.0142 5.97732 23.6199C6.99446 22.2953 7.97883 21.2775 8.87772 20.451C9.58161 19.8071 10.2114 19.3008 10.8084 18.8543C11.9584 17.9906 13.1363 17.2921 13.7322 16.9676C16.6537 15.408 17.9325 15.1044 19.0808 14.7273C21.3372 14.0638 22.6088 13.8774 23.8455 13.6971C24.0566 13.6695 23.4058 14.3109 24.2039 14.241C25.7946 14.0678 29.518 12.7522 30.1209 12.9031C30.2401 12.9347 28.2223 13.8604 28.948 14.1922C30.7817 15.0333 30.7853 12.6795 32.1189 12.5242C33.7819 10.0205 35.5693 8.50487 36.6306 7.60526C37.656 6.77345 38.6577 6.11867 39.3865 5.68924C40.0425 5.30358 40.6246 5.00228 41.1394 4.75369C42.2204 4.23637 42.8049 4.02533 43.2566 3.85233C43.7033 3.6854 43.975 3.59167 44.0506 3.55936C44.6866 3.29166 43.7194 2.99431 44.3611 2.7117C44.6871 2.55503 46.6679 2.09711 48.0594 1.97244C49.6092 1.7943 50.9774 1.76324 51.8084 1.67947C52.186 1.64067 52.5268 1.602 52.8347 1.56326C54.9242 1.31319 55.138 0.947287 55.3435 0.930451C56.0263 0.891275 57.1896 1.17888 58.5056 1.15018C65.1438 0.965866 74.0413 1.22729 78.5467 2.5535C74.5285 1.84459 70.6187 1.97895 66.3709 1.96658C67.6078 1.01323 60.0547 2.57949 64.4724 1.53983C63.438 1.6523 58.6332 1.57546 52.9129 2.11502C51.3109 2.28423 49.8533 2.43909 47.6385 2.90701C47.1539 3.00939 46.4942 3.16657 45.8435 3.34744C45.5127 3.43942 45.1953 3.53218 44.8318 3.64725C44.4167 3.78009 43.9895 3.92666 43.5467 4.09256C41.8538 4.89753 39.3767 5.20809 34.5135 10.1414C33.9215 10.7472 33.2777 11.5495 32.6443 12.5037C32.8983 12.5026 33.2158 12.5074 33.5779 12.5144C35.2416 10.2017 36.957 8.79322 38.0242 7.9783C39.7085 6.72883 40.7201 6.22438 41.699 5.73416C42.7372 5.23317 43.3626 4.99772 44.0213 4.75565C45.4145 4.25857 46.1504 4.08253 47.0408 3.86307C50.1329 3.172 51.5938 3.10186 53.0281 2.93143C54.2061 2.81436 55.0713 2.7334 55.4031 2.66678C54.6317 2.65241 53.7944 2.65474 52.99 2.6658C51.708 2.70853 50.5134 2.74492 48.8777 2.95487C50.4979 2.73064 51.7143 2.59302 52.9588 2.44412C56.0468 2.09742 58.4044 1.89579 58.7459 2.93338C73.2245 2.85675 85.4553 4.49941 97.8963 5.80154C100.093 6.13527 98.8768 6.83413 102.486 6.94998C101.562 6.60167 100.634 6.24903 99.7058 5.89236C101.57 6.27535 109.693 7.42196 110.986 7.37186C111.151 7.36556 111.405 6.69312 113.399 6.82498C115.18 6.94023 115.454 7.47289 116.405 7.65018C117.197 7.79718 118.084 7.73748 118.319 7.78397C118.499 7.82072 118.574 8.13171 119.006 8.21756C120.365 8.48178 119.254 7.55147 120.622 8.62381C120.294 8.63819 119.964 8.65295 119.633 8.66678C120.296 8.7704 121.047 8.92473 121.556 9.07498C122.255 9.27371 122.525 9.46906 121.566 9.54373C121.44 9.55374 121.291 9.56124 121.118 9.56619C120.704 9.57794 121.054 9.30923 120.745 9.28983C109.361 8.51633 117.025 9.6124 121.567 9.59061C121.927 9.58898 122.268 9.58148 122.579 9.56717C123.705 10.0639 129.998 10.102 130.219 10.1873C130.515 10.314 129.444 10.5964 130.876 10.9285C131.173 11.0055 139.669 11.0587 136.629 11.4754C135.999 11.5656 131.917 11.3297 130.94 11.3084C133.275 12.2299 138.659 11.1799 139.274 11.24C141.75 11.4278 134.562 11.8202 140.133 12.0467C144.424 12.212 140.372 11.5946 142.011 11.4109C142.93 11.317 147.83 11.9962 147.665 11.2801C149.338 11.2541 148.376 11.6005 148.585 11.6336C148.791 11.6604 152.081 11.5464 153.164 11.7244C153.294 11.7462 152.903 12.0881 153.039 12.1209C153.306 12.1758 156.495 12.1948 156.624 12.1717C156.703 12.1537 155.928 11.8295 156.237 11.7664C156.598 11.6934 159.681 11.8741 159.852 11.7996C160.087 11.6814 156.282 11.6225 156.902 11.3123C158.66 11.4613 161.515 11.3646 162.669 11.1726C162.387 11.2301 160.681 11.1591 160.087 11.1062C160.345 10.6398 164.012 10.8473 162.774 11.1453C163.562 10.9907 163.015 10.8583 163.457 10.699C163.575 10.6588 164.705 10.7155 164.923 10.6512C164.948 10.6372 163.774 10.3938 164.005 10.3152C164.422 10.1709 167.869 10.4433 168.153 10.5076C168.949 10.6807 166.148 10.6334 165.919 10.8113C165.887 10.8392 168.285 11.3524 168.323 11.3855C168.47 11.7338 165.812 11.3334 166.125 11.6658C166.784 11.7673 167.44 11.8692 168.098 11.9705C165.578 12.1419 160.904 11.7785 159.72 12.1238C163.45 12.1381 167.373 12.3536 167.389 13.1541C167.397 13.491 165.793 13.6372 165.859 13.7283C166.108 14.0471 168.329 13.7824 168.416 13.8045C168.484 13.8255 168.517 13.8445 168.517 13.8621C168.516 14.0365 165.342 14.0729 165.183 14.157C164.922 14.3026 166.358 14.9486 166.361 15.0818C166.313 15.1059 164.055 15.2198 164.827 15.4705C165.609 15.7196 167.581 15.7469 167.657 15.7732C168.038 15.9146 164.583 16.0156 164.484 16.1053C164.438 16.1498 166.296 16.4192 166.354 16.4939C166.4 16.5689 164.998 16.7331 164.453 16.9803C164.046 17.164 165.254 17.2934 165.045 17.323C164.892 17.3408 161.638 17.374 161.476 17.4109C161.24 17.463 162.01 17.6731 161.903 17.7303C161.749 17.8125 160.695 17.7514 160.835 17.8318C160.951 17.898 165.046 18.57 165.024 18.7625C164.986 19.096 160.656 18.443 164.712 19.6658C164.745 19.6725 165.713 19.5478 165.74 19.5555C166.102 19.6872 165.142 19.9138 165.12 20.032C166.306 19.9884 167.5 19.948 168.703 19.9109C171.618 19.8212 174.54 19.7113 177.467 19.5965C177.09 19.5889 176.789 19.5668 176.612 19.5203C177.843 19.3136 180.562 19.3819 181.682 19.2332C181.811 19.2141 181.068 18.45 182.775 18.906C183.421 19.0861 181.765 19.3504 179.983 19.4959C181.319 19.4419 182.657 19.3887 183.994 19.3338C184.403 19.1957 184.695 18.9818 184.896 18.6385C181.33 18.2749 177.07 19.2626 175.991 19.3074C174.343 19.3942 176.04 19.0892 175.836 19.031C175.762 19.0134 174.356 19.0938 174.325 19.0769C173.28 18.2595 180.647 18.7629 182.953 18.4998C182.328 18.3893 181.702 18.2814 181.078 18.1756C181.917 18.1257 182.758 18.0755 183.597 18.0252C179.584 17.9557 183.453 17.9331 184.419 17.0984C184.634 16.9106 182.02 17.3733 184.998 16.7019C182.782 16.7322 183.48 16.5347 181.488 16.8777C181.527 16.5779 186.016 15.9194 187.789 15.6258C181.495 15.7304 185.12 16.5988 179.674 16.3894C178.684 16.8244 181.267 16.5786 181.059 16.6541C180.31 16.9206 178.523 16.7071 176.412 17.5789C176.068 17.7191 177.557 18.0129 175.373 18.1131C175.131 18.1224 173.743 17.8877 173.747 17.8631C173.922 17.6098 175.301 17.6199 175.355 17.5135C175.402 17.4138 173.895 17.5608 173.866 17.5369C173.808 17.235 175.14 17.3407 174.945 17.2566C174.518 17.0633 168.983 16.7961 176.186 16.489C170.22 17.2446 175.433 16.888 177.759 16.5916C178.351 16.5161 178.494 16.3144 179.339 16.1863C180.424 16.0205 181.704 16.0201 182.266 15.9431C182.871 15.856 179.405 15.6534 184.397 15.4119C181.839 15.1397 177.382 15.9795 174.884 15.8562C169.848 15.6463 178.35 14.8233 179.237 14.6717C179.471 14.6336 178.67 14.4446 178.826 14.4148C179.083 14.3662 183.922 14.0575 184.394 13.7888C184.861 13.5203 182.625 13.9593 182.463 13.743C182.353 13.6016 188.186 12.7563 185.018 12.9519C182.834 13.0988 178.849 14.0926 178.148 13.5105C181.341 13.1407 184.542 12.7615 187.752 12.3855C185.983 12.2912 184.216 12.212 182.454 12.1453C186.044 11.6704 189.172 11.6488 192.595 10.9002C184.311 10.9013 195.243 9.89404 195.372 9.7742C195.409 9.69743 192.124 9.32572 191.596 9.26248C194.454 8.63907 203.286 7.49425 198.09 7.14432C199.03 7.24485 201.284 6.45556 201.264 6.41385C200.957 6.01899 196.011 6.90435 196.807 6.43436C197.729 5.88226 199.06 6.3011 200.504 6.08182C207.939 4.97603 205.837 2.87423 213.449 2.41678C213.297 2.34681 213.145 2.27708 212.993 2.20779C217.427 1.81452 221.917 1.51153 226.469 1.34061C230.401 1.19048 234.331 1.12383 238.29 1.14822ZM92.5652 81.2781C91.2026 80.3913 96.8154 81.5773 97.1726 81.406C97.4817 82.2839 92.919 81.5136 92.5652 81.2781ZM96.281 80.3982C95.0096 79.4789 101.561 80.4888 98.4763 80.7713C98.3423 80.7862 96.3465 80.4454 96.281 80.3982ZM180.783 78.7244C180.126 78.6211 176.449 79.1409 176.325 79.24C175.381 80.1016 180.406 79.6847 180.783 78.7244ZM158.656 78.0281C156.005 78.1839 159.023 79.0757 155.443 78.4803C156.887 79.3429 159.288 79.18 158.656 78.0281ZM169.883 78.864C171.522 78.679 173.139 76.3303 171.124 76.7752C170.909 76.8245 169.681 78.5576 169.883 78.864ZM162.784 78.2459C164.353 77.6207 160.927 77.285 161.263 78.0193C161.313 78.0593 162.723 78.2726 162.784 78.2459ZM109.554 77.8416C109.451 77.7359 107.411 77.4007 107.429 77.782C107.463 78.2561 109.863 78.1611 109.554 77.8416ZM149.128 77.9275C149.437 77.7144 147.2 76.9434 146.556 77.1814C145.089 77.7286 148.508 78.3611 149.128 77.9275ZM128.51 77.6131C127.768 77.3964 125.263 77.5871 126.391 77.9656C126.572 78.0212 128.581 77.9582 128.51 77.6131ZM60.5642 73.2498C60.7238 73.1568 61.2961 73.1825 62.2293 73.4441C63.2113 73.7144 64.4383 74.223 67.6756 75.5428C67.5414 76.0676 67.5963 75.9085 66.658 75.6238C63.0698 74.5153 62.2736 74.218 61.4265 73.8758C60.6753 73.5621 60.4046 73.3457 60.5642 73.2498ZM286.903 75.281C286.898 74.9357 283.646 75.1806 283.391 75.8162C284.012 75.7104 286.87 75.5098 286.903 75.281ZM295.816 73.4226C297.74 72.697 295.602 73.0949 293.868 73.4334C292.118 73.7802 290.567 74.1602 292.042 74.1765C292.147 74.1997 295.515 73.5375 295.816 73.4226ZM54.7361 72.0486C55.2303 71.6046 56.4858 72.0022 57.2683 72.2117C57.0926 72.545 55.3989 72.072 54.7361 72.0486ZM69.199 71.4607C67.8303 71.0926 65.5904 69.6761 65.6355 70.5564C66.2963 70.6902 68.5598 71.6841 69.199 71.4607ZM48.3777 70.7517C48.219 69.9025 51.201 71.0111 52.2078 71.0838C52.3568 71.9354 49.4783 70.8226 48.3777 70.7517ZM40.6971 70.3396C39.2455 69.5029 44.4619 70.4964 42.7088 70.7254C42.6244 70.7355 40.7845 70.3826 40.6971 70.3396ZM27.9529 67.9383C28.8101 67.6013 31.5759 68.3544 32.7996 68.5808C31.9159 69.034 29.6223 68.2937 27.9529 67.9383ZM58.7732 67.7566C58.4365 67.6932 58.3662 68.2871 58.4051 68.3201C59.5378 69.3331 59.6755 67.9325 58.7732 67.7566ZM54.1551 67.5984C53.5195 67.0206 52.3831 67.929 52.9724 68.4344C53.5985 68.6032 54.2207 67.6615 54.1551 67.5984ZM57.9578 68.4324C58.7743 68.3411 57.5871 67.0645 56.3943 67.8513C56.9435 67.8686 57.8827 68.4419 57.9578 68.4324ZM280.824 67.032C281.011 67.134 281.17 67.2163 281.306 67.284C281.847 67.5495 282.071 67.6189 282.159 67.6267C282.234 67.6246 282.293 67.6167 282.339 67.6072C282.224 67.5596 282.1 67.5084 281.969 67.4549C281.559 67.2874 281.086 67.0985 280.632 66.9226C280.7 66.9613 280.764 66.999 280.824 67.032ZM279.665 65.8211C279.715 65.9576 279.944 66.1663 280.419 66.4695C280.543 66.551 280.705 66.5723 280.881 66.5613C280.576 66.3885 280.185 66.16 279.78 65.8972C279.742 65.8726 279.704 65.8466 279.665 65.8211ZM283.616 66.2879C283.577 66.2957 283.534 66.2959 283.501 66.2898C283.871 66.3775 283.856 66.3591 283.616 66.2879ZM282.466 66.0125C282.949 66.2141 283.072 66.2135 283.127 66.1775C283.13 66.1714 283.131 66.1644 283.134 66.158C282.911 66.0999 282.647 66.032 282.365 65.9666C282.4 65.9824 282.434 65.9968 282.466 66.0125ZM35.6443 65.1883C35.3023 64.9994 33.4743 64.861 33.4099 65.0623C33.2227 65.6775 37.0765 65.9615 35.6443 65.1883ZM284.338 64.4734C284.338 64.4867 284.341 64.4957 284.348 64.4978C284.372 64.5008 284.367 64.4925 284.338 64.4734ZM284.72 61.701C284.824 61.9243 284.962 62.0948 285.096 61.9715C285.14 61.9334 285.169 61.8807 285.183 61.8201C285.182 61.8201 285.181 61.821 285.179 61.8211C285.091 61.8168 284.938 61.7817 284.72 61.701ZM284.239 58.908C283.16 58.6628 281.999 58.5267 282.304 58.95C282.585 59.2635 285.261 59.565 285.223 59.617C285.282 59.6736 285.105 59.8102 285.048 59.9646C284.976 60.1154 285.105 60.3063 285.521 60.4051C285.573 60.1681 286.145 59.6946 286.099 59.5945C286.121 59.4744 285.364 59.1637 284.239 58.908ZM122.802 31.1414C122.065 31.1414 121.328 31.2067 120.592 31.3367C119.855 31.4667 119.162 31.6617 118.512 31.9217C117.862 32.1383 117.255 32.4197 116.691 32.7664C116.171 33.113 115.608 33.5251 115.002 34.0017C114.395 34.4783 113.853 34.9548 113.377 35.4314C112.9 35.9081 112.445 36.4286 112.012 36.992C111.578 37.5552 111.166 38.1614 110.776 38.8113C110.429 39.4613 110.105 40.1768 109.802 40.9568C109.498 41.6934 109.281 42.4734 109.151 43.2967C109.065 44.0765 109.021 44.7913 109.021 45.4412C109.021 46.0912 109.064 46.8067 109.151 47.5867C109.281 48.3665 109.433 49.1246 109.606 49.8611C109.823 50.5976 110.061 51.3346 110.321 52.0711C110.624 52.7644 110.95 53.3935 111.297 53.9568C111.643 54.5201 112.099 55.1263 112.662 55.7762C113.225 56.3828 113.788 56.9466 114.351 57.4666C114.958 57.9432 115.522 58.3553 116.042 58.7019C116.605 59.0485 117.233 59.3512 117.927 59.6111C118.663 59.8278 119.335 60.0016 119.941 60.1316C120.548 60.2183 121.241 60.2615 122.021 60.2615C122.801 60.2182 123.56 60.1317 124.297 60.0017C125.033 59.8717 125.77 59.6979 126.507 59.4812C127.286 59.2646 127.958 59.0263 128.521 58.7664C129.128 58.4631 129.713 58.0951 130.276 57.6619C130.839 57.2286 131.1 57.0336 131.056 57.0769C131.056 57.0769 131.143 57.0115 131.316 56.8816C131.533 56.7083 131.707 56.5133 131.837 56.2967C131.941 56.1233 132.016 55.9495 132.064 55.7762C132.17 55.5768 132.226 55.3614 132.226 55.1267C132.226 54.907 132.194 54.7032 132.132 54.5144C132.11 54.3874 132.077 54.266 132.031 54.1512C131.944 53.8914 131.815 53.675 131.641 53.5017C131.619 53.4793 131.595 53.458 131.572 53.4363C131.486 53.3454 131.39 53.2654 131.282 53.1971C131.249 53.1734 131.216 53.1502 131.182 53.1277C131.09 53.0609 130.995 53.0039 130.895 52.9597C130.723 52.8771 130.539 52.8197 130.342 52.7869C130.082 52.7002 129.821 52.6781 129.561 52.7215C129.518 52.7302 129.473 52.7414 129.428 52.7537C129.299 52.7753 129.17 52.8085 129.042 52.8513C128.825 52.938 128.37 53.2415 127.677 53.7615C126.983 54.2815 126.29 54.6503 125.596 54.867C124.903 55.0836 124.188 55.2565 123.451 55.3865C122.715 55.5164 122.022 55.5818 121.372 55.5818C120.765 55.5385 120.136 55.3867 119.486 55.1267C118.836 54.8668 118.23 54.5199 117.667 54.0867C117.103 53.61 116.583 53.1116 116.106 52.5916C115.673 52.0717 115.305 51.5298 115.002 50.9666C114.698 50.3599 114.438 49.7097 114.221 49.0164C114.048 48.2799 113.918 47.565 113.832 46.8719C113.745 46.1352 113.723 45.4197 113.766 44.7263C113.81 44.0331 113.961 43.3396 114.221 42.6463C114.481 41.953 114.806 41.3027 115.196 40.6961C115.586 40.0461 116.02 39.4833 116.497 39.0066C117.017 38.4868 117.537 38.0102 118.056 37.5769C118.62 37.1003 119.184 36.7315 119.747 36.4715C120.353 36.2116 120.96 36.0386 121.566 35.9519C122.173 35.8219 122.888 35.7777 123.712 35.8211C124.535 35.8644 125.293 35.973 125.986 36.1463C126.723 36.2763 127.352 36.4069 127.872 36.5369L128.651 36.7312C128.651 36.7312 128.739 36.7533 128.912 36.7967H129.497C129.713 36.7534 129.909 36.7101 130.082 36.6668C130.255 36.6234 130.407 36.5581 130.537 36.4715C130.71 36.3417 130.861 36.2116 130.991 36.0818C131.121 35.9086 131.23 35.7567 131.316 35.6267C131.403 35.4534 131.468 35.2796 131.512 35.1062C131.555 34.8897 131.576 34.6945 131.576 34.5213C131.619 34.348 131.619 34.175 131.576 34.0017C131.533 33.7852 131.468 33.59 131.382 33.4168C131.295 33.2435 131.186 33.0917 131.056 32.9617C130.926 32.8317 130.775 32.7232 130.601 32.6365C130.471 32.5065 130.32 32.398 130.146 32.3113C129.973 32.2247 129.605 32.116 129.042 31.9861C128.522 31.8561 127.849 31.7044 127.026 31.531C126.203 31.3577 125.466 31.2501 124.816 31.2068C124.21 31.1202 123.538 31.0981 122.802 31.1414ZM192.901 30.9461C192.295 30.9028 191.601 31.0766 190.821 31.4666C190.041 31.8132 189.435 32.2253 189.002 32.7019C188.569 33.1351 188.178 33.633 187.832 34.1961C187.529 34.716 187.268 35.2579 187.052 35.8211C186.878 36.3844 186.704 36.9482 186.531 37.5115C186.401 38.0748 186.271 38.6598 186.141 39.2664C186.011 39.8731 185.882 40.48 185.752 41.0867C185.665 41.6933 185.557 42.3436 185.427 43.0369C185.297 43.6868 185.166 44.3583 185.036 45.0515C184.906 45.7448 184.776 46.4816 184.646 47.2615C184.56 48.0415 184.473 48.8435 184.387 49.6668C184.3 50.4467 184.191 51.3353 184.061 52.3318C183.975 53.2848 183.909 54.0863 183.866 54.7361C183.823 55.3428 183.758 56.0151 183.672 56.7517L183.606 57.9217V58.1814C183.606 58.3548 183.628 58.5286 183.672 58.7019C183.758 58.8749 183.845 59.0262 183.931 59.156C184.018 59.286 184.105 59.4167 184.191 59.5467C184.321 59.6767 184.452 59.8063 184.582 59.9363C184.755 60.0229 184.928 60.0883 185.101 60.1316C185.275 60.175 185.449 60.2182 185.622 60.2615C185.795 60.2615 185.968 60.2394 186.141 60.1961C186.315 60.1527 186.466 60.1095 186.596 60.0662C186.77 59.9796 186.922 59.8931 187.052 59.8064C187.181 59.6765 187.29 59.5467 187.377 59.4168C187.507 59.2868 187.614 59.1561 187.701 59.0262C187.788 58.8529 187.832 58.6799 187.832 58.5066C187.875 58.3333 187.918 57.8781 187.962 57.1414C188.048 56.3614 188.113 55.6679 188.156 55.0613C188.199 54.4547 188.265 53.6747 188.351 52.7215C188.481 51.7683 188.59 50.9018 188.677 50.1219C188.763 49.3419 188.85 48.5831 188.936 47.8465C189.066 47.1098 189.196 46.4164 189.326 45.7664C189.456 45.0731 189.564 44.4229 189.651 43.8162C189.781 43.1663 189.912 42.538 190.042 41.9314C190.172 41.2815 190.324 40.5667 190.497 39.7869C190.67 38.9637 190.865 38.2269 191.082 37.5769C191.298 36.8836 191.623 36.2977 192.056 35.8211C192.49 35.3014 192.945 35.3665 193.422 36.0164C193.898 36.6229 194.266 37.2946 194.526 38.031C194.829 38.7242 195.068 39.3747 195.241 39.9812C195.458 40.5444 195.653 41.1296 195.826 41.7361C195.999 42.2994 196.13 42.8632 196.217 43.4265C196.347 43.9898 196.455 44.5748 196.542 45.1814C196.672 45.7881 196.779 46.3951 196.866 47.0017C196.996 47.6082 197.105 48.2146 197.191 48.8211C197.278 49.3844 197.364 49.9914 197.451 50.6414C197.538 51.248 197.625 51.833 197.712 52.3963C197.798 52.9596 197.906 53.6319 198.036 54.4119C198.166 55.1484 198.253 55.8421 198.297 56.492L198.427 57.4012V57.531C198.44 57.5996 198.459 57.6685 198.481 57.7371C198.484 57.7546 198.488 57.7729 198.491 57.7918C198.559 57.9628 198.643 58.1195 198.738 58.2635C198.851 58.4472 198.963 58.6155 199.076 58.7664C199.249 58.8963 199.444 59.0261 199.661 59.156C199.878 59.2427 200.095 59.308 200.311 59.3513C200.571 59.3513 200.81 59.3302 201.026 59.2869C201.057 59.2747 201.087 59.262 201.118 59.2498C201.175 59.2416 201.231 59.2324 201.286 59.2215C201.503 59.1348 201.699 59.0263 201.872 58.8963C201.877 58.8909 201.881 58.8841 201.887 58.8787C202.007 58.7845 202.112 58.6835 202.196 58.5711C202.329 58.4051 202.423 58.239 202.479 58.073C202.527 57.9574 202.564 57.842 202.587 57.7263C202.661 57.541 202.684 57.356 202.663 57.1707C202.691 56.9339 202.689 56.664 202.651 56.3611C202.608 56.0144 202.521 55.4292 202.391 54.6062C202.305 53.783 202.196 52.9598 202.066 52.1365C201.936 51.3134 201.828 50.5985 201.741 49.992C201.654 49.342 201.547 48.7129 201.417 48.1062C201.33 47.4997 201.243 46.8934 201.156 46.2869C201.069 45.6369 200.962 45.0078 200.832 44.4012C200.745 43.7514 200.614 43.1017 200.441 42.4519C200.311 41.7586 200.138 41.0863 199.922 40.4363C199.748 39.7863 199.553 39.1361 199.337 38.4861C199.12 37.8362 198.882 37.2079 198.622 36.6013C198.405 35.9515 198.058 35.2367 197.582 34.4568C197.105 33.6335 196.65 33.0044 196.217 32.5711C195.783 32.0945 195.263 31.7045 194.656 31.4012C194.093 31.098 193.508 30.9461 192.901 30.9461ZM290.032 58.9646C294.857 56.8256 289.453 58.0405 288.662 58.5994C288.568 58.6638 288.572 59.0132 288.281 59.4471C288.151 59.6591 287.906 59.9102 287.897 60.0486C287.916 60.1061 287.961 60.1622 288.52 59.9666C288.818 59.8547 289.255 59.6913 290.175 59.1902C290.443 58.9965 290.725 58.853 291.065 58.6668C290.707 58.7715 290.363 58.872 290.032 58.9646ZM34.4783 59.7185C34.0414 59.8899 33.8223 60.0431 34.2068 60.0594C34.4099 59.9161 34.5266 59.7888 34.4783 59.7185ZM80.2674 30.8162C79.1841 30.6862 78.1006 30.7515 77.0174 31.0115C75.9775 31.2715 74.9592 31.6615 73.9627 32.1814C73.0093 32.7014 72.0778 33.4169 71.1678 34.3269C70.3012 35.2369 69.6076 36.1465 69.0877 37.0564C68.7504 37.7003 68.4352 38.4094 68.1414 39.1834C68.045 39.3606 67.9487 39.5621 67.8523 39.7869C67.7656 40.0471 67.5705 40.6535 67.2674 41.6062C66.9641 42.5161 66.7691 43.4479 66.6824 44.4012C66.6391 45.3544 66.7044 46.4812 66.8777 47.781C67.051 49.0376 67.3325 50.2729 67.7224 51.4861C68.1558 52.6561 68.7196 53.7395 69.4129 54.7361C70.1495 55.6894 70.9726 56.4914 71.8826 57.1414C72.7926 57.7914 73.7463 58.3119 74.743 58.7019C75.7828 59.0918 76.8444 59.3512 77.9275 59.4812C79.0109 59.6112 80.0731 59.568 81.1131 59.3513C82.1528 59.1347 83.1492 58.7879 84.1023 58.3113C85.0556 57.7913 85.9008 57.2064 86.6375 56.5564C87.4175 55.9064 88.1109 55.1698 88.7176 54.3465C89.3241 53.4799 89.9092 52.5702 90.4724 51.617C91.0358 50.6203 91.491 49.5581 91.8377 48.4314C92.2277 47.3048 92.4447 46.1129 92.4881 44.8562C92.5314 43.5563 92.3575 42.3643 91.9676 41.281C91.6209 40.1546 91.1655 39.1151 90.6023 38.1619C90.039 37.2086 89.3677 36.2981 88.5877 35.4314C87.851 34.5648 87.0491 33.806 86.1824 33.156C85.3592 32.5062 84.4493 31.9864 83.4529 31.5965C82.4562 31.1631 81.394 30.9029 80.2674 30.8162ZM169.452 30.8162C168.369 30.6862 167.285 30.7515 166.202 31.0115C165.162 31.2715 164.144 31.6615 163.147 32.1814C162.194 32.7014 161.262 33.4169 160.352 34.3269C159.486 35.2369 158.792 36.1465 158.272 37.0564C157.935 37.7003 157.62 38.4094 157.326 39.1834C157.23 39.3606 157.133 39.5621 157.037 39.7869C156.95 40.0471 156.755 40.6535 156.452 41.6062C156.149 42.5161 155.954 43.4479 155.867 44.4012C155.824 45.3544 155.889 46.4812 156.062 47.781C156.236 49.0376 156.517 50.2729 156.907 51.4861C157.34 52.6561 157.904 53.7395 158.597 54.7361C159.334 55.6894 160.157 56.4914 161.067 57.1414C161.977 57.7914 162.931 58.3119 163.928 58.7019C164.967 59.0918 166.029 59.3512 167.112 59.4812C168.195 59.6112 169.257 59.5679 170.297 59.3513C171.337 59.1347 172.334 58.7879 173.287 58.3113C174.24 57.7913 175.085 57.2064 175.822 56.5564C176.602 55.9064 177.295 55.1698 177.902 54.3465C178.509 53.4799 179.094 52.5702 179.657 51.617C180.22 50.6203 180.676 49.5581 181.022 48.4314C181.412 47.3048 181.628 46.1129 181.672 44.8562C181.715 43.5563 181.542 42.3643 181.152 41.281C180.805 40.1546 180.35 39.1151 179.787 38.1619C179.224 37.2086 178.552 36.2981 177.772 35.4314C177.036 34.5648 176.234 33.806 175.367 33.156C174.544 32.5062 173.634 31.9864 172.637 31.5965C171.641 31.1631 170.579 30.9029 169.452 30.8162ZM259.208 30.8162C258.125 30.6862 257.041 30.7515 255.958 31.0115C254.918 31.2715 253.9 31.6615 252.903 32.1814C251.95 32.7014 251.018 33.4169 250.108 34.3269C249.242 35.2369 248.548 36.1465 248.028 37.0564C247.691 37.7003 247.376 38.4094 247.082 39.1834C246.985 39.3606 246.889 39.5621 246.793 39.7869C246.706 40.0471 246.511 40.6535 246.208 41.6062C245.904 42.5161 245.71 43.4479 245.623 44.4012C245.579 45.3544 245.645 46.4812 245.818 47.781C245.991 49.0376 246.273 50.2729 246.663 51.4861C247.096 52.6561 247.66 53.7395 248.353 54.7361C249.09 55.6894 249.913 56.4914 250.823 57.1414C251.733 57.7914 252.687 58.3119 253.683 58.7019C254.723 59.0918 255.785 59.3512 256.868 59.4812C257.951 59.6112 259.013 59.5679 260.053 59.3513C261.092 59.1347 262.089 58.7879 263.043 58.3113C263.996 57.7913 264.841 57.2064 265.578 56.5564C266.358 55.9064 267.051 55.1698 267.658 54.3465C268.265 53.4799 268.85 52.5702 269.413 51.617C269.976 50.6203 270.431 49.5581 270.778 48.4314C271.168 47.3048 271.384 46.1129 271.428 44.8562C271.471 43.5563 271.298 42.3643 270.908 41.281C270.561 40.1546 270.106 39.1151 269.543 38.1619C268.979 37.2086 268.308 36.2981 267.528 35.4314C266.791 34.5648 265.99 33.806 265.123 33.156C264.3 32.5062 263.39 31.9864 262.393 31.5965C261.397 31.1631 260.334 30.9029 259.208 30.8162ZM206.89 31.3367C206.717 31.3367 206.544 31.3579 206.371 31.4012C206.198 31.4445 206.024 31.5098 205.85 31.5965C205.677 31.6831 205.525 31.7917 205.395 31.9217C205.265 32.0516 205.136 32.2035 205.006 32.3767C204.919 32.5067 204.854 32.6586 204.81 32.8318C204.767 33.0051 204.724 33.2003 204.68 33.4168V34.5213C204.724 35.0413 204.746 35.7136 204.746 36.5369V38.9412C204.789 39.7645 204.81 40.5233 204.81 41.2166V47.5213C204.81 48.1279 204.832 48.8214 204.876 49.6013C204.919 50.338 204.984 51.0747 205.071 51.8113C205.201 52.5046 205.396 53.2201 205.656 53.9568C205.959 54.6933 206.327 55.387 206.761 56.0369C207.237 56.6868 207.758 57.2718 208.321 57.7918C208.928 58.3116 209.513 58.7018 210.076 58.9617C210.639 59.1783 211.354 59.3513 212.22 59.4812C213.13 59.5679 214.041 59.5468 214.951 59.4168C215.904 59.2435 216.662 59.0263 217.225 58.7664C217.789 58.5064 218.33 58.1817 218.85 57.7918C219.37 57.4018 219.826 56.9465 220.216 56.4265C220.649 55.9065 220.974 55.3428 221.19 54.7361C221.45 54.0862 221.645 53.3494 221.775 52.5262C221.948 51.7029 221.971 50.8797 221.841 50.0564C221.754 49.1898 221.516 48.3878 221.126 47.6512C220.736 46.8715 220.302 46.2218 219.826 45.7019C219.349 45.1387 218.807 44.6401 218.201 44.2068C217.594 43.7735 216.901 43.4479 216.121 43.2312C215.384 42.9713 214.604 42.7984 213.781 42.7117C213.001 42.625 212.156 42.6683 211.246 42.8416C210.593 42.9395 209.964 43.1107 209.36 43.3562V38.9412C209.36 38.0746 209.339 37.2293 209.296 36.406C209.296 35.5831 209.274 34.8901 209.23 34.3269V33.5467C209.23 33.5467 209.209 33.4599 209.166 33.2869C209.166 33.0704 209.122 32.8751 209.036 32.7019C208.993 32.5286 208.905 32.3769 208.775 32.2469C208.689 32.1169 208.559 31.9862 208.386 31.8562C208.256 31.7263 208.104 31.6177 207.93 31.531C207.757 31.4445 207.584 31.4012 207.411 31.4012C207.238 31.3578 207.064 31.3367 206.89 31.3367ZM47.5144 30.6863C47.5098 30.6875 47.4232 30.7096 47.2547 30.7517C47.0814 30.7517 46.9084 30.7951 46.7351 30.8816C46.5618 30.925 46.388 31.0114 46.2146 31.1414C46.0414 31.228 45.8895 31.3578 45.7596 31.531C45.6729 31.661 45.5864 31.8129 45.4998 31.9861C45.4426 32.1006 45.3946 32.2154 45.3562 32.3299C45.2528 32.4404 45.1482 32.564 45.0447 32.7019C44.9581 32.8319 44.8715 33.005 44.7849 33.2215C44.7416 33.3948 44.7195 33.5898 44.7195 33.8064V34.9119C44.7628 35.4318 44.8061 36.0602 44.8494 36.7967C44.8927 37.4898 44.936 38.2047 44.9793 38.9412C45.0226 39.6345 45.0447 40.35 45.0447 41.0867C45.088 41.7799 45.1101 42.4947 45.1101 43.2312V47.2615C45.1101 47.9547 45.1313 48.6695 45.1746 49.406C45.2179 50.0994 45.2611 50.837 45.3045 51.617C45.3478 52.3533 45.3699 53.0463 45.3699 53.6961C45.4132 54.3027 45.4565 54.9318 45.4998 55.5818C45.5427 56.2252 45.5638 56.5501 45.5642 56.5564C45.5642 56.5564 45.5644 56.5621 45.5662 56.573C45.5653 56.6103 45.5642 56.6481 45.5642 56.6863C45.6076 56.9463 45.6729 57.2066 45.7596 57.4666C45.8895 57.6832 46.0202 57.9003 46.1502 58.117C46.3234 58.2901 46.5187 58.4412 46.7351 58.5711C46.8057 58.6063 46.8748 58.6379 46.9422 58.6668C46.9601 58.6778 46.977 58.6912 46.9949 58.7019C47.2115 58.7885 47.4499 58.853 47.7097 58.8963C47.7972 58.8963 47.8821 58.8924 47.9646 58.8875C48.0529 58.8925 48.141 58.8963 48.2293 58.8963C48.2735 58.8889 48.3172 58.8795 48.3601 58.8709C48.555 58.9878 48.7503 59.1046 48.9451 59.2215C49.2049 59.308 49.4646 59.3513 49.7244 59.3513C49.8378 59.3513 49.9474 59.3469 50.0525 59.3387C50.2397 59.3468 50.4557 59.3513 50.7 59.3513C51.2632 59.3513 51.9136 59.3302 52.6502 59.2869C53.43 59.2436 54.1448 59.1782 54.7947 59.0916C55.4447 59.0049 56.0949 58.9185 56.7449 58.8318C57.3948 58.7018 58.0231 58.55 58.6297 58.3767C59.2797 58.1601 59.8867 57.8998 60.45 57.5965C61.0566 57.2931 61.6195 56.881 62.1394 56.3611C62.6594 55.8411 63.1368 55.213 63.5701 54.4763C64.0033 53.7399 64.306 53.0249 64.4793 52.3318C64.6959 51.5951 64.7834 50.9229 64.74 50.3162C64.6967 49.6663 64.5881 49.038 64.4148 48.4314C64.2848 47.7816 64.0033 47.11 63.5701 46.4168C63.1368 45.7234 62.6594 45.1818 62.1394 44.7918C61.6628 44.4018 61.1211 44.033 60.5144 43.6863C59.9078 43.3397 59.2575 43.0582 58.5642 42.8416C58.5187 42.8245 58.4731 42.8081 58.4275 42.7918C58.6496 42.5521 58.8476 42.3093 59.0193 42.0613C59.4527 41.498 59.7782 40.9131 59.9949 40.3064C60.2548 39.6566 60.3845 38.985 60.3846 38.2918C60.4279 37.5551 60.3626 36.8617 60.1892 36.2117C60.0159 35.5184 59.7345 34.9114 59.3445 34.3914C58.9978 33.8281 58.4993 33.2863 57.8494 32.7664C57.1995 32.2032 56.5712 31.8131 55.9646 31.5965C55.358 31.3365 54.6645 31.1415 53.8846 31.0115C53.1046 30.8382 52.1729 30.7296 51.0896 30.6863C50.0497 30.643 49.2045 30.6219 48.5545 30.6219L47.5144 30.6863ZM136.953 31.2713C136.78 31.228 136.607 31.228 136.433 31.2713C136.26 31.2713 136.065 31.2934 135.848 31.3367C135.675 31.38 135.501 31.4444 135.328 31.531C135.198 31.6177 135.046 31.7262 134.873 31.8562C134.743 31.9862 134.613 32.138 134.483 32.3113C134.397 32.4846 134.331 32.6585 134.288 32.8318C134.245 33.0051 134.201 33.2003 134.158 33.4168V34.4568C134.201 34.9767 134.223 35.5618 134.223 36.2117V38.2918C134.267 38.985 134.288 39.6998 134.288 40.4363V42.4519C134.288 43.1017 134.31 43.7514 134.353 44.4012C134.397 45.0512 134.418 45.7234 134.418 46.4168V48.4969C134.418 49.1468 134.44 49.8404 134.483 50.5769C134.527 51.3133 134.57 52.0063 134.613 52.656C134.656 53.2626 134.7 53.9563 134.743 54.7361C134.83 55.5161 134.873 56.0799 134.873 56.4265V56.9461C134.873 56.9461 134.873 56.951 134.875 56.9597C134.874 56.9982 134.873 57.0375 134.873 57.0769C134.916 57.3367 134.982 57.5964 135.068 57.8562C135.155 58.0729 135.285 58.29 135.458 58.5066C135.627 58.6756 135.817 58.8232 136.027 58.951C136.095 58.9998 136.165 59.0477 136.238 59.0916C136.498 59.1782 136.736 59.2436 136.953 59.2869C137.046 59.2869 137.139 59.2817 137.231 59.2762C137.315 59.2818 137.396 59.2869 137.473 59.2869C137.733 59.2436 137.972 59.1782 138.188 59.0916C138.448 58.9617 138.664 58.8097 138.838 58.6365C139.011 58.4198 139.163 58.2028 139.293 57.9861C139.373 57.8525 139.426 57.7104 139.457 57.5603C139.52 57.3885 139.553 57.2278 139.553 57.0769C139.553 56.9862 139.546 56.8952 139.535 56.8045C139.547 56.605 139.553 56.3705 139.553 56.1013C139.553 55.5814 139.531 54.9743 139.488 54.281C139.445 53.588 139.379 52.895 139.293 52.2019C139.249 51.5087 139.206 50.8151 139.163 50.1219V48.0418C139.163 47.9211 139.161 47.8014 139.16 47.6834C139.204 47.6723 139.249 47.6622 139.293 47.6512C139.4 47.5976 139.498 47.5347 139.589 47.4646C139.899 47.8483 140.255 48.2798 140.658 48.7566C141.135 49.2766 141.59 49.7962 142.023 50.3162C142.457 50.8362 142.89 51.3567 143.323 51.8767C143.756 52.3967 144.212 52.9164 144.688 53.4363C145.165 53.9563 145.684 54.4769 146.248 54.9969C146.811 55.5169 147.332 56.0153 147.808 56.492C148.285 56.9252 148.74 57.3586 149.174 57.7918L149.823 58.4412C149.823 58.4412 149.909 58.5286 150.083 58.7019C150.197 58.7702 150.311 58.8321 150.425 58.8885C150.463 58.9128 150.5 58.9387 150.538 58.9617C150.658 59.0096 150.785 59.0491 150.918 59.0838C151.116 59.1421 151.315 59.1884 151.513 59.2215C151.743 59.2214 151.955 59.1847 152.151 59.117C152.341 59.0682 152.519 58.9951 152.683 58.8963C152.9 58.7663 153.095 58.6145 153.268 58.4412C153.356 58.3322 153.432 58.2231 153.497 58.114C153.621 57.9413 153.719 57.7693 153.788 57.5965C153.875 57.3365 153.918 57.0762 153.918 56.8162C153.918 56.5563 153.875 56.3179 153.788 56.1013C153.701 55.8416 153.571 55.6252 153.398 55.4519C153.321 55.356 153.239 55.2692 153.154 55.1902C153.039 55.0718 152.905 54.9411 152.748 54.8015C152.401 54.4116 151.99 53.9995 151.513 53.5662C151.037 53.0896 150.538 52.6131 150.018 52.1365C149.498 51.6165 149.021 51.1402 148.588 50.7068C148.154 50.2302 147.7 49.7316 147.223 49.2117C146.79 48.6917 146.313 48.1279 145.793 47.5213C145.273 46.8715 144.753 46.2651 144.233 45.7019C143.757 45.1386 143.344 44.6401 142.998 44.2068L142.984 44.1902C143.357 43.811 143.73 43.4478 144.103 43.1013C144.71 42.5381 145.23 42.0395 145.663 41.6062L147.158 40.1111C147.678 39.5912 148.176 39.1147 148.653 38.6814C149.173 38.2048 149.715 37.7063 150.278 37.1863C150.841 36.6663 151.231 36.3196 151.448 36.1463C151.704 35.9327 151.834 35.8241 151.838 35.8211C151.838 35.8211 151.946 35.7566 152.163 35.6267C152.305 35.5126 152.428 35.3875 152.533 35.2547C152.539 35.2483 152.547 35.2425 152.553 35.2361C152.727 35.0629 152.857 34.8677 152.943 34.6512C152.981 34.537 153.009 34.4225 153.03 34.3084C153.083 34.1192 153.102 33.9312 153.087 33.742C153.101 33.5757 153.087 33.4198 153.045 33.2722C153.028 33.168 153.002 33.0685 152.969 32.9724C152.92 32.783 152.846 32.6056 152.748 32.4412C152.658 32.2914 152.546 32.1638 152.415 32.0555C152.307 31.9261 152.181 31.8152 152.033 31.7263C151.816 31.5964 151.578 31.5099 151.318 31.4666C151.105 31.3954 150.891 31.37 150.678 31.3865C150.494 31.3704 150.295 31.3957 150.083 31.4666C149.995 31.4959 149.889 31.55 149.762 31.6238C149.566 31.7096 149.369 31.8295 149.174 31.9861C149.141 32.0184 149.11 32.052 149.079 32.0857C148.986 32.1556 148.886 32.2301 148.783 32.3113C148.176 32.7446 147.591 33.222 147.028 33.742C146.465 34.2618 145.923 34.7596 145.403 35.2361C144.883 35.7127 144.363 36.2113 143.844 36.7312L142.153 38.4217C141.547 39.0282 141.005 39.5479 140.528 39.9812C140.122 40.3874 139.62 40.8691 139.023 41.4275C139.013 41.0236 138.996 40.6283 138.969 40.242V38.1619C138.969 37.4254 138.946 36.7317 138.903 36.0818V34.2615L138.838 33.4812C138.836 33.475 138.815 33.3883 138.773 33.2215C138.773 33.0483 138.73 32.8751 138.643 32.7019C138.6 32.5288 138.513 32.3768 138.384 32.2469C138.254 32.0735 138.123 31.9218 137.993 31.7918C137.863 31.6618 137.711 31.5533 137.538 31.4666C137.365 31.38 137.169 31.3146 136.953 31.2713ZM226.709 31.2713C226.536 31.228 226.362 31.228 226.189 31.2713C226.016 31.2713 225.821 31.2934 225.604 31.3367C225.431 31.38 225.257 31.4444 225.084 31.531C224.954 31.6177 224.802 31.7262 224.629 31.8562C224.499 31.9862 224.369 32.138 224.239 32.3113C224.152 32.4846 224.087 32.6585 224.044 32.8318C224 33.0051 223.957 33.2003 223.914 33.4168V34.4568C223.957 34.9767 223.979 35.5618 223.979 36.2117V38.2918C224.023 38.985 224.044 39.6998 224.044 40.4363V42.4519C224.044 43.1017 224.066 43.7514 224.109 44.4012C224.152 45.0512 224.174 45.7234 224.174 46.4168V48.4969C224.174 49.1468 224.196 49.8404 224.239 50.5769C224.282 51.3133 224.326 52.0063 224.369 52.656C224.412 53.2626 224.455 53.9563 224.499 54.7361C224.585 55.5161 224.629 56.0799 224.629 56.4265V56.9461C224.629 56.9461 224.629 56.951 224.631 56.9597C224.63 56.9982 224.629 57.0375 224.629 57.0769C224.672 57.3367 224.737 57.5964 224.824 57.8562C224.911 58.0729 225.04 58.29 225.214 58.5066C225.383 58.6756 225.573 58.8232 225.783 58.951C225.851 58.9998 225.921 59.0477 225.994 59.0916C226.254 59.1782 226.492 59.2436 226.709 59.2869C226.801 59.2869 226.894 59.2817 226.987 59.2762C227.071 59.2818 227.151 59.2869 227.229 59.2869C227.489 59.2436 227.728 59.1782 227.944 59.0916C228.204 58.9617 228.42 58.8097 228.594 58.6365C228.767 58.4198 228.919 58.2028 229.049 57.9861C229.129 57.8525 229.182 57.7104 229.213 57.5603C229.276 57.3885 229.309 57.2278 229.309 57.0769C229.309 56.9862 229.301 56.8952 229.291 56.8045C229.302 56.605 229.309 56.3705 229.309 56.1013C229.309 55.5814 229.287 54.9743 229.244 54.281C229.201 53.588 229.135 52.895 229.049 52.2019C229.005 51.5087 228.962 50.8151 228.919 50.1219V48.0418C228.919 47.9211 228.917 47.8014 228.916 47.6834C228.96 47.6723 229.004 47.6622 229.049 47.6512C229.156 47.5976 229.254 47.5347 229.345 47.4646C229.655 47.8483 230.01 48.2798 230.414 48.7566C230.89 49.2766 231.346 49.7962 231.779 50.3162C232.212 50.8362 232.646 51.3567 233.079 51.8767C233.512 52.3967 233.967 52.9164 234.444 53.4363C234.921 53.9563 235.44 54.4769 236.004 54.9969C236.567 55.5169 237.088 56.0153 237.564 56.492C238.041 56.9252 238.496 57.3586 238.929 57.7918L239.579 58.4412C239.579 58.4412 239.665 58.5286 239.839 58.7019C239.952 58.7702 240.067 58.8321 240.18 58.8885C240.219 58.9128 240.255 58.9387 240.294 58.9617C240.414 59.0096 240.541 59.0491 240.674 59.0838C240.872 59.1421 241.071 59.1884 241.269 59.2215C241.499 59.2214 241.711 59.1847 241.907 59.117C242.097 59.0682 242.275 58.9951 242.439 58.8963C242.656 58.7663 242.851 58.6145 243.024 58.4412C243.111 58.3322 243.187 58.2231 243.253 58.114C243.377 57.9413 243.475 57.7693 243.544 57.5965C243.63 57.3365 243.674 57.0762 243.674 56.8162C243.674 56.5563 243.63 56.3179 243.544 56.1013C243.457 55.8416 243.327 55.6252 243.154 55.4519C243.077 55.356 242.995 55.2692 242.91 55.1902C242.795 55.0718 242.661 54.9411 242.504 54.8015C242.157 54.4116 241.746 53.9995 241.269 53.5662C240.793 53.0896 240.294 52.6131 239.774 52.1365C239.254 51.6165 238.777 51.1402 238.344 50.7068C237.91 50.2302 237.456 49.7316 236.979 49.2117C236.546 48.6917 236.069 48.1279 235.549 47.5213C235.029 46.8715 234.509 46.2651 233.989 45.7019C233.512 45.1386 233.1 44.6401 232.754 44.2068L232.74 44.1902C233.113 43.811 233.486 43.4478 233.859 43.1013C234.466 42.5381 234.985 42.0395 235.419 41.6062L236.914 40.1111C237.434 39.5912 237.932 39.1147 238.409 38.6814C238.929 38.2048 239.471 37.7063 240.034 37.1863C240.597 36.6663 240.987 36.3196 241.204 36.1463C241.46 35.9327 241.59 35.8241 241.594 35.8211C241.594 35.8211 241.702 35.7566 241.919 35.6267C242.061 35.5126 242.184 35.3875 242.289 35.2547C242.295 35.2483 242.303 35.2425 242.309 35.2361C242.483 35.0629 242.612 34.8677 242.699 34.6512C242.737 34.537 242.765 34.4225 242.786 34.3084C242.839 34.1192 242.858 33.9312 242.843 33.742C242.857 33.5757 242.843 33.4198 242.801 33.2722C242.784 33.168 242.758 33.0685 242.724 32.9724C242.676 32.783 242.602 32.6056 242.504 32.4412C242.414 32.2914 242.302 32.1638 242.171 32.0555C242.063 31.9261 241.937 31.8152 241.789 31.7263C241.572 31.5964 241.334 31.5099 241.074 31.4666C240.86 31.3954 240.647 31.37 240.433 31.3865C240.25 31.3704 240.051 31.3957 239.839 31.4666C239.751 31.4959 239.645 31.55 239.517 31.6238C239.322 31.7096 239.125 31.8295 238.929 31.9861C238.897 32.0184 238.865 32.052 238.835 32.0857C238.741 32.1556 238.642 32.2301 238.539 32.3113C237.932 32.7446 237.347 33.222 236.784 33.742C236.221 34.2618 235.679 34.7596 235.159 35.2361C234.639 35.7127 234.119 36.2113 233.599 36.7312L231.909 38.4217C231.302 39.0282 230.761 39.5479 230.284 39.9812C229.878 40.3874 229.376 40.8691 228.779 41.4275C228.769 41.0236 228.752 40.6283 228.724 40.242V38.1619C228.724 37.4254 228.702 36.7317 228.659 36.0818V34.2615L228.594 33.4812C228.592 33.475 228.571 33.3884 228.529 33.2215C228.529 33.0483 228.486 32.8751 228.399 32.7019C228.356 32.5288 228.269 32.3768 228.139 32.2469C228.009 32.0735 227.879 31.9218 227.749 31.7918C227.619 31.6618 227.467 31.5533 227.294 31.4666C227.12 31.38 226.925 31.3146 226.709 31.2713ZM36.7068 58.4012C36.4825 58.4296 36.1558 58.4958 35.8416 58.5857C35.6143 58.7466 35.4156 58.8882 35.2722 58.992C35.1433 59.0885 35.0355 59.1713 34.949 59.24C35.2517 59.357 36.5285 58.8479 36.7068 58.4012ZM287.73 59.1902C287.67 59.1868 287.6 59.2045 287.605 59.2107C287.595 59.2208 287.655 59.2081 287.73 59.1902ZM281.357 54.0867C281.184 54.0434 280.989 54.0434 280.772 54.0867C280.599 54.0867 280.426 54.13 280.253 54.2166C280.079 54.2599 279.992 54.281 279.992 54.281C279.992 54.281 279.89 54.363 279.686 54.5262C279.674 54.5349 279.662 54.5446 279.649 54.5535C279.44 54.6822 279.25 54.8508 279.082 55.0613C278.952 55.2778 278.844 55.5163 278.758 55.7762C278.733 55.8975 278.716 56.026 278.705 56.1609C278.701 56.1842 278.696 56.2076 278.692 56.2312C278.692 56.2744 278.694 56.3179 278.695 56.3611C278.694 56.404 278.692 56.4479 278.692 56.492C278.692 56.7517 278.736 57.0115 278.822 57.2713C278.902 57.4701 279.019 57.6681 279.172 57.867C279.28 58.0282 279.402 58.1764 279.537 58.3113C279.754 58.4413 279.971 58.5498 280.187 58.6365C280.447 58.7232 280.708 58.7664 280.968 58.7664C280.996 58.7664 281.025 58.7635 281.053 58.7625C281.111 58.7646 281.169 58.7664 281.227 58.7664C281.427 58.7331 281.614 58.6866 281.788 58.6277L282.072 58.5711L282.202 58.5066C282.245 58.4633 282.354 58.398 282.527 58.3113C282.7 58.1814 282.83 58.0515 282.917 57.9217C283.047 57.7483 283.155 57.5745 283.242 57.4012C283.329 57.2279 283.394 57.0549 283.437 56.8816C283.481 56.7083 283.503 56.5344 283.503 56.3611C283.503 56.1446 283.458 55.9494 283.372 55.7762C283.329 55.5598 283.264 55.3865 283.178 55.2566C283.091 55.0833 282.982 54.9315 282.852 54.8015C282.722 54.6283 282.571 54.4986 282.397 54.4119C282.267 54.282 282.094 54.1945 281.878 54.1512C281.704 54.1078 281.531 54.0867 281.357 54.0867ZM40.2146 54.1443C39.7092 54.2365 37.1827 55.269 38.4187 55.4685C38.4921 55.4801 38.5604 55.4848 38.6228 55.4861C39.049 55.1623 39.5198 54.7772 40.0388 54.3094C40.0971 54.2561 40.1548 54.2002 40.2146 54.1443ZM212.48 47.2615C213.173 47.2182 213.867 47.3047 214.56 47.5213C215.254 47.7379 215.817 48.0847 216.251 48.5613C216.727 49.0379 217.052 49.623 217.225 50.3162C217.399 51.0095 217.399 51.6597 217.225 52.2664C217.095 52.873 216.771 53.4147 216.251 53.8914C215.774 54.3247 215.146 54.6282 214.366 54.8015C213.629 54.9749 212.914 54.9317 212.22 54.6717C211.527 54.4117 210.985 54.0428 210.595 53.5662C210.206 53.0463 209.924 52.4832 209.751 51.8767C209.621 51.2268 209.512 50.49 209.426 49.6668C209.406 49.2904 209.391 48.9364 209.381 48.6053C209.584 48.4347 209.946 48.2042 210.466 47.9119C211.159 47.4786 211.83 47.2616 212.48 47.2615ZM41.0096 54.2117C40.8108 54.4184 40.622 54.6073 40.4412 54.7801C41.6654 54.68 43.4632 54.4894 41.0096 54.2117ZM78.1228 35.6912C79.1627 35.4313 80.181 35.4745 81.1775 35.8211C82.1741 36.1244 83.0405 36.6018 83.7771 37.2517C84.5571 37.9017 85.2727 38.7028 85.9226 39.656C86.616 40.566 87.1144 41.4986 87.4178 42.4519C87.7643 43.405 87.8729 44.3582 87.743 45.3113C87.6563 46.2646 87.3739 47.2615 86.8972 48.3015C86.4206 49.2981 85.8578 50.2519 85.2078 51.1619C84.5578 52.0718 83.799 52.8518 82.9324 53.5017C82.0658 54.1083 81.1341 54.4983 80.1375 54.6717C79.141 54.8449 78.0794 54.7584 76.9529 54.4119C75.8696 54.0652 74.8938 53.5015 74.0271 52.7215C73.2039 51.9415 72.5978 51.053 72.2078 50.0564C71.8612 49.0165 71.623 47.9983 71.493 47.0017C71.363 45.9617 71.4273 44.8563 71.6873 43.6863C71.7337 43.4699 71.7773 43.2694 71.8181 43.0847C71.951 42.5641 72.1024 42.0065 72.2722 41.4119C72.2905 41.3573 72.3109 41.303 72.3299 41.2488C72.3568 41.1949 72.3805 41.1407 72.4021 41.0867C72.4213 41.0292 72.438 40.9713 72.4529 40.9138C72.7328 40.1917 73.0838 39.5125 73.5076 38.8767C74.0709 38.0534 74.7211 37.3811 75.4578 36.8611C76.2377 36.2979 77.1263 35.9078 78.1228 35.6912ZM167.307 35.6912C168.347 35.4313 169.366 35.4745 170.362 35.8211C171.359 36.1244 172.225 36.6018 172.962 37.2517C173.742 37.9017 174.457 38.7028 175.107 39.656C175.801 40.566 176.299 41.4986 176.602 42.4519C176.949 43.405 177.057 44.3582 176.928 45.3113C176.841 46.2646 176.558 47.2615 176.082 48.3015C175.605 49.2981 175.042 50.2519 174.392 51.1619C173.742 52.0718 172.984 52.8518 172.117 53.5017C171.25 54.1083 170.319 54.4983 169.322 54.6717C168.326 54.8449 167.264 54.7584 166.137 54.4119C165.054 54.0652 164.078 53.5015 163.212 52.7215C162.389 51.9415 161.782 51.053 161.392 50.0564C161.046 49.0165 160.808 47.9983 160.678 47.0017C160.548 45.9617 160.612 44.8563 160.872 43.6863C160.918 43.4699 160.962 43.2694 161.003 43.0847C161.136 42.5641 161.287 42.0065 161.457 41.4119C161.475 41.3573 161.495 41.303 161.514 41.2488C161.541 41.1949 161.565 41.1407 161.587 41.0867C161.606 41.0292 161.623 40.9713 161.637 40.9138C161.917 40.1917 162.268 39.5125 162.692 38.8767C163.256 38.0534 163.906 37.3811 164.642 36.8611C165.422 36.2979 166.311 35.9078 167.307 35.6912ZM257.063 35.6912C258.103 35.4313 259.121 35.4745 260.118 35.8211C261.115 36.1244 261.981 36.6018 262.718 37.2517C263.497 37.9017 264.213 38.7028 264.863 39.656C265.556 40.566 266.055 41.4986 266.358 42.4519C266.705 43.405 266.813 44.3582 266.683 45.3113C266.597 46.2646 266.314 47.2615 265.838 48.3015C265.361 49.2981 264.798 50.2519 264.148 51.1619C263.498 52.0718 262.739 52.8518 261.873 53.5017C261.006 54.1083 260.074 54.4983 259.078 54.6717C258.081 54.8449 257.02 54.7584 255.893 54.4119C254.81 54.0652 253.834 53.5015 252.968 52.7215C252.144 51.9415 251.538 51.053 251.148 50.0564C250.802 49.0165 250.563 47.9983 250.433 47.0017C250.303 45.9617 250.368 44.8563 250.628 43.6863C250.674 43.4699 250.718 43.2694 250.759 43.0847C250.891 42.5641 251.043 42.0065 251.213 41.4119C251.231 41.3573 251.251 41.303 251.27 41.2488C251.297 41.1949 251.321 41.1407 251.343 41.0867C251.362 41.0292 251.378 40.9713 251.393 40.9138C251.673 40.1917 252.024 39.5125 252.448 38.8767C253.011 38.0534 253.662 37.3811 254.398 36.8611C255.178 36.2979 256.067 35.9078 257.063 35.6912ZM54.0799 46.8719C54.7731 46.8719 55.4667 46.9362 56.1599 47.0662C56.8532 47.1962 57.5468 47.4565 58.24 47.8465C58.9331 48.2364 59.4097 48.7563 59.6697 49.406C59.9297 50.056 59.9729 50.7063 59.7996 51.3562C59.6263 51.9629 59.3016 52.4834 58.825 52.9168C58.3484 53.3501 57.8066 53.6536 57.2 53.8269C56.5934 54.0003 55.9431 54.151 55.2498 54.281C54.5565 54.3677 53.863 54.4551 53.1697 54.5418C52.5198 54.5851 51.805 54.6283 51.0252 54.6717H50.1961C50.1684 54.2207 50.1427 53.7874 50.115 53.3719C50.0717 52.6785 50.0285 51.963 49.9851 51.2263C49.9851 50.4898 49.963 49.775 49.9197 49.0818C49.8818 48.4367 49.861 47.8079 49.8562 47.1961H49.9197C50.1363 47.1527 50.3314 47.1095 50.5047 47.0662C50.6781 46.9796 51.1334 46.9363 51.8699 46.9363C52.6498 46.893 53.3866 46.8719 54.0799 46.8719ZM281.292 31.0769C280.642 31.077 279.97 31.2066 279.277 31.4666C278.627 31.7265 277.999 32.0945 277.392 32.5711C276.829 33.0477 276.244 33.6768 275.637 34.4568C275.031 35.1935 274.553 35.8216 274.207 36.3416L273.687 37.0564C273.687 37.0564 273.644 37.1431 273.557 37.3162C273.514 37.4894 273.471 37.6846 273.428 37.9012C273.384 38.0744 273.362 38.2696 273.362 38.4861C273.362 38.6594 273.384 38.8333 273.428 39.0066C273.514 39.1798 273.601 39.353 273.687 39.5262C273.774 39.6995 273.882 39.8512 274.012 39.9812C274.142 40.1112 274.294 40.2419 274.468 40.3719C274.641 40.4584 274.814 40.545 274.987 40.6316C275.16 40.675 275.334 40.7182 275.508 40.7615C275.724 40.7615 275.919 40.7394 276.093 40.6961C276.266 40.6528 276.439 40.6095 276.612 40.5662C276.829 40.4795 277.003 40.3931 277.133 40.3064C277.306 40.1766 277.436 40.0466 277.522 39.9168C277.652 39.7434 277.869 39.3967 278.173 38.8767C278.519 38.3567 278.909 37.8362 279.343 37.3162C279.819 36.7964 280.361 36.4283 280.968 36.2117C281.617 35.9518 282.246 35.9296 282.852 36.1463C283.459 36.3196 283.827 36.753 283.957 37.4461C284.13 38.1393 284.087 38.8329 283.827 39.5262C283.567 40.1762 283.177 40.8264 282.657 41.4763C282.18 42.1263 281.725 42.7112 281.292 43.2312C280.902 43.7079 280.534 44.2285 280.187 44.7918C279.884 45.3551 279.624 46.0054 279.407 46.742C279.19 47.4351 279.039 48.1068 278.952 48.7566C278.909 49.3632 278.887 49.6668 278.887 49.6668C278.889 49.674 278.91 49.8039 278.952 50.0564C278.995 50.3163 279.061 50.5547 279.147 50.7713C279.277 50.9879 279.429 51.205 279.602 51.4217C279.819 51.595 280.036 51.7468 280.253 51.8767C280.469 51.9633 280.708 52.0278 280.968 52.0711C281.054 52.0711 281.14 52.068 281.226 52.0633C281.313 52.0681 281.4 52.0711 281.487 52.0711C281.696 52.0363 281.89 51.9863 282.071 51.9236C282.104 51.9124 282.137 51.9003 282.17 51.8875C282.18 51.8834 282.191 51.8809 282.202 51.8767C282.462 51.7901 282.679 51.6594 282.852 51.4861C282.885 51.4532 282.917 51.419 282.948 51.3846C282.982 51.354 283.016 51.3238 283.048 51.2918C283.221 51.0751 283.351 50.8581 283.437 50.6414C283.469 50.5618 283.492 50.4787 283.512 50.3933C283.534 50.3221 283.554 50.2534 283.567 50.1863C283.61 49.9264 283.633 49.666 283.633 49.406C283.676 49.146 283.806 48.7125 284.022 48.1062C284.239 47.4565 284.564 46.85 284.997 46.2869C285.474 45.6802 285.951 45.0732 286.428 44.4666C286.904 43.8166 287.337 43.1231 287.727 42.3865C288.117 41.6066 288.421 40.7834 288.637 39.9168C288.897 39.0068 289.027 38.2048 289.027 37.5115C289.027 36.8182 288.854 36.0815 288.508 35.3015C288.161 34.4782 287.749 33.828 287.272 33.3513C286.796 32.8315 286.276 32.4414 285.713 32.1814C285.149 31.8781 284.434 31.6178 283.567 31.4012C282.701 31.1845 281.942 31.0769 281.292 31.0769ZM36.9422 41.9763C38.4951 43.3619 38.9772 43.6797 39.2625 43.9461C39.2649 43.9479 39.2679 43.9501 39.2703 43.9519C39.4913 44.1515 39.4495 44.4445 39.2 44.617C39.3702 44.7806 39.5228 44.9216 39.6551 45.034C40.6035 45.8537 40.936 45.9985 41.0056 46.0066C41.1314 45.9871 40.1511 45.2288 39.9763 44.95C39.9633 44.9291 40.048 44.9152 40.1707 44.9031C39.79 44.4783 39.2408 43.8338 38.3758 42.8357C38.0983 42.4612 37.7723 42.0547 37.4217 41.5847C37.1454 41.5499 36.8714 41.5164 36.6004 41.4812C36.7136 41.6504 36.8277 41.8158 36.9422 41.9763ZM39.5486 43.199C40.6835 44.3683 41.1805 44.6561 41.4763 44.8533C42.0125 45.1612 41.6987 44.8304 41.0017 44.2898C40.6166 43.9672 40.1832 43.6766 39.5125 43.1551C39.5244 43.1699 39.5371 43.1844 39.5486 43.199ZM49.5213 35.3777C49.9844 35.3882 50.486 35.4058 51.0252 35.4314C51.935 35.4748 52.7151 35.5833 53.365 35.7566C54.0582 35.8867 54.6212 36.1902 55.0545 36.6668C55.4877 37.1434 55.6395 37.7063 55.5096 38.3562C55.3796 38.9629 55.0549 39.4834 54.5349 39.9168C54.015 40.3501 53.43 40.7401 52.7801 41.0867C52.1734 41.4333 51.4799 41.7369 50.7 41.9969C50.3775 42.0917 50.0923 42.1828 49.8445 42.2693C49.8345 41.8534 49.8176 41.4372 49.7898 41.0213C49.7898 40.3714 49.7677 39.6566 49.7244 38.8767C49.6811 38.0536 49.6378 37.2734 49.5945 36.5369C49.5702 36.1233 49.5456 35.7367 49.5213 35.3777ZM286.009 26.3523C285.999 26.39 285.998 26.4302 286.012 26.4705C286.082 26.7159 286.336 26.657 286.296 26.5691C286.288 26.4994 286.085 26.4415 286.009 26.3523ZM284.395 23.0408C284.186 23.0091 283.523 23.0705 282.001 23.7303C281.143 24.1125 280.068 24.7142 279.245 25.2596C279.188 25.296 279.126 25.3392 279.06 25.3836C279.446 25.4619 279.828 25.5428 280.206 25.6219C280.201 25.4616 280.218 25.3309 280.355 25.2908C280.423 25.2694 280.654 25.2558 280.987 25.2449C281.56 24.8544 282.073 24.5392 282.555 24.2517C282.964 24.0035 283.311 23.7981 283.617 23.617C283.336 23.5928 283.054 23.5666 282.81 23.5584C283.108 23.2321 283.804 23.1417 284.374 23.158C284.395 23.1414 284.412 23.1279 284.423 23.115C284.438 23.0832 284.426 23.0586 284.395 23.0408ZM283.378 22.533C282.773 22.787 282.112 23.0393 280.634 23.9012C280.285 24.1078 279.91 24.3434 279.508 24.615C279.205 24.8214 278.945 24.9985 278.564 25.2849C278.687 25.3096 278.81 25.3334 278.932 25.3582C282.048 22.9267 282.697 22.9363 283.378 22.533ZM285.12 22.0701C285.061 22.0359 284.925 22.0148 284.294 22.2029C284.696 22.1505 284.872 22.3477 285.018 22.5096C285.159 22.6738 285.287 22.8046 285.293 22.7351C285.285 22.6353 285.138 22.5741 285.093 22.4969C285.036 22.4222 285.042 22.342 285.075 22.2644C285.104 22.1882 285.167 22.1106 285.12 22.0701ZM284.099 22.2459C283.911 22.3067 283.68 22.3944 283.378 22.533C283.657 22.4207 283.898 22.3326 284.105 22.2615C284.172 22.2399 284.235 22.2207 284.294 22.2029C284.236 22.2111 284.171 22.2251 284.099 22.2459ZM37.9461 19.906C38.3678 20.203 39.0044 20.6242 39.7976 21.2898C40.1027 21.3324 40.4099 21.3768 40.7166 21.4178C39.6969 20.4701 38.8813 19.8799 38.2185 19.4842C38.1259 19.6235 38.0351 19.7643 37.9461 19.906ZM37.3416 20.9373C37.7618 20.9991 38.207 21.0633 38.6658 21.1297C38.2742 20.8301 37.9491 20.6023 37.7097 20.4295C37.6906 20.4163 37.6711 20.4033 37.6521 20.3904C37.5457 20.5712 37.442 20.7536 37.3416 20.9373ZM37.1746 20.073C37.0296 20.3241 36.8856 20.583 36.7469 20.8504C36.8743 20.8691 37.0051 20.8884 37.1385 20.908C37.2464 20.6913 37.3581 20.478 37.4715 20.2683C37.369 20.1998 37.2698 20.1347 37.1746 20.073ZM35.8318 19.2713C35.6024 19.681 35.3738 20.1128 35.1453 20.5672C35.1363 20.5845 35.1268 20.6016 35.118 20.6189C35.3654 20.6515 35.6524 20.6934 35.9705 20.739C36.1492 20.3731 36.3342 20.0159 36.5232 19.6687C36.2537 19.5076 36.0248 19.3772 35.8318 19.2713ZM37.4617 19.5906C37.5537 19.6485 37.6487 19.7101 37.7469 19.7742C37.829 19.632 37.9124 19.4919 37.9969 19.3543C37.8972 19.2983 37.8004 19.2477 37.7078 19.2C37.6255 19.3274 37.5434 19.4577 37.4617 19.5906ZM36.2586 18.8933C36.3383 18.9358 36.4251 18.9811 36.5193 19.033C36.6062 19.0811 36.6954 19.135 36.7898 19.1892C36.8531 19.0786 36.9173 18.9694 36.9812 18.8611C36.8156 18.792 36.6647 18.7305 36.5252 18.6736C36.4565 18.7234 36.3685 18.8029 36.2586 18.8933ZM67.7801 14.2049C68.2158 14.8525 68.6993 15.6591 69.1472 16.7283C69.5984 17.2459 70.1001 17.8693 70.6619 18.6365C70.3292 17.5349 69.9425 16.5966 69.576 15.8221C68.8725 15.1281 68.2843 14.6123 67.7801 14.2049ZM173.262 16.2918C174.695 16.4106 171.121 16.8541 170.722 16.574C170.649 16.5233 172.988 16.2715 173.262 16.2918ZM151.05 16.1346C149.821 15.5786 148.813 16.8197 150.644 16.5457C150.733 16.5312 151.1 16.1624 151.05 16.1346ZM180.27 15.867C180.344 16.0089 178.383 16.1909 178.211 16.1814C177.105 16.1134 179.539 15.8346 180.27 15.867ZM172.987 15.6746C174.09 15.7318 171.66 16.011 170.932 15.9842C170.86 15.8572 172.818 15.6677 172.987 15.6746ZM145.86 15.6912C145.128 15.7166 143.265 15.6214 142.848 15.6687C141.384 15.8385 145.161 16.0952 145.86 15.6912ZM150.137 14.7918C148.524 14.3794 149.154 15.7622 149.356 15.8162C150.186 16.0249 152.97 15.4711 153.541 15.3445C149.339 15.5614 150.897 14.9841 150.137 14.7918ZM133.917 15.2088C133.127 15.1525 130.785 15.0008 130.402 15.2488C131.259 15.2115 133.594 15.4617 133.917 15.2088ZM132.105 14.4568C130.866 14.1033 130.61 15.0925 132.012 14.8094C132.067 14.7978 132.151 14.4772 132.105 14.4568ZM63.1961 11.2195C63.5254 11.5034 63.9726 11.8555 64.864 12.8738C64.9172 12.9445 64.9758 13.0174 65.0369 13.0935C65.3921 13.3462 65.8027 13.6507 66.2937 14.0408C66.5593 14.2692 66.8461 14.4988 67.1668 14.7703C66.8949 14.3405 66.645 13.9759 66.4392 13.6638C66.161 13.3031 65.9063 12.9858 65.6756 12.7049C64.1555 11.7356 63.2967 11.2399 62.8787 10.9685C62.9594 11.0305 63.0642 11.1124 63.1961 11.2195ZM125.208 13.9803C124.392 13.5481 123.509 14.5337 124.807 14.5877C125.193 14.6003 125.293 14.0315 125.208 13.9803ZM148.066 13.2918C146.892 13.1255 145.423 13.7238 147.915 13.8103C147.045 13.8954 146.175 13.9826 145.307 14.0721C148.581 14.4286 148.302 13.5915 149.24 13.6365C150.552 13.6996 150.484 14.3713 150.232 14.5838C151.284 14.1696 155.855 14.1996 158.503 14.1648C156.167 13.9719 152.379 13.6344 150.085 13.4959C149.43 13.4558 148.805 13.6363 148.248 13.6101C147.356 13.5663 148.13 13.3027 148.071 13.2918C148.07 13.2918 148.068 13.2918 148.066 13.2918ZM177.257 13.1111C174.49 13.846 177.114 13.4511 176.578 13.6883C176.147 13.8748 174.51 13.9134 175.47 14.1082C174.207 13.9184 168.805 14.5179 168.56 14.4881C168.563 14.4878 168.565 14.4873 168.567 14.4871C168.422 14.4729 168.761 13.7881 169.771 13.7791C172.941 13.7526 170.656 14.4152 177.257 13.1111ZM116.254 13.659C113.913 13.0494 115.393 14.1961 116.717 14.0613C116.77 14.0477 116.314 13.6761 116.254 13.659ZM67.2674 14.0174C67.174 13.8746 67.0764 13.7327 66.9773 13.5916C66.9762 13.5908 66.9746 13.5903 66.9734 13.5896C67.0679 13.7241 67.1665 13.8662 67.2674 14.0174ZM143.384 13.7058C143.208 13.6848 139.544 13.7743 139.791 13.9539C140.285 14.0702 145.502 13.9698 143.384 13.7058ZM133.8 12.7371C132.962 11.5674 132.727 13.3953 131.14 12.3953C129.133 13.7548 136.841 12.5319 137.845 13.6765C129.371 13.4513 143.494 14.8559 137.501 13.0994C142.405 13.7763 139.089 12.916 139.831 12.7146C140.624 12.5042 143.401 12.7928 143.242 12.3933C143.241 12.3933 143.239 12.3934 143.237 12.3933C141.545 12.3888 139.857 12.3845 138.174 12.3787C139.866 13.2951 136.407 12.9827 135.211 12.2097C134.739 12.3838 134.271 12.5598 133.8 12.7371ZM159.674 13.7283C158.337 13.7008 156.267 13.5142 155.554 13.7947C156.889 13.8156 158.957 13.9934 159.674 13.7283ZM177.845 12.7713C177.389 13.031 172.21 13.6699 172.328 13.4168C172.433 13.1974 177.029 12.8593 177.845 12.7713ZM130.01 12.8269C128.302 12.4222 129.146 13.5972 130.389 13.3221C130.461 13.3056 130.089 12.8465 130.01 12.8269ZM24.5896 11.99C24.5173 12.4155 21.3674 12.5922 19.2469 13.3074C19.3822 13.0474 20.6835 12.6676 21.8269 12.451C22.9815 12.2259 24.0333 12.1168 24.5896 11.99ZM150.863 12.4461C150.72 12.4643 151.5 13.0017 150.648 13.1541C152.306 12.8742 159.968 13.2232 160.368 13.1853C160.674 13.1526 158.329 12.5754 161.989 12.9744C161.99 12.9744 161.992 12.9744 161.993 12.9744C159.294 12.1027 155.727 12.9209 155.332 12.9041C154.939 12.8739 155.536 12.5284 155.447 12.5164C155.238 12.4889 151.065 12.4225 150.863 12.4461ZM151.757 12.8836C150.174 12.6716 154.204 12.7421 154.34 12.7722C155.393 13.0067 152.468 12.976 151.757 12.8836ZM147.3 12.4256C146.961 12.3685 143.962 12.2605 143.721 12.5174C145.155 12.878 148.06 12.5559 147.3 12.4256ZM45.5222 11.1619C45.4735 11.1356 44.7227 11.1318 43.7596 11.158C43.6936 11.1598 43.627 11.1639 43.5603 11.1658C43.274 11.348 42.9554 11.5467 42.6082 11.7722C43.0269 11.7892 43.5003 11.7877 43.9441 11.7674C44.6017 11.7349 45.1292 11.6807 45.4558 11.6033C45.4832 11.5821 45.5109 11.5621 45.5369 11.5418C45.6289 11.4644 45.7116 11.3908 45.7849 11.323C45.7403 11.2741 45.6551 11.219 45.5222 11.1619ZM63.9607 9.16678C63.8818 9.19946 63.8412 9.26601 63.8777 9.38553C63.8964 9.44586 63.9478 9.52917 64.0603 9.6619C64.153 9.77147 64.2776 9.90247 64.5115 10.1404C64.9239 10.3597 65.4518 10.6565 66.0857 11.0379C66.3181 11.224 66.5916 11.406 66.9012 11.6043C66.41 11.0228 66.0384 10.687 65.7254 10.3611C65.5749 10.2182 65.4383 10.0952 65.3162 9.98807C64.723 9.65538 64.4007 9.44982 64.284 9.23514C64.0966 9.14125 64.0226 9.15059 63.9607 9.16678ZM92.0701 11.156C90.3731 11.4039 95.5693 11.8734 94.076 11.3396C94.0039 11.3142 92.1604 11.1454 92.0701 11.156ZM149.862 10.9851C150.713 10.6969 151.299 11.0977 151.409 11.1053C152.484 11.1885 154.711 11.1983 154.237 11.4763C152.331 11.2886 148.17 11.5652 149.862 10.9851ZM114.422 11.3728C113.659 11.367 111.574 10.973 111.448 11.2488C112.215 11.2626 114.3 11.6461 114.422 11.3728ZM298.988 6.73807C298.342 6.86761 299.946 7.5079 302.296 8.60428C304.456 9.4917 308.742 12.3517 306.176 10.3318C305.604 9.88265 303.655 8.71472 302.22 8.05936C300.734 7.35825 299.542 6.92517 298.988 6.73807ZM150.346 10.782C150.863 10.6132 156.785 10.778 157.032 10.8387C158.831 11.2441 150.805 10.8566 150.346 10.782ZM130.663 10.3308C131.335 10.0725 140.662 10.669 142.182 10.7068C140.859 11.1714 139.753 10.7537 137.95 10.7176C137.464 10.7091 137.602 10.9312 137.551 10.9305C136.71 10.9134 137.327 10.6805 136.808 10.659C136.474 10.6475 129.701 10.718 130.663 10.3308ZM118.739 10.0847C119.116 10.1725 120.238 10.2877 121.585 10.3904C124.718 10.6246 129.207 10.7913 129.497 10.7371C129.617 10.7136 129.69 10.4116 129.633 10.3963C129.309 10.3311 124.745 10.2075 121.58 10.1287C120.237 10.095 119.12 10.0706 118.739 10.0847ZM152.096 10.115C152.843 9.869 158.649 10.4095 157.123 10.5525C156.873 10.5695 150.995 10.4716 152.096 10.115ZM45.783 10.3826C45.7401 10.2637 45.7578 10.1068 45.1892 10.3299C45.0828 10.3726 44.9608 10.4267 44.825 10.489C45.0131 10.4802 45.1905 10.4715 45.3553 10.4637C45.5185 10.4568 45.6646 10.4522 45.7849 10.45C45.7856 10.4274 45.7866 10.4044 45.783 10.3826ZM150.439 10.4793C150.113 10.3062 150.856 9.86484 151.562 10.1336C151.864 10.2487 151.324 10.5068 150.439 10.4793ZM129.796 9.80057C130.765 9.20733 135.388 9.83867 132.248 10.0164C131.946 10.0334 130.662 9.70029 129.796 9.80057ZM113.773 9.45487C110.671 9.37194 116.623 10.2569 115.845 9.76639C115.79 9.73809 114.099 9.46491 113.773 9.45487ZM190.534 9.3699C190.583 9.51362 188.08 9.85233 187.963 9.85135C186.663 9.82552 189.653 9.38449 190.534 9.3699ZM114.106 8.79862C113.951 8.76826 110.718 8.34874 110.658 8.57401C111.131 8.71061 115.841 9.17017 114.106 8.79862ZM112.683 7.97537C112.298 7.97868 111.695 8.25646 111.738 8.28104C113.734 9.23524 119.655 8.2251 115.773 8.16873C115.697 8.16794 116.448 8.66319 114.943 8.48612C114.818 8.46954 114.583 7.96121 112.683 7.97537ZM197.68 6.616C194.42 7.46702 197.394 6.90755 197.496 7.15604C197.894 8.15486 193.124 7.20174 191.512 7.64529C191.287 7.70276 192.968 7.80987 192.392 7.97635C190.517 8.48975 184.64 7.77982 190.903 7.17361C190.902 7.17382 190.9 7.17437 190.898 7.17459C192.534 7.02061 191.532 7.4101 191.609 7.40701C195.106 7.3211 194.164 6.86767 194.707 6.72537C195.873 6.42219 195.708 7.16171 197.68 6.616ZM121.771 7.83475C121.617 7.38136 125.311 7.86051 126.273 7.83865C125.455 8.12044 123.108 7.8708 121.771 7.83475ZM99.3982 6.87967C99.5929 7.15433 103.599 7.69882 103.789 7.67654C105.703 7.46317 99.7156 6.80767 99.3982 6.87967ZM197.404 5.85428C197.553 5.86753 195.416 6.87087 194.794 6.43533C194.315 6.10163 197.013 5.83219 197.404 5.85428ZM97.3318 5.01248C96.3033 4.621 99.4692 4.68877 100.389 5.11111C100.83 5.62096 97.4714 5.0604 97.3318 5.01248ZM290.98 3.79569C292.051 3.37752 297.094 5.25831 296.129 5.28592C295.736 5.17856 290.445 3.97149 290.98 3.79569ZM190.029 4.2869C191.284 4.38738 187.1 5.0006 188.524 4.51053C188.589 4.48968 189.98 4.2827 190.029 4.2869Z" fill="white"/>
</svg>
