<svg width="549" height="83" viewBox="0 0 549 83" fill="none" xmlns="http://www.w3.org/2000/svg">
<path d="M147.78 1.64054C147.621 1.35245 161.389 1.48526 161.844 1.6171C163.852 2.2236 155.632 1.86309 157.209 2.61515C157.676 2.82965 170.357 2.5629 177.186 2.52335C178.898 2.51508 180.222 2.52517 180.995 2.57218C185.413 2.85162 187.497 4.70961 187.426 2.56534C188.766 4.64561 189.816 3.18383 190.375 3.18546C197.274 3.20799 197.279 3.21755 203.263 2.82999C204.588 2.74419 205.751 3.33466 206.218 3.2128C206.489 3.1393 205.936 2.48483 207.272 2.23429C209.093 1.88572 220.598 2.23135 221.502 2.5878C222.374 2.92986 216.636 2.87566 217.697 3.45304C221.831 3.3947 225.831 3.15118 230.055 3.15323C231.796 3.1574 230.92 3.58732 231.676 3.58585C232.015 3.57893 238.026 3.1694 237.785 3.02335C237.15 2.60948 218.507 3.18148 223.384 2.36124C224.33 2.19682 227.71 3.09973 227.132 1.93644C239.632 1.91412 252.202 2.25227 264.63 2.88663C268.833 3.09878 273.028 3.34566 277.217 3.62784C273.185 3.76615 268.943 3.65419 264.628 3.4755C258.708 3.23014 252.676 2.85083 246.849 2.83487C245.466 2.82533 240.803 2.69243 241.393 3.28116C248.589 3.4164 257.2 3.39127 264.626 3.80753C266.051 3.88526 267.398 3.97869 268.699 4.08878C268.963 4.11121 267.991 4.58138 268.977 4.70011C270.808 4.91312 276.773 4.37549 277.775 4.64444C277.947 4.7002 274.532 5.19748 275.561 5.66983C278.198 6.87616 278.9 4.52033 281.181 4.67765C282.951 4.78267 294.686 6.68732 297.618 6.22062C300.758 5.6955 288.988 5.13915 289.871 4.58976C297.883 4.51468 305.887 5.86967 313.289 6.47159C313.417 6.48062 312.315 5.90459 313.969 5.9921C316.846 6.14664 317.557 6.88349 318.943 7.12003C320.439 7.37367 325.723 7.78276 326.408 8.0878C326.494 8.12832 325.395 8.6754 325.232 8.6796C322.921 8.73392 322.15 7.81049 321.941 7.77823C321.155 7.67153 320.361 7.92522 319.643 7.83878C318.46 7.69582 317.823 7.33194 316.255 7.15909C315.174 7.03926 316.186 7.71996 315.144 7.59757C314.763 7.55201 310.689 5.82962 310.223 7.16983C310.218 7.57689 343.632 11.2407 346.845 11.1132C344.286 10.76 341.723 10.3946 339.155 10.0224C344.744 10.7702 351.06 10.419 351.483 11.8915C356.02 12.2727 360.553 12.6246 365.086 12.9433C381.849 14.1124 398.928 14.9105 416.048 15.7499C419.932 16.0309 417.803 16.7568 424.204 16.7909C422.547 16.463 420.895 16.1312 419.241 15.7968C422.515 16.1253 437.078 17.1202 439.444 17.081C439.751 17.0751 440.177 16.3956 443.826 16.5282C447.067 16.6481 447.588 17.1863 449.321 17.3749C450.765 17.5322 452.417 17.4918 452.848 17.5439C453.179 17.5846 453.31 17.8969 454.104 17.9941C456.621 18.2977 454.591 17.3332 457.088 18.4511C456.479 18.4536 455.867 18.457 455.253 18.4609C458.302 18.7716 462.462 19.4435 457.966 19.411C457.199 19.4069 457.86 19.1519 457.287 19.121C434.791 18.0475 452.736 19.4809 460.644 19.4755C462.66 19.9954 474.059 20.4688 474.46 20.6015C474.985 20.7545 473.021 20.9387 475.575 21.3993C476.091 21.432 491.524 22.5977 485.926 22.6054C484.789 22.5873 477.419 21.8795 475.654 21.7851C478.918 22.6733 485.685 22.603 489.016 22.7089C489.96 22.7344 490.582 22.7579 490.815 22.79C493.162 23.1295 490.518 23.0166 488.993 23.0546C488.257 23.0784 487.917 23.1399 488.979 23.3134C489.625 23.4136 490.613 23.5418 492.241 23.7411C500.181 24.7961 492.762 23.3271 495.846 23.5028C496.799 23.5956 499.165 23.9289 502.696 24.8476C503.116 24.9645 503.797 25.1632 504.396 25.3896C505.317 25.8185 505.862 25.688 508.305 27.7069C508.908 28.1094 510.679 30.288 511.285 33.0097C513.179 33.2488 516.006 33.9227 514.415 33.8564C515.821 33.9527 514.9 33.6521 515.702 33.6357C515.918 33.6328 517.886 34.0548 518.297 34.0692C518.334 34.0591 516.323 33.4376 516.748 33.4374C517.476 33.4018 523.663 34.9167 524.382 35.2245C525.893 35.7561 520.41 34.4232 520.047 34.5741C519.942 34.5616 524.314 36.0394 524.47 36.1532C524.558 36.492 519.686 35.0116 520.212 35.4804C521.383 35.8223 522.563 36.1763 523.84 36.5976C520.099 35.8102 514.776 34.7019 511.465 34.1747C511.47 34.2283 511.472 34.283 511.476 34.3368C516.977 35.3887 522.255 36.6802 522.159 37.4159C522.059 37.728 519.141 37.2694 519.237 37.3886C519.573 37.7614 523.711 38.3975 523.932 38.5136C524.057 38.5682 524.112 38.6029 524.108 38.62C523.962 38.6972 518.191 37.5044 517.94 37.5722C517.441 37.6228 519.837 38.7496 519.803 38.8837C519.695 38.875 515.716 38.232 517.013 38.7343C518.099 39.1396 520.702 39.7336 521.626 39.9657C522.385 39.9972 523.15 40.0416 523.896 40.1064C524.768 40.1812 526.565 40.8443 525.022 41.0468C522.35 41.4061 517.134 40.8641 517.222 41.287C517.342 41.7509 524.262 41.4054 526.114 41.4081C532.359 41.4156 531.381 41.7344 530.526 41.9609C530.774 42.0013 530.953 42.0313 531.013 42.0448C532.031 42.2907 531.259 42.226 530.142 42.0683C530.025 42.1035 529.957 42.1319 529.992 42.1523C530.224 42.2774 531.022 42.3146 531.929 42.3134C530.923 41.9664 532.133 42.0124 534.091 42.2587C534.736 42.2317 535.208 42.205 535.254 42.204C535.511 42.2283 535.35 42.2944 535.017 42.3827C537.844 42.7813 541.583 43.4825 542.893 44.0644C543.257 44.2061 542.811 43.9397 542.498 43.7587C542.149 43.5608 541.81 43.3884 541.988 43.4345C542.061 43.4544 542.355 43.5427 542.789 43.706C543.05 43.807 543.319 43.911 543.745 44.123C544.218 44.4311 544.665 44.3803 546.037 45.9696C546.413 46.4856 546.795 47.0386 547.062 48.1874C547.345 49.2883 547.069 50.8776 546.675 51.6249C546.292 52.464 545.723 53.0893 545.362 53.4189C545.045 53.7106 544.75 53.9256 544.478 54.1005C543.503 54.6995 542.991 54.8358 542.52 55.0077C541.558 55.3228 540.882 55.4705 540.113 55.6347C537.739 56.1271 535.631 56.4234 535.206 56.5946C534.368 56.95 538.446 56.1077 538.812 56.2499C538.921 56.4936 528.363 58.1733 534.106 57.5282C535.739 57.3342 537.962 56.9337 540.249 56.3847C541.191 56.1508 541.932 55.9895 543.292 55.4657C543.702 55.2966 544.054 55.1527 544.681 54.7782C545.03 54.5644 545.419 54.2962 545.847 53.8964C546.374 53.403 547.156 52.5131 547.581 51.1493C548.152 49.5901 547.692 47.3904 547.216 46.5956C546.732 45.6129 546.085 44.9776 545.81 44.7235C545.462 44.404 545.157 44.183 544.884 44.0019C544.67 43.8612 544.479 43.7503 544.299 43.6513C542.98 42.9652 542.409 42.8325 541.904 42.6181C541.382 42.4166 541.082 42.2743 540.887 42.1278C541.519 42.2812 542.13 42.4329 542.972 42.7265C543.156 42.7905 543.414 42.8873 543.659 42.9911C543.784 43.0439 543.911 43.1005 544.044 43.163C544.206 43.2398 544.376 43.3245 544.554 43.4228C544.738 43.5254 544.899 43.6193 545.142 43.7802C545.405 43.9568 545.694 44.1697 546.015 44.4609C546.511 45.0282 548.197 46.1696 548.186 49.6855C547.886 52.9886 546.01 54.1586 545.597 54.5585C545.255 54.8264 544.945 55.023 544.662 55.1855C544.436 55.315 544.26 55.4045 544.074 55.4941C543.274 55.8652 542.936 55.9666 542.431 56.1308C542.052 56.2518 541.655 56.3614 541.302 56.4511C540.982 56.5338 540.65 56.6112 540.305 56.6864C536.34 57.535 532.796 57.9726 529.195 58.4335C532.374 58.3357 535.501 58.2167 538.946 57.8446C532.075 59.1388 526.673 59.3115 520.601 60.329C535.293 59.6821 515.881 61.5532 515.712 61.6337C515.638 61.717 521.405 61.8803 522.36 61.8974C517.257 62.7562 501.886 64.3326 510.937 64.4179C509.277 64.3685 505.361 65.2745 505.409 65.3114C505.923 65.6948 514.561 64.5485 513.171 65.0595C511.542 65.6641 509.243 65.3132 506.725 65.6054C493.863 67.0818 497.479 69.0577 484.595 69.9286C484.854 69.99 485.113 70.0514 485.371 70.1122C480.12 70.5631 474.873 70.9946 469.637 71.413C460.916 72.1096 452.159 72.7618 443.405 73.3534C437.944 74.6304 423.327 76.2943 416.124 76.6708C414.671 76.7561 407.547 76.7318 407.01 76.6737C406.015 76.5718 411.484 76.1745 409.008 76.0224C408.489 76.0043 396.428 76.4781 397.291 76.953C398.641 76.9414 402.872 76.4376 403.566 76.5194C407.822 77.068 379.927 78.1734 371.575 78.54C370.356 78.6041 369.556 78.6632 369.321 78.7196C370.067 78.8563 370.817 78.9916 371.571 79.1249C371.655 79.1401 371.742 79.1556 371.826 79.1708H368.122C366.975 79.1684 365.83 79.1636 364.687 79.1562C365.648 78.9652 366.61 78.7731 367.577 78.581C364.844 78.5706 361.167 78.794 358.639 78.7001C358.228 78.6836 359.306 78.1887 358.33 78.1903C357.35 78.1915 357.523 78.8307 356.098 78.9316C354.496 79.0499 347.196 78.7197 344.678 78.7509C335.238 78.8987 325.771 79.2942 316.488 79.0077C326.118 78.5033 316.446 77.9801 313.76 78.1942C313.17 78.2463 313.187 79.5286 303.65 79.2167C297.603 79.0248 303.244 77.1189 293.136 78.0985C300.837 79.3913 293.221 79.3183 287.176 79.4276C286.137 79.4418 277.74 79.3467 274.054 79.4892C273.289 79.5174 272.273 79.8086 271.213 80.0468C270.533 80.2003 269.836 80.3313 269.18 80.3554C268.029 80.3974 267.159 80.0273 265.445 80.0946C257.454 80.4068 249.554 80.7349 241.458 80.9316C246.166 78.8391 237.734 80.2693 237.347 80.1972C235.41 79.7554 244.145 79.2575 240.685 79.0722C235.858 79.3216 231.013 79.5837 226.149 79.8476C230.147 79.9143 220.89 81.7028 219.157 81.1415C219.977 82.8492 196.76 80.5398 193.158 81.1786C192.414 81.319 197.301 82.0663 185.991 81.9706C184.765 81.9558 185.226 81.412 184.582 81.4765C184.197 81.5156 181.864 83.2642 179.367 82.372C178.455 82.0342 184.302 80.8621 171.469 81.4648C175.391 82.7576 162.8 82.7519 154.718 82.2626C152.245 82.1222 150.261 81.9587 149.264 81.8339C150.094 82.0883 150.975 82.3433 151.797 82.5937C147.6 81.8775 146.814 82.4448 145.867 82.3896C142.031 82.1604 136.764 81.3559 133.098 81.2157C128.815 81.0437 128.737 82.1567 123.685 81.3564C124.862 81.6913 126.082 82.0231 127.232 82.3427C123.751 82.0547 120.217 81.7135 116.624 81.2939C125.072 80.6142 114.871 81.0744 114.164 80.997C113.081 80.93 114.696 80.5066 112.892 80.3769C112.706 80.3651 112.906 80.9713 110.119 80.6894C104.277 80.0509 105.311 79.4359 102.904 79.081C102.695 79.048 103.321 79.686 99.2629 79.1308C87.2887 77.4466 99.2009 78.7308 99.8947 78.7665C100.609 78.7624 96.3639 76.0031 107.446 78.4433C103.675 77.6612 103.499 76.6489 103.071 76.5624C102.647 76.491 96.438 75.5604 96.2033 75.5458C93.3579 75.3751 95.6858 76.4412 95.1233 76.4609C94.9585 76.4668 93.9722 76.2026 92.7873 75.9667C91.7974 75.7777 90.7245 75.5754 89.2443 75.247C87.7388 74.872 86.0578 74.63 82.2326 73.0526C81.9292 72.8964 81.6144 72.7497 81.2805 72.5985C80.442 72.6205 80.1231 72.4937 79.2483 71.7685C75.8959 74.4271 76.7762 70.2911 75.4074 70.1767C71.819 69.8829 72.8768 71.8909 72.6975 71.996C71.4306 72.6603 61.2796 72.2566 58.7277 72.623C59.6982 71.1285 66.8141 72.3725 68.3693 72.0448C73.5735 70.9514 60.9549 71.5224 64.716 69.5722C63.1224 70.124 61.5332 70.676 59.9279 71.2284C56.9328 70.127 61.1426 69.4962 53.135 70.1474C51.8479 71.2067 58.8008 69.8323 57.4211 70.6757C56.61 71.1725 51.9692 71.3996 51.8664 71.6503C51.8064 71.9526 55.9865 71.4853 55.343 71.9638C53.9835 73.0149 38.3073 72.4136 50.1926 71.6025C47.3132 71.6868 45.6329 70.2254 43.3098 70.2812C42.9614 70.2894 42.6023 70.3309 42.2287 70.4169C41.5385 70.5769 42.5631 71.0393 43.3303 71.538C43.9864 71.9649 44.4304 72.4205 43.3508 72.746C42.3018 73.0477 40.0881 73.2776 34.5988 73.0888C34.3772 72.1751 41.4628 72.8037 41.5998 72.7148C41.85 72.6067 40.5644 70.5141 40.3557 70.4101C40.1486 70.3145 38.6763 70.357 36.469 70.411C35.3619 70.4365 34.074 70.4679 32.4553 70.4599C32.0366 70.4571 31.6139 70.451 31.1818 70.4413C30.6732 70.4285 30.1101 70.4077 29.5256 70.3759C29.0521 70.3517 28.021 70.2833 26.9485 70.1513C26.5376 70.0997 25.3921 69.9615 23.8635 69.6181C23.4681 69.5288 23.0294 69.4217 22.5256 69.2831C22.2734 69.2136 22.0042 69.1356 21.7151 69.0468C21.5705 69.0024 21.4201 68.9557 21.2649 68.9052C21.1872 68.8799 21.1082 68.8531 21.0276 68.8261C20.9267 68.7925 20.6917 68.7118 20.5119 68.6474C18.9724 68.0645 16.9461 67.3576 13.6965 65.0985C10.7024 62.8932 5.02445 58.2854 2.7424 48.5224C0.0584617 35.9172 6.58707 26.8292 9.51681 23.8095C9.93173 23.363 10.3294 22.9647 10.7082 22.6034C10.8216 22.4955 10.8501 22.47 10.9026 22.4208C10.9511 22.3754 10.9992 22.3293 11.0471 22.2851C11.1427 22.1968 11.2371 22.1109 11.3303 22.0273C11.7043 21.6916 12.0592 21.3903 12.3957 21.1171C13.0686 20.5712 13.6704 20.1325 14.2151 19.7577C16.3545 18.2993 17.8478 17.6327 18.4152 17.3544C19.8891 16.6618 21.0359 16.2512 21.6076 16.0458C23.0365 15.5441 23.8574 15.3137 24.6916 15.079C26.2261 14.657 27.3589 14.4049 28.4055 14.1933C30.4088 13.7963 31.8752 13.6309 32.7541 13.6874C31.2015 12.6855 45.3649 11.1316 46.6799 10.6073C47.057 10.4427 45.4644 9.94479 45.8723 9.79874C48.4452 8.89499 55.7157 9.14113 59.0002 8.72648C62.6758 8.25563 62.1256 7.68982 62.3303 7.66105C63.956 7.47996 62.7222 8.08283 63.7121 7.95011C65.1916 7.72692 75.5624 6.56921 76.1096 6.44523C76.2621 6.40052 74.4495 5.86079 76.7404 5.47355C77.1594 5.4176 76.8939 6.26166 83.8645 5.24991C92.4474 4.08997 77.8274 4.6934 81.3049 3.4921C86.8796 4.28071 86.6314 3.05681 88.2385 3.038C88.398 3.03796 88.859 3.10443 89.5266 3.1962C91.1397 3.42448 93.9927 3.81858 96.8527 3.67179C94.4903 3.8983 92.1116 4.14321 89.6115 4.43644C89.0398 4.50326 88.4611 4.57486 87.8752 4.64835C88.3956 4.64335 88.9894 4.62352 89.6233 4.59757C92.8008 4.46356 96.9561 4.17897 98.9055 4.30069C100.025 4.37239 99.1495 5.28319 101.576 5.19425C102.067 5.17685 104.112 2.94193 97.6994 4.10441C97.1549 3.34803 100.249 3.7538 101.637 3.50382C101.835 3.46506 102.671 2.15284 104.454 2.91788C104.864 3.11974 100.435 6.91482 112.202 4.03019C112.579 3.9385 111.253 3.48618 111.62 3.38468C111.87 3.31551 114.895 3.4731 115.218 3.40519C115.553 3.33071 114.097 2.83263 114.497 2.72843C116.558 2.19315 119.328 4.19776 115.044 4.07804C116.484 4.31566 117.903 4.55568 119.339 4.79679C117.785 3.28141 121.566 4.35442 123.522 4.30167C136.06 3.97719 127.646 3.00765 129.794 2.49308C133.247 1.67685 130.64 4.26667 135.755 3.49405C136.22 3.42326 130.039 2.30795 142.106 2.95987C140.33 2.99692 138.549 3.03415 136.768 3.07316C137.818 4.53452 143.189 2.99004 143.606 2.97159C148.322 2.78847 145.15 3.29989 152.125 2.57901C152.749 2.51449 154.114 2.87653 155.439 2.70304C160.948 1.99001 148.151 2.23149 147.78 1.64054ZM249.491 80.2372C249.571 79.8847 244.742 79.8284 244.263 80.4501C245.22 80.3863 249.437 80.4549 249.491 80.2372ZM260.81 79.7294C264.753 79.1472 252.88 79.3222 256.511 79.7948C256.696 79.8161 260.622 79.7563 260.81 79.7294ZM349.544 79.1308C349.823 79.0828 357.179 79.0412 356.617 79.3515C355.082 79.9481 348.334 79.3865 349.544 79.1308ZM310.594 78.4423C310.59 78.28 307.28 78.27 307.131 78.2939C305.976 78.4761 310.582 78.9489 310.594 78.4423ZM346.151 78.5868C347.34 77.9625 338.57 77.8825 340.865 78.3817C341.375 78.4945 345.046 78.5975 346.151 78.5868ZM84.5861 72.4843C83.7232 72.4825 83.056 72.5061 82.5246 72.5341C82.6924 72.6087 82.8515 72.6808 83.0031 72.7499C88.991 75.0781 90.5579 74.9497 92.8889 75.3974C93.1789 75.4329 93.4757 75.4679 93.7776 75.5038C94.0463 75.4291 93.6279 75.2364 92.9563 75.0155C91.6308 74.6583 89.8591 74.2898 86.8166 73.2968C86.1297 73.0579 85.4113 72.8118 84.5861 72.4843ZM35.7668 9.38761C37.2168 9.35915 35.6921 10.0382 35.9709 10.1278C36.0949 10.1589 40.5158 10.1657 36.9768 10.9374C31.5056 12.1668 36.2701 9.85379 33.261 10.4159C32.9922 10.4437 27.1142 12.5838 27.3449 12.7577C27.3643 12.7645 27.8886 12.599 28.4221 12.4442C28.9173 12.2978 29.4598 12.1529 29.6252 12.1571C30.8789 12.19 30.3852 12.8074 30.5588 12.7948C31.2372 12.6689 39.8289 10.1872 41.1594 10.7401C41.6502 10.8419 27.5939 14.0357 25.9201 14.5087C25.4128 14.5587 25.2672 13.1652 24.7111 13.1728C24.6578 13.1706 23.9271 13.3817 22.7883 13.7714C22.0992 14.0081 21.339 14.262 19.8986 14.8417C19.0046 15.2121 18.2008 15.5295 16.4533 16.4423C15.2846 17.0743 13.8339 17.8611 11.6692 19.5546C11.1271 19.9841 10.5397 20.4802 9.89865 21.0741C9.14578 21.7618 7.41691 23.4718 5.93283 25.5663C2.9337 29.4996 -1.20959 38.7151 1.1213 48.8769C3.89559 60.3543 10.5967 64.946 13.7561 67.1366C17.1878 69.3313 19.5522 70.0498 20.6604 70.4374C22.1215 70.9093 23.1332 71.1367 23.9719 71.3114C24.8048 71.4812 25.4522 71.5817 26.0139 71.6601C26.4825 71.7234 26.7272 71.7484 27.0393 71.7812C28.1954 71.8985 29.0854 71.9398 29.549 71.9579C30.634 72.0014 31.3353 72.0167 31.5402 72.0556C31.8279 72.103 32.0466 72.1499 32.2072 72.1874C31.6233 71.9549 33.1395 71.9045 34.4201 71.9316C35.7819 71.9626 37.0521 72.0877 36.9934 72.33C36.9381 72.425 35.951 72.4464 34.9651 72.4296C33.867 72.413 32.8503 72.3526 32.7014 72.3319C32.6273 72.3161 32.5632 72.2951 32.5031 72.2802C32.7124 72.398 32.1246 72.4764 31.0861 72.5097C30.4326 72.5186 29.759 72.525 28.5852 72.4638C27.8899 72.4211 27.1515 72.3706 26.01 72.2226C25.1491 72.1004 24.1314 71.9516 22.4953 71.5448C22.083 71.4407 21.6261 71.3166 21.1086 71.1601C20.845 71.0801 20.5914 71.0007 20.2678 70.8925C19.622 70.6746 18.8872 70.4051 18.0178 70.0341C16.2807 69.2596 13.9817 68.244 10.6779 65.5605C7.54829 62.9508 2.56591 57.8182 0.581263 48.9941C-2.95556 28.4917 10.8079 19.9991 10.7072 19.6298C12.8508 17.8603 14.3461 16.9931 15.552 16.3085C16.922 15.5603 17.216 15.4404 17.8361 15.1444C18.3852 14.8893 18.8652 14.682 19.302 14.5009C20.2594 14.1091 20.6581 13.9629 21.177 13.7704C21.6645 13.5912 22.1171 13.4333 22.5149 13.2978C23.8446 12.8383 24.8347 12.5277 25.4934 12.2948C26.9064 11.8116 27.2708 11.5747 26.3342 11.5722C30.5626 10.1459 26.0803 12.7874 29.0744 11.6825C30.078 11.3244 30.7653 9.50679 35.7531 9.39054C35.7575 9.38972 35.7625 9.38841 35.7668 9.38761ZM89.4934 71.9433C89.441 71.9311 89.3944 71.9377 89.3957 71.998C89.5972 72.0027 89.4901 71.9288 89.4934 71.9433ZM73.4514 69.7226C72.2907 69.6181 65.7429 70.1516 65.5236 70.2519C63.8061 71.1179 72.7384 70.6812 73.4514 69.7226ZM54.1731 69.9013C57.0647 69.7126 60.0418 67.3549 56.4621 67.8075C56.0878 67.8567 53.8348 69.5946 54.1731 69.9013ZM17.8098 19.1132C16.7695 19.632 15.4803 20.2861 13.5276 21.7548C13.0383 22.1278 12.5055 22.5608 11.9221 23.0839C11.7453 23.2382 11.0439 23.8872 10.4318 24.5409C9.79915 25.2124 9.11897 26.0006 8.40939 26.9589C5.69174 30.4199 1.68131 38.7624 3.8254 48.286C5.86368 57.1954 11.0427 61.7429 13.927 63.9364C17.0266 66.1917 19.022 66.9419 20.5354 67.5468C20.7235 67.6181 20.9057 67.6843 21.0793 67.746C21.1654 67.7766 21.2548 67.8071 21.3322 67.8339C21.37 67.8473 21.4074 67.8619 21.4445 67.8749C21.5932 67.9269 21.7373 67.9752 21.8762 68.0214C22.1541 68.1138 22.4143 68.1956 22.6584 68.2694C23.1465 68.417 23.5743 68.5345 23.9611 68.6337C25.4431 69.015 26.6374 69.1991 27.0285 69.2812C28.0968 69.4803 29.1263 69.6022 29.6057 69.6669C30.1914 69.739 30.7657 69.7865 31.2404 69.8114C31.6579 69.8341 32.0508 69.8382 32.4094 69.8261C33.8469 69.7752 34.4618 69.4666 33.9406 68.9198C31.2221 68.9073 31.122 69.1202 31.0725 69.2919C31.0348 69.3733 30.9639 69.4362 30.3401 69.411C30.1828 69.4044 29.9895 69.3923 29.7473 69.371C29.4811 69.3476 29.2959 69.3269 28.7443 69.2665C28.2418 69.2082 27.6462 69.1356 26.7404 68.9872C26.2477 68.9046 25.2719 68.7555 23.9035 68.4198C23.5494 68.3325 23.1535 68.2297 22.6965 68.0966C22.4678 68.0299 22.2232 67.9557 21.9592 67.871C21.8277 67.8288 21.6909 67.7831 21.549 67.7353C21.5136 67.7233 21.477 67.7106 21.4406 67.6982C21.4091 67.6873 21.3607 67.6713 21.2688 67.6396C21.1043 67.5828 20.9318 67.5217 20.7531 67.456C19.3148 66.896 17.4237 66.2181 14.3723 64.0839C11.5678 61.9882 6.16541 57.6918 3.9465 48.2597C0.74497 29.5453 13.8245 22.0181 13.2502 22.0575C15.2568 20.4716 16.664 19.7126 17.8098 19.1132ZM41.6828 69.2607C44.4962 68.6557 38.4254 68.2737 38.9367 69.0097C39.0751 69.0516 41.538 69.2884 41.6828 69.2607ZM525.133 66.7587C522.874 66.7698 530.423 65.7775 527.846 66.3993C527.719 66.4286 525.225 66.7596 525.133 66.7587ZM43.8449 62.8319C43.623 62.8696 43.406 62.9035 43.1965 62.9384C42.1468 63.6288 41.398 64.0026 40.9338 64.2421C39.9182 64.7485 39.3489 64.9597 39.0754 65.0732C38.5725 65.2744 38.5819 65.2864 38.6545 65.2968C38.8522 65.2968 39.3197 65.2413 39.5139 65.2167C39.4819 65.3509 39.0328 65.6004 38.8322 65.7646C38.754 65.8373 38.6974 65.9123 39.1936 65.7724C39.374 65.7218 39.971 65.5335 41.009 65.0478C41.3659 64.8748 42.7173 64.2552 44.5022 62.9814C44.6535 62.8729 44.8092 62.7562 44.9719 62.6337C44.5885 62.7011 44.211 62.769 43.8449 62.8319ZM512.117 65.6728C511.86 65.668 515.619 64.5439 516.695 64.9423C517.532 65.2488 512.811 65.6752 512.117 65.6728ZM520.939 63.2431C524.246 62.6162 534.807 62.7715 523.58 63.9364L522.707 64.0067C521.108 64.1033 522.444 63.7503 522.331 63.7567C516.125 64.0889 517.825 64.465 516.852 64.6454C514.813 65.0183 515.098 64.2715 511.645 64.9257C517.344 63.894 512.159 64.6178 511.967 64.3749C511.285 63.3985 519.623 64.0857 522.503 63.5097C522.903 63.4365 519.92 63.4505 520.939 63.2431ZM43.0559 61.3593C40.8651 61.7709 38.444 62.4151 38.2863 62.6542C38.2161 62.714 38.4439 63.5464 38.4836 63.8837C38.5621 63.8473 38.6658 63.7973 38.8068 63.7353C39.0005 63.6491 39.2353 63.5497 39.5949 63.3788C39.5364 63.3719 39.4915 63.3629 39.4631 63.3476C39.2926 63.2421 39.6941 62.9269 41.632 62.2948C42.0321 62.056 42.4983 61.7564 43.0559 61.3593ZM45.8078 60.9989C45.2926 61.4329 44.9691 61.6127 44.4924 62.0292C44.2304 62.225 43.9797 62.4026 43.7434 62.5673C44.3568 62.467 44.9642 62.3514 45.5031 62.2235C45.6823 62.0805 45.8692 61.9286 46.0617 61.7655C46.3016 61.5623 46.5503 61.34 46.8117 61.0995C46.6586 61.0673 46.4743 61.0382 46.258 61.0126C46.1351 60.9976 45.9831 60.9949 45.8078 60.9989ZM528.829 60.9941C531.177 60.887 525.801 61.6328 524.246 61.7069C524.132 61.5735 528.652 61.0084 528.829 60.9941ZM538.888 45.4452C538.722 45.4778 538.507 45.5119 538.253 45.5448C537.368 45.6576 536.269 45.7102 536.097 45.7499C535.285 45.9334 537.62 45.8994 537.526 46.0429C537.524 46.0788 537.159 46.1879 536.821 46.3036C537.144 46.3809 537.477 46.46 537.817 46.5439C538.003 46.5095 538.209 46.4664 538.414 46.4208C538.663 46.3669 538.9 46.3116 539.133 46.2548C539.391 46.193 539.634 46.1259 539.738 46.0985C539.772 46.0988 539.812 46.0582 539.501 46.2567C539.396 46.3453 539.282 46.3926 539.093 46.5751C538.905 46.6269 538.708 46.6781 538.519 46.7245C538.635 46.7551 538.751 46.7859 538.868 46.8183C538.797 46.9043 538.718 47.0083 538.628 47.1317C538.716 47.1256 538.801 47.116 538.883 47.1093C538.953 47.0216 539.021 46.9446 539.084 46.8788C539.268 46.9312 539.453 46.9869 539.639 47.0448C539.775 47.0333 539.863 47.0282 539.889 47.038C539.916 47.0493 539.9 47.0742 539.849 47.1112C540.355 47.2742 540.872 47.4598 541.393 47.6796C541.607 47.7761 541.819 47.8789 542.049 48.0234C542.264 48.1871 542.573 48.2887 542.842 48.9198C542.989 49.2742 542.856 49.7991 542.692 49.9989C542.502 50.2604 542.373 50.3356 542.234 50.4335C542.084 50.5307 541.97 50.5842 541.863 50.6337C541.754 50.6833 541.63 50.7337 541.519 50.7734C540.666 51.0627 540.019 51.1651 539.314 51.2987C539.132 51.3314 538.952 51.3631 538.778 51.3935C538.772 51.3855 538.765 51.3782 538.759 51.37C538.943 51.3387 539.126 51.3061 539.308 51.2714C539.634 51.2088 539.925 51.1461 540.201 51.078C540.542 50.9942 540.77 50.9299 541.108 50.8183C541.269 50.7636 541.395 50.7167 541.555 50.6493C541.734 50.5729 541.866 50.5095 542.04 50.4032C542.235 50.2701 542.401 50.192 542.62 49.8251C542.707 49.6766 542.783 49.3762 542.728 49.1357C542.673 48.8845 542.583 48.759 542.481 48.6298C542.113 48.2306 541.822 48.1416 541.537 48.0087C541.263 47.8943 540.996 47.8072 540.732 47.7284C540.512 47.6639 540.297 47.6075 540.087 47.5556C540.073 47.5674 540.058 47.5791 540.042 47.5927C539.984 47.6544 539.871 47.7568 539.749 47.9169C539.781 47.9266 539.814 47.9353 539.846 47.9452C539.813 47.956 539.779 47.9668 539.744 47.9784C539.727 47.9837 539.711 47.99 539.695 47.995C539.678 48.0196 539.661 48.0452 539.644 48.0722C539.809 48.1203 539.966 48.1698 540.116 48.2177C540.153 48.1624 540.19 48.1108 540.227 48.0663C540.382 48.1174 540.539 48.1702 540.694 48.2255C541.079 48.3732 541.512 48.5391 541.869 48.8173C542.014 48.9174 542.283 49.2493 542.113 49.5321C542.048 49.6542 541.945 49.7399 541.865 49.7978C541.778 49.8614 541.668 49.9226 541.594 49.9589C540.887 50.2869 540.181 50.4216 539.733 50.5487C539.549 50.5952 540.398 50.9212 539.279 51.1073C539.127 51.1303 538.901 51.1509 538.621 51.162C538.558 51.0569 538.495 50.9383 538.435 50.8036C538.652 50.7449 538.905 50.6781 539.186 50.6073C539.892 50.4186 540.715 50.2456 541.54 49.8378C541.726 49.7323 541.977 49.5907 542.011 49.3534C542.02 49.2252 541.958 49.1322 541.866 49.038C541.861 49.0328 541.855 49.0288 541.849 49.0234C542.351 49.5192 541.665 50.0003 539.159 50.4618C538.904 50.5089 538.634 50.5534 538.351 50.5995C538.378 50.6715 538.406 50.7395 538.435 50.8036C538.377 50.8191 538.322 50.833 538.27 50.8476C538.239 50.7799 538.209 50.7068 538.18 50.6288C537.445 50.7459 536.621 50.8593 535.716 50.9706C534.993 51.1782 534.481 51.4316 534.141 51.8153C535.586 51.7786 537.104 51.6435 538.587 51.3993C538.593 51.4079 538.599 51.4164 538.605 51.4247C538.218 51.4919 537.862 51.5527 537.567 51.6093C537.94 51.6019 538.329 51.5875 538.71 51.5702C538.788 51.674 538.859 51.7556 538.922 51.8222C538.104 51.9712 537.252 52.1021 536.457 52.2138C537.699 52.0952 538.539 51.9898 539.032 51.9296C539.081 51.9736 539.124 52.009 539.164 52.038C538.176 52.3074 535.896 52.7828 535.041 53.2841C534.677 53.5093 539.296 52.605 534.03 53.7694C537.665 53.4095 536.912 53.6673 539.631 53.0273C539.875 52.9674 540.132 52.9 540.397 52.8232C540.389 52.8784 540.144 52.9935 539.654 53.1454C537.543 53.8678 531.681 54.8157 529.1 55.1913C538.253 54.4846 535.56 54.0566 539.704 53.4247C540.232 53.3245 540.791 53.2282 541.571 53.0243C542.035 52.8826 542.422 52.827 543.3 52.3349C543.428 52.2574 543.565 52.1676 543.707 52.0575C543.855 51.939 543.975 51.8505 544.224 51.5761C544.444 51.3268 544.676 50.9967 544.85 50.5673C545.035 50.1379 545.155 49.4245 545.062 48.8417C544.863 47.6443 544.319 47.1247 544.021 46.8017C543.74 46.5177 543.416 46.2919 543.241 46.1786C542.812 45.9745 542.597 45.9339 542.53 45.9364C542.453 45.938 542.484 45.9809 542.592 46.0575C542.722 46.1471 542.944 46.271 543.263 46.4989C543.464 46.6443 543.688 46.8141 543.968 47.1191C544.3 47.527 544.852 48.0974 544.836 49.4726C544.723 50.833 544.054 51.4061 543.713 51.7323C543.403 52.0056 543.053 52.2046 542.872 52.2968C542.482 52.4975 542.132 52.6183 541.922 52.6884C541.429 52.8481 541.206 52.8929 541.304 52.8515C541.457 52.7791 541.77 52.6669 542.042 52.5517C542.165 52.4994 542.381 52.4101 542.584 52.3095C542.688 52.2584 542.795 52.2012 542.907 52.1366C543.052 52.0542 543.225 51.9476 543.402 51.8124C543.623 51.5879 544.564 51.0877 544.685 49.3808C544.61 47.6362 543.73 47.1648 543.468 46.8905C542.718 46.3251 542.337 46.2251 541.855 46.0321C540.963 45.7244 540.076 45.5175 539.151 45.3837C539.079 45.4034 538.991 45.4247 538.888 45.4452ZM533.506 42.745C533.167 42.8305 532.916 42.9087 532.906 42.9638C532.895 43.2523 537.178 43.3652 536.232 43.5273C535.83 43.6126 535.165 43.6541 534.428 43.6757C534.887 43.7612 535.387 43.856 535.931 43.9599C536.08 43.9406 536.255 43.9234 536.461 43.9101C538.363 43.7454 537.151 44.1087 536.366 44.3222C536.499 44.3461 536.632 44.3705 536.764 44.3944C537.155 44.3597 537.614 44.3178 538.02 44.2753C538.711 44.2032 539.049 44.1638 539.071 44.2235C539.077 44.2334 539.08 44.256 538.955 44.3173C538.819 44.3815 538.545 44.4826 538.081 44.6083C538.06 44.6142 538.039 44.62 538.018 44.6259C538.409 44.6985 538.784 44.7667 539.126 44.8329C540.265 45.0905 540.448 44.845 542.409 45.5067C542.551 45.5616 542.683 45.6162 542.841 45.6894C543.017 45.7717 543.198 45.8644 543.39 45.9794C543.563 46.0817 543.879 46.2912 544.165 46.5605C544.428 46.8169 545.016 47.3736 545.293 48.4667C545.443 49.0628 545.426 49.7912 545.237 50.3944C545.072 50.93 544.834 51.3175 544.591 51.6308C544.47 51.7853 544.348 51.9175 544.229 52.0331C544.139 52.1205 544.061 52.1902 543.98 52.2577C543.819 52.3911 543.665 52.4993 543.52 52.5927C543.192 52.7977 543.061 52.8578 542.861 52.954C542.684 53.0373 542.46 53.1271 542.344 53.1708C541.165 53.5923 540.484 53.6938 539.781 53.8427C539.49 53.9009 539.224 53.9533 539.009 53.9999C538.544 54.0994 539.349 54.0422 539.817 54.0331C540.225 54.0148 540.461 54.0324 539.847 54.2001C539.298 54.3525 537.894 54.6476 535.144 54.9696C536.462 54.9285 538.081 54.7589 539.886 54.413C540.206 54.3511 540.513 54.2855 540.807 54.2157C541.133 54.1387 541.485 54.047 541.828 53.9413C542.259 53.805 542.585 53.7064 543.213 53.4062C543.455 53.2835 543.919 53.0506 544.425 52.6103C544.898 52.2128 546.307 50.7643 545.867 48.4765C545.4 46.6394 544.549 46.1882 544.211 45.8632C543.742 45.5053 543.524 45.4016 543.238 45.2499C542.736 44.9971 542.34 44.8547 542.001 44.7372C541.283 44.4937 540.703 44.3466 540.099 44.1972C537.789 43.6477 535.805 43.3066 534.253 42.9218C533.981 42.8595 533.733 42.7998 533.506 42.745ZM113.819 52.2519C113.744 52.2539 113.668 52.2592 113.592 52.2626C113.081 53.593 112.8 54.0147 112.77 54.2597C112.71 54.5274 113.07 54.1939 113.812 52.8847C113.907 52.6955 114.016 52.4847 114.134 52.2489C114.026 52.249 113.921 52.2489 113.819 52.2519ZM540.092 44.6806C539.097 44.3624 539.692 44.4264 540.807 44.6972C541.401 44.8542 542.039 45.014 542.938 45.4355C543.455 45.7671 543.917 45.6875 545.052 47.2626C545.182 47.4775 545.306 47.7263 545.405 48.0048C545.51 48.2959 545.604 48.6999 545.624 49.0819C545.684 49.8581 545.429 50.6677 545.214 51.0712C544.98 51.5345 544.712 51.8573 544.478 52.0976C544.245 52.3303 544.14 52.4075 543.994 52.5194C543.934 52.5387 544.051 52.4479 544.335 52.1581C544.536 51.9497 544.816 51.6512 545.096 51.1151C545.35 50.6742 545.688 49.5349 545.439 48.5341C545.211 47.5626 544.78 47.0358 544.403 46.6347C544.11 46.3374 543.824 46.1277 543.563 45.9618C543.147 45.7026 542.751 45.5303 542.448 45.4101C541.191 44.9307 540.285 44.7511 540.092 44.6806ZM539.331 51.9892C539.532 52.1484 539.569 52.1594 539.591 52.1767C539.615 52.1923 539.468 52.1271 539.303 52.0722C539.446 52.1573 539.572 52.2455 539.551 52.2626C539.533 52.2648 539.5 52.2677 539.341 52.1669C539.292 52.1258 539.235 52.0896 539.164 52.038C539.225 52.0214 539.281 52.0042 539.331 51.9892ZM539.421 51.8847C539.755 51.8474 539.712 51.878 539.435 51.9599C539.404 51.97 539.368 51.9781 539.331 51.9892C539.328 51.987 539.324 51.9855 539.321 51.9833C539.291 51.957 539.264 51.9319 539.235 51.9062C539.309 51.8975 539.371 51.8893 539.421 51.8847ZM539.235 51.9062C539.175 51.9131 539.108 51.9204 539.032 51.9296C538.998 51.8989 538.961 51.8636 538.922 51.8222C538.984 51.8109 539.046 51.7976 539.108 51.786C539.157 51.8367 539.197 51.8736 539.235 51.9062ZM540.981 51.3632C540.455 51.5146 539.949 51.6257 539.393 51.7343C539.299 51.7527 539.203 51.7682 539.108 51.786C539.054 51.7317 538.988 51.662 538.903 51.5614L538.902 51.5595C539.056 51.5519 539.208 51.5465 539.357 51.538C539.921 51.4959 540.438 51.451 540.981 51.3632ZM538.902 51.5595C538.838 51.5626 538.774 51.5673 538.71 51.5702C538.677 51.5258 538.641 51.4775 538.605 51.4247C538.662 51.4148 538.72 51.4036 538.778 51.3935C538.821 51.4529 538.861 51.5089 538.902 51.5595ZM538.759 51.37C538.702 51.3798 538.644 51.3899 538.587 51.3993C538.54 51.3298 538.491 51.2522 538.438 51.1669C538.501 51.1656 538.562 51.1644 538.621 51.162C538.667 51.2379 538.714 51.3066 538.759 51.37ZM538.395 51.1005C538.409 51.1234 538.424 51.1451 538.438 51.1669C538.259 51.1706 538.061 51.1713 537.85 51.164C537.365 51.1468 537.603 51.034 538.27 50.8476C538.313 50.943 538.354 51.0288 538.395 51.1005ZM540.476 47.7607C540.52 47.7555 540.528 47.7591 540.455 47.8241C540.421 47.8561 540.372 47.902 540.318 47.9609C540.29 47.99 540.26 48.0264 540.227 48.0663C540.1 48.0246 539.973 47.9842 539.846 47.9452C540.152 47.8445 540.384 47.7787 540.476 47.7607ZM538.663 47.6161C538.761 47.6406 538.859 47.6662 538.958 47.6923C539.105 47.6735 539.288 47.6454 539.508 47.6025C539.643 47.5752 539.775 47.5449 539.906 47.5116C539.698 47.4624 539.492 47.417 539.288 47.3739C539.061 47.4627 538.832 47.5486 538.663 47.6161ZM538.513 47.29C538.464 47.3678 538.416 47.4528 538.368 47.5429C538.432 47.558 538.496 47.5748 538.561 47.5907C538.626 47.4723 538.694 47.366 538.762 47.2704C538.692 47.2572 538.623 47.244 538.555 47.2314C538.541 47.2506 538.527 47.2698 538.513 47.29ZM537.408 47.0331C537.107 47.1671 537.545 47.1819 538.146 47.1581L537.942 47.122C537.758 47.09 537.579 47.0613 537.408 47.0331ZM539.739 46.373C539.631 46.437 539.463 46.5035 539.087 46.8759C539.086 46.8768 539.085 46.8779 539.084 46.8788C539.012 46.8583 538.94 46.8381 538.868 46.8183C538.954 46.7163 539.028 46.6377 539.093 46.5751C539.109 46.5707 539.126 46.5679 539.142 46.5634C539.373 46.5006 539.58 46.4335 539.739 46.373ZM539.795 46.3544C539.778 46.3614 539.758 46.3659 539.739 46.373C539.741 46.3723 539.742 46.3717 539.743 46.371C539.903 46.2935 539.856 46.3308 539.795 46.3544ZM532.614 45.8642C532.069 46.0032 531.753 46.1116 531.849 46.1776C532.363 46.1272 532.882 46.0733 533.398 46.0185C533.073 45.956 532.781 45.8982 532.614 45.8642ZM536.461 45.1845C535.848 45.1846 538.171 45.9979 534.855 45.3564C534.375 45.4592 533.911 45.5614 533.496 45.6542C533.851 45.704 534.277 45.7735 534.754 45.8651C535.969 45.7219 537.149 45.5632 538.221 45.372C538.335 45.3523 538.448 45.3286 538.557 45.3066C537.887 45.2333 537.193 45.1955 536.461 45.1845ZM532.965 44.8368C532.64 44.9242 532.193 45.0164 532.387 45.0185C532.825 45.0212 533.193 45.0125 533.501 45.0009C533.326 44.9476 533.143 44.8923 532.965 44.8368ZM530.56 43.6757C527.877 44.0124 530.301 44.3329 532.059 44.5458C531.88 44.4864 531.771 44.4489 531.778 44.4452C532.14 44.2613 534.523 44.7844 534.644 44.705C534.751 44.6227 532.092 44.2012 532.063 44.1718C532.035 43.8561 534.317 44.4542 534 44.3007C533.806 44.2038 532.913 43.9485 532.009 43.6874C531.242 43.6785 530.66 43.6674 530.56 43.6757ZM532.902 43.6962C533.564 43.8176 534.396 43.9688 535.274 44.1259C535.386 44.066 535.566 44.0123 535.854 43.9706C535.065 43.8591 534.397 43.7668 533.84 43.6903C533.527 43.6948 533.209 43.6968 532.902 43.6962ZM523.999 39.2392C523.801 39.1657 524.448 38.6519 526.076 39.0273C531.418 40.2302 527.052 39.7997 539.272 41.2704C533.971 40.746 538.897 41.5206 537.844 41.5126C536.992 41.4926 534.09 40.8938 535.739 41.4579C533.478 40.7583 524.155 39.4195 523.989 39.2372C523.993 39.2379 523.996 39.2385 523.999 39.2392ZM530.443 39.6171C530.649 39.4391 538.7 40.7632 540.528 41.2548C539.315 41.0868 530.134 39.8076 530.443 39.6171ZM516.272 39.2392C516.202 39.2514 517.463 39.6162 518.417 39.9062C519.173 39.9058 519.983 39.9125 520.811 39.9364C519.169 39.6764 516.392 39.1828 516.272 39.2392ZM511.485 35.12C511.826 35.2003 512.213 35.2935 512.651 35.4003C512.653 35.4008 512.656 35.4008 512.658 35.4013C512.279 35.2602 511.887 35.1294 511.488 35.0067C511.488 35.0444 511.486 35.0823 511.485 35.12ZM503.809 35.0019C503.861 35.0119 503.913 35.0213 503.965 35.0312C503.944 34.9768 503.922 34.9241 503.901 34.873C503.849 34.8601 503.796 34.8468 503.744 34.8339C503.766 34.888 503.787 34.9444 503.809 35.0019ZM508.902 34.3398C508.916 34.5393 508.92 34.7396 508.916 34.9374C508.982 34.9499 509.044 34.9613 509.104 34.9726C509.107 34.8796 509.107 34.7862 509.107 34.6933C509.104 34.6884 509.105 34.6845 509.107 34.6806C509.106 34.5809 509.105 34.481 509.101 34.3817C509.035 34.3671 508.968 34.354 508.902 34.3398ZM510.423 34.8788C510.506 34.8969 510.595 34.9157 510.688 34.9364C510.689 34.8831 510.688 34.8297 510.689 34.7763C510.6 34.752 510.511 34.7285 510.422 34.705C510.424 34.7629 510.422 34.821 510.423 34.8788ZM503.113 34.8661C503.176 34.8786 503.24 34.8908 503.304 34.9032C503.274 34.8344 503.241 34.7672 503.209 34.7001C503.144 34.6836 503.078 34.667 503.012 34.6503C503.046 34.721 503.08 34.7929 503.113 34.8661ZM502.471 34.7392C502.581 34.7613 502.692 34.7847 502.802 34.8066C502.763 34.7256 502.728 34.6442 502.688 34.5663C502.569 34.5359 502.451 34.5044 502.332 34.4735C502.38 34.5597 502.425 34.6491 502.471 34.7392ZM501.383 34.2177C501.786 34.3658 502.022 34.5159 502.124 34.6679C502.141 34.6712 502.157 34.6753 502.173 34.6786C502.121 34.5798 502.068 34.4835 502.014 34.3905C501.802 34.3346 501.592 34.275 501.383 34.2177ZM503.656 34.6191C503.706 34.6301 503.756 34.6422 503.806 34.6532C503.771 34.5764 503.738 34.5034 503.704 34.4345C503.658 34.4257 503.611 34.4185 503.566 34.4101C503.596 34.4763 503.626 34.5461 503.656 34.6191ZM502.914 34.453C502.98 34.468 503.047 34.4829 503.113 34.498C503.082 34.4352 503.049 34.3735 503.017 34.3124C502.952 34.3017 502.888 34.2909 502.825 34.2812C502.856 34.3374 502.885 34.395 502.914 34.453ZM502.231 34.2968C502.346 34.3232 502.464 34.3504 502.584 34.3778C502.558 34.3296 502.532 34.2813 502.505 34.2343C502.388 34.2185 502.276 34.2058 502.172 34.1952C502.192 34.2285 502.211 34.2628 502.231 34.2968ZM501.914 34.2245C501.903 34.2069 501.893 34.1892 501.882 34.1718C501.8 34.1674 501.724 34.1658 501.655 34.1669C501.739 34.1861 501.826 34.2044 501.914 34.2245ZM510.385 34.1317C510.482 34.1496 510.578 34.1684 510.675 34.1864C510.672 34.1421 510.667 34.0978 510.664 34.0536C510.564 34.0393 510.467 34.0273 510.372 34.0146C510.376 34.0536 510.381 34.0927 510.385 34.1317ZM500.076 33.8651C500.135 33.8774 500.192 33.889 500.247 33.9013C500.184 33.8825 500.121 33.8642 500.059 33.8456C500.065 33.8521 500.071 33.8586 500.076 33.8651ZM509.064 33.8925C509.063 33.8886 509.062 33.8847 509.062 33.8808C509.028 33.8792 508.995 33.8758 508.963 33.8749C508.997 33.8808 509.03 33.8866 509.064 33.8925ZM511.381 33.498C512.527 33.6645 513.538 33.7916 514.227 33.8505C513.893 33.8283 512.529 33.5637 511.349 33.3212C511.36 33.3798 511.371 33.439 511.381 33.498ZM498.161 33.2148C498.305 33.2975 498.474 33.4049 498.668 33.5487C498.704 33.5764 498.738 33.6036 498.772 33.6298C499.146 33.6884 499.485 33.7481 499.79 33.8075C499.771 33.7877 499.754 33.767 499.736 33.748C499.157 33.5701 498.622 33.3911 498.161 33.2148ZM503.14 33.4511C502.895 33.0969 502.894 33.13 503.114 33.5204C503.152 33.5933 503.2 33.6791 503.254 33.7802C503.29 33.788 503.326 33.7958 503.362 33.8036C503.272 33.6575 503.196 33.543 503.14 33.4511ZM502.419 33.5966C502.49 33.6125 502.561 33.6295 502.632 33.6454C502.569 33.5459 502.505 33.4498 502.442 33.3564C502.37 33.3481 502.302 33.3396 502.238 33.3319C502.298 33.4174 502.359 33.5054 502.419 33.5966ZM508.795 33.5321C508.88 33.5472 508.955 33.562 509.02 33.5722C509.016 33.5493 509.012 33.5256 509.008 33.5028C508.942 33.4854 508.864 33.4674 508.778 33.4462C508.783 33.4747 508.79 33.5034 508.795 33.5321ZM501.649 33.4208C501.78 33.4514 501.913 33.4821 502.046 33.5126C501.992 33.4357 501.938 33.3604 501.884 33.288C501.713 33.2649 501.593 33.2459 501.532 33.2275C501.516 33.2229 501.501 33.2163 501.487 33.2118C501.54 33.279 501.594 33.3487 501.649 33.4208ZM510.275 33.33C510.381 33.3466 510.486 33.3637 510.591 33.3798C510.579 33.3042 510.565 33.2288 510.551 33.1542C510.436 33.1295 510.327 33.1052 510.226 33.0829C510.243 33.1648 510.26 33.2473 510.275 33.33ZM498.316 31.9511C498.501 32.0488 498.818 32.1865 499.281 32.5302C499.691 32.6472 500.021 32.7374 500.044 32.748C500.685 32.9939 500.289 32.9589 499.64 32.8163C499.7 32.8673 499.763 32.9199 499.827 32.9775C500.285 33.0954 500.776 33.2146 501.285 33.3349C501.085 33.0877 500.889 32.8734 500.706 32.6884C500.671 32.6541 500.637 32.6208 500.604 32.5888C499.85 32.3987 498.908 32.1514 498.283 31.9374C498.294 31.9422 498.305 31.9461 498.316 31.9511ZM502.313 27.3446C502.458 27.3891 502.612 27.4369 502.758 27.4853C503.056 27.5838 503.327 27.6812 503.639 27.8046C504.042 27.9618 504.457 28.1437 504.917 28.3954C505.437 28.6969 506.282 29.1318 507.296 30.3359C507.841 30.9896 508.398 31.9461 508.692 33.0683C508.77 33.0818 508.848 33.0959 508.926 33.1093C508.875 32.906 508.813 32.7087 508.738 32.5204C508.4 31.5303 507.89 30.7439 507.404 30.1669C506.966 29.6584 506.719 29.4458 506.402 29.1806C505.084 28.1713 504.64 28.098 504.078 27.8466C503.945 27.7944 503.815 27.7463 503.688 27.7021C503.567 27.6604 503.496 27.6391 503.403 27.6093C503.224 27.5529 503.049 27.5011 502.876 27.454C502.704 27.407 502.532 27.3629 502.361 27.3222C502.215 27.2881 502.093 27.2626 501.959 27.2343C502.08 27.2707 502.197 27.3077 502.313 27.3446ZM501.373 33.0712C501.428 33.0328 501.538 32.9999 501.636 32.9716C501.592 32.9184 501.55 32.8655 501.507 32.8153C501.382 32.7847 501.225 32.7444 501.045 32.7001C501.149 32.8124 501.261 32.9351 501.373 33.0712ZM498.94 25.0507C499.613 25.2523 500.548 25.4538 501.648 25.7196C501.947 25.7916 502.243 25.8665 502.538 25.9462C502.84 26.027 503.285 26.1522 503.673 26.2812C504.006 26.3913 504.656 26.6162 505.318 26.9423C505.494 27.0294 505.639 27.1039 505.869 27.2333C506.143 27.3884 506.437 27.5701 506.752 27.7958C507.067 28.0218 507.404 28.2922 507.757 28.6308C507.945 28.8137 508.075 28.9431 508.33 29.2353C508.6 29.5474 508.873 29.9073 509.13 30.3202C509.595 31.0108 509.969 31.9292 510.194 32.9267C510.287 32.9248 510.393 32.9291 510.51 32.9355C510.452 32.665 510.379 32.4028 510.289 32.1532C509.649 30.0817 508.252 28.6692 507.78 28.248C507.122 27.6471 506.534 27.2635 506.02 26.9667C505.281 26.5458 504.735 26.3223 504.195 26.12C503.81 25.9768 503.449 25.8613 503.094 25.7587C500.576 25.0739 499.278 24.9941 498.94 25.0507ZM498.424 32.5292C498.488 32.5643 498.555 32.6042 498.626 32.6474C498.786 32.6941 498.955 32.7428 499.13 32.7909C499.056 32.7348 498.985 32.6838 498.917 32.6376C498.682 32.5744 498.448 32.5062 498.241 32.4384C498.292 32.4636 498.353 32.4906 498.424 32.5292ZM499.428 30.7675C499.835 30.998 500.378 31.3397 501.04 31.956C501.198 32.1067 501.368 32.2789 501.545 32.4735C501.638 32.495 501.73 32.5153 501.821 32.536C501.493 32.1484 501.192 31.8556 500.974 31.6679C500.561 31.301 500.196 31.0419 499.887 30.8437C499.619 30.7671 499.369 30.6915 499.15 30.62C499.235 30.6629 499.328 30.7116 499.428 30.7675ZM499.021 31.1278C499.353 31.3069 499.801 31.5698 500.377 32.0566C500.436 32.1039 500.51 32.1687 500.598 32.2489C500.762 32.2888 500.93 32.3293 501.098 32.3691C500.686 31.9493 500.348 31.6873 500.201 31.579C500.089 31.494 499.979 31.4162 499.876 31.3456C499.484 31.2242 499.048 31.0878 498.706 30.9716C498.796 31.0131 498.899 31.0648 499.021 31.1278ZM498.092 31.0067C498.208 31.0828 498.547 31.2198 498.76 31.3192C498.901 31.3853 498.359 31.5744 498.497 31.6523C498.508 31.7096 499.201 31.9016 500.083 32.122C499.794 31.8853 499.569 31.7413 499.345 31.5956C499 31.3791 498.737 31.2543 498.62 31.2021C498.335 31.0739 498.175 31.0272 498.092 31.0067ZM498.254 30.539C498.361 30.615 498.721 30.7472 499.098 30.8808C498.939 30.7994 498.821 30.7455 498.752 30.7157C498.506 30.6103 498.346 30.5624 498.254 30.539ZM498.401 30.1142C498.481 30.1575 498.64 30.2137 498.852 30.2831C498.815 30.2674 498.781 30.2524 498.748 30.2392C498.59 30.1746 498.476 30.137 498.401 30.1142ZM496.584 27.8935C493.902 27.7445 500.375 28.6791 502.815 29.1737C500.618 28.4477 497.367 27.9635 496.584 27.8935ZM496.989 26.703C497.067 26.6168 497.076 26.4954 496.406 26.8202C496.129 27.0003 495.8 27.1019 495.141 27.7021C495.615 27.4928 496.022 27.3003 496.358 27.1191C496.661 26.9562 496.901 26.8041 496.989 26.703ZM104.937 25.4521C105.694 25.9109 106.532 26.4946 107.456 27.2909C107.687 27.3495 107.917 27.4101 108.147 27.4696C106.693 26.3735 105.679 25.8126 104.937 25.4521ZM497.974 26.1073C497.64 25.9848 490.871 25.3185 491.302 25.5663C491.739 25.6671 494.362 25.9293 496.381 26.1542C498.421 26.3768 500.107 26.5786 497.974 26.1073ZM480.583 25.9755C479.169 25.8237 475.009 25.4458 474.302 25.664C475.829 25.6962 479.955 26.1847 480.583 25.9755ZM477.428 25.0351C475.226 24.5612 474.682 25.5243 477.223 25.3769C477.322 25.3714 477.506 25.0609 477.428 25.0351ZM475.904 22.8866C472.142 24.0298 486.171 23.6084 487.832 24.9706C477.527 24.0277 485.708 25.227 488.851 25.3593C490.118 25.4143 490.592 25.2961 488.887 24.786C488.494 24.6628 487.974 24.5174 487.296 24.3466C487.905 24.445 488.435 24.5299 488.898 24.6044C495.294 25.6458 490.281 24.4129 491.563 24.3456C493.074 24.2556 498.21 25.1897 497.995 24.7821C497.993 24.7817 497.989 24.7816 497.987 24.7812C494.861 24.327 491.939 24.038 488.95 23.7655C488.837 23.7552 488.723 23.7445 488.609 23.7343C488.738 23.7875 488.849 23.8367 488.943 23.8817C489.616 24.1846 489.482 24.306 488.916 24.3046C487.771 24.3038 484.637 23.747 483.264 23.1474C482.388 23.2608 481.54 23.3804 480.66 23.5028C479.252 22.2441 478.675 24.0354 475.904 22.8866ZM465.11 24.0194C463.688 23.5406 462.024 24.4796 464.355 24.6044C465.044 24.6395 465.259 24.0735 465.11 24.0194ZM448.97 23.3817C444.751 22.7494 447.427 23.906 449.796 23.79C449.898 23.7788 449.075 23.3975 448.97 23.3817ZM473.825 23.2148C470.8 22.6695 472.177 23.9085 474.466 23.7431C474.598 23.7336 473.968 23.2401 473.825 23.2148ZM475.252 20.7841C476.034 20.6487 483.254 21.2196 489.066 21.9042C492.359 22.28 495.307 22.6995 496.291 22.8476C493.832 22.9814 492.059 22.4585 489.053 22.1151C488.857 22.0927 488.655 22.0718 488.447 22.0517C487.571 21.9682 487.789 22.2101 487.696 22.2011C486.157 22.0579 487.324 21.9191 486.367 21.8212C485.769 21.7105 473.442 21.0518 475.252 20.7841ZM406.061 21.2401C403.109 21.5262 412.201 21.8776 409.571 21.3778C409.437 21.3542 406.206 21.2274 406.061 21.2401ZM445.682 21.079C444.312 21.0672 440.546 20.6784 440.328 20.956C441.696 20.9639 445.469 21.3505 445.682 21.079ZM453.559 19.8544C455.826 20.1408 472.321 21.0863 473.088 21.0868C473.307 21.0736 473.474 20.7782 473.367 20.7587C472.536 20.5792 455.875 19.8023 453.559 19.8544ZM41.5412 20.3954C41.1129 20.488 40.7182 20.5821 40.384 20.6747C40.5792 20.7678 40.7823 20.87 40.9953 20.9804C41.4261 20.9097 41.871 20.8584 42.3195 20.8212C42.0477 20.6658 41.7883 20.5247 41.5412 20.3954ZM473.723 20.1786C475.546 19.6525 483.87 20.7854 478.162 20.6249C477.605 20.6095 475.324 20.152 473.723 20.1786ZM33.1047 20.039C32.7526 20.0309 32.8799 20.0747 33.0344 20.1044C33.3715 20.1672 34.0325 20.2196 34.6496 20.2431C34.5955 20.2327 34.543 20.2213 34.4924 20.2118C33.4205 20.0261 33.3238 20.0551 33.1047 20.039ZM444.51 19.1601C438.873 19.0702 449.684 19.9723 448.274 19.4843C448.169 19.4534 445.092 19.1693 444.51 19.1601ZM33.2453 17.8339C32.9757 17.8564 33.0497 17.9415 33.0285 18.0507C33.0371 18.231 32.9415 18.3417 33.0813 18.4276C33.1671 18.4734 33.3224 18.5097 33.7971 18.5937C34.1666 18.6589 34.7087 18.7366 35.8147 19.0107C36.0945 19.0813 36.4145 19.1675 36.7922 19.2802C36.9262 19.3236 37.0247 19.3529 37.135 19.3857C37.9794 19.3726 38.6709 19.3508 39.2258 19.3251C37.2572 18.5067 37.1874 18.6239 36.5588 18.411C36.4961 18.3942 36.4339 18.3808 36.3742 18.3651C34.5561 18.1519 33.1318 17.9367 33.2951 17.8564C33.2764 17.8493 33.2638 17.8408 33.257 17.8339C33.2531 17.8341 33.2491 17.8336 33.2453 17.8339ZM445.113 18.5038C444.828 18.4683 438.979 18.0566 438.864 18.286C439.726 18.4103 448.258 18.88 445.113 18.5038ZM442.522 17.6776C441.825 17.6812 440.741 17.962 440.816 17.9872C444.412 18.9157 455.261 17.9965 448.159 17.8857C448.017 17.8845 449.396 18.3855 446.635 18.1952C446.405 18.1797 445.99 17.6635 442.522 17.6776ZM459.265 17.7069C459.023 17.2423 465.715 17.903 467.484 17.955C465.945 18.1787 461.718 17.7968 459.265 17.7069ZM418.737 16.7909C419.08 17.0597 426.204 17.5135 426.542 17.4892C429.937 17.2347 419.278 16.7079 418.737 16.7909ZM415.025 14.9745C413.201 14.6083 418.768 14.599 420.42 14.9999C421.218 15.4994 415.257 15.0181 415.025 14.9745ZM39.8127 14.6689C42.2399 13.6842 36.2549 14.0986 35.1887 14.7499C34.678 15.059 38.7417 15.0945 39.8127 14.6689ZM327.518 8.57316C326.806 8.43179 327.271 6.59798 330.177 7.60148C330.557 7.73137 328.722 8.0492 329.031 8.1923C329.22 8.27676 335.596 9.13657 335.892 9.11808C336.211 9.09843 335.869 8.4738 336.194 8.43741C336.564 8.3994 340.446 9.27737 342.501 9.4628C346.352 9.8128 346.79 9.36384 347.105 9.39054C348.028 9.4674 349.552 9.93929 351.421 10.0917C355.399 10.4173 360.272 10.72 365.132 11.0478C371.718 11.4937 378.376 11.9912 382.709 12.7694C376.705 12.1018 370.971 12.0502 365.113 11.8173C364.426 11.7898 363.74 11.7604 363.057 11.7265C365.015 10.8975 353.351 11.7771 360.171 11.1474C357.055 11.2455 329.909 9.07029 327.526 8.57413C327.523 8.5739 327.52 8.57339 327.518 8.57316ZM66.7248 4.86222C68.594 4.82165 70.7236 5.39414 69.7522 5.69523C69.518 5.76703 65.7068 5.6998 63.8527 6.00187C58.3835 6.89386 59.8806 7.47133 59.5637 7.53312C59.2143 7.60166 55.6828 7.55795 53.8108 7.86124C49.0714 8.63457 47.0172 9.40918 40.3352 9.93351C44.0427 8.78859 41.7915 8.05612 46.0539 7.68937C45.7337 7.88809 45.3911 8.09185 45.0617 8.29288C50.994 6.96557 57.925 6.65389 64.7854 5.75968C66.5319 5.53479 64.4057 4.91268 66.7248 4.86222ZM75.6604 8.5546C75.3499 8.5328 71.7357 9.04629 71.9143 9.37394C73.2521 9.41673 77.7502 8.68357 75.6604 8.5546ZM317.862 8.62589C316.376 8.35855 309.957 7.82649 312.434 8.42276C312.822 8.51333 317.73 8.96166 317.862 8.62589ZM298.754 5.5712C294.492 5.91804 312.251 7.87316 307.621 6.63175C307.296 6.53586 299.144 5.53576 298.754 5.5712ZM290.159 6.14542C288.128 6.40653 294.51 7.37422 292.775 6.55851C292.681 6.52283 290.279 6.13101 290.159 6.14542ZM191.674 5.96964C188.719 5.29205 188.965 6.68849 191.101 6.61222C191.86 6.58452 191.767 5.99098 191.674 5.96964ZM172.783 6.16007C171.272 6.26859 167.324 6.09752 166.623 6.5087C168.507 6.42124 173.29 6.97072 172.783 6.16007ZM109.879 6.19132C109.803 5.71952 105.702 6.00394 106.265 6.29874C106.442 6.39569 109.956 6.56931 109.879 6.19132ZM192.589 5.74405C190.874 6.04454 193.903 6.97279 195.975 5.91886C194.902 6.03381 192.758 5.71464 192.589 5.74405ZM202.333 4.54776C201.105 4.52621 200.22 5.59236 200.362 5.63663C201.722 6.05438 203.574 4.90788 202.333 4.54776ZM237.424 3.93546C237.59 3.29569 231.176 3.71019 233.724 4.21378C234.364 4.33694 237.36 4.14568 237.424 3.93546ZM124.352 2.50577C124.581 2.48071 127.781 2.64697 127.89 2.68644C130.03 3.49572 119.448 3.04789 124.352 2.50577ZM264.632 2.42276C265.255 2.13716 268.729 2.59294 270.07 2.59562C269.839 2.98877 266.122 2.49046 264.631 2.48526C264.604 2.48513 264.577 2.48508 264.552 2.48526C264.566 2.46109 264.593 2.44077 264.632 2.42276ZM177.156 1.56534C186.343 1.46874 185.214 2.13542 177.178 2.28898C174.508 2.33249 171.037 2.30565 166.893 2.15128C166.852 1.61027 166.807 1.78282 168.282 1.74112C171.943 1.63704 174.888 1.58227 177.156 1.56534ZM197.89 1.42862C197.071 1.97878 194.42 1.89764 192.635 1.89835C192.937 1.52439 196.604 1.56136 197.89 1.42862ZM126.36 1.76163C125.789 0.918766 133.009 1.26766 133.562 1.45694C135.794 2.2083 126.958 1.57242 126.36 1.76163ZM210.134 1.25773C210.646 2.05401 204.935 1.62058 203.007 1.78312C202.495 0.981629 208.15 1.42218 210.134 1.25773ZM220.27 0.102452C220.421 0.0742041 223.733 0.0593098 223.888 0.0858506C226.634 0.622969 217.25 0.674257 220.27 0.102452ZM237.558 0.362218C238.859 -0.241634 242.593 0.0834677 245 0.12003C243.921 0.614464 239.591 0.368687 237.558 0.362218Z" fill="white"/>
</svg>
