<svg width="330" height="95" viewBox="0 0 330 95" fill="none" xmlns="http://www.w3.org/2000/svg">
<path d="M157.444 91.1359C157.656 91.21 157.61 92.5966 157.832 92.7267C157.956 92.7944 161.346 92.1643 161.786 92.2707C161.915 92.3026 162.014 92.3394 162.087 92.3693C161.561 91.9624 164.611 91.8673 164.537 92.3527C164.491 92.5452 162.399 92.5246 162.313 92.4933C162.28 92.4806 162.25 92.4617 162.222 92.4494C162.7 92.968 155.472 93.169 157.051 93.8957C154.947 94.3717 157.319 92.7488 155.741 93.1994C155.202 93.3512 154.727 94.9681 151.83 94.1887C151.827 94.1887 151.824 94.1886 151.822 94.1887C150.974 93.9594 151.929 93.5627 151.774 93.425C151.714 93.3706 149.084 92.591 151.259 92.4504C154.569 92.2209 151.592 93.6375 153.359 93.633C153.582 93.6356 156.873 92.7047 156.678 92.5148C156.658 92.4935 155.668 92.6991 155.501 92.6232C154.871 92.3394 155.162 91.8346 155.074 91.8127C154.795 91.769 149.529 92.6751 148.741 91.9201C148.512 91.7094 157.135 91.0483 157.444 91.1359ZM138.021 92.2121C138.228 92.1928 140.241 92.7472 141.333 92.7316C143.794 92.6951 145.053 92.3195 147.957 92.6965C148.33 92.7398 148.727 92.7924 149.151 92.8556C148.574 92.9784 148.212 93.1353 147.959 93.298C147.257 93.8017 147.489 94.3675 145.681 94.1115C145.882 93.9674 146.083 93.8231 146.284 93.6789C142.877 94.0155 138.897 93.288 134.879 93.2385C133.859 93.2247 135.031 94.1274 133.692 93.8654C132.619 93.655 131.431 92.813 132.016 92.6398C132.16 92.5972 134.347 93.1665 135.435 93.1252C138.645 93.0023 137.835 92.2315 138.021 92.2121ZM245.916 0.679864C249.513 -0.128496 259.059 -0.197362 263.649 0.3742C264.584 0.466178 269.02 1.41928 269.337 1.55291C269.934 1.78374 266.465 1.45211 267.967 1.92693C268.305 2.00118 275.801 3.18048 275.362 2.60369C274.541 2.42729 271.843 2.33951 271.433 2.16717C269.777 1.45824 276.708 2.31498 282.815 3.299C287.504 4.0279 292.242 4.97507 292.817 4.93084C292.322 4.64749 291.834 4.37034 291.344 4.0949C292.844 4.46421 294.37 4.85865 295.945 5.29607C295.254 5.30875 294.574 5.32782 293.9 5.35174C295.659 5.81588 298.171 6.26404 299.97 6.90252C300.262 7.00665 299.339 7.24803 300.041 7.45623C300.741 7.66742 300.808 7.01558 301.899 7.25408C303.066 7.49059 308.804 9.70438 312.701 12.0881C314.063 12.9 315.599 13.8466 317.699 15.7033C319.693 17.6145 322.76 20.2773 325.161 26.9025C326.669 30.8491 326.637 35.7448 325.84 39.8351C326.584 41.2112 327.349 42.8671 328.117 44.8888C329.675 49.0631 330.312 56.5024 328.301 62.3615C326.158 68.8258 323.13 72.1086 320.547 74.6398C316.836 78.0225 314.802 78.9238 312.95 79.926C305.779 83.3193 303.199 83.5382 299.92 84.4103C296.849 85.1114 294.16 85.5744 291.552 85.9484C294.647 83.5032 288.847 85.5747 288.632 85.4972C287.254 85.1925 293.208 84.0998 290.804 84.1574C287.487 84.7516 284.328 85.2397 281.228 85.6857C283.797 85.6037 277.98 87.7309 276.878 87.2082C277.399 88.9238 263.05 87.1418 261.056 87.8635C260.633 88.0253 263.519 88.638 256.893 88.8361C256.182 88.8552 256.419 88.2995 256.048 88.382C255.824 88.4326 254.57 90.2439 253.093 89.4357C252.624 89.177 255.041 88.0734 250.84 88.5217C250.142 88.5921 249.279 88.6936 248.233 88.8283C251.569 90.3745 236.886 90.4934 234.414 90.0344C234.931 90.2548 235.454 90.4738 235.976 90.6916C233.401 90.1421 232.955 90.7458 232.38 90.7306C230.07 90.6638 226.949 90.1164 224.863 90.2004C222.425 90.2974 222.402 91.4022 219.602 91.0031C220.263 91.2403 220.928 91.4775 221.594 91.7131C219.648 91.6784 217.724 91.6379 215.821 91.5978C220.259 90.087 214.862 91.5369 214.52 91.5724C213.961 91.6311 214.769 91.0219 213.834 91.1056C213.738 91.1202 213.867 91.6851 212.434 91.7638C209.45 91.9276 209.933 91.2085 208.691 91.2316C208.581 91.2389 208.963 91.7428 206.844 91.8947C200.166 92.3949 206.851 91.4992 207.136 91.4269C207.486 91.3308 205.135 89.2106 210.934 89.9054C208.981 89.6845 208.795 88.7405 208.575 88.7189C208.374 88.7004 205.035 88.8787 204.857 88.9162C203.232 89.2657 204.663 89.8901 204.347 90.0119C204.08 90.1069 200.123 89.3428 199.253 91.3283C197.373 89.5782 200.277 89.6494 203.463 89.3156C203.921 88.9359 200.436 88.6462 200.259 88.6545C195.823 88.7767 198.309 90.1987 197.364 91.176C197.163 91.3851 196.744 91.3497 196.434 91.3224C196.038 91.2878 195.817 91.2656 196.445 91.7756C196.529 91.8443 196.629 91.9234 196.746 92.0129C196.643 92.0201 196.545 92.0266 196.451 92.0324C192.924 92.2579 195.163 91.4374 194.917 91.3342C194.524 91.1808 193.142 91.6218 192.963 91.5793C192.704 91.515 193.583 91.0135 192.562 90.8957C192.39 90.881 190.786 91.7496 192.906 92.0334C190.084 92.049 190.335 92.721 189.313 91.4025C187.455 94.0897 187.809 89.9509 187.018 89.8459C184.908 89.5785 185.608 91.5724 185.505 91.6818C184.793 92.3547 178.853 92.0092 177.347 92.3937C177.866 90.8935 182.096 92.0926 182.983 91.757C185.987 90.6336 178.628 91.2789 180.751 89.3088C179.839 89.8695 178.922 90.4313 178.001 90.9933C176.182 89.9139 178.66 89.2516 173.933 89.9621C173.217 91.0286 177.282 89.6041 176.497 90.4572C176.041 90.958 173.287 91.2212 173.241 91.4728C173.209 91.775 175.683 91.2755 175.315 91.759C174.549 92.8096 165.22 92.3691 172.243 91.4396C170.542 91.5498 169.467 90.1078 168.106 90.1935C167.902 90.2064 167.691 90.2534 167.47 90.3449C167.061 90.5155 167.702 90.961 168.171 91.4494C168.572 91.8674 168.848 92.3176 168.232 92.6564C167.64 92.9791 166.24 93.2064 163.29 93.1769C163.052 92.2552 167.091 92.7283 167.195 92.6506C167.335 92.5399 166.51 90.4665 166.38 90.3674C165.969 90.0668 156.156 91.5759 153.958 90.5138C154.555 91.342 150.74 91.1976 147.954 91.0871C146.81 91.0394 145.858 91.0163 145.593 91.131C145.369 91.2329 146.213 91.9831 145.972 92.0607C144.469 92.5227 140.365 91.1663 138.443 91.1125C136.295 91.0525 136.564 91.6958 136.444 91.6935C135.496 91.6465 136.254 91.2207 135.673 91.215C134.805 91.2123 128.742 91.0222 128.423 91.0998C128.336 91.1279 129.323 91.8788 127.991 91.9885C127.757 92.0036 127.921 91.1527 123.948 91.4181C119.142 91.724 127.263 92.5903 125.258 93.4377C122.196 92.0616 122.27 93.3356 121.432 93.2082C121.141 93.1609 118.994 92.0045 116.616 91.9679C118.328 91.8678 120.027 91.7565 121.715 91.6359C120.066 91.3944 116.818 91.4999 115.437 91.2179C114.763 91.0815 115.346 90.2222 113.88 90.174C113.564 90.1669 112.261 92.2719 116.139 91.4846C116.426 92.271 114.608 91.6852 113.75 91.8586C113.619 91.8901 113.06 93.1464 111.997 92.2863C111.731 92.0612 114.779 88.5188 107.228 90.7512C106.984 90.8219 107.796 91.3477 107.557 91.4289C107.392 91.4845 105.483 91.1562 105.265 91.2043C105.044 91.2593 105.945 91.8405 105.68 91.9211C104.322 92.3353 102.687 90.1713 105.423 90.5422C104.529 90.2225 103.619 89.8984 102.715 89.5695C103.604 91.1759 101.239 89.8745 99.9381 89.7912C91.5364 89.1925 97.0464 90.7738 95.5543 91.1262C93.0902 91.6446 95.1936 89.3123 91.5406 89.6008C91.2682 89.6217 93.9355 90.7251 90.6403 90.217C89.7445 90.076 88.4901 89.834 86.6207 89.3722C88.0076 89.5816 89.3369 89.7544 90.6793 89.9074C90.7111 89.911 90.7432 89.9146 90.775 89.9181C90.7544 89.8591 90.7289 89.8031 90.6988 89.7512C89.8835 88.45 85.7758 89.2062 85.4283 89.1408C81.4954 88.5135 84.3422 88.7046 78.1315 87.8654C77.5744 87.7799 76.4751 87.0935 75.2379 86.883C70.1315 86.0396 81.5851 89.2911 81.6881 89.7238C81.896 90.2968 69.4511 86.3887 69.3414 85.925C67.8377 84.7209 74.7439 87.6812 73.649 86.4543C73.5213 86.3001 68.613 84.5798 65.4166 83.1349C62.2077 81.7238 61.1179 81.301 60.5406 80.925C59.8614 80.4357 59.5106 79.4872 59.1998 79.2883C59.0324 79.1699 58.8723 79.353 58.6803 80.1652C58.7382 77.9844 57.9772 79.2642 57.7477 79.1887C54.7897 78.2363 54.6079 78.2047 51.4342 77.7463C50.719 77.6442 50.1874 76.8996 49.9156 76.9543C49.7559 76.9898 49.9385 77.7089 49.1656 77.7678C48.1524 77.8483 41.7056 75.9274 41.1988 75.4592C40.7564 75.0033 44.0553 75.837 43.5426 75.1252C41.1632 74.6168 38.7844 74.3219 36.2155 73.7463C35.1448 73.5035 35.7599 73.201 35.2936 73.0988C35.1296 73.0687 31.1868 72.6125 31.3053 72.7853C31.8702 73.3319 43.1296 75.2776 40.0592 75.4269C39.4885 75.4619 37.6219 74.1165 37.7662 75.34C34.6846 74.6473 31.5242 73.9297 27.8424 72.9494C25.9683 72.4425 24.0218 71.9062 21.3932 71.0012C20.0729 70.5338 18.541 69.9931 16.3287 68.9435C15.1338 68.3622 13.8126 67.7057 11.8453 66.3791C9.94084 64.9363 6.8484 63.1976 3.19494 56.9963C0.209694 52.1699 -1.27512 42.8922 1.3844 36.0881C3.61902 29.9618 6.75472 27.0686 8.51135 25.4123C12.3663 22.1048 14.0643 21.5712 15.6988 20.7443C18.6413 19.4465 20.2304 19.0675 21.8082 18.6408C24.7743 17.8981 26.9851 17.5534 29.1227 17.2228C27.1605 17.8403 25.0343 18.3256 22.1266 19.1183C20.5879 19.5654 19.0333 19.9467 16.1696 21.1896C14.5576 21.9874 12.8982 22.5175 9.18615 25.6174C8.18925 26.5022 7.23456 27.4119 5.96447 28.9992C4.6225 30.7003 3.20055 32.9221 2.11389 35.8293C-0.664012 42.4628 0.709705 51.897 3.7135 56.7062C9.29138 65.4723 12.2945 65.7148 14.4918 67.3322C16.5151 68.4635 17.9242 69.0475 19.1588 69.5471C21.537 70.4839 23.1241 70.9541 24.6754 71.381C25.9126 71.7343 29.2093 72.6499 28.9117 71.9728C27.1244 71.4974 25.1622 71.0154 22.4947 70.1867C21.128 69.7489 19.6692 69.2853 17.4127 68.298C16.2317 67.7613 15.0034 67.2095 12.9449 65.9064C11.1484 64.5784 7.93772 63.0515 4.03967 56.5236C2.41617 53.6227 1.06658 49.7549 0.922482 45.3244C0.697963 40.8763 2.14689 36.0892 3.47815 33.5597C6.62903 27.6619 9.10241 26.1621 10.9274 24.631C14.2791 22.1947 16.0005 21.625 17.3512 21.0383C20.0779 19.9719 21.684 19.6345 23.1178 19.3351C23.3454 19.2906 22.6621 19.9865 23.525 19.8517C25.2068 19.5566 29.0569 18.0084 29.7174 18.1203C29.8397 18.1457 27.76 19.1951 28.5338 19.4826C29.6777 19.908 30.1243 19.2809 30.5729 18.6398C30.5964 18.5751 30.6191 18.5094 30.6432 18.4455C31.8172 15.2915 33.1227 13.5014 34.1315 12.1877C35.058 11.0234 35.5804 10.5232 35.7438 10.339C37.0636 8.97182 35.0451 10.0915 36.3951 8.7365C37.3443 7.69585 41.2817 5.13136 43.8112 4.34686C46.3167 3.4555 48.274 3.15155 49.3356 2.9201C51.467 2.47393 52.1758 2.30642 52.8287 2.09002C53.3939 1.89 53.5352 1.74195 53.6744 1.72381C54.4652 1.62517 55.7813 1.82726 57.2662 1.71893C64.7009 1.13104 74.1854 1.35804 78.9508 2.67791C74.6859 1.97486 70.5133 2.13522 65.9352 2.22283C67.2706 1.22589 59.0387 3.03241 63.8629 1.84783C62.8316 1.98417 58.555 2.01954 52.9625 2.81561C51.0472 3.11939 49.1384 3.4031 46.1207 4.37322C44.4869 4.95373 42.7829 5.48273 39.7565 7.43768C38.3755 8.36044 36.3288 9.91552 34.3737 12.4094C33.2227 13.8408 32.1105 15.7285 31.2584 17.8498C31.4187 17.7321 31.6027 17.6475 31.8229 17.6164C31.9255 17.6011 32.0704 17.59 32.2496 17.5783C33.9016 13.8827 36.2962 11.1008 37.7731 9.95428C43.3162 5.54286 45.0777 5.73016 47.0113 4.94842C50.4245 3.96162 51.9435 3.83301 53.1071 3.59881C53.4208 3.54269 53.6612 3.49581 53.817 3.45721C53.575 3.47149 53.3321 3.48718 53.0895 3.50408C50.8588 3.75885 48.9309 3.70484 44.692 5.19939C48.9646 3.67998 50.9685 3.50641 53.0172 3.1115C55.5051 2.72405 57.2727 2.67243 57.5914 3.48846C73.5721 2.70766 86.2358 4.67202 99.2526 6.02947C101.543 6.38126 100.27 7.07021 104.03 7.21502C103.069 6.85937 102.105 6.49929 101.139 6.13494C103.083 6.53505 111.524 7.73951 112.861 7.69158C113.036 7.68593 113.29 7.01604 115.363 7.15447C117.198 7.27472 117.488 7.80729 118.466 7.98553C119.291 8.13312 120.196 8.07323 120.442 8.11932C120.629 8.15558 120.707 8.46686 121.154 8.55193C122.563 8.81301 121.402 7.88543 122.819 8.9533C122.479 8.96895 122.139 8.98459 121.802 8.9992C122.801 9.15059 124.02 9.40589 124.337 9.60467C124.442 9.66763 124.456 9.72548 124.341 9.77361C124.208 9.83149 123.896 9.87578 123.336 9.89373C122.907 9.90713 123.269 9.63754 122.949 9.61932C110.717 8.81907 119.783 10.0515 124.345 9.90545C124.512 9.90051 124.674 9.89384 124.829 9.88592C125.995 10.379 132.519 10.3505 132.749 10.4299C133.056 10.5528 131.951 10.8488 133.436 11.1623C133.744 11.2401 142.571 11.158 139.416 11.6232C138.76 11.7246 134.519 11.5509 133.506 11.5412C135.941 12.4339 141.52 11.295 142.164 11.3429C144.742 11.4878 137.27 12.0038 143.067 12.134C147.535 12.2223 143.311 11.6784 145.012 11.465C145.965 11.3547 151.08 11.9421 150.901 11.2297C152.644 11.172 151.647 11.5352 151.864 11.5646C152.075 11.5877 155.508 11.4113 156.642 11.5695C156.779 11.5885 156.375 11.9385 156.517 11.9689C156.796 12.0185 160.114 11.9794 160.26 11.9543C160.345 11.9356 159.53 11.6245 159.852 11.5558C160.229 11.476 163.452 11.6036 163.63 11.5265C163.87 11.4041 159.899 11.4103 160.541 11.09C162.379 11.2077 165.361 11.0645 166.567 10.8556C166.27 10.917 164.487 10.8723 163.866 10.8293C164.131 10.3581 167.97 10.5105 166.677 10.8273C167.501 10.661 166.927 10.5362 167.387 10.3703C167.509 10.3283 168.692 10.369 168.921 10.3019C168.949 10.2879 167.718 10.0606 167.957 9.97869C168.391 9.82751 172.001 10.0554 172.301 10.1174C173.138 10.2809 170.202 10.2667 169.964 10.4484C169.958 10.4808 172.438 10.959 172.486 10.9933C172.642 11.3393 169.857 10.9721 170.188 11.301C170.879 11.3939 171.566 11.4867 172.256 11.5803C169.62 11.7795 164.728 11.4877 163.495 11.8537C167.394 11.8053 171.501 11.972 171.525 12.7726C171.536 13.1086 169.865 13.2759 169.929 13.3664C170.192 13.6815 172.512 13.3891 172.604 13.4103C172.676 13.4305 172.71 13.4494 172.711 13.467C172.708 13.6405 169.39 13.7168 169.227 13.8039C168.958 13.9533 170.461 14.5791 170.467 14.7131C170.407 14.7379 168.061 14.8837 168.869 15.1232C169.689 15.3611 171.749 15.3631 171.828 15.3888C172.229 15.5248 168.621 15.67 168.517 15.7619C168.473 15.8072 170.414 16.0521 170.473 16.1262C170.52 16.2005 169.058 16.3829 168.493 16.6379C168.073 16.8271 169.333 16.9393 169.115 16.9719C168.954 16.991 165.558 17.0724 165.391 17.1125C165.146 17.1684 165.952 17.3674 165.839 17.426C165.677 17.51 164.579 17.4661 164.726 17.5441C164.844 17.6067 169.124 18.2171 169.107 18.4113C169.071 18.7448 164.548 18.1552 168.791 19.3195C168.82 19.3265 169.82 19.189 169.861 19.1945C170.242 19.3214 169.243 19.5609 169.22 19.6799C170.456 19.62 171.7 19.5646 172.955 19.5138C175.99 19.3911 179.034 19.2406 182.082 19.0832C181.692 19.081 181.381 19.0636 181.197 19.0197C182.477 18.7955 185.314 18.8241 186.48 18.6584C186.614 18.6373 185.831 17.8836 187.616 18.3137C188.292 18.4841 186.565 18.7723 184.709 18.9445C186.102 18.8705 187.497 18.7991 188.891 18.7238C189.317 18.5795 189.618 18.361 189.824 18.0148C186.101 17.7057 181.67 18.7562 180.547 18.8156C178.829 18.9257 180.598 18.5963 180.382 18.5412C180.304 18.5247 178.831 18.6259 178.807 18.6086C177.712 17.8073 185.395 18.2048 187.797 17.9054C187.144 17.8045 186.491 17.7059 185.838 17.6096C186.713 17.5471 187.589 17.4831 188.463 17.4201C184.28 17.4115 188.309 17.3304 189.308 16.4816C189.532 16.2901 186.81 16.7928 189.908 16.0763C187.598 16.1401 188.324 15.9316 186.251 16.3049C186.29 16.0045 190.961 15.2779 192.807 14.9582C186.245 15.1573 190.034 15.9714 184.354 15.8439C183.329 16.2932 186.015 16.0089 185.802 16.0871C185.024 16.365 183.159 16.179 180.967 17.0812C180.612 17.2264 182.165 17.4989 179.89 17.6301C179.638 17.6426 178.195 17.4279 178.194 17.4025C178.375 17.1477 179.807 17.1382 179.866 17.0314C179.916 16.9308 178.345 17.0989 178.314 17.0754C178.25 16.7744 179.64 16.8619 179.436 16.7804C178.991 16.5931 173.218 16.4007 180.721 15.9943C174.513 16.8325 179.941 16.4054 182.361 16.0744C182.978 15.9902 183.125 15.7873 184.003 15.6467C185.132 15.4646 186.466 15.4451 187.052 15.3596C187.682 15.2632 184.066 15.1124 189.268 14.7951C186.597 14.5618 181.961 15.4692 179.357 15.3801C174.111 15.2393 182.956 14.3001 183.88 14.133C184.124 14.0915 183.288 13.9141 183.45 13.882C183.717 13.8298 188.758 13.4479 189.248 13.1721C189.73 12.8965 187.401 13.3699 187.232 13.1554C187.116 13.0156 193.191 12.0828 189.888 12.3263C187.611 12.5065 183.469 13.5608 182.733 12.9885C186.056 12.5716 189.388 12.1416 192.734 11.7179C190.887 11.6499 189.044 11.5977 187.206 11.5578C190.943 11.0285 194.208 10.9597 197.775 10.1642C189.137 10.2823 200.492 9.12241 200.666 9.00115C200.704 8.92343 197.267 8.59452 196.715 8.53924C199.691 7.87104 208.935 6.63245 203.488 6.33904C204.473 6.42862 206.831 5.61676 206.81 5.57537C206.485 5.18113 201.31 6.12094 202.139 5.64275C203.099 5.07962 204.498 5.48466 206.01 5.25115C213.807 4.08336 211.587 1.98652 219.617 1.52166C219.456 1.45141 219.295 1.38119 219.134 1.3117C223.559 0.942776 228.053 0.684085 232.617 0.585137C237.034 0.485452 241.469 0.513636 245.916 0.679864ZM92.8287 91.8303C91.373 90.8936 97.4218 92.2866 97.8131 92.1193C98.1343 93.0116 93.221 92.087 92.8287 91.8303ZM96.8688 91.0842C95.528 90.1305 102.537 91.3265 99.2291 91.5236C99.0755 91.5346 96.9405 91.1341 96.8688 91.0842ZM185.857 89.4054C185.179 89.31 181.379 89.8812 181.25 89.9826C180.283 90.8572 185.48 90.3688 185.857 89.4054ZM162.751 89.0353C159.956 89.2224 163.148 90.0804 159.363 89.5236C160.896 90.3724 163.427 90.1797 162.751 89.0353ZM174.541 89.7082C176.25 89.4975 177.908 87.1219 175.812 87.5988C175.588 87.6537 174.327 89.4051 174.541 89.7082ZM167.098 89.1984C168.742 88.5505 165.136 88.2635 165.498 88.9933C165.549 89.0325 167.03 89.2253 167.098 89.1984ZM152.672 89.0187C153 88.8047 150.627 88.0431 149.943 88.2814C148.384 88.8315 152.014 89.4563 152.672 89.0187ZM131.059 88.7131C130.282 88.4955 127.652 88.6793 128.836 89.0607C129.022 89.1172 131.134 89.0586 131.059 88.7131ZM111.08 88.8146C110.975 88.7083 108.807 88.3426 108.827 88.7238C108.853 89.1988 111.407 89.1389 111.08 88.8146ZM297.407 84.4816C297.371 84.1448 293.753 84.5968 293.497 85.2404C294.173 85.1059 297.361 84.72 297.407 84.4816ZM59.6354 81.2892C59.786 81.2011 60.2985 81.2412 61.0905 81.5197C61.9459 81.8204 62.8574 82.2901 65.8639 83.8615C65.6837 84.3719 65.7431 84.2132 64.8717 83.8605C61.6048 82.5275 61.0877 82.3017 60.3473 81.9289C59.7177 81.604 59.4846 81.3806 59.6354 81.2892ZM308.331 81.3596C311.216 79.9809 307.913 81.1712 305.693 81.8107C303.404 82.4927 301.632 83.0213 303.416 82.8547C303.506 82.8441 304.512 82.5949 305.672 82.2482C306.813 81.914 308.187 81.4273 308.331 81.3596ZM53.942 79.8752C54.4641 79.4512 55.7499 79.9033 56.5133 80.1418C56.3242 80.4669 54.6363 79.9276 53.942 79.8752ZM67.7545 79.9357C66.4192 79.4353 64.4856 77.9138 64.441 78.7892C65.0235 78.9446 67.085 80.0912 67.7545 79.9357ZM47.4186 78.3273C47.2847 77.4728 50.3425 78.6972 51.3756 78.8097C51.5146 79.6684 48.5574 78.4403 47.4186 78.3273ZM39.3678 77.5988C37.8588 76.6989 43.3403 77.9178 41.483 78.0715C41.394 78.0783 39.4561 77.6453 39.3678 77.5988ZM58.2057 75.7521C57.874 75.676 57.7797 76.2635 57.816 76.301C58.9248 77.3632 59.1349 75.9716 58.2057 75.7521ZM57.3551 76.3928C58.1986 76.339 57.0416 75.0119 55.7819 75.7472C56.3448 75.7875 57.2654 76.3954 57.3551 76.3928ZM53.4879 75.4025C52.8699 74.8016 51.6448 75.6602 52.2477 76.1906C52.9001 76.3863 53.5495 75.4674 53.4879 75.4025ZM25.525 74.4054C26.5384 74.1593 29.608 75.1283 30.9332 75.4269C29.9544 75.8258 27.4596 74.9325 25.525 74.4054ZM286.937 74.1769C287.704 74.6737 287.951 74.7817 288.176 74.8879C288.38 74.9775 288.446 74.9801 288.487 74.966C288.527 74.9455 288.559 74.9239 288.585 74.9035C288.577 74.9005 288.568 74.8981 288.559 74.8947C288.317 74.8007 287.828 74.5571 287.213 74.2619C287.061 74.1883 286.9 74.112 286.735 74.0334C286.805 74.0817 286.873 74.1277 286.937 74.1769ZM288.047 72.9719C289.227 73.6561 289.247 73.5349 289.343 73.4699C289.348 73.445 289.351 73.4219 289.356 73.4015C289.267 73.3557 289.107 73.284 288.847 73.1838C288.578 73.0796 288.213 72.9523 287.81 72.8224C287.896 72.8766 287.974 72.9271 288.047 72.9719ZM286.773 72.5119C285.181 72.0756 283.899 71.9083 285.565 73.1017C285.743 73.2312 286.002 73.2569 286.273 73.2414C286.211 73.1963 286.169 73.1641 286.153 73.1496C286.07 73.0636 286.417 73.152 286.697 73.1349C286.989 73.1277 287.265 73.0564 287.263 72.8517C287.252 72.7766 287.232 72.7135 287.172 72.6262C287.039 72.5873 286.906 72.5482 286.773 72.5119ZM34.1373 72.1994C33.7642 71.9911 31.8085 71.7486 31.7174 71.9426C31.5127 72.5539 35.6643 73.0536 34.1373 72.1994ZM157.117 30.3068C156.463 30.3068 155.787 30.494 155.087 30.8674C154.387 31.194 153.827 31.6375 153.407 32.1974C152.987 32.7574 152.59 33.4336 152.216 34.2267C151.843 34.9734 151.493 35.7903 151.167 36.6769C150.887 37.5635 150.653 38.4269 150.466 39.2668C150.28 40.1066 150.093 40.9701 149.907 41.8566C149.72 42.6966 149.51 43.6071 149.277 44.5871C149.044 45.567 148.834 46.4303 148.647 47.1769C148.507 47.8769 148.344 48.6238 148.157 49.4172C148.017 50.2104 147.853 51.0502 147.667 51.9367C147.48 52.7767 147.27 53.7571 147.037 54.8771C146.85 55.9971 146.687 56.9539 146.547 57.7472L146.46 58.0929C146.032 58.0708 145.641 58.0497 145.287 58.0275L144.167 57.9572C144.161 57.9582 144.045 57.9819 143.817 58.0275C143.63 58.0275 143.443 58.0738 143.256 58.1672C143.07 58.2138 142.883 58.2839 142.697 58.3771C142.634 58.4194 142.57 58.471 142.506 58.5324C142.371 58.5529 142.224 58.5946 142.067 58.6574C141.88 58.7041 141.693 58.774 141.506 58.8674C141.367 58.9607 141.226 59.0771 141.087 59.217C140.947 59.357 140.83 59.5206 140.737 59.7072C140.644 59.8938 140.55 60.0802 140.457 60.2668C140.41 60.4533 140.386 60.6635 140.386 60.8967C140.386 61.0833 140.41 61.2942 140.457 61.5275C140.503 61.7143 140.597 62.0643 140.737 62.5773C140.924 63.0439 141.157 63.6502 141.437 64.3967C141.717 65.0965 141.997 65.75 142.277 66.3566C142.416 66.657 142.519 66.8837 142.589 67.0353C142.636 67.1653 142.696 67.2894 142.767 67.4074L142.801 67.4416L142.907 67.6174C143.047 67.7577 143.201 67.8843 143.368 67.9982C143.588 68.169 143.807 68.299 144.027 68.3869C144.307 68.4802 144.563 68.5275 144.797 68.5275C144.833 68.5275 144.869 68.5242 144.906 68.5226C144.964 68.5253 145.021 68.5275 145.077 68.5275C145.357 68.4809 145.613 68.4108 145.846 68.3176C146.126 68.2242 146.36 68.0833 146.547 67.8967C146.762 67.7245 146.914 67.5314 147.01 67.3195C147.114 67.1636 147.185 67.0077 147.226 66.8517C147.249 66.7848 147.268 66.7167 147.285 66.6467C147.307 66.5672 147.326 66.4879 147.34 66.4084C147.411 66.1623 147.428 65.9355 147.386 65.7267C147.38 65.687 147.369 65.6483 147.361 65.6096C147.338 65.4539 147.302 65.3062 147.247 65.1672C147.153 64.8872 147.013 64.56 146.827 64.1867C146.69 63.9132 146.53 63.5636 146.343 63.1398C146.789 63.1619 147.278 63.1851 147.807 63.2072C148.927 63.2539 149.883 63.2775 150.676 63.2775C151.47 63.2775 152.31 63.3002 153.197 63.3469C154.083 63.3469 154.947 63.3242 155.787 63.2775C156.673 63.2309 157.56 63.1836 158.447 63.1369C159.334 63.0436 160.127 62.9972 160.827 62.9972C161.573 62.9506 162.297 62.9269 162.997 62.9269C163.697 62.8803 164.444 62.8566 165.237 62.8566C166.077 62.8566 166.847 62.9039 167.547 62.9972C168.293 63.0439 168.457 63.4873 168.037 64.3273C167.663 65.1205 167.43 65.6104 167.337 65.7971C167.243 65.9837 167.197 66.0773 167.197 66.0773C167.196 66.0832 167.172 66.2233 167.127 66.4972C167.126 66.5028 167.125 66.5083 167.124 66.5138C167.08 66.6839 167.057 66.8648 167.057 67.0568C167.057 67.0844 167.059 67.1126 167.06 67.1408C167.058 67.2062 167.057 67.2717 167.057 67.3371C167.104 67.5703 167.174 67.8268 167.267 68.1066C167.338 68.2254 167.415 68.3388 167.499 68.4455C167.514 68.4727 167.53 68.5003 167.547 68.5275C167.727 68.7537 167.931 68.935 168.156 69.0734C168.23 69.1268 168.306 69.1788 168.386 69.2267C168.575 69.34 168.78 69.4207 169 69.4728C169.233 69.5407 169.448 69.5773 169.647 69.5773C169.806 69.5509 169.957 69.5153 170.1 69.4738C170.314 69.4292 170.513 69.3708 170.697 69.2971C170.977 69.1571 171.21 68.9935 171.397 68.8068C171.584 68.5736 171.724 68.3398 171.817 68.1066C171.89 67.9846 171.942 67.8557 171.977 67.7209C172.056 67.5489 172.143 67.3515 172.237 67.1271C172.517 66.5205 172.75 65.8672 172.937 65.1672C173.17 64.4206 173.287 63.6972 173.287 62.9972C173.333 62.2506 173.217 61.55 172.937 60.8967C172.657 60.1968 172.236 59.6369 171.676 59.217C171.163 58.7505 170.557 58.4468 169.857 58.3068C169.204 58.1202 168.48 58.0039 167.687 57.9572C167.478 57.9326 167.266 57.9109 167.053 57.8928C167.044 57.6017 166.976 57.1098 166.846 56.4172C166.753 55.6238 166.66 54.8533 166.567 54.1066C166.474 53.3135 166.356 52.4972 166.216 51.6574C166.123 50.7707 166.03 50.0002 165.937 49.3469C165.844 48.6469 165.727 47.8536 165.587 46.967C165.493 46.0804 165.377 45.287 165.237 44.5871C165.144 43.8872 165.026 43.1874 164.886 42.4875C164.746 41.7875 164.606 41.1105 164.466 40.4572C164.373 39.7573 164.257 39.0339 164.117 38.2873C163.977 37.5407 163.791 36.8173 163.557 36.1174C163.371 35.4174 163.09 34.6941 162.716 33.9474C162.343 33.1541 161.83 32.4772 161.176 31.9172C160.523 31.3107 159.847 30.8907 159.147 30.6574C158.494 30.4241 157.817 30.3068 157.117 30.3068ZM290.449 68.6701C290.565 68.9518 290.75 69.214 290.957 69.1037C290.974 69.0959 290.987 69.0841 291.001 69.0734C290.837 68.994 290.664 68.8897 290.621 68.8498C290.55 68.7847 290.493 68.7241 290.449 68.6701ZM290.345 68.1154C290.309 68.1129 290.319 68.2334 290.359 68.3928C290.384 68.3698 290.428 68.359 290.492 68.3615C290.582 68.3608 290.708 68.3805 290.842 68.4045C290.707 68.2533 290.528 68.1334 290.345 68.1154ZM291.414 66.3791C291.517 66.5141 291.56 66.6101 291.574 66.7023C291.601 66.9054 291.479 67.0468 291.185 67.0197C291.126 67.0143 291.056 66.9966 290.969 66.966C290.852 67.131 290.81 67.346 291.454 67.5558C291.503 67.315 292.247 66.9397 292.182 66.8263C292.161 66.7434 291.872 66.5757 291.414 66.3791ZM289.196 65.6496C288.395 65.456 287.778 65.4042 288.003 65.7424C288.17 65.9466 289.238 66.2281 290.078 66.4367C289.856 66.2701 289.586 66.0423 289.196 65.6496ZM190.505 33.8771C189.899 33.4105 189.128 33.2942 188.195 33.5275C187.262 33.7142 186.562 34.134 186.095 34.7873C185.629 35.4406 185.232 36.0939 184.905 36.7472C184.625 37.4005 184.345 38.1003 184.065 38.8469C183.785 39.5468 183.505 40.2702 183.225 41.0168C182.945 41.7634 182.665 42.5104 182.385 43.257C182.152 43.957 181.895 44.6803 181.615 45.4269C181.382 46.1736 181.102 46.9441 180.775 47.7375C180.448 48.5307 180.168 49.2542 179.935 49.9074C179.702 50.514 179.468 51.1438 179.235 51.7971C179.002 52.4037 178.768 53.0807 178.535 53.8273C178.302 54.5271 178.045 55.2035 177.765 55.8566C177.532 56.51 177.228 57.2805 176.855 58.1672C176.528 59.0538 176.249 59.8008 176.015 60.4074L175.595 61.3869C175.595 61.3869 175.572 61.4805 175.525 61.6672C175.478 61.8538 175.455 62.0638 175.455 62.2971C175.455 62.4836 175.478 62.6701 175.525 62.8566C175.572 63.0433 175.642 63.2305 175.735 63.4172C175.828 63.6038 175.922 63.7902 176.015 63.9767L176.435 64.3967C176.622 64.4899 176.808 64.5837 176.995 64.6769C177.181 64.7236 177.369 64.7709 177.555 64.8176H178.185C178.418 64.7709 178.628 64.7236 178.815 64.6769C179.002 64.5836 179.165 64.49 179.305 64.3967C179.492 64.3034 179.656 64.187 179.796 64.0471C179.935 63.8605 180.052 63.6968 180.145 63.5568C180.238 63.3701 180.402 62.9737 180.635 62.3674C180.915 61.7141 181.242 60.9206 181.615 59.9875C181.988 59.0541 182.292 58.26 182.525 57.6066C182.758 56.9534 183.016 56.2299 183.296 55.4367C183.327 55.3422 183.357 55.2482 183.388 55.1554C183.404 55.1558 183.42 55.1574 183.435 55.1574C183.668 55.1574 183.995 55.1337 184.415 55.0871C184.881 55.0404 185.488 54.9941 186.235 54.9474C186.982 54.8541 187.705 54.7841 188.405 54.7375C189.105 54.6441 189.782 54.5742 190.435 54.5275C191.135 54.4809 191.882 54.4109 192.675 54.3176C193.515 54.2242 193.935 54.1769 193.935 54.1769L194.08 54.1183C194.358 54.7688 194.636 55.4887 194.915 56.2775C195.195 57.0241 195.428 57.7475 195.615 58.4474C195.848 59.1474 196.082 59.8708 196.315 60.6174C196.595 61.3172 196.875 62.0871 197.155 62.9269C197.482 63.7203 197.645 64.1174 197.645 64.1174C197.647 64.12 197.665 64.1509 197.701 64.2101C197.706 64.2256 197.71 64.2414 197.715 64.257C197.765 64.34 197.819 64.4192 197.875 64.4963C198.012 64.7175 198.192 64.9183 198.415 65.0969C198.44 65.1122 198.467 65.126 198.493 65.1408C198.601 65.2256 198.715 65.3048 198.836 65.3771C199.115 65.4704 199.372 65.5404 199.605 65.5871C199.885 65.6337 200.165 65.6337 200.445 65.5871C200.725 65.5404 200.982 65.4468 201.215 65.3068C201.449 65.1669 201.659 65.0041 201.845 64.8176C202.032 64.5843 202.172 64.3506 202.265 64.1174C202.291 64.0523 202.312 63.9848 202.331 63.9162C202.332 63.9131 202.334 63.9105 202.336 63.9074C202.429 63.6276 202.475 63.3474 202.475 63.0676C202.475 62.7876 202.429 62.5304 202.336 62.2971C202.286 62.1472 202.22 62.012 202.143 61.8888C202.073 61.7126 201.948 61.3822 201.775 60.8967C201.542 60.2435 201.308 59.5672 201.075 58.8674C200.841 58.1674 200.609 57.4668 200.376 56.7668C200.189 56.0204 199.955 55.344 199.675 54.7375C199.442 54.0843 199.162 53.3607 198.836 52.5676C198.556 51.7742 198.275 51.05 197.995 50.3967C197.761 49.6968 197.505 48.9732 197.225 48.2267C196.992 47.4803 196.712 46.7339 196.385 45.9875C196.105 45.2409 195.825 44.4938 195.546 43.7472C195.219 43.0939 194.915 42.417 194.635 41.717C194.355 41.1103 194.076 40.4334 193.796 39.6867C193.562 38.8936 193.305 38.1473 193.025 37.4474C192.745 36.7476 192.419 36.094 192.046 35.4875C191.672 34.8809 191.159 34.3438 190.505 33.8771ZM36.1852 64.7521C35.8684 64.9135 35.7441 65.0417 36.0094 65.0627C36.1319 64.9405 36.2158 64.8235 36.1852 64.7521ZM299.449 63.4094C304.242 60.872 298.737 62.5494 298.072 63.1447C297.99 63.215 298.017 63.564 297.798 64.006C297.707 64.2197 297.515 64.4801 297.604 64.5812C297.669 64.6184 297.791 64.6377 298.38 64.3576C298.705 64.1945 299.115 63.9868 299.94 63.4221C300.103 63.2981 300.283 63.1712 300.486 63.0246C300.123 63.1601 299.778 63.2893 299.449 63.4094ZM38.5006 63.2472C37.8989 63.3562 36.7131 63.7308 36.7008 64.0646C36.6582 64.2731 37.0398 64.2096 37.4645 64.0275C37.7029 63.8839 37.998 63.695 38.3873 63.4191C38.4377 63.3607 38.4782 63.3037 38.5006 63.2472ZM102.791 33.1769C101.624 33.037 100.457 33.107 99.2906 33.3869C98.1708 33.6669 97.0738 34.0868 96.0006 34.6467C94.9739 35.2067 93.9699 35.9772 92.9899 36.9572C92.0568 37.937 91.3105 38.9169 90.7506 39.8967C90.3885 40.588 90.0507 41.3501 89.735 42.1808C89.63 42.3733 89.5255 42.5922 89.4205 42.8371C89.3272 43.1171 89.1173 43.7705 88.7906 44.7971C88.464 45.777 88.2531 46.7802 88.1598 47.8068C88.1131 48.8335 88.1831 50.0474 88.3697 51.4474C88.5564 52.8005 88.86 54.1303 89.2799 55.4367C89.7465 56.6966 90.3536 57.8634 91.1002 58.9367C91.8935 59.9634 92.7804 60.8275 93.7604 61.5275C94.7403 62.2274 95.7672 62.7872 96.8405 63.2072C97.9603 63.6271 99.1036 63.9071 100.27 64.0471C101.437 64.187 102.58 64.1407 103.7 63.9074C104.82 63.6741 105.894 63.3006 106.921 62.7873C107.947 62.2273 108.857 61.5966 109.65 60.8967C110.49 60.1967 111.237 59.4034 111.89 58.5168C112.543 57.5836 113.173 56.6038 113.78 55.5773C114.387 54.504 114.877 53.36 115.251 52.1467C115.67 50.9335 115.903 49.6502 115.95 48.2971C115.996 46.8972 115.81 45.614 115.39 44.4474C115.017 43.2342 114.527 42.1137 113.921 41.0871C113.314 40.0604 112.591 39.08 111.751 38.1467C110.957 37.2134 110.093 36.3974 109.16 35.6974C108.273 34.9975 107.294 34.4368 106.22 34.0168C105.147 33.5502 104.004 33.2703 102.791 33.1769ZM128.603 33.5969C128.23 33.5969 127.81 33.6205 127.343 33.6672C126.877 33.6672 126.387 33.6908 125.874 33.7375C125.36 33.7841 124.777 33.8305 124.124 33.8771C123.517 33.9238 122.864 33.9938 122.164 34.0871L121.113 34.2267C121.107 34.2281 121.014 34.2519 120.834 34.2971C120.696 34.3315 120.557 34.3787 120.42 34.4387C120.254 34.4434 120.089 34.4657 119.923 34.507C119.737 34.5537 119.55 34.6236 119.363 34.717C119.176 34.8103 119.014 34.9276 118.874 35.0676C118.734 35.2074 118.594 35.3703 118.454 35.5568C118.36 35.6968 118.267 35.8604 118.173 36.0471C118.127 36.2337 118.08 36.4209 118.033 36.6076V44.5871C118.08 44.9604 118.103 45.3575 118.103 45.7775C118.15 46.1507 118.173 46.5472 118.173 46.967V48.2267C118.22 48.6 118.243 48.9736 118.243 49.3469C118.289 49.7202 118.313 50.1173 118.313 50.5373V56.4172C118.36 56.8372 118.383 57.2106 118.383 57.5373V59.6369C118.43 59.9635 118.454 60.3835 118.454 60.8967C118.499 61.3541 118.522 61.5879 118.523 61.5969C118.523 61.5969 118.523 61.6027 118.525 61.6135C118.524 61.6542 118.523 61.6957 118.523 61.7375C118.559 61.9544 118.61 62.157 118.674 62.3459C118.711 62.4696 118.754 62.5933 118.803 62.717C118.885 62.8532 118.976 62.9804 119.074 63.1008C119.1 63.1358 119.125 63.1722 119.153 63.2072C119.177 63.2314 119.203 63.2541 119.228 63.2775C119.25 63.3007 119.271 63.3244 119.294 63.3469C119.324 63.3711 119.356 63.3927 119.386 63.4162C119.463 63.4788 119.542 63.5387 119.625 63.5949C119.748 63.6817 119.87 63.7633 119.993 63.8371C120.226 63.9304 120.483 64.0004 120.763 64.0471C121.043 64.047 121.3 64.0234 121.533 63.9767C121.813 63.8834 122.07 63.7671 122.303 63.6271C122.537 63.4871 122.723 63.3235 122.863 63.1369C123.05 62.9036 123.19 62.67 123.283 62.4367C123.309 62.3578 123.33 62.2805 123.349 62.2053C123.379 62.119 123.406 62.0337 123.423 61.9474C123.47 61.6675 123.47 61.2939 123.423 60.8273C123.423 60.3607 123.4 59.9172 123.353 59.4972V52.4269C123.353 52.0537 123.329 51.6573 123.283 51.2375V49.9767C123.283 49.5102 123.26 49.0665 123.213 48.6467C123.167 48.2268 123.143 47.8068 123.143 47.3869V45.9875C123.143 45.5209 123.12 45.0773 123.073 44.6574C123.026 44.2374 123.004 43.8167 123.004 43.3967V39.0236C123.635 38.9473 124.194 38.8876 124.683 38.8469C125.243 38.8002 125.757 38.7539 126.223 38.7072C126.737 38.6605 127.18 38.6369 127.553 38.6369H128.743C129.116 38.5902 129.607 38.5676 130.213 38.5676H135.813C135.813 38.5676 135.821 38.5658 135.837 38.5627C135.875 38.5645 135.915 38.5676 135.954 38.5676C136.234 38.5209 136.49 38.4499 136.723 38.3566C136.927 38.2752 137.111 38.1566 137.279 38.0041C137.348 37.9523 137.408 37.8976 137.463 37.841C137.645 37.6786 137.797 37.5018 137.914 37.3068C138.053 37.0738 138.146 36.8406 138.193 36.6076C138.286 36.3276 138.31 36.0704 138.263 35.8371C138.245 35.7282 138.217 35.6235 138.185 35.5217C138.137 35.2557 138.048 35.0106 137.914 34.7873C137.83 34.648 137.728 34.5271 137.611 34.4211C137.595 34.4033 137.58 34.3843 137.563 34.3674C137.376 34.1807 137.167 34.0171 136.933 33.8771C136.81 33.8033 136.681 33.7499 136.545 33.715C136.361 33.6362 136.164 33.5969 135.954 33.5969C135.881 33.5969 135.808 33.5993 135.735 33.6056C135.665 33.6001 135.597 33.5969 135.533 33.5969H128.603ZM67.7916 33.6672C67.605 33.6205 67.4177 33.6205 67.2311 33.6672C67.0445 33.6672 66.8344 33.6908 66.6012 33.7375C66.4146 33.7841 66.2282 33.8542 66.0416 33.9474C65.9016 34.0408 65.738 34.1571 65.5514 34.2971C65.4114 34.4371 65.2715 34.6006 65.1315 34.7873C65.0382 34.9738 64.9682 35.1603 64.9215 35.3469C64.8749 35.5335 64.8275 35.7435 64.7809 35.9767V37.0969C64.8275 37.6569 64.8512 38.2875 64.8512 38.9875V41.2267C64.8979 41.9734 64.9215 42.744 64.9215 43.5373V45.7072C64.9215 46.4071 64.9442 47.107 64.9908 47.8068C65.0375 48.5067 65.0611 49.2302 65.0612 49.9767V52.217C65.0612 52.917 65.0848 53.6639 65.1315 54.4572C65.1781 55.2505 65.2244 55.9975 65.2711 56.6974C65.3178 57.3506 65.3651 58.097 65.4117 58.9367C65.5051 59.7766 65.5514 60.3837 65.5514 60.757V61.3176C65.5516 61.3189 65.5521 61.3235 65.5533 61.3312C65.5523 61.3727 65.5514 61.4147 65.5514 61.4572C65.5981 61.7372 65.668 62.0171 65.7613 62.2971C65.8547 62.5304 65.9946 62.7639 66.1813 62.9972C66.3631 63.1791 66.5675 63.3382 66.7936 63.4758C66.8671 63.5284 66.9423 63.5798 67.0211 63.6271C67.3011 63.7205 67.5583 63.7904 67.7916 63.8371C67.8912 63.8371 67.9908 63.8332 68.0905 63.8273C68.1804 63.8334 68.2673 63.8371 68.3512 63.8371C68.6312 63.7904 68.8884 63.7205 69.1217 63.6271C69.4015 63.4872 69.6343 63.3235 69.8209 63.1369C70.0076 62.9036 70.1712 62.67 70.3112 62.4367C70.3964 62.2946 70.4517 62.143 70.485 61.9836C70.5543 61.7963 70.5914 61.6214 70.5914 61.4572C70.5914 61.3592 70.5833 61.2613 70.5719 61.1633C70.5844 60.9487 70.5914 60.6968 70.5914 60.4074C70.5914 59.8475 70.5678 59.194 70.5211 58.4474C70.4744 57.7008 70.4045 56.9538 70.3112 56.2072C70.2645 55.4605 70.2182 54.7136 70.1715 53.967V51.7267C70.1715 51.5971 70.169 51.4688 70.1676 51.342C70.2154 51.33 70.2634 51.3188 70.3112 51.3068C70.4266 51.2491 70.532 51.1812 70.6295 51.1056C70.9637 51.5189 71.3463 51.9837 71.7809 52.4972C72.2942 53.0572 72.7849 53.6169 73.2516 54.1769C73.7181 54.7368 74.1845 55.2968 74.651 55.8566C75.1177 56.4166 75.6084 56.9773 76.1217 57.5373C76.635 58.0972 77.1948 58.6571 77.8014 59.217C78.408 59.777 78.9677 60.314 79.4811 60.8273C79.9944 61.294 80.4851 61.7601 80.9518 62.2267C81.4096 62.6845 81.6423 62.9182 81.651 62.9269C81.651 62.9269 81.7446 63.0205 81.9313 63.2072C82.0539 63.2808 82.1768 63.3477 82.2994 63.4084C82.3406 63.4345 82.3804 63.4628 82.4215 63.4875C82.5541 63.5405 82.6947 63.5843 82.8424 63.6222C83.0521 63.6834 83.2616 63.7318 83.4713 63.7668C83.7194 63.7668 83.9483 63.7278 84.1598 63.6545C84.3636 63.602 84.5541 63.5233 84.7311 63.4172C84.7506 63.4054 84.7695 63.3921 84.7887 63.3801C84.797 63.375 84.805 63.3695 84.8131 63.3644C85.0136 63.2363 85.1966 63.0912 85.361 62.9269C85.4541 62.8105 85.5352 62.6938 85.6051 62.5773C85.74 62.3902 85.8467 62.2039 85.9215 62.0168C86.0148 61.7369 86.0612 61.4568 86.0612 61.1769C86.0611 60.8971 86.0147 60.6406 85.9215 60.4074C85.8282 60.1275 85.6882 59.8938 85.5016 59.7072C85.4249 59.6114 85.3429 59.5246 85.2584 59.4445C85.1308 59.3116 84.9792 59.165 84.8014 59.007C84.4281 58.587 83.9846 58.1436 83.4713 57.6769C82.958 57.1636 82.4209 56.6502 81.861 56.1369L80.3209 54.5969C79.8544 54.0837 79.3644 53.5473 78.8512 52.9875C78.3845 52.4275 77.8712 51.8205 77.3112 51.1672C76.7512 50.4672 76.1914 49.8138 75.6315 49.2072C75.1181 48.6005 74.6747 48.0635 74.3014 47.5969L74.2867 47.5793C74.6883 47.1712 75.0893 46.7803 75.4908 46.4074C76.1442 45.8007 76.7048 45.2637 77.1715 44.7971C77.6848 44.2838 78.2209 43.7466 78.7809 43.1867C79.3409 42.6267 79.8779 42.1133 80.3912 41.6467C80.9511 41.1334 81.5347 40.5972 82.1412 40.0373C82.5962 39.6173 82.946 39.302 83.191 39.092L83.8209 38.5676C83.8209 38.5676 83.9382 38.4966 84.1715 38.3566C84.3246 38.2341 84.4551 38.0998 84.568 37.9572C84.5753 37.95 84.5842 37.9439 84.5914 37.9367C84.778 37.7501 84.9181 37.54 85.0113 37.3068C85.0521 37.1845 85.0822 37.0619 85.1051 36.9396C85.1626 36.7355 85.1825 36.5324 85.1656 36.3283C85.181 36.1484 85.1655 35.98 85.1197 35.8205C85.1014 35.7086 85.0745 35.6014 85.0387 35.4982C84.9862 35.2945 84.9075 35.1038 84.8014 34.9269C84.7042 34.765 84.5832 34.6269 84.441 34.5099C84.3254 34.3713 84.1898 34.2528 84.0309 34.1574C83.7976 34.0175 83.5413 33.9238 83.2613 33.8771C83.0315 33.8005 82.8018 33.7735 82.5719 33.7912C82.3739 33.7738 82.1605 33.8007 81.9313 33.8771C81.8311 33.9105 81.7071 33.9707 81.5592 34.0578C81.3569 34.1494 81.1541 34.2749 80.9518 34.4367C80.9171 34.4714 80.8833 34.5078 80.8502 34.5441C80.7497 34.6194 80.6423 34.6998 80.5309 34.7873C79.8777 35.2539 79.2478 35.7674 78.6412 36.3273C78.0347 36.8872 77.4511 37.4235 76.8912 37.9367C76.3313 38.45 75.7715 38.9871 75.2115 39.5471L73.3912 41.3674C72.738 42.0206 72.1545 42.5804 71.6412 43.0471C71.204 43.4843 70.6633 44.0025 70.0211 44.6037C70.0103 44.1688 69.9913 43.7433 69.9615 43.3273V41.0871C69.9615 40.2938 69.9379 39.5469 69.8912 38.8469V36.8869L69.8209 36.0471C69.8199 36.0428 69.7972 35.9491 69.7516 35.7668C69.7515 35.5802 69.7042 35.3938 69.611 35.2072C69.5643 35.0206 69.4716 34.8569 69.3317 34.717C69.1917 34.5303 69.0517 34.3667 68.9117 34.2267C68.7718 34.0868 68.6081 33.9705 68.4215 33.8771C68.2349 33.7838 68.0248 33.7138 67.7916 33.6672ZM213.186 58.2375C212.999 58.1908 212.79 58.1908 212.556 58.2375C212.37 58.2375 212.183 58.2839 211.997 58.3771C211.814 58.4229 211.72 58.4466 211.716 58.4474C211.714 58.4495 211.604 58.5365 211.388 58.7092C211.374 58.719 211.36 58.7294 211.346 58.7394C211.121 58.878 210.917 59.0606 210.736 59.2873C210.596 59.5205 210.48 59.777 210.386 60.0568C210.36 60.1877 210.341 60.3263 210.33 60.4719C210.325 60.4968 210.32 60.5218 210.316 60.5471C210.316 60.5936 210.318 60.6402 210.319 60.6867C210.318 60.7328 210.316 60.7798 210.316 60.8273C210.316 61.1073 210.363 61.3872 210.457 61.6672C210.542 61.8817 210.669 62.0952 210.834 62.3097C210.95 62.4829 211.081 62.6423 211.226 62.7873C211.46 62.9273 211.693 63.0436 211.926 63.1369C212.206 63.2302 212.486 63.2775 212.766 63.2775C212.799 63.2775 212.833 63.274 212.866 63.2726C212.926 63.2748 212.986 63.2775 213.047 63.2775C213.262 63.2417 213.462 63.1905 213.65 63.1271L213.957 63.0676L214.096 62.9972C214.143 62.9506 214.259 62.8805 214.446 62.7873C214.632 62.6474 214.773 62.5072 214.866 62.3674C215.006 62.1807 215.123 61.9935 215.216 61.8068C215.31 61.6203 215.38 61.4338 215.426 61.2472C215.473 61.0606 215.497 60.8734 215.497 60.6867C215.497 60.4535 215.449 60.2434 215.356 60.0568C215.309 59.8237 215.239 59.6372 215.146 59.4972C215.053 59.3106 214.936 59.147 214.797 59.007C214.657 58.8204 214.493 58.6804 214.306 58.5871C214.166 58.4472 213.98 58.3535 213.747 58.3068C213.56 58.2602 213.373 58.2375 213.186 58.2375ZM41.2692 59.0422C40.396 59.4227 39.1794 60.1034 40.0885 60.215C40.4441 59.8879 40.836 59.5018 41.2692 59.0422ZM42.318 58.799C42.1015 59.0471 41.8941 59.2759 41.693 59.4865C41.9919 59.4482 42.4111 59.3921 42.8131 59.3312C42.8876 59.2416 42.9659 59.1516 43.0416 59.0578C43.0958 58.991 43.1483 58.9191 43.2047 58.8478C42.9683 58.8295 42.6754 58.813 42.318 58.799ZM100.48 38.4269C101.6 38.1469 102.697 38.1942 103.77 38.5676C104.843 38.8942 105.777 39.4068 106.57 40.1066C107.41 40.8066 108.18 41.6708 108.88 42.6974C109.627 43.6773 110.163 44.6807 110.49 45.7072C110.863 46.7339 110.98 47.7606 110.84 48.7873C110.747 49.8139 110.444 50.8871 109.93 52.007C109.417 53.0803 108.81 54.1071 108.11 55.0871C107.41 56.067 106.593 56.9066 105.66 57.6066C104.726 58.2599 103.723 58.6807 102.65 58.8674C101.577 59.054 100.434 58.9604 99.2203 58.5871C98.0537 58.2138 97.0033 57.6068 96.0699 56.7668C95.1834 55.9269 94.5299 54.9699 94.11 53.8967C93.7367 52.7768 93.4804 51.6798 93.3405 50.6066C93.2005 49.4868 93.2705 48.2971 93.5504 47.0373C93.6008 46.8021 93.6486 46.5843 93.693 46.384C93.8358 45.8247 93.9979 45.2256 94.1803 44.5871C94.2004 44.5267 94.2228 44.4672 94.2438 44.4074C94.2719 44.3508 94.2973 44.2941 94.3199 44.2375C94.3402 44.1766 94.3568 44.1148 94.3727 44.0539C94.6743 43.2751 95.0533 42.5422 95.5104 41.8566C96.117 40.9701 96.8168 40.2466 97.61 39.6867C98.45 39.0801 99.4068 38.6603 100.48 38.4269ZM156.627 36.6076C157 35.861 157.443 35.8138 157.957 36.467C158.47 37.0736 158.797 37.7742 158.937 38.5676C159.124 39.314 159.264 40.0376 159.357 40.7375C159.497 41.3906 159.637 42.067 159.777 42.7668C159.964 43.4201 160.104 44.167 160.197 45.007C160.337 45.847 160.453 46.6176 160.547 47.3176C160.64 47.9708 160.733 48.7643 160.827 49.6974C160.967 50.584 161.083 51.4474 161.176 52.2873C161.316 53.0806 161.434 53.8975 161.527 54.7375C161.62 55.5773 161.737 56.4172 161.877 57.257C161.921 57.5112 161.958 57.7249 161.989 57.8976C161.503 57.9086 160.999 57.9282 160.477 57.9572C159.637 58.0039 158.843 58.0502 158.096 58.0969C157.35 58.1435 156.556 58.1908 155.716 58.2375C154.923 58.2841 154.083 58.3068 153.197 58.3068C152.639 58.2758 152.091 58.2557 151.553 58.2453C151.704 57.5551 151.856 56.7588 152.006 55.8566C152.24 54.7368 152.427 53.7571 152.567 52.9172C152.754 52.0772 152.917 51.2839 153.057 50.5373C153.244 49.7441 153.407 49.0206 153.547 48.3674C153.733 47.6674 153.897 46.9668 154.037 46.2668C154.223 45.567 154.41 44.7505 154.596 43.8176C154.83 42.8842 155.041 42.0437 155.227 41.2971C155.414 40.5038 155.6 39.7104 155.787 38.9172C156.02 38.124 156.3 37.3541 156.627 36.6076ZM213.116 33.4572C212.416 33.4573 211.692 33.5972 210.946 33.8771C210.246 34.1571 209.57 34.5543 208.917 35.0676C208.31 35.5809 207.679 36.2569 207.026 37.0969C206.373 37.8902 205.859 38.5671 205.486 39.1271L204.926 39.8967C204.926 39.8967 204.879 39.9903 204.786 40.1769C204.739 40.3635 204.693 40.5736 204.646 40.8068C204.599 40.9934 204.576 41.2035 204.576 41.4367C204.576 41.6234 204.599 41.8106 204.646 41.9972C204.739 42.1838 204.833 42.3702 204.926 42.5568C205.02 42.7434 205.136 42.9071 205.276 43.0471C205.416 43.187 205.58 43.327 205.766 43.467C205.953 43.5603 206.139 43.654 206.326 43.7472C206.512 43.7939 206.7 43.8402 206.886 43.8869C207.12 43.8869 207.33 43.8642 207.516 43.8176C207.703 43.7709 207.889 43.7236 208.076 43.6769C208.309 43.5836 208.496 43.49 208.636 43.3967C208.823 43.2567 208.963 43.1167 209.056 42.9767C209.196 42.79 209.43 42.4164 209.756 41.8566C210.13 41.2968 210.55 40.7368 211.016 40.1769C211.53 39.617 212.113 39.2208 212.766 38.9875C213.466 38.7075 214.143 38.6838 214.797 38.9172C215.45 39.1039 215.846 39.571 215.986 40.3176C216.172 41.064 216.126 41.8104 215.846 42.5568C215.566 43.2568 215.147 43.9574 214.587 44.6574C214.073 45.3574 213.582 45.9871 213.116 46.5471C212.696 47.0602 212.3 47.6203 211.926 48.2267C211.6 48.8334 211.32 49.534 211.087 50.3273C210.853 51.074 210.69 51.7973 210.596 52.4972C210.551 53.1381 210.527 53.4646 210.526 53.4767C210.526 53.4767 210.55 53.6169 210.596 53.8967C210.643 54.1767 210.713 54.4338 210.806 54.6672C210.946 54.9005 211.11 55.134 211.297 55.3674C211.53 55.5539 211.763 55.7167 211.997 55.8566C212.23 55.9499 212.486 56.0209 212.766 56.0676C212.859 56.0676 212.952 56.063 213.046 56.0578C213.139 56.063 213.232 56.0676 213.326 56.0676C213.554 56.0295 213.767 55.9746 213.964 55.9054C213.999 55.8936 214.033 55.8799 214.067 55.8664C214.077 55.8627 214.087 55.8604 214.096 55.8566C214.376 55.7633 214.61 55.6233 214.797 55.4367C214.833 55.3997 214.869 55.3612 214.904 55.3224C214.938 55.2909 214.974 55.2597 215.006 55.2267C215.193 54.9936 215.333 54.7606 215.426 54.5275C215.461 54.4418 215.486 54.3519 215.507 54.2599C215.531 54.1833 215.552 54.1095 215.566 54.0373C215.613 53.7574 215.636 53.4773 215.636 53.1974C215.683 52.9174 215.823 52.4504 216.056 51.7971C216.29 51.0971 216.639 50.4437 217.106 49.8371C217.619 49.1838 218.133 48.5304 218.646 47.8771C219.159 47.1771 219.627 46.4302 220.047 45.6369C220.466 44.797 220.793 43.91 221.026 42.9767C221.306 41.9969 221.446 41.1335 221.446 40.3869C221.446 39.6403 221.26 38.8469 220.886 38.007C220.513 37.1205 220.07 36.4207 219.556 35.9074C219.043 35.3474 218.483 34.9267 217.877 34.6467C217.27 34.32 216.499 34.0401 215.566 33.8068C214.633 33.5735 213.816 33.4572 213.116 33.4572ZM188.795 40.6379C188.847 40.8325 188.904 41.0288 188.965 41.2267C189.245 41.9267 189.525 42.6037 189.805 43.257C190.085 43.9103 190.389 44.6101 190.715 45.3566C191.042 46.0566 191.322 46.7336 191.555 47.3869C191.773 47.9955 192.01 48.6446 192.268 49.3342C192.241 49.3383 192.213 49.3425 192.185 49.3469C191.579 49.3935 190.925 49.4408 190.225 49.4875C189.572 49.5341 188.849 49.6041 188.055 49.6974C187.309 49.7441 186.538 49.8141 185.745 49.9074C185.583 49.9264 185.429 49.9431 185.281 49.9601C185.482 49.4611 185.684 48.9534 185.885 48.4367C186.259 47.597 186.539 46.8506 186.725 46.1974C186.959 45.4974 187.192 44.8205 187.425 44.1672C187.659 43.5139 187.915 42.8605 188.195 42.2072C188.409 41.6708 188.607 41.1469 188.795 40.6379ZM35.3863 40.3283C35.4461 40.3152 35.506 40.3023 35.566 40.2892C35.446 40.1352 35.3199 39.9768 35.193 39.8097C35.2571 39.9876 35.3216 40.1605 35.3863 40.3283ZM293.761 39.4963C293.629 39.4997 293.365 39.5298 293.018 39.5734C292.74 39.6669 292.463 39.7611 292.187 39.8547C292.151 39.8876 292.114 39.9197 292.082 39.9523C292.062 39.9704 292.042 39.9894 292.022 40.008C292.587 40.0806 293.746 40.0321 293.761 39.4963ZM37.5201 25.8439C37.2134 26.5247 36.9631 27.2007 36.7584 27.8556C37.6793 28.0383 38.8704 28.2713 40.1188 28.5021C39.8874 28.2895 39.6769 28.1041 39.4723 27.9279C38.4067 27.0357 38.0037 26.7667 37.7037 26.5197C37.4275 26.2977 37.3578 26.2062 37.5123 26.2394C37.69 26.2949 38.0051 26.39 39.0084 27.0431C39.3488 27.4063 39.97 27.5699 41.1041 28.6828C41.2164 28.7027 41.3289 28.7219 41.441 28.7414C40.7346 28.073 40.1617 27.6187 39.6373 27.2228C38.6996 26.5339 38.1747 26.2106 37.7613 25.9543C37.6723 25.9138 37.591 25.8771 37.5201 25.8439ZM37.2057 25.7092C37.1369 25.7077 37.0104 25.825 36.8297 25.9689C36.6089 26.5369 36.4038 27.1336 36.2213 27.7492C36.3228 27.7692 36.4295 27.7906 36.5406 27.8127C36.7393 27.1093 36.9762 26.4046 37.2574 25.7248C37.2317 25.7145 37.2142 25.7092 37.2057 25.7092ZM35.3776 27.4191C35.284 27.4543 35.1662 27.4905 35.0231 27.5275C35.081 27.5338 35.1867 27.5508 35.3326 27.5773C35.347 27.5247 35.3627 27.4718 35.3776 27.4191ZM35.0719 26.3342C35.0115 26.3714 34.9449 26.3995 34.8815 26.4211C34.8589 26.4947 34.8387 26.5697 34.817 26.6437C34.8523 26.6713 34.8995 26.7013 34.9586 26.7326C35.1155 26.8212 35.3428 26.9193 35.4957 27.0138C35.5499 26.835 35.6065 26.6558 35.6656 26.4777C35.5073 26.4852 35.349 26.4649 35.2057 26.4074C35.1594 26.3884 35.1139 26.3628 35.0719 26.3342ZM35.7057 24.2463C35.7586 24.2391 35.8227 24.2295 35.9 24.2209C35.8234 24.2128 35.7712 24.2127 35.7194 24.2131C35.7145 24.2238 35.7105 24.2355 35.7057 24.2463ZM69.8502 18.2941C70.076 18.8015 70.3031 19.3878 70.5143 20.0744C70.8486 20.4987 71.2038 20.9984 71.5817 21.5998C71.6532 21.598 71.7248 21.5966 71.7965 21.5949C71.6601 20.973 71.5026 20.4022 71.3375 19.883C70.7791 19.2248 70.287 18.7189 69.8502 18.2941ZM310.745 11.1838C309.963 11.1742 311.814 12.1187 314.754 14.2629C317.554 16.005 322.315 21.9287 319.456 18.0724C318.889 17.2867 316.442 14.8574 314.679 13.6349C312.854 12.3037 311.398 11.5241 310.745 11.1838ZM23.819 17.5734C23.8159 17.9855 20.4086 18.4262 18.3863 19.2492C18.4489 19.004 19.7963 18.5213 20.942 18.2336C22.1361 17.9236 23.2749 17.7291 23.819 17.5734ZM65.6813 14.6301C65.8922 14.8423 66.2653 15.2576 66.9186 16.1847C67.0492 16.3839 67.1992 16.6113 67.3639 16.8791C67.4786 16.9829 67.6006 17.0895 67.7252 17.2043C68.1372 17.6928 68.6408 18.0905 69.2428 18.6701C68.9448 17.9781 68.6545 17.4108 68.3824 16.9387C67.0415 15.7549 66.2628 15.1634 65.776 14.7179C65.7419 14.6879 65.7113 14.6572 65.6813 14.6301ZM154.497 16.0197C153.208 15.487 152.175 16.747 154.08 16.4387C154.171 16.423 154.552 16.0454 154.497 16.0197ZM44.8434 15.5617C44.5938 15.5608 44.1313 15.5773 43.5143 15.6291C43.298 15.6459 43.0702 15.6691 42.8483 15.6887C42.6468 15.8163 42.4337 15.9568 42.2135 16.1135C42.129 16.1692 42.0421 16.2293 41.9537 16.2922C42.4562 16.3173 43.1359 16.2869 43.733 16.2267C43.8892 16.2095 44.034 16.1921 44.1666 16.175C44.469 15.8998 44.6851 15.6972 44.8434 15.5617ZM177.673 15.8381C179.167 15.9379 175.443 16.4295 175.029 16.1525C174.959 16.1024 177.388 15.8216 177.673 15.8381ZM149.081 15.675C148.318 15.7142 146.375 15.6532 145.942 15.7082C144.421 15.9049 148.356 16.0921 149.081 15.675ZM153.526 14.6935C151.838 14.3116 152.516 15.6845 152.727 15.7336C153.595 15.9264 156.491 15.3196 157.085 15.1828C152.704 15.4779 154.322 14.8716 153.526 14.6935ZM67.0231 12.7551C66.9107 12.7224 66.9013 12.8083 66.86 12.8693C66.8241 12.9352 66.7622 12.9849 66.6979 13.0256C66.6395 13.0731 66.5674 13.0961 66.7008 13.3068C66.7972 13.4818 66.9178 13.5742 67.2623 14.0158C67.7842 14.3798 68.5222 14.9343 69.4879 15.7531C69.0566 15.0236 68.7205 14.5715 68.4479 14.2228C67.994 13.8386 67.7492 13.5751 67.6901 13.3224C67.2422 12.8373 67.1236 12.8063 67.0231 12.7551ZM184.97 15.3137C185.046 15.4545 183.006 15.6656 182.828 15.6584C181.674 15.6067 184.208 15.2925 184.97 15.3137ZM177.38 15.2248C178.53 15.2673 176.001 15.5789 175.243 15.5607C175.167 15.4348 177.204 15.2204 177.38 15.2248ZM136.64 15.3996C135.82 15.3555 133.379 15.236 132.987 15.4885C133.874 15.4406 136.309 15.6571 136.64 15.3996ZM134.75 14.674C133.457 14.3376 133.2 15.3297 134.657 15.0275C134.713 15.0158 134.797 14.6931 134.75 14.674ZM127.579 14.2775C126.735 13.853 125.819 14.847 127.169 14.8898C127.569 14.8998 127.669 14.3257 127.579 14.2775ZM151.347 13.2326C150.121 13.0885 148.598 13.7147 151.196 13.7541C150.29 13.8557 149.385 13.9598 148.482 14.0656C151.898 14.3604 151.597 13.5274 152.576 13.5549C153.945 13.5931 153.883 14.2662 153.623 14.4836C154.713 14.0493 159.483 13.9933 162.249 13.9142C159.806 13.7605 155.847 13.4945 153.454 13.3996C152.77 13.372 152.122 13.5637 151.541 13.548C150.61 13.5211 151.413 13.2425 151.352 13.2326C151.351 13.2326 151.349 13.2326 151.347 13.2326ZM118.302 13.9943C115.884 13.3817 117.409 14.5303 118.784 14.3967C118.843 14.3848 118.363 14.0095 118.302 13.9943ZM136.491 12.9299C135.61 11.7724 135.385 13.6036 133.726 12.6252C131.654 14.0137 139.649 12.6811 140.708 13.8049C131.892 13.718 146.6 14.8892 140.343 13.2326C145.453 13.8254 141.994 13.0221 142.761 12.8078C143.584 12.5835 146.478 12.8216 146.308 12.425C146.307 12.425 146.305 12.425 146.303 12.425C144.542 12.4517 142.785 12.4783 141.034 12.5012C142.807 13.3889 139.203 13.1361 137.951 12.381C137.465 12.5623 136.978 12.7456 136.491 12.9299ZM181.799 12.6008C178.927 13.3751 181.655 12.9441 181.1 13.1887C180.653 13.3814 178.948 13.4428 179.95 13.6242C178.633 13.4536 173.011 14.1222 172.76 14.0929C172.762 14.0927 172.765 14.0922 172.767 14.092C172.617 14.0776 172.965 13.3905 174.014 13.3693C177.312 13.3029 174.94 13.9981 181.799 12.6008ZM146.474 13.7355C146.295 13.718 142.48 13.8731 142.736 14.048C143.25 14.1567 148.683 13.9604 146.474 13.7355ZM163.466 13.4582C162.069 13.4525 159.906 13.3034 159.166 13.5969C160.559 13.5936 162.72 13.735 163.466 13.4582ZM132.556 13.0715C130.781 12.6876 131.663 13.8528 132.956 13.5617C133.03 13.5449 132.638 13.0892 132.556 13.0715ZM159.037 12.3205C158.817 12.2963 154.46 12.3064 154.252 12.3342C154.104 12.3558 154.923 12.8787 154.038 13.0471C155.762 12.7341 163.765 12.946 164.185 12.9045C164.504 12.8669 162.047 12.3272 165.876 12.6681C165.877 12.6682 165.879 12.6681 165.88 12.6681C163.049 11.8373 159.331 12.7201 158.922 12.7101C158.511 12.687 159.13 12.3306 159.037 12.3205ZM182.41 12.2531C181.935 12.5204 176.56 13.2296 176.672 12.9758C176.778 12.7559 181.559 12.354 182.41 12.2531ZM155.189 12.7551C153.537 12.5728 157.738 12.5679 157.883 12.5959C158.987 12.8112 155.932 12.834 155.189 12.7551ZM150.536 12.382C150.183 12.3315 147.055 12.279 146.808 12.5402C148.306 12.8747 151.331 12.4979 150.536 12.382ZM116.408 11.7053C115.622 11.6982 113.45 11.2965 113.325 11.5715C114.118 11.5889 116.276 11.9779 116.408 11.7053ZM93.1383 11.3361C91.3636 11.571 96.7911 12.0809 95.2321 11.5353C95.1487 11.5086 93.2251 11.3253 93.1383 11.3361ZM153.187 10.8928C154.07 10.5886 154.687 10.9774 154.802 10.9836C155.926 11.0465 158.251 11.0151 157.759 11.3019C155.766 11.1488 151.432 11.5046 153.187 10.8928ZM133.21 10.5666C133.899 10.3054 143.595 10.7523 145.182 10.758C143.811 11.2466 142.655 10.8484 140.78 10.8429C140.275 10.8426 140.423 11.0629 140.369 11.0627C139.494 11.0597 140.133 10.8168 139.593 10.8039C139.242 10.8009 132.216 10.9686 133.21 10.5666ZM120.88 10.4191C121.325 10.5174 122.734 10.6487 124.37 10.7512C127.56 10.9462 131.717 11.0428 132.004 10.9885C132.128 10.9637 132.202 10.6606 132.142 10.6457C131.829 10.588 127.59 10.5257 124.362 10.465C122.731 10.4341 121.329 10.4024 120.88 10.4191ZM153.689 10.6799C154.223 10.5005 160.411 10.5569 160.671 10.6144C162.556 10.9872 154.163 10.7442 153.689 10.6799ZM153.782 10.3752C153.439 10.2082 154.21 9.75339 154.95 10.009C155.266 10.1185 154.705 10.3861 153.782 10.3752ZM155.505 9.97967C156.277 9.71832 162.355 10.1561 160.761 10.3263C160.491 10.3465 154.364 10.3558 155.505 9.97967ZM115.741 9.78631C112.528 9.69437 118.698 10.5952 117.885 10.1017C117.837 10.0736 116.074 9.79759 115.741 9.78631ZM132.305 10.048C133.301 9.44404 138.109 10.0085 134.85 10.2316C134.539 10.2526 133.202 9.93694 132.305 10.048ZM116.086 9.13006C115.929 9.09988 112.58 8.6684 112.514 8.89275C113.002 9.03338 117.884 9.50671 116.086 9.13006ZM195.606 8.66229C195.658 8.80527 193.046 9.18037 192.926 9.18084C191.57 9.17421 194.685 8.68932 195.606 8.66229ZM301.643 6.7326C302.296 6.62759 303.895 7.12465 305.335 7.76189C306.763 8.38723 308.044 9.16727 307.415 9.03729C306.911 8.7949 301.018 6.8154 301.643 6.7326ZM114.616 8.30193C114.215 8.30418 113.589 8.57993 113.634 8.60467C115.704 9.57102 121.83 8.56156 117.814 8.50311C117.735 8.50316 118.512 8.99891 116.956 8.81951C116.826 8.80209 116.58 8.29408 114.616 8.30193ZM124.29 7.98748C125.198 7.86834 127.839 8.15044 128.64 8.12615C127.856 8.3953 125.706 8.21774 124.295 8.16717C124.191 8.16332 124.091 8.16034 123.997 8.15838C123.966 8.07024 124.081 8.01656 124.29 7.98748ZM100.813 7.11932C101.014 7.39562 105.181 7.97213 105.381 7.95135C107.377 7.75285 101.144 7.0503 100.813 7.11932ZM203.055 5.81463C199.649 6.70434 202.757 6.11011 202.866 6.3576C203.29 7.35067 198.29 6.45624 196.611 6.924C196.378 6.98454 198.135 7.06804 197.535 7.24236C195.579 7.78097 189.434 7.15835 195.969 6.46111C195.968 6.46125 195.966 6.46091 195.964 6.46111C197.669 6.28448 196.635 6.68614 196.71 6.68377C200.364 6.54989 199.378 6.11086 199.943 5.96111C201.162 5.64291 200.995 6.38338 203.055 5.81463ZM202.76 5.05584C202.914 5.06806 200.685 6.09732 200.031 5.66912C199.527 5.34141 202.35 5.03794 202.76 5.05584ZM98.6686 5.23455C97.5995 4.83478 100.901 4.92883 101.857 5.35857C102.317 5.87332 98.807 5.28255 98.6686 5.23455ZM195.026 3.58611C196.34 3.6682 191.973 4.34195 193.456 3.83123C193.52 3.80984 194.967 3.58384 195.026 3.58611Z" fill="white"/>
</svg>
