<svg width="254" height="74" viewBox="0 0 254 74" fill="none" xmlns="http://www.w3.org/2000/svg">
<path d="M122.235 70.7824C122.387 70.8592 122.355 72.2417 122.514 72.3781C122.602 72.4466 125.048 71.8748 125.367 71.9914C125.46 72.0258 125.531 72.0636 125.584 72.0949C125.207 71.6777 127.403 71.6466 127.352 72.1301C127.321 72.322 125.804 72.2563 125.747 72.2238C125.723 72.2104 125.701 72.1917 125.681 72.1789C126.025 72.7005 120.814 72.7822 121.953 73.5354C120.434 73.9837 122.146 72.393 121.007 72.8235C120.619 72.9696 120.277 74.5761 118.19 73.7756C118.188 73.7756 118.186 73.7756 118.184 73.7756C117.574 73.5408 118.262 73.1493 118.149 73.011C118.097 72.9518 116.215 72.1617 117.778 72.0324C120.162 71.826 118.018 73.221 119.292 73.2307C119.451 73.2333 121.828 72.3394 121.683 72.1496C121.659 72.131 120.954 72.3205 120.835 72.2434C120.382 71.9522 120.59 71.4509 120.527 71.4279C120.324 71.3763 116.532 72.2443 115.963 71.4934C115.805 71.269 122.007 70.6781 122.235 70.7824ZM108.2 71.7766C108.349 71.7573 109.801 72.3118 110.59 72.2971C112.302 72.2638 113.206 71.9167 115.143 72.2297C115.485 72.2793 115.855 72.3447 116.259 72.4299C115.6 72.6224 115.333 72.9037 115.145 73.1574C114.879 73.5584 114.79 73.8909 113.731 73.6819C113.876 73.5379 114.021 73.3933 114.167 73.2492C111.704 73.5821 108.832 72.8501 105.931 72.8049C105.196 72.7924 106.042 73.6929 105.076 73.4328C104.301 73.224 103.443 72.3856 103.866 72.2111C103.97 72.168 105.547 72.7325 106.333 72.6906C108.651 72.5656 108.064 71.7949 108.2 71.7766ZM199.041 0.0197408C199.719 0.0355123 202.963 0.57468 203.196 0.673061C203.632 0.846158 201.099 0.842837 202.199 1.17306C202.447 1.2258 207.936 1.647 207.612 1.11447C207.009 1.02587 205.031 1.21076 204.732 1.07931C203.431 0.500434 209.343 0.74549 214.053 1.07248C217.113 1.2735 219.976 1.54471 220.348 1.43185C219.992 1.21818 219.631 1.00511 219.278 0.796108C220.367 0.971912 221.476 1.1607 222.617 1.37033C222.114 1.47834 221.626 1.59069 221.135 1.70333C222.41 1.92686 224.24 2.01117 225.529 2.34396C225.739 2.39889 225.08 2.78073 225.585 2.87228C226.099 2.96702 226.124 2.31942 226.92 2.37033C227.755 2.40393 231.874 3.56786 234.517 4.48751C235.639 4.86518 236.886 5.28149 238.877 6.28537C239.847 6.78923 241.095 7.45951 242.841 8.78341C244.577 10.2626 247.181 11.905 250.21 17.8977C251.184 19.8092 251.849 22.1562 252.182 24.6184C252.452 25.0895 252.723 25.5848 252.984 26.1076C255.768 30.6421 256.836 41.778 254.154 47.675C252.883 51.2361 250.813 54.24 249.498 55.8C248.248 57.3059 247.058 58.4332 245.976 59.3401C243.601 61.2742 242.585 61.7606 241.366 62.4387C238.814 63.7501 237.85 63.9826 236.351 64.5061C235.911 64.6477 235.465 64.7926 235.006 64.9465C229.782 66.6032 227.859 66.8244 225.398 67.3137C223.086 67.7273 221.018 68.012 219.008 68.2258C221.203 66.0033 217.104 67.67 216.941 67.594C215.965 67.2023 220.194 66.4894 218.49 66.3928C216.137 66.7692 213.872 67.0989 211.649 67.4074C213.489 67.4379 209.319 69.3071 208.523 68.7492C208.902 70.4641 198.572 68.2198 197.13 68.8996C196.825 69.0498 198.904 69.7404 194.127 69.757C193.613 69.7568 193.786 69.2083 193.52 69.2805C193.362 69.3232 192.456 71.1013 191.388 70.2531C191.089 70.0116 192.432 69.165 190.606 69.2141C190.004 69.2311 189.099 69.3236 187.773 69.5139C190.162 71.1178 179.627 70.9513 177.846 70.5256C178.219 70.7483 178.592 70.9707 178.967 71.1916C177.118 70.6273 176.796 71.2326 176.382 71.2151C174.721 71.1418 172.476 70.5981 170.973 70.6887C169.217 70.7936 169.201 71.8984 167.183 71.5119C167.66 71.746 168.138 71.9804 168.618 72.2131C167.216 72.1866 165.829 72.1563 164.457 72.1252C167.655 70.594 163.77 72.0669 163.519 72.1057C163.115 72.1672 163.698 71.5547 163.023 71.6428C162.954 71.6568 163.048 72.2211 162.014 72.3059C159.86 72.4812 160.208 71.7598 159.311 71.7863C159.232 71.7942 159.507 72.2974 157.978 72.4524C153.148 72.9526 157.993 72.0568 158.189 71.9836C158.44 71.8848 156.744 69.7751 160.93 70.4533C159.521 70.239 159.385 69.295 159.226 69.2736C159.081 69.2565 156.669 69.4385 156.541 69.4748C155.365 69.8231 156.401 70.4491 156.172 70.5705C155.981 70.6674 153.119 69.8915 152.49 71.8684C151.13 70.1044 153.23 70.2015 155.533 69.8723C155.864 69.4944 153.344 69.1958 153.216 69.2014C150.008 69.2943 151.806 70.7302 151.124 71.7004C151.029 71.836 150.867 71.8662 150.704 71.8625C150.253 71.8522 149.789 71.5847 150.676 72.5315C147.813 72.7738 149.533 71.9394 149.347 71.8313C149.063 71.6742 148.061 72.0931 147.931 72.0481C147.744 71.9796 148.38 71.4928 147.64 71.3586C147.515 71.3405 146.35 72.1822 147.889 72.5012C145.841 72.4696 146.024 73.1439 145.282 71.8059C143.934 74.4548 144.191 70.3211 143.618 70.2004C142.088 69.8853 142.596 71.8961 142.521 72.0012C142.005 72.6598 137.702 72.1586 136.612 72.5002C136.989 71.016 140.05 72.3282 140.693 72.0139C142.87 70.968 137.537 71.4232 139.077 69.509C138.416 70.0451 137.753 70.5819 137.086 71.1184C135.771 69.9904 137.562 69.3956 134.143 69.9768C133.623 71.0237 136.566 69.7115 135.998 70.5422C135.668 71.0301 133.677 71.2178 133.641 71.468C133.616 71.7699 135.408 71.3377 135.141 71.8108C134.586 72.8376 127.842 72.1537 132.919 71.4084C131.69 71.4734 130.913 70.004 129.93 70.0559C129.783 70.0637 129.631 70.1057 129.471 70.1916C129.175 70.352 129.638 70.8131 129.976 71.3127C130.266 71.7405 130.465 72.1974 130.02 72.5207C129.592 72.8292 128.581 73.0189 126.452 72.927C126.281 71.9984 129.203 72.5651 129.271 72.4895C129.371 72.3803 128.778 70.2889 128.684 70.1877C128.38 69.8694 121.306 71.1833 119.722 70.1174C120.173 70.9877 117.159 70.7498 115.141 70.6467C114.421 70.6076 113.84 70.5978 113.668 70.7014C113.505 70.8023 114.114 71.552 113.941 71.6301C112.857 72.0907 109.891 70.7304 108.503 70.677C106.954 70.6171 107.147 71.2593 107.061 71.258C106.377 71.2116 106.923 70.7848 106.504 70.7795C105.876 70.7752 101.502 70.6013 101.273 70.6828C101.208 70.7094 101.924 71.4578 100.962 71.5735C100.794 71.5916 100.912 70.7341 98.0464 71.0266C94.5821 71.3697 100.436 72.1738 98.9927 73.0363C96.7835 71.6813 96.8396 72.9577 96.2339 72.8371C96.0209 72.7908 94.476 71.6566 92.7642 71.6535C93.9949 71.5294 95.2217 71.3979 96.4371 71.2619C95.2485 71.0342 92.9093 71.1796 91.9127 70.9201C91.429 70.7938 91.8494 69.9253 90.7896 69.9016C90.5633 69.9008 89.6281 72.0245 92.4205 71.177C92.6266 71.9592 91.3207 71.3995 90.6988 71.5881C90.6044 71.6193 90.2105 72.8885 89.438 72.0481C89.2491 71.8303 91.4328 68.2127 86.0074 70.6223C85.831 70.6991 86.4171 71.2042 86.2447 71.2912C86.1247 71.3499 84.7542 71.0739 84.5972 71.1291C84.4381 71.1901 85.0878 71.7448 84.898 71.8332C83.9164 72.287 82.7435 70.1767 84.7095 70.4631C84.0585 70.1697 83.4126 69.8749 82.7593 69.5774C83.4024 71.1526 81.6975 69.9317 80.7681 69.9026C74.7357 69.6791 78.6979 71.0129 77.6294 71.4319C75.8721 72.0793 77.3629 69.6313 74.7525 70.135C74.5306 70.1734 76.9256 71.3322 73.1627 70.6516C72.6416 70.5599 72.073 70.4421 71.3111 70.2727C71.9616 70.3322 72.5493 70.3795 73.1822 70.427C73.5222 70.4519 73.8634 70.4755 74.2046 70.4983C74.0761 70.0178 73.7007 69.814 73.2418 69.758C72.171 69.6335 70.6321 70.1591 70.4634 70.1477C67.6628 69.9206 69.7075 69.7631 65.2466 69.7014C64.841 69.6895 64.0346 69.1633 63.1285 69.1418C59.381 69.0625 67.7864 70.5972 67.816 71.1037C68.0322 71.5409 58.9173 69.5027 58.6451 69.1428C57.4661 68.2122 62.8256 69.977 61.9449 68.9621C61.856 68.8154 58.1397 67.9638 55.3443 67.0637C52.5357 66.1753 51.754 65.9047 51.3511 65.6203C50.5896 64.9945 50.4245 62.9901 50.0464 65.1008C50.0585 64.8019 50.0572 64.5694 50.0464 64.3918C50.0132 63.296 49.5808 64.283 49.4605 64.2395C47.4379 63.577 47.283 63.5472 45.0211 63.3332C44.5005 63.2835 44.1325 62.5823 43.9322 62.6555C43.8162 62.7004 43.9473 63.4053 43.3902 63.5188C42.6646 63.6731 38.0229 62.205 37.6617 61.7776C37.3458 61.3554 39.7165 61.9538 39.3472 61.2815C37.6341 60.9411 35.9274 60.8151 34.0826 60.4406C33.3115 60.2822 33.7546 59.934 33.4214 59.8694C33.299 59.8472 30.4962 59.7293 30.5836 59.8957C30.9646 60.3476 39.0461 61.4501 36.8433 61.8274C36.4309 61.9024 35.0954 60.7019 35.1978 61.9074C32.8634 61.4248 30.4724 60.9279 27.7173 60.302C26.3209 59.9816 24.879 59.6473 22.9371 59.133C21.9271 58.8601 20.9112 58.5896 19.1793 58.0178C18.7929 57.8869 18.2545 57.7022 17.6978 57.4914C17.4168 57.3852 17.1222 57.2692 16.8111 57.1418C16.4729 57.0042 16.0569 56.8291 15.6373 56.6389C15.2127 56.4467 14.7567 56.2295 14.2603 55.9738C13.7203 55.697 12.9971 55.303 12.2515 54.8401C10.9525 53.9902 8.37242 52.4638 5.36871 48.7004C2.97026 45.6329 0.211437 40.6748 0.0171444 33.8176C-0.270891 26.7961 3.14136 20.5668 4.91949 18.3371C9.59814 12.5878 11.2768 12.4283 13.1343 11.1897C15.9292 9.713 17.1896 9.40733 18.3199 9.0422C20.4013 8.44287 21.4577 8.29449 22.563 8.11251C24.6072 7.80932 26.1112 7.70196 27.5669 7.60373C26.2258 7.97836 24.782 8.23341 22.7837 8.6047C21.7063 8.81928 20.6897 8.97794 18.6421 9.56662C17.5606 9.91501 16.3647 10.1937 13.6255 11.6096C12.8947 12.0002 11.843 12.6123 10.6978 13.4465C9.68761 14.1983 7.82723 15.5819 5.71441 18.2854C3.92945 20.4901 0.524386 26.1749 0.610894 33.2902C0.667906 40.2572 3.44006 45.2538 5.84039 48.3293C10.8169 54.1599 13.0978 54.5174 14.774 55.5686C16.2903 56.3283 17.3628 56.7353 18.1724 57.0412C19.8391 57.6524 20.8126 57.9324 21.7466 58.2033C23.5217 58.7068 24.7677 58.9949 25.9654 59.2317C26.786 59.3995 29.1034 59.958 28.8882 59.3205C27.5069 59.0079 25.9792 58.714 23.9693 58.259C22.9586 58.0245 21.827 57.7657 20.1509 57.2649C19.2979 57.0022 18.2811 56.6924 16.691 56.0344C15.7547 55.6314 15.034 55.3382 13.3336 54.3713C12.5138 53.8876 11.7802 53.4392 10.5572 52.511C9.26375 51.5113 7.73561 50.1781 6.11089 48.1154C3.59075 44.8862 0.659322 39.5303 0.977105 32.0256C1.14303 28.4334 2.17092 25.0874 3.44097 22.5432C4.5736 20.2848 5.63171 18.8663 6.70953 17.5842C7.7548 16.354 8.83619 15.354 9.60699 14.7111C10.2814 14.1476 10.9015 13.6893 11.4712 13.2981C12.5852 12.531 13.6487 11.9505 14.2066 11.6682C16.9039 10.3358 17.9925 10.1105 19.0015 9.80392C20.9587 9.27713 21.9734 9.16108 22.9859 9.04318C23.1592 9.02689 22.6383 9.63013 23.2955 9.6008C24.6283 9.50827 27.5336 8.37657 28.0035 8.55197C28.1034 8.58781 26.5389 9.41492 27.1177 9.77853C27.1356 9.78975 27.154 9.8005 27.1714 9.81076C28.1182 8.65097 29.054 7.75012 29.8853 7.03341C31.0437 6.04623 32.091 5.3466 33.0074 4.80197C34.6237 3.86065 35.6436 3.46277 36.4703 3.13888C37.8499 2.62619 38.6448 2.43446 38.7261 2.39572C39.1649 2.22344 38.4588 1.80518 38.9019 1.61642C39.026 1.56441 39.4814 1.46189 40.0816 1.3674C40.6824 1.27312 41.2407 1.23 41.9029 1.1838C43.0912 1.11954 44.2071 1.14539 44.8902 1.09591C45.0765 1.08186 45.2513 1.0664 45.4156 1.05099C47.3445 0.888568 47.4899 0.493046 47.6685 0.481655C48.2162 0.463474 49.1198 0.787096 50.1587 0.789272C55.3418 0.77471 62.1372 1.05194 65.5562 2.36935C62.5044 1.66549 59.5144 1.79251 56.2544 1.73654C57.206 0.802512 51.377 2.26621 54.7916 1.2883C53.9641 1.3866 50.1538 1.25411 45.4878 1.59787C44.2232 1.7068 43.0528 1.80688 41.2447 2.14279C41.027 2.18393 40.8111 2.22684 40.5845 2.27462C40.3187 2.33215 40.0481 2.39342 39.772 2.46115C39.2125 2.60024 38.683 2.73884 37.8746 3.00412C37.1127 3.25975 36.3301 3.53251 35.0933 4.1174C34.0457 4.62176 32.3236 5.51394 30.3423 7.17599C29.5375 7.87038 28.5595 8.78176 27.5699 9.9758C28.5917 10.189 28.6367 8.31466 29.5718 8.26193C29.7067 8.25319 29.9393 8.26559 30.2398 8.28732C31.214 7.40546 31.8589 6.94017 32.6031 6.42794C35.5819 4.49545 36.9061 4.19201 38.022 3.77951C39.2602 3.37672 39.8655 3.2508 40.6334 3.07931C43.2505 2.55702 44.4147 2.5319 45.5953 2.41623C46.681 2.33308 47.447 2.27765 47.7378 2.21603C47.0523 2.17077 46.2905 2.14193 45.5562 2.12228C44.6051 2.11769 43.679 2.1186 42.4654 2.22091C43.6641 2.10841 44.6036 2.02385 45.5318 1.93185C48.1118 1.69379 50.075 1.49228 50.3628 2.5754C61.5994 2.81066 70.8008 4.28199 80.1744 5.52072C81.8267 5.84047 80.9098 6.54644 83.6226 6.64083C82.9287 6.29787 82.2328 5.95066 81.5357 5.59982C82.9381 5.96874 89.0312 7.07422 89.9976 7.02462C90.1216 7.01866 90.312 6.34364 91.8043 6.47287C93.1333 6.58649 93.3398 7.12091 94.0484 7.29904C94.6383 7.44684 95.3008 7.3887 95.4761 7.43576C95.6103 7.47279 95.6674 7.78386 95.9888 7.8713C97.0042 8.14098 96.1726 7.20683 97.1939 8.28537C96.9502 8.29799 96.7043 8.31004 96.4576 8.32248C96.9197 8.42196 97.4396 8.5681 97.815 8.71212C98.4153 8.93276 98.6736 9.15189 97.8257 9.21603C97.7493 9.22195 97.6632 9.22677 97.5669 9.2297C97.2589 9.23907 97.5183 8.97337 97.2877 8.95236C88.8548 8.15782 94.4335 9.23616 97.8267 9.25705C98.1248 9.25904 98.4065 9.25369 98.6617 9.24044C99.5049 9.74199 104.228 9.84183 104.397 9.93185C104.62 10.0618 103.818 10.3316 104.896 10.6799C105.115 10.7571 111.51 10.9233 109.226 11.299C108.752 11.3799 105.68 11.0924 104.947 11.0608C106.707 12.0074 110.75 11.0324 111.215 11.1018C113.082 11.3248 107.673 11.6133 111.869 11.9192C115.104 12.1474 112.045 11.4712 113.278 11.3117C113.968 11.231 117.673 11.9856 117.541 11.2668C118.802 11.2662 118.082 11.5964 118.238 11.633C118.391 11.6631 120.876 11.5996 121.696 11.7932C121.795 11.8165 121.503 12.1515 121.605 12.1867C121.805 12.2457 124.211 12.3098 124.313 12.2883C124.374 12.2722 123.784 11.9369 124.018 11.8781C124.289 11.8105 126.62 12.0326 126.751 11.9602C126.927 11.8455 124.05 11.7356 124.516 11.4338C125.846 11.6072 128.004 11.5461 128.876 11.3674C128.663 11.4217 127.372 11.3303 126.922 11.2697C127.116 10.8079 129.89 11.0588 128.955 11.342C129.55 11.1966 129.136 11.0577 129.468 10.9035C129.557 10.8647 130.414 10.9336 130.578 10.8713C130.57 10.8509 129.71 10.6015 129.88 10.5266C130.195 10.3877 132.804 10.6947 133.021 10.761C133.625 10.9416 131.503 10.868 131.332 11.0432C131.321 11.0743 133.107 11.6021 133.154 11.6399C133.268 11.9902 131.255 11.5648 131.493 11.8996C131.992 12.0078 132.489 12.1155 132.988 12.2229C131.082 12.3724 127.546 11.9533 126.653 12.2824C129.472 12.3455 132.44 12.5992 132.459 13.3986C132.468 13.7356 131.258 13.8665 131.305 13.9582C131.494 14.2795 133.166 14.0373 133.238 14.0588C133.289 14.0802 133.314 14.0999 133.315 14.1174C133.318 14.2926 130.915 14.2972 130.796 14.3791C130.601 14.5221 131.688 15.1827 131.693 15.3166C131.657 15.3405 129.952 15.4299 130.537 15.6887C131.129 15.9466 132.619 15.9938 132.676 16.0207C132.964 16.1661 130.359 16.2318 130.282 16.3195C130.247 16.3636 131.648 16.6521 131.697 16.7277C131.734 16.8032 130.675 16.9525 130.264 17.1936C129.959 17.3728 130.871 17.5159 130.713 17.5432C130.65 17.5524 129.873 17.5563 129.169 17.5627C129.611 17.6901 129.78 17.8904 129.454 18.1916C129.383 18.2544 128.883 18.2405 128.363 18.2346C128.827 18.3565 129.404 18.5096 129.87 18.6477C130.025 18.6396 130.131 18.6396 130.156 18.6574C130.199 18.6902 130.226 18.7249 130.238 18.76C130.522 18.8541 130.71 18.9342 130.708 18.9817C130.7 19.0857 130.378 19.0885 130.031 19.0822C129.889 19.1854 129.685 19.2936 129.449 19.4065C129.654 19.5211 129.983 19.6766 130.477 19.8811C130.498 19.8889 131.224 19.7757 131.252 19.7824C131.528 19.9182 130.804 20.135 130.791 20.2522C130.899 20.2484 131.008 20.2441 131.117 20.2404C131.441 20.0044 131.531 19.6011 131.589 19.5891C132.715 19.3756 132.107 20.0871 132.485 20.0559C132.67 20.0376 134.568 18.7086 134.571 20.133C135.151 20.1153 135.731 20.0984 136.311 20.0793C137.479 19.762 138.047 19.5359 138.179 19.3781C137.94 19.3884 137.729 19.3978 137.722 19.3899C137.612 19.2745 137.626 19.1888 137.734 19.1223C136.713 18.9899 134.228 19.1051 131.987 19.2463C133.378 18.4577 136.231 18.7097 137.52 18.4973C137.655 18.4747 137.721 18.3998 137.772 18.3039C137.505 18.2424 137.272 18.1807 137.279 18.1701C137.346 18.0425 137.647 17.9857 137.932 17.9475C137.959 17.9002 137.992 17.8546 138.033 17.8117C137.723 17.8284 137.369 17.8597 137.366 17.8449C137.321 17.5431 138.326 17.6637 138.177 17.5774C137.852 17.3792 133.683 17.0511 139.108 16.8235C134.617 17.5128 138.543 17.2123 140.294 16.9436C140.74 16.875 140.846 16.6759 141.482 16.5578C142.299 16.4049 143.264 16.4209 143.688 16.3508C144.142 16.271 141.529 16.0248 145.291 15.844C143.359 15.5408 140.005 16.3267 138.122 16.176C134.327 15.9109 140.726 15.1827 141.394 15.0432C141.571 15.0081 140.966 14.8094 141.083 14.7815C141.274 14.7357 144.924 14.4848 145.277 14.2219C145.625 13.9594 143.94 14.3719 143.819 14.1526C143.747 14.0085 148.126 13.2367 145.741 13.3938C144.094 13.5141 141.097 14.4596 140.565 13.8694C142.969 13.5372 145.379 13.1973 147.798 12.8596C146.463 12.7443 145.13 12.6429 143.801 12.5549C146.504 12.1238 148.865 12.1415 151.444 11.4309C145.188 11.3378 153.437 10.4551 153.534 10.3342C153.549 10.2568 151.078 9.85185 150.679 9.78244C152.831 9.1949 159.507 8.12901 155.573 7.73263C156.286 7.84255 157.993 7.06905 157.972 7.02951C157.736 6.63388 153.999 7.47298 154.599 7.00998C155.293 6.46712 156.303 6.899 157.395 6.69162C163.022 5.63901 161.42 3.52982 167.208 3.08712C167.092 3.01703 166.976 2.94662 166.86 2.87716C170.269 2.48337 173.731 2.15989 177.252 1.93771C180.22 1.7473 183.19 1.61855 186.184 1.55685C188.777 0.584882 195.694 -0.129447 199.041 0.0197408ZM75.6851 72.2805C74.64 71.4238 78.9761 72.4887 79.2525 72.3156C79.4856 73.1868 75.9574 72.5046 75.6851 72.2805ZM78.5728 71.3254C77.604 70.4282 82.644 71.327 80.2632 71.6604C80.1569 71.6766 78.6196 71.3701 78.5728 71.3254ZM142.777 69.7336C142.285 69.6241 139.541 70.0973 139.439 70.1955C138.737 71.0458 142.504 70.6904 142.777 69.7336ZM126.064 68.7766C124.046 68.9086 126.35 69.8262 123.619 69.2014C124.724 70.0749 126.552 69.9345 126.064 68.7766ZM134.583 69.7395C135.819 69.5755 137.02 67.2484 135.504 67.6672C135.344 67.7129 134.43 69.4291 134.583 69.7395ZM129.203 69.0363C130.39 68.4287 127.787 68.0565 128.046 68.7942C128.081 68.834 129.157 69.0624 129.203 69.0363ZM88.774 68.5959C88.6921 68.4905 87.1405 68.1756 87.1509 68.5559C87.1742 69.0292 89.0078 68.9124 88.774 68.5959ZM118.794 68.6115C119.03 68.3993 117.319 67.6208 116.828 67.8576C115.704 68.4018 118.322 69.0415 118.794 68.6115ZM103.174 68.2863C102.613 68.0704 100.716 68.2652 101.569 68.6418C101.702 68.6974 103.229 68.632 103.174 68.2863ZM50.7056 66.0969C50.8144 65.9912 51.1612 65.9649 51.7457 66.1233C52.3685 66.2882 53.1441 66.6397 55.7515 67.7024C55.6229 68.2281 55.6726 68.0667 54.9205 67.8567C52.0613 67.0437 51.7355 66.8844 51.1968 66.6272C50.7524 66.3966 50.5992 66.2049 50.7056 66.0969ZM223.105 67.2307C223.101 66.8839 220.563 67.0307 220.383 67.6584C220.854 67.5689 223.091 67.4552 223.105 67.2307ZM230.15 65.761C231.736 65.1473 229.946 65.4201 228.579 65.6692C227.188 65.9267 225.986 66.2426 227.131 66.3244C227.224 66.346 229.905 65.8518 230.15 65.761ZM46.8052 65.2561C47.1731 64.794 48.0776 65.1354 48.607 65.301C48.4811 65.6441 47.2889 65.2529 46.8052 65.2561ZM42.1353 64.1985C42.0396 63.3589 44.2371 64.3616 44.9771 64.3957C45.0704 65.2399 42.9608 64.2333 42.1353 64.1985ZM36.3511 64.0363C35.2677 63.2488 39.2021 64.0721 37.8687 64.3567C37.8054 64.3694 36.4125 64.0756 36.3511 64.0363ZM57.1451 63.5764C56.0258 63.3092 54.3661 62.1167 54.3619 62.9748C54.8369 63.0423 56.6095 63.8399 57.1451 63.5764ZM26.5562 62.1027C27.237 61.728 29.385 62.3672 30.3296 62.55C29.6338 63.0332 27.8684 62.3831 26.5562 62.1027ZM46.5005 60.8498C46.0503 60.3001 45.1824 61.2451 45.606 61.7268C46.0685 61.8724 46.5452 60.9113 46.5005 60.8498ZM49.8296 60.7971C49.5993 60.7534 49.5261 61.3434 49.5513 61.3772C50.287 62.3178 50.4495 60.9196 49.8296 60.7971ZM49.23 61.511C49.8129 61.3785 49.026 60.175 48.1314 61.009C48.5265 61.002 49.1787 61.5232 49.23 61.511ZM215.613 60.2629C215.589 60.2616 215.579 60.284 215.576 60.3195C215.613 60.3416 215.65 60.3639 215.687 60.3879C216.37 60.7287 216.659 60.8252 216.771 60.844C217.013 60.8703 217.133 60.8567 217.17 60.8205C216.528 60.547 215.829 60.2761 215.613 60.2629ZM213.225 58.9319C213.488 59.124 213.72 59.2821 213.928 59.4152C214.379 59.5537 214.727 59.6742 214.888 59.7863C215.009 59.6826 215.037 59.5936 214.999 59.5149C214.859 59.4334 214.712 59.3453 214.557 59.2502C214.2 59.1323 213.689 59.0365 213.225 58.9319ZM32.5904 59.0676C32.328 58.8908 30.9287 58.82 30.8707 59.0227C30.7193 59.6416 33.6786 59.7888 32.5904 59.0676ZM156.134 21.6428C155.509 21.6428 154.861 21.8216 154.191 22.1789C153.521 22.4916 152.985 22.9154 152.583 23.4514C152.181 23.9874 151.801 24.6354 151.444 25.3947C151.087 26.1093 150.752 26.8909 150.439 27.7395C150.171 28.5881 149.948 29.415 149.769 30.219C149.59 31.0228 149.412 31.849 149.233 32.6975C149.054 33.5015 148.853 34.3728 148.629 35.3108C148.406 36.2485 148.206 37.0747 148.027 37.7893C147.893 38.4593 147.737 39.1745 147.558 39.9338C147.424 40.6931 147.267 41.4973 147.088 42.3459C146.91 43.1498 146.709 44.0877 146.486 45.1594C146.307 46.2313 146.151 47.1471 146.017 47.9065L145.934 48.2375C145.525 48.2163 145.15 48.1952 144.811 48.174L143.739 48.1076C143.735 48.1084 143.623 48.1302 143.404 48.174C143.225 48.174 143.046 48.2195 142.868 48.3088C142.689 48.3535 142.51 48.4207 142.332 48.51C142.271 48.5505 142.21 48.5996 142.149 48.6584C142.019 48.6781 141.879 48.7175 141.729 48.7776C141.55 48.8222 141.372 48.8894 141.193 48.9787C141.059 49.068 140.925 49.1797 140.791 49.3137C140.657 49.4476 140.545 49.6039 140.456 49.7824C140.366 49.9611 140.277 50.1399 140.188 50.3186C140.143 50.4971 140.121 50.6979 140.121 50.9211C140.121 51.0998 140.143 51.3013 140.188 51.5246C140.233 51.7033 140.322 52.0383 140.456 52.5295C140.634 52.9762 140.858 53.557 141.126 54.2717C141.394 54.9417 141.662 55.567 141.93 56.1477C142.063 56.4361 142.163 56.6529 142.23 56.7981C142.275 56.9219 142.331 57.04 142.399 57.1526L142.431 57.1848C142.459 57.2313 142.493 57.2876 142.533 57.3537C142.67 57.4911 142.821 57.6148 142.985 57.7258C143.192 57.8853 143.398 58.0073 143.605 58.0901C143.873 58.1794 144.119 58.2248 144.342 58.2248C144.377 58.2248 144.412 58.2215 144.447 58.2199C144.502 58.2225 144.557 58.2248 144.61 58.2248C144.878 58.1802 145.124 58.113 145.347 58.0236C145.615 57.9343 145.839 57.7999 146.017 57.6213C146.224 57.4557 146.371 57.2696 146.462 57.0656C146.557 56.9233 146.623 56.7812 146.663 56.6389C146.688 56.5663 146.709 56.4917 146.726 56.4152C146.747 56.3407 146.764 56.2662 146.778 56.1916C146.844 55.958 146.861 55.7426 146.821 55.5442C146.815 55.5061 146.805 55.469 146.796 55.4319C146.775 55.2829 146.74 55.1411 146.687 55.008C146.598 54.7401 146.463 54.4277 146.285 54.0705C146.154 53.8087 146.001 53.4742 145.822 53.0686C146.249 53.0897 146.716 53.1109 147.223 53.132C148.295 53.1767 149.211 53.1994 149.97 53.1994C150.729 53.1994 151.534 53.2222 152.382 53.2668C153.231 53.2668 154.057 53.2441 154.861 53.1994C155.71 53.1548 156.558 53.1103 157.407 53.0656C158.255 52.9763 159.015 52.9319 159.685 52.9319C160.4 52.8872 161.092 52.8645 161.762 52.8645C162.432 52.8198 163.147 52.7971 163.906 52.7971C164.71 52.7971 165.447 52.8425 166.117 52.9319C166.831 52.9765 166.988 53.4003 166.586 54.2043C166.228 54.9636 166.005 55.4329 165.916 55.6115C165.829 55.7844 165.785 55.8736 165.782 55.8791C165.782 55.8791 165.76 56.0135 165.715 56.2815C165.715 56.285 165.714 56.2887 165.713 56.2922C165.67 56.4566 165.648 56.6316 165.648 56.8176C165.648 56.844 165.65 56.8706 165.651 56.8977C165.649 56.9602 165.648 57.0227 165.648 57.0852C165.693 57.3085 165.76 57.5545 165.849 57.8225C165.919 57.9389 165.995 58.0493 166.077 58.1535C166.09 58.177 166.103 58.2014 166.117 58.2248C166.287 58.4376 166.478 58.6088 166.689 58.7404C166.764 58.7944 166.84 58.8466 166.92 58.8947C167.098 59.0015 167.291 59.0781 167.498 59.1281C167.724 59.1949 167.933 59.2297 168.127 59.2297C168.278 59.2044 168.423 59.1697 168.56 59.1301C168.765 59.0874 168.956 59.0318 169.132 58.9611C169.4 58.8272 169.624 58.6709 169.802 58.4924C169.981 58.2692 170.114 58.0457 170.204 57.8225C170.274 57.7047 170.326 57.5806 170.359 57.4504C170.434 57.2865 170.517 57.0985 170.606 56.885C170.874 56.3043 171.097 55.678 171.276 55.008C171.499 54.2936 171.611 53.6016 171.611 52.9319C171.656 52.2172 171.544 51.5464 171.276 50.9211C171.008 50.2513 170.606 49.7156 170.07 49.3137C169.579 48.867 168.998 48.5766 168.328 48.4426C167.702 48.264 167.01 48.1523 166.251 48.1076C166.05 48.084 165.848 48.0635 165.644 48.0461C165.635 47.7675 165.571 47.2961 165.447 46.633C165.358 45.8739 165.269 45.1366 165.179 44.4221C165.09 43.6629 164.978 42.8812 164.844 42.0774C164.755 41.2287 164.665 40.4917 164.576 39.8664C164.486 39.1964 164.375 38.4367 164.241 37.5881C164.151 36.7397 164.04 35.9806 163.906 35.3108C163.817 34.6409 163.705 33.9708 163.571 33.301C163.437 32.631 163.303 31.983 163.169 31.3576C163.079 30.6876 162.968 29.9951 162.834 29.2805C162.7 28.5658 162.521 27.8733 162.297 27.2033C162.119 26.5334 161.851 25.8408 161.494 25.1262C161.136 24.3671 160.645 23.7197 160.02 23.1838C159.395 22.6031 158.747 22.2011 158.077 21.9777C157.452 21.7545 156.804 21.6428 156.134 21.6428ZM211.577 57.5988C211.944 57.9172 212.273 58.1917 212.571 58.4289C212.714 58.3659 212.878 58.2896 213.01 58.2121C212.782 58.0451 212.545 57.8644 212.299 57.6701C212.1 57.6476 211.861 57.6236 211.577 57.5988ZM219.287 57.7444C219.301 57.8065 219.319 57.8575 219.374 57.8762C219.593 57.9358 219.513 57.8675 219.287 57.7444ZM226.305 54.8401C229.869 53.0878 225.768 53.9058 225.297 54.3625C225.264 54.3927 225.253 54.5172 225.225 54.6897C225.291 54.6727 225.343 54.6588 225.36 54.6565C225.678 54.6231 225.389 54.8424 225.162 54.9895C225.147 55.0411 225.13 55.0947 225.11 55.1486C225.053 55.3371 224.916 55.5532 225.05 55.6447C225.143 55.6787 225.266 55.7089 225.917 55.4914C226.258 55.37 226.747 55.1944 227.729 54.6906C228.072 54.4438 228.412 54.2987 228.842 54.0822C227.857 54.3984 227.028 54.6461 226.305 54.8401ZM220.393 55.0402C220.345 55.0893 220.274 55.1266 220.11 55.1164C220.148 55.3642 220.215 55.5799 220.292 55.4094C220.337 55.3125 220.384 55.1752 220.393 55.0402ZM33.5044 55.007C33.2117 55.1001 32.9757 55.1967 32.8824 55.2795C32.8007 55.3575 32.8136 55.4441 33.3003 55.3967C33.6679 55.1841 33.8639 54.9999 33.5972 54.9797C33.566 54.9892 33.5345 54.9975 33.5044 55.007ZM128.842 24.7912C128.485 24.7912 128.083 24.8139 127.636 24.8586C127.19 24.8586 126.72 24.8813 126.229 24.926C125.738 24.9706 125.179 25.0151 124.554 25.0598C123.974 25.1044 123.348 25.1716 122.678 25.261L121.673 25.3947C121.671 25.3954 121.582 25.4172 121.406 25.4611C121.274 25.4942 121.141 25.5393 121.008 25.5969C120.85 25.6015 120.693 25.6229 120.535 25.6623C120.356 25.707 120.177 25.7742 119.999 25.8635C119.82 25.9528 119.664 26.0646 119.53 26.1985C119.396 26.3324 119.261 26.4886 119.127 26.6672C119.038 26.8012 118.948 26.9583 118.859 27.1369L118.725 27.6721V35.3108C118.77 35.668 118.793 36.0475 118.793 36.4494C118.837 36.8066 118.859 37.1863 118.859 37.5881V38.7942C118.904 39.1515 118.926 39.5091 118.926 39.8664C118.971 40.2236 118.994 40.6032 118.994 41.0051V46.633C119.038 47.0349 119.06 47.3927 119.06 47.7053V49.7151C119.105 50.0276 119.127 50.43 119.127 50.9211C119.171 51.3565 119.194 51.58 119.195 51.591C119.195 51.591 119.195 51.5959 119.197 51.6047C119.196 51.6445 119.195 51.685 119.195 51.7258C119.23 51.9347 119.278 52.1299 119.34 52.3117C119.375 52.4289 119.416 52.5461 119.462 52.6633C119.541 52.7938 119.628 52.9162 119.721 53.0315C119.746 53.0648 119.771 53.0987 119.797 53.132C119.818 53.1525 119.84 53.1718 119.861 53.1916C119.884 53.2167 119.907 53.2426 119.931 53.2668C119.965 53.2937 120 53.3181 120.034 53.344C120.103 53.4002 120.175 53.4544 120.25 53.5051C120.367 53.5878 120.484 53.6651 120.601 53.7356C120.824 53.8249 121.07 53.8921 121.338 53.9367C121.606 53.9367 121.852 53.914 122.076 53.8694C122.344 53.7801 122.589 53.6683 122.812 53.5344C123.035 53.4004 123.214 53.2442 123.348 53.0656C123.527 52.8423 123.661 52.619 123.751 52.3957C123.776 52.3196 123.796 52.2446 123.814 52.1721C123.843 52.09 123.868 52.009 123.884 51.927C123.929 51.659 123.929 51.3013 123.884 50.8547C123.884 50.408 123.862 49.9833 123.817 49.5813V42.8147C123.817 42.4575 123.795 42.0778 123.751 41.676V40.4699C123.751 40.0233 123.728 39.5985 123.683 39.1965C123.638 38.7945 123.617 38.3924 123.617 37.9904V36.6506C123.617 36.2039 123.594 35.7792 123.549 35.3772C123.505 34.9753 123.482 34.573 123.482 34.1711V29.9865C124.086 29.9135 124.622 29.8556 125.09 29.8166C125.626 29.772 126.117 29.7275 126.564 29.6828C127.055 29.6382 127.48 29.6154 127.837 29.6154H128.976C129.333 29.5708 129.803 29.5481 130.383 29.5481H135.744C135.745 29.5477 135.752 29.5457 135.765 29.5432C135.803 29.5449 135.84 29.5481 135.877 29.5481C136.145 29.5034 136.392 29.4372 136.615 29.3479C136.81 29.2696 136.987 29.1547 137.148 29.008C137.214 28.9583 137.272 28.9061 137.324 28.8518C137.497 28.6969 137.642 28.5288 137.753 28.343C137.887 28.1196 137.976 27.8954 138.021 27.6721C138.11 27.4043 138.133 27.1589 138.088 26.9358C138.071 26.8313 138.044 26.7307 138.013 26.633C137.967 26.3787 137.882 26.1444 137.753 25.9309C137.674 25.7981 137.577 25.6825 137.465 25.5813C137.45 25.5639 137.435 25.5452 137.419 25.5285C137.24 25.3499 137.038 25.1938 136.815 25.0598C136.697 24.9889 136.573 24.9369 136.442 24.9035C136.266 24.8285 136.078 24.7912 135.877 24.7912C135.809 24.7912 135.739 24.7941 135.67 24.8C135.603 24.7946 135.537 24.7912 135.475 24.7912H128.842ZM220.023 52.5451C219.258 52.4025 218.378 52.3569 218.588 52.7492C218.66 52.8886 219.256 52.9878 219.754 53.0432C220.26 53.1004 220.635 53.1068 220.657 53.1379C220.691 53.1859 220.561 53.3391 220.508 53.4953C220.445 53.6485 220.532 53.8247 220.75 53.8547C220.822 53.6252 221.14 53.063 221.139 52.9787C221.155 52.9227 221.129 52.8673 220.936 52.7883C220.747 52.7106 220.401 52.6152 220.023 52.5451ZM176.501 24.3899C176.322 24.3899 176.12 24.4343 175.897 24.5236C175.798 24.5485 175.699 24.5883 175.599 24.6408C175.565 24.6467 175.531 24.6505 175.496 24.6574C175.317 24.7021 175.138 24.7693 174.96 24.8586C174.826 24.9479 174.669 25.0597 174.491 25.1936C174.357 25.3275 174.222 25.4837 174.088 25.6623C173.999 25.7963 173.909 25.9525 173.82 26.1311C173.775 26.3097 173.731 26.5112 173.686 26.7346V29.9504C173.731 30.7544 173.753 31.5141 173.753 32.2287C173.798 32.8986 173.82 33.5686 173.82 34.2385V40.3352C173.82 41.0051 173.843 41.6977 173.887 42.4123C173.932 43.0823 173.955 43.7975 173.955 44.5569V46.633C173.999 47.303 174.044 47.9738 174.088 48.6438C174.133 49.3135 174.178 49.8493 174.222 50.2512C174.267 50.6532 174.29 50.8547 174.29 50.8547C174.29 50.8557 174.29 50.8603 174.292 50.8684C174.291 50.9079 174.29 50.9479 174.29 50.9885C174.334 51.2565 174.401 51.5025 174.491 51.7258C174.58 51.949 174.714 52.1725 174.892 52.3957C174.925 52.4288 174.96 52.4599 174.995 52.4914C175.027 52.527 175.059 52.5629 175.093 52.5969C175.272 52.7308 175.474 52.8643 175.697 52.9983C175.764 53.0652 175.83 53.1325 175.897 53.1994C176.076 53.2888 176.254 53.3786 176.433 53.468C176.656 53.5126 176.858 53.5571 177.037 53.6018H178.175C178.756 53.5571 179.448 53.5344 180.252 53.5344C181.101 53.4897 181.861 53.468 182.531 53.468C183.201 53.468 183.871 53.4897 184.541 53.5344C185.211 53.5344 185.903 53.5571 186.618 53.6018H189.164C189.431 53.6018 189.677 53.579 189.9 53.5344C190.168 53.4451 190.391 53.3333 190.57 53.1994C190.717 53.082 190.843 52.9533 190.951 52.8166C190.958 52.8099 190.965 52.8039 190.972 52.7971C191.151 52.6185 191.285 52.4178 191.375 52.1945C191.508 51.9267 191.576 51.6587 191.576 51.3908C191.613 51.1693 191.6 50.9637 191.545 50.7727C191.523 50.6372 191.49 50.5081 191.441 50.386C191.352 50.118 191.218 49.8937 191.04 49.7151C190.906 49.4919 190.727 49.3138 190.503 49.1799C190.28 49.0459 190.034 48.956 189.766 48.9113C189.574 48.8473 189.382 48.8186 189.19 48.8235C189.042 48.8066 188.876 48.7906 188.694 48.7776C188.069 48.7329 187.399 48.7102 186.684 48.7102H184.607C183.892 48.6655 183.178 48.6438 182.463 48.6438C181.749 48.6438 180.967 48.6655 180.119 48.7102H178.937C178.929 48.6019 178.92 48.4901 178.913 48.3752C178.868 47.7053 178.845 47.0354 178.845 46.3654C178.845 45.6955 178.823 45.0256 178.778 44.3557C178.778 43.6858 178.756 43.0158 178.711 42.3459C178.692 42.0511 178.677 41.7559 178.666 41.4611C179.241 41.4263 179.904 41.4074 180.654 41.4074C181.503 41.3628 182.285 41.3183 183 41.2736C183.759 41.229 184.496 41.2063 185.211 41.2063H188.091C188.095 41.2057 188.229 41.1839 188.494 41.1399C188.654 41.1131 188.805 41.0677 188.95 41.009C188.954 41.0074 188.958 41.0067 188.962 41.0051C188.966 41.0035 188.968 41.0008 188.971 40.9992C189.06 40.9618 189.147 40.921 189.23 40.8713C189.293 40.8335 189.354 40.7935 189.414 40.7522C189.492 40.7023 189.566 40.6536 189.632 40.6037C189.856 40.4251 190.035 40.2235 190.169 40.0002C190.302 39.7771 190.391 39.5316 190.436 39.2639C190.467 39.0814 190.474 38.909 190.463 38.7473C190.475 38.5741 190.467 38.4114 190.436 38.259C190.397 38.0262 190.306 37.8116 190.166 37.6125C190.081 37.4219 189.971 37.257 189.834 37.1194C189.806 37.0918 189.776 37.0658 189.747 37.0393C189.71 36.9979 189.672 36.9574 189.632 36.9182C189.454 36.7396 189.23 36.6061 188.962 36.5168C188.831 36.4643 188.692 36.4281 188.545 36.4065C188.506 36.3977 188.467 36.3888 188.426 36.382C188.203 36.3374 187.734 36.3156 187.019 36.3156C186.305 36.3156 185.59 36.3374 184.876 36.382C184.206 36.382 183.536 36.4048 182.866 36.4494C182.196 36.4941 181.436 36.5386 180.587 36.5832H178.644V34.2385C178.644 33.524 178.622 32.8094 178.578 32.0949C178.578 31.3804 178.555 30.6432 178.51 29.884V29.302C178.845 29.313 179.203 29.3279 179.583 29.3479C180.431 29.3925 181.213 29.4143 181.927 29.4143C182.731 29.4589 183.446 29.4816 184.071 29.4817C184.741 29.5263 185.433 29.5708 186.148 29.6154C186.907 29.6154 187.488 29.6382 187.89 29.6828H188.494C188.501 29.6816 188.635 29.6588 188.895 29.6154C189.051 29.5895 189.199 29.5457 189.339 29.4895C189.348 29.4864 189.357 29.4849 189.365 29.4817C189.633 29.3923 189.856 29.2579 190.035 29.0793C190.258 28.9008 190.436 28.6998 190.57 28.4768C190.704 28.2535 190.794 28.0301 190.838 27.8069C190.868 27.6279 190.876 27.4487 190.866 27.2697C190.876 27.0913 190.868 26.913 190.838 26.7346C190.794 26.4666 190.704 26.2206 190.57 25.9973C190.461 25.8151 190.321 25.6639 190.152 25.5412C190.023 25.3737 189.85 25.2349 189.632 25.1262C189.409 24.9922 189.163 24.9033 188.895 24.8586C188.672 24.814 188.448 24.7912 188.225 24.7912H186.752C185.992 24.7466 185.211 24.7248 184.407 24.7248C183.603 24.6802 182.843 24.6574 182.128 24.6574C181.414 24.6128 180.632 24.5683 179.784 24.5236C178.98 24.479 178.287 24.4345 177.707 24.3899H176.501ZM37.147 53.2942C37.1014 53.2993 37.0644 53.3086 37.0416 53.3254C36.9601 53.3847 36.898 53.4373 36.8531 53.4826C36.8975 53.4569 36.9439 53.4323 36.9898 53.4055C37.0421 53.367 37.0951 53.3301 37.147 53.2942ZM38.6451 52.3537C37.7005 52.5212 36.3714 52.8704 36.3511 53.2649C36.661 53.0752 37.3266 52.91 37.8101 52.8742C38.068 52.7198 38.3396 52.5571 38.6451 52.3537ZM201.818 48.3752C201.639 48.3306 201.438 48.3306 201.215 48.3752C201.037 48.3752 200.858 48.4207 200.679 48.51C200.501 48.5546 200.411 48.5764 200.411 48.5764C200.407 48.5792 200.302 48.6622 200.097 48.8264C200.081 48.8375 200.066 48.8501 200.05 48.8615C199.838 48.9936 199.645 49.1657 199.473 49.3801C199.339 49.6034 199.228 49.8495 199.138 50.1174C199.113 50.2428 199.096 50.3754 199.085 50.5149C199.08 50.5385 199.075 50.5621 199.071 50.5861C199.071 50.628 199.073 50.6702 199.074 50.7121C199.072 50.7589 199.071 50.8065 199.071 50.8547C199.071 51.1226 199.115 51.3905 199.205 51.6584C199.288 51.8656 199.41 52.0723 199.57 52.2795C199.681 52.443 199.805 52.5935 199.942 52.7307C200.165 52.8647 200.389 52.9763 200.612 53.0656C200.88 53.1549 201.148 53.1994 201.416 53.1994C201.445 53.1994 201.475 53.1966 201.504 53.1955C201.564 53.1977 201.624 53.1994 201.684 53.1994C201.89 53.1652 202.082 53.1174 202.261 53.0569L202.555 52.9983L202.689 52.9319C202.734 52.8872 202.845 52.82 203.024 52.7307C203.203 52.5967 203.337 52.4623 203.426 52.3283C203.56 52.1498 203.672 51.9708 203.761 51.7922C203.851 51.6137 203.917 51.4346 203.961 51.2561C204.006 51.0776 204.029 50.8993 204.029 50.7209C204.029 50.4976 203.984 50.2961 203.895 50.1174C203.85 49.8941 203.783 49.7152 203.694 49.5813C203.605 49.4027 203.493 49.2465 203.359 49.1125C203.225 48.9339 203.069 48.7995 202.89 48.7102C202.756 48.5762 202.577 48.4873 202.354 48.4426C202.175 48.3979 201.997 48.3752 201.818 48.3752ZM36.9459 50.011C36.7346 49.9784 34.6183 50.9681 35.5953 51.2434C36.2774 51.4323 36.2767 50.7256 36.4283 50.6887C36.5701 50.6557 40.4951 50.653 36.9459 50.011ZM217.471 48.5217C218.034 48.6852 217.982 48.5984 217.978 48.5744C217.965 48.5356 217.692 48.4962 217.285 48.4406C217.256 48.4368 217.227 48.4327 217.198 48.4289C217.304 48.4664 217.392 48.495 217.471 48.5217ZM155.665 27.6721C156.022 26.9577 156.447 26.9131 156.938 27.5383C157.429 28.1188 157.741 28.7889 157.876 29.5481C158.054 30.2626 158.189 30.9553 158.278 31.6252C158.412 32.2505 158.546 32.8986 158.68 33.5686C158.859 34.1938 158.992 34.9084 159.082 35.7121C159.216 36.5159 159.327 37.2532 159.417 37.9231C159.506 38.5484 159.596 39.3081 159.685 40.2014C159.819 41.05 159.931 41.8769 160.02 42.6809C160.154 43.4401 160.266 44.2217 160.355 45.0256C160.444 45.8296 160.556 46.6337 160.69 47.4377C160.733 47.6811 160.768 47.8856 160.797 48.051C160.332 48.0615 159.85 48.0799 159.35 48.1076L154.794 48.3752C154.034 48.4199 153.231 48.4426 152.382 48.4426C151.849 48.4129 151.324 48.394 150.81 48.384C150.954 47.7233 151.099 46.9614 151.243 46.0979C151.466 45.0259 151.645 44.0874 151.779 43.2834C151.958 42.4794 152.114 41.7197 152.248 41.0051C152.426 40.246 152.583 39.5541 152.717 38.9289C152.896 38.2589 153.052 37.5882 153.186 36.9182C153.365 36.2483 153.544 35.4666 153.722 34.5735C153.946 33.6802 154.146 32.876 154.325 32.1613C154.503 31.4022 154.682 30.6431 154.861 29.884C155.084 29.1247 155.352 28.3867 155.665 27.6721ZM217.599 47.5295C217.058 47.2875 216.216 47.084 216.073 47.2424C216.327 47.2472 217.094 47.5845 217.569 47.8508C218.081 48.1268 218.115 48.2621 218.141 48.1242C218.164 48.0515 218.199 47.9757 218.127 47.8752C218.061 47.7763 217.871 47.6498 217.599 47.5295ZM201.751 24.6574C201.081 24.6575 200.389 24.7919 199.674 25.0598C199.004 25.3278 198.356 25.7071 197.731 26.1985C197.15 26.6898 196.548 27.3378 195.922 28.1418C195.297 28.9011 194.805 29.5482 194.448 30.0842L193.912 30.8215C193.91 30.8249 193.865 30.9141 193.778 31.0891C193.733 31.2677 193.689 31.4693 193.644 31.6926C193.599 31.8711 193.577 32.072 193.577 32.2951C193.577 32.4737 193.599 32.6527 193.644 32.8313C193.733 33.0099 193.822 33.1888 193.912 33.3674C194.001 33.5459 194.113 33.7022 194.247 33.8361C194.381 33.9701 194.538 34.1045 194.716 34.2385C194.895 34.3277 195.073 34.4169 195.252 34.5061C195.43 34.5507 195.609 34.5962 195.788 34.6408C196.011 34.6408 196.213 34.6181 196.391 34.5735C196.57 34.5288 196.749 34.4843 196.927 34.4397C197.151 34.3504 197.329 34.2604 197.463 34.1711C197.642 34.0373 197.776 33.9035 197.865 33.7697C197.999 33.5911 198.222 33.2334 198.535 32.6975C198.892 32.1615 199.294 31.6251 199.741 31.0891C200.232 30.5532 200.79 30.1737 201.416 29.9504C202.086 29.6824 202.734 29.6607 203.359 29.884C203.984 30.0627 204.364 30.5092 204.498 31.2238C204.676 31.9384 204.632 32.6528 204.364 33.3674C204.096 34.0374 203.694 34.7072 203.158 35.3772C202.666 36.0472 202.197 36.6507 201.751 37.1867C201.349 37.6779 200.969 38.2137 200.612 38.7942C200.299 39.3748 200.031 40.0456 199.808 40.8049C199.585 41.5193 199.429 42.2113 199.339 42.8811C199.295 43.5064 199.272 43.8195 199.272 43.8195C199.272 43.8224 199.295 43.9567 199.339 44.2219C199.384 44.4896 199.45 44.7351 199.54 44.9582C199.674 45.1815 199.831 45.4048 200.009 45.6281C200.233 45.8068 200.456 45.9639 200.679 46.0979C200.902 46.1871 201.148 46.2534 201.416 46.2981C201.505 46.2981 201.594 46.2942 201.683 46.2893C201.773 46.2943 201.862 46.2981 201.952 46.2981C202.167 46.2622 202.368 46.2114 202.554 46.1467C202.588 46.1353 202.622 46.1227 202.655 46.1096C202.666 46.1052 202.678 46.1023 202.689 46.0979C202.957 46.0085 203.18 45.8742 203.359 45.6955C203.392 45.662 203.424 45.6262 203.456 45.591C203.491 45.5591 203.527 45.5279 203.56 45.4944C203.739 45.2711 203.872 45.0477 203.961 44.8244C203.994 44.7435 204.019 44.6593 204.04 44.5725C204.062 44.4979 204.082 44.4259 204.096 44.3557C204.141 44.0878 204.163 43.8198 204.163 43.552C204.207 43.284 204.342 42.8365 204.565 42.2111C204.788 41.5413 205.123 40.9157 205.57 40.3352C206.061 39.7099 206.552 39.0845 207.044 38.4592C207.535 37.7892 207.982 37.075 208.384 36.3156C208.786 35.5117 209.099 34.663 209.322 33.7697C209.59 32.8317 209.724 32.0049 209.724 31.2902C209.724 30.5758 209.545 29.8167 209.188 29.0129C208.831 28.1642 208.406 27.4935 207.915 27.0022C207.423 26.4664 206.888 26.064 206.307 25.7961C205.727 25.4835 204.989 25.2157 204.096 24.9924C203.203 24.7691 202.421 24.6574 201.751 24.6574ZM33.2222 42.8137C33.2075 42.9741 33.0886 43.1327 32.8824 43.2277C33.9031 44.0536 34.4754 44.1846 34.5044 44.257C34.7619 44.3199 33.8954 43.6743 33.7408 43.4182C33.7357 43.4082 33.7546 43.3985 33.7896 43.3879C33.635 43.2406 33.4524 43.0534 33.2222 42.8137ZM32.3707 40.9543C32.5304 41.1167 32.67 41.2638 32.7847 41.4035C33.9586 42.508 34.4939 42.8082 34.8404 43.0256C35.4696 43.3766 35.2948 43.1524 34.7505 42.7395C34.2783 42.3502 33.725 42.0503 32.3707 40.9543ZM27.4927 36.1457C27.8015 36.8448 28.1344 37.4363 28.482 37.8889C28.8559 38.4797 29.2163 39.0147 29.5601 39.4992C29.9226 39.826 30.2204 40.077 30.4703 40.3459C31.4453 41.193 32.0313 41.6645 32.4107 41.9602C32.1428 41.6749 31.8338 41.3457 31.4761 40.9651C30.9278 40.2466 30.1401 39.4305 29.3326 38.2258C28.7926 37.7367 28.1709 37.1129 27.4927 36.1457ZM221.739 22.2404C221.099 22.2494 220.127 22.279 219.11 22.2893C219.027 22.6192 219.551 22.4371 219.909 22.5559L219.906 22.5569C220.326 22.6939 221.384 22.8425 221.739 22.2404ZM218.166 19.8274C217.907 19.6636 215.83 20.1248 216.566 20.4348C217.221 20.7059 218.645 20.0951 218.166 19.8274ZM144.181 19.4455C144.062 19.5743 143.394 19.71 142.588 19.8088C142.604 19.8227 142.624 19.8354 142.648 19.8498C143.102 19.8326 143.555 19.8164 144.009 19.799C144.202 19.7197 144.347 19.6142 144.382 19.4856C144.326 19.468 144.258 19.4555 144.181 19.4455ZM143.248 19.4592C142.9 19.503 142.604 19.5848 142.55 19.6916C142.833 19.6791 143.082 19.6622 143.271 19.632C143.301 19.6269 143.27 19.5494 143.248 19.4592ZM211.823 18.5354C211.48 18.8194 211.135 19.1132 210.779 19.4367C210.937 19.4942 211.086 19.5232 211.223 19.508C211.838 19.4396 211.845 18.877 211.823 18.5354ZM219.386 18.9348C219.128 18.8362 218.762 18.8386 218.078 19.0822C218.658 19.0651 219.197 19.0163 219.386 18.9348ZM221.264 18.7063C221.33 18.8722 221.434 18.8411 221.359 18.7727C221.341 18.7519 221.306 18.7298 221.264 18.7063ZM215.18 17.8938C214.854 18.099 214.473 18.3689 214.014 18.7307C214.452 18.4185 214.844 18.1468 215.18 17.8938ZM218.945 14.4983C217.87 14.9921 216.989 14.7292 212.208 18.218C212.198 18.2257 212.189 18.2337 212.179 18.2414C212.554 18.2305 213.113 18.2283 213.346 18.1194C213.745 17.9305 213.505 17.5179 214.14 17.3381C215.02 17.0852 215.414 17.3321 215.621 17.6047C217.431 16.4582 218.401 16.0002 219.173 15.5686C219.1 15.5555 219.029 15.5429 218.961 15.5354C219.096 15.3265 219.357 15.2364 219.628 15.2151C219.626 15.1436 219.474 15.1107 219.22 15.1154C218.757 15.1801 217.979 15.3732 217.052 15.7307C215.929 16.1714 214.734 16.8425 215.169 16.552C215.858 16.1021 216.411 15.7821 216.875 15.5266C217.308 15.2872 217.538 15.1607 217.804 15.0246C218.308 14.767 218.664 14.6102 218.945 14.4983ZM129.864 18.1838C128.726 17.5636 132.578 17.5894 131.348 18.1945C131.285 18.2228 129.925 18.2128 129.864 18.1838ZM64.2662 16.677C64.1879 16.7629 64.0011 16.824 63.7378 16.8654C63.9871 17.2483 64.2421 17.6725 64.4966 18.1457C64.5735 18.1618 64.6495 18.1777 64.7242 18.1936C64.5824 17.6519 64.4274 17.1455 64.2662 16.677ZM217.143 16.8401C216.728 17.1572 216.335 17.243 215.636 17.6272C215.716 17.7378 215.768 17.8499 215.809 17.9338C215.914 17.8593 216.016 17.7893 216.116 17.7131C216.732 17.2701 217.051 17.0117 217.143 16.8401ZM147.85 16.0998C143.104 16.1288 145.844 17.0396 141.736 16.7649C140.993 17.1878 142.938 16.9722 142.783 17.0451C142.346 17.2454 141.434 17.1501 140.305 17.4944C141.641 17.4965 143.433 17.5783 145.15 17.6819C145.214 17.6349 145.271 17.5845 145.319 17.5305C145.478 17.346 143.513 17.7763 145.752 17.1418C144.082 17.1452 144.607 16.9558 143.107 17.2746C143.137 16.9752 146.515 16.3722 147.85 16.0998ZM136.903 16.594C137.984 16.7281 135.291 17.1341 134.991 16.8498C134.942 16.7977 136.695 16.5708 136.903 16.594ZM120.139 16.1692C119.208 15.5956 118.459 16.8196 119.837 16.5735C119.904 16.5598 120.179 16.1966 120.139 16.1692ZM142.182 16.2502C142.24 16.393 140.76 16.5519 140.631 16.5402C139.798 16.4592 141.631 16.209 142.182 16.2502ZM61.3873 12.5686C61.9016 13.3737 62.5337 14.4628 63.1324 15.9904C63.1808 16.057 63.2304 16.125 63.2798 16.1945C63.7565 16.241 64.0791 16.2878 64.1216 16.3254C64.133 16.3342 64.1426 16.3451 64.1529 16.3537C63.978 15.871 63.7995 15.4307 63.6265 15.0363C63.5722 14.922 63.5158 14.8109 63.4625 14.7014C62.9089 14.0345 62.4227 13.5347 62.0074 13.132C61.7902 12.9291 61.5826 12.7423 61.3873 12.5686ZM136.692 15.9738C137.523 16.0428 135.695 16.2957 135.146 16.2619C135.094 16.1342 136.564 15.965 136.692 15.9738ZM119.438 14.8137C118.218 14.3774 118.706 15.7684 118.859 15.8254C119.487 16.0469 121.584 15.5344 122.013 15.4162C118.843 15.5712 120.014 15.0171 119.438 14.8137ZM113.949 15.5793C112.847 15.7271 115.696 16.0406 116.22 15.6477C115.669 15.6619 114.263 15.5383 113.949 15.5793ZM34.4244 12.6526C34.4078 12.6541 34.3878 12.6678 34.3638 12.6897C34.423 12.7142 34.4868 12.7377 34.5523 12.7658C35.0305 12.9799 35.5297 13.1818 36.7427 13.8879C37.3547 14.2578 37.8875 14.578 38.9419 15.384C38.9726 15.408 39.0027 15.4337 39.0337 15.4582C39.3955 15.4929 39.7414 15.5217 40.0611 15.5393C38.9107 14.6051 37.9893 14.0733 37.438 13.7463C37.1255 13.568 36.8361 13.4149 36.5689 13.2805C35.6903 13.357 34.5206 12.6397 34.4244 12.6526ZM34.0025 13.092C33.8822 13.2158 33.7377 13.3426 33.566 13.4358C33.44 13.5055 33.3016 13.5565 33.1568 13.5764C33.0616 13.672 32.9643 13.7674 32.8697 13.8664C32.834 13.9037 32.7984 13.9422 32.7623 13.9807C33.2139 14.1608 33.548 14.3326 32.6861 14.6799C33.1945 14.6464 35.6387 15.0632 37.897 15.3352C37.4134 14.9958 37.02 14.7472 36.7291 14.551C36.1764 14.2054 35.689 13.9357 35.3248 13.7434C35.0032 13.5724 34.7277 13.4358 34.4898 13.3205C34.3023 13.2319 34.1412 13.1571 34.0025 13.092ZM107.215 14.9953C106.62 14.9288 104.858 14.7498 104.571 14.9934C105.215 14.9654 106.974 15.2438 107.215 14.9953ZM220.332 14.2365C220.245 14.2065 220.086 14.1928 219.518 14.3342C219.898 14.3059 220.028 14.5185 220.181 14.6819C220.322 14.8495 220.449 14.9829 220.49 14.9055C220.54 14.7926 220.454 14.7165 220.427 14.635C220.41 14.5953 220.401 14.556 220.397 14.5178V14.3078C220.391 14.2784 220.373 14.2532 220.332 14.2365ZM139.89 13.4592C137.811 14.1618 139.785 13.7977 139.383 14.0285C139.06 14.21 137.827 14.2302 138.551 14.4358C137.605 14.2319 133.585 14.767 133.355 14.7434C133.248 14.7235 133.501 14.0455 134.258 14.0461C136.644 14.0518 134.927 14.6881 139.89 13.4592ZM105.846 14.2219C104.911 13.8541 104.726 14.8402 105.78 14.5735C105.821 14.5622 105.881 14.2416 105.846 14.2219ZM117.862 13.2824C116.974 13.0987 115.872 13.6747 117.752 13.799C117.097 13.8709 116.442 13.9454 115.789 14.0217C118.261 14.4275 118.043 13.5854 118.752 13.6447C119.742 13.7276 119.697 14.3977 119.508 14.6067C120.298 14.2088 123.75 14.3061 125.75 14.3059C123.984 14.0824 121.12 13.6909 119.387 13.5178C118.893 13.468 118.423 13.6382 118.002 13.6037C117.329 13.5464 117.911 13.2951 117.866 13.2834C117.865 13.2833 117.863 13.2825 117.862 13.2824ZM219.518 14.3342C219.387 14.3448 219.225 14.3833 218.999 14.4768C218.981 14.4836 218.963 14.491 218.945 14.4983C218.963 14.4922 218.981 14.4856 219 14.4797C219.2 14.4173 219.372 14.3714 219.518 14.3342ZM100.657 13.6731C100.042 13.235 99.384 14.213 100.36 14.2776C100.651 14.2936 100.722 13.7228 100.657 13.6731ZM126.63 13.885C125.62 13.8403 124.055 13.6265 123.519 13.8967C124.527 13.9366 126.091 14.1409 126.63 13.885ZM60.3775 11.717C60.811 12.3065 61.2934 13.0339 61.8238 13.9524C61.4293 13.2387 60.9265 12.454 60.3873 11.7238C60.3842 11.7215 60.3805 11.7194 60.3775 11.717ZM114.335 13.6262C114.204 13.6023 111.447 13.6377 111.628 13.8205C112.001 13.9435 115.934 13.9217 114.335 13.6262ZM32.1929 13.7014C32.2644 13.7625 32.3696 13.8165 32.4966 13.8703C32.5961 13.7603 32.6957 13.6552 32.7925 13.5539C32.7856 13.552 32.778 13.5511 32.7711 13.549C32.6756 13.5197 32.5708 13.4674 32.4791 13.3928C32.3873 13.4913 32.29 13.5927 32.1929 13.7014ZM107.108 12.5236C106.468 11.3448 106.306 13.1675 105.106 12.1496C103.606 13.484 109.392 12.3565 110.16 13.5168C103.778 13.1764 114.425 14.7734 109.896 12.9348C113.596 13.6808 111.091 12.7739 111.648 12.5832C112.244 12.3842 114.339 12.7141 114.215 12.3127C114.214 12.3126 114.213 12.3118 114.211 12.3117C112.936 12.2819 111.665 12.2533 110.397 12.2238C111.68 13.1638 109.072 12.8028 108.166 12.0149C107.812 12.1826 107.461 12.3524 107.108 12.5236ZM140.332 13.1262C139.989 13.3799 136.091 13.9618 136.181 13.7102C136.262 13.4914 139.717 13.204 140.332 13.1262ZM93.9419 13.3069C92.1858 12.6965 93.2979 13.8419 94.2886 13.7092C94.3308 13.6974 93.9861 13.3225 93.9419 13.3069ZM55.733 8.83615C55.8789 8.93291 56.133 9.11349 56.563 9.45529C56.9555 9.78771 57.5269 10.2345 58.4429 11.2756C59.0473 11.7365 59.8138 12.258 60.9556 13.424C60.9236 13.3721 60.8945 13.32 60.8638 13.2717C60.0721 12.0507 59.4323 11.2455 58.9097 10.6652C58.5241 10.4216 58.2042 10.2393 57.9048 10.049C56.7173 9.36837 56.0365 9.00605 55.733 8.83615ZM119.965 12.4797C119.858 12.496 120.451 13.0453 119.809 13.1848C121.057 12.9315 126.846 13.3865 127.151 13.3518C127.383 13.323 125.605 12.7172 128.375 13.1613H128.377C126.331 12.2584 123.643 13.0254 123.344 13.0031C123.047 12.9674 123.495 12.6301 123.427 12.6174C123.266 12.5873 120.12 12.4596 119.965 12.4797ZM104.258 12.5686C102.973 12.1456 103.614 13.3287 104.547 13.0676C104.601 13.0526 104.318 12.5881 104.258 12.5686ZM120.643 12.9309C119.448 12.6959 122.486 12.8248 122.593 12.8567C123.391 13.1062 121.18 13.0341 120.643 12.9309ZM117.276 12.4065C117.02 12.3443 114.759 12.1901 114.578 12.4426C115.662 12.8248 117.851 12.5482 117.276 12.4065ZM119.197 11.0051C119.835 10.7307 120.281 11.1369 120.365 11.1477C121.177 11.247 122.859 11.2889 122.504 11.5598C121.062 11.3451 117.924 11.5594 119.197 11.0051ZM32.7388 11.0832C32.5057 11.1382 32.5997 11.2927 32.6314 11.3498C32.6444 11.363 32.6587 11.3731 32.6773 11.3801C32.6928 11.2942 32.7133 11.1953 32.7388 11.0832ZM75.7623 10.9113C74.4819 11.17 78.3991 11.6066 77.274 11.0822C77.2095 11.0563 75.8254 10.8996 75.7623 10.9113ZM119.56 10.8098C119.947 10.6496 124.418 10.8989 124.611 10.9621C125.974 11.3932 119.907 10.8927 119.56 10.8098ZM92.5679 11.0197C91.9978 11.0138 90.4359 10.6249 90.3404 10.9006C90.9152 10.9122 92.4786 11.2933 92.5679 11.0197ZM104.732 10.0803C105.232 9.82571 112.251 10.5472 113.401 10.6106C112.408 11.0552 111.571 10.6212 110.213 10.5598C109.848 10.5446 109.954 10.7691 109.916 10.7678C109.282 10.7391 109.745 10.5152 109.354 10.4865C109.096 10.4685 104.011 10.4545 104.732 10.0803ZM120.876 10.1682C121.437 9.93452 125.83 10.5564 124.677 10.6779C124.487 10.6924 120.047 10.5087 120.876 10.1682ZM119.627 10.508C119.38 10.33 119.937 9.9003 120.472 10.1789C120.702 10.2983 120.296 10.5488 119.627 10.508ZM95.7955 9.73751C96.0697 9.8243 96.8732 9.94018 97.8423 10.049C100.195 10.3054 103.64 10.5241 103.859 10.4729C103.949 10.4509 104.002 10.1482 103.959 10.133C103.71 10.063 100.211 9.88909 97.8375 9.7922C96.8721 9.75161 96.0722 9.72502 95.7955 9.73751ZM149.877 9.87814C149.918 10.0226 148.022 10.3328 147.939 10.3293C146.958 10.288 149.212 9.88284 149.877 9.87814ZM104.077 9.54025C104.8 8.95706 108.278 9.64564 105.92 9.78439C105.694 9.79762 104.727 9.44947 104.077 9.54025ZM92.0826 9.10275C89.7599 9.02295 94.2154 9.90306 93.6324 9.41427C93.5868 9.38465 92.3249 9.11209 92.0826 9.10275ZM57.0142 7.17794C56.9103 7.19439 56.8754 7.2651 56.9732 7.42599C57.0581 7.55483 57.1533 7.65788 57.4859 7.98263C57.7254 8.10208 58.0013 8.2426 58.3091 8.40744C58.6901 8.72199 59.2025 8.97202 59.8365 9.32931C59.703 9.19336 59.5811 9.06675 59.4703 8.94064C58.614 8.10944 58.2557 7.86683 57.9097 7.61349C57.9045 7.60995 57.8983 7.60725 57.8931 7.60373C57.5228 7.4244 57.2691 7.29822 57.1089 7.18673C57.0716 7.18001 57.0415 7.17767 57.0142 7.17794ZM155.26 7.19943C152.801 8.01819 155.043 7.49026 155.124 7.73849C155.431 8.74203 151.818 7.74076 150.604 8.16525C150.434 8.22023 151.705 8.34503 151.271 8.50509C149.858 8.99813 145.415 8.21989 150.14 7.68673L150.137 7.68771C151.371 7.55239 150.619 7.92943 150.675 7.92794C153.316 7.88068 152.603 7.41707 153.011 7.28048C153.892 6.98892 153.772 7.72623 155.26 7.19943ZM92.3316 8.4465C92.2123 8.41475 89.7991 8.00238 89.7505 8.22775C90.1067 8.36128 93.6292 8.81663 92.3316 8.4465ZM35.6636 8.48654C36.0184 8.43373 36.2921 8.34855 36.4419 8.21701C36.606 8.09204 36.6405 8.00135 36.5845 7.93283C36.2978 8.1056 35.9917 8.28702 35.6636 8.48654ZM23.5552 7.38595C23.5131 7.80669 20.9166 7.82356 18.9527 8.45333C19.0662 8.2032 20.2558 7.87541 21.2437 7.71212C22.2221 7.54585 23.103 7.48474 23.5552 7.38595ZM91.2671 7.62423C90.98 7.62826 90.5311 7.90581 90.5601 7.93185C92.057 8.87858 96.4743 7.87685 93.5777 7.81564C93.521 7.81566 94.083 8.31031 92.9576 8.13302C92.8634 8.11691 92.6897 7.60734 91.2671 7.62423ZM37.022 7.66134C36.9231 7.72518 36.8211 7.78871 36.7164 7.85275C37.0584 7.99726 37.7938 8.07811 38.4253 8.09396C38.6483 8.09769 38.8458 8.09592 39.0142 8.08908C39.235 7.91464 39.4084 7.7592 39.5269 7.64083C39.5163 7.63185 39.5063 7.62081 39.4947 7.61154C39.4627 7.5806 38.9601 7.51282 38.2681 7.47873C37.9868 7.4642 37.6861 7.45501 37.4263 7.44943C37.2954 7.5163 37.159 7.58583 37.022 7.66134ZM98.0494 7.50216C97.9339 7.04822 100.7 7.55479 101.421 7.54318C100.81 7.81694 99.0493 7.54663 98.0494 7.50216ZM233.176 4.22482C232.638 4.40439 233.922 4.90382 235.944 5.75412C237.771 6.43143 241.609 8.66095 239.308 7.01193C238.848 6.67448 237.08 5.72179 235.887 5.22873C234.636 4.69197 233.613 4.35388 233.176 4.22482ZM81.3013 6.5881C81.4439 6.86094 84.4549 7.38197 84.5992 7.35958C86.0383 7.13541 81.5436 6.51362 81.3013 6.5881ZM217.729 6.82345C217.479 6.94593 217.163 7.10869 216.744 7.34689C217.161 7.2814 217.951 7.0708 217.844 6.86251C217.808 6.84611 217.769 6.83437 217.729 6.82345ZM155.047 6.43576C155.157 6.45216 153.548 7.43341 153.076 6.99044C152.713 6.65224 154.751 6.4104 155.047 6.43576ZM149.46 4.79025C150.409 4.90515 147.252 5.47064 148.325 4.99728C148.371 4.97771 149.416 4.78682 149.46 4.79025ZM79.7525 4.73458C78.9816 4.35016 81.3629 4.39719 82.0533 4.81369C82.3855 5.32204 79.8528 4.7805 79.7525 4.73458ZM226.73 1.90646C227.58 1.43181 231.635 2.93025 230.841 3.02072C230.494 2.94999 226.296 2.12192 226.73 1.90646Z" fill="white"/>
</svg>
