<svg width="562" height="91" viewBox="0 0 562 91" fill="none" xmlns="http://www.w3.org/2000/svg">
<path d="M343.801 1.10134C349.029 2.48562 348.875 1.21132 350.297 1.3406C350.788 1.38826 354.447 2.54744 358.442 2.58376C355.573 2.68416 352.703 2.79426 349.846 2.91189C352.651 3.15695 358.122 3.05307 360.445 3.33376C361.573 3.46985 360.629 4.33015 363.091 4.37673C363.613 4.38208 365.727 2.27677 359.256 3.06716C358.754 2.28089 361.815 2.86667 363.246 2.69216C363.46 2.66454 364.34 1.40092 366.149 2.26052C366.586 2.48289 361.718 6.04315 374.105 3.7781C374.506 3.70641 373.133 3.18352 373.525 3.10134C373.799 3.04508 376.938 3.36197 377.297 3.31228C377.656 3.25592 376.142 2.6799 376.572 2.59744C378.778 2.17355 381.559 4.32672 377.079 3.97634C378.572 4.29046 380.07 4.60667 381.563 4.92751C380.007 3.32755 383.944 4.60917 386.038 4.67556C399.495 5.15058 390.544 3.64813 392.879 3.27224C396.672 2.70278 393.656 5.08798 399.28 4.71169C399.74 4.68534 394.717 3.45481 402.11 4.21755C403.277 4.33964 404.64 4.50582 406.436 4.75271C404.966 4.64667 403.568 4.55548 402.094 4.46853C401.541 4.43614 400.984 4.40457 400.426 4.3738C400.696 4.7754 401.301 4.99906 402.052 5.11111C404.295 5.43111 407.749 4.89747 408.149 4.92458C413.636 5.31304 409.808 5.34655 418.176 5.68435C418.912 5.7195 420.5 6.30836 422.147 6.39236C428.931 6.72171 413.416 4.6048 413.141 4.10818C412.872 3.63965 429.611 6.28821 430.124 6.71658C432.445 7.76271 422.513 5.54611 424.306 6.65701C424.584 6.82714 431.011 7.88971 436.953 9.24099C442.883 10.5849 447.614 11.5635 449.367 12.0213C452.525 12.9007 454.192 14.4873 454.868 13.8709C454.989 13.7316 455.073 13.4866 455.124 13.1043C455.838 15.3479 457.056 14.0555 457.54 14.1336C463.946 15.0944 464.139 15.0879 470.121 15.4256C471.459 15.4971 472.576 16.22 473.05 16.1521C473.332 16.1106 472.847 15.396 474.224 15.2996C476.099 15.1813 487.639 16.7304 488.515 17.1531C489.359 17.5818 483.594 16.9568 484.599 17.6355C488.771 17.998 492.814 18.133 497.073 18.5008C498.841 18.6553 497.914 19.0071 498.677 19.0701C499.002 19.0959 505.165 19.1775 504.917 19.0086C504.269 18.5917 485.439 17.4887 490.429 17.1072C491.385 17.0343 494.719 18.2423 494.236 17.0301C501.663 17.6874 509.164 18.344 516.85 19.1248C520.703 19.5194 524.586 19.9383 528.743 20.4802C530.752 20.748 533.006 21.058 535.423 21.4783C536.733 21.7059 538.066 21.951 539.793 22.3523C540.718 22.5704 541.783 22.8294 543.252 23.2967C544.135 23.5791 545.123 23.9226 546.359 24.4607C547.64 25.0615 550.244 26.0922 553.696 29.1795C556.816 31.846 562.428 39.2208 561.703 49.0008C560.967 58.2746 556.04 63.4251 553.419 65.784C549.905 68.7911 547.652 69.599 546.443 70.1687C545.306 70.6516 544.394 70.9623 543.573 71.2205C542.812 71.4555 542.34 71.5798 541.779 71.7234C539.621 72.2588 538.275 72.4635 536.975 72.6687C538.228 72.3741 539.549 72.0904 541.649 71.5027C542.193 71.3473 542.688 71.1994 543.39 70.9685C544.197 70.7011 545.092 70.3833 546.207 69.8992C547.277 69.3936 549.63 68.4947 552.927 65.7078C555.384 63.5285 560.351 58.6491 561.269 49.4431C562.206 39.723 556.546 32.1177 553.415 29.4871C549.755 26.2281 546.919 25.2206 545.864 24.7361C544.593 24.2101 543.527 23.8678 542.685 23.6189C541.344 23.2209 540.004 22.9242 539.22 22.7586C537.336 22.3676 535.974 22.148 534.613 21.9304C531.887 21.5062 529.665 21.203 527.306 20.8992C522.757 20.3148 518.416 19.8275 514.232 19.5115C512.767 19.3977 508.018 18.9134 508.571 19.5437C517.732 20.5112 526.914 20.49 539.679 23.3367C540.169 23.4612 538.243 23.5412 540.136 24.0594C540.757 24.2326 541.473 24.4049 542.744 24.7849C543.501 25.0164 544.387 25.3015 545.55 25.7791C546.565 26.2483 549.145 27.1295 552.704 30.2693C554.664 32.0746 557.334 34.9755 559.065 39.906C560.881 44.7895 560.568 51.3732 558.777 55.6687C557.031 60.1185 554.641 62.7122 552.846 64.4041C552.731 64.5103 552.618 64.6139 552.506 64.7136C552.391 64.8164 552.287 64.9065 552.232 64.9539C552.1 65.0683 551.969 65.1786 551.841 65.2849C551.585 65.4974 551.337 65.6948 551.097 65.8787C550.616 66.2465 550.167 66.5629 549.746 66.8426C546.186 69.0749 545.228 69.2073 543.994 69.7312C542.727 70.1946 542.162 70.3656 541.439 70.5867C541.096 70.6897 540.768 70.7835 540.452 70.8709C540.15 70.9544 539.931 71.0154 539.683 71.0808C537.656 71.6055 536.551 71.8097 536.005 71.826C535.885 71.82 536.951 71.4751 537.845 71.0838C538.868 70.6689 539.771 70.1922 538.9 70.1599C534.798 69.8429 534.592 72.2194 531.915 72.5349C529.654 72.8515 517.129 72.7892 514.212 73.6902C511.04 74.6921 523.31 73.4353 522.495 74.1082C514.121 75.4355 505.801 75.2827 498.224 75.8797C498.092 75.8908 499.301 76.2831 497.614 76.4627C494.708 76.7719 493.86 76.1638 492.439 76.159C490.893 76.1508 485.587 76.6579 484.921 76.4812C484.847 76.4533 485.782 75.7244 485.947 75.6922C488.237 75.2306 489.116 76.0208 489.342 76.0135C490.16 75.9828 490.877 75.6035 491.615 75.5681C492.837 75.5103 493.512 75.7669 495.125 75.6804C496.24 75.6219 495.113 75.115 496.174 75.0672C496.556 75.0491 500.952 76.0977 501.215 74.7019C501.244 74.5467 496.748 74.6722 490.963 74.9676C488.076 75.1171 484.868 75.3118 481.863 75.5574C480.392 75.6762 478.94 75.8124 477.719 75.9519C477.153 76.0135 476.574 76.0903 476.228 76.1326C475.885 76.1662 475.632 76.2355 476.33 75.9734C472.669 77.066 468.832 78.4075 467.845 78.7986C471.065 77.9384 474.029 77.084 476.477 76.5213C471.578 77.6622 463.324 81.4063 462.357 80.032C448.737 83.8466 435.309 85.2322 422.496 85.8601C411.438 86.4297 399.5 86.2753 388.576 85.2918C384.449 84.8504 386.69 84.2123 380.051 83.8972C381.733 84.296 383.458 84.7037 385.177 85.1101C381.641 84.6058 366.962 83.0684 364.541 83.1258C364.248 83.1294 363.78 83.7895 360.117 83.6248C356.851 83.4841 356.28 82.9516 354.562 82.7674C353.073 82.6152 351.43 82.6736 350.991 82.6267C350.653 82.5898 350.521 82.2773 349.696 82.1912C347.139 81.9267 349.235 82.857 346.673 81.7859C347.299 81.771 347.917 81.7567 348.526 81.7429C347.574 81.6616 346.485 81.5493 345.572 81.4334C343.641 81.1833 342.616 80.9086 345.565 80.8484C345.622 80.8473 345.682 80.8455 345.742 80.8445C346.542 80.8318 345.859 81.1012 346.454 81.1199C367.095 81.9092 354.208 80.8469 345.565 80.822C344.643 80.8195 343.773 80.8257 343 80.8455C340.921 80.3478 329.248 80.3319 328.858 80.2488C328.316 80.1233 330.309 79.8357 327.679 79.5095C327.125 79.4319 311.483 79.4257 317.104 78.992C318.267 78.8977 325.773 79.1121 327.579 79.1297C323.311 78.2168 313.352 79.2981 312.227 79.242C307.69 79.0686 320.915 78.635 310.7 78.4412C302.838 78.3018 310.233 78.8938 307.216 79.0877C305.521 79.1873 296.598 78.5374 296.861 79.2537C293.804 79.2898 295.581 78.9371 295.204 78.9051C294.834 78.8794 288.818 79.0133 286.857 78.8406C286.62 78.8196 287.355 78.4754 287.11 78.4431C286.63 78.3898 280.821 78.3874 280.586 78.4109C280.44 78.4289 281.833 78.7497 281.265 78.8142C280.605 78.8893 275 78.7221 274.696 78.7976C274.263 78.9172 281.174 78.9583 280.032 79.2713C276.843 79.1306 271.655 79.2398 269.553 79.4353C270.066 79.377 273.159 79.4415 274.235 79.492C273.738 79.9602 267.1 79.7649 269.361 79.4627C267.923 79.6199 268.91 79.7511 268.101 79.9119C267.886 79.9526 265.84 79.8977 265.443 79.9627C265.393 79.9764 267.512 80.2174 267.09 80.2967C266.326 80.4426 260.101 80.1775 259.588 80.1131C258.153 79.9411 263.224 79.9835 263.646 79.8045C263.705 79.7767 259.392 79.2683 259.316 79.2342C259.061 78.8859 263.862 79.2819 263.31 78.95C262.119 78.8498 260.933 78.7496 259.743 78.6492C264.317 78.4748 272.786 78.8237 274.956 78.4724C268.18 78.4739 261.077 78.2653 261.077 77.4646C261.073 77.1277 263.99 76.9777 263.88 76.8865C263.442 76.5683 259.397 76.8372 259.239 76.8152C259.115 76.7943 259.058 76.7752 259.057 76.7576C259.067 76.5836 264.84 76.5409 265.127 76.4558C265.607 76.3095 263.032 75.6683 263.026 75.534C263.125 75.5098 267.226 75.3888 265.833 75.1404C264.419 74.8931 260.82 74.8709 260.695 74.8445C260.004 74.7042 266.298 74.5951 266.487 74.5047C266.585 74.4607 263.196 74.1956 263.097 74.1209C263.017 74.046 265.58 73.8788 266.585 73.6297C267.335 73.4446 265.137 73.319 265.522 73.2888C265.808 73.271 271.74 73.2262 272.034 73.1883C272.467 73.1351 271.071 72.9272 271.272 72.8699C271.559 72.7872 273.474 72.8441 273.226 72.7644C273.034 72.7005 265.589 72.0423 265.624 71.8484C265.701 71.5136 273.592 72.1541 266.237 70.9431C266.184 70.936 264.404 71.0639 264.353 71.0564C263.692 70.9253 265.466 70.6943 265.505 70.576C263.336 70.623 261.151 70.6678 258.95 70.7068C253.619 70.8013 248.275 70.9189 242.923 71.0437C243.607 71.0501 244.151 71.0721 244.471 71.1179C242.211 71.3287 237.243 71.2704 235.188 71.4236C234.95 71.4425 236.273 72.2054 233.174 71.7556C232.003 71.5782 235.029 71.3074 238.286 71.1551C235.847 71.2138 233.406 71.2698 230.965 71.3299C230.21 71.4697 229.667 71.6868 229.283 72.031C235.784 72.3807 243.626 71.3777 245.598 71.3299C248.616 71.2378 245.496 71.5478 245.868 71.6052C246 71.6227 248.584 71.5373 248.633 71.5545C250.507 72.3685 237.055 71.8899 232.828 72.1629C233.965 72.271 235.103 72.3758 236.24 72.4793C234.702 72.5323 233.163 72.5858 231.625 72.6394C238.958 72.6934 231.888 72.7314 230.079 73.5701C229.673 73.7593 234.478 73.286 228.999 73.9695C233.052 73.9307 231.764 74.131 235.425 73.7801C235.337 74.0802 227.096 74.756 223.844 75.0564C235.351 74.9276 228.769 74.0726 238.719 74.2615C240.549 73.823 235.819 74.0786 236.196 74.0027C237.578 73.7329 240.839 73.9401 244.746 73.0603C245.382 72.9189 242.67 72.6305 246.671 72.5232C247.114 72.513 249.657 72.7436 249.635 72.7674C249.302 73.0213 246.778 73.016 246.676 73.1228C246.59 73.2226 249.381 73.0686 249.404 73.0945C249.493 73.3957 247.062 73.2942 247.413 73.3777C248.182 73.5698 258.314 73.8208 245.105 74.1502C256.065 73.3757 246.502 73.7474 242.233 74.0525C241.145 74.1302 240.873 74.3324 239.322 74.4636C237.327 74.6336 234.986 74.6383 233.954 74.7176C232.845 74.8071 239.17 74.9976 230.032 75.2586C234.694 75.5209 242.891 74.6633 247.461 74.7791C256.679 74.9737 241.061 75.8221 239.433 75.9783C239.001 76.0171 240.46 76.204 240.171 76.2342C239.695 76.2837 230.824 76.6119 229.954 76.8826C229.089 77.153 233.202 76.705 233.484 76.9217C233.671 77.0629 222.974 77.9295 228.773 77.7215C232.771 77.5659 240.114 76.5571 241.369 77.1375C235.501 77.5191 229.629 77.9114 223.751 78.2996C226.976 78.3874 230.199 78.4594 233.419 78.5193C226.83 79.0084 221.118 79.0417 214.851 79.8015C229.946 79.7725 209.976 80.8188 209.749 80.9373C209.679 81.0145 215.632 81.3769 216.591 81.4383C211.345 82.0737 195.312 83.2339 204.709 83.575C203.01 83.4765 198.914 84.2661 198.94 84.3094C199.477 84.7049 208.464 83.8104 207.003 84.282C205.313 84.8361 202.919 84.4192 200.302 84.6404C186.855 85.7509 190.579 87.8572 176.994 88.2957C177.264 88.3662 177.535 88.4358 177.805 88.5056C169.611 88.8992 161.378 89.1831 153.103 89.3064C146.461 89.4059 139.833 89.4179 133.187 89.3367C127.313 90.1993 111.699 90.4956 104.054 90.0623C102.51 89.9964 95.0226 89.1722 94.4555 89.0467C93.4204 88.8323 99.2129 89.0599 96.6274 88.6267C96.0666 88.5615 83.3806 87.6036 84.2348 88.1717C85.6509 88.3256 90.1309 88.3296 90.8578 88.492C94.0245 89.2239 79.738 88.3624 68.3803 87.4353C61.5849 86.9053 55.6452 86.3572 54.8871 86.4285C55.7411 86.6891 56.5906 86.9459 57.4418 87.201C54.964 86.899 52.4735 86.5825 49.9613 86.242C50.9981 86.1835 52.0495 86.125 53.0775 86.0613C50.2149 85.6896 46.2875 85.4023 43.5551 84.9236C43.1103 84.8451 44.3467 84.5183 43.2895 84.3719C42.2417 84.225 42.321 84.8831 40.7592 84.7576C38.9982 84.6376 30.8923 83.0265 27.2172 82.1219C25.5856 81.7476 23.8557 81.3366 21.5326 80.5603C20.3118 80.138 19.0272 79.6844 17.0727 78.7195C15.1133 77.3708 12.6455 77.6113 6.61563 69.5486C4.11398 65.9116 2.01965 59.4121 2.87051 53.3943C2.94256 52.7345 3.04906 52.0882 3.17911 51.4578C0.983215 47.2627 -1.03738 39.7294 0.592194 33.0291C2.03977 26.2661 5.46537 21.8462 8.08536 19.2029C8.40856 18.8773 8.78867 18.5178 9.03458 18.2927C9.2425 18.1011 9.44828 17.9173 9.64981 17.742C10.0527 17.3915 10.4425 17.0715 10.8188 16.7771C11.5723 16.188 12.2722 15.6977 12.9213 15.2752C13.5704 14.8531 14.1705 14.4974 14.7289 14.1863C15.0079 14.031 15.2769 13.8875 15.5365 13.7527C15.7836 13.6244 15.9078 13.5583 16.0873 13.4676C17.4323 12.7891 18.5348 12.3369 19.516 11.9705C20.4239 11.6336 20.9395 11.463 21.5766 11.2732C22.0942 11.1204 22.5711 10.9992 23.0297 10.8963C24.8775 10.5001 26.4394 10.4491 28.5502 10.0398C39.6348 8.0457 47.8041 7.45106 56.8441 6.82986C51.7359 9.13601 60.9565 7.32465 61.3402 7.39919C63.4591 7.761 53.9934 8.61136 57.7484 8.65408C62.9956 8.19996 68.2069 7.8011 73.3852 7.43142C69.1179 7.45106 78.9501 5.46548 80.7797 6.00662C79.9591 4.29231 104.255 6.30924 107.863 5.59939C108.616 5.44199 103.63 4.79784 115.182 4.67556C116.438 4.66383 115.978 5.21717 116.632 5.13845C117.004 5.09244 119.167 3.44195 121.564 4.02126C121.677 4.04721 121.79 4.07868 121.904 4.11404C122.196 4.205 121.842 4.39458 121.579 4.58669C121.358 4.7551 121.203 4.92526 121.59 5.03201C122.248 5.20759 124.419 5.1982 130.203 4.81033C124.859 3.21027 148.727 3.34392 153.012 3.80154C152.147 3.57644 151.279 3.35264 150.411 3.12966C154.705 3.70469 155.475 3.10248 156.44 3.12283C160.328 3.20878 165.645 3.77555 169.236 3.70193C173.436 3.61688 173.461 2.51162 178.335 2.92165C177.181 2.68198 176.025 2.44227 174.868 2.20388C178.241 2.24675 181.604 2.29434 184.956 2.3406C177.176 3.83643 186.632 2.40531 187.251 2.3699C188.241 2.31278 186.816 2.91969 188.471 2.83865C188.642 2.82557 188.401 2.25994 190.949 2.18533C196.267 2.03001 195.42 2.74794 197.648 2.7283C197.849 2.72221 197.146 2.21638 200.979 2.07009C213.14 1.58747 200.929 2.46676 200.45 2.53689C199.831 2.63221 204.026 4.75849 193.636 4.04763C197.127 4.27402 197.472 5.21864 197.866 5.24099C198.221 5.26005 204.245 5.0905 204.576 5.05349C207.531 4.70841 204.932 4.07977 205.506 3.95876C205.98 3.86362 213.213 4.64102 214.88 2.65701C218.332 4.41238 212.921 4.33282 207.113 4.65798C206.269 5.03631 212.631 5.33528 212.97 5.3279C216.439 5.28505 217.62 4.9964 217.967 4.61208C218.217 4.33554 218.036 4.00737 217.959 3.67654C217.928 3.54074 217.915 3.40372 217.955 3.27029C218.004 3.11297 218.13 2.9592 218.391 2.81521C219.325 2.30383 222.658 3.25816 219.577 1.97927C226.983 1.70319 222.502 2.55728 222.981 2.66384C223.708 2.81848 226.299 2.38341 226.629 2.42654C227.108 2.49196 225.453 2.9887 227.342 3.11111C227.659 3.12758 230.678 2.26527 226.757 1.97146C231.995 1.96902 231.556 1.29665 233.363 2.62185C236.933 -0.0563569 236.023 4.08457 237.458 4.19412C241.271 4.47749 240.126 2.47313 240.323 2.36794C241.685 1.6981 252.293 2.09986 254.938 1.73318C253.929 3.22796 246.506 1.98487 244.875 2.31423C239.414 3.41147 252.631 2.83261 248.691 4.78494C250.352 4.23266 252.017 3.67944 253.685 3.12673C256.8 4.22684 252.427 4.86182 260.736 4.20486C262.069 3.14503 254.857 4.52417 256.29 3.67947C257.131 3.18301 261.952 2.95194 262.048 2.70095C262.13 2.39874 257.779 2.86998 258.455 2.3904C259.914 1.34626 275.939 1.90123 263.776 2.74587C266.725 2.65589 268.471 4.11188 270.809 4.04275C271.159 4.03241 271.523 3.98809 271.906 3.89919C272.616 3.73357 271.55 3.28023 270.781 2.78591C270.121 2.36269 269.678 1.90835 270.753 1.57693C271.781 1.26131 274.195 1.05293 279.163 1.11794C279.52 2.04408 272.694 1.51823 272.52 1.59646C272.274 1.70595 273.551 3.79054 273.766 3.8904C274.504 4.19711 291.07 2.8034 294.622 3.88064C293.695 3.07822 299.506 3.21282 304.012 3.33767C306.246 3.39914 308.152 3.44172 308.656 3.31912C309.052 3.219 307.573 2.46497 307.996 2.38845C310.641 1.93378 317.8 3.3119 321.133 3.37478C324.861 3.4451 324.392 2.80001 324.6 2.80251C326.242 2.85387 324.929 3.27646 325.933 3.28494C327.446 3.29232 337.888 3.50689 338.418 3.42947C338.57 3.4025 336.871 2.64684 339.152 2.54177C339.549 2.52661 339.287 3.37971 346.057 3.12478C354.22 2.82991 340.404 1.94411 343.801 1.10134ZM483.755 76.2029C484.463 76.2179 484.336 78.0924 481.451 77.6404C481.071 77.5829 482.708 76.9325 482.4 76.8484C482.088 76.7888 476.401 77.1604 476.646 77.2029C476.567 77.2407 476.623 77.4218 476.665 77.5926C475.524 77.8024 474.031 78.135 472.971 78.4763C469.028 79.7521 468.538 80.4001 468.219 80.5037C467.18 80.8319 465.278 81.0681 463.055 81.6951C451.652 85.1662 434.48 87.4868 425.987 86.949C433.611 86.8512 440.933 85.7154 448.79 84.1902C446.68 85.6485 460.305 81.0793 452.352 83.8933C454.369 83.5886 469.203 79.3012 476.595 76.7361C475.851 77.0083 476.082 76.9371 476.337 76.9129C476.645 76.8696 477.016 76.8203 477.501 76.7566C478.353 76.6506 479.361 76.5393 480.23 76.4558C481.968 76.2894 483.329 76.1975 483.747 76.2039C483.75 76.2037 483.753 76.2031 483.755 76.2029ZM219.209 86.4119C216.929 86.3158 224.573 85.6871 221.957 86.1824C221.844 86.203 219.309 86.415 219.209 86.4119ZM383.909 85.8543C383.069 85.3209 389.369 86.0607 389.653 86.1062C391.61 86.5438 385.591 86.3346 383.909 85.8543ZM33.2885 83.7556C33.722 83.8265 41.9778 85.0677 41.266 85.2556C39.5711 85.6475 31.8842 83.7902 33.2885 83.7556ZM205.9 84.864C205.629 84.8511 209.544 83.8416 210.655 84.2761C211.508 84.6089 206.605 84.8855 205.9 84.864ZM377.673 83.1023C374.166 83.2119 385.121 84.1941 385.754 84.1385C385.381 83.856 377.983 83.0856 377.673 83.1023ZM215.084 82.7273C218.516 82.2079 229.191 82.8967 217.756 83.5252C217.759 83.5249 217.762 83.5244 217.765 83.5242C214.784 83.6835 216.62 83.2918 216.483 83.2947C210.123 83.3914 211.818 83.8421 210.826 83.9861C208.696 84.2927 209.026 83.5522 205.431 84.1023C211.373 83.2438 205.96 83.8098 205.787 83.5613C205.101 82.5628 213.717 83.5054 216.67 83.0554C217.082 82.9972 214.03 82.8957 215.084 82.7273ZM336.069 82.5838C337.603 82.2991 341.955 82.5433 344.448 82.5779C344.722 83.0302 337.855 82.5582 336.069 82.5838ZM363.181 82.199C359.525 81.188 348.527 82.1757 355.723 82.2537C355.876 82.2541 354.448 81.753 357.279 81.9441C357.521 81.963 357.922 82.4692 361.438 82.4871C362.119 82.49 363.27 82.2247 363.181 82.199ZM25.0736 80.8679C22.5498 80.1977 18.5802 78.7015 21.0766 79.9353C22.4812 80.662 27.9407 82.1955 29.2201 82.406C30.0295 82.247 27.7277 81.6307 25.0736 80.8679ZM365.152 81.9324C364.318 81.7735 355.633 81.2453 358.813 81.6414C359.119 81.669 365.036 82.1505 365.152 81.9324ZM223.243 80.8367C225.611 80.8578 220.136 81.3094 218.533 81.3269C218.443 81.1834 223.039 80.8353 223.243 80.8367ZM359.433 80.9881C365.171 81.1168 354.168 80.1502 355.606 80.656C355.69 80.6837 358.848 80.9723 359.433 80.9881ZM325.099 80.4285C325.656 80.4101 328.013 80.7377 329.623 80.6336C327.8 81.231 319.29 80.622 325.099 80.4285ZM279.587 80.033C280.041 80.0158 290.729 80.0836 288.706 80.4461C287.331 80.6977 276.805 80.1835 279.587 80.033ZM291.748 80.0711C292.332 80.2426 290.949 80.6886 289.679 80.4236C289.134 80.3101 290.137 80.0485 291.748 80.0711ZM345.555 80.0486C339.729 79.803 330.779 79.6365 330.218 79.6951C329.994 79.7189 329.844 80.0235 329.952 80.0379C330.57 80.1033 339.67 80.2158 345.558 80.2908C347.857 80.3167 349.539 80.3377 350.236 80.325C349.547 80.245 347.859 80.1407 345.555 80.0486ZM315.375 79.5427C316.923 79.5549 315.773 79.7897 316.726 79.8084C317.333 79.8168 329.835 79.7136 328.043 80.1062C326.777 80.3653 309.626 79.8209 306.858 79.7937C309.313 79.3204 311.318 79.732 314.631 79.7576C315.523 79.7632 315.281 79.5427 315.375 79.5427ZM399.588 80.0271C402.813 79.7574 392.895 79.3383 395.756 79.8601C395.901 79.8925 399.426 80.0468 399.588 80.0271ZM279.768 79.7469C276.517 79.3504 291.096 79.6977 291.935 79.7683C290.977 79.941 280.211 79.8073 279.768 79.7469ZM284.888 79.0945C288.345 79.2728 295.955 78.9705 292.83 79.5613C291.26 79.8547 290.219 79.4573 290.018 79.45C288.063 79.3728 284.009 79.3752 284.888 79.0945ZM363.718 79.2381C362.307 79.2044 358.452 78.7897 358.256 79.0633C359.648 79.0756 363.491 79.5084 363.718 79.2381ZM314.996 76.7947C330.547 76.9734 304.69 75.6465 315.593 77.3709C306.63 76.7219 312.668 77.5634 311.293 77.7693C309.823 77.9848 304.751 77.7128 305.021 78.1121C305.023 78.1121 305.026 78.1121 305.029 78.1121C308.127 78.1062 311.222 78.0995 314.315 78.0955C311.261 77.1878 317.593 77.4802 319.754 78.2478C320.63 78.0712 321.504 77.8924 322.379 77.7127C323.863 78.8791 324.385 77.0491 327.261 78.0427C331.026 76.6724 316.769 77.9329 314.996 76.7947ZM304.152 77.991C301.548 77.6385 296.217 77.9785 297.599 78.1043C298.209 78.1594 303.695 78.2497 304.152 77.991ZM291.531 77.3953C288.483 77.6866 274.557 77.375 273.832 77.4129C273.273 77.4465 277.508 78.0154 270.875 77.6297C270.873 77.6296 270.87 77.6297 270.868 77.6297C275.726 78.4931 282.259 77.657 282.979 77.6717C283.692 77.6997 282.587 78.0476 282.746 78.0594C283.119 78.0862 290.729 78.1304 291.096 78.1052C291.357 78.0858 289.968 77.5527 291.531 77.3953ZM476.679 77.6492C476.707 77.77 476.719 77.8768 476.659 77.9109C476.623 77.9318 476.478 77.9383 476.392 77.9109C476.329 77.8787 476.252 77.8585 476.679 77.6492ZM241.888 77.8758C242.738 77.6135 252.272 76.9577 252.037 77.2127C251.822 77.432 243.387 77.7843 241.888 77.8758ZM284.779 77.7986C282.871 77.5694 288.202 77.5843 289.494 77.6726C292.364 77.8758 285.024 77.8283 284.779 77.7986ZM329.369 77.6062C332.499 78.0048 330.997 76.8315 328.691 77.1121C328.558 77.1284 329.224 77.5874 329.369 77.6062ZM476.679 77.6492C476.675 77.6306 476.67 77.6116 476.665 77.5926C476.738 77.5793 476.808 77.5648 476.877 77.5525C476.801 77.5876 476.736 77.6213 476.679 77.6492ZM258.99 76.1326C259.255 76.1472 258.605 76.8323 256.748 76.8435C250.926 76.878 255.147 76.2072 242.984 77.534C248.089 76.7893 243.262 77.1927 244.253 76.9539C245.051 76.7656 248.057 76.722 246.305 76.5301C248.607 76.7152 258.558 76.101 259.002 76.1316C258.998 76.1318 258.994 76.1324 258.99 76.1326ZM292.379 75.9617C290.433 76.3828 282.098 76.3795 277.279 76.4256C281.519 76.6086 288.401 76.9246 292.58 77.0496C293.774 77.0859 294.924 76.9018 295.941 76.9246C297.569 76.9631 296.137 77.2316 296.245 77.242C296.247 77.242 296.251 77.242 296.253 77.242C298.388 77.4014 301.111 76.7939 296.563 76.7224C298.157 76.632 299.752 76.5381 301.345 76.4431C295.382 76.1063 295.842 76.9435 294.131 76.9041C291.74 76.8487 291.906 76.1759 292.379 75.9617ZM354.046 76.3543C353.946 76.3668 354.791 76.7437 354.896 76.7595C359.214 77.3889 356.443 76.2271 354.046 76.3543ZM282.626 76.781C280.198 76.767 276.442 76.5988 275.124 76.867C277.555 76.8891 281.311 77.0656 282.626 76.781ZM311.441 76.5291C310.54 76.4152 300.979 76.5473 304.842 76.7986C305.152 76.8187 311.877 76.7073 311.441 76.5291ZM339.039 75.8279C338.326 75.8154 338.122 76.3885 338.279 76.4373C339.765 76.8676 341.439 75.8793 339.039 75.8279ZM325.585 75.9832C327.852 76.3315 328.369 75.341 325.774 75.6306C325.673 75.6423 325.504 75.9625 325.585 75.9832ZM294.054 74.7224C292.551 74.5184 287.435 75.089 286.387 75.2185C294.069 74.9777 291.189 75.5645 292.566 75.7527C295.485 76.1563 294.419 74.7746 294.054 74.7224ZM328.759 75.1844C327.18 75.225 322.901 74.9851 322.294 75.24C323.745 75.2922 328.04 75.4339 328.759 75.1844ZM254.709 74.6404C254.83 74.7672 251.236 74.9622 250.928 74.9558C248.908 74.9018 253.376 74.615 254.709 74.6404ZM305.944 74.8299C308.632 74.651 301.738 74.4172 300.435 74.826C301.774 74.7961 305.179 74.8798 305.944 74.8299ZM513.147 74.5066C517.448 73.5052 499.019 74.3132 503.936 74.826C504.272 74.8655 512.748 74.5989 513.147 74.5066ZM241.385 74.4646C243.407 74.5287 238.936 74.8155 237.601 74.7859C237.475 74.6442 241.072 74.4556 241.385 74.4646ZM290.982 74.4138C293.189 74.9632 295.109 73.7148 291.748 73.9998C291.588 74.0135 290.89 74.3865 290.982 74.4138ZM498.781 73.8152C498.364 73.7855 493.338 74.1409 493.274 74.4959C494.802 74.5091 501.377 74.0082 498.781 73.8152ZM250.452 74.3377C247.831 74.2228 254.405 73.7691 255.12 74.0496C255.242 74.1003 250.953 74.3571 250.452 74.3377ZM521.96 72.614C524.035 72.0396 517.238 72.077 519.167 72.6131C519.249 72.6371 521.85 72.646 521.96 72.614ZM45.5111 68.4051C46.0338 68.7313 46.4537 68.9592 46.8061 69.1433C46.898 69.0003 46.995 68.8497 47.0941 68.6902C47.1272 68.6493 47.1592 68.6072 47.1918 68.5652C46.7424 68.5105 46.1902 68.4571 45.5111 68.4051ZM526.029 67.989C527.143 68.5755 527.801 68.7376 528.134 68.9246C528.191 68.947 528.248 68.9665 528.301 68.9871C528.35 68.9817 528.4 68.9748 528.448 68.9695C528.871 68.917 529.299 68.8767 529.409 68.7986C529.516 68.7209 529.501 68.6254 528.815 68.4578C528.43 68.3647 528.068 68.289 527.736 68.2254C527.822 68.2646 527.879 68.3034 527.928 68.3728C528.109 68.5109 527.955 68.5062 527.415 68.3064C527.285 68.2357 527.117 68.1715 526.9 68.0847C526.552 68.0346 526.258 68.0035 526.029 67.989ZM524.846 67.2986C525.236 67.5459 525.588 67.7501 525.905 67.9207C526.123 67.9251 526.333 67.9274 526.529 67.9275C526.216 67.7917 525.824 67.609 525.336 67.326C525.178 67.317 525.013 67.3071 524.846 67.2986ZM526.004 67.364C526.432 67.6279 526.759 67.8012 527.012 67.9217C528.011 67.8967 528.419 67.7812 527.407 67.4998C527.385 67.4685 526.816 67.4173 526.004 67.364ZM38.8256 60.9422C38.7694 60.9704 38.7142 60.9987 38.6606 61.0252C38.5534 61.078 38.451 61.1275 38.3539 61.1736C38.3243 61.1877 38.2947 61.2011 38.266 61.2146C38.279 61.2344 38.2911 61.2546 38.3041 61.2742C38.4207 61.2467 38.5555 61.2283 38.7133 61.2254C38.9555 61.223 39.17 61.2235 39.3568 61.2263C39.5091 61.152 39.6694 61.0664 39.8412 60.9724C39.5788 60.9227 39.3194 60.8719 39.0629 60.822C38.9803 60.8645 38.8887 60.9106 38.8256 60.9422ZM37.9682 35.9842C37.7944 35.9437 37.8373 35.9817 37.9701 36.0476C38.0204 36.042 38.0709 36.0366 38.1215 36.031C38.0573 36.0099 38.0088 35.9967 37.9682 35.9842ZM526.787 29.4177C525.344 29.349 525.142 30.0781 524.788 30.1433C524.681 30.172 523.299 30.2731 522.071 30.3943C521.915 30.532 521.732 30.6951 521.544 30.8709C522.034 30.8918 522.67 30.9107 523.477 30.9236C523.973 30.9403 528.948 29.5051 526.787 29.4177ZM520.949 30.5213C520.931 30.5384 520.912 30.5549 520.894 30.572C520.813 30.6493 520.733 30.7322 520.648 30.8162C520.73 30.8238 520.823 30.8296 520.927 30.8367C521.056 30.7101 521.181 30.5902 521.3 30.4783C521.176 30.4927 521.058 30.5067 520.949 30.5213ZM525.22 27.5662C525.012 27.6258 524.769 27.6851 524.505 27.742C524.344 27.8434 524.175 27.9528 523.999 28.0701C524.249 28.0104 524.478 27.9514 524.677 27.8914C524.867 27.7741 525.048 27.6661 525.22 27.5662ZM45.39 27.116C45.2187 27.2255 44.9744 27.3846 44.6742 27.5926C45.0216 27.5106 45.3268 27.4311 45.5649 27.3572C45.5096 27.2739 45.4537 27.1922 45.3988 27.1111C45.3961 27.1127 45.3927 27.1143 45.39 27.116ZM49.4281 25.8972C49.284 25.9221 49.0973 25.9652 48.9135 26.0193C48.9724 26.1225 49.0301 26.2297 49.0902 26.3386C49.1657 26.3206 49.2397 26.3035 49.308 26.2849C49.4262 26.2532 49.5195 26.2257 49.5922 26.2019C49.537 26.0984 49.4831 25.9961 49.4281 25.8972ZM47.0873 26.1394C47.1123 26.179 47.1365 26.2204 47.1615 26.2605C47.2745 26.2015 47.3977 26.1396 47.5297 26.0769C47.5034 26.0365 47.4772 25.9971 47.4516 25.9588C47.3398 26.0127 47.2185 26.0718 47.0873 26.1394ZM529.083 25.6492C529.005 25.672 528.841 25.6973 528.43 25.8367C528.889 25.7303 529.317 25.6083 529.083 25.6492ZM40.2631 24.8982C40.4722 25.0883 40.6901 25.2941 40.9145 25.5203C42.0073 25.6445 42.6834 25.6281 42.2826 25.3299C42.0871 25.21 41.2455 25.0534 40.2631 24.8982ZM48.5834 25.4617C48.6073 25.5009 48.6305 25.5415 48.6547 25.5818C48.7276 25.5516 48.8006 25.5202 48.8744 25.49C48.9564 25.4551 49.0435 25.4165 49.1274 25.3806C49.108 25.3485 49.089 25.3165 49.0697 25.2849C48.9515 25.3241 48.7971 25.3774 48.5834 25.4617ZM35.5375 23.408C35.5593 23.538 35.2686 23.6891 35.0268 23.8279C34.7715 23.9632 34.6082 24.1 34.6547 24.1551C34.4138 24.3163 37.2591 24.9636 39.5688 25.3328C39.2823 25.0799 39.0131 24.8599 38.7797 24.6775C37.5788 24.5052 36.5305 24.3627 36.5102 24.322C36.3647 24.251 36.6803 24.1352 36.7377 23.9793C36.8075 23.8242 36.5261 23.6211 35.5375 23.408ZM533.736 20.7957C534.186 20.4878 538.365 21.2548 543.493 22.7595C542.886 22.7576 540.043 21.9992 538.25 21.6394C536.326 21.2274 534.626 20.8969 533.736 20.7957ZM35.7357 21.784C35.6303 21.8245 35.5958 21.8999 35.6234 21.9949C35.7284 22.0264 35.8598 22.0679 36.0209 22.1297C36.1392 22.1755 36.2749 22.233 36.4301 22.3025C36.6301 22.3945 36.8656 22.509 37.141 22.658C37.1716 22.6746 37.2021 22.6933 37.2338 22.7107C36.9934 22.3718 36.1924 21.6251 35.7357 21.784ZM39.894 18.9295C40.5102 19.0323 40.7476 19.2801 40.7074 19.4793C40.8406 19.5733 40.9848 19.6739 41.1381 19.7869C41.2609 19.8774 41.3907 19.9746 41.5277 20.0799C41.5997 20.1351 41.6568 20.1787 41.7504 20.2517C41.853 20.3317 41.9592 20.4161 42.0688 20.5047C42.2122 20.6222 42.3599 20.7503 42.517 20.8836C42.7884 20.9396 43.0292 20.985 43.227 21.0154C42.2814 20.1931 41.5828 19.7545 41.2514 19.4959C40.8774 19.2478 40.5566 19.0469 40.2836 18.8806C39.9266 18.7495 39.5747 18.6186 39.2367 18.4949C39.4061 18.6053 39.6212 18.7489 39.894 18.9295ZM504.482 19.8904C504.7 19.2697 498.153 19.155 500.702 19.867C501.334 20.0435 504.401 20.0957 504.482 19.8904ZM40.8354 17.6658C40.9921 17.7676 41.1699 17.8837 41.3705 18.0193C41.5041 18.1098 41.6474 18.2103 41.8031 18.3201C42.0956 18.3625 42.3781 18.4025 42.6459 18.4363C41.8846 17.8758 41.659 17.862 41.3891 17.6463C41.367 17.634 41.3442 17.623 41.3227 17.6111C41.1491 17.6313 40.9842 17.6496 40.8354 17.6658ZM468.996 17.0222C467.742 16.8524 466.745 17.8001 466.876 17.8631C468.179 18.4444 470.196 17.5276 468.996 17.0222ZM459.231 16.9715C457.574 17.0347 460.314 18.3738 462.485 17.5926C461.405 17.569 459.396 16.9672 459.231 16.9715ZM458.353 17.0701C455.695 15.9847 455.761 17.4005 457.713 17.6258C458.439 17.7053 458.435 17.105 458.353 17.0701ZM504.897 16.3386C506.24 15.8394 510.061 16.4503 512.513 16.6648C511.378 17.0788 506.951 16.5069 504.897 16.3386ZM487.518 14.5594C487.668 14.5473 490.996 14.8501 491.149 14.8894C493.852 15.6872 484.432 14.8368 487.518 14.5594ZM469.992 14.3562C469.556 13.502 475.218 14.6011 477.213 14.6502C477.633 15.5006 471.964 14.4304 469.992 14.3562ZM441.081 13.8465C439.645 13.6168 435.518 12.4625 434.615 12.6853C436.787 13.0865 441.435 14.767 441.081 13.8465ZM459.799 13.1668C460.116 12.8399 463.667 13.3578 464.938 13.3816C464.064 13.8262 461.492 13.4088 459.799 13.1668ZM435.904 8.50955C435.977 7.97227 435.91 8.1307 437.519 8.46267C449.437 11.0052 452.25 11.5492 451.764 11.784C450.741 11.8825 446.443 11.4182 435.904 8.50955ZM39.9652 8.98123C39.7586 8.96524 35.0295 9.48975 34.7973 9.55837C32.313 10.1427 34.8741 9.92774 37.3158 9.65896C39.7202 9.39143 42.0817 9.0395 39.9652 8.98123ZM53.7807 7.44412C52.7182 7.55026 48.0132 7.73633 47.974 7.96267C47.8979 8.31276 53.2716 8.08235 53.7807 7.44412ZM259.659 4.45193C256.661 4.64301 253.569 7.00147 257.282 6.54763C257.676 6.4983 260.009 4.75837 259.659 4.45193ZM301.224 6.14529C303.799 5.60609 297.826 4.95552 296.715 5.3865C296.168 5.59801 300.087 6.3794 301.224 6.14529ZM371.574 5.81423C371.504 5.33907 367.264 5.40882 367.821 5.7322C368.008 5.83891 371.621 6.19529 371.574 5.81423ZM337.725 5.46755C337.407 5.41051 333.775 5.45996 333.901 5.80544C335.243 6.02645 339.76 5.8533 337.725 5.46755ZM272.468 5.05154C269.619 5.67965 275.762 6.00971 275.185 5.27517C275.099 5.23529 272.581 5.02461 272.468 5.05154ZM285.576 4.81619C283.048 3.95068 278.767 4.11371 279.847 5.26638C284.578 5.11161 279.239 4.2168 285.576 4.81619ZM247.849 4.10525C249.65 3.23789 240.296 3.68038 239.533 4.64333C240.763 4.74356 247.619 4.20503 247.849 4.10525ZM387.03 2.93337C387.263 2.9205 390.705 3.2901 390.808 3.33767C393.052 4.27592 381.748 3.17424 387.03 2.93337ZM291.751 1.17751C292.65 1.03161 293.486 -0.580253 298.217 0.223413C298.221 0.223416 298.226 0.223416 298.23 0.223413C299.61 0.459502 298.041 0.849381 298.293 0.988061C298.391 1.04449 302.69 1.84218 299.117 1.96658C293.67 2.16941 298.595 0.776804 295.694 0.766381C295.334 0.762403 289.854 1.66396 290.177 1.85427C290.217 1.8747 291.857 1.67939 292.131 1.75662C293.164 2.04623 292.668 2.54842 292.812 2.57205C293.278 2.62066 301.975 1.75506 303.243 2.51345C303.642 2.73018 289.399 3.31992 288.852 3.22537C288.502 3.14964 288.632 1.76279 288.268 1.62966C288.079 1.56064 282.378 2.154 281.643 2.04177C281.428 2.00832 281.263 1.97002 281.142 1.93923C282.008 2.35234 276.868 2.41148 277.011 1.92751C277.095 1.73468 280.638 1.78103 280.769 1.81326C280.825 1.82638 280.873 1.84556 280.918 1.85818C280.165 1.33522 292.215 1.21373 289.609 0.469506C293.105 0.0146487 289.124 1.61232 291.751 1.17751ZM389.226 2.31619C388.65 1.43024 396.446 2.26787 397.038 2.50955C399.409 3.4181 389.844 2.14894 389.226 2.31619ZM304.015 1.30837C305.888 0.780815 304.987 0.0431542 308.519 0.338647C308.166 0.481753 307.813 0.625135 307.46 0.768335C313.443 0.449017 320.37 1.19769 327.308 1.2654C329.069 1.28409 327.046 0.375409 329.355 0.643335C331.204 0.858386 333.249 1.70506 332.243 1.87576C331.996 1.91795 328.23 1.33849 326.348 1.37478C320.792 1.48278 322.191 2.25957 321.868 2.27712C321.507 2.29501 318.016 1.73086 316.114 1.74099C311.685 1.76594 309.479 2.15738 304.015 1.70193C303.559 1.66516 303.08 1.62266 302.579 1.57498C303.189 1.49816 303.652 1.40695 304.015 1.30837Z" fill="white"/>
</svg>
