<svg width="322" height="84" viewBox="0 0 322 84" fill="none" xmlns="http://www.w3.org/2000/svg">
<path d="M198.925 1.03165C201.833 2.40235 201.759 1.12785 202.554 1.25235C202.83 1.2983 204.866 2.44875 207.115 2.4711C205.5 2.58153 203.887 2.69993 202.289 2.8256C203.854 3.06299 206.925 2.9415 208.234 3.21329C208.869 3.34492 208.32 4.20842 209.711 4.24552C210.006 4.24992 211.231 2.13668 207.569 2.9506C207.297 2.16559 209.012 2.74039 209.826 2.55997C209.95 2.52747 210.465 1.26722 211.476 2.11759C211.724 2.33812 208.879 5.92035 215.97 3.59806C216.201 3.52437 215.43 3.00814 215.656 2.92423C215.815 2.86737 217.597 3.16769 217.808 3.11661C218.016 3.05878 217.164 2.49204 217.411 2.40665C218.69 1.97126 220.23 4.10553 217.666 3.7797C218.515 4.08578 219.363 4.39547 220.214 4.70743C219.366 3.1173 221.595 4.37435 222.805 4.42716C230.633 4.81181 225.478 3.37158 226.859 2.98087C229.124 2.38612 227.226 4.78858 230.586 4.37149C230.867 4.34171 227.865 3.13013 232.423 3.87638C233.123 3.99037 233.923 4.14128 234.986 4.36466C234.098 4.27086 233.271 4.19314 232.399 4.11759C232.029 4.08601 231.659 4.05536 231.288 4.02579C231.439 4.45695 231.838 4.67744 232.337 4.77286C233.707 5.02082 235.818 4.50483 236.062 4.52774C239.581 4.89032 237.037 4.9329 242.581 5.24942C243.076 5.284 244.084 5.86399 245.205 5.94864C249.812 6.27875 239.436 4.17742 239.365 3.69474C239.129 3.21414 250.367 5.85983 250.661 6.27774C252.125 7.31053 245.557 5.11397 246.657 6.21134C246.781 6.36495 251.281 7.48768 254.761 8.68399C258.248 9.86421 259.704 10.345 260.355 10.6947C261.665 11.4705 262.071 13.5192 262.481 11.4154C262.485 11.5707 262.492 11.7096 262.503 11.8315C262.596 13.415 263.247 12.2959 263.444 12.3539C266.406 13.1913 266.566 13.2158 269.659 13.56C270.365 13.6377 270.879 14.3607 271.147 14.2983C271.301 14.2589 271.109 13.5449 271.85 13.4584C272.833 13.3427 279.038 15.0328 279.517 15.4779C279.948 15.9169 276.794 15.2059 277.298 15.8979C279.575 16.3188 281.832 16.5244 284.254 16.9877C285.264 17.1831 284.694 17.5103 285.129 17.5912C285.301 17.6193 288.931 17.8751 288.825 17.7065C288.34 17.2234 277.716 15.7413 280.595 15.4652C281.14 15.4094 282.923 16.6768 282.759 15.4613C285.803 16.0496 288.905 16.6564 292.401 17.4311C294.168 17.8273 295.984 18.2434 298.332 18.8832C299.526 19.2164 300.79 19.5679 302.741 20.2582C303.169 20.4129 303.812 20.6486 304.419 20.8969C304.732 21.0249 305.044 21.1578 305.402 21.3158C305.806 21.4933 306.233 21.6902 306.689 21.9145C307.145 22.1389 307.632 22.3908 308.155 22.684C308.794 23.0405 309.495 23.4611 310.267 23.9828C311.585 24.9034 314.216 26.7002 316.925 30.3881C319.121 33.3959 321.45 38.0344 321.752 44.0336C322.223 50.1433 319.407 56.6345 317.728 58.9613C313.425 65.0391 311.234 65.6793 309.351 67.016C306.231 68.8168 304.836 69.1748 303.522 69.6371C301.137 70.3847 299.834 70.6035 298.486 70.8559C295.97 71.2896 294.028 71.4841 292.138 71.6664C293.889 71.2077 295.763 70.8676 298.233 70.3686C299.555 70.0844 300.803 69.8623 303.168 69.1254C304.411 68.6949 305.822 68.3201 308.771 66.6596C310.659 65.3468 312.595 64.906 316.938 59.0629C318.631 56.7665 321.49 50.7267 321.17 44.519C320.972 38.4219 318.64 33.7578 316.442 30.7406C311.967 25.0276 309.477 24.2655 307.672 23.0951C306.1 22.2296 304.847 21.7066 303.974 21.351C302.081 20.601 300.946 20.2572 299.863 19.9262C297.76 19.3009 296.223 18.9379 294.738 18.6313C293.73 18.4135 290.721 17.7185 291.02 18.3734C292.773 18.7576 294.701 19.1358 297.147 19.7162C298.391 20.0184 299.732 20.3442 301.683 20.9711C302.653 21.2928 303.808 21.6736 305.581 22.4731C306.568 22.9348 307.433 23.3289 309.161 24.4086C310.601 25.3834 313.133 26.9033 316.159 30.9467C318.504 34.1702 320.995 39.2337 320.831 45.9643C320.747 49.2398 319.945 52.3781 318.854 54.8813C317.754 57.3639 316.834 58.6941 315.787 60.0854C314.766 61.4068 313.779 62.4216 312.878 63.2455C312.172 63.8875 311.54 64.3933 310.942 64.8383C309.79 65.6988 308.61 66.3943 308.013 66.7172C305.088 68.2686 303.808 68.5689 302.659 68.9428C300.401 69.6001 299.128 69.7825 297.891 69.9594C297.68 69.9867 298.332 69.347 297.535 69.4145C295.944 69.5831 292.218 70.8884 291.614 70.7367C291.492 70.706 293.515 69.7846 292.79 69.4506C290.958 68.6039 290.948 70.9592 289.613 71.1098C287.943 73.6082 286.153 75.1194 285.089 76.016C284.062 76.8451 283.058 77.4978 282.328 77.9252C281.671 78.309 281.088 78.6087 280.573 78.8559C279.49 79.3703 278.905 79.5796 278.453 79.7514C278.006 79.9171 277.733 80.0093 277.658 80.0414C277.021 80.3074 277.988 80.6082 277.345 80.8891C277.019 81.0449 275.037 81.4967 273.645 81.6176C272.095 81.7915 270.726 81.8193 269.895 81.9008C269.517 81.9386 269.177 81.9762 268.869 82.0141C266.778 82.2584 266.564 82.6238 266.358 82.64C265.675 82.6774 264.513 82.3865 263.197 82.4115C256.558 82.5776 247.662 82.2911 243.16 80.9525C247.176 81.6724 251.086 81.5496 255.334 81.5736C254.095 82.5234 261.651 80.9779 257.231 82.0053C258.266 81.8957 263.07 81.9851 268.792 81.4613C270.394 81.2965 271.852 81.1458 274.068 80.684C274.553 80.5829 275.214 80.4276 275.865 80.2484C276.196 80.1574 276.514 80.0656 276.878 79.9516C277.293 79.8199 277.721 79.6748 278.164 79.5102C279.859 78.7099 282.337 78.4057 287.213 73.4858C287.807 72.8816 288.453 72.0807 289.088 71.1283C288.835 71.1287 288.517 71.1236 288.155 71.1156C286.485 73.4234 284.766 74.8271 283.697 75.6391C282.009 76.8839 280.995 77.3859 280.015 77.8734C278.976 78.3714 278.35 78.6049 277.691 78.8451C276.296 79.3384 275.56 79.5129 274.669 79.7299C271.575 80.4124 270.114 80.4785 268.679 80.6449C267.501 80.7587 266.635 80.837 266.303 80.9027C267.075 80.9192 267.912 80.9194 268.716 80.9106C269.998 80.8713 271.193 80.8387 272.83 80.6332C271.209 80.853 269.992 80.9868 268.747 81.1322C265.658 81.4705 263.3 81.6658 262.962 80.6274C248.483 80.6643 236.256 78.988 223.819 77.6518C221.622 77.312 222.841 76.6164 219.232 76.4906C220.155 76.8415 221.082 77.1968 222.009 77.5561C220.147 77.168 212.026 75.9988 210.733 76.0453C210.568 76.0513 210.313 76.7236 208.319 76.5863C206.538 76.4662 206.265 75.9323 205.315 75.7524C204.523 75.6031 203.636 75.6608 203.401 75.6137C203.221 75.5763 203.147 75.2652 202.716 75.1781C201.357 74.91 202.466 75.8432 201.101 74.767C201.429 74.7535 201.759 74.7399 202.09 74.727C201.428 74.6215 200.676 74.4655 200.168 74.3139C199.469 74.1132 199.2 73.9172 200.159 73.8451C200.285 73.8355 200.434 73.8281 200.607 73.8236C201.021 73.813 200.67 74.0809 200.98 74.101C212.361 74.9057 204.701 73.789 200.159 73.7983C199.799 73.7989 199.457 73.8053 199.146 73.8188C198.022 73.319 191.729 73.2631 191.508 73.1772C191.213 73.0496 192.283 72.77 190.853 72.434C190.553 72.3562 182.061 72.2798 185.102 71.8715C185.733 71.783 189.813 72.03 190.79 72.0541C188.457 71.1263 183.071 72.1618 182.456 72.1C179.98 71.9054 187.17 71.5322 181.6 71.2904C177.309 71.1133 181.359 71.7421 179.72 71.9213C178.801 72.0128 173.902 71.3199 174.065 72.0365C172.392 72.0579 173.354 71.7147 173.146 71.6811C172.939 71.6538 169.651 71.7584 168.568 71.5775C168.437 71.5557 168.83 71.2145 168.694 71.1811C168.429 71.1254 165.239 71.0977 165.109 71.1205C165.029 71.1378 165.804 71.4644 165.495 71.5268C165.135 71.5988 162.052 71.4098 161.879 71.4838C161.643 71.6014 165.447 71.6706 164.829 71.9789C163.071 71.8251 160.216 71.9142 159.061 72.1029C159.343 72.0462 161.049 72.1217 161.643 72.1762C161.383 72.6419 157.717 72.4249 158.956 72.1303C158.167 72.2827 158.714 72.4165 158.272 72.5746C158.155 72.6146 157.025 72.5549 156.806 72.6186C156.779 72.6321 157.953 72.8784 157.723 72.9565C157.306 73.0997 153.859 72.8184 153.575 72.7533C152.779 72.5781 155.58 72.6327 155.81 72.4555C155.842 72.4277 153.448 71.908 153.408 71.8744C153.261 71.5254 155.919 71.9332 155.607 71.6C154.948 71.4967 154.292 71.3936 153.633 71.2904C156.154 71.1259 160.828 71.5018 162.013 71.1596C158.283 71.1351 154.361 70.9092 154.346 70.1088C154.338 69.7717 155.943 69.6298 155.878 69.5385C155.63 69.2195 153.415 69.4769 153.322 69.4555C153.254 69.4344 153.221 69.4154 153.22 69.3979C153.219 69.2233 156.397 69.1955 156.555 69.1117C156.815 68.9666 155.384 68.3178 155.379 68.184C155.428 68.1601 157.686 68.052 156.915 67.7992C156.134 67.548 154.162 67.5153 154.086 67.4887C153.704 67.3462 157.16 67.2548 157.259 67.1654C157.306 67.121 155.45 66.8469 155.39 66.7719C155.342 66.6969 156.746 66.5364 157.293 66.2904C157.7 66.1079 156.493 65.9748 156.702 65.9457C156.855 65.9283 160.111 65.9041 160.271 65.8676C160.506 65.816 159.738 65.6041 159.845 65.5473C160.001 65.4658 161.053 65.5293 160.914 65.4486C160.804 65.3831 156.704 64.6988 156.726 64.5063C156.767 64.1732 161.093 64.8376 157.042 63.6039C157.012 63.5967 156.044 63.7186 156.013 63.7113C155.649 63.5779 156.62 63.3524 156.633 63.2348C155.448 63.2751 154.254 63.3143 153.05 63.3481C150.136 63.4298 147.215 63.5304 144.289 63.6371C144.664 63.6457 144.965 63.6702 145.141 63.7172C143.91 63.9205 141.19 63.845 140.07 63.9906C139.94 64.0087 140.683 64.7757 138.976 64.3149C138.33 64.133 139.988 63.8715 141.77 63.7309C140.434 63.7812 139.097 63.83 137.76 63.8813C137.349 64.0182 137.056 64.233 136.854 64.5766C140.419 64.9499 144.683 63.9739 145.761 63.932C147.41 63.8498 145.712 64.1496 145.916 64.2084C145.989 64.2262 147.391 64.1498 147.426 64.1664C148.469 64.9867 141.105 64.4634 138.797 64.7201C139.422 64.8323 140.047 64.9417 140.671 65.0492C139.832 65.0968 138.991 65.1448 138.151 65.1928C142.164 65.2732 138.296 65.2856 137.328 66.1176C137.112 66.3048 139.727 65.849 136.748 66.5121C138.964 66.488 138.264 66.6836 140.257 66.3461C140.217 66.6458 135.728 67.2917 133.954 67.5805C140.248 67.4931 136.625 66.6149 142.071 66.8393C143.061 66.4071 140.478 66.6458 140.686 66.5707C141.436 66.3065 143.222 66.5245 145.336 65.6586C145.68 65.5193 144.192 65.2215 146.377 65.1274C146.62 65.1189 148.013 65.3587 148.002 65.3822C147.825 65.6348 146.448 65.6209 146.392 65.727C146.345 65.8268 147.861 65.6833 147.881 65.7084C147.938 66.0101 146.606 65.901 146.801 65.9858C147.228 66.1803 152.762 66.4621 145.558 66.7494C151.526 66.0102 146.312 66.353 143.986 66.643C143.393 66.7169 143.249 66.9176 142.405 67.0434C141.319 67.2062 140.04 67.2033 139.477 67.2787C138.872 67.3642 142.337 67.5763 137.344 67.8041C139.902 68.0833 144.361 67.256 146.859 67.3861C151.894 67.6099 143.39 68.4098 142.503 68.559C142.269 68.5964 143.068 68.7875 142.913 68.8168C142.653 68.8649 137.819 69.16 137.343 69.4272C136.876 69.6944 139.111 69.2617 139.274 69.4779C139.383 69.6196 133.548 70.449 136.716 70.2621C138.902 70.1212 142.89 69.1387 143.588 69.7231C140.394 70.0841 137.193 70.4545 133.982 70.8217C135.751 70.9208 137.517 71.0041 139.279 71.0756C135.688 71.5406 132.56 71.5543 129.135 72.2934C137.419 72.315 126.483 73.2921 126.354 73.4115C126.317 73.4882 129.602 73.8694 130.129 73.934C127.269 74.5496 118.433 75.6704 123.629 76.0346C122.687 75.9311 120.423 76.7177 120.453 76.7563C120.761 77.1512 125.707 76.2799 124.91 76.7475C123.987 77.2971 122.657 76.8749 121.213 77.0902C113.774 78.1756 115.87 80.2826 108.257 80.7192C108.409 80.7896 108.561 80.8604 108.713 80.9301C104.277 81.3112 99.787 81.6017 95.235 81.7602C91.3018 81.8995 87.3718 81.9556 83.4127 81.9203C80.0335 82.8192 71.0386 83.2526 66.6832 82.9193C65.8048 82.8712 61.5629 82.149 61.2623 82.0356C60.6872 81.8366 63.9893 81.9845 62.5445 81.5893C62.2267 81.5279 55.0624 80.7686 55.4986 81.3217C56.2885 81.4502 58.8572 81.3871 59.2496 81.5365C60.9418 82.1906 53.4363 81.6132 47.2936 80.9545C43.2061 80.5346 39.3771 80.0301 38.8932 80.1166C39.3667 80.3606 39.8324 80.601 40.3023 80.8393C38.8865 80.5814 37.4499 80.3065 35.9791 80.0053C36.6154 79.9344 37.2432 79.8607 37.8678 79.7836C36.2135 79.4601 33.882 79.2323 32.2281 78.7846C31.9583 78.7109 32.7828 78.3791 32.1363 78.2436C31.4903 78.1064 31.4675 78.7574 30.4742 78.64C29.4092 78.5355 24.2521 76.9923 21.1275 75.7504C19.856 75.2642 18.4014 74.7016 16.2418 73.4779C14.1654 71.7932 10.7169 71.7538 5.29942 61.4379C3.89613 58.4035 3.1988 54.4273 3.33848 50.6391C2.08718 48.3774 0.944704 45.4477 0.271097 41.2318C-1.07442 32.033 2.8714 24.0948 5.88536 20.4193C8.35296 17.2434 11.241 15.1513 12.5201 14.3373C15.7445 12.3005 17.4974 11.7426 19.3697 11.0111C19.6086 10.9224 19.8507 10.8327 20.0953 10.7416C26.5388 8.5104 28.9289 8.29638 32.0895 7.66446C35.0252 7.14721 37.6895 6.79299 40.3092 6.51798C37.4112 8.81259 42.767 7.01727 42.9781 7.09317C44.2375 7.45782 38.7372 8.29168 40.943 8.34024C43.9988 7.89543 46.9746 7.51135 49.8902 7.15763C47.4754 7.16437 52.975 5.2099 54.0152 5.75626C53.5311 4.04025 67.1244 6.13074 69.0543 5.43595C69.4606 5.28168 66.7142 4.61744 73.0475 4.53849C73.731 4.53198 73.4944 5.08261 73.8482 5.00724C74.0576 4.96264 75.2878 3.17169 76.6939 4.00528C77.1002 4.24808 75.2047 5.1496 77.8971 5.02872C78.6754 4.99423 79.7991 4.89169 81.3893 4.70548C78.2863 3.11315 92.0252 3.2161 94.3834 3.66153C93.8946 3.43812 93.4053 3.21589 92.9127 2.99454C95.3389 3.56117 95.7656 2.95679 96.3092 2.97501C98.4941 3.05275 101.455 3.60768 103.442 3.52579C105.764 3.43114 105.786 2.32644 108.461 2.72599C107.829 2.48878 107.195 2.25184 106.559 2.01603C108.416 2.05141 110.257 2.09128 112.082 2.13126C107.829 3.64205 112.997 2.1929 113.33 2.15665C113.867 2.09802 113.09 2.70731 113.989 2.62345C114.081 2.61013 113.955 2.04484 115.334 1.96622C118.207 1.80341 117.743 2.52225 118.941 2.5004C119.048 2.4939 118.677 1.98794 120.726 1.83927C127.204 1.35453 120.705 2.23552 120.443 2.30704C120.107 2.40351 122.366 4.52442 116.777 3.82462C118.658 4.0468 118.839 4.99168 119.05 5.0131C119.248 5.03106 122.469 4.85914 122.643 4.82267C124.219 4.47765 122.834 3.84884 123.14 3.72794C123.397 3.63255 127.235 4.4129 128.096 2.43399C129.919 4.19587 127.085 4.10324 123.995 4.42716C123.548 4.80436 126.922 5.10658 127.102 5.10099C131.421 5.00466 129.011 3.56949 129.938 2.59806C130.077 2.45166 130.321 2.42729 130.558 2.43595C131.149 2.45736 131.705 2.68282 130.548 1.76603C134.415 1.51102 132.086 2.35264 132.336 2.46036C132.717 2.61676 134.071 2.19085 134.246 2.23478C134.497 2.30209 133.637 2.79329 134.63 2.92228C134.799 2.93931 136.374 2.08828 134.306 1.78067C137.061 1.79693 136.822 1.12292 137.803 2.4545C139.64 -0.207057 139.248 3.92734 140.013 4.04337C142.057 4.34224 141.399 2.33477 141.502 2.22989C142.204 1.56596 147.933 2.01321 149.379 1.65665C148.862 3.14637 144.808 1.87427 143.944 2.19571C141.029 3.26909 148.141 2.74694 146.065 4.68107C146.951 4.13616 147.84 3.59088 148.733 3.04532C150.463 4.15674 148.081 4.77495 152.619 4.14884C153.321 3.09449 149.406 4.44684 150.17 3.60782C150.614 3.11531 153.251 2.9014 153.301 2.65079C153.34 2.34827 150.961 2.80364 151.32 2.32657C152.075 1.2906 160.966 1.89312 154.255 2.7006C155.881 2.62031 156.886 4.08044 158.182 4.01798C158.377 4.00856 158.579 3.96532 158.791 3.87735C159.183 3.71349 158.577 3.25726 158.137 2.76114C157.761 2.33656 157.504 1.88158 158.093 1.55314C158.66 1.23994 159.996 1.03795 162.792 1.11075C163.008 2.03732 159.173 1.49986 159.08 1.57657C158.947 1.68764 159.705 3.77225 159.827 3.87247C160.227 4.18425 169.527 2.81158 171.583 3.88126C171.004 3.01811 174.879 3.23969 177.509 3.35196C178.49 3.39504 179.286 3.40807 179.519 3.30314C179.734 3.20186 178.928 2.4508 179.159 2.37345C180.599 1.91605 184.525 3.28543 186.361 3.34415C188.412 3.40957 188.158 2.76585 188.272 2.76798C189.177 2.81703 188.453 3.24155 189.006 3.24845C189.837 3.25428 195.61 3.4494 195.916 3.37052C196.001 3.34433 195.059 2.59271 196.328 2.48282C196.549 2.46611 196.394 3.31894 200.17 3.04728C204.73 2.73111 197.024 1.88314 198.925 1.03165ZM25.5856 77.6234C25.9784 77.7319 31.2641 78.9528 30.7301 79.1274C29.6582 79.5428 24.6193 77.6483 25.5856 77.6234ZM131.682 78.9135C130.427 78.8096 134.613 78.2079 133.188 78.6938C133.125 78.7142 131.733 78.9176 131.682 78.9135ZM221.325 78.3354C220.882 77.8231 224.246 78.3951 224.381 78.4428C225.407 78.8368 222.244 78.76 221.325 78.3354ZM124.311 77.3256C124.163 77.3113 126.303 76.3148 126.923 76.7524C127.401 77.0873 124.702 77.3488 124.311 77.3256ZM217.931 75.7611C216.016 75.9693 222.004 76.6411 222.32 76.5697C222.128 76.2946 218.121 75.7394 217.931 75.7611ZM129.329 75.2182C131.205 74.7099 137.081 75.4358 130.816 76.0248C130.818 76.0246 130.819 76.0241 130.821 76.0238C129.187 76.1732 130.185 75.7876 130.111 75.7895C126.614 75.8658 127.554 76.3214 127.011 76.4623C125.844 76.7624 126.01 76.0236 124.037 76.5639C127.299 75.7218 124.324 76.2726 124.223 76.0238C123.827 75.0237 128.595 75.9902 130.208 75.5512C130.433 75.4943 128.753 75.383 129.329 75.2182ZM19.4273 74.2885C17.2697 73.3951 12.991 70.523 15.5523 72.5502C16.1228 73.001 18.0688 74.1741 19.5016 74.8334C20.986 75.5386 22.1767 75.9749 22.7301 76.1635C23.3768 76.0357 21.7745 75.3913 19.4273 74.2885ZM195.448 75.5365C196.267 75.2572 198.613 75.5134 199.95 75.5531C200.103 76.0067 196.41 75.5175 195.448 75.5365ZM209.984 75.1342C207.991 74.1743 202.067 75.1688 205.949 75.2358C206.022 75.2347 205.277 74.7395 206.779 74.9203C206.904 74.9372 207.138 75.4469 209.038 75.4379C209.423 75.4356 210.027 75.159 209.984 75.1342ZM211.065 74.8442C210.594 74.7063 205.883 74.2343 207.617 74.6108C207.772 74.6415 211.004 75.0692 211.065 74.8442ZM254.83 71.934C255.319 72.517 255.689 72.8542 256.002 73.1811C256.152 73.3245 256.288 73.4476 256.41 73.5551C257.002 73.8895 257.324 74.0958 257.44 74.3109C257.627 74.4054 257.701 74.3954 257.763 74.3793C257.842 74.3469 257.883 74.2809 257.847 74.1615C257.829 74.1011 257.778 74.0174 257.666 73.8842C257.573 73.7743 257.449 73.6434 257.215 73.4047C256.804 73.1842 256.276 72.8856 255.643 72.5024C255.411 72.3156 255.139 72.1331 254.83 71.934ZM207.952 73.9545C211.054 74.0459 205.102 73.145 205.881 73.6381C205.938 73.6669 207.626 73.9436 207.952 73.9545ZM133.764 73.3549C135.063 73.3844 132.072 73.8173 131.191 73.8295C131.139 73.6857 133.65 73.3532 133.764 73.3549ZM189.479 73.3432C189.781 73.3271 191.065 73.663 191.931 73.5649C190.962 74.156 186.338 73.5123 189.479 73.3432ZM276.373 73.1342C276.209 73.1406 276.063 73.145 275.943 73.1469C275.942 73.1695 275.94 73.1925 275.944 73.2143C275.986 73.3332 275.969 73.4893 276.538 73.268C276.644 73.2255 276.767 73.1718 276.903 73.1098C276.715 73.1181 276.537 73.1268 276.373 73.1342ZM200.143 72.9984C197.012 72.7558 192.525 72.576 192.232 72.6293C192.111 72.6523 192.037 72.9554 192.095 72.9701C192.42 73.0362 196.982 73.1726 200.147 73.2602C201.49 73.2976 202.607 73.325 202.988 73.3119C202.611 73.2231 201.49 73.1048 200.143 72.9984ZM171.289 72.8295C171.615 73.0035 170.87 73.4429 170.165 73.1723C169.863 73.0564 170.404 72.7995 171.289 72.8295ZM164.605 72.7387C164.854 72.7224 170.733 72.8363 169.63 73.1899C168.883 73.4338 163.08 72.8775 164.605 72.7387ZM179.546 72.6254C180.871 72.1645 181.976 72.5853 183.779 72.6264C184.264 72.6361 184.127 72.414 184.178 72.4145C185.019 72.4338 184.401 72.665 184.921 72.6879C185.26 72.7002 192.026 72.6483 191.065 73.0326C190.393 73.2892 181.068 72.6674 179.546 72.6254ZM164.697 72.4525C162.898 72.0421 170.926 72.452 171.382 72.5277C170.865 72.6951 164.944 72.5139 164.697 72.4525ZM255.297 69.8764C255.575 70.2379 255.828 70.5558 256.058 70.8373C257.576 71.8109 258.433 72.309 258.85 72.5815C258.77 72.5193 258.665 72.437 258.534 72.3295C258.205 72.0447 257.759 71.6912 256.871 70.6703C256.818 70.5994 256.759 70.526 256.698 70.4496C256.343 70.196 255.934 69.8908 255.444 69.4994C255.179 69.2702 254.893 69.0394 254.573 68.767C254.844 69.1977 255.092 69.5637 255.297 69.8764ZM277.787 71.8344C277.129 71.8651 276.602 71.917 276.275 71.9936C276.248 72.0146 276.22 72.0349 276.194 72.0551C276.102 72.1322 276.018 72.2063 275.945 72.2738C275.99 72.3229 276.075 72.3776 276.208 72.435C276.258 72.4613 277.008 72.4673 277.97 72.4438C278.036 72.4421 278.103 72.4387 278.17 72.4369C278.456 72.2555 278.775 72.0569 279.123 71.8324C278.704 71.8143 278.231 71.8152 277.787 71.8344ZM167.494 71.8227C169.399 72.0157 173.56 71.7504 171.868 72.3256C171.016 72.6115 170.431 72.2097 170.321 72.2016C169.246 72.1153 167.019 72.0994 167.494 71.8227ZM229.66 72.3129C231.357 72.0697 226.162 71.5866 227.654 72.1244C227.726 72.1501 229.572 72.3235 229.66 72.3129ZM210.282 72.1674C209.515 72.1515 207.431 71.7624 207.309 72.0356C208.072 72.0436 210.155 72.4427 210.282 72.1674ZM302.489 70.3617C302.353 70.6213 301.05 70.9979 299.906 71.2113C298.751 71.4332 297.699 71.5392 297.142 71.6645C297.215 71.2391 300.366 71.0711 302.489 70.3617ZM183.892 69.6674C192.365 69.9159 178.246 68.4727 184.234 70.2455C179.332 69.5552 182.646 70.4241 181.903 70.6234C181.109 70.8317 178.333 70.5357 178.492 70.9359C178.493 70.936 178.495 70.9359 178.497 70.9359C180.188 70.9451 181.876 70.9539 183.559 70.9643C181.869 70.0432 185.328 70.3647 186.522 71.141C186.994 70.9683 187.463 70.7936 187.934 70.6176C188.769 71.7896 189.009 69.9627 190.592 70.9672C192.603 69.6132 184.893 70.8148 183.892 69.6674ZM178.012 70.81C176.58 70.4452 173.674 70.7596 174.434 70.892C174.774 70.95 177.771 71.0661 178.012 70.81ZM161.368 70.0971C161.061 70.1288 163.406 70.7122 159.746 70.3031C159.744 70.3031 159.743 70.3032 159.742 70.3031C162.439 71.1824 166.009 70.3738 166.403 70.392C166.795 70.4233 166.197 70.7671 166.287 70.7787C166.496 70.8068 170.671 70.8849 170.871 70.8617C171.013 70.8431 170.236 70.3046 171.088 70.1547C169.429 70.4301 161.769 70.0605 161.368 70.0971ZM191.725 70.5385C193.432 70.9476 192.591 69.7706 191.346 70.0424C191.275 70.0585 191.646 70.5196 191.725 70.5385ZM167.395 70.5258C166.342 70.2884 169.267 70.3279 169.978 70.4223C171.559 70.6384 167.536 70.5563 167.395 70.5258ZM143.889 70.4623C144.349 70.2036 149.528 69.5794 149.408 69.8324C149.299 70.0515 144.707 70.3765 143.889 70.4623ZM153.171 68.7729C153.317 68.7874 152.976 69.4705 151.966 69.477C148.797 69.4947 151.083 68.8385 144.479 70.1244C147.247 69.3974 144.623 69.7847 145.159 69.5492C145.59 69.3639 147.227 69.3297 146.268 69.1322C147.529 69.3254 152.931 68.7417 153.178 68.7719C153.176 68.7721 153.174 68.7727 153.171 68.7729ZM171.507 68.726C170.455 69.1373 165.884 69.0949 163.236 69.1225C165.571 69.3218 169.359 69.6691 171.652 69.8139C172.307 69.8557 172.932 69.6777 173.489 69.7055C174.382 69.7518 173.604 70.0133 173.665 70.0238C173.666 70.0239 173.668 70.0238 173.67 70.0238C174.843 70.1933 176.314 69.5997 173.823 69.5063C174.693 69.4236 175.562 69.3385 176.43 69.2514C173.158 68.8859 173.435 69.7238 172.497 69.6762C171.185 69.6095 171.255 68.9378 171.507 68.726ZM254.759 69.9467C254.761 69.9474 254.762 69.9479 254.763 69.9486C254.669 69.8139 254.571 69.6715 254.47 69.5199C254.563 69.663 254.661 69.8052 254.759 69.9467ZM205.021 69.3402C204.967 69.3533 205.424 69.7282 205.483 69.7445C207.822 70.3604 206.345 69.2091 205.021 69.3402ZM166.182 69.5004C164.848 69.4758 162.781 69.292 162.063 69.5551C163.4 69.5863 165.468 69.7788 166.182 69.5004ZM181.947 69.3842C181.454 69.2664 176.235 69.3527 178.353 69.6225C178.528 69.644 182.193 69.5644 181.947 69.3842ZM196.932 68.7914C196.546 68.7775 196.445 69.3471 196.53 69.3979C197.344 69.8322 198.23 68.8492 196.932 68.7914ZM251.089 64.893C251.419 65.9946 251.802 66.9333 252.167 67.7084C252.869 68.4055 253.456 68.9242 253.96 69.3334C253.525 68.684 253.042 67.8761 252.596 66.8041C252.147 66.2856 251.649 65.6609 251.089 64.893ZM189.633 68.9027C190.872 69.2597 191.13 68.2709 189.727 68.5502C189.673 68.5617 189.588 68.8826 189.633 68.9027ZM172.386 67.4955C171.557 67.2845 168.773 67.8314 168.201 67.9565C172.403 67.7511 170.844 68.3235 171.603 68.518C173.214 68.9348 172.588 67.55 172.386 67.4955ZM191.338 68.1156C190.482 68.1505 188.147 67.8939 187.824 68.1459C188.613 68.2043 190.954 68.3622 191.338 68.1156ZM178.894 67.6615C180.358 67.4958 176.584 67.2285 175.882 67.6303C176.614 67.607 178.478 67.7077 178.894 67.6615ZM150.811 67.269C150.88 67.3961 148.926 67.5799 148.755 67.5727C147.652 67.5125 150.083 67.2401 150.811 67.269ZM143.533 67.0512C144.639 67.1222 142.203 67.3951 141.472 67.3608C141.396 67.2186 143.36 67.0412 143.533 67.0512ZM170.694 67.1733C171.921 67.7325 172.932 66.4942 171.1 66.7631C171.012 66.7775 170.642 67.1464 170.694 67.1733ZM148.482 66.9545C147.05 66.8318 150.623 66.3982 151.022 66.6791C151.095 66.73 148.758 66.9753 148.482 66.9545ZM284.769 64.7592C284.935 64.8288 285.086 64.8913 285.225 64.9486C285.294 64.8991 285.382 64.819 285.492 64.7289C285.412 64.6863 285.326 64.6413 285.232 64.5893C285.145 64.5409 285.056 64.4865 284.962 64.432C284.898 64.5424 284.833 64.6512 284.769 64.7592ZM283.755 64.2631C283.855 64.3193 283.951 64.3704 284.044 64.4184C284.126 64.2912 284.209 64.1613 284.291 64.0287C284.199 63.9705 284.104 63.9085 284.006 63.8442C283.924 63.986 283.84 64.1259 283.755 64.2631ZM285.786 62.8842C285.606 63.2495 285.421 63.607 285.231 63.9535C285.5 64.1151 285.727 64.2466 285.92 64.3529C286.15 63.9438 286.38 63.5118 286.61 63.058C286.619 63.041 286.628 63.0243 286.637 63.0072C286.39 62.974 286.104 62.9307 285.786 62.8842ZM281.041 62.1928C282.058 63.1434 282.872 63.7357 283.534 64.1332C283.627 63.9942 283.718 63.8537 283.807 63.7123C283.386 63.4142 282.751 62.9906 281.96 62.3227C281.655 62.2792 281.347 62.2346 281.041 62.1928ZM284.283 63.351C284.385 63.4199 284.485 63.4853 284.58 63.5473C284.725 63.2965 284.87 63.038 285.009 62.7709C284.882 62.7518 284.751 62.7323 284.618 62.7123C284.509 62.9287 284.397 63.1416 284.283 63.351ZM283.091 62.4867C283.482 62.7873 283.807 63.0154 284.046 63.1889C284.065 63.2021 284.084 63.2149 284.103 63.2279C284.21 63.0475 284.314 62.8653 284.415 62.682C283.995 62.6191 283.55 62.5543 283.091 62.4867ZM36.4693 60.2035C36.4769 60.3034 36.6231 60.3654 36.6686 60.4428C36.7251 60.5176 36.7194 60.5977 36.6861 60.6752C36.6569 60.7515 36.5933 60.8289 36.6402 60.8695C36.6988 60.9039 36.8353 60.9251 37.4674 60.7387C37.0645 60.79 36.8891 60.5923 36.7428 60.4301C36.6029 60.2657 36.4756 60.1347 36.4693 60.2035ZM38.3844 60.4115C38.1049 60.5231 37.8637 60.6105 37.6559 60.6811C37.5892 60.7024 37.5259 60.7211 37.4674 60.7387C37.5252 60.7307 37.5898 60.7173 37.6617 60.6967C37.8505 60.6364 38.0814 60.5493 38.3844 60.4115ZM42.8356 57.5961C39.7138 60.0189 39.066 60.0102 38.3844 60.4115C38.9897 60.1592 39.6516 59.9087 41.1314 59.0512C41.4802 58.8455 41.856 58.6107 42.2594 58.3402C42.5625 58.1346 42.8228 57.9561 43.2047 57.6703C43.0814 57.6452 42.9582 57.6213 42.8356 57.5961ZM41.5631 57.3295C41.5677 57.4904 41.5512 57.6217 41.4137 57.6615C41.3463 57.6827 41.1158 57.6965 40.7828 57.7065C40.2086 58.0955 39.6942 58.4086 39.2106 58.6947C38.8014 58.9417 38.4545 59.1464 38.1481 59.3266C38.4291 59.3515 38.7101 59.3782 38.9537 59.3871C38.6555 59.7126 37.9593 59.8014 37.3893 59.7836C37.3677 59.8001 37.3511 59.8137 37.3404 59.8266C37.3255 59.8584 37.3366 59.8829 37.3678 59.9008C37.5765 59.9331 38.2401 59.8737 39.7643 59.2182C40.6233 58.8383 41.699 58.2398 42.524 57.6967C42.5818 57.6602 42.6432 57.6152 42.7096 57.5707C42.3235 57.4912 41.9415 57.4097 41.5631 57.3295ZM35.7613 56.4662C35.6917 56.2205 35.4367 56.2795 35.4772 56.3676C35.4854 56.4372 35.6874 56.4952 35.7633 56.5844C35.773 56.5468 35.7752 56.5064 35.7613 56.4662ZM83.9547 23.3764C83.3915 22.9431 82.6766 22.8347 81.8102 23.0512C80.9436 23.2245 80.2933 23.6146 79.86 24.2211C79.4266 24.8278 79.0578 25.4348 78.7545 26.0414C78.4945 26.648 78.2352 27.2984 77.9752 27.9916C77.7152 28.6415 77.4549 29.313 77.1949 30.0063C76.9349 30.6996 76.6747 31.393 76.4147 32.0863C76.198 32.7362 75.9598 33.4078 75.6998 34.101C75.4831 34.7943 75.2229 35.5098 74.9195 36.2465C74.6163 36.9831 74.3559 37.6546 74.1393 38.2611C73.9226 38.8244 73.7065 39.4095 73.4898 40.016C73.2732 40.5793 73.0561 41.2076 72.8395 41.9008C72.6228 42.5508 72.3846 43.1799 72.1246 43.7865C71.908 44.3931 71.6265 45.108 71.2799 45.9311C70.9766 46.7544 70.7163 47.4478 70.4996 48.0111L70.11 48.9213C70.11 48.9213 70.0878 49.0078 70.0445 49.1811C70.0012 49.3543 69.9801 49.5494 69.9801 49.766C69.9801 49.9394 70.0012 50.1132 70.0445 50.2865C70.0879 50.4598 70.1532 50.6328 70.2398 50.8061C70.3265 50.9794 70.4129 51.1532 70.4996 51.3266L70.8893 51.7162C71.0626 51.8029 71.2365 51.8893 71.4098 51.976L71.9293 52.1059H72.5143C72.7309 52.0625 72.9269 52.0193 73.1002 51.976C73.2732 51.8895 73.4245 51.8027 73.5543 51.7162C73.7276 51.6296 73.8794 51.521 74.0094 51.391C74.1394 51.2177 74.2479 51.0659 74.3346 50.9359C74.4212 50.7626 74.5731 50.3945 74.7897 49.8315C75.0496 49.2248 75.3532 48.4881 75.6998 47.6215C76.0464 46.755 76.3279 46.0181 76.5445 45.4115C76.7612 44.8049 76.9994 44.1326 77.2594 43.3959C77.2887 43.3079 77.3175 43.2206 77.3463 43.1342C77.3608 43.1345 77.3751 43.1361 77.3893 43.1361C77.6059 43.1361 77.9096 43.115 78.2994 43.0717C78.7328 43.0284 79.2965 42.9842 79.9898 42.9408C80.683 42.8542 81.3546 42.7898 82.0045 42.7465C82.6543 42.6599 83.2827 42.5945 83.8893 42.5512C84.5392 42.5079 85.2328 42.4425 85.9693 42.3559C86.7344 42.2709 87.1246 42.2276 87.1393 42.226L87.274 42.1713C87.5326 42.7753 87.7909 43.4436 88.0494 44.1762C88.3094 44.8694 88.5265 45.5409 88.6998 46.1908C88.9165 46.8408 89.1335 47.5131 89.3502 48.2065C89.6101 48.8563 89.8696 49.5712 90.1295 50.351C90.4328 51.0877 90.5846 51.4565 90.5846 51.4565C90.5856 51.4582 90.6027 51.4873 90.6363 51.5434C90.641 51.5575 90.6452 51.5721 90.65 51.5863C90.6951 51.6615 90.7442 51.7332 90.7945 51.8031C90.9229 52.0108 91.0903 52.1993 91.2994 52.3666C91.3217 52.38 91.3455 52.3908 91.3678 52.4037C91.4693 52.4836 91.5766 52.5583 91.69 52.6264C91.9499 52.713 92.1883 52.7784 92.4049 52.8217C92.6648 52.865 92.9252 52.865 93.1852 52.8217C93.445 52.7783 93.6834 52.6909 93.9 52.5609C94.1165 52.431 94.3117 52.2791 94.485 52.1059C94.6581 51.8894 94.788 51.6729 94.8746 51.4565C94.8986 51.3965 94.9178 51.3342 94.9352 51.2709C94.9365 51.2676 94.9387 51.2644 94.94 51.2611C95.0267 51.0012 95.0699 50.7408 95.0699 50.4809C95.0699 50.221 95.0267 49.9826 94.94 49.766C94.8936 49.6266 94.8328 49.5007 94.7613 49.3861C94.696 49.2223 94.5803 48.9163 94.4195 48.4662C94.2029 47.8597 93.9867 47.2313 93.7701 46.5815C93.5535 45.9315 93.3364 45.2813 93.1197 44.6313C92.9464 43.938 92.7293 43.3098 92.4693 42.7465C92.2527 42.1398 91.9934 41.4675 91.69 40.7309C91.4301 39.9943 91.1697 39.3228 90.9098 38.7162C90.6931 38.0663 90.4549 37.3948 90.1949 36.7016C89.9783 36.0083 89.718 35.3148 89.4147 34.6215C89.1547 33.9282 88.8944 33.2347 88.6344 32.5414C88.3311 31.9349 88.0496 31.3065 87.7897 30.6567C87.5297 30.0933 87.2694 29.4642 87.0094 28.7709C86.7927 28.0344 86.5545 27.3407 86.2945 26.6908C86.0346 26.041 85.731 25.4347 85.3844 24.8715C85.0377 24.3082 84.5613 23.8097 83.9547 23.3764ZM199.736 23.3764C199.173 22.9431 198.458 22.8347 197.591 23.0512C196.725 23.2245 196.075 23.6146 195.641 24.2211C195.208 24.8278 194.839 25.4348 194.536 26.0414C194.276 26.648 194.016 27.2984 193.756 27.9916C193.496 28.6415 193.236 29.313 192.976 30.0063C192.716 30.6996 192.456 31.393 192.196 32.0863C191.979 32.7362 191.741 33.4078 191.481 34.101C191.264 34.7943 191.004 35.5098 190.701 36.2465C190.398 36.9831 190.137 37.6546 189.921 38.2611C189.704 38.8244 189.488 39.4095 189.271 40.016C189.054 40.5793 188.837 41.2076 188.621 41.9008C188.404 42.5508 188.166 43.1799 187.906 43.7865C187.689 44.3931 187.408 45.108 187.061 45.9311C186.758 46.7544 186.498 47.4478 186.281 48.0111L185.891 48.9213C185.891 48.9213 185.869 49.0078 185.826 49.1811C185.782 49.3543 185.761 49.5494 185.761 49.766C185.761 49.9394 185.782 50.1132 185.826 50.2865C185.869 50.4598 185.934 50.6328 186.021 50.8061C186.108 50.9794 186.194 51.1532 186.281 51.3266L186.671 51.7162C186.844 51.8029 187.018 51.8893 187.191 51.976L187.711 52.1059H188.296C188.512 52.0625 188.708 52.0193 188.881 51.976C189.054 51.8895 189.206 51.8027 189.336 51.7162C189.509 51.6296 189.661 51.521 189.791 51.391C189.921 51.2177 190.029 51.0659 190.116 50.9359C190.202 50.7626 190.354 50.3945 190.571 49.8315C190.831 49.2248 191.134 48.4881 191.481 47.6215C191.828 46.755 192.109 46.0181 192.326 45.4115C192.542 44.8049 192.781 44.1326 193.041 43.3959C193.07 43.3079 193.099 43.2206 193.128 43.1342C193.142 43.1345 193.156 43.1361 193.171 43.1361C193.387 43.1361 193.691 43.115 194.081 43.0717C194.514 43.0284 195.078 42.9842 195.771 42.9408C196.464 42.8542 197.136 42.7898 197.786 42.7465C198.436 42.6598 199.064 42.5945 199.671 42.5512C200.32 42.5079 201.014 42.4425 201.751 42.3559C202.516 42.2708 202.906 42.2276 202.921 42.226L203.055 42.1713C203.314 42.7753 203.572 43.4436 203.831 44.1762C204.091 44.8694 204.308 45.5409 204.481 46.1908C204.698 46.8408 204.915 47.5131 205.131 48.2065C205.391 48.8563 205.651 49.5712 205.911 50.351C206.214 51.0877 206.366 51.4565 206.366 51.4565C206.367 51.4582 206.384 51.4873 206.418 51.5434C206.422 51.5575 206.426 51.5721 206.431 51.5863C206.476 51.6615 206.525 51.7332 206.576 51.8031C206.704 52.0108 206.872 52.1993 207.081 52.3666C207.103 52.38 207.127 52.3908 207.149 52.4037C207.251 52.4836 207.358 52.5583 207.471 52.6264C207.731 52.713 207.97 52.7784 208.186 52.8217C208.446 52.865 208.706 52.865 208.966 52.8217C209.226 52.7783 209.465 52.6909 209.681 52.5609C209.898 52.431 210.093 52.2791 210.266 52.1059C210.439 51.8894 210.569 51.6729 210.656 51.4565C210.68 51.3965 210.699 51.3342 210.716 51.2709C210.718 51.2676 210.72 51.2644 210.721 51.2611C210.808 51.0012 210.851 50.7408 210.851 50.4809C210.851 50.221 210.808 49.9826 210.721 49.766C210.675 49.6266 210.614 49.5007 210.543 49.3861C210.477 49.2223 210.362 48.9163 210.201 48.4662C209.984 47.8597 209.768 47.2313 209.551 46.5815C209.335 45.9315 209.118 45.2813 208.901 44.6313C208.728 43.938 208.511 43.3098 208.251 42.7465C208.034 42.1398 207.775 41.4675 207.471 40.7309C207.211 39.9943 206.951 39.3228 206.691 38.7162C206.474 38.0663 206.236 37.3948 205.976 36.7016C205.76 36.0083 205.499 35.3148 205.196 34.6215C204.936 33.9282 204.676 33.2347 204.416 32.5414C204.112 31.9349 203.831 31.3065 203.571 30.6567C203.311 30.0933 203.051 29.4642 202.791 28.7709C202.574 28.0344 202.336 27.3407 202.076 26.6908C201.816 26.041 201.512 25.4347 201.166 24.8715C200.819 24.3082 200.343 23.8097 199.736 23.3764ZM172.952 23.2465C172.128 23.2465 171.304 23.2676 170.481 23.3109C169.701 23.311 168.748 23.3331 167.622 23.3764C166.538 23.4197 165.65 23.4408 164.957 23.4408L163.851 23.5063C163.846 23.5073 163.737 23.5295 163.526 23.5717C163.353 23.5718 163.18 23.615 163.006 23.7016C162.833 23.7882 162.659 23.8958 162.486 24.0258C162.356 24.1125 162.226 24.2431 162.096 24.4164C161.966 24.5464 161.858 24.6982 161.771 24.8715C161.728 25.0448 161.685 25.2399 161.641 25.4565C161.598 25.6296 161.577 25.8028 161.577 25.976C161.577 26.1492 161.598 26.3444 161.641 26.5609C161.728 26.7343 161.814 26.9081 161.901 27.0815C161.988 27.2115 162.096 27.3632 162.226 27.5365C162.356 27.6665 162.508 27.7751 162.681 27.8617C162.855 27.9484 163.028 28.0348 163.202 28.1215C163.375 28.1648 163.548 28.2081 163.721 28.2514C163.938 28.2514 164.415 28.2293 165.151 28.1859C165.888 28.1426 166.776 28.1215 167.816 28.1215C168.899 28.0782 169.831 28.0561 170.611 28.0561C170.706 28.0511 170.801 28.0468 170.896 28.0424C170.909 28.2342 170.923 28.4337 170.936 28.641C171.023 29.291 171.088 29.9633 171.131 30.6567C171.175 31.3498 171.197 32.0647 171.197 32.8012C171.197 33.4945 171.218 34.21 171.261 34.9467C171.305 35.683 171.327 36.3761 171.327 37.0258C171.327 37.6758 171.348 38.3481 171.391 39.0414C171.435 39.6913 171.478 40.3629 171.521 41.0561C171.564 41.7494 171.587 42.4217 171.587 43.0717C171.63 43.6782 171.673 44.3066 171.716 44.9565C171.76 45.6064 171.803 46.2567 171.846 46.9067C171.89 47.5562 171.912 48.0542 171.912 48.4008V48.9213C171.912 48.9254 171.934 49.0554 171.976 49.3109C171.99 49.3919 172.009 49.4706 172.031 49.5473C172.051 49.6418 172.075 49.7369 172.106 49.8315C172.236 50.0481 172.367 50.2643 172.497 50.4809C172.663 50.6476 172.85 50.7937 173.057 50.9203C173.128 50.9711 173.2 51.0203 173.276 51.0658C173.319 51.0802 173.363 51.0937 173.406 51.1068C173.53 51.1641 173.66 51.2157 173.796 51.2611C173.968 51.2898 174.14 51.2968 174.312 51.2875C174.475 51.2969 174.628 51.2898 174.771 51.2611C174.882 51.2243 174.988 51.1818 175.09 51.1371C175.159 51.115 175.227 51.0918 175.292 51.0658C175.367 51.0207 175.438 50.9716 175.508 50.9213C175.716 50.7944 175.905 50.6481 176.072 50.4809C176.245 50.2644 176.375 50.0479 176.462 49.8315C176.493 49.7357 176.517 49.6391 176.537 49.5434C176.558 49.4678 176.578 49.3906 176.591 49.3109C176.635 49.051 176.657 48.7262 176.657 48.3363C176.657 47.9463 176.635 47.4258 176.591 46.7758C176.548 46.1261 176.505 45.4763 176.462 44.8266C176.418 44.1332 176.375 43.4609 176.332 42.8109C176.332 42.1612 176.31 41.5115 176.266 40.8617C176.223 40.1685 176.18 39.4749 176.136 38.7817C176.093 38.0451 176.072 37.3082 176.072 36.5717C176.072 35.8352 176.05 35.1415 176.006 34.4916C175.963 33.7983 175.92 33.126 175.877 32.476C175.877 31.8261 175.854 31.1325 175.811 30.3959C175.768 29.6161 175.725 28.9012 175.681 28.2514C175.675 28.1639 175.668 28.0777 175.662 27.9926C176.401 27.9964 177.123 28.017 177.827 28.0561H180.296C180.513 28.0127 180.73 27.9916 180.947 27.9916H181.532C181.533 27.9914 181.539 27.9895 181.55 27.9877C181.588 27.9889 181.625 27.9916 181.662 27.9916C181.922 27.9483 182.16 27.8829 182.377 27.7963C182.636 27.6664 182.853 27.5144 183.026 27.3412C183.145 27.2461 183.242 27.1427 183.322 27.0346C183.445 26.89 183.542 26.7328 183.611 26.5609C183.652 26.4386 183.682 26.3161 183.704 26.1938C183.718 26.1417 183.732 26.0912 183.742 26.0414C183.785 25.7814 183.785 25.5211 183.742 25.2611C183.742 25.0012 183.676 24.7629 183.546 24.5463C183.501 24.4709 183.452 24.3987 183.402 24.3285C183.274 24.121 183.105 23.9332 182.896 23.766C182.752 23.6216 182.576 23.5242 182.372 23.4701C182.174 23.3658 181.959 23.3109 181.726 23.3109C181.51 23.2677 181.25 23.2677 180.947 23.3109H177.372C176.678 23.2676 175.985 23.2465 175.292 23.2465H172.952ZM116.651 22.7914C116.478 22.7481 116.304 22.7481 116.13 22.7914C115.957 22.7914 115.762 22.8126 115.546 22.8559C115.372 22.8992 115.199 22.9646 115.026 23.0512C114.896 23.1378 114.744 23.2464 114.571 23.3764C114.441 23.5064 114.31 23.6581 114.18 23.8315C114.094 24.0046 114.029 24.1779 113.986 24.351C113.943 24.5242 113.899 24.7194 113.856 24.9359V28.1859C113.856 29.1393 113.834 30.1362 113.791 31.1762C113.75 32.1418 113.73 33.0888 113.727 34.017C113.439 34.0157 113.092 34.0209 112.686 34.0365C111.559 34.0365 110.454 34.0577 109.371 34.101C108.331 34.101 107.313 34.1442 106.316 34.2309C105.363 34.2742 104.388 34.3184 103.391 34.3617C102.85 34.3863 102.35 34.4009 101.893 34.4115C101.888 33.5171 101.868 32.6555 101.831 31.8266C101.831 30.8733 101.81 29.8763 101.766 28.8363V26.3666L101.701 25.4565C101.701 25.4565 101.679 25.3698 101.635 25.1967C101.635 25.0234 101.592 24.8495 101.505 24.6762C101.462 24.5029 101.376 24.3511 101.246 24.2211C101.159 24.0479 101.029 23.896 100.856 23.766C100.726 23.636 100.574 23.5275 100.401 23.4408C100.228 23.3542 100.033 23.2898 99.816 23.2465C99.6427 23.2032 99.4688 23.2032 99.2955 23.2465C99.1222 23.2465 98.9271 23.2676 98.7106 23.3109C98.5373 23.3543 98.3642 23.4197 98.191 23.5063C98.061 23.5929 97.9093 23.7015 97.7359 23.8315C97.6059 23.9615 97.4974 24.1132 97.4107 24.2865C97.3242 24.4165 97.2376 24.5896 97.151 24.8061C97.1076 24.9794 97.0644 25.1532 97.0211 25.3266V26.4965C97.0644 27.0597 97.0855 27.8612 97.0856 28.9008C97.1289 29.9408 97.151 31.003 97.151 32.0863V38.1313C97.1943 39.0846 97.2154 40.0815 97.2154 41.1215C97.2588 42.1181 97.302 43.1584 97.3453 44.2416C97.3886 45.3248 97.4107 46.2998 97.4107 47.1664C97.454 48.0312 97.4761 48.4645 97.4762 48.4662C97.4762 48.4662 97.4762 48.5961 97.4762 48.8559C97.4894 48.935 97.5077 49.0122 97.5289 49.0873C97.5491 49.1835 97.574 49.2802 97.6061 49.3764L97.9957 50.0258C98.1623 50.1924 98.3496 50.3387 98.5563 50.4652C98.627 50.5162 98.6999 50.5661 98.776 50.6117C99.0357 50.6983 99.2956 50.7628 99.5553 50.8061C99.6429 50.8061 99.7284 50.8022 99.8111 50.7973C99.8994 50.8023 99.9876 50.8061 100.076 50.8061C100.336 50.7627 100.574 50.6983 100.791 50.6117C100.867 50.5661 100.94 50.5163 101.01 50.4652C101.217 50.3387 101.404 50.1924 101.571 50.0258C101.744 49.8093 101.874 49.5929 101.961 49.3764C101.992 49.2825 102.015 49.188 102.035 49.0942C102.057 49.0168 102.077 48.9375 102.09 48.8559C102.134 48.5961 102.156 48.3797 102.156 48.2065C102.156 48.0331 102.134 47.4481 102.09 46.4516C102.047 45.4549 102.026 44.4791 102.026 43.5258C102.026 42.5727 102.004 41.6195 101.961 40.6664C101.961 40.1479 101.955 39.6351 101.943 39.1283C102.418 39.1138 102.944 39.1059 103.521 39.1059C104.561 39.0625 105.579 39.0193 106.576 38.976C107.616 38.8893 108.613 38.8461 109.566 38.8461C110.562 38.8028 111.559 38.7595 112.555 38.7162H113.777C113.785 39.1453 113.791 39.5786 113.791 40.016C113.834 40.9692 113.834 41.9443 113.791 42.9408C113.791 43.8942 113.77 44.8699 113.726 45.8666C113.726 46.863 113.747 47.6211 113.791 48.141C113.834 48.661 113.856 48.9213 113.856 48.9213C113.856 48.922 113.857 48.9266 113.858 48.935C113.857 48.9732 113.856 49.0119 113.856 49.0512C113.888 49.2455 113.932 49.4399 113.989 49.6342C114.024 49.7718 114.066 49.9023 114.116 50.0258C114.194 50.1559 114.281 50.2775 114.375 50.392C114.396 50.4213 114.418 50.4516 114.441 50.4809C114.461 50.501 114.483 50.5199 114.504 50.5395C114.526 50.5634 114.548 50.5885 114.571 50.6117C114.603 50.6378 114.638 50.6609 114.671 50.6859C114.736 50.739 114.803 50.7903 114.874 50.8383C114.989 50.9201 115.105 50.9964 115.22 51.0658C115.437 51.1525 115.676 51.2178 115.936 51.2611C116.022 51.2611 116.109 51.2571 116.195 51.2524C116.282 51.2572 116.369 51.2611 116.456 51.2611C116.663 51.2265 116.857 51.1769 117.037 51.1147C117.077 51.1014 117.115 51.0863 117.154 51.0707C117.159 51.0686 117.165 51.068 117.171 51.0658C117.173 51.0648 117.174 51.063 117.176 51.0619C117.264 51.0254 117.349 50.9847 117.43 50.9359C117.647 50.8059 117.821 50.6542 117.951 50.4809C118.124 50.2644 118.254 50.0479 118.34 49.8315C118.382 49.7069 118.414 49.582 118.435 49.4574C118.449 49.4076 118.461 49.3587 118.47 49.3109C118.514 49.051 118.536 48.7262 118.536 48.3363C118.536 47.903 118.514 47.1875 118.47 46.1908V43.0717C118.514 41.9884 118.536 40.9694 118.536 40.016C118.536 39.0194 118.514 38.0445 118.47 37.0912C118.427 36.1379 118.406 35.1842 118.406 34.2309C118.449 33.2345 118.492 32.238 118.536 31.2416C118.579 30.2449 118.601 29.2259 118.601 28.1859V25.8461L118.536 25.0658C118.534 25.0594 118.512 24.9727 118.47 24.8061C118.47 24.5895 118.427 24.3944 118.34 24.2211C118.297 24.0479 118.211 23.896 118.081 23.766C117.951 23.5928 117.821 23.4409 117.691 23.3109C117.561 23.181 117.409 23.0734 117.236 22.9867C117.063 22.9001 116.868 22.8347 116.651 22.7914ZM123.366 23.1811C123.192 23.1377 123.019 23.1377 122.845 23.1811C122.672 23.1811 122.477 23.2032 122.26 23.2465C122.087 23.2898 121.914 23.3543 121.741 23.4408C121.611 23.5275 121.459 23.6361 121.286 23.766C121.156 23.896 121.025 24.0478 120.895 24.2211C120.808 24.3944 120.744 24.5683 120.701 24.7416C120.657 24.9149 120.614 25.11 120.571 25.3266V26.3666C120.614 26.8865 120.635 27.4717 120.635 28.1215V30.2016C120.679 30.8948 120.701 31.6096 120.701 32.3461V34.3617C120.701 35.0115 120.722 35.6612 120.765 36.3109C120.809 36.9609 120.831 37.6332 120.831 38.3266V40.4067C120.831 41.0565 120.852 41.7502 120.895 42.4867C120.938 43.2231 120.983 43.9161 121.026 44.5658C121.069 45.1724 121.113 45.866 121.156 46.6459C121.243 47.4259 121.286 47.9897 121.286 48.3363V48.8559C121.286 48.8559 121.286 48.8607 121.288 48.8695C121.287 48.908 121.286 48.9473 121.286 48.9867C121.329 49.2464 121.394 49.5063 121.48 49.766C121.567 49.9827 121.697 50.1997 121.871 50.4164C122.037 50.5828 122.224 50.7284 122.43 50.8549C122.501 50.9061 122.575 50.9556 122.651 51.0014C122.911 51.088 123.149 51.1534 123.366 51.1967C123.459 51.1967 123.551 51.1915 123.644 51.1859C123.727 51.1915 123.808 51.1967 123.885 51.1967C124.145 51.1534 124.384 51.088 124.6 51.0014C124.86 50.8714 125.077 50.7196 125.251 50.5463C125.424 50.3296 125.576 50.1126 125.706 49.8959C125.785 49.763 125.837 49.6213 125.868 49.4721C125.931 49.2994 125.965 49.1382 125.965 48.9867C125.965 48.8947 125.958 48.8024 125.947 48.7104C125.958 48.5117 125.965 48.2786 125.965 48.0111C125.965 47.4912 125.944 46.8841 125.901 46.1908C125.858 45.4978 125.792 44.8048 125.706 44.1117C125.662 43.4185 125.619 42.7248 125.576 42.0317V39.9516C125.576 39.8309 125.574 39.7112 125.573 39.5932C125.617 39.5821 125.662 39.572 125.706 39.5609C125.813 39.5075 125.91 39.4444 126.001 39.3744C126.311 39.7582 126.667 40.1895 127.071 40.6664C127.547 41.1862 128.002 41.7062 128.435 42.226C128.868 42.746 129.303 43.2665 129.736 43.7865C130.169 44.3063 130.624 44.8263 131.1 45.3461C131.577 45.8661 132.097 46.3867 132.661 46.9067C133.224 47.4264 133.744 47.9243 134.22 48.4008C134.697 48.8341 135.152 49.2682 135.586 49.7016C136.019 50.1348 136.236 50.351 136.236 50.351C136.237 50.3523 136.258 50.3728 136.297 50.4125C136.298 50.4138 136.299 50.4152 136.3 50.4164L136.496 50.6117C136.61 50.6802 136.724 50.7418 136.838 50.7983C136.876 50.8223 136.913 50.8487 136.951 50.8715C137.07 50.9193 137.197 50.9589 137.33 50.9936C137.528 51.052 137.727 51.0982 137.925 51.1313C138.155 51.1313 138.367 51.0945 138.563 51.0268C138.753 50.978 138.93 50.905 139.095 50.8061C139.312 50.6761 139.507 50.5243 139.68 50.351C139.767 50.2426 139.843 50.1342 139.908 50.0258C140.033 49.8523 140.131 49.6797 140.201 49.5063C140.287 49.2463 140.331 48.986 140.331 48.726C140.331 48.4661 140.287 48.2277 140.201 48.0111C140.114 47.7512 139.983 47.535 139.81 47.3617C139.734 47.2663 139.653 47.1796 139.568 47.101C139.453 46.9822 139.318 46.8513 139.161 46.7113C138.814 46.3213 138.402 45.9093 137.925 45.476C137.449 44.9994 136.95 44.5229 136.43 44.0463L135.001 42.6166C134.567 42.14 134.112 41.6415 133.635 41.1215C133.202 40.6015 132.726 40.0377 132.206 39.4311C131.686 38.7811 131.165 38.175 130.645 37.6117C130.169 37.0485 129.757 36.5499 129.411 36.1166L129.397 36.1C129.77 35.7209 130.142 35.3575 130.515 35.0111C131.122 34.4478 131.642 33.9494 132.076 33.516L133.571 32.0209C134.091 31.501 134.589 31.0245 135.066 30.5912C135.586 30.1146 136.128 29.616 136.691 29.0961C137.254 28.5763 137.644 28.2294 137.861 28.0561C138.121 27.8396 138.251 27.7309 138.251 27.7309C138.256 27.7277 138.365 27.6633 138.576 27.5365C138.718 27.4228 138.839 27.2978 138.944 27.1654C138.951 27.1587 138.959 27.1527 138.965 27.1459C139.139 26.9726 139.268 26.7776 139.355 26.5609C139.394 26.4455 139.422 26.3297 139.443 26.2143C139.495 26.0263 139.514 25.8397 139.499 25.6518C139.513 25.4854 139.499 25.3296 139.457 25.182C139.439 25.0764 139.413 24.9756 139.379 24.8783C139.331 24.6904 139.259 24.5143 139.161 24.351C139.071 24.2018 138.959 24.0753 138.829 23.9672C138.721 23.8371 138.595 23.7254 138.446 23.6361C138.229 23.5061 137.99 23.4197 137.73 23.3764C137.517 23.3053 137.304 23.2799 137.09 23.2963C136.907 23.2801 136.709 23.3054 136.496 23.3764C136.408 23.4057 136.301 23.4596 136.173 23.5336C135.978 23.6194 135.781 23.7393 135.586 23.8959C135.553 23.9284 135.522 23.9625 135.491 23.9965C135.398 24.0662 135.299 24.1402 135.196 24.2211C134.589 24.6543 134.004 25.131 133.441 25.6508C132.878 26.1706 132.336 26.6694 131.816 27.1459C131.296 27.6226 130.775 28.1211 130.255 28.641C129.779 29.1177 129.216 29.6815 128.566 30.3315C127.96 30.938 127.418 31.4578 126.941 31.891C126.535 32.2973 126.032 32.7787 125.435 33.3373C125.425 32.9332 125.408 32.5373 125.38 32.1508V30.0717C125.38 29.3352 125.359 28.6415 125.316 27.9916V26.1713L125.251 25.391C125.249 25.3864 125.227 25.2998 125.185 25.1313C125.185 24.958 125.142 24.785 125.055 24.6117C125.012 24.4385 124.925 24.2866 124.796 24.1567C124.666 23.9835 124.536 23.8315 124.406 23.7016C124.276 23.5716 124.124 23.463 123.951 23.3764C123.778 23.2897 123.582 23.2244 123.366 23.1811ZM145.009 22.726C144.836 22.726 144.641 22.7692 144.424 22.8559C144.327 22.8802 144.231 22.9195 144.133 22.9711C144.101 22.9767 144.068 22.9801 144.035 22.9867C143.861 23.0301 143.688 23.0944 143.514 23.1811C143.384 23.2677 143.232 23.3763 143.059 23.5063C142.929 23.6362 142.799 23.7881 142.67 23.9613C142.583 24.0913 142.496 24.2431 142.41 24.4164C142.366 24.5897 142.323 24.7848 142.28 25.0014V28.1215C142.323 28.9014 142.344 29.6382 142.344 30.3315C142.388 30.9814 142.41 31.6317 142.41 32.2817V38.1967C142.41 38.8466 142.431 39.5182 142.474 40.2113C142.518 40.8613 142.54 41.5548 142.54 42.2914V44.3061C142.583 44.9561 142.626 45.6063 142.67 46.2563C142.713 46.906 142.756 47.4259 142.799 47.8158C142.842 48.1954 142.864 48.3907 142.865 48.4008C142.865 48.4008 142.865 48.4056 142.867 48.4145C142.866 48.4529 142.865 48.4922 142.865 48.5317C142.908 48.7915 142.973 49.0299 143.059 49.2465C143.146 49.4631 143.277 49.6793 143.45 49.8959C143.479 49.9255 143.511 49.9535 143.542 49.9818C143.575 50.019 143.609 50.0559 143.644 50.0912C143.817 50.2211 144.013 50.351 144.229 50.4809L144.424 50.6762C144.598 50.7628 144.772 50.8493 144.945 50.9359C145.161 50.9793 145.357 51.0225 145.53 51.0658H146.634C147.198 51.0225 147.87 51.0014 148.65 51.0014C149.473 50.9581 150.21 50.9359 150.86 50.9359C151.51 50.936 152.159 50.9581 152.809 51.0014C153.459 51.0014 154.131 51.0225 154.825 51.0658H157.295C157.554 51.0658 157.793 51.0447 158.009 51.0014C158.269 50.9147 158.486 50.8062 158.66 50.6762C158.801 50.5635 158.921 50.4399 159.025 50.309C159.033 50.3013 159.042 50.2944 159.049 50.2865C159.223 50.1133 159.352 49.9181 159.439 49.7016C159.569 49.4416 159.634 49.1813 159.634 48.9213C159.67 48.7067 159.659 48.5077 159.606 48.3227C159.585 48.1909 159.552 48.0654 159.504 47.9467C159.418 47.6868 159.288 47.4696 159.115 47.2963C158.985 47.0796 158.811 46.9058 158.594 46.7758C158.378 46.6459 158.139 46.5593 157.879 46.516C157.694 46.4543 157.509 46.4268 157.324 46.4311C157.179 46.4146 157.018 46.3989 156.839 46.3861C156.233 46.3428 155.583 46.3217 154.889 46.3217H152.875C152.181 46.2784 151.488 46.2563 150.795 46.2563C150.101 46.2563 149.342 46.2784 148.519 46.3217H147.373C147.365 46.2165 147.357 46.1081 147.349 45.9965C147.317 45.5089 147.297 45.0212 147.289 44.5336L147.281 43.559C147.273 43.0714 147.252 42.5837 147.219 42.0961C147.219 41.4462 147.198 40.7959 147.155 40.1459C147.136 39.8598 147.122 39.5736 147.111 39.2875C147.669 39.2537 148.312 39.2367 149.04 39.2367C149.863 39.1934 150.621 39.1492 151.314 39.1059C152.051 39.0625 152.766 39.0414 153.46 39.0414H156.254C156.254 39.0414 156.384 39.0193 156.644 38.976C156.797 38.9504 156.942 38.9076 157.081 38.852C157.087 38.8496 157.093 38.8485 157.099 38.8461C157.103 38.8441 157.107 38.8413 157.111 38.8393C157.196 38.8032 157.28 38.764 157.36 38.7162C157.423 38.6787 157.483 38.6383 157.542 38.5971C157.616 38.5497 157.686 38.5039 157.75 38.4565C157.966 38.2832 158.139 38.088 158.269 37.8715C158.399 37.6549 158.487 37.4165 158.53 37.1567C158.559 36.9794 158.567 36.8118 158.556 36.6547C158.567 36.4868 158.559 36.3288 158.53 36.1811C158.492 35.9557 158.402 35.7489 158.267 35.5561C158.185 35.3707 158.079 35.2104 157.945 35.0766C157.92 35.0517 157.893 35.0283 157.866 35.0043C157.828 34.9621 157.789 34.9211 157.75 34.8813C157.576 34.7079 157.359 34.5783 157.099 34.4916C156.97 34.4399 156.833 34.405 156.688 34.3842C156.652 34.3763 156.616 34.3678 156.58 34.3617C156.363 34.3184 155.908 34.2963 155.214 34.2963C154.521 34.2963 153.828 34.3184 153.134 34.3617C152.484 34.3617 151.834 34.3829 151.184 34.4262C150.534 34.4695 149.797 34.5127 148.974 34.5561H147.089V32.2817C147.089 31.5884 147.068 30.8948 147.025 30.2016C147.025 29.5082 147.003 28.7927 146.96 28.0561V27.4916C147.285 27.5023 147.631 27.5171 148 27.5365C148.823 27.5799 149.582 27.601 150.275 27.601C151.055 27.6443 151.748 27.6664 152.354 27.6664C153.004 27.7097 153.676 27.753 154.37 27.7963C155.106 27.7963 155.669 27.8184 156.059 27.8617H156.644C156.644 27.8617 156.775 27.8396 157.035 27.7963C157.185 27.7713 157.327 27.7291 157.463 27.6752C157.471 27.6718 157.481 27.6699 157.49 27.6664C157.75 27.5798 157.966 27.4491 158.139 27.2758C158.356 27.1025 158.53 26.9075 158.66 26.6908C158.79 26.4744 158.876 26.2579 158.92 26.0414C158.948 25.8679 158.956 25.6944 158.946 25.5209C158.956 25.3477 158.948 25.1746 158.92 25.0014C158.876 24.7415 158.79 24.5031 158.66 24.2865C158.553 24.1081 158.414 23.9609 158.249 23.8412C158.124 23.6804 157.959 23.5455 157.75 23.4408C157.533 23.3109 157.295 23.2244 157.035 23.1811C156.818 23.1377 156.601 23.1166 156.384 23.1166H154.955C154.218 23.0733 153.459 23.0512 152.679 23.0512C151.899 23.0079 151.163 22.9867 150.469 22.9867C149.776 22.9434 149.018 22.8992 148.195 22.8559C147.415 22.8125 146.743 22.7693 146.179 22.726H145.009ZM280.82 37.6029C280.693 37.6215 281.673 38.3834 281.846 38.6625C281.859 38.6834 281.773 38.6967 281.651 38.7084C282.03 39.1343 282.579 39.7801 283.441 40.7807C283.717 41.1555 284.041 41.5624 284.39 42.0326C284.667 42.0682 284.94 42.1042 285.212 42.14C285.099 41.9708 284.986 41.8056 284.872 41.6449C283.323 40.2551 282.842 39.9355 282.557 39.6684C282.555 39.6665 282.552 39.6644 282.549 39.6625C282.329 39.4624 282.372 39.1693 282.622 38.9975C282.452 38.8334 282.3 38.6923 282.168 38.5795C281.223 37.7585 280.89 37.6117 280.82 37.6029ZM280.345 38.7553C279.81 38.4457 280.123 38.7771 280.819 39.3197C281.203 39.6434 281.636 39.935 282.305 40.4584C282.293 40.4435 282.281 40.4292 282.269 40.4145C281.137 39.2419 280.641 38.9533 280.345 38.7553ZM82.3668 29.6537C82.4151 29.8346 82.4675 30.0176 82.525 30.2016C82.7849 30.8514 83.0444 31.4798 83.3043 32.0863C83.5643 32.693 83.8467 33.3432 84.15 34.0365C84.4533 34.6864 84.7127 35.3148 84.9293 35.9213C85.1313 36.4869 85.3527 37.09 85.5924 37.7309C85.5669 37.7347 85.5405 37.7376 85.5143 37.7416C84.9511 37.7849 84.3447 37.8282 83.6949 37.8715C83.0883 37.9148 82.416 37.9792 81.6793 38.0658C80.9861 38.1092 80.2713 38.1745 79.5348 38.2611C79.3851 38.2788 79.2413 38.2932 79.1041 38.309C79.2905 37.8461 79.4783 37.3752 79.6647 36.8959C80.0113 36.116 80.2716 35.4224 80.4449 34.8158C80.6615 34.166 80.8777 33.5376 81.0943 32.9311C81.311 32.3245 81.5502 31.7183 81.8102 31.1117C82.0095 30.6135 82.193 30.1265 82.3668 29.6537ZM198.148 29.6537C198.196 29.8346 198.249 30.0176 198.306 30.2016C198.566 30.8514 198.826 31.4798 199.086 32.0863C199.346 32.693 199.628 33.3432 199.931 34.0365C200.235 34.6864 200.494 35.3148 200.711 35.9213C200.913 36.4869 201.134 37.09 201.374 37.7309C201.348 37.7347 201.322 37.7376 201.296 37.7416C200.732 37.7849 200.126 37.8282 199.476 37.8715C198.87 37.9148 198.197 37.9792 197.461 38.0658C196.767 38.1092 196.053 38.1745 195.316 38.2611C195.166 38.2788 195.023 38.2932 194.885 38.309C195.072 37.8461 195.26 37.3752 195.446 36.8959C195.793 36.116 196.053 35.4224 196.226 34.8158C196.443 34.166 196.659 33.5376 196.876 32.9311C197.092 32.3245 197.331 31.7183 197.591 31.1117C197.791 30.6135 197.974 30.1265 198.148 29.6537ZM40.1803 33.2025C39.3864 32.8298 39.1536 32.6161 39.1197 32.7514C39.0337 32.881 39.2885 33.1761 40.1715 33.5317C41.0035 33.8739 42.1808 34.1786 42.3736 34.0346C42.0177 33.9996 40.926 33.5628 40.1803 33.2025ZM39.5787 32.2875C39.1114 32.1446 39.2704 32.2757 39.3453 32.3246C39.3827 32.3782 39.7956 32.4779 40.2779 32.5795C39.9216 32.4056 39.7243 32.3408 39.5787 32.2875ZM283.228 28.1303C282.801 28.4529 282.329 28.8368 281.809 29.3031C281.751 29.3562 281.692 29.4115 281.632 29.4672C282.138 29.3764 284.668 28.3508 283.432 28.1479C283.359 28.1361 283.291 28.1317 283.228 28.1303ZM281.408 28.8315C280.183 28.9282 278.385 29.1134 280.838 29.3979C281.038 29.1919 281.227 29.0036 281.408 28.8315ZM286.913 24.3861C286.611 24.2679 285.331 24.7737 285.152 25.2201C285.376 25.1923 285.704 25.1275 286.018 25.0385C286.246 24.8782 286.445 24.7365 286.588 24.6332C286.718 24.5371 286.826 24.4546 286.913 24.3861ZM33.9674 22.8832C33.9484 22.8256 33.904 22.7702 33.3443 22.9643C33.046 23.0753 32.6091 23.2373 31.6881 23.7358C31.4187 23.9287 31.1365 24.071 30.7955 24.2563C31.1543 24.1525 31.4983 24.053 31.8297 23.9613C26.9989 26.0872 32.4058 24.8872 33.1988 24.3305C33.2925 24.2661 33.29 23.9166 33.5816 23.4838C33.7121 23.2721 33.958 23.0216 33.9674 22.8832ZM36.3443 22.5336C36.2915 22.7704 35.7185 23.2422 35.7643 23.3422C35.742 23.4623 36.4983 23.7758 37.6227 24.0346C38.7012 24.2827 39.8619 24.4215 39.5572 23.9975C39.2786 23.6831 36.6019 23.3745 36.6402 23.3227C36.5812 23.266 36.7595 23.1295 36.817 22.975C36.889 22.8245 36.7598 22.6335 36.3443 22.5336ZM287.657 23.5688C287.453 23.7116 287.336 23.8393 287.384 23.9096C287.822 23.7394 288.041 23.5861 287.657 23.5688ZM34.1324 23.7426C34.1922 23.7461 34.262 23.7284 34.2574 23.7221C34.2662 23.7125 34.2068 23.7251 34.1324 23.7426ZM37.15 21.2397C37.0464 21.0159 36.9081 20.8452 36.7731 20.9682C36.7292 21.0062 36.701 21.059 36.6861 21.1195C36.6874 21.1196 36.6888 21.1185 36.69 21.1186C36.7784 21.1231 36.9318 21.1582 37.15 21.2397ZM288.467 18.5688C288.657 17.954 284.803 17.6588 286.233 18.4359C286.574 18.6256 288.4 18.7692 288.467 18.5688ZM37.5279 18.4438C37.5042 18.4408 37.5097 18.4492 37.5387 18.4682C37.5381 18.4549 37.5352 18.4459 37.5279 18.4438ZM41.0016 16.39C41.3054 16.5637 41.6959 16.7932 42.1002 17.057C42.1382 17.0818 42.1766 17.1076 42.2154 17.1332C42.1652 16.9965 41.9371 16.7872 41.4635 16.4828C41.3397 16.4009 41.1771 16.3796 41.0016 16.39ZM39.4156 16.935C38.9323 16.732 38.809 16.7321 38.7545 16.768C38.7513 16.7741 38.7498 16.7812 38.7477 16.7875C38.9701 16.8463 39.2342 16.9147 39.5162 16.9809C39.4818 16.965 39.4477 16.9507 39.4156 16.935ZM38.3814 16.6547C38.011 16.5659 38.026 16.5837 38.2662 16.6557C38.3051 16.648 38.3487 16.6485 38.3814 16.6547ZM268.915 15.143C268.289 14.9721 267.664 15.9114 267.729 15.975C268.363 16.5545 269.502 15.65 268.915 15.143ZM39.7262 15.3197C39.651 15.3217 39.5912 15.3298 39.5455 15.3393C39.6604 15.3874 39.7851 15.4395 39.9166 15.4936C40.3253 15.6622 40.7977 15.8526 41.2516 16.0297C41.1833 15.9908 41.1202 15.9525 41.0602 15.9193C40.8733 15.8168 40.7144 15.7345 40.5777 15.6664C40.0373 15.3993 39.8144 15.3278 39.7262 15.3197ZM263.929 15.1313C263.112 15.2201 264.296 16.4999 265.491 15.7162C264.942 15.6976 264.006 15.1234 263.929 15.1313ZM263.481 15.2416C262.351 14.2256 262.21 15.626 263.112 15.8041C263.448 15.8682 263.52 15.2748 263.481 15.2416ZM289.088 15.0512C289.973 14.6005 292.264 15.3474 293.932 15.7074C293.074 16.0419 290.311 15.281 289.088 15.0512ZM279.184 12.8793C279.269 12.8694 281.111 13.2283 281.195 13.2709C282.644 14.1117 277.43 13.1034 279.184 12.8793ZM256.257 12.9858C255.597 12.8503 253.336 11.8501 252.696 12.0717C254.064 12.4436 256.3 13.8662 256.257 12.9858ZM269.686 12.4955C269.539 11.643 272.415 12.7635 273.515 12.8373C273.672 13.6869 270.693 12.5709 269.686 12.4955ZM264.629 11.3539C264.805 11.0208 266.498 11.4987 267.161 11.5238C266.665 11.9664 265.41 11.5655 264.629 11.3539ZM254.231 7.99357C254.367 7.46925 254.311 7.62815 255.249 7.91544C258.834 9.03389 259.629 9.33348 260.475 9.67814C261.226 9.99388 261.495 10.2106 261.336 10.3061C261.176 10.3986 260.604 10.3719 259.671 10.1078C258.69 9.83491 257.465 9.32227 254.231 7.99357ZM29.8619 8.74454C29.762 8.71993 26.3896 9.37314 26.0856 9.48771C24.1591 10.2082 26.2984 9.81651 28.0338 9.48282C29.7841 9.14087 31.3362 8.76499 29.8619 8.74454ZM38.5162 7.12833C37.895 7.23247 35.0371 7.42509 35.0035 7.65372C35.0076 7.99908 38.2598 7.76319 38.5162 7.12833ZM152.033 4.392C150.393 4.57271 148.77 6.91742 150.787 6.47794C151.002 6.42749 152.233 4.69891 152.033 4.392ZM175.355 6.13907C176.824 5.59609 173.408 4.95386 172.786 5.38517C172.476 5.59737 174.711 6.37546 175.355 6.13907ZM195.522 5.40958C195.344 5.35335 193.332 5.41072 193.403 5.75626C194.144 5.97489 196.649 5.79116 195.522 5.40958ZM214.483 5.64591C214.452 5.17133 212.049 5.25983 212.358 5.58048C212.462 5.68645 214.499 6.02652 214.483 5.64591ZM159.13 5.0297C157.559 5.65063 160.984 5.99539 160.65 5.26017C160.602 5.22037 159.195 5.00389 159.13 5.0297ZM166.471 4.81583C165.029 3.94899 162.628 4.10522 163.257 5.25919C165.909 5.1107 162.893 4.21055 166.471 4.81583ZM145.591 3.99845C146.538 3.13948 141.512 3.54227 141.132 4.50138C141.789 4.60636 145.461 4.09778 145.591 3.99845ZM223.444 2.68107C223.578 2.66647 225.573 3.01269 225.638 3.05997C226.907 3.98271 220.359 2.95514 223.444 2.68107ZM169.921 1.17911C170.429 1.03125 170.888 -0.577071 173.604 0.221104C173.607 0.221096 173.609 0.22111 173.612 0.221104C174.407 0.455524 173.507 0.847208 173.653 0.985753C173.71 1.0415 176.177 1.83419 174.132 1.96329C171.019 2.17159 173.827 0.774795 172.164 0.767003C171.952 0.76512 168.845 1.66617 169.032 1.85587C169.059 1.87541 169.986 1.68125 170.142 1.75821C170.732 2.04762 170.456 2.54924 170.539 2.57267C170.805 2.62163 175.762 1.75084 176.498 2.50528C176.705 2.72476 168.604 3.32367 168.299 3.22599C168.1 3.15095 168.153 1.76392 167.945 1.63126C167.824 1.56421 164.621 2.15113 164.205 2.03751C164.083 2.0038 163.989 1.9659 163.921 1.93497C164.415 2.34958 161.525 2.40017 161.599 1.91544C161.645 1.72384 163.628 1.77581 163.709 1.80802C163.74 1.82125 163.769 1.84027 163.795 1.85294C163.351 1.33122 170.176 1.21706 168.69 0.471104C170.678 0.0163199 168.43 1.61424 169.921 1.17911ZM224.75 2.04923C224.443 1.17056 229.005 1.95353 229.357 2.18985C230.717 3.0804 225.107 1.87896 224.75 2.04923ZM177.512 0.900792C177.911 0.475847 177.972 0.100372 179.444 0.322667C179.252 0.466134 179.058 0.609766 178.865 0.753331C182.133 0.427829 185.936 1.16882 189.769 1.22599C190.741 1.24168 189.627 0.336923 190.902 0.600987C191.925 0.813247 193.055 1.65615 192.497 1.82853C192.358 1.87057 190.276 1.29926 189.238 1.33829C186.174 1.45432 186.946 2.22704 186.767 2.24552C186.569 2.26415 184.649 1.70488 183.603 1.7172C181.321 1.74539 180.119 2.09414 177.512 1.76407C177.083 1.71424 176.62 1.65002 176.115 1.56778C176.91 1.39087 177.269 1.13807 177.512 0.900792Z" fill="white"/>
</svg>
