<svg xmlns="http://www.w3.org/2000/svg" width="268" height="83" fill="none" viewBox="0 0 268 83"><path fill="#fff" d="M147.78 1.64c-.159-.287 13.601-.155 14.063-.023 2.009.607-6.211.246-4.634.998.474.214 13.148-.051 19.976-.09 1.712-.009 3.036.001 3.809.048 4.418.28 6.502 2.137 6.431-.008 1.34 2.08 2.391.619 2.95.62 6.899.023 6.904.033 12.888-.355 1.325-.086 2.487.505 2.954.383.271-.073-.281-.727 1.055-.978 1.823-.348 13.328-.004 14.23.353.872.342-4.866.288-3.805.865 4.134-.058 8.133-.302 12.358-.3 1.741.005.865.434 1.621.433.344-.007 6.354-.417 6.109-.563-.637-.413-19.278.158-14.402-.662.946-.164 4.327.74 3.748-.425 12.5-.022 25.07.316 37.498.95q6.304.32 12.587.742c-4.032.138-8.274.026-12.589-.152-5.92-.246-11.951-.625-17.778-.641-1.383-.01-6.046-.143-5.457.446 7.196.135 15.807.11 23.233.527 1.425.077 2.772.17 4.074.28.263.023-.708.494.277.613 1.831.213 7.795-.325 8.798-.057.172.056-3.242.554-2.214 1.026 2.637 1.206 3.34-1.15 5.62-.992 1.77.105 13.505 2.01 16.437 1.544 3.142-.525-8.628-1.083-7.747-1.632 8.012-.075 16.017 1.28 23.418 1.882.129.01-.974-.567.68-.48 2.877.155 3.589.891 4.974 1.128 1.495.254 6.78.663 7.466.968.087.04-1.014.589-1.177.593-2.312.054-3.082-.87-3.291-.902-.786-.106-1.58.146-2.298.06-1.183-.143-1.819-.507-3.387-.68-1.082-.12-.069.561-1.112.439-.383-.047-4.455-1.768-4.921-.428-.005.407 33.411 4.07 36.623 3.943q-3.839-.53-7.689-1.09c5.588.747 11.902.396 12.326 1.869q6.805.572 13.604 1.051c16.763 1.17 33.843 1.968 50.962 2.807 3.884.28 1.755 1.007 8.156 1.041a1227 1227 0 0 1-4.963-.993c3.273.328 17.838 1.322 20.203 1.283.307-.006.734-.685 4.382-.553 3.24.12 3.761.66 5.495.848 1.444.157 3.097.116 3.527.168.331.04.462.353 1.256.45 2.516.304.487-.66 2.983.457l-1.835.01c3.049.31 7.21.983 2.713.95-.766-.004-.105-.259-.678-.29-22.496-1.073-4.552.36 3.356.355 2.016.52 13.415.994 13.816 1.127.526.152-1.439.337 1.116.797.515.033 15.949 1.198 10.35 1.205-1.137-.018-8.506-.725-10.271-.82 3.264.888 10.03.818 13.361.924.944.026 1.567.049 1.8.081 2.346.34-.297.227-1.822.265-.736.023-1.077.085-.015.258.646.1 1.635.229 3.263.428 7.94 1.055.52-.414 3.605-.238.953.093 3.318.426 6.85 1.345.419.117 1.101.315 1.7.542.921.428 1.465.299 3.908 2.318.603.402 2.374 2.58 2.98 5.302 1.894.239 4.721.913 3.131.846 1.405.097.484-.204 1.286-.22.215-.004 2.184.419 2.595.433.047-.007-1.975-.631-1.549-.632.727-.036 6.915 1.48 7.634 1.788 1.513.532-3.974-.802-4.335-.65-.101-.012 4.265 1.464 4.423 1.578.088.339-4.783-1.141-4.258-.673 1.172.342 2.352.696 3.629 1.118-3.74-.788-9.064-1.895-12.375-2.422q.007.08.01.16c5.501 1.053 10.78 2.344 10.684 3.08-.098.313-3.021-.147-2.922-.027.336.372 4.472 1.008 4.694 1.125.126.054.18.089.176.106-.146.077-5.914-1.115-6.167-1.048-.5.05 1.896 1.177 1.862 1.312-.111-.01-4.085-.651-2.79-.15 1.086.406 3.69 1 4.614 1.232.759.031 1.523.076 2.269.14.872.075 2.669.738 1.126.94-2.672.36-7.887-.182-7.799.241.12.464 7.04.12 8.893.122 6.243.008 5.266.326 4.411.553.248.04.428.07.487.083 1.018.246.246.181-.871.023-.118.036-.185.064-.15.084.232.125 1.03.163 1.936.161-1.006-.346.204-.3 2.162-.054.644-.027 1.115-.053 1.163-.054.257.024.096.09-.236.178 2.827.398 6.566 1.1 7.876 1.681.364.142-.082-.124-.395-.305-.35-.198-.688-.371-.509-.325.072.02.365.109.799.272.261.101.53.205.956.417.473.308.92.258 2.292 1.847.376.516.759 1.068 1.026 2.218.283 1.1.007 2.69-.388 3.437a5.8 5.8 0 0 1-1.312 1.795 6.4 6.4 0 0 1-.885.68c-.975.6-1.487.736-1.958.908-.962.315-1.638.463-2.407.628-2.374.492-4.482.787-4.907.959-.837.355 3.243-.488 3.607-.345.108.244-10.449 1.923-4.707 1.278 1.634-.194 3.857-.594 6.144-1.143.942-.234 1.684-.395 3.043-.918.41-.17.762-.314 1.388-.689a7 7 0 0 0 1.166-.882 6.34 6.34 0 0 0 1.734-2.747c.571-1.559.111-3.759-.365-4.553a6.5 6.5 0 0 0-1.406-1.871 7 7 0 0 0-.926-.722 9 9 0 0 0-.584-.352c-1.319-.686-1.89-.818-2.395-1.033-.523-.202-.823-.343-1.018-.49.632.154 1.244.305 2.086.599a12 12 0 0 1 1.072.436q.243.114.509.26a7.376 7.376 0 0 1 1.461 1.04c.496.566 2.182 1.707 2.171 5.222-.3 3.303-2.174 4.473-2.588 4.874a8 8 0 0 1-.935.627c-.226.13-.403.219-.588.308-.801.371-1.139.473-1.644.637a26.72 26.72 0 0 1-2.125.557c-3.965.848-7.51 1.285-11.111 1.746 3.18-.098 6.307-.217 9.752-.59-6.872 1.295-12.274 1.468-18.346 2.485 14.693-.647-4.723 1.224-4.889 1.305-.073.083 5.693.246 6.648.263-5.103.86-20.474 2.436-11.423 2.52-1.659-.048-5.571.856-5.527.894.511.384 9.152-.762 7.762-.25-1.629.604-3.929.252-6.447.544-12.862 1.477-9.246 3.454-22.13 4.325l.776.182q-7.878.675-15.734 1.301c-8.721.697-17.477 1.35-26.231 1.942-5.461 1.276-20.079 2.94-27.282 3.316-1.454.085-8.575.06-9.113.003-.997-.102 4.474-.5 1.997-.652-.523-.018-12.582.457-11.716.932 1.35-.012 5.58-.516 6.274-.434 4.257.548-23.639 1.654-31.99 2.02-1.22.064-2.02.123-2.255.18q1.119.205 2.25.405l.256.046h-3.705a784 784 0 0 1-3.434-.015q1.44-.286 2.889-.575c-2.732-.01-6.409.213-8.937.12-.412-.017.667-.512-.309-.51-.981 0-.807.64-2.233.742-1.603.118-8.901-.213-11.419-.182-9.441.148-18.907.543-28.19.257 9.63-.505-.042-1.028-2.728-.814-.59.052-.572 1.335-10.111 1.023-6.047-.192-.406-2.098-10.513-1.118 7.7 1.292.084 1.22-5.961 1.329-1.041.014-9.436-.08-13.122.062-.765.029-1.78.319-2.84.557-.68.153-1.377.284-2.033.308-1.151.042-2.022-.327-3.736-.26-7.99.313-15.89.64-23.986.837 4.706-2.092-3.72-.663-4.111-.735-1.938-.442 6.798-.94 3.338-1.125-4.827.25-9.672.512-14.536.776 3.997.067-5.258 1.855-6.991 1.294.819 1.707-22.4-.601-26 .038-.745.14 4.142.886-7.167.79-1.227-.014-.766-.558-1.409-.493-.384.037-2.717 1.787-5.214.895-.916-.338 4.936-1.51-7.9-.907 3.922 1.293-8.668 1.287-16.75.798-2.473-.14-4.457-.304-5.454-.43.83.255 1.711.51 2.532.76-4.197-.716-4.983-.148-5.929-.203-3.837-.23-9.104-1.034-12.77-1.174-4.283-.172-4.361.94-9.413.14 1.178.335 2.398.668 3.548.988a316 316 0 0 1-10.609-1.05c8.449-.68-1.754-.22-2.46-.297-1.083-.067.532-.49-1.272-.62-.185-.011.014.594-2.773.312-5.842-.638-4.808-1.252-7.215-1.607-.208-.032.416.604-3.64.049-11.973-1.684-.066-.4.63-.364.716-.004-3.53-2.764 7.554-.324-3.772-.782-3.948-1.794-4.375-1.88-.421-.071-6.635-1.002-6.87-1.017-2.844-.17-.517.896-1.08.916-.166.005-1.151-.26-2.336-.495-.99-.19-2.062-.391-3.543-.72-1.505-.375-3.186-.617-7.011-2.194a21 21 0 0 0-.952-.453c-.839.022-1.158-.106-2.033-.831-3.352 2.658-2.471-1.477-3.84-1.592-3.59-.294-2.53 1.715-2.71 1.82-1.267.663-11.419.26-13.97.626.97-1.494 8.086-.25 9.642-.578 5.204-1.094-7.415-.523-3.654-2.473-1.593.552-3.182 1.105-4.787 1.657-2.996-1.101 1.215-1.733-6.794-1.082-1.287 1.06 5.667-.315 4.286.529-.81.496-5.451.724-5.555.974-.06.303 4.12-.165 3.477.314-1.36 1.05-17.035.45-5.15-.361-2.879.084-4.56-1.378-6.883-1.322-.348.008-.708.05-1.081.136-.69.16.334.622 1.101 1.121.657.427 1.1.883.02 1.208-1.048.302-3.261.532-8.75.343-.222-.913 6.857-.286 7-.374.25-.108-1.034-2.2-1.243-2.305-.206-.096-1.679-.053-3.887.001-1.107.025-2.396.057-4.015.049a56.765 56.765 0 0 1-2.929-.083 39 39 0 0 1-2.576-.226c-.411-.051-1.556-.19-3.085-.533a29 29 0 0 1-3.353-.97c-1.54-.582-3.566-1.29-6.815-3.55-2.995-2.205-8.672-6.812-10.954-16.575C.057 35.918 6.586 26.831 9.516 23.81c.415-.446.813-.845 1.191-1.206l.195-.183.144-.136a30 30 0 0 1 1.35-1.168 28 28 0 0 1 1.818-1.36c2.14-1.458 3.634-2.124 4.201-2.402 1.474-.693 2.62-1.104 3.192-1.31 1.429-.5 2.25-.731 3.084-.966a53 53 0 0 1 3.715-.886c2.003-.397 3.468-.562 4.347-.505-1.552-1.003 12.614-2.556 13.927-3.08.376-.165-1.215-.663-.809-.81 2.573-.903 9.844-.657 13.128-1.071 3.676-.471 3.126-1.037 3.33-1.066 1.627-.181.393.423 1.382.29C65.19 7.728 75.558 6.57 76.11 6.445c.152-.044-1.66-.584.63-.971.42-.057.153.788 7.126-.224 8.582-1.16-6.038-.556-2.56-1.758 5.574.789 5.326-.435 6.933-.454.159 0 .62.066 1.289.158 1.613.229 4.465.623 7.325.476-2.362.226-4.74.472-7.24.765q-.857.101-1.737.211c.52-.005 1.114-.024 1.747-.05 3.178-.134 7.333-.419 9.283-.297 1.119.071.244.982 2.671.893.492-.018 2.534-2.252-3.877-1.09-.544-.755 2.55-.35 3.937-.6.198-.039 1.035-1.35 2.817-.586.412.2-4.02 3.998 7.749 1.113.376-.092-.95-.545-.583-.646.248-.07 3.275.088 3.598.02.337-.074-1.12-.572-.721-.677 2.062-.535 4.831 1.47.547 1.35 1.44.238 2.86.478 4.296.719-1.554-1.516 2.227-.442 4.183-.495 12.537-.325 4.125-1.294 6.271-1.809 3.454-.816.847 1.774 5.961 1.001.468-.07-5.718-1.186 6.352-.534q-2.666.055-5.339.113c1.049 1.462 6.419-.082 6.838-.101 4.716-.183 1.544.328 8.52-.393.625-.064 1.989.298 3.314.124 5.508-.713-7.286-.472-7.659-1.062m101.712 78.597c.076-.352-4.748-.408-5.229.213.958-.064 5.175.005 5.229-.213m11.317-.507c3.943-.582-7.929-.407-4.299.066.185.021 4.106-.039 4.299-.066m88.734-.6c.279-.047 7.636-.088 7.074.223-1.537.596-8.283.034-7.074-.222m-38.95-.688c-.007-.162-3.314-.171-3.463-.147-1.153.182 3.451.654 3.463.147m35.557.146c1.19-.624-7.58-.706-5.285-.206.508.112 4.18.216 5.285.206M84.586 72.484a37 37 0 0 0-2.062.05l.478.216c5.989 2.328 7.556 2.2 9.887 2.647l.889.108c.268-.075-.151-.268-.823-.488-1.325-.358-3.097-.726-6.14-1.72-.686-.238-1.404-.485-2.229-.813M35.766 9.388c1.451-.029-.076.652.205.74.131.032 4.542.038 1.005.81-5.471 1.229-.706-1.084-3.715-.522-.263.025-6.155 2.171-5.916 2.343.024.005.546-.16 1.077-.315.496-.146 1.038-.291 1.203-.287 1.254.033.76.65.934.638.681-.127 9.269-2.607 10.6-2.055.497.1-13.563 3.295-15.239 3.769-.507.05-.653-1.343-1.209-1.336-.051-.003-.782.208-1.923.598-.689.237-1.45.49-2.89 1.07-.894.371-1.698.689-3.445 1.601-1.17.632-2.62 1.42-4.784 3.113-.542.43-1.13.925-1.771 1.52-.753.687-2.482 2.398-3.966 4.492-3 3.934-7.141 13.148-4.81 23.31 2.774 11.477 9.475 16.069 12.634 18.26 3.432 2.194 5.796 2.913 6.904 3.3 1.461.472 2.473.7 3.311.874.833.17 1.48.27 2.042.35.469.063.713.087 1.025.12 1.157.117 2.046.159 2.51.177 1.085.043 1.786.059 1.991.098.288.047.507.094.667.132-.584-.233.934-.283 2.214-.256 1.362.03 2.63.156 2.572.398-.055.095-1.042.117-2.028.1-1.097-.016-2.113-.076-2.262-.097-.075-.016-.14-.037-.2-.052.21.118-.378.195-1.417.229a33.6 33.6 0 0 1-5.075-.287 31.3 31.3 0 0 1-5.743-1.33 30 30 0 0 1-2.25-.859c-1.737-.774-4.036-1.79-7.339-4.474C7.548 62.95 2.566 57.82.581 48.996c-3.538-20.508 10.233-29 10.125-29.365 2.144-1.77 3.64-2.637 4.846-3.321 1.37-.749 1.663-.869 2.283-1.165a38 38 0 0 1 1.466-.643c.958-.392 1.357-.537 1.876-.73.487-.179.94-.337 1.337-.472 1.33-.46 2.32-.77 2.979-1.003 1.413-.483 1.777-.721.84-.724 4.229-1.426-.253 1.215 2.74.11 1.004-.357 1.691-2.175 6.68-2.291q.006-.002.013-.003m53.727 62.556c-.053-.012-.099-.006-.097.055.202.005.091-.07.097-.055M73.45 69.723c-1.16-.105-7.7.428-7.927.529-1.719.866 7.213.43 7.927-.53m-19.279.18c2.892-.19 5.87-2.548 2.29-2.095-.375.049-2.629 1.788-2.29 2.094M17.81 19.112c-1.04.52-2.33 1.173-4.282 2.642-.49.373-1.022.806-1.606 1.329a26.405 26.405 0 0 0-3.512 3.875c-2.717 3.46-6.728 11.803-4.583 21.327 2.038 8.91 7.217 13.457 10.101 15.65 3.1 2.256 5.095 3.006 6.608 3.61a28 28 0 0 0 .796.289l.114.04a29 29 0 0 0 1.212.395c.488.148.916.265 1.303.364 1.482.381 2.676.565 3.068.647 1.068.2 2.099.321 2.578.386.585.072 1.159.12 1.634.144.417.023.81.028 1.168.016 1.438-.05 2.053-.36 1.532-.907-2.72-.013-2.819.201-2.868.373-.038.081-.11.143-.733.118-.157-.007-.35-.018-.593-.039-.266-.023-.451-.045-1.002-.105a40 40 0 0 1-2.004-.28c-.493-.082-1.47-.23-2.837-.566a30 30 0 0 1-2.355-.686l-.108-.036c-.032-.01-.08-.028-.172-.06a27 27 0 0 1-.515-.183c-1.438-.56-3.33-1.237-6.382-3.371-2.804-2.096-8.206-6.393-10.425-15.825-3.2-18.71 9.872-26.238 9.304-26.202 2.007-1.586 3.413-2.345 4.559-2.945m23.873 50.148c2.813-.605-3.256-.987-2.746-.251.138.042 2.6.278 2.746.25m483.45-2.502c-2.259.01 5.29-.98 2.713-.359-.133.03-2.628.36-2.713.359M43.845 62.833c-.222.038-.439.07-.648.105-1.05.691-1.8 1.065-2.264 1.304-1.015.506-1.584.718-1.858.831-.503.202-.493.213-.42.224.197 0 .664-.055.858-.08-.033.135-.481.384-.682.548-.078.072-.134.147.362.007.18-.05.777-.238 1.815-.724.357-.173 1.708-.793 3.493-2.067q.227-.163.471-.346-.575.102-1.127.198m468.272 2.84c-.262-.004 3.5-1.13 4.577-.73.839.306-3.882.732-4.577.73m8.821-2.43c3.306-.627 13.869-.471 2.641.694l-.872.07c-1.601.097-.261-.257-.377-.25-6.207.332-4.505.709-5.479.89-2.039.372-1.754-.376-5.207.279 5.701-1.032.512-.308.322-.551-.68-.976 7.656-.288 10.536-.864.401-.074-2.583-.06-1.564-.268M43.055 61.36c-2.19.412-4.612 1.056-4.77 1.295-.07.06.158.892.198 1.23.078-.037.183-.086.324-.148.194-.086.427-.186.787-.357a.4.4 0 0 1-.13-.031c-.172-.106.229-.421 2.167-1.053.4-.239.866-.538 1.424-.936m96.293-17.132q-.529.024-.759.184-.229.184-.413.644a1.2 1.2 0 0 0 0 .919q.184.46.965 1.379 1.217 1.539 1.011 6.225-.115 1.86-.552 3.193-.414 1.334-1.378 2.757-.965 1.425-1.08 2.022t.345 1.033q.459.414 1.056.253t1.172-.965q.598-.804 1.402-2.366t1.126-2.642q.528-1.746.413-5.238t-.758-4.733q-.368-.711-1.31-1.7-.941-.987-1.24-.965M45.808 61c-.515.434-.839.613-1.315 1.03a28 28 0 0 1-.75.538c.613-.1 1.221-.216 1.76-.344q.27-.214.558-.458.36-.306.75-.666a6 6 0 0 0-.553-.087 3 3 0 0 0-.45-.013m483.02-.006c2.348-.107-3.028.639-4.583.713-.109-.134 4.403-.698 4.583-.713m-424.789-16.72a1.12 1.12 0 0 0-.988 0q-.666.299-1.768 3.79-1.104 3.492-1.38 5.767-.275 2.274-.137 3.262.138.987.689 2.159 1.425 2.871 2.849 1.838.367-.275.391-.896.023-.62-.322-1.01-1.217-1.402-1.08-4.067.138-2.664 1.7-7.19.827-2.388.69-2.895a1.1 1.1 0 0 0-.644-.759m-20.118-.047q-2.573-.045-3.813.138-1.24.184-1.838.781-.597.598-.781 2.045-.093.597-.024.896.07.276.437.643.413.368.873.368.459 0 .873-.505.413-.506.413-1.011.023-.528.184-.62.161-.115.735-.115.597 0 1.425-.046.825-.046 1.24-.046.414-.023.988.07.023.252-.62 1.722-.644 1.47-.69 1.7t-.32.345q-.276.091-1.38.252-1.102.16-1.654.482-.55.3-.55.943 0 .642.32.919.323.274 1.08.367l.988.115-.942 2.573q-.757 1.998-.757 2.688 0 .689.642 1.01.666.368 1.149-.046.482-.413.988-1.722l.85-2.252q.78-2.09 1.011-2.458.253-.368.643-.413.046-.023.322-.07.276-.046 1.608-.16t1.677-.253q.368-.138.597-.436.345-.506.115-1.057t-.643-.69q-.414-.16-1.655-.16h-1.31l.576-1.264q.873-1.929 1.01-2.526.139-.599-.16-1.196-.3-.596-.666-.78-.368-.207-2.94-.23m74.835.644q-.551 0-2.619 1.838-1.838 1.563-2.274 2.183t-.023 1.263.919.643q.506 0 1.424-.689.918-.688 1.011-.69.092 0-.023.483t-.115 5.606l-1.953.207q-1.31.137-1.677.275t-.597.505q-.23.414-.23.598t.299.597l.414.62q.436-.023 1.723-.069 1.285-.045 2.113-.092.827-.045 1.815-.022a9.5 9.5 0 0 1 1.746.183q.758.162 1.079.138.322-.023.621-.299.758-.689.298-1.378-.459-.689-1.792-.988-1.332-.298-1.355-.321-.091-.07.161-4.434.23-4.365.367-4.779.138-.414-.321-.896t-1.011-.482m72.622 0q-.551 0-2.619 1.838-1.838 1.562-2.274 2.183t-.024 1.263q.414.643.919.643t1.425-.689q.919-.69 1.011-.69.091.002-.024.483-.114.483-.114 5.606l-1.953.207q-1.31.137-1.677.275-.368.138-.597.505-.23.414-.23.598t.299.597l.413.62q.437-.023 1.724-.069 1.286-.045 2.113-.092.827-.045 1.814-.022a9.5 9.5 0 0 1 1.746.183q.759.162 1.08.138.323-.023.621-.299.757-.688.298-1.378-.459-.689-1.792-.988-1.329-.297-1.355-.321-.091-.069.161-4.434.23-4.365.367-4.779.138-.414-.321-.896t-1.011-.482m11.644 0q-.552 0-2.619 1.838-1.839 1.562-2.275 2.183-.437.62-.023 1.263.413.643.919.643.505 0 1.425-.689.918-.69 1.01-.69t-.023.483q-.115.484-.114 5.606l-1.954.207q-1.308.137-1.676.275a1.2 1.2 0 0 0-.598.505q-.23.414-.229.598 0 .184.298.597l.413.62q.437-.023 1.724-.069 1.287-.045 2.113-.092a23 23 0 0 1 1.815-.022 9.6 9.6 0 0 1 1.746.183q.758.162 1.08.138.321-.023.62-.299.758-.688.299-1.378-.46-.689-1.792-.988-1.33-.298-1.355-.321-.093-.069.161-4.434.23-4.365.367-4.779.138-.414-.321-.896-.46-.482-1.011-.482m-130.567.345q-1.263-.759-2.504-.529-1.24.23-2.136.896a5.1 5.1 0 0 0-1.402 1.539q-.321.597-.321 1.724 0 1.125.321 1.906.323.78 1.08 1.47.759.69 1.47.804.345.115 1.402-.068 1.056-.184 1.241-.161.091.094-.185 1.93-.321 1.838-.092 2.573.231.735 1.218.735.574.023.85-.436.276-.46.46-1.7.138-1.242.689-3.86.552-2.619.505-3.492t-.689-1.103q-.483-.138-.483-.666t-.252-.804-1.172-.758m10.343 0q-1.264-.759-2.505-.529t-2.135.896a5.1 5.1 0 0 0-1.402 1.539q-.322.597-.322 1.724 0 1.125.322 1.906t1.079 1.47q.759.69 1.471.804.345.115 1.401-.068t1.241-.161q.092.091-.184 1.93-.321 1.838-.092 2.573.23.735 1.218.735.574.023.85-.436.275-.46.46-1.7.136-1.242.688-3.86.552-2.619.506-3.492t-.69-1.103q-.482-.138-.482-.666t-.253-.804-1.171-.758m10.342 0q-1.263-.759-2.504-.529-1.24.23-2.137.896a5.1 5.1 0 0 0-1.401 1.539q-.321.597-.321 1.724 0 1.125.321 1.906.322.78 1.08 1.47t1.471.804q.345.115 1.401-.068t1.24-.161q.092.092-.183 1.93-.322 1.838-.092 2.573t1.217.735q.575.023.85-.436.276-.46.459-1.7.138-1.242.69-3.86.55-2.619.506-3.492-.047-.873-.69-1.103-.482-.138-.482-.666t-.253-.804q-.254-.276-1.172-.758m68.911-.758q-1.056-.46-2.94.022-1.884.529-3.033 1.815-1.148 1.287-.918 2.55.023.276.183.575.322.62 1.631 1.838l-.459.62q-.528.666-.506 2.137.023 1.47.574 2.25 1.149 1.655 2.781 1.7 1.63.047 3.514-1.447 1.884-1.54 1.976-2.963.092-1.425-1.609-2.665l-.826-.597.643-.62q.643-.62.781-1.31t-.229-1.838q-.506-1.607-1.563-2.067m11.128 0q-1.057-.46-2.94.022-1.884.53-3.033 1.815-1.148 1.287-.919 2.55.024.276.184.575.322.62 1.631 1.838l-.459.62q-.528.666-.506 2.137.023 1.47.574 2.25 1.149 1.655 2.781 1.7 1.63.047 3.514-1.447 1.884-1.54 1.976-2.963.092-1.425-1.609-2.665l-.827-.597.644-.62q.643-.62.781-1.31t-.229-1.838q-.506-1.607-1.563-2.067m-40.068 0q-.483-.483-4.434.092-1.103.183-1.678.275a5 5 0 0 0-1.125.321q-.551.231-.781.414-.23.184-.414.689a4 4 0 0 0-.229.988q-.046.483-.138 1.723t-.046 1.586q.046.345.367.666.322.32.781.367.46.046 2.022.023 1.562-.045 2.435.23.897.276 1.218.965.184.344.069.574-.139.23-.873.873-.735.644-1.309.781-.575.184-1.654-.045-1.08-.231-1.585 0-.506.23-.576.873-.091.642.299 1.056.391.414 1.792.69 1.401.274 2.321 0 .941-.3 2.458-1.517 1.515-1.218 1.7-1.999.344-1.356-.391-2.596t-2.366-1.975q-.873-.459-1.378-.552-.506-.092-1.355-.023l-1.333.069q0-1.4.184-1.54.255-.09 2.779-.436 2.525-.344 2.78-.505.437-.183.575-.368.138-.183.138-.803 0-.644-.253-.896m3.413-.437q-.276 0-.805.344l-.528.345.184 5.675.184 2.25q.046.322.184.736.137.414.229.574.092.161.322.345t.459.23q.207.045.598.091.39.046.712.046l2.986-.23v1.242q.023.987.299 1.447.276.483.919.483t.965-.414q.32-.414.367-.988l.093-1.7q.045-.252.666-.253 1.148-.046 1.469-1.056.162-.483-.367-1.057-.528-.574-1.126-.574-.275 0-.413-.185-.138-.162-.253-2.642t-.39-3.17q-.276-.689-.965-.689t-.942.275q-.23.276-.298.989-.069.713-.024 3.101.07 2.389-.253 2.573-.322.183-2.803.207l-.114-3.653q-.115-2.458-.207-3.079-.092-.62-.482-.941-.39-.322-.666-.322M70.228 46.203a3 3 0 0 0-.414.07.55.55 0 0 0-.276.206 1.5 1.5 0 0 1-.183.23q-.045.091-.092.345-.046.252-.046.39a2.3 2.3 0 0 0-.07.505v2.045h-1.125q-1.332-.023-1.838.712-.505.735.299 1.517.459.459 1.632.459h1.216l.092 1.47q.092 1.47.506 1.769.78.575 1.585 0a.87.87 0 0 0 .345-.529q.07-.321.023-1.194l-.046-1.401 1.677.046q1.355.068 1.952-.207t.598-1.011-.505-1.01q-.505-.277-1.977-.391l-1.86-.115-.115-1.746q-.091-1.425-.322-1.792-.23-.368-1.056-.368m129.939 6.066q.415.023 1.126.459.712.459.85.643t-.092.46-1.079.895q-1.586 1.127-2.252.092a1.34 1.34 0 0 1-.207-1.102q.138-.597.689-1.034.552-.437.965-.413m11.128 0q.414.023 1.126.459.712.459.85.643t-.092.46-1.08.895q-1.585 1.126-2.251.092a1.34 1.34 0 0 1-.207-1.102q.138-.597.689-1.034.552-.437.965-.413m327.592-6.824q-.25.05-.635.1c-.885.113-1.984.165-2.156.205-.812.184 1.523.15 1.429.293 0 .036-.365.145-.704.26l.995.24a27.73 27.73 0 0 0 1.316-.288c.258-.061.502-.128.607-.155.033 0 .072-.041-.239.157-.105.088-.218.136-.408.318a21 21 0 0 1-.573.15q.174.044.349.093a7 7 0 0 0-.24.314q.132-.01.254-.023.106-.13.201-.23.276.079.556.167a1 1 0 0 1 .25-.008q.037.017-.041.074c.507.163 1.023.348 1.544.568.214.096.426.199.656.343.215.164.524.266.793.897.148.354.014.88-.15 1.079-.19.261-.318.337-.457.435-.15.097-.264.15-.371.2-.109.05-.234.1-.345.14-.853.289-1.5.392-2.205.526l-.536.094-.019-.024q.276-.046.549-.098c.326-.062.618-.126.894-.194.34-.084.569-.148.907-.26.161-.054.287-.101.447-.169.178-.076.31-.14.484-.246.195-.133.362-.21.581-.578.087-.149.162-.449.107-.69a1.1 1.1 0 0 0-.247-.505c-.368-.4-.659-.488-.944-.621a8 8 0 0 0-.805-.28q-.33-.096-.644-.173l-.046.038c-.058.061-.171.163-.293.323l.098.03q-.05.015-.103.032l-.049.016-.051.077q.247.073.473.146.055-.084.111-.152.233.076.466.16c.385.147.818.313 1.175.591.145.1.414.432.244.715a.8.8 0 0 1-.246.266 2 2 0 0 1-.273.16c-.707.329-1.413.465-1.861.592-.182.047.665.371-.454.557a6 6 0 0 1-.658.055 3 3 0 0 1-.186-.358c.217-.06.471-.126.752-.197.706-.188 1.528-.361 2.353-.77.186-.105.437-.246.471-.484.009-.128-.053-.22-.144-.315l-.03-.024c.523.5-.153.984-2.677 1.449q-.384.069-.808.137.04.108.083.204-.086.022-.165.044a3 3 0 0 1-.09-.22q-1.105.176-2.464.343c-.722.207-1.234.46-1.574.844a33 33 0 0 0 4.445-.415l.019.025c-.387.067-.744.129-1.039.185.373-.007.762-.022 1.143-.04q.117.154.212.252c-.818.15-1.67.28-2.465.392 1.242-.119 2.082-.224 2.576-.284q.073.065.131.108c-.988.27-3.266.745-4.122 1.246-.365.226 4.255-.68-1.011.486 3.635-.36 2.882-.103 5.6-.743q.367-.09.766-.204c-.008.056-.253.17-.743.322-2.111.723-7.972 1.67-10.553 2.046 9.153-.706 6.459-1.133 10.603-1.765.528-.1 1.087-.198 1.867-.402.464-.141.851-.196 1.729-.688.129-.078.265-.168.407-.278.149-.119.269-.207.518-.482.22-.249.451-.579.625-1.008.185-.429.305-1.142.212-1.725-.198-1.198-.743-1.718-1.041-2.041a5 5 0 0 0-.779-.622c-.43-.205-.645-.246-.712-.243-.077.001-.046.044.062.12.131.09.352.214.671.442.201.145.425.315.705.62.332.408.884.978.868 2.354-.113 1.36-.782 1.934-1.123 2.26a4.3 4.3 0 0 1-.84.564c-.39.2-.74.321-.95.391-.493.16-.717.205-.619.163.153-.072.466-.184.738-.3.123-.052.339-.14.542-.24q.155-.077.324-.173c.144-.083.317-.19.494-.325.221-.225 1.162-.725 1.283-2.432-.075-1.745-.955-2.216-1.217-2.49-.75-.566-1.13-.666-1.612-.859a14.6 14.6 0 0 0-2.704-.648q-.11.03-.264.061m-5.382-2.699c-.339.085-.59.163-.599.218-.013.288 4.27.401 3.326.563-.401.086-1.068.127-1.805.149q.688.128 1.503.284.222-.03.53-.049c1.903-.165.69.199-.094.412l.397.072c.391-.034.85-.077 1.256-.12.691-.072 1.029-.111 1.051-.051.006.01.011.031-.116.093-.136.065-.41.166-.874.291l-.063.018c.392.073.766.142 1.108.208 1.14.258 1.323.012 3.284.674a5.967 5.967 0 0 1 .98.472c.173.102.489.312.775.582.263.256.851.812 1.128 1.905a3.71 3.71 0 0 1-.702 3.164 4 4 0 0 1-.611.627 5 5 0 0 1-.459.336c-.328.205-.46.264-.66.36a8 8 0 0 1-.517.217c-1.179.421-1.86.523-2.562.672-.292.058-.557.11-.772.157-.466.1.339.043.807.034.408-.018.645-.002.031.166-.549.152-1.953.447-4.704.77 1.318-.041 2.938-.211 4.743-.557q.48-.093.921-.197c.326-.077.677-.169 1.02-.275.431-.136.758-.234 1.386-.535.243-.122.706-.354 1.212-.795.473-.397 1.882-1.847 1.442-4.134-.468-1.837-1.319-2.289-1.657-2.614-.469-.358-.687-.46-.972-.612a9.5 9.5 0 0 0-1.238-.513 22 22 0 0 0-1.902-.54c-2.31-.55-4.294-.891-5.846-1.276a65 65 0 0 1-.747-.176m-342.108 8.466q-1.425-.092-2.436.046-1.01.183-1.355.459t-.345.919.69.896q.735.253 2.573.253 1.837 0 2.526-.253.69-.252.69-.965 0-.712-.459-.988-.46-.276-1.884-.367m30.107 0q-1.424-.092-2.435.046-1.011.183-1.356.459-.343.276-.345.919 0 .643.69.896.735.253 2.573.253 1.837 0 2.527-.253.689-.252.689-.965 0-.712-.459-.988t-1.884-.367m318.588-6.531c-.995-.319-.401-.255.714.016.594.157 1.232.318 2.131.74.517.331.98.25 2.115 1.826a3.981 3.981 0 0 1 .571 1.82c.06.775-.194 1.585-.409 1.988a4 4 0 0 1-.736 1.027c-.233.233-.339.31-.485.422-.059.018.058-.072.341-.36.201-.21.481-.508.761-1.045.254-.44.593-1.58.343-2.58-.228-.972-.658-1.5-1.035-1.9a4.7 4.7 0 0 0-.841-.673 7 7 0 0 0-1.113-.552c-1.257-.479-2.164-.659-2.357-.73m-.762 7.308c.202.16.239.17.261.188.024.015-.123-.049-.288-.104.143.085.269.172.248.19-.018.002-.05.005-.21-.096-.049-.041-.107-.077-.178-.129zm.09-.104c.334-.038.292-.007.015.075q-.047.013-.105.03-.004-.004-.009-.007-.045-.039-.087-.077.111-.014.186-.021m-.186.021q-.09.01-.202.024a2 2 0 0 1-.111-.108l.186-.035c.049.05.089.087.127.12m1.747-.543c-.526.152-1.032.263-1.588.371q-.143.027-.286.053a4 4 0 0 1-.204-.224l-.001-.003.455-.022a19 19 0 0 0 1.624-.175m-2.079.197-.193.01-.104-.145.172-.031q.064.09.125.166m-.144-.19-.172.03a8 8 0 0 1-.149-.233l.183-.005q.07.114.138.208m-.364-.268.043.065q-.27.007-.588-.003c-.485-.017-.246-.13.42-.316q.064.144.125.254M110.456 47.26q.276 0 .713.183.436.184.85.367.413.184.459.276.045.092 0 .23a5 5 0 0 1-.276.367q-.183.23-.574.62-1.078 1.08-1.86 1.127-.781.046-1.08-.965-.207-.643.068-1.195.276-.551.851-.78.574-.23.849-.23m10.343 0q.276 0 .712.183.437.184.851.367.413.184.459.276.045.092 0 .23a6 6 0 0 1-.276.367q-.183.23-.574.62-1.08 1.08-1.861 1.127-.781.045-1.079-.965-.208-.643.068-1.195.276-.551.851-.78.573-.23.849-.23m10.343 0q.276 0 .712.183.437.184.849.367.414.184.46.276t0 .23a6 6 0 0 1-.275.367q-.185.23-.575.62-1.08 1.08-1.861 1.127t-1.08-.965q-.206-.643.07-1.195.275-.551.849-.78.575-.23.851-.23m67.67.068q1.585-.804 2.206-.184.344.345.206.666t-.827.828q-.69.504-.919.551-.23.045-.919-.252-.688-.3-.826-.415-.139-.114.206-.505.321-.39.873-.689m11.128 0q1.584-.804 2.205-.184.345.345.207.666t-.827.828q-.69.504-.919.551-.23.046-.919-.252-.69-.3-.827-.415-.138-.114.207-.505.321-.39.873-.689m330.536.432c.044-.005.051-.001-.022.064a3 3 0 0 0-.136.136q-.042.045-.091.105a19 19 0 0 0-.381-.12c.307-.1.539-.167.63-.185m-1.814-.145.295.076a8 8 0 0 0 .949-.18 27 27 0 0 0-.619-.138c-.227.089-.456.175-.625.242m-.15-.325a4 4 0 0 0-.144.252l.192.048q.098-.178.201-.32l-.206-.04zm-1.103-.258c-.303.134.135.149.736.125l-.203-.036q-.277-.047-.533-.089m2.33-.659c-.109.064-.277.13-.653.502l-.003.003-.215-.06q.128-.151.224-.244.024-.005.049-.012a7 7 0 0 0 .598-.189m.055-.02q-.027.01-.055.02l.003-.002c.16-.078.113-.041.052-.017m-7.179-.49c-.546.14-.862.248-.766.314q.773-.076 1.548-.16c-.325-.062-.615-.12-.782-.154m3.846-.678c-.614 0 1.71.812-1.606.17-.48.103-.944.205-1.359.298.356.05.781.12 1.258.211a60 60 0 0 0 3.467-.493q.17-.031.335-.065c-.67-.074-1.363-.11-2.095-.122m-3.496-.348c-.324.087-.773.178-.579.18.439.003.806-.005 1.114-.017zm-2.406-1.162c-2.683.337-.258.658 1.5.87a2 2 0 0 1-.281-.1c.363-.184 2.742.338 2.865.259.107-.082-2.568-.506-2.581-.533-.027-.316 2.254.283 1.937.13-.193-.097-1.087-.353-1.991-.614-.768-.01-1.35-.02-1.449-.012m2.343.02c.662.122 1.494.273 2.372.43.112-.06.291-.113.579-.154-.789-.112-1.456-.205-2.014-.282-.313.005-.63.007-.937.006m-8.903-4.457c-.198-.073.447-.587 2.077-.212 5.342 1.203.975.773 13.196 2.243-5.302-.524-.375.25-1.429.243-.853-.02-3.753-.62-2.103-.055-2.26-.7-11.58-2.038-11.75-2.22zm6.443.378c.206-.178 8.257 1.146 10.085 1.638-1.213-.168-10.39-1.447-10.085-1.638m-14.171-.377c-.063.014 1.193.378 2.145.667.756 0 1.566.006 2.394.03-1.642-.26-4.42-.753-4.539-.697M173.019 23.133a1.38 1.38 0 0 0-1.332.093q-.367.23-.391 1.102-.046.873.276 2.963.321 2.09.436 4.802.115 2.71.253 3.514.138.828.391 1.126.252.322.849.322.599 0 .897-.437.321-.436.299-1.401l-.046-1.195 1.561-.068q1.011-.023 1.7-.161t1.264-.483q.575-.367.988-.873.413-.505.735-1.263.55-1.24.552-2.78 0-1.54-.598-2.642-1.126-2.205-3.584-2.48-.827-.093-1.24 0-.414.09-1.218.55-.803.46-.942.46-.137 0-.137-.276-.001-.598-.713-.873M511.484 35.12q.51.12 1.167.28l.008.001c-.38-.14-.773-.272-1.171-.394zm-7.676-.118.156.03-.064-.159-.156-.04q.032.082.064.169m5.094-.661q.02.3.013.596l.189.037q.003-.14.002-.28-.003-.007.001-.012 0-.15-.007-.3zm1.521.539.264.056.002-.16-.268-.07q.002.087.002.174m-7.311-.014.191.037q-.046-.103-.095-.203l-.196-.05q.05.107.1.216m-.641-.127.33.068c-.039-.081-.074-.163-.114-.24l-.356-.092q.072.129.14.264m-1.093-.521c.406.148.644.298.746.45l.048.01a8 8 0 0 0-.159-.286q-.319-.087-.635-.174m2.278.402.15.033q-.052-.115-.102-.218-.07-.013-.139-.025zm-.743-.167.2.045-.096-.185-.192-.032q.045.084.088.172m-.683-.155.353.08q-.038-.073-.078-.144a10 10 0 0 0-.334-.039zM166.424 23.087q-.965-.091-2.068.322t-2.113 1.286-1.563 1.93a7.2 7.2 0 0 0-.734 2.252 4.4 4.4 0 0 0 .275 2.343q.46 1.148 1.906 2.159 1.425.987 2.781.988.688-.022 1.768-.436t1.31-.782.137-.827a1.26 1.26 0 0 0-.413-.734q-.368-.277-.597-.322-.23-.046-1.057.183-.827.23-1.355.207-.53-.022-1.057-.367a3.4 3.4 0 0 1-.896-.85q-.368-.506-.39-.874.002-.228 2.986-.16 1.585.115 2.482.023.894-.093 1.216-.322.323-.23.621-1.034.298-.78.252-1.677a3 3 0 0 0-.55-1.608 4 4 0 0 0-1.242-1.148q-.735-.459-1.699-.552m335.49 11.138-.033-.053a3 3 0 0 0-.226-.005q.126.029.259.058m8.47-.093.29.055q-.004-.068-.01-.133-.15-.022-.293-.04zM127.835 19.067q-2.938-.046-3.193.069-.413.137-.644.827-.23.69-.137 1.447.091.758-.299 3.975-.414 3.216-.253 5.145.161 1.93.988 2.942.575.689 1.493.666.92-.024 3.63-.897t4.089-1.884q1.379-1.01 1.356-2.32.022-.758-.621-1.7-.642-.942-1.355-1.309-.712-.368-.712-.551t.873-.666q1.562-.874 1.952-2.091.391-1.218-.596-2.045-1.792-1.516-6.571-1.608m372.24 14.798.166.035-.183-.053zm8.988.027-.002-.011-.099-.006zm2.317-.394c1.146.167 2.157.295 2.846.354-.333-.023-1.698-.288-2.878-.53zm-13.22-.283c.144.083.313.19.507.334l.105.082q.56.087 1.017.177l-.054-.06a25 25 0 0 1-1.575-.533m4.979.237c-.245-.354-.245-.322-.024.069q.056.109.138.26l.109.024c-.09-.147-.167-.26-.223-.353m-348.624-9.514q-1.77-.046-2.505 0-.735.022-1.057.068t-.596.23q-.276.184-.368.413-.093.207-.092.644 0 .414.115 2.113t-.115 2.528q-.23.825-1.011 1.079-.552.207-.827.62-.276.414-.207.827.069.414.46.713.39.299.965.299t1.08-.253.965-.712q.458-.46.78-1.104.276-.643.414-1.24t.161-1.723v-1.883h3.239v1.746q0 1.723-.253 3.032-.436 2.366 1.103 2.366.575 0 .873-.275.299-.276.437-.989.136-.711.321-2.733.184-2.022.046-3.332-.115-1.332-.689-1.86a1.65 1.65 0 0 0-.919-.46q-.551-.092-2.32-.114m347.904 9.66q.106.025.212.048a10 10 0 0 0-.19-.29l-.204-.024q.091.128.182.266m6.376-.065q.128.024.224.04l-.012-.07-.229-.057zm-7.147-.112.398.092a10 10 0 0 0-.162-.225 3 3 0 0 1-.352-.06l-.045-.016q.08.1.161.209m8.627-.091.315.05q-.018-.113-.04-.225-.173-.037-.325-.071.027.122.05.246m-11.959-1.379c.185.098.501.236.965.58.409.116.739.206.762.217.641.246.246.211-.404.068q.091.076.188.161c.458.118.949.238 1.457.358a9 9 0 0 0-.578-.647l-.102-.1c-.754-.19-1.696-.437-2.32-.65zm-314.339-8.956q-.276 0-.598.23t-.368.368a6 6 0 0 0-.138.62q-.091.482-.046 1.31.024.826.046 3.721.047 2.895.323 3.263.276.321 1.125.275.85-.046 1.355-.414.505-.367 1.287-1.332t.965-1.194q.207-.23.367-.414l.506-.505q.07-.069.092-.046.138.093.229 1.7.093 1.607.391 2.136.299.528.988.528t.988-.413q.367-.414.298-1.24l-.321-4.136q-.046-1.194-.23-1.792a1.5 1.5 0 0 0-.712-.895q-1.08-.552-3.355 2.021l-1.424 1.631-.298-2.32q-.184-1.424-.322-1.953a1.65 1.65 0 0 0-.506-.827q-.366-.322-.642-.322m318.336 4.35a15.752 15.752 0 0 1 1.325.46c.403.157.819.34 1.279.591.52.302 1.365.736 2.379 1.94a7.2 7.2 0 0 1 1.395 2.733l.235.04a5 5 0 0 0-.188-.589 7.4 7.4 0 0 0-1.335-2.353 7.3 7.3 0 0 0-1.002-.986c-1.318-1.01-1.762-1.083-2.324-1.334q-.2-.079-.39-.144c-.121-.042-.192-.064-.285-.094a14 14 0 0 0-1.042-.286 19 19 0 0 0-.401-.089zm-.94 5.726c.055-.038.165-.071.263-.1l-.13-.155c-.125-.03-.282-.072-.462-.116a8 8 0 0 1 .329.371m-2.433-8.02c.673.201 1.607.404 2.707.67q.448.107.89.225c.302.081.748.206 1.135.335.333.11.983.335 1.646.661a10.5 10.5 0 0 1 1.433.854 9 9 0 0 1 1.579 1.44c.27.311.542.671.799 1.084.465.69.84 1.61 1.065 2.607a5 5 0 0 1 .316.008 6 6 0 0 0-.222-.782c-.64-2.071-2.037-3.484-2.509-3.905a9.7 9.7 0 0 0-1.759-1.281 11.6 11.6 0 0 0-1.825-.847 15 15 0 0 0-1.102-.361c-2.517-.685-3.814-.765-4.153-.708m-.517 7.48q.096.052.203.117.24.07.503.143a5 5 0 0 0-.213-.153 13 13 0 0 1-.675-.2c.05.026.111.053.182.092m1.004-1.764c.407.231.951.573 1.613 1.189q.238.225.505.518l.275.063a8.598 8.598 0 0 0-1.933-1.693 21 21 0 0 1-.737-.223q.127.063.277.146m-.406.36c.332.18.78.444 1.356.93q.09.072.221.192l.5.121a7.7 7.7 0 0 0-1.222-1.023 49 49 0 0 1-1.171-.375q.134.062.316.156m-298.545-8.96q-1.378-.343-2.917-.067a6.6 6.6 0 0 0-1.401.39 6.2 6.2 0 0 0-1.288.597q-.597.368-.873.667-.275.299-.39.482-.115.184-.206.413a2.6 2.6 0 0 0-.138.46 8 8 0 0 0-.092.689q-.046.435-.023.781.045.345.161.552.138.183.367.459.23.276.414.46t.367.321q.184.137.368.23.16.091.436.23.276.137.368.23.069.114-.115.367-.185.253-.689.253-.505.022-.988.436-.482.414-.482.781t.459.828.712.55q.253.093 1.08-.068.827-.138 1.722-.942l2.827-2.297.069 1.17q.069 1.333.688 1.816.644.483 1.471-.138l.161-.16q.069-.07.138-.276.068-.207.092-.437l.068-.735a8 8 0 0 0 .024-1.057q0-.551.022-2.343.023-1.792-.022-2.48-.046-.69-.322-1.035-.689-.78-2.068-1.126m297.616 8.84c.116.076.455.213.668.312.14.067-.402.256-.263.333.011.058.703.25 1.585.471-.289-.237-.514-.382-.738-.527a6 6 0 0 0-.725-.394 3 3 0 0 0-.527-.195m-356.998-8.012q-1.24-.045-2.021.368a10 10 0 0 0-1.241.758q-.436.345-.712.781-.252.437-.46 1.218a4.9 4.9 0 0 0-.137 1.653 3.94 3.94 0 0 0 .482 1.655q.414.736 1.034 1.287t1.402.758a3 3 0 0 0 1.607-.024q.828-.23 1.654-.895l.782-.69.229.644q.391 1.033.965 1.286.552.276 1.24-.276l.53-.413-.506-2.459q-.437-2.48-.299-2.94t-.505-1.057q-.597-.597-1.7-1.102a6.1 6.1 0 0 0-2.344-.552m35.808 2.918q.735-.068 1.332.574.597.645.551 2.183-.046 1.54-.781 2.228-.459.39-1.884.505l-1.423.116-.299-2.987q-.024-.482.068-.896.092-.413.277-.597.183-.184.803-.644a2.36 2.36 0 0 1 1.356-.482m-49.182 1.355q1.792-.046 2.527.276t1.332.781q.598.46.598.736 0 .184-1.287.78a27 27 0 0 1-2.803 1.103q-1.515.505-1.998.529-.16-.024-.253-1.08a11 11 0 0 1-.023-1.884l.138-1.172zm370.533 3.271c.107.076.467.208.844.342a6 6 0 0 0-.345-.164 3.5 3.5 0 0 0-.499-.178m.148-.425c.08.043.238.1.45.17l-.104-.044a4 4 0 0 0-.346-.126m-1.818-2.22c-2.682-.15 3.791.785 6.231 1.28-2.198-.726-5.449-1.21-6.231-1.28m-355.718-2.417q.321-.047 1.01.207.689.252.712.367 0 .115-.666 1.333-.78 1.331-1.424 1.561-.666.23-1.126-.666-.804-1.447.506-2.32.666-.436.988-.482m356.125 1.226c.076-.086.085-.206-.583.118-.278.18-.608.28-1.267.881q.713-.313 1.218-.583c.303-.163.543-.315.632-.416m-392.053-1.25a18.6 18.6 0 0 1 2.518 1.839l.691.178c-1.454-1.096-2.466-1.657-3.209-2.018m93.449-.85q1.011-.114 1.746.092.367.162.344.736a.75.75 0 0 1-.068.413.85.85 0 0 1-.299.322q-.208.138-.919.505-.712.368-1.195.368-.482 0-1.447-.46-.965-.436-.965-.643.001-.39.896-.804a6.2 6.2 0 0 1 1.907-.529m-32.651 1.127q.918-.162 1.24.16.275.321.275.643t-.252.414q-.252.046-1.034.046-.78 0-1.194-.046-1.102-.138-.528-.597.573-.46 1.493-.62m332.239.377c-.334-.122-7.103-.788-6.672-.54.438.1 3.059.363 5.078.587 2.041.223 3.727.425 1.594-.047m-17.392-.131c-1.414-.152-5.573-.53-6.28-.312 1.528.032 5.652.52 6.28.311m-3.155-.94c-2.202-.475-2.745.488-.204.34.099-.005.283-.316.204-.34m-1.524-2.15c-3.762 1.144 10.266.723 11.928 2.085-10.304-.943-2.124.256 1.019.388 1.267.055 1.742-.063.036-.573a30 30 0 0 0-1.591-.44c.609.1 1.14.184 1.603.259 6.396 1.04 1.384-.192 2.664-.26 1.511-.09 6.648.845 6.432.437h-.008c-3.126-.455-6.048-.744-9.036-1.016l-.342-.03q.194.078.335.146c.673.302.539.425-.027.424-1.145-.001-4.279-.559-5.652-1.159-.876.114-1.725.233-2.605.356-1.408-1.259-1.984.533-4.756-.616m-347.724-1.223q1.516-.023 2.665.23 1.149.275 1.126.46-.025.183-2.274 1.262-2.252 1.08-2.803 1.218t-.644.092q-.092-.046 0-.322.093-.275.253-1.676l.138-1.264zm336.93 2.357c-1.422-.478-3.085.46-.754.585.688.034.904-.53.754-.585m-16.139-.638c-4.22-.633-1.543.525.826.409.101-.011-.721-.393-.826-.41m24.856-.166c-3.026-.546-1.65.692.639.527.132-.01-.496-.5-.639-.527m1.425-2.432c.782-.135 8.002.436 13.814 1.12 3.293.376 6.24.796 7.225.944-2.459.133-4.232-.39-7.238-.733a34 34 0 0 0-.604-.063c-.878-.084-.659.16-.753.15-1.539-.143-.371-.282-1.328-.38-.592-.11-12.925-.77-11.116-1.038m-69.19.456c-2.953.286 6.138.639 3.51.139-.13-.024-3.36-.151-3.51-.139m39.62-.16c-1.37-.013-5.136-.402-5.354-.124 1.368.008 5.141.395 5.354.123m7.877-1.225c2.267.286 18.759 1.231 19.529 1.232.219-.013.386-.309.28-.328-.837-.18-17.494-.957-19.809-.904m-412.018.54a21 21 0 0 0-1.157.28q.292.14.611.305c.431-.07.876-.122 1.325-.159a24 24 0 0 0-.779-.426m432.182-.216c1.822-.527 10.148.607 4.439.447-.557-.016-2.838-.474-4.439-.447m-440.618-.14c-.352-.008-.225.036-.07.066.337.062.998.115 1.615.138l-.157-.03c-1.073-.186-1.169-.158-1.388-.174m411.406-.879c-5.637-.09 5.172.813 3.764.325-.097-.03-3.18-.316-3.764-.325M33.245 17.834c-.27.022-.196.108-.217.217.008.18-.087.29.053.377.086.045.241.082.715.166.37.065.912.143 2.018.417a24 24 0 0 1 1.321.375 69 69 0 0 0 2.09-.06c-1.969-.818-2.038-.701-2.667-.914l-.184-.047c-1.817-.213-3.242-.428-3.08-.509a.1.1 0 0 1-.037-.022zm411.868.67c-.288-.035-6.135-.447-6.249-.218.859.124 9.394.595 6.249.219m-2.592-.826c-.697.003-1.781.284-1.706.31 3.595.928 14.446.009 7.344-.102-.14 0 1.234.5-1.525.31-.23-.017-.646-.533-4.113-.518m16.744.029c-.242-.465 6.451.197 8.219.249-1.539.224-5.766-.16-8.219-.249m-40.528-.916c.346.269 7.464.722 7.804.698 3.395-.254-7.259-.78-7.804-.698m-3.713-1.816c-1.823-.367 3.743-.376 5.395.025.8.5-5.166.018-5.395-.025m-375.211-.306c2.426-.985-3.557-.57-4.624.081-.513.31 3.553.345 4.624-.081m287.704-6.096c-.711-.142-.246-1.975 2.659-.971.382.13-1.455.448-1.145.591.188.085 6.559.944 6.86.926.319-.02-.023-.645.302-.682.369-.038 4.251.84 6.307 1.026 3.85.35 4.29-.099 4.604-.072.923.076 2.448.548 4.317.7 3.979.326 8.85.63 13.71.957 6.587.446 13.244.944 17.577 1.723-6.004-.668-11.737-.72-17.594-.954q-1.032-.04-2.058-.09c1.958-.83-9.706.05-2.885-.58-3.113.099-30.262-2.077-32.646-2.573zM66.724 4.863c1.869-.041 3.998.531 3.028.832-.233.072-4.046.005-5.9.307-5.47.892-3.971 1.47-4.29 1.531-.35.069-3.88.025-5.751.328-4.74.774-6.794 1.548-13.476 2.073 3.708-1.145 1.456-1.877 5.718-2.244-.32.2-.663.402-.992.603 5.932-1.327 12.864-1.639 19.725-2.533 1.745-.225-.38-.847 1.938-.898m8.935 3.692c-.31-.022-3.927.492-3.745.82 1.339.043 5.836-.691 3.745-.82m242.202.07c-1.487-.266-7.904-.798-5.428-.202.386.09 5.297.539 5.428.203m-19.108-3.053c-4.261.347 13.497 2.301 8.867 1.06-.331-.097-8.478-1.095-8.867-1.06m-8.594.573c-2.031.262 4.351 1.23 2.615.414-.1-.037-2.497-.428-2.615-.414m-98.486-.175c-2.954-.678-2.709.718-.573.642.759-.027.666-.621.573-.642m-18.889.19c-1.512.109-5.461-.062-6.162.349 1.883-.088 6.668.462 6.162-.349m-62.905.031c-.077-.471-4.177-.187-3.615.108.175.097 3.693.27 3.615-.108m82.71-.446c-1.715.3 1.313 1.229 3.385.175-1.072.115-3.215-.204-3.385-.175m9.744-1.196c-1.228-.022-2.113 1.042-1.972 1.088 1.36.418 3.213-.728 1.972-1.088m35.09-.613c.166-.64-6.247-.226-3.699.278.64.123 3.636-.068 3.699-.278m-113.072-1.43c.228-.025 3.434.141 3.539.18 2.139.81-8.442.362-3.539-.18m140.28-.083c.623-.286 4.097.17 5.438.173-.231.393-3.947-.105-5.438-.11h-.079a.17.17 0 0 1 .079-.063m-87.474-.858c9.185-.096 8.057.57.021.724-2.67.044-6.141.017-10.285-.138-.041-.54-.086-.368 1.39-.41 3.66-.104 6.605-.159 8.874-.176m20.732-.136c-.819.55-3.47.469-5.255.47.302-.375 3.97-.338 5.255-.47m-71.53.333c-.569-.843 6.653-.493 7.203-.304 2.231.751-6.605.114-7.203.304m83.774-.504c.512.796-5.198.363-7.126.525-.512-.801 5.142-.36 7.126-.525M220.269.103c.146-.029 3.459-.044 3.618-.017 2.747.537-6.638.588-3.618.017m17.288.26c1.301-.605 5.035-.28 7.442-.243-1.079.495-5.409.249-7.442.242"/></svg>