<svg width="261" height="91" viewBox="0 0 261 91" fill="none" xmlns="http://www.w3.org/2000/svg">
<path d="M42.3808 1.10135C47.6089 2.48555 47.4544 1.21032 48.8769 1.33963C49.3681 1.38731 53.0268 2.54745 57.0214 2.58377C54.1527 2.68417 51.283 2.79427 48.4257 2.9119C51.231 3.15692 56.7007 3.05314 59.0234 3.33377C60.1519 3.46968 59.2082 4.33005 61.6699 4.37674C62.1913 4.38308 64.3081 2.27561 57.8359 3.0662C57.3349 2.28029 60.395 2.86576 61.8251 2.6912C62.0395 2.66357 62.9192 1.40114 64.7275 2.26053C65.1671 2.48139 60.2943 6.04371 72.6845 3.77811C73.0859 3.70641 71.7119 3.18239 72.1044 3.10037C72.3791 3.04411 75.5176 3.36198 75.8769 3.31229C76.2359 3.25587 74.722 2.67991 75.1513 2.59745C77.3577 2.1736 80.1385 4.32572 75.6581 3.97537C77.1519 4.28951 78.6495 4.60666 80.1425 4.92752C78.5864 3.32716 82.5232 4.60918 84.6171 4.67557C98.0744 5.15057 89.1233 3.64814 91.4589 3.27225C95.2514 2.70283 92.2354 5.08799 97.8593 4.7117C98.3189 4.68518 93.2966 3.45484 100.689 4.21756C101.857 4.33965 103.22 4.50583 105.016 4.75272C103.545 4.64667 102.146 4.5555 100.673 4.46854C100.12 4.43616 99.5639 4.40457 99.0058 4.37381C99.2756 4.77531 99.881 4.99908 100.632 5.11112C102.875 5.43111 106.329 4.89733 106.728 4.92459C112.216 5.31306 108.387 5.34655 116.756 5.68436C117.491 5.71951 119.08 6.3084 120.727 6.39237C127.511 6.72174 111.993 4.6047 111.72 4.10819C111.451 3.63973 128.186 6.28668 128.704 6.71561C131.024 7.7617 121.094 5.54539 122.886 6.65604C123.164 6.82617 129.591 7.88969 135.532 9.241C141.463 10.585 146.194 11.5635 147.946 12.0213C151.105 12.9007 152.772 14.4871 153.447 13.8709C153.569 13.7316 153.652 13.4866 153.704 13.1043C154.417 15.3472 155.634 14.0562 156.119 14.1336C162.525 15.0944 162.718 15.0879 168.701 15.4256C170.038 15.4972 171.155 16.2191 171.63 16.1512C171.911 16.1093 171.426 15.3949 172.804 15.2986C174.679 15.1804 186.22 16.7305 187.095 17.1531C187.938 17.5817 182.173 16.9568 183.179 17.6355C187.35 17.998 191.393 18.133 195.652 18.5008C197.421 18.6553 196.494 19.0062 197.257 19.0691C197.582 19.095 203.742 19.1774 203.497 19.0086C202.85 18.5917 184.018 17.4887 189.009 17.1072C189.965 17.0343 193.298 18.2422 192.814 17.0301C200.242 17.6874 207.744 18.3431 215.43 19.1238C219.283 19.5185 223.166 19.9383 227.322 20.4803C229.332 20.748 231.586 21.0571 234.003 21.4773C235.312 21.705 236.646 21.951 238.373 22.3523C239.297 22.5704 240.363 22.8284 241.832 23.2957C242.714 23.5781 243.703 23.9216 244.938 24.4597C246.219 25.0605 248.824 26.0921 252.275 29.1795C255.396 31.8461 261.007 39.2203 260.282 48.9998C259.547 58.2734 254.62 63.424 251.999 65.783C248.484 68.7902 246.232 69.599 245.022 70.1687C243.886 70.6516 242.974 70.9623 242.152 71.2205C241.392 71.4555 240.919 71.5798 240.358 71.7234C238.2 72.2588 236.855 72.4635 235.555 72.6687C236.808 72.3741 238.128 72.0894 240.228 71.5017C240.772 71.3464 241.267 71.1994 241.97 70.9685C242.777 70.7012 243.671 70.3833 244.787 69.8992C245.857 69.3936 248.21 68.4947 251.507 65.7078C253.964 63.5285 258.93 58.6485 259.849 49.4422C260.785 39.7223 255.126 32.1178 251.995 29.4871C248.334 26.2281 245.498 25.2206 244.443 24.7361C243.172 24.2101 242.106 23.8678 241.265 23.6189C239.923 23.2209 238.584 22.9233 237.8 22.7576C235.916 22.3666 234.554 22.147 233.192 21.9295C230.467 21.5053 228.245 21.203 225.886 20.8992C221.337 20.3148 216.995 19.8275 212.811 19.5115C211.346 19.3977 206.598 18.9137 207.149 19.5437C216.311 20.5113 225.493 20.489 238.259 23.3357C238.748 23.4602 236.822 23.5412 238.716 24.0594C239.336 24.2326 240.053 24.405 241.323 24.7849C242.081 25.0164 242.966 25.3015 244.13 25.7791C245.144 26.2483 247.724 27.1297 251.283 30.2693C253.243 32.0746 255.913 34.9754 257.643 39.906C259.459 44.7895 259.147 51.3722 257.356 55.6678C255.61 60.1178 253.221 62.7122 251.426 64.4041C251.311 64.5103 251.198 64.6139 251.086 64.7137C250.971 64.8164 250.866 64.9065 250.811 64.9539C250.679 65.0683 250.549 65.1787 250.421 65.2849C250.165 65.4975 249.916 65.6947 249.676 65.8787C249.195 66.2464 248.746 66.563 248.325 66.8426C244.765 69.0749 243.808 69.2073 242.573 69.7312C241.307 70.1946 240.742 70.3656 240.018 70.5867C239.676 70.6897 239.347 70.7835 239.031 70.8709C238.73 70.9544 238.511 71.0154 238.263 71.0808C236.236 71.6055 235.131 71.8087 234.585 71.825C234.464 71.819 235.53 71.4741 236.425 71.0828C237.447 70.6679 238.351 70.1913 237.479 70.159C233.377 69.8419 233.171 72.2194 230.495 72.5349C228.234 72.8515 215.708 72.7892 212.792 73.6902C209.62 74.6921 221.889 73.4344 221.074 74.1072C212.7 75.4345 204.38 75.2817 196.804 75.8787C196.671 75.8896 197.881 76.282 196.192 76.4617C193.287 76.7709 192.439 76.1638 191.018 76.159C189.473 76.1508 184.167 76.6579 183.501 76.4812C183.424 76.4547 184.361 75.7245 184.526 75.6922C186.817 75.2306 187.695 76.0199 187.922 76.0125C188.739 75.9818 189.457 75.6035 190.194 75.5681C191.416 75.5103 192.092 75.7659 193.705 75.6795C194.82 75.6209 193.693 75.114 194.754 75.0662C195.136 75.0482 199.53 76.097 199.794 74.7019C199.822 74.5467 195.328 74.6722 189.543 74.9676C186.655 75.1171 183.448 75.3108 180.442 75.5564C178.971 75.6753 177.52 75.8114 176.299 75.951C175.732 76.0125 175.154 76.0893 174.808 76.1316C174.465 76.1652 174.212 76.2356 174.91 75.9734C171.249 77.066 167.411 78.4075 166.425 78.7986C169.645 77.9384 172.608 77.084 175.057 76.5213C170.157 77.6622 161.904 81.4054 160.936 80.031C147.317 83.8456 133.889 85.2312 121.076 85.8592C110.018 86.4287 98.0798 86.2754 87.1552 85.2918C83.0288 84.8504 85.2702 84.2123 78.6308 83.8972C80.3127 84.296 82.0381 84.7027 83.7568 85.1092C80.2211 84.6048 65.5416 83.0675 63.121 83.1248C62.8275 83.1283 62.36 83.7895 58.6962 83.6248C55.4311 83.4841 54.8601 82.9507 53.1415 82.7664C51.6527 82.6143 50.0092 82.6726 49.5703 82.6258C49.2327 82.5888 49.1003 82.2773 48.2753 82.1912C45.7183 81.9267 47.8145 82.8561 45.2529 81.7849C45.8789 81.77 46.4965 81.7558 47.1054 81.742C46.1532 81.6607 45.0648 81.5484 44.1513 81.4324C42.2207 81.1824 41.1961 80.9077 44.1445 80.8474C44.2017 80.8463 44.2612 80.8455 44.3212 80.8445C45.1219 80.8319 44.4391 81.1012 45.0341 81.1199C65.6744 81.9092 52.7877 80.8459 44.1445 80.8211C43.2223 80.8185 42.3525 80.8257 41.58 80.8455C39.5009 80.3478 27.8272 80.3309 27.4374 80.2478C26.8954 80.1224 28.8885 79.8357 26.2587 79.5096C25.708 79.4319 10.0616 79.4248 15.6835 78.991C16.8476 78.8968 24.3527 79.1121 26.1581 79.1297C21.8911 78.2168 11.9317 79.297 10.8066 79.241C6.27005 79.0677 19.4951 78.634 9.27924 78.4402C1.4176 78.3008 8.81235 78.8928 5.79584 79.0867C4.10123 79.1864 -4.8212 78.5366 -4.55963 79.2527C-7.6163 79.2888 -5.84021 78.9372 -6.21686 78.9051C-6.58627 78.8794 -12.6024 79.0123 -14.5635 78.8396C-14.8004 78.8186 -14.0654 78.4755 -14.3106 78.4431C-14.7891 78.3898 -20.5993 78.3864 -20.834 78.4099C-20.9821 78.4277 -19.5872 78.7487 -20.1553 78.8133C-20.8151 78.8884 -26.4206 78.7221 -26.7247 78.7976C-27.1574 78.9172 -20.2463 78.9583 -21.3887 79.2713C-24.5771 79.1307 -29.7656 79.2389 -31.8672 79.4344C-31.354 79.376 -28.2615 79.4415 -27.1856 79.492C-27.6833 79.96 -34.3201 79.7649 -32.0596 79.4627C-33.4977 79.6199 -32.5109 79.7501 -33.3194 79.9109C-33.5341 79.9516 -35.5803 79.8977 -35.9776 79.9627C-36.0278 79.9764 -33.909 80.2174 -34.3301 80.2967C-35.0943 80.4426 -41.3195 80.1765 -41.8321 80.1121C-43.2672 79.9401 -38.1962 79.9835 -37.7745 79.8045C-37.7156 79.7767 -42.0196 79.2692 -42.1046 79.2342C-42.3597 78.886 -37.5605 79.2816 -38.1104 78.95C-39.3013 78.8498 -40.4874 78.7496 -41.6778 78.6492C-37.1031 78.4748 -28.6348 78.8237 -26.4639 78.4724C-33.2392 78.4739 -40.3415 78.2651 -40.3438 77.4646C-40.3478 77.1277 -37.4307 76.9777 -37.5401 76.8865C-37.9769 76.5681 -42.0224 76.8362 -42.1817 76.8142C-42.3051 76.7934 -42.3625 76.7752 -42.3633 76.7576C-42.3615 76.5833 -36.581 76.541 -36.293 76.4558C-35.813 76.3093 -38.3943 75.6663 -38.3946 75.533C-38.2951 75.5088 -34.1944 75.3888 -35.587 75.1404C-37.001 74.8931 -40.5994 74.871 -40.7256 74.8445C-41.4172 74.7042 -35.1232 74.5951 -34.9337 74.5047C-34.8349 74.4607 -38.2242 74.1946 -38.3233 74.1199C-38.3988 74.0449 -35.8407 73.8775 -34.836 73.6287C-34.0862 73.4437 -36.2827 73.3181 -35.8995 73.2879C-35.6184 73.27 -29.6805 73.2253 -29.3868 73.1873C-28.954 73.1341 -30.3496 72.9263 -30.1485 72.8689C-29.8609 72.7863 -27.9469 72.8441 -28.1944 72.7644C-28.383 72.7007 -35.8351 72.0413 -35.7969 71.8474C-35.7163 71.5133 -27.8303 72.1528 -35.1837 70.9422C-35.2352 70.935 -37.0122 71.0636 -37.0674 71.0564C-37.7297 70.9251 -35.9478 70.6931 -35.9151 70.575C-38.0849 70.622 -40.2693 70.6678 -42.4708 70.7068C-47.7965 70.8013 -53.136 70.919 -58.4835 71.0437C-57.807 71.0503 -57.268 71.0725 -56.9503 71.118C-59.2101 71.3287 -64.1773 71.2705 -66.2325 71.4236C-66.4708 71.4425 -65.147 72.2044 -68.2462 71.7547C-69.4173 71.5773 -66.3923 71.3074 -63.1368 71.1551C-65.5757 71.2139 -68.0161 71.2699 -70.4571 71.3299C-71.2113 71.4697 -71.7537 71.6862 -72.1378 72.0301C-65.6361 72.3797 -57.7948 71.3767 -55.8223 71.3289C-52.8045 71.2368 -55.9258 71.5478 -55.5528 71.6053C-55.4202 71.6228 -52.8264 71.5369 -52.7872 71.5545C-50.9137 72.3685 -64.3664 71.8889 -68.5938 72.1619C-67.4563 72.27 -66.3178 72.3757 -65.1807 72.4793C-66.7183 72.5323 -68.2573 72.5858 -69.795 72.6394C-62.4618 72.6935 -69.5329 72.7314 -71.3419 73.5701C-71.7477 73.7593 -66.9424 73.285 -72.4219 73.9685C-68.369 73.9297 -69.6565 74.131 -65.9952 73.7801C-66.089 74.0803 -74.3256 74.7561 -77.5762 75.0564C-66.0695 74.9276 -72.6512 74.0726 -62.7012 74.2615C-60.8715 73.823 -65.6015 74.0786 -65.2247 74.0027C-63.8419 73.7329 -60.5816 73.9401 -56.6749 73.0603C-56.0387 72.9189 -58.7504 72.6296 -54.7491 72.5222C-54.3086 72.5122 -51.7951 72.7402 -51.7852 72.7664C-52.1182 73.0202 -54.6396 73.0152 -54.7442 73.1219C-54.8346 73.2223 -52.0272 73.0677 -52.0167 73.0945C-51.9279 73.3955 -54.3586 73.2933 -54.0069 73.3767C-53.2388 73.5688 -43.1066 73.8209 -56.3155 74.1502C-45.355 73.3757 -54.9179 73.7474 -59.1876 74.0525C-60.2759 74.1302 -60.5477 74.3324 -62.0987 74.4637C-64.0931 74.6336 -66.434 74.6374 -67.4669 74.7166C-68.5764 74.8061 -62.2497 74.9966 -71.3887 75.2576C-66.7263 75.5199 -58.5294 74.6623 -53.959 74.7781C-44.7413 74.9727 -60.3587 75.8221 -61.9874 75.9783C-62.4196 76.0171 -60.9603 76.204 -61.2491 76.2342C-61.7243 76.2836 -70.5964 76.6109 -71.4669 76.8816C-72.3325 77.1522 -68.2194 76.7043 -67.9366 76.9207C-67.746 77.0618 -78.4476 77.9295 -72.6475 77.7215C-68.6496 77.5659 -61.3066 76.5562 -60.0518 77.1365C-65.9189 77.5182 -71.7909 77.9114 -77.669 78.2996C-74.4446 78.3874 -71.2211 78.4594 -68.001 78.5193C-74.59 79.0084 -80.3022 79.0417 -86.5694 79.8015C-71.4815 79.7725 -91.4259 80.817 -91.671 80.9363C-91.7428 81.0134 -85.7878 81.3769 -84.8292 81.4383C-90.0751 82.0737 -106.109 83.233 -96.711 83.574C-98.4146 83.4753 -102.526 84.2695 -102.481 84.3094C-101.943 84.7049 -92.9563 83.8104 -94.4171 84.282C-96.1078 84.8361 -98.5012 84.4192 -101.118 84.6404C-114.566 85.7509 -110.842 87.8562 -124.427 88.2947C-124.156 88.3653 -123.886 88.4358 -123.615 88.5056C-131.809 88.8993 -140.042 89.1821 -148.317 89.3055C-154.959 89.4049 -161.587 89.417 -168.233 89.3357C-174.107 90.1984 -189.722 90.4946 -197.366 90.0613C-198.91 89.9954 -206.398 89.1712 -206.965 89.0457C-208 88.8313 -202.208 89.0599 -204.793 88.6267C-205.354 88.5615 -218.041 87.6035 -217.186 88.1717C-215.769 88.3256 -211.29 88.3286 -210.563 88.491C-207.396 89.2229 -221.682 88.3615 -233.04 87.4344C-239.835 86.9044 -245.774 86.3563 -246.533 86.4275C-245.679 86.6881 -244.83 86.9449 -243.979 87.2C-246.456 86.8981 -248.947 86.5815 -251.459 86.241C-250.422 86.1825 -249.371 86.124 -248.343 86.0603C-251.206 85.6886 -255.133 85.4013 -257.865 84.9226C-258.31 84.8441 -257.074 84.5182 -258.132 84.3719C-259.179 84.2252 -259.1 84.8831 -260.661 84.7576C-262.422 84.6377 -270.528 83.0256 -274.203 82.1209C-275.835 81.7466 -277.565 81.3357 -279.888 80.5594C-281.109 80.1371 -282.393 79.6844 -284.348 78.7195C-286.307 77.3706 -288.775 77.6113 -294.805 69.5486C-297.306 65.9116 -299.401 59.4121 -298.55 53.3943C-298.478 52.7345 -298.371 52.0883 -298.241 51.4578C-300.437 47.2627 -302.458 39.7285 -300.828 33.0281C-299.381 26.2654 -295.956 21.8452 -293.336 19.2019C-293.013 18.8761 -292.632 18.5168 -292.386 18.2918C-292.178 18.1001 -291.972 17.9173 -291.771 17.742C-291.368 17.3914 -290.978 17.0707 -290.602 16.7762C-289.848 16.187 -289.148 15.6977 -288.499 15.2752C-287.85 14.8531 -287.25 14.4974 -286.691 14.1863C-286.412 14.031 -286.143 13.8866 -285.884 13.7517C-285.637 13.6235 -285.512 13.5582 -285.333 13.4676C-283.988 12.7891 -282.886 12.3369 -281.904 11.9705C-280.996 11.6336 -280.481 11.462 -279.844 11.2723C-279.326 11.1195 -278.849 10.9982 -278.391 10.8953C-276.543 10.4991 -274.981 10.4491 -272.87 10.0398C-261.786 8.04574 -253.617 7.45008 -244.577 6.82889C-249.685 9.135 -240.463 7.32451 -240.08 7.3992C-237.962 7.76103 -247.427 8.61139 -243.672 8.65409C-238.425 8.19997 -233.213 7.80111 -228.035 7.43143C-232.302 7.45107 -222.47 5.46549 -220.641 6.00662C-221.462 4.29222 -197.165 6.30928 -193.558 5.5994C-192.805 5.442 -197.79 4.79687 -186.238 4.67459C-184.982 4.66291 -185.443 5.21597 -184.789 5.13748C-184.419 5.09272 -182.255 3.44076 -179.857 4.0203C-179.744 4.04624 -179.63 4.07771 -179.517 4.11307C-179.224 4.20401 -179.578 4.39366 -179.842 4.58573C-180.063 4.75418 -180.217 4.92426 -179.83 5.03104C-179.173 5.20663 -177.002 5.19823 -171.218 4.81034C-176.562 3.21018 -152.693 3.34391 -148.408 3.80155C-149.274 3.57644 -150.141 3.35169 -151.01 3.1287C-146.716 3.70374 -145.946 3.10147 -144.981 3.12186C-141.093 3.20781 -135.775 3.77459 -132.185 3.70096C-127.984 3.61589 -127.959 2.51163 -123.085 2.92166C-124.24 2.68199 -125.395 2.44227 -126.553 2.20389C-123.18 2.24676 -119.816 2.29337 -116.464 2.33963C-124.243 3.83511 -114.794 2.40598 -114.17 2.36991C-113.179 2.31259 -114.605 2.91878 -112.949 2.83768C-112.778 2.8246 -113.02 2.25895 -110.472 2.18436C-105.154 2.02905 -106 2.74687 -103.773 2.72733C-103.571 2.72184 -104.277 2.21549 -100.441 2.06912C-88.2808 1.5865 -100.492 2.46677 -100.971 2.5369C-101.59 2.63209 -97.3941 4.75849 -107.784 4.04764C-104.295 4.27397 -103.949 5.21803 -103.556 5.241C-103.205 5.26023 -97.1745 5.0905 -96.8448 5.0535C-93.8892 4.70837 -96.4891 4.07868 -95.9141 3.9578C-95.4409 3.86266 -88.2081 4.64085 -86.5401 2.65702C-83.0887 4.41226 -88.4999 4.33284 -94.3077 4.65799C-95.1507 5.03636 -88.7875 5.33439 -88.4503 5.32694C-84.9801 5.28407 -83.7998 4.99563 -83.4532 4.61112C-83.2034 4.33447 -83.3845 4.00652 -83.461 3.67557C-83.4922 3.53968 -83.506 3.40283 -83.4649 3.26932C-83.4162 3.11199 -83.2909 2.95823 -83.0294 2.81424C-82.095 2.30288 -78.7625 3.25801 -81.8438 1.97928C-74.4371 1.70321 -78.918 2.55631 -78.4395 2.66287C-77.7129 2.81746 -75.1244 2.3838 -74.7921 2.42655C-74.3122 2.49174 -75.9678 2.98867 -74.0782 3.11112C-73.7608 3.12733 -70.743 2.26525 -74.6631 1.97147C-69.4252 1.96902 -69.8643 1.29587 -68.0577 2.62088C-64.4881 -0.0569043 -65.3969 4.08458 -63.962 4.19412C-60.1493 4.47744 -61.2948 2.47314 -61.0977 2.36795C-59.7357 1.69807 -49.1271 2.0989 -46.4825 1.73221C-47.491 3.22723 -54.9141 1.9849 -56.545 2.31424C-62.0062 3.41148 -48.7892 2.83262 -52.7296 4.78495C-51.0683 4.23267 -49.4031 3.67945 -47.7354 3.12674C-44.6209 4.2268 -48.993 4.86083 -40.6846 4.20389C-39.3529 3.14462 -46.5625 4.52403 -45.1299 3.67948C-44.2888 3.18274 -39.463 2.95113 -39.3721 2.69998C-39.292 2.39806 -43.6411 2.86992 -42.9649 2.39041C-41.5067 1.34617 -25.4813 1.90122 -37.6446 2.74588C-34.6952 2.65593 -32.9496 4.11193 -30.6114 4.04276C-30.2613 4.03242 -29.8985 3.98803 -29.5157 3.8992C-28.8047 3.73368 -29.8699 3.28026 -30.6397 2.78592C-31.2993 2.3627 -31.7421 1.90836 -30.6671 1.57694C-29.6391 1.26132 -27.2255 1.05196 -22.2579 1.11698C-21.8998 2.04339 -28.726 1.51823 -28.9005 1.59647C-29.1459 1.70619 -27.8692 3.79055 -27.6544 3.89041C-26.9128 4.19672 -10.3499 2.80353 -6.79791 3.88065C-7.72556 3.07823 -1.91486 3.21283 2.59174 3.33768C4.82526 3.39915 6.73196 3.44174 7.23529 3.31912C7.63159 3.219 6.1524 2.46395 6.57611 2.38748C9.22052 1.93289 16.3802 3.31096 19.7128 3.37381C23.4404 3.44414 22.9715 2.80002 23.1796 2.80252C24.8211 2.85389 23.5088 3.27636 24.5117 3.28495C26.0232 3.29229 36.468 3.50693 36.998 3.42948C37.1492 3.40251 35.4509 2.64685 37.7314 2.54178C38.1281 2.52678 37.8672 3.37873 44.6367 3.12381C52.7994 2.82894 38.9835 1.94411 42.3808 1.10135ZM182.335 76.2019C183.042 76.2169 182.916 78.0924 180.03 77.6404C179.65 77.583 181.287 76.9325 180.979 76.8484C180.67 76.7886 174.98 77.1595 175.226 77.2019C175.146 77.2394 175.202 77.4216 175.245 77.5926C174.104 77.8023 172.611 78.1341 171.551 78.4754C167.607 79.7511 167.118 80.4001 166.799 80.5037C165.76 80.8319 163.858 81.0672 161.635 81.6941C150.232 85.1653 133.06 87.4858 124.566 86.948C132.191 86.8502 139.513 85.7144 147.37 84.1892C145.26 85.6476 158.884 81.0783 150.932 83.8924C152.948 83.5876 167.783 79.3003 175.175 76.7351C174.431 77.0073 174.662 76.9371 174.917 76.9129C175.225 76.8696 175.596 76.8204 176.081 76.7566C176.933 76.6507 177.94 76.5393 178.809 76.4558C180.547 76.2893 181.909 76.1966 182.327 76.2029C182.33 76.2027 182.332 76.2022 182.335 76.2019ZM-82.212 86.4119C-84.4912 86.3158 -76.8472 85.6871 -79.463 86.1824C-79.5757 86.203 -82.1197 86.4157 -82.212 86.4119ZM82.4882 85.8543C81.6484 85.3208 87.9501 86.0608 88.2324 86.1062C90.1898 86.5438 84.1713 86.3345 82.4882 85.8543ZM-268.132 83.7556C-267.698 83.8265 -259.443 85.0676 -260.154 85.2556C-261.849 85.6475 -269.537 83.7901 -268.132 83.7556ZM-95.5206 84.864C-95.7911 84.8511 -91.8764 83.8414 -90.7657 84.2762C-89.9127 84.6088 -94.8149 84.8855 -95.5206 84.864ZM76.2529 83.1013C72.7455 83.2109 83.6958 84.1936 84.3329 84.1385C83.9561 83.8559 76.5621 83.0847 76.2529 83.1013ZM-86.336 82.7263C-82.9044 82.207 -72.2299 82.8967 -83.6651 83.5252C-83.6623 83.525 -83.6581 83.5244 -83.6553 83.5242C-86.6363 83.6835 -84.7999 83.2908 -84.9376 83.2937C-91.2977 83.3904 -89.6028 83.8411 -90.5948 83.9851C-92.7242 84.2918 -92.3948 83.5513 -95.9893 84.1013C-90.0473 83.2429 -95.46 83.8088 -95.6339 83.5603C-96.3168 82.5624 -87.7034 83.5054 -84.7501 83.0555C-84.3391 82.9972 -87.3908 82.8947 -86.336 82.7263ZM34.6484 82.5828C36.1833 82.2982 40.5348 82.5433 43.0273 82.5779C43.2999 83.0299 36.4351 82.5572 34.6484 82.5828ZM61.7607 82.199C58.1048 81.188 47.1066 82.1757 54.3027 82.2537C54.4542 82.2538 53.0281 81.7532 55.8574 81.9441C56.0992 81.9625 56.4994 82.4692 60.0175 82.4871C60.6981 82.49 61.8475 82.2251 61.7607 82.199ZM-276.347 80.867C-278.871 80.1967 -282.84 78.7006 -280.344 79.9344C-278.939 80.661 -273.48 82.1955 -272.2 82.406C-271.391 82.247 -273.693 81.6297 -276.347 80.867ZM63.7314 81.9314C62.8975 81.7726 54.2124 81.2443 57.3925 81.6404C57.6987 81.6681 63.6195 82.1501 63.7314 81.9314ZM-78.1778 80.8357C-75.8092 80.8568 -81.2841 81.3084 -82.8878 81.326C-82.9776 81.1824 -78.3801 80.8342 -78.1778 80.8357ZM58.0126 80.9881C63.7502 81.1168 52.7484 80.1493 54.1855 80.6551C54.2701 80.6828 57.428 80.9723 58.0126 80.9881ZM23.6786 80.4285C24.2357 80.4101 26.5927 80.7368 28.2031 80.6326C26.3798 81.2301 17.8694 80.622 23.6786 80.4285ZM-21.8331 80.033C-21.3781 80.0158 -10.6905 80.0826 -12.7149 80.4451C-14.0914 80.6966 -24.6156 80.1835 -21.8331 80.033ZM-9.67291 80.0711C-9.08868 80.2425 -10.4719 80.6888 -11.7422 80.4236C-12.2859 80.3101 -11.2834 80.0486 -9.67291 80.0711ZM44.1347 80.0486C38.3089 79.803 29.3589 79.6365 28.7978 79.6951C28.5739 79.7189 28.4241 80.0226 28.5312 80.0369C29.1503 80.1024 38.2496 80.2159 44.1376 80.2908C46.4363 80.3167 48.1186 80.3367 48.8154 80.324C48.1266 80.244 46.4383 80.1407 44.1347 80.0486ZM13.955 79.5418C15.5024 79.5539 14.3522 79.7898 15.3056 79.8084C15.9126 79.8168 28.4148 79.7136 26.623 80.1062C25.3568 80.3653 8.20593 79.8199 5.43744 79.7928C7.89285 79.3195 9.89691 79.731 13.2099 79.7566C14.1024 79.7623 13.8604 79.5415 13.955 79.5418ZM98.1679 80.0271C101.392 79.7574 91.4752 79.3375 94.3349 79.8592C94.4723 79.8913 98.0068 80.0469 98.1679 80.0271ZM-21.6524 79.7459C-24.9035 79.3494 -10.3239 79.6967 -9.48541 79.7674C-10.442 79.94 -21.2094 79.8063 -21.6524 79.7459ZM-16.5323 79.0945C-13.0755 79.2728 -5.46515 78.9705 -8.5899 79.5613C-10.1601 79.8547 -11.2016 79.4573 -11.4024 79.45C-13.3578 79.3728 -17.411 79.3753 -16.5323 79.0945ZM62.2978 79.2371C60.886 79.2035 57.0295 78.7893 56.8359 79.0633C58.228 79.0756 62.0744 79.5082 62.2978 79.2371ZM13.5761 76.7937C29.1265 76.9724 3.26941 75.6465 14.1728 77.3709C5.20892 76.7218 11.2476 77.5634 9.87299 77.7693C8.40323 77.9848 3.332 77.712 3.60052 78.1111C3.60312 78.1111 3.60574 78.1111 3.60834 78.1111C6.70636 78.1052 9.80164 78.0985 12.8945 78.0945C9.84079 77.1868 16.173 77.4802 18.3339 78.2478C19.21 78.0712 20.084 77.8924 20.9589 77.7127C22.4424 78.8791 22.9642 77.0489 25.8408 78.0428C29.6058 76.6724 15.3482 77.9321 13.5761 76.7937ZM2.73041 77.991C0.126862 77.6386 -5.20328 77.9775 -3.82135 78.1033C-3.21124 78.1584 2.27032 78.2494 2.73041 77.991ZM-9.88971 77.3943C-12.9373 77.6857 -26.8629 77.3751 -27.588 77.4129C-28.1471 77.4465 -23.9118 78.0144 -30.545 77.6287C-30.5475 77.6287 -30.5503 77.6287 -30.5528 77.6287C-25.6941 78.4922 -19.1612 77.6559 -18.4415 77.6707C-17.7277 77.6988 -18.8344 78.0478 -18.6739 78.0594C-18.3015 78.0862 -10.6905 78.1304 -10.3243 78.1053C-10.0629 78.0858 -11.4528 77.5517 -9.88971 77.3943ZM175.259 77.6492C175.286 77.7698 175.298 77.8768 175.238 77.9109C175.202 77.9317 175.058 77.9383 174.972 77.9109C174.909 77.8786 174.831 77.8588 175.259 77.6492ZM-59.5333 77.8758C-58.6864 77.6136 -49.1488 76.9567 -49.3839 77.2117C-49.5888 77.431 -58.0347 77.7843 -59.5333 77.8758ZM-16.6417 77.7976C-18.5491 77.5685 -13.2179 77.5843 -11.9268 77.6726C-9.05649 77.8758 -16.3951 77.8273 -16.6417 77.7976ZM27.9482 77.6062C31.078 78.0047 29.5767 76.8316 27.2704 77.1121C27.1368 77.1282 27.8039 77.5874 27.9482 77.6062ZM175.259 77.6492C175.254 77.6307 175.25 77.6115 175.245 77.5926C175.317 77.5793 175.388 77.5638 175.457 77.5515C175.381 77.5867 175.316 77.6212 175.259 77.6492ZM-42.4317 76.1326C-42.1651 76.1465 -42.8153 76.8315 -44.6729 76.8426C-50.4943 76.877 -46.2746 76.2071 -58.4376 77.534C-53.3315 76.7892 -58.1599 77.1919 -57.1671 76.9529C-56.3691 76.7646 -53.3639 76.721 -55.1153 76.5291C-52.8142 76.7141 -42.8687 76.1014 -42.419 76.1316C-42.423 76.1318 -42.4277 76.1324 -42.4317 76.1326ZM-9.04108 75.9617C-10.9871 76.3828 -19.3222 76.3785 -24.1417 76.4246C-19.9012 76.6076 -13.0189 76.9237 -8.8399 77.0486C-7.6467 77.0849 -6.49628 76.9018 -5.47955 76.9246C-3.85416 76.963 -5.27988 77.2298 -5.17682 77.241C-5.17416 77.241 -5.17072 77.242 -5.16803 77.242C-3.03314 77.4015 -0.308716 76.7929 -4.85748 76.7215C-3.26303 76.631 -1.66855 76.5381 -0.0752563 76.4431C-6.03931 76.1063 -5.5784 76.9437 -7.2901 76.9041C-9.68137 76.8487 -9.5148 76.1759 -9.04108 75.9617ZM52.6259 76.3543C52.5247 76.3666 53.3708 76.7428 53.4755 76.7586C57.794 77.388 55.0227 76.2271 52.6259 76.3543ZM-18.794 76.7801C-21.2229 76.766 -24.9799 76.5977 -26.2969 76.866C-23.866 76.8881 -20.1098 77.0647 -18.794 76.7801ZM10.0204 76.5281C9.1196 76.4143 -0.441681 76.5473 3.42181 76.7986C3.73392 76.8186 10.458 76.7063 10.0204 76.5281ZM37.6191 75.8279C36.9061 75.8154 36.7011 76.3885 36.8583 76.4373C38.3443 76.8674 40.0187 75.8793 37.6191 75.8279ZM24.165 75.9832C26.4315 76.3315 26.9491 75.34 24.3535 75.6297C24.2526 75.641 24.0827 75.963 24.165 75.9832ZM-7.36627 74.7215C-8.86938 74.5174 -13.9853 75.089 -15.0333 75.2185C-7.35178 74.9777 -10.2311 75.5636 -8.85455 75.7517C-5.93509 76.1553 -7.00101 74.7737 -7.36627 74.7215ZM27.3388 75.1844C25.7597 75.225 21.4806 74.9851 20.874 75.24C22.3242 75.2922 26.6197 75.4339 27.3388 75.1844ZM-46.711 74.6404C-46.5955 74.7672 -50.1834 74.9612 -50.4922 74.9549C-52.5125 74.9008 -48.0445 74.615 -46.711 74.6404ZM4.52338 74.8299C7.21182 74.651 0.317719 74.4162 -0.985413 74.825C0.353821 74.7951 3.7587 74.8798 4.52338 74.8299ZM211.727 74.5066C216.027 73.5052 197.598 74.3122 202.516 74.825C202.852 74.8645 211.327 74.5989 211.727 74.5066ZM-60.0352 74.4637C-58.0136 74.5278 -62.4842 74.8155 -63.8194 74.7859C-63.9481 74.6441 -60.3478 74.4545 -60.0352 74.4637ZM-10.4395 74.4138C-8.23224 74.9635 -6.31131 73.7148 -9.67194 73.9998C-9.83228 74.0135 -10.5298 74.3859 -10.4395 74.4138ZM197.36 73.8152C196.944 73.7855 191.919 74.14 191.853 74.4949C193.382 74.5081 199.956 74.0082 197.36 73.8152ZM-50.9698 74.3377C-53.5892 74.2227 -47.0139 73.7689 -46.3008 74.0496C-46.1781 74.1004 -50.4706 74.3572 -50.9698 74.3377ZM220.54 72.614C222.615 72.0396 215.817 72.0769 217.747 72.6131C217.828 72.6371 220.43 72.646 220.54 72.614ZM-255.909 68.4051C-255.387 68.7313 -254.967 68.9582 -254.614 69.1424C-254.522 68.9994 -254.425 68.8486 -254.326 68.6892C-254.293 68.6485 -254.261 68.607 -254.229 68.5652C-254.678 68.5105 -255.23 68.4571 -255.909 68.4051ZM224.608 67.9881C225.722 68.5745 226.38 68.7366 226.714 68.9236C226.771 68.946 226.827 68.9665 226.881 68.9871C226.93 68.9817 226.979 68.9748 227.027 68.9695C227.45 68.917 227.879 68.8767 227.988 68.7986C228.095 68.7209 228.08 68.6254 227.394 68.4578C227.01 68.3647 226.648 68.289 226.315 68.2254C226.402 68.2646 226.459 68.3034 226.508 68.3728C226.689 68.5109 226.534 68.5054 225.994 68.3055C225.863 68.2349 225.696 68.1715 225.479 68.0847C225.131 68.0346 224.837 68.0025 224.608 67.9881ZM106.873 49.7351C106.521 49.7504 106.268 49.8117 106.115 49.9187C105.962 50.0413 105.824 50.256 105.701 50.5623C105.579 50.8686 105.579 51.175 105.701 51.4812C105.824 51.7875 106.145 52.2467 106.666 52.8592C107.478 53.8853 107.815 55.9614 107.677 59.0857C107.6 60.3261 107.417 61.3909 107.126 62.2791C106.85 63.1673 106.39 64.0864 105.747 65.0359C105.104 65.9853 104.744 66.6593 104.668 67.0574C104.591 67.4554 104.706 67.7997 105.012 68.0906C105.318 68.3663 105.671 68.4507 106.069 68.3435C106.467 68.2362 106.857 67.9145 107.24 67.3787C107.638 66.8427 108.106 66.0539 108.642 65.0125C109.178 63.9712 109.553 63.0907 109.768 62.3709C110.12 61.2069 110.257 59.4606 110.181 57.1326C110.104 54.8047 109.852 53.2272 109.423 52.4002C109.178 51.9254 108.741 51.3585 108.113 50.7C107.485 50.0417 107.072 49.7199 106.873 49.7351ZM223.426 67.2986C223.815 67.5459 224.168 67.7501 224.484 67.9207C224.703 67.9251 224.913 67.9274 225.108 67.9275C224.795 67.7917 224.404 67.608 223.916 67.325C223.757 67.316 223.593 67.3071 223.426 67.2986ZM224.584 67.3631C225.011 67.627 225.339 67.8012 225.592 67.9217C226.591 67.8967 226.999 67.7811 225.986 67.4998C225.968 67.4686 225.398 67.4165 224.584 67.3631ZM66.7636 49.781C66.4267 49.6279 66.097 49.6279 65.7753 49.781C65.3312 49.9804 64.7418 51.2444 64.0068 53.5721C63.2717 55.8997 62.8117 57.8215 62.6279 59.3377C62.4441 60.8539 62.3983 61.9418 62.4902 62.6004C62.5821 63.2589 62.8121 63.9786 63.1796 64.7596C64.1292 66.674 65.0787 67.2866 66.0283 66.5974C66.2732 66.4137 66.4035 66.1153 66.4189 65.7019C66.4342 65.2886 66.3271 64.9515 66.0976 64.6912C65.2859 63.757 64.9257 62.4013 65.0175 60.6248C65.1094 58.8482 65.6763 56.4514 66.7177 53.4344C67.2691 51.8415 67.4991 50.8758 67.4072 50.5389C67.3152 50.1868 67.1004 49.9341 66.7636 49.781ZM46.6454 49.7351C44.9304 49.7045 43.659 49.7504 42.832 49.8728C42.0051 49.9953 41.3923 50.256 40.9941 50.6541C40.5959 51.0523 40.3354 51.7341 40.2128 52.699C40.1516 53.0969 40.1435 53.3954 40.1894 53.5945C40.2353 53.7783 40.3809 53.9931 40.6259 54.2381C40.9016 54.4831 41.1927 54.6052 41.499 54.6053C41.8052 54.6053 42.0964 54.4372 42.372 54.1004C42.6476 53.7635 42.786 53.4265 42.7861 53.0896C42.8014 52.7374 42.8625 52.5308 42.9697 52.4695C43.0769 52.3929 43.3221 52.3543 43.705 52.3543C44.1031 52.3543 44.5777 52.339 45.1288 52.3084C45.68 52.2778 46.0934 52.2625 46.3691 52.2625C46.6447 52.2472 46.9745 52.2696 47.3574 52.3308C47.3727 52.4993 47.1661 53.0743 46.7372 54.0545C46.3084 55.0346 46.0784 55.6015 46.0478 55.7547C46.0171 55.9075 45.9099 56.0219 45.7265 56.0984C45.5427 56.1597 45.0827 56.2441 44.3476 56.3514C43.6125 56.4586 43.0609 56.6194 42.6933 56.8338C42.3259 57.0329 42.1425 57.3474 42.1425 57.7762C42.1425 58.2049 42.2494 58.5113 42.4638 58.6951C42.6782 58.8789 43.0385 59.001 43.5439 59.0623L44.5312 59.1775L43.5898 61.7508C43.0845 63.083 42.832 63.9788 42.832 64.4383C42.832 64.8976 43.0459 65.2346 43.4745 65.449C43.9187 65.6941 44.3023 65.6788 44.624 65.4031C44.9455 65.1274 45.2745 64.553 45.6113 63.6805C45.6572 63.5579 45.9402 62.8069 46.4609 61.4285C46.9816 60.0348 47.3194 59.2155 47.4726 58.9705C47.641 58.7257 47.855 58.5881 48.1152 58.5574C48.1458 58.5421 48.2537 58.5187 48.4374 58.4881C48.6216 58.4574 49.1573 58.4035 50.0449 58.3269C50.9332 58.2504 51.4929 58.1669 51.7226 58.075C51.9674 57.9831 52.1662 57.8373 52.3193 57.6385C52.549 57.3015 52.5877 56.9484 52.4345 56.5808C52.2814 56.2135 52.0665 55.9842 51.791 55.8924C51.5153 55.7852 50.9636 55.7312 50.1367 55.7312H48.8281L49.4023 54.4676C49.984 53.1817 50.321 52.3395 50.413 51.9412C50.5049 51.543 50.451 51.1441 50.2519 50.7459C50.0528 50.3478 49.8309 50.0871 49.5859 49.9646C49.3408 49.8268 48.3605 49.7505 46.6454 49.7351ZM97.3925 49.7351C95.6773 49.7045 94.406 49.7503 93.579 49.8728C92.7521 49.9954 92.1393 50.2559 91.7411 50.6541C91.343 51.0523 91.0824 51.7342 90.9599 52.699C90.8987 53.0969 90.8916 53.3955 90.9374 53.5945C90.9834 53.7783 91.1289 53.993 91.374 54.2381C91.6496 54.4831 91.9407 54.6053 92.247 54.6053C92.5533 54.6052 92.8445 54.4372 93.1201 54.1004C93.3957 53.7635 93.5331 53.4265 93.5331 53.0896C93.5484 52.7379 93.6098 52.5311 93.7167 52.4695C93.8239 52.3929 94.0693 52.3543 94.4521 52.3543C94.8503 52.3543 95.3255 52.339 95.8769 52.3084C96.4281 52.2778 96.8415 52.2625 97.1171 52.2625C97.3928 52.2472 97.7225 52.2696 98.1054 52.3308C98.1207 52.4993 97.9131 53.0743 97.4843 54.0545C97.0556 55.0345 96.8265 55.6015 96.7958 55.7547C96.7651 55.9077 96.6572 56.0219 96.4736 56.0984C96.2897 56.1597 95.8305 56.2442 95.0956 56.3514C94.3605 56.4586 93.8089 56.6194 93.4413 56.8338C93.0738 57.0329 92.8896 57.3473 92.8896 57.7762C92.8896 58.2049 92.9975 58.5113 93.2119 58.6951C93.4262 58.8787 93.786 59.001 94.291 59.0623L95.2792 59.1775L94.3378 61.7508C93.8325 63.0831 93.579 63.9788 93.579 64.4383C93.5791 64.8977 93.7938 65.2346 94.2226 65.449C94.6667 65.694 95.0494 65.6787 95.371 65.4031C95.6926 65.1274 96.0224 64.5533 96.3593 63.6805C96.4053 63.5579 96.6882 62.8069 97.2089 61.4285C97.7296 60.035 98.0665 59.2156 98.2197 58.9705C98.3881 58.7254 98.6028 58.588 98.8632 58.5574C98.8938 58.5421 99.0009 58.5187 99.1845 58.4881C99.3683 58.4574 99.9046 58.4035 100.793 58.3269C101.681 58.2504 102.24 58.1668 102.47 58.075C102.715 57.9831 102.914 57.8375 103.067 57.6385C103.297 57.3015 103.336 56.9484 103.183 56.5808C103.029 56.2135 102.815 55.9843 102.539 55.8924C102.263 55.7852 101.712 55.7312 100.885 55.7312H99.5751L100.149 54.4676C100.731 53.1817 101.068 52.3396 101.16 51.9412C101.252 51.543 101.199 51.1441 101 50.7459C100.801 50.3477 100.578 50.0872 100.333 49.9646C100.087 49.827 99.1067 49.7504 97.3925 49.7351ZM86.9003 51.3201C85.9968 49.9114 84.649 49.4594 82.8574 49.9646C82.306 50.1178 81.7849 50.4089 81.2949 50.8377C80.8201 51.2665 80.4445 51.7265 80.1689 52.2166C79.8933 52.7066 79.7558 53.1892 79.7558 53.6639C79.7558 54.1386 79.9247 54.4827 80.2617 54.6971C81.0274 55.2177 81.7083 54.8961 82.3056 53.7322C82.5659 53.181 82.8194 52.8134 83.0644 52.6297C83.3094 52.4461 83.6538 52.3615 84.0976 52.3767C84.7254 52.3767 84.9401 52.8136 84.7411 53.6863C84.634 54.0844 84.4883 54.3756 84.3046 54.5594C84.1208 54.7431 83.8064 54.9192 83.3622 55.0877C82.2905 55.4245 81.7551 55.9073 81.7548 56.5349C81.7548 57.2241 82.2983 57.6994 83.3857 57.9598C84.0901 58.1129 84.7639 58.3734 85.4072 58.741C86.0503 59.1085 86.4941 59.4608 86.7392 59.7976L87.1992 60.4178L86.7167 61.0154C86.2726 61.6279 85.5143 61.8652 84.4423 61.7273C83.3703 61.5895 82.4818 61.1457 81.7773 60.3953C81.2567 59.8441 80.7822 59.553 80.3535 59.5223C79.9248 59.4916 79.5877 59.7363 79.3427 60.2566C79.1895 60.5476 79.1275 60.7705 79.1581 60.9236C79.1889 61.0768 79.3345 61.36 79.5947 61.7732C80.3604 62.9066 81.5705 63.6729 83.2245 64.0711C84.4496 64.3773 85.4146 64.4689 86.1191 64.3465C86.8236 64.2239 87.5135 63.8566 88.1874 63.2439C89.3054 62.1719 89.7258 60.9923 89.4501 59.7058C89.1745 58.4193 88.2484 57.3162 86.6708 56.3973C86.5637 56.336 86.5097 56.2596 86.5097 56.1678C86.5097 56.0758 86.6176 55.8764 86.832 55.5701C87.0462 55.2637 87.1767 54.7047 87.2226 53.8933C87.2685 53.0819 87.2757 52.5229 87.2451 52.2166C87.2144 51.9103 87.0994 51.6111 86.9003 51.3201ZM183.325 51.3201C182.422 49.9114 181.074 49.4593 179.282 49.9646C178.731 50.1178 178.21 50.4088 177.72 50.8377C177.245 51.2665 176.87 51.7265 176.595 52.2166C176.319 52.7067 176.181 53.1891 176.181 53.6639C176.181 54.1385 176.35 54.4827 176.686 54.6971C177.452 55.2178 178.134 54.8962 178.731 53.7322C178.992 53.1811 179.244 52.8134 179.489 52.6297C179.734 52.4461 180.079 52.3615 180.522 52.3767C181.15 52.3767 181.365 52.8135 181.166 53.6863C181.059 54.0845 180.913 54.3756 180.729 54.5594C180.546 54.7431 180.232 54.9193 179.788 55.0877C178.716 55.4245 178.18 55.9072 178.18 56.5349C178.18 57.2241 178.723 57.6994 179.81 57.9598C180.515 58.1129 181.189 58.3735 181.832 58.741C182.475 59.1086 182.92 59.4607 183.165 59.7976L183.624 60.4178L183.142 61.0154C182.697 61.6278 181.939 61.8651 180.867 61.7273C179.795 61.5894 178.907 61.1457 178.202 60.3953C177.681 59.844 177.207 59.5529 176.778 59.5223C176.35 59.4916 176.013 59.7362 175.768 60.2566C175.614 60.5476 175.553 60.7705 175.584 60.9236C175.615 61.0769 175.76 61.3601 176.02 61.7732C176.786 62.9065 177.996 63.6729 179.65 64.0711C180.875 64.3773 181.84 64.469 182.545 64.3465C183.249 64.2239 183.939 63.8564 184.612 63.2439C185.73 62.1719 186.152 60.9923 185.876 59.7058C185.6 58.4193 184.673 57.3162 183.096 56.3973C182.989 56.336 182.935 56.2596 182.935 56.1678C182.936 56.0758 183.042 55.8764 183.257 55.5701C183.471 55.2637 183.601 54.7048 183.647 53.8933C183.693 53.0818 183.7 52.5229 183.67 52.2166C183.639 51.9103 183.524 51.6111 183.325 51.3201ZM137.229 50.3787C136.862 50.3789 135.988 50.9916 134.61 52.2166C133.385 53.2579 132.627 53.9857 132.336 54.3992C132.045 54.8125 132.038 55.2333 132.313 55.6619C132.589 56.0907 132.895 56.3055 133.232 56.3055C133.569 56.3054 134.044 56.0754 134.656 55.616C135.269 55.1565 135.607 54.9275 135.668 54.9275C135.729 54.9283 135.721 55.0891 135.644 55.4099C135.568 55.7323 135.529 57.6009 135.529 61.0154L133.577 61.2215C132.704 61.3134 132.144 61.4059 131.899 61.4978C131.655 61.5897 131.456 61.758 131.303 62.0027C131.15 62.2784 131.073 62.4779 131.073 62.6004C131.073 62.7229 131.172 62.9224 131.371 63.198L131.785 63.8181C132.076 63.8028 132.65 63.7794 133.508 63.7488C134.365 63.7182 135.07 63.6876 135.621 63.657C136.172 63.6264 136.778 63.6192 137.436 63.6346C138.095 63.6499 138.677 63.7109 139.183 63.8181C139.688 63.9252 140.047 63.9711 140.262 63.9558C140.476 63.9405 140.684 63.8408 140.883 63.657C141.388 63.1976 141.487 62.7385 141.181 62.2791C140.874 61.8197 140.278 61.4899 139.39 61.2908C138.507 61.0931 138.055 60.986 138.034 60.9695C137.973 60.9236 138.026 59.4449 138.194 56.5349C138.347 53.6253 138.471 52.0323 138.562 51.7566C138.654 51.481 138.546 51.1826 138.24 50.8611C137.934 50.5395 137.597 50.3787 137.229 50.3787ZM167.819 49.6892C166.87 49.3983 165.951 49.49 165.062 49.9646C164.542 50.2403 163.929 50.8379 163.225 51.7566C162.52 52.6756 162.168 53.3116 162.168 53.6639C162.168 54.016 162.298 54.2991 162.559 54.5135C162.819 54.7278 163.102 54.8357 163.408 54.8357C163.714 54.8357 163.975 54.7513 164.189 54.5828C164.419 54.4143 164.725 54.0693 165.108 53.5486C165.66 52.8596 166.112 52.4462 166.464 52.3084C166.816 52.1554 167.16 52.2165 167.497 52.492C167.834 52.7677 168.11 53.1126 168.324 53.5262C168.538 53.9395 168.646 54.2991 168.646 54.6053C168.646 54.9116 167.604 56.1369 165.521 58.281C163.439 60.4099 162.397 61.628 162.397 61.9344C162.397 62.2253 162.543 62.4931 162.834 62.7381C163.125 62.9831 163.516 63.1368 164.006 63.198C164.496 63.2593 165.737 63.3275 167.727 63.4041C169.718 63.4807 171.066 63.5957 171.77 63.7488C172.474 63.9019 172.934 63.971 173.148 63.9558C173.363 63.9405 173.593 63.8255 173.838 63.6111C174.083 63.3968 174.206 63.1136 174.206 62.7615C174.206 62.4093 174.068 62.1101 173.792 61.865C173.516 61.62 172.819 61.39 171.701 61.1756C170.599 60.9612 169.503 60.8543 168.416 60.8543H166.51C168.761 58.6031 170.124 57.1558 170.599 56.5125C171.579 55.0729 171.441 53.4189 170.185 51.5506C169.558 50.6011 168.769 49.9803 167.819 49.6892ZM214.227 50.7918C213.185 49.9648 211.875 49.7968 210.298 50.2869C209.639 50.5013 208.989 50.9147 208.346 51.5271C207.702 52.1398 207.205 52.8369 206.852 53.618C206.133 55.1035 205.957 56.8491 206.324 58.8553C206.692 60.8616 207.465 62.2945 208.644 63.1521C209.089 63.4888 209.678 63.6723 210.413 63.7029C211.148 63.7335 211.783 63.6185 212.319 63.3582C213.805 62.6077 214.885 61.4821 215.559 59.9812C216.232 58.4804 216.44 56.7806 216.18 54.8816C215.919 52.9825 215.268 51.6188 214.227 50.7918ZM75.1796 50.7234C74.3373 50.218 73.5027 50.042 72.6757 50.1951C71.8487 50.3483 71.1363 50.6465 70.539 51.0906C69.9417 51.5347 69.4746 52.0478 69.1376 52.6297C68.9232 53.0279 68.8163 53.6028 68.8163 54.3533C68.8164 55.1035 68.9233 55.7389 69.1376 56.2596C69.3521 56.7803 69.7123 57.2708 70.2177 57.7303C70.7229 58.1895 71.2128 58.4574 71.6874 58.534C71.9171 58.6105 72.3845 58.5881 73.0888 58.4656C73.7933 58.3431 74.2075 58.2892 74.33 58.3045C74.3908 58.3675 74.3289 59.0108 74.1454 60.2342C73.9311 61.4593 73.9005 62.3173 74.0536 62.8074C74.2068 63.2973 74.613 63.5418 75.2714 63.5418C75.6543 63.5571 75.9373 63.4116 76.121 63.1053C76.3047 62.799 76.4585 62.2328 76.581 61.406C76.6729 60.5791 76.9029 59.2924 77.2704 57.5467C77.638 55.8009 77.8059 54.6365 77.7753 54.0545C77.7447 53.4727 77.5154 53.1052 77.0869 52.9519C76.7652 52.86 76.6044 52.6372 76.6044 52.2849C76.6044 51.9329 76.5198 51.665 76.3515 51.4812C76.183 51.2975 75.7922 51.045 75.1796 50.7234ZM149.401 50.034C148.467 49.8197 147.525 49.9266 146.576 50.3553C145.305 50.9219 144.301 52.0477 143.566 53.7322C142.831 55.4169 142.579 57.1866 142.809 59.0398C142.9 59.7288 143.168 60.4407 143.612 61.1756C144.056 61.9107 144.547 62.4246 145.083 62.7156C145.925 63.2056 146.99 63.3736 148.276 63.2205C149.563 63.0673 150.627 62.646 151.47 61.9568C152.679 60.9614 153.147 59.7664 152.871 58.3728C152.595 56.9794 151.691 55.9461 150.16 55.2723C149.716 55.0732 149.34 54.95 149.034 54.9041C148.728 54.8582 148.222 54.8815 147.518 54.9734C146.813 55.0653 146.385 55.1417 146.231 55.2029C146.079 55.264 145.971 55.2874 145.91 55.2723C145.665 55.2569 145.757 54.8967 146.185 54.1922C146.614 53.4877 147.066 53.0124 147.541 52.7674C148.016 52.5224 148.391 52.4389 148.667 52.5154C148.942 52.5921 149.202 52.8447 149.447 53.2732C149.692 53.7021 150.015 53.9239 150.413 53.9392C150.796 53.9239 151.125 53.8088 151.4 53.5945C151.676 53.3801 151.814 53.1043 151.814 52.7674C151.814 52.4305 151.669 52.0017 151.378 51.4812C150.995 50.7308 150.336 50.2484 149.401 50.034ZM128.992 49.9646C128.67 49.6433 127.192 49.6737 124.559 50.0564C123.824 50.1789 123.265 50.2715 122.882 50.3328C122.499 50.3941 122.123 50.501 121.756 50.6541C121.388 50.8072 121.128 50.9456 120.975 51.0681C120.822 51.1907 120.684 51.4201 120.561 51.7566C120.439 52.0936 120.362 52.4233 120.331 52.7449C120.3 53.0665 120.255 53.6408 120.193 54.4676C120.132 55.2941 120.117 55.8226 120.147 56.0525C120.178 56.2823 120.301 56.5051 120.516 56.7195C120.73 56.9336 120.99 57.056 121.296 57.0867C121.602 57.1173 122.277 57.1255 123.318 57.1101C124.359 57.0795 125.171 57.1559 125.753 57.3396C126.35 57.5234 126.756 57.845 126.971 58.3045C127.093 58.5341 127.116 58.7256 127.04 58.8787C126.948 59.0318 126.657 59.323 126.167 59.7517C125.677 60.1805 125.24 60.4411 124.857 60.533C124.474 60.6555 123.923 60.6402 123.203 60.4871C122.483 60.334 121.955 60.334 121.618 60.4871C121.281 60.6403 121.09 60.9313 121.044 61.3601C120.983 61.7888 121.081 62.1412 121.342 62.4168C121.602 62.6924 122.2 62.9215 123.134 63.1053C124.068 63.289 124.841 63.289 125.454 63.1053C126.082 62.9062 126.901 62.4012 127.912 61.5896C128.923 60.7779 129.49 60.1113 129.612 59.5906C129.842 58.687 129.712 57.8219 129.222 56.9949C128.732 56.1679 127.943 55.5094 126.855 55.0193C126.274 54.7131 125.814 54.5288 125.477 54.4676C125.141 54.4063 124.689 54.3992 124.122 54.4451L122.789 54.5135C122.789 53.5794 122.851 53.0663 122.974 52.9744C123.143 52.9131 124.069 52.7675 125.753 52.5379C127.438 52.3081 128.365 52.1402 128.533 52.033C128.824 51.9105 129.015 51.7873 129.107 51.6648C129.199 51.5422 129.245 51.2743 129.245 50.8611C129.245 50.4323 129.161 50.1331 128.992 49.9646ZM204.06 49.9646C203.738 49.6432 202.26 49.6736 199.626 50.0564C198.891 50.179 198.331 50.2715 197.948 50.3328C197.566 50.394 197.191 50.5011 196.823 50.6541C196.456 50.8072 196.195 50.9456 196.042 51.0681C195.889 51.1907 195.75 51.4198 195.628 51.7566C195.505 52.0936 195.429 52.4233 195.398 52.7449C195.368 53.0665 195.322 53.6408 195.261 54.4676C195.199 55.2941 195.184 55.8226 195.215 56.0525C195.245 56.2823 195.368 56.5051 195.582 56.7195C195.796 56.9339 196.057 57.0561 196.363 57.0867C196.669 57.1173 197.343 57.1255 198.385 57.1101C199.426 57.0795 200.238 57.1558 200.82 57.3396C201.417 57.5234 201.824 57.8451 202.038 58.3045C202.16 58.5341 202.183 58.7256 202.106 58.8787C202.014 59.0319 201.723 59.323 201.233 59.7517C200.743 60.1805 200.307 60.4411 199.924 60.533C199.589 60.6401 199.125 60.6417 198.532 60.5379L198.009 60.4363C197.421 60.3359 196.979 60.3531 196.685 60.4871C196.348 60.6403 196.156 60.9315 196.11 61.3601C196.049 61.7888 196.149 62.1412 196.409 62.4168C196.669 62.6924 197.267 62.9215 198.201 63.1053C199.135 63.289 199.909 63.289 200.521 63.1053C201.149 62.9062 201.969 62.4012 202.979 61.5896C203.99 60.7779 204.557 60.1113 204.68 59.5906C204.909 58.6871 204.779 57.8219 204.289 56.9949C203.799 56.1679 203.01 55.5094 201.923 55.0193C201.341 54.7131 200.882 54.5289 200.545 54.4676C200.208 54.4063 199.756 54.3992 199.189 54.4451L197.856 54.5135C197.856 53.5799 197.918 53.0667 198.04 52.9744C198.208 52.9131 199.136 52.7676 200.82 52.5379C202.503 52.3083 203.43 52.1402 203.6 52.033C203.89 51.9105 204.082 51.7873 204.174 51.6648C204.266 51.5423 204.312 51.2746 204.312 50.8611C204.312 50.4323 204.228 50.1331 204.06 49.9646ZM32.9521 51.7107C32.7989 51.726 32.6606 51.7494 32.538 51.7801C32.4157 51.826 32.3238 51.8953 32.2626 51.9871C32.2014 52.0788 32.1402 52.1554 32.079 52.2166C32.0484 52.2779 32.0179 52.393 31.9872 52.5613C31.9566 52.7296 31.9413 52.8601 31.9413 52.9519C31.9108 53.0439 31.8873 53.2121 31.872 53.4568V55.5017H30.746C29.8582 55.4865 29.246 55.7238 28.9091 56.2137C28.5722 56.7037 28.671 57.2095 29.207 57.7303C29.5133 58.0366 30.0577 58.1892 30.8388 58.1892H32.0556L32.1474 59.6599C32.2086 60.6399 32.3777 61.2293 32.6533 61.4285C33.174 61.8114 33.7022 61.8113 34.2382 61.4285C34.422 61.2907 34.537 61.1146 34.5829 60.9002C34.6289 60.6858 34.637 60.2877 34.6064 59.7058L34.5605 58.3045L36.2372 58.3504C37.1406 58.3963 37.7912 58.327 38.1894 58.1433C38.5876 57.9596 38.787 57.6227 38.787 57.1326C38.787 56.6427 38.6189 56.3057 38.2822 56.1219C37.9452 55.9381 37.2858 55.8078 36.3056 55.7312L34.4453 55.616L34.33 53.8709C34.2688 52.9216 34.1618 52.3241 34.0087 52.0789C33.8556 51.8339 33.5034 51.7107 32.9521 51.7107ZM-262.595 60.9422C-262.651 60.9704 -262.706 60.9988 -262.76 61.0252C-262.867 61.078 -262.969 61.1275 -263.066 61.1736C-263.096 61.1876 -263.126 61.2002 -263.154 61.2137C-263.141 61.2335 -263.129 61.2544 -263.116 61.2742C-263 61.2467 -262.866 61.2283 -262.708 61.2254C-262.466 61.223 -262.251 61.2225 -262.065 61.2254C-261.912 61.1509 -261.751 61.0656 -261.579 60.9715C-261.841 60.9218 -262.1 60.8709 -262.357 60.8211C-262.439 60.8637 -262.531 60.9104 -262.595 60.9422ZM211.033 52.7908C211.722 52.4846 212.312 52.5917 212.802 53.1121C213.43 53.8012 213.744 54.9424 213.744 56.5349C213.744 58.1278 213.193 59.407 212.09 60.3719C211.477 60.9078 210.949 61.1379 210.505 61.0613C210.061 60.9847 209.663 60.6092 209.31 59.9353C208.974 59.2155 208.789 58.3271 208.759 57.2703C208.728 56.2136 208.882 55.3637 209.219 54.7205C209.739 53.7404 210.344 53.0971 211.033 52.7908ZM148.161 57.5467C148.774 57.5467 149.234 57.6535 149.54 57.868C150.06 58.2966 150.335 58.7101 150.366 59.1082C150.397 59.5064 150.144 59.8585 149.608 60.1648C149.072 60.4711 148.483 60.6248 147.84 60.6248C147.197 60.6248 146.782 60.579 146.599 60.4871C146.415 60.3952 146.193 60.2109 145.933 59.9353C145.412 59.3075 145.244 58.7252 145.428 58.1892C145.475 58.1887 145.789 58.0818 146.369 57.868C146.951 57.6535 147.548 57.5467 148.161 57.5467ZM158.45 56.7195C157.501 56.6583 156.689 56.6736 156.016 56.7654C155.342 56.8879 154.89 57.0407 154.66 57.2244C154.43 57.4082 154.315 57.7146 154.315 58.1433C154.315 58.5722 154.545 58.8714 155.005 59.0398C155.495 59.2082 156.352 59.2918 157.577 59.2918C158.802 59.2918 159.645 59.2082 160.104 59.0398C160.564 58.8714 160.794 58.5495 160.794 58.075C160.794 57.6002 160.64 57.2705 160.334 57.0867C160.027 56.903 159.399 56.7808 158.45 56.7195ZM191.475 56.7195C190.525 56.6583 189.714 56.6736 189.04 56.7654C188.366 56.8879 187.914 57.0407 187.685 57.2244C187.455 57.4082 187.34 57.7146 187.34 58.1433C187.34 58.5721 187.569 58.8713 188.028 59.0398C188.518 59.2083 189.376 59.2918 190.602 59.2918C191.827 59.2918 192.669 59.2083 193.129 59.0398C193.588 58.8714 193.818 58.5495 193.818 58.075C193.818 57.6002 193.665 57.2705 193.358 57.0867C193.052 56.903 192.424 56.7808 191.475 56.7195ZM73.1806 52.7674C73.3644 52.7674 73.6025 52.8294 73.8935 52.9519C74.1843 53.0744 74.4676 53.1967 74.7431 53.3191C75.0187 53.4416 75.1724 53.5333 75.2031 53.5945C75.2337 53.6558 75.2337 53.7331 75.2031 53.825C75.1418 53.9169 75.0492 54.0391 74.9267 54.1922C74.8042 54.3453 74.6128 54.552 74.3525 54.8123C73.6328 55.5319 73.0128 55.9075 72.4921 55.9383C71.9715 55.9689 71.6112 55.6471 71.412 54.9734C71.2742 54.5446 71.2976 54.1457 71.4814 53.7781C71.6652 53.4109 71.9483 53.1509 72.331 52.9978C72.7137 52.8448 72.9968 52.7675 73.1806 52.7674ZM107.266 26.6512C106.623 26.6206 106.163 26.6358 105.888 26.6971C105.612 26.7583 105.321 26.8967 105.015 27.1111C103.881 27.8768 103.084 29.1401 102.625 30.9012C102.456 31.5597 102.365 32.035 102.35 32.326C102.334 32.617 102.388 32.9925 102.511 33.4519C102.878 34.7994 103.69 35.8409 104.945 36.576C105.68 37.0354 106.393 37.2501 107.082 37.2195C107.771 37.1889 108.514 36.9283 109.31 36.4383C109.51 36.2851 109.716 36.1315 109.931 35.9783C110.145 35.8252 110.329 35.6796 110.482 35.5418C110.635 35.4041 110.727 35.297 110.758 35.2205C110.896 34.899 110.895 34.57 110.758 34.2332C110.62 33.8963 110.383 33.651 110.046 33.4978C109.786 33.406 109.564 33.3827 109.38 33.4285C109.196 33.4744 108.797 33.6892 108.185 34.0721C107.572 34.4548 107.159 34.6463 106.944 34.6463C106.73 34.6462 106.347 34.4162 105.796 33.9568C105.49 33.6505 105.283 33.4052 105.176 33.2215C105.069 33.0378 105.015 32.7778 105.015 32.4412C105.03 31.6142 105.29 30.8326 105.796 30.0974C106.301 29.3625 106.776 29.0796 107.22 29.2478C107.465 29.3244 107.802 29.5922 108.23 30.0515C108.659 30.5109 108.989 30.7634 109.219 30.8094C109.448 30.8553 109.739 30.7484 110.092 30.4881C110.413 30.289 110.574 29.9905 110.574 29.5926C110.574 29.1944 110.398 28.7344 110.046 28.2137C109.694 27.6929 109.303 27.3103 108.874 27.0652C108.445 26.8202 107.909 26.6818 107.266 26.6512ZM140.223 26.6512C139.58 26.6206 139.12 26.6359 138.845 26.6971C138.569 26.7583 138.278 26.8967 137.972 27.1111C136.838 27.8768 136.041 29.1401 135.582 30.9012C135.414 31.5597 135.322 32.035 135.307 32.326C135.291 32.617 135.345 32.9925 135.468 33.4519C135.835 34.7995 136.647 35.8409 137.902 36.576C138.637 37.0354 139.35 37.2501 140.039 37.2195C140.728 37.1889 141.471 36.9284 142.268 36.4383C142.467 36.2851 142.673 36.1315 142.888 35.9783C143.102 35.8252 143.286 35.6796 143.439 35.5418C143.592 35.4041 143.684 35.297 143.715 35.2205C143.853 34.899 143.852 34.57 143.715 34.2332C143.577 33.8964 143.34 33.651 143.003 33.4978C142.743 33.406 142.521 33.3827 142.337 33.4285C142.153 33.4744 141.754 33.6892 141.142 34.0721C140.529 34.4548 140.116 34.6462 139.901 34.6463C139.687 34.6463 139.304 34.4162 138.753 33.9568C138.447 33.6505 138.239 33.4053 138.132 33.2215C138.025 33.0378 137.972 32.7776 137.972 32.4412C137.987 31.6142 138.247 30.8326 138.753 30.0974C139.258 29.3625 139.733 29.0794 140.177 29.2478C140.422 29.3244 140.759 29.5922 141.187 30.0515C141.616 30.511 141.946 30.7634 142.176 30.8094C142.405 30.8553 142.697 30.7484 143.049 30.4881C143.37 30.289 143.531 29.9905 143.531 29.5926C143.531 29.1944 143.355 28.7344 143.003 28.2137C142.651 27.693 142.26 27.3103 141.831 27.0652C141.402 26.8202 140.866 26.6818 140.223 26.6512ZM118.47 25.9168C116.969 25.8555 115.835 25.8555 115.069 25.9168C114.303 26.0087 113.798 26.0697 113.553 26.1004C113.308 26.131 113.109 26.1841 112.956 26.2605C112.803 26.3371 112.634 26.4828 112.45 26.6971C112.266 26.9114 112.197 27.1874 112.243 27.5242C112.304 27.8458 112.489 28.1216 112.795 28.3514C113.025 28.5658 113.607 28.6197 114.541 28.5125L115.896 28.3748L116.08 29.6385C116.187 30.4654 116.202 31.568 116.126 32.9461C116.049 34.3245 116.026 35.1671 116.057 35.4734C116.087 35.7796 116.202 36.0322 116.401 36.2312C116.983 36.8132 117.574 36.806 118.171 36.2088C118.416 35.9637 118.561 35.5038 118.607 34.8299C118.653 34.1559 118.653 32.6933 118.607 30.4422L118.561 28.3514L119.227 28.489C120.498 28.734 121.409 28.7268 121.961 28.4666C122.512 28.2062 122.704 27.7004 122.535 26.95C122.428 26.5826 122.099 26.3371 121.548 26.2146C120.996 26.0768 119.97 25.978 118.47 25.9168ZM71.9267 22.1951C71.5133 22.2258 71.1538 22.3866 70.8476 22.6775C70.189 23.382 69.2233 25.679 67.9521 29.5691C67.3549 31.4221 66.911 32.7392 66.6201 33.5203C66.3138 34.3014 66.1916 34.853 66.2529 35.1746C66.3141 35.4961 66.574 35.7639 67.0331 35.9783C67.4925 36.1927 67.8987 36.109 68.2509 35.7264C68.6032 35.3435 68.9868 34.5619 69.4003 33.3826L70.1122 31.407L74.9589 31.2693L76.0624 33.2449C76.5372 34.0719 76.8812 34.6083 77.0956 34.8533C77.3254 35.083 77.6093 35.2286 77.9462 35.2898C78.2831 35.351 78.5967 35.2431 78.8876 34.9676C79.1785 34.692 79.2863 34.363 79.2099 33.9803C79.1793 33.8577 78.9645 33.4058 78.5663 32.6248C78.1682 31.859 77.6776 30.94 77.0956 29.868C76.5136 28.7959 75.9397 27.7385 75.373 26.6971C74.7758 25.6558 74.2474 24.7446 73.788 23.9637C73.3286 23.1826 73.0446 22.7307 72.9374 22.6082C72.6771 22.302 72.3401 22.1645 71.9267 22.1951ZM-263.453 35.9832C-263.626 35.9429 -263.583 35.9817 -263.45 36.0476C-263.4 36.042 -263.349 36.0366 -263.299 36.031C-263.363 36.0098 -263.412 35.9957 -263.453 35.9832ZM146.349 25.5027C146.165 25.5028 145.966 25.5793 145.752 25.7322C145.537 25.8854 145.414 26.0085 145.384 26.1004C145.353 26.1924 145.307 26.3992 145.246 26.7205C145.185 27.0421 145.169 27.4787 145.2 28.0301C145.215 28.5815 145.231 29.8221 145.246 31.7517C145.277 33.6813 145.385 34.7683 145.568 35.0135C145.752 35.2278 146.127 35.3204 146.693 35.2898C147.26 35.2592 147.712 35.1208 148.049 34.8758C148.386 34.6307 148.815 34.187 149.336 33.5437C149.856 32.9007 150.178 32.5026 150.301 32.3494C150.439 32.1962 150.561 32.0579 150.668 31.9353L151.174 31.4305C151.22 31.3846 151.25 31.3684 151.266 31.3836C151.357 31.4448 151.434 32.0119 151.495 33.0838C151.556 34.1558 151.687 34.8682 151.886 35.2205C152.085 35.5726 152.414 35.7487 152.873 35.7488C153.332 35.7488 153.662 35.6113 153.861 35.3357C154.106 35.06 154.206 34.6459 154.16 34.0945L153.838 29.9597C153.807 29.1633 153.731 28.566 153.608 28.1678C153.486 27.7697 153.249 27.4713 152.896 27.2722C152.177 26.9047 151.058 27.5784 149.542 29.2937L148.118 30.9246L147.819 28.6043C147.697 27.6547 147.59 27.0034 147.498 26.6512C147.406 26.3144 147.237 26.0393 146.992 25.825C146.747 25.6106 146.532 25.5027 146.349 25.5027ZM81.7128 25.5027C81.4066 25.5028 81.1765 25.5944 81.0234 25.7781C80.8703 25.9465 80.7715 26.1767 80.7255 26.4676C80.6796 26.7432 80.649 27.1727 80.6337 27.7547C80.6184 28.3367 80.6103 29.1867 80.6103 30.3045C80.6103 31.4224 80.6255 32.2418 80.6562 32.7625C80.6715 33.2832 80.7254 33.7351 80.8173 34.118C80.9245 34.5006 81.0468 34.7226 81.1845 34.784C81.3223 34.8452 81.5903 34.8757 81.9882 34.8758C82.3864 34.8758 82.6856 34.7302 82.8847 34.4392C83.0837 34.1482 83.1835 33.6504 83.1835 32.9461V31.7283L85.0214 31.867C86.2005 31.9435 86.8592 32.0199 86.997 32.0965C87.1347 32.1732 87.1572 32.441 87.0654 32.9002C86.9735 33.3596 87.0508 33.7657 87.2958 34.118C87.5409 34.4701 87.8625 34.6463 88.2607 34.6463C88.6741 34.6462 88.9724 34.5465 89.1562 34.3474C89.34 34.133 89.4631 33.7575 89.5244 33.2215C89.5856 32.6854 89.6233 31.8353 89.6386 30.6717V28.9715C89.6386 28.6347 89.6162 28.3362 89.5703 28.076C89.5243 27.8003 89.4704 27.6161 89.4091 27.5242C89.3479 27.4324 89.2408 27.3099 89.0878 27.157C88.5824 26.6363 88.0919 26.5447 87.6171 26.8816C87.1426 27.2185 86.9511 27.7848 87.0429 28.5808L87.1581 29.5232L85.3203 29.3855C84.1125 29.2785 83.4845 29.2092 83.4365 29.1785C83.3905 29.1172 83.3132 28.7039 83.206 27.9383C83.0988 27.1725 82.9919 26.6362 82.8847 26.3299C82.7775 26.0236 82.632 25.8088 82.4482 25.6863C82.2644 25.5639 82.019 25.5027 81.7128 25.5027ZM162.849 24.6756C161.93 24.4459 160.957 24.4235 159.932 24.6072C159.457 24.6838 158.99 24.8141 158.53 24.9978C158.071 25.151 157.641 25.3495 157.243 25.5945C156.845 25.8395 156.554 26.0615 156.37 26.2605C156.186 26.4596 156.056 26.6214 155.979 26.7439C155.903 26.8663 155.835 27.0041 155.773 27.157C155.712 27.31 155.666 27.463 155.636 27.616C155.605 27.7691 155.574 27.9992 155.543 28.3055C155.512 28.5964 155.505 28.857 155.52 29.0867C155.551 29.3164 155.605 29.5006 155.682 29.6385C155.773 29.7609 155.896 29.9139 156.049 30.0974C156.202 30.2812 156.339 30.4349 156.462 30.5574C156.584 30.6799 156.707 30.7868 156.83 30.8787C156.952 30.9705 157.075 31.047 157.197 31.1082C157.304 31.1694 157.45 31.2459 157.634 31.3377C157.818 31.4296 157.941 31.5069 158.002 31.5681C158.047 31.6447 158.009 31.7672 157.887 31.9353C157.764 32.1038 157.534 32.1883 157.197 32.1883C156.86 32.2036 156.531 32.3492 156.21 32.6248C155.888 32.9005 155.727 33.161 155.727 33.406C155.728 33.651 155.88 33.927 156.186 34.2332C156.492 34.5392 156.73 34.7226 156.898 34.784C157.067 34.8452 157.427 34.8228 157.978 34.7156C158.53 34.6237 159.104 34.3092 159.701 33.7732L162.527 31.4764L162.597 32.6473C162.643 33.5355 162.872 34.141 163.285 34.4627C163.714 34.7843 164.204 34.7385 164.756 34.325L164.917 34.1639C164.963 34.1178 165.009 34.026 165.055 33.8885C165.101 33.7507 165.131 33.605 165.146 33.4519C165.162 33.2988 165.184 33.0535 165.215 32.7166C165.245 32.3797 165.254 32.0274 165.238 31.6599C165.238 31.2924 165.245 30.5108 165.261 29.3162C165.276 28.1221 165.269 27.2952 165.238 26.8357C165.208 26.3764 165.101 26.0313 164.917 25.8015C164.457 25.2808 163.768 24.9053 162.849 24.6756ZM95.6152 25.5027C94.7881 25.4721 94.1134 25.5952 93.5927 25.8709C93.0722 26.1465 92.6587 26.399 92.3525 26.6287C92.0615 26.8584 91.8243 27.119 91.6406 27.4099C91.4721 27.7009 91.3184 28.1071 91.1806 28.6277C91.0429 29.1482 90.997 29.6993 91.0429 30.281C91.0888 30.8936 91.2497 31.4453 91.5253 31.9353C91.801 32.4254 92.146 32.8539 92.5595 33.2215C92.973 33.589 93.4402 33.8424 93.9609 33.9803C94.4815 34.118 95.018 34.11 95.5693 33.9568C96.1204 33.8036 96.6715 33.5052 97.2226 33.0613L98.0038 32.3719L98.2333 33.0154C98.4936 33.7043 98.8155 34.133 99.1982 34.3015C99.5658 34.4853 99.9799 34.3937 100.439 34.0262L100.968 33.6121L100.462 31.1541C100.171 29.5002 100.071 28.52 100.163 28.2137C100.255 27.9074 100.087 27.5552 99.6581 27.157C99.2599 26.7588 98.6931 26.3914 97.9579 26.0545C97.2229 25.7176 96.442 25.5334 95.6152 25.5027ZM128.571 25.5027C127.744 25.4721 127.07 25.5952 126.55 25.8709C126.029 26.1465 125.616 26.399 125.31 26.6287C125.019 26.8584 124.781 27.1189 124.598 27.4099C124.429 27.7009 124.275 28.107 124.138 28.6277C124 29.1482 123.954 29.6993 124 30.281C124.046 30.8936 124.207 31.4453 124.482 31.9353C124.758 32.4254 125.103 32.8539 125.517 33.2215C125.93 33.589 126.397 33.8424 126.918 33.9803C127.438 34.118 127.974 34.1099 128.525 33.9568C129.077 33.8037 129.628 33.5054 130.18 33.0613L130.961 32.3719L131.19 33.0154C131.451 33.7044 131.772 34.133 132.155 34.3015C132.523 34.4853 132.937 34.3937 133.396 34.0262L133.925 33.6121L133.419 31.1541C133.128 29.5002 133.028 28.52 133.12 28.2137C133.212 27.9074 133.044 27.5551 132.615 27.157C132.217 26.7588 131.65 26.3914 130.915 26.0545C130.18 25.7175 129.398 25.5333 128.571 25.5027ZM95.3847 27.9842C95.5991 27.9535 95.9361 28.0228 96.3954 28.1912C96.8549 28.3597 97.093 28.4818 97.1083 28.5584C97.1083 28.6351 96.8854 29.0789 96.4413 29.8904C95.9207 30.7787 95.4463 31.2997 95.0175 31.4529C94.5734 31.6061 94.1978 31.3842 93.8915 30.7869C93.3555 29.822 93.5244 29.0486 94.3974 28.4666C94.8413 28.1758 95.1703 28.0149 95.3847 27.9842ZM128.342 27.9842C128.556 27.9535 128.893 28.0227 129.352 28.1912C129.812 28.3596 130.049 28.4818 130.064 28.5584C130.064 28.6351 129.842 29.0789 129.398 29.8904C128.878 30.7785 128.403 31.2996 127.975 31.4529C127.53 31.6061 127.155 31.3841 126.849 30.7869C126.313 29.822 126.481 29.0486 127.354 28.4666C127.798 28.1758 128.127 28.0148 128.342 27.9842ZM225.366 29.4168C223.924 29.348 223.722 30.0781 223.368 30.1433C223.26 30.172 221.879 30.2731 220.65 30.3943C220.494 30.532 220.311 30.6943 220.124 30.8699C220.614 30.8908 221.25 30.9107 222.057 30.9236C222.553 30.94 227.527 29.5042 225.366 29.4168ZM219.528 30.5213C219.51 30.5385 219.49 30.5549 219.473 30.5721C219.392 30.6493 219.312 30.7323 219.227 30.8162C219.309 30.8238 219.402 30.8296 219.507 30.8367C219.636 30.7101 219.76 30.5902 219.88 30.4783C219.756 30.4927 219.638 30.5067 219.528 30.5213ZM160.759 27.1111C161.432 27.0346 162.014 27.0652 162.504 27.2029C162.749 27.3101 162.864 27.5554 162.849 27.9383C162.864 28.0912 162.841 28.2289 162.78 28.3514C162.719 28.4739 162.619 28.5817 162.481 28.6736C162.344 28.7655 162.037 28.9336 161.562 29.1785C161.088 29.4235 160.69 29.5466 160.368 29.5467C160.047 29.5467 159.564 29.3929 158.921 29.0867C158.278 28.7957 157.956 28.581 157.956 28.4431C157.956 28.1829 158.254 27.915 158.852 27.6394C159.449 27.3638 160.085 27.1877 160.759 27.1111ZM72.7538 27.2722C73.2592 28.1757 73.5117 28.6583 73.5117 28.7195C73.508 28.75 73.0948 28.7808 72.2714 28.8113C71.4606 28.8419 71.0544 28.7805 71.0536 28.6277C71.0536 28.4746 71.2073 27.9841 71.5136 27.157L71.996 25.8933L72.7538 27.2722ZM223.8 27.5662C223.591 27.6258 223.348 27.6851 223.084 27.742C222.923 27.8433 222.754 27.952 222.579 28.0691C222.829 28.0095 223.057 27.9504 223.257 27.8904C223.447 27.7731 223.628 27.6661 223.8 27.5662ZM-256.03 27.115C-256.202 27.2245 -256.446 27.3835 -256.746 27.5916C-256.399 27.5096 -256.094 27.4311 -255.856 27.3572C-255.911 27.2738 -255.967 27.1912 -256.022 27.1101C-256.024 27.1119 -256.028 27.1133 -256.03 27.115ZM-251.992 25.8972C-252.136 25.9221 -252.324 25.9642 -252.508 26.0183C-252.449 26.1216 -252.39 26.2295 -252.33 26.3387C-252.255 26.3206 -252.181 26.3025 -252.112 26.284C-251.994 26.2523 -251.901 26.2247 -251.828 26.201C-251.883 26.0975 -251.937 25.996 -251.992 25.8972ZM-254.333 26.1394C-254.308 26.1789 -254.284 26.2194 -254.259 26.2596C-254.146 26.2005 -254.023 26.1386 -253.891 26.076C-253.917 26.0355 -253.943 25.9962 -253.969 25.9578C-254.081 26.0117 -254.202 26.0718 -254.333 26.1394ZM227.663 25.6492C227.585 25.672 227.421 25.6973 227.01 25.8367C227.468 25.7303 227.897 25.6083 227.663 25.6492ZM-261.157 24.8982C-260.948 25.0882 -260.73 25.2942 -260.506 25.5203C-259.413 25.6445 -258.737 25.6281 -259.138 25.3299C-259.333 25.21 -260.175 25.0534 -261.157 24.8982ZM-252.837 25.4607C-252.813 25.4999 -252.79 25.5405 -252.766 25.5808C-252.693 25.5506 -252.62 25.5192 -252.546 25.489C-252.464 25.4541 -252.377 25.4165 -252.293 25.3806C-252.312 25.3485 -252.331 25.3165 -252.351 25.2849C-252.469 25.3242 -252.623 25.3764 -252.837 25.4607ZM-265.883 23.408C-265.862 23.5378 -266.152 23.6884 -266.394 23.8269C-266.649 23.9623 -266.812 24.099 -266.766 24.1541C-267.007 24.3153 -264.161 24.9636 -261.852 25.3328C-262.138 25.0798 -262.407 24.8599 -262.641 24.6775C-263.842 24.5051 -264.891 24.3616 -264.91 24.3211C-265.055 24.25 -264.74 24.1351 -264.683 23.9793C-264.613 23.8242 -264.894 23.6212 -265.883 23.408ZM232.315 20.7957C232.766 20.4878 236.944 21.2538 242.072 22.7586C241.466 22.7567 238.622 21.9982 236.83 21.6385C234.905 21.2265 233.206 20.8969 232.315 20.7957ZM-265.685 21.783C-265.79 21.8235 -265.825 21.8997 -265.797 21.9949C-265.692 22.0264 -265.561 22.0679 -265.399 22.1297C-265.281 22.1755 -265.146 22.2321 -264.99 22.3015C-264.79 22.3936 -264.555 22.508 -264.279 22.657C-264.249 22.6736 -264.218 22.6923 -264.187 22.7097C-264.427 22.3708 -265.228 21.6242 -265.685 21.783ZM-261.526 18.9295C-260.91 19.0323 -260.673 19.2792 -260.713 19.4783C-260.58 19.5723 -260.436 19.6729 -260.282 19.7859C-260.16 19.8764 -260.03 19.9736 -259.893 20.0789C-259.821 20.1342 -259.764 20.1787 -259.67 20.2517C-259.567 20.3317 -259.461 20.4161 -259.352 20.5047C-259.208 20.6221 -259.06 20.7494 -258.903 20.8826C-258.632 20.9386 -258.392 20.9841 -258.194 21.0144C-259.139 20.1926 -259.838 19.7545 -260.169 19.4959C-260.543 19.2477 -260.865 19.0469 -261.138 18.8806C-261.495 18.7496 -261.846 18.6186 -262.184 18.4949C-262.014 18.6053 -261.799 18.7489 -261.526 18.9295ZM203.06 19.8894C203.277 19.269 196.733 19.1552 199.28 19.867C199.912 20.0436 202.98 20.0947 203.06 19.8894ZM-260.585 17.6648C-260.428 17.7666 -260.251 17.8836 -260.05 18.0193C-259.916 18.1097 -259.773 18.2094 -259.617 18.3191C-259.325 18.3615 -259.042 18.4025 -258.774 18.4363C-259.536 17.8759 -259.761 17.862 -260.031 17.6463C-260.053 17.6339 -260.076 17.623 -260.098 17.6111C-260.271 17.6313 -260.436 17.6487 -260.585 17.6648ZM167.575 17.0222C166.321 16.8522 165.324 17.8008 165.456 17.8631C166.758 18.4444 168.775 17.5276 167.575 17.0222ZM157.81 16.9705C156.153 17.034 158.894 18.3727 161.064 17.5916C159.984 17.568 157.972 16.9653 157.81 16.9705ZM156.933 17.0701C154.274 15.9846 154.341 17.4005 156.293 17.6258C157.019 17.7052 157.014 17.105 156.933 17.0701ZM203.476 16.3387C204.818 15.8391 208.64 16.4503 211.093 16.6648C209.958 17.0788 205.53 16.5069 203.476 16.3387ZM186.098 14.5594C186.248 14.5473 189.57 14.8497 189.727 14.8894C192.432 15.6874 183.012 14.8369 186.098 14.5594ZM168.571 14.3562C168.135 13.5019 173.798 14.6011 175.793 14.6502C176.212 15.5004 170.543 14.4305 168.571 14.3562ZM139.661 13.8455C138.224 13.6158 134.096 12.4612 133.193 12.6844C135.365 13.0854 140.015 14.7665 139.661 13.8455ZM158.379 13.1668C158.696 12.8399 162.246 13.3568 163.518 13.3806C162.643 13.8252 160.071 13.4088 158.379 13.1668ZM134.483 8.50955C134.556 7.97219 134.489 8.12971 136.099 8.4617C148.016 11.0041 150.829 11.5483 150.344 11.783C149.321 11.8816 145.023 11.4183 134.483 8.50955ZM-261.455 8.98123C-261.66 8.96499 -266.387 9.48844 -266.623 9.55741C-269.107 10.1417 -266.547 9.92773 -264.106 9.65897C-261.701 9.39144 -259.339 9.03951 -261.455 8.98123ZM-247.64 7.44412C-248.702 7.55027 -253.407 7.73633 -253.446 7.96268C-253.519 8.31227 -248.149 8.08215 -247.64 7.44412ZM-41.7618 4.45096C-44.759 4.64203 -47.8517 7.00152 -44.1387 6.54764C-43.7445 6.4983 -41.4109 4.75717 -41.7618 4.45096ZM-0.19635 6.14432C2.37909 5.60506 -3.59634 4.95523 -4.70612 5.38651C-5.25064 5.59831 -1.33295 6.37851 -0.19635 6.14432ZM70.1523 5.81424C70.0843 5.33881 65.8432 5.4078 66.4003 5.73123C66.5858 5.83783 70.2 6.19537 70.1523 5.81424ZM36.3046 5.46756C35.9877 5.41045 32.3519 5.45956 32.4804 5.80545C33.8226 6.02646 38.3396 5.85331 36.3046 5.46756ZM-28.9522 5.05057C-31.8018 5.67867 -25.6595 6.00953 -26.2354 5.27518C-26.3215 5.2353 -28.8396 5.02364 -28.9522 5.05057ZM-15.8448 4.81522C-18.372 3.94972 -22.6532 4.11275 -21.5733 5.26541C-16.843 5.11063 -22.1811 4.21583 -15.8448 4.81522ZM-53.5714 4.10428C-51.7713 3.23707 -61.1248 3.68043 -61.8878 4.64334C-60.6573 4.74358 -53.7994 4.20396 -53.5714 4.10428ZM85.6093 2.93241C85.8444 2.9197 89.2845 3.29011 89.3876 3.33768C91.6302 4.27575 80.3274 3.17327 85.6093 2.93241ZM-9.66901 1.17752C-8.77069 1.03161 -7.93411 -0.580268 -3.20319 0.223422C-3.19904 0.223426 -3.19461 0.223425 -3.19049 0.223422C-1.81042 0.459533 -3.37988 0.849425 -3.12701 0.98807C-3.02405 1.04542 1.26782 1.84129 -2.30377 1.96561C-7.75122 2.16848 -2.82504 0.77666 -5.7276 0.76639C-6.09091 0.763024 -11.5645 1.66285 -11.2432 1.8533C-11.2029 1.87373 -9.56299 1.6794 -9.28912 1.75662C-8.25656 2.04637 -8.75323 2.54882 -8.60846 2.57205C-8.14279 2.62066 0.55307 1.75538 1.82123 2.51346C2.22488 2.73017 -12.0296 3.31936 -12.5694 3.2244C-12.9191 3.14748 -12.789 1.76302 -13.1524 1.62967C-13.3391 1.56041 -19.0417 2.15303 -19.7774 2.0408C-19.9927 2.00736 -20.1575 1.97003 -20.2784 1.93924C-19.4127 2.35245 -24.5559 2.41099 -24.4092 1.92655C-24.3239 1.73397 -20.7876 1.78105 -20.6524 1.81327C-20.5966 1.82639 -20.5473 1.84456 -20.502 1.85721C-21.2527 1.33437 -9.20599 1.21368 -11.8116 0.469515C-8.31503 0.0146545 -12.2968 1.61236 -9.66901 1.17752ZM87.8046 2.3162C87.2288 1.43028 95.0254 2.26687 95.6181 2.50858C97.9893 3.41738 88.4185 2.14826 87.8046 2.3162ZM2.59467 1.30838C4.4678 0.780824 3.56705 0.0431638 7.09857 0.338656C6.74542 0.481819 6.39142 0.625087 6.039 0.768344C12.0219 0.448963 18.9498 1.19673 25.8876 1.26444C27.6487 1.28312 25.626 0.374441 27.9345 0.642367C29.7839 0.857457 31.8288 1.70426 30.8212 1.87479C30.572 1.91643 26.8093 1.33854 24.9277 1.37479C19.3715 1.48279 20.771 2.2586 20.4472 2.27616C20.0875 2.29421 16.5961 1.73089 14.6933 1.741C10.2645 1.76595 8.05896 2.15737 2.59467 1.70194C2.13824 1.66517 1.65997 1.62266 1.15814 1.57498C1.76843 1.49817 2.23169 1.40696 2.59467 1.30838Z" fill="white"/>
</svg>
