<svg xmlns="http://www.w3.org/2000/svg" width="261" height="91" fill="none" viewBox="0 0 261 91"><path fill="#fff" d="M42.38 1.101c5.229 1.385 5.074.11 6.497.239.491.047 4.15 1.207 8.144 1.244-2.868.1-5.738.21-8.595.328 2.805.245 8.275.141 10.597.422 1.129.136.185.996 2.647 1.043.521.006 2.638-2.101-3.834-1.31-.501-.787 2.559-.201 3.99-.376.213-.027 1.093-1.29 2.902-.43.44.22-4.434 3.783 7.957 1.517.4-.072-.973-.596-.58-.678.274-.056 3.413.262 3.772.212.359-.056-1.155-.632-.726-.715 2.207-.423 4.987 1.729.507 1.378 1.494.315 2.992.632 4.484.953-1.556-1.6 2.381-.319 4.475-.252 13.457.475 4.506-1.028 6.842-1.404 3.792-.57.776 1.816 6.4 1.44.46-.027-4.562-1.257 2.83-.494 1.168.122 2.531.288 4.327.535a329 329 0 0 0-6.01-.38c.27.402.875.626 1.626.738 2.243.32 5.697-.214 6.096-.186 5.488.388 1.659.422 10.028.76.735.035 2.324.623 3.971.707 6.784.33-8.734-1.787-9.007-2.284-.269-.468 16.466 2.179 16.984 2.608 2.32 1.046-7.61-1.17-5.818-.06.278.17 6.705 1.234 12.646 2.585 5.931 1.344 10.662 2.323 12.414 2.78 3.159.88 4.826 2.466 5.501 1.85.122-.14.205-.384.257-.767.713 2.243 1.93.952 2.415 1.03 6.406.96 6.599.954 12.582 1.292 1.337.071 2.454.793 2.929.725.281-.042-.204-.756 1.174-.852 1.875-.119 13.416 1.431 14.291 1.854.843.429-4.922-.196-3.916.483 4.171.362 8.214.497 12.473.865 1.769.154.842.505 1.605.568.325.026 6.485.108 6.24-.06-.647-.417-19.479-1.52-14.488-1.902.956-.073 4.289 1.135 3.805-.077 7.428.657 14.93 1.313 22.616 2.094 3.853.395 7.736.814 11.892 1.356 2.01.268 4.264.577 6.681.997 1.309.228 2.643.474 4.37.875.924.218 1.99.476 3.459.944a32 32 0 0 1 3.106 1.164c1.281.6 3.886 1.632 7.337 4.72 3.121 2.666 8.732 10.04 8.007 19.82-.735 9.273-5.662 14.424-8.283 16.783-3.515 3.007-5.767 3.816-6.977 4.386a30 30 0 0 1-2.87 1.052c-.76.234-1.233.359-1.794.502-2.158.536-3.503.74-4.803.946 1.253-.295 2.573-.58 4.673-1.167a43 43 0 0 0 1.742-.533 32 32 0 0 0 2.817-1.07c1.07-.505 3.423-1.404 6.72-4.191 2.457-2.18 7.423-7.06 8.342-16.266.936-9.72-4.723-17.324-7.854-19.955-3.661-3.259-6.497-4.266-7.552-4.75a32 32 0 0 0-3.178-1.118 46 46 0 0 0-3.465-.861 93 93 0 0 0-4.608-.828 266 266 0 0 0-7.306-1.03c-4.549-.585-8.891-1.072-13.075-1.388-1.465-.114-6.213-.598-5.662.032 9.162.967 18.344.945 31.11 3.792.489.124-1.437.205.457.723.62.174 1.337.346 2.607.726.758.231 1.643.517 2.807.994 1.014.47 3.594 1.35 7.153 4.49 1.96 1.806 4.63 4.706 6.36 9.637 1.816 4.883 1.504 11.466-.287 15.762-1.746 4.45-4.135 7.044-5.93 8.736q-.172.16-.34.31c-.115.102-.22.192-.275.24a24 24 0 0 1-1.135.925c-.481.367-.93.684-1.351.964-3.56 2.232-4.517 2.364-5.752 2.888-1.266.464-1.831.635-2.555.856q-.513.154-.987.284c-.301.083-.52.144-.768.21-2.027.525-3.132.728-3.678.744-.121-.006.945-.35 1.84-.742 1.022-.415 1.926-.892 1.054-.924-4.102-.317-4.308 2.06-6.984 2.376-2.261.317-14.787.254-17.703 1.155-3.172 1.002 9.097-.256 8.282.417-8.374 1.328-16.694 1.175-24.27 1.772-.133.01 1.077.403-.612.583-2.905.309-3.753-.298-5.174-.303-1.545-.008-6.851.499-7.517.322-.077-.026.86-.756 1.025-.789 2.291-.461 3.169.328 3.396.32.817-.03 1.535-.409 2.272-.444 1.222-.058 1.898.198 3.511.112 1.115-.06-.012-.566 1.049-.614.382-.018 4.776 1.031 5.04-.364.028-.155-4.466-.03-10.251.266-2.888.15-6.095.343-9.101.588-1.471.12-2.922.255-4.143.395-.567.062-1.145.138-1.491.18-.343.034-.596.105.102-.158-3.661 1.093-7.499 2.435-8.485 2.826 3.22-.86 6.183-1.715 8.632-2.278-4.9 1.141-13.153 4.884-14.121 3.51-13.619 3.815-27.047 5.2-39.86 5.828-11.058.57-22.996.416-33.92-.567-4.127-.442-1.886-1.08-8.525-1.395 1.682.399 3.407.806 5.126 1.212-3.536-.504-18.215-2.041-20.636-1.984-.294.003-.761.665-4.425.5-3.265-.14-3.836-.674-5.554-.859-1.49-.152-3.133-.093-3.572-.14-.337-.037-.47-.349-1.295-.435-2.557-.264-.46.665-3.022-.406q.939-.023 1.852-.043a76 76 0 0 1-2.954-.31c-1.93-.25-2.955-.524-.007-.585l.177-.002c.8-.013.118.256.713.275 20.64.79 7.754-.274-.89-.299a92 92 0 0 0-2.564.025c-2.08-.498-13.753-.515-14.143-.598-.542-.126 1.451-.412-1.178-.738-.551-.078-16.197-.085-10.575-.519 1.164-.094 8.669.121 10.474.139-4.267-.913-14.226.167-15.351.111-4.537-.173 8.688-.607-1.528-.8-7.861-.14-.467.452-3.483.646-1.695.1-10.617-.55-10.356.166-3.056.036-1.28-.316-1.657-.348-.37-.026-6.385.107-8.346-.065-.237-.021.498-.365.252-.397-.478-.053-6.288-.057-6.523-.033-.148.018 1.247.339.679.403-.66.075-6.266-.09-6.57-.015-.432.12 6.479.16 5.336.473-3.188-.14-8.377-.032-10.478.163.513-.058 3.605.008 4.681.058-.497.468-7.134.273-4.874-.03-1.438.158-.45.288-1.26.449-.214.04-2.26-.013-2.658.052-.05.013 2.069.254 1.648.334-.764.146-6.99-.12-7.502-.185-1.435-.172 3.636-.128 4.057-.307.06-.028-4.245-.536-4.33-.57-.255-.349 4.544.047 3.995-.285l-3.568-.3c4.575-.175 13.043.174 15.214-.178-6.775.002-13.878-.207-13.88-1.007-.004-.337 2.913-.487 2.804-.579-.437-.318-4.482-.05-4.642-.072-.123-.02-.18-.039-.181-.056.002-.175 5.782-.217 6.07-.302.48-.147-2.101-.79-2.102-.923.1-.024 4.2-.144 2.808-.393-1.414-.247-5.012-.269-5.139-.296-.691-.14 5.603-.249 5.792-.34.1-.043-3.29-.31-3.39-.384-.075-.075 2.483-.243 3.488-.491.75-.185-1.447-.31-1.064-.341.282-.018 6.22-.063 6.513-.1.433-.054-.963-.262-.761-.32.287-.082 2.201-.024 1.954-.104-.189-.063-7.641-.723-7.603-.917.08-.334 7.967.306.613-.905-.051-.007-1.828.122-1.883.114-.663-.13 1.12-.363 1.152-.481q-3.254.072-6.556.132c-5.326.094-10.665.212-16.013.337.677.006 1.216.029 1.534.074-2.26.21-7.227.153-9.282.306-.239.018 1.085.78-2.014.33-1.171-.177 1.854-.447 5.11-.599q-3.66.087-7.321.175c-.754.14-1.297.356-1.68.7 6.5.35 14.342-.653 16.315-.701 3.018-.092-.104.219.27.276.132.018 2.726-.068 2.765-.05 1.873.813-11.58.334-15.807.607q1.707.162 3.413.317l-4.614.16c7.333.055.262.092-1.547.931-.406.19 4.4-.285-1.08.399 4.053-.04 2.766.162 6.427-.189-.094.3-8.33.976-11.581 1.276 11.506-.128 4.925-.983 14.875-.794 1.83-.439-2.9-.183-2.524-.26 1.383-.27 4.643-.062 8.55-.942.636-.141-2.075-.43 1.926-.538.44-.01 2.954.218 2.964.244-.333.254-2.855.25-2.96.356-.09.1 2.718-.054 2.728-.028.09.302-2.342.2-1.99.283.768.192 10.9.444-2.309.773 10.961-.774 1.398-.403-2.872-.098-1.088.078-1.36.28-2.91.412-1.995.17-4.336.173-5.369.253-1.11.09 5.217.28-3.922.54 4.663.263 12.86-.595 17.43-.479 9.218.195-6.4 1.044-8.028 1.2-.433.04 1.027.226.738.256-.475.05-9.347.377-10.218.648-.865.27 3.248-.178 3.53.039.191.14-10.51 1.008-4.71.8 3.997-.155 11.34-1.165 12.595-.585-5.867.382-11.739.775-17.617 1.164q4.837.13 9.668.22c-6.589.488-12.301.522-18.568 1.282 15.088-.03-4.857 1.015-5.102 1.134-.072.077 5.883.44 6.842.502-5.246.636-21.28 1.795-11.882 2.136-1.704-.099-5.815.695-5.77.735.538.396 9.525-.499 8.064-.027-1.69.554-4.084.137-6.701.358-13.448 1.11-9.724 3.216-23.309 3.655l.812.21c-8.194.394-16.427.677-24.702.8-6.642.1-13.27.112-19.916.03-5.874.863-21.489 1.16-29.133.726-1.544-.066-9.032-.89-9.599-1.015-1.035-.215 4.757.014 2.172-.42-.561-.065-13.248-1.023-12.393-.454 1.417.154 5.896.157 6.623.319 3.167.732-11.119-.13-22.477-1.057-6.795-.53-12.734-1.078-13.493-1.007q1.28.391 2.554.773a560 560 0 0 1-7.48-.959c1.037-.058 2.088-.117 3.116-.18-2.863-.372-6.79-.66-9.522-1.138-.445-.079.791-.405-.267-.551-1.047-.147-.968.511-2.529.386-1.761-.12-9.867-1.732-13.542-2.637-1.632-.374-3.362-.785-5.685-1.562-1.221-.422-2.505-.875-4.46-1.84-1.959-1.348-4.427-1.108-10.457-9.17-2.501-3.637-4.596-10.137-3.745-16.155.072-.66.179-1.306.309-1.936-2.196-4.195-4.217-11.73-2.587-18.43 1.447-6.763 4.872-11.183 7.492-13.826a29 29 0 0 1 1.565-1.46 29.4 29.4 0 0 1 5.08-3.556q.419-.233.807-.434a32.895 32.895 0 0 1 3.98-1.781 30 30 0 0 1 2.06-.699 23 23 0 0 1 1.453-.377c1.848-.396 3.41-.446 5.521-.855 11.084-1.994 19.253-2.59 28.293-3.211-5.108 2.306 4.114.496 4.497.57 2.118.362-7.347 1.212-3.592 1.255 5.247-.454 10.459-.853 15.637-1.223-4.267.02 5.565-1.966 7.394-1.424-.821-1.715 23.476.302 27.083-.408.753-.157-4.232-.802 7.32-.924 1.256-.012.795.541 1.449.462.37-.044 2.534-1.696 4.932-1.117q.17.04.34.093c.293.091-.061.28-.325.473-.221.168-.375.338.012.445.657.176 2.828.167 8.612-.22-5.344-1.6 18.525-1.467 22.81-1.01q-1.299-.338-2.602-.672c4.294.575 5.064-.028 6.029-.007 3.888.086 9.206.653 12.796.579 4.201-.085 4.226-1.19 9.1-.78q-1.732-.36-3.468-.717 5.06.066 10.089.136c-7.779 1.495 1.67.066 2.294.03.991-.057-.435.549 1.221.468.171-.013-.071-.58 2.477-.654 5.318-.155 4.472.563 6.699.543.202-.005-.504-.512 3.332-.658 12.16-.482-.051.398-.53.468-.619.095 3.577 2.221-6.813 1.51 3.489.227 3.835 1.171 4.228 1.194.351.02 6.382-.15 6.711-.187 2.956-.346.356-.975.93-1.096.474-.095 7.707.683 9.375-1.301 3.451 1.755-1.96 1.676-7.768 2.001-.843.378 5.52.676 5.858.669 3.47-.043 4.65-.331 4.997-.716.25-.277.069-.604-.008-.935a.8.8 0 0 1-.004-.407c.049-.157.174-.31.436-.455.934-.511 4.266.444 1.185-.835 7.407-.276 2.926.577 3.404.684.727.154 3.316-.28 3.648-.236.48.065-1.176.562.714.684.317.016 3.335-.846-.585-1.14 5.238-.002 4.799-.675 6.605.65 3.57-2.678 2.661 1.464 4.096 1.573 3.813.283 2.667-1.72 2.864-1.826 1.362-.67 11.97-.27 14.615-.636-1.008 1.495-8.431.253-10.062.582-5.461 1.097 7.756.519 3.815 2.471q2.493-.829 4.995-1.658c3.114 1.1-1.258 1.734 7.05 1.077 1.332-1.06-5.877.32-4.445-.525.841-.496 5.667-.728 5.758-.979.08-.302-4.27.17-3.593-.31 1.458-1.044 17.484-.489 5.32.356 2.95-.09 4.695 1.366 7.034 1.297.35-.01.713-.055 1.095-.144.711-.165-.354-.619-1.124-1.113-.66-.423-1.102-.878-.027-1.21 1.028-.315 3.442-.524 8.41-.459.357.926-6.469.401-6.643.48-.246.11 1.03 2.194 1.246 2.293.741.307 17.304-1.086 20.856-.01-.928-.802 4.883-.667 9.39-.542 2.233.061 4.14.104 4.643-.019.397-.1-1.083-.855-.659-.932 2.645-.454 9.804.924 13.137.987 3.727.07 3.258-.574 3.467-.571 1.641.05.329.473 1.332.482 1.511.007 11.956.222 12.486.144.151-.026-1.547-.782.733-.887.397-.015.136.837 6.906.582 8.162-.295-5.654-1.18-2.256-2.023m139.955 75.1c.707.016.581 1.891-2.305 1.44-.38-.058 1.257-.709.949-.793-.309-.06-5.999.311-5.753.354-.08.037-.024.22.019.39-1.141.21-2.634.542-3.694.883-3.944 1.276-4.433 1.925-4.752 2.029-1.039.328-2.941.563-5.164 1.19-11.403 3.471-28.575 5.792-37.069 5.254 7.625-.098 14.947-1.234 22.804-2.759-2.11 1.459 11.514-3.11 3.562-.297 2.016-.304 16.851-4.592 24.243-7.157-.744.272-.513.202-.258.178.308-.043.679-.093 1.164-.156.852-.106 1.859-.218 2.728-.301 1.738-.167 3.1-.26 3.518-.253zm-264.547 10.21c-2.28-.095 5.365-.724 2.749-.229-.113.021-2.657.234-2.749.23m164.7-.557c-.84-.533 5.462.207 5.744.252 1.958.438-4.06.229-5.744-.252m-350.62-2.098c.434.07 8.689 1.312 7.978 1.5-1.695.391-9.383-1.466-7.978-1.5m172.611 1.108c-.27-.013 3.645-1.023 4.755-.588.853.333-4.049.61-4.755.588m171.774-1.763c-3.507.11 7.443 1.093 8.08 1.037-.377-.282-7.77-1.053-8.08-1.037m-162.589-.375c3.432-.519 14.106.17 2.67.8l.01-.002c-2.98.16-1.144-.233-1.282-.23-6.36.096-4.665.547-5.657.691-2.13.307-1.8-.434-5.394.116 5.942-.858.529-.292.355-.54-.683-.999 7.93-.056 10.884-.506.41-.058-2.64-.16-1.586-.329m120.984-.143c1.535-.285 5.887-.04 8.38-.005.272.452-6.593-.02-8.38.005m27.113-.384c-3.656-1.011-14.654-.023-7.458.055.151 0-1.275-.5 1.554-.31.242.019.642.525 4.16.543.681.003 1.83-.262 1.744-.288m-338.108-1.332c-2.524-.67-6.493-2.166-3.997-.933 1.405.727 6.864 2.261 8.144 2.472.809-.159-1.493-.776-4.147-1.539m340.078 1.064c-.834-.158-9.519-.687-6.339-.29.307.027 6.227.51 6.34.29m-141.909-1.095c2.369.02-3.106.472-4.71.49-.09-.144 4.508-.492 4.71-.49m136.19.152c5.738.129-5.264-.839-3.827-.333.085.028 3.243.317 3.828.333m-34.333-.56c.557-.018 2.914.309 4.524.205-1.823.597-10.334-.011-4.524-.204m-45.512-.395c.455-.017 11.142.05 9.118.412-1.376.252-11.9-.261-9.118-.412m12.16.038c.584.172-.799.618-2.07.353-.543-.114.46-.375 2.07-.353m53.808-.022c-5.826-.246-14.776-.413-15.337-.354-.224.024-.374.328-.267.342.62.065 9.719.179 15.607.254 2.298.026 3.98.046 4.677.033-.688-.08-2.377-.183-4.68-.275m-30.18-.507c1.547.012.397.248 1.35.266.608.009 13.11-.094 11.318.298-1.266.26-18.417-.286-21.186-.313 2.456-.474 4.46-.062 7.773-.036.892.005.65-.216.745-.215m84.213.485c3.224-.27-6.693-.69-3.833-.168.137.032 3.672.188 3.833.168m-119.82-.281c-3.251-.397 11.328-.05 12.167.021-.957.173-11.724.04-12.167-.021m5.12-.651c3.457.178 11.067-.124 7.942.466-1.57.294-2.612-.104-2.812-.111-1.956-.077-6.009-.075-5.13-.356m78.83.142c-1.412-.033-5.269-.448-5.462-.174 1.392.013 5.238.445 5.462.174m-48.722-2.443c15.55.178-10.307-1.147.597.577-8.964-.65-2.925.192-4.3.398-1.47.216-6.541-.057-6.272.342h.007q4.647-.01 9.287-.017c-3.054-.907 3.278-.614 5.439.154q1.313-.266 2.625-.535c1.483 1.166 2.005-.664 4.882.33 3.765-1.37-10.493-.11-12.265-1.25M2.73 77.99c-2.603-.352-7.933-.013-6.551.112.61.055 6.091.146 6.551-.112m-12.62-.597c-3.047.292-16.973-.019-17.698.019-.56.034 3.676.601-2.957.216h-.008c4.859.863 11.392.027 12.112.042.713.028-.393.377-.233.388.372.027 7.983.071 8.35.046.261-.02-1.129-.553.434-.71m185.149.255c.027.12.039.228-.021.262a.5.5 0 0 1-.266 0c-.063-.032-.141-.052.287-.262m-234.792.227c.847-.262 10.384-.92 10.15-.664-.206.219-8.652.572-10.15.664m42.891-.078c-1.907-.23 3.424-.214 4.715-.125 2.87.203-4.468.154-4.715.125m44.59-.192c3.13.399 1.629-.774-.678-.494-.133.016.534.475.678.494m147.311.043-.014-.056q.108-.023.212-.041c-.076.035-.141.07-.198.097m-217.69-1.516c.266.014-.384.699-2.242.71-5.821.034-1.602-.636-13.765.691 5.107-.745.278-.342 1.27-.581.799-.188 3.804-.232 2.053-.424 2.3.185 12.246-.428 12.696-.397zm33.39-.171c-1.946.42-10.281.416-15.1.463 4.24.183 11.122.499 15.301.624 1.193.036 2.344-.147 3.36-.124 1.626.038.2.305.303.316l.009.001c2.135.16 4.86-.45.31-.52q2.393-.136 4.783-.279c-5.964-.337-5.503.5-7.215.461-2.391-.055-2.225-.728-1.751-.942m61.667.392c-.101.013.745.389.85.405 4.318.629 1.547-.532-.85-.405m-71.42.426c-2.429-.014-6.186-.182-7.503.086 2.431.022 6.187.199 7.503-.086m28.814-.252c-.9-.114-10.462.02-6.598.27.312.02 7.036-.092 6.598-.27m27.6-.7c-.714-.013-.919.56-.762.61 1.486.43 3.16-.559.761-.61m-13.455.155c2.267.349 2.784-.643.189-.353-.101.011-.271.333-.189.353m-31.531-1.261c-1.503-.205-6.62.367-7.667.497 7.681-.241 4.802.345 6.178.533 2.92.403 1.854-.978 1.489-1.03m34.705.462c-1.58.041-5.858-.199-6.465.056 1.45.052 5.746.194 6.465-.056m-74.05-.544c.115.127-3.472.321-3.781.315-2.02-.054 2.447-.34 3.781-.315m51.234.19c2.689-.179-4.205-.414-5.508-.005 1.339-.03 4.744.055 5.508.005m207.204-.323c4.3-1.002-14.129-.195-9.211.318.336.04 8.811-.226 9.211-.318m-271.762-.043c2.021.064-2.45.352-3.784.322-.13-.142 3.471-.332 3.784-.322m49.595-.05c2.208.55 4.129-.7.768-.414-.16.013-.858.386-.768.414m207.8-.599c-.416-.03-5.441.325-5.507.68 1.529.013 8.103-.487 5.507-.68m-248.33.523c-2.62-.115 3.956-.57 4.67-.288.122.05-4.17.307-4.67.288m271.51-1.724c2.075-.574-4.723-.537-2.793 0 .081.023 2.683.032 2.793 0m-476.449-4.209c.522.326.942.553 1.295.737q.139-.214.288-.453.05-.06.097-.124a38 38 0 0 0-1.68-.16m480.517-.417c1.114.587 1.772.749 2.106.936l.167.063.146-.017c.423-.053.852-.093.961-.171.107-.078.092-.174-.594-.341a22 22 0 0 0-1.079-.233c.087.04.144.078.193.148.181.138.026.132-.514-.068-.131-.07-.298-.134-.515-.22-.348-.05-.642-.082-.871-.097M106.873 49.735q-.528.023-.758.184-.23.184-.414.643a1.2 1.2 0 0 0 0 .92q.184.459.965 1.377 1.218 1.54 1.011 6.227-.115 1.86-.551 3.193-.414 1.332-1.379 2.757-.965 1.424-1.079 2.021-.115.597.344 1.034.46.413 1.057.253.597-.162 1.171-.965.597-.804 1.402-2.367.804-1.56 1.126-2.641.528-1.746.413-5.238t-.758-4.733q-.368-.712-1.31-1.7-.942-.987-1.24-.965M223.426 67.3c.389.247.742.451 1.058.622q.33.006.624.006c-.313-.135-.704-.319-1.192-.602zm1.158.064c.427.264.755.438 1.008.559.999-.025 1.407-.14.394-.422-.018-.031-.588-.084-1.402-.137M66.764 49.781a1.12 1.12 0 0 0-.989 0q-.666.3-1.768 3.791t-1.38 5.766q-.275 2.274-.137 3.262t.69 2.16q1.425 2.871 2.848 1.837.368-.275.39-.895.025-.62-.32-1.01-1.218-1.402-1.08-4.067t1.7-7.19q.827-2.39.69-2.896a1.1 1.1 0 0 0-.644-.758m-20.119-.046q-2.572-.046-3.813.138-1.24.184-1.838.781t-.781 2.045q-.092.597-.024.895.07.277.437.644.414.367.873.367t.873-.505.414-1.01q.022-.53.184-.62.16-.116.735-.116a26 26 0 0 0 1.424-.046q.826-.045 1.24-.045.414-.024.988.068.025.252-.62 1.723-.644 1.47-.69 1.7t-.32.344q-.276.093-1.38.253-1.102.161-1.654.483-.55.298-.55.942t.32.92 1.08.366l.988.116-.941 2.573q-.758 1.998-.758 2.687 0 .69.642 1.011.667.368 1.15-.046t.987-1.723l.85-2.251q.78-2.091 1.012-2.459.252-.366.642-.413a2 2 0 0 1 .322-.069q.277-.045 1.608-.161 1.333-.115 1.678-.252.366-.138.596-.437.345-.506.115-1.057t-.643-.689q-.414-.16-1.654-.16h-1.309l.574-1.264q.873-1.93 1.011-2.527t-.161-1.195q-.3-.598-.666-.781-.368-.207-2.94-.23m50.747 0q-2.573-.046-3.813.138t-1.838.781-.781 2.045q-.091.597-.023.895.07.276.437.644.414.367.873.367t.873-.505q.413-.506.413-1.01.023-.528.184-.62.16-.116.735-.116.598 0 1.425-.046.827-.045 1.24-.045.414-.024.988.068.023.252-.62 1.723-.644 1.47-.69 1.7t-.321.344q-.276.093-1.378.253-1.104.161-1.655.483-.55.298-.551.942 0 .643.322.92.321.275 1.079.366l.988.116-.941 2.573q-.758 1.998-.759 2.687 0 .69.644 1.011.666.368 1.148-.046.483-.414.988-1.723l.85-2.251q.781-2.09 1.01-2.459.255-.367.644-.413.046-.022.322-.069.275-.045 1.608-.161 1.332-.115 1.677-.252.368-.138.597-.437.345-.506.116-1.057-.23-.55-.644-.689-.414-.16-1.654-.16h-1.31l.574-1.264q.873-1.929 1.011-2.527a1.73 1.73 0 0 0-.16-1.195q-.299-.598-.667-.781-.369-.207-2.94-.23M86.9 51.32q-1.355-2.113-4.043-1.355-.827.23-1.562.873-.712.643-1.126 1.379-.413.735-.413 1.447t.506 1.033q1.147.781 2.044-.965.39-.827.758-1.102t1.034-.253q.941 0 .643 1.31-.161.596-.436.872-.276.276-.943.529-1.608.506-1.607 1.447 0 1.034 1.63 1.425a7.1 7.1 0 0 1 2.022.781q.965.551 1.332 1.057l.46.62-.482.597q-.666.92-2.275.712-1.608-.206-2.665-1.332-.78-.826-1.424-.873-.642-.046-1.01.735-.231.436-.185.667.046.23.437.85 1.147 1.7 3.63 2.297 1.838.459 2.894.276 1.057-.184 2.068-1.103 1.677-1.609 1.263-3.538-.413-1.93-2.78-3.309-.16-.091-.16-.23 0-.136.322-.597.322-.459.39-1.677.07-1.217.023-1.676a1.9 1.9 0 0 0-.345-.897m96.425 0q-1.355-2.113-4.043-1.355-.827.23-1.562.873a5.5 5.5 0 0 0-1.125 1.379q-.414.735-.414 1.447t.505 1.033q1.15.781 2.045-.965.391-.826.758-1.102.368-.276 1.033-.253.942 0 .644 1.31-.16.597-.437.872-.275.276-.941.529-1.608.506-1.608 1.447 0 1.034 1.63 1.425a7.1 7.1 0 0 1 2.022.781q.965.552 1.333 1.057l.459.62-.482.597q-.667.92-2.275.712-1.608-.206-2.665-1.332-.781-.827-1.424-.873t-1.01.735q-.23.436-.184.667.046.23.436.85 1.149 1.7 3.63 2.297 1.838.459 2.895.276 1.057-.184 2.067-1.103 1.677-1.609 1.264-3.538-.414-1.93-2.78-3.309-.16-.091-.161-.23 0-.136.322-.597.321-.459.39-1.677.068-1.217.023-1.676a1.9 1.9 0 0 0-.345-.897m-46.096-.941q-.551 0-2.619 1.838-1.837 1.561-2.274 2.182-.436.62-.023 1.263.414.644.919.644t1.424-.69q.92-.689 1.012-.688.091 0-.024.482-.114.483-.115 5.605l-1.952.206q-1.31.139-1.678.277-.366.138-.596.505-.23.413-.23.597t.298.598l.414.62q.436-.023 1.723-.07 1.286-.045 2.113-.091t1.815-.022a9.6 9.6 0 0 1 1.747.183q.757.16 1.079.138.322-.023.621-.299.757-.689.298-1.378-.46-.69-1.791-.988-1.325-.297-1.356-.322-.092-.068.16-4.434.23-4.365.368-4.778t-.322-.896q-.459-.482-1.011-.482m30.59-.69q-1.424-.436-2.757.276-.78.413-1.837 1.792t-1.057 1.907.391.85.849.322q.46 0 .781-.253.345-.254.919-1.034.828-1.035 1.356-1.24.528-.23 1.033.183.506.414.827 1.034.322.62.322 1.08 0 .458-3.125 3.675-3.123 3.194-3.124 3.653 0 .437.437.804t1.172.46q.736.092 3.721.206 2.987.115 4.043.345t1.378.207.69-.345q.368-.32.368-.85 0-.528-.414-.896-.414-.367-2.091-.69a17 17 0 0 0-3.285-.32h-1.906q3.377-3.379 4.089-4.342 1.47-2.16-.414-4.962-.94-1.425-2.366-1.862m46.408 1.103q-1.563-1.24-3.929-.505-.988.322-1.952 1.24a6.6 6.6 0 0 0-1.494 2.091q-1.078 2.228-.528 5.237.552 3.011 2.32 4.297.667.505 1.769.55 1.102.047 1.906-.344 2.229-1.125 3.24-3.377 1.01-2.25.621-5.1-.392-2.848-1.953-4.09M75.18 50.723q-1.264-.758-2.504-.528-1.241.23-2.137.896a5.1 5.1 0 0 0-1.401 1.539q-.322.597-.322 1.723 0 1.125.322 1.907.321.78 1.08 1.47.758.69 1.47.804.345.115 1.4-.068 1.058-.184 1.242-.162.09.095-.185 1.93-.322 1.838-.091 2.573.23.735 1.217.735.574.023.85-.437.276-.459.46-1.699.138-1.24.69-3.86.55-2.618.504-3.492-.046-.872-.688-1.102-.483-.138-.483-.667 0-.528-.252-.804-.254-.275-1.172-.758m74.221-.689q-1.401-.321-2.825.321-1.907.85-3.01 3.377a9.97 9.97 0 0 0-.757 5.308q.137 1.033.803 2.136t1.471 1.54q1.263.735 3.193.505t3.194-1.264q1.814-1.493 1.401-3.584-.414-2.09-2.711-3.1-.666-.3-1.126-.369-.46-.07-1.516.07-1.057.137-1.287.229-.229.091-.321.07-.367-.024.275-1.08.643-1.057 1.356-1.426.712-.367 1.126-.252.412.116.78.758.368.643.966.666.575-.023.987-.345.414-.321.414-.827 0-.505-.436-1.286-.575-1.125-1.977-1.447m-20.409-.07q-.483-.48-4.433.092-1.102.185-1.677.277a5 5 0 0 0-1.126.321q-.552.23-.781.414-.23.184-.414.689a4 4 0 0 0-.23.988q-.046.483-.138 1.723-.091 1.24-.046 1.584.047.345.369.667.321.322.78.368.46.045 2.022.023 1.562-.046 2.435.23.895.275 1.218.964.183.345.069.575-.138.23-.873.873t-1.31.781q-.574.184-1.654-.046t-1.585 0-.574.873q-.093.643.298 1.057.39.413 1.792.688 1.4.276 2.32 0 .942-.298 2.458-1.515 1.517-1.218 1.7-2 .345-1.354-.39-2.595-.735-1.24-2.367-1.976-.872-.46-1.378-.551-.504-.092-1.355-.023l-1.333.069q0-1.402.185-1.54.253-.09 2.779-.436 2.528-.345 2.78-.505.436-.185.574-.368.138-.184.138-.804 0-.644-.253-.896m75.068 0q-.483-.48-4.434.092-1.103.185-1.678.277a5 5 0 0 0-1.125.321q-.551.23-.781.414t-.414.689a4 4 0 0 0-.23.988q-.045.483-.137 1.723t-.046 1.584.367.667.781.368q.459.045 2.022.023 1.562-.046 2.435.23.896.275 1.218.964.183.345.068.575-.138.23-.873.873t-1.309.781q-.502.16-1.392.005l-.523-.102q-.883-.15-1.324.051-.506.23-.575.873-.091.643.299 1.057t1.792.688q1.401.276 2.32 0 .942-.298 2.458-1.515 1.516-1.218 1.701-2 .344-1.354-.391-2.595-.735-1.24-2.366-1.976-.873-.46-1.378-.551t-1.356-.023l-1.333.069q0-1.4.184-1.54.253-.09 2.78-.436 2.525-.345 2.78-.505.435-.185.574-.368.138-.184.138-.804 0-.644-.252-.896M32.952 51.712a3 3 0 0 0-.414.07.55.55 0 0 0-.275.206 1.5 1.5 0 0 1-.184.23q-.045.091-.092.344-.046.254-.046.39-.046.139-.069.506v2.045h-1.126q-1.332-.023-1.837.712-.506.735.298 1.516.459.46 1.632.46h1.217l.091 1.47q.092 1.47.506 1.769.782.573 1.585 0a.87.87 0 0 0 .345-.529q.07-.321.023-1.194l-.046-1.402 1.677.046q1.356.069 1.952-.207.598-.275.598-1.01t-.505-1.011q-.506-.276-1.976-.39l-1.86-.116-.116-1.745q-.092-1.425-.321-1.792-.23-.368-1.057-.368m-295.547 9.231q-.084.043-.165.083l-.306.149q-.045.02-.088.04l.038.06a2 2 0 0 1 .408-.049q.363-.004.643 0 .229-.112.486-.254l-.778-.15c-.082.043-.174.09-.238.121m473.628-8.151q1.034-.46 1.769.321.942 1.034.942 3.423t-1.654 3.837q-.92.804-1.585.69-.666-.116-1.195-1.127-.505-1.08-.551-2.665t.46-2.55q.78-1.47 1.814-1.93m-62.872 4.756q.92 0 1.379.321.78.643.826 1.24t-.758 1.057a3.5 3.5 0 0 1-1.768.46q-.965 0-1.241-.138t-.666-.552q-.781-.942-.505-1.746.07 0 .941-.321a5.1 5.1 0 0 1 1.792-.321m10.289-.828q-1.424-.09-2.434.046-1.011.184-1.356.46-.345.275-.345.918 0 .644.69.897.735.252 2.572.252t2.527-.252.69-.965-.46-.988-1.884-.368m33.025 0q-1.424-.09-2.435.046-1.011.184-1.355.46-.345.275-.345.918 0 .644.688.897.735.252 2.574.252 1.837 0 2.527-.252.689-.253.689-.965 0-.713-.46-.988-.46-.276-1.883-.368M73.181 52.768q.275 0 .713.185.436.184.85.367.412.184.46.275.045.094 0 .231a6 6 0 0 1-.277.367q-.184.23-.575.62-1.08 1.08-1.86 1.126t-1.08-.965q-.207-.642.07-1.195.275-.55.849-.78t.85-.23m34.085-26.116q-.965-.045-1.378.046-.414.092-.873.414-1.701 1.15-2.39 3.79-.253.988-.275 1.425-.024.436.161 1.126.551 2.021 2.434 3.124 1.103.69 2.137.643 1.034-.045 2.228-.78.3-.23.621-.46.321-.231.551-.437.23-.207.276-.322.206-.481 0-.987a1.34 1.34 0 0 0-.712-.735q-.39-.138-.666-.07-.277.07-1.195.644-.919.574-1.241.574-.321 0-1.148-.69-.46-.458-.62-.735-.16-.274-.161-.78.022-1.24.781-2.344.758-1.102 1.424-.85.368.115 1.01.805.644.688.989.757.344.07.873-.32.482-.3.482-.896 0-.598-.528-1.38-.528-.78-1.172-1.148t-1.608-.414m32.957 0q-.965-.045-1.378.046-.414.092-.873.414-1.701 1.15-2.39 3.79-.252.988-.275 1.425-.024.436.161 1.126.551 2.022 2.434 3.124 1.103.69 2.137.643 1.033-.045 2.229-.78.298-.23.62-.46.321-.231.551-.437.23-.207.276-.322.206-.481 0-.987a1.34 1.34 0 0 0-.712-.735q-.39-.138-.666-.07-.276.07-1.195.644t-1.241.574q-.321 0-1.148-.69-.46-.458-.621-.735-.16-.274-.16-.78.022-1.24.781-2.344.758-1.102 1.424-.85.368.115 1.01.805.644.688.989.757.344.07.873-.32.482-.3.482-.896 0-.598-.528-1.38-.528-.78-1.172-1.148t-1.608-.414m-21.753-.734q-2.252-.093-3.401 0l-1.516.183q-.368.046-.597.16-.23.116-.506.437t-.207.827q.092.483.552.827.345.322 1.746.162l1.355-.138.184 1.264q.16 1.24.046 3.307-.115 2.068-.069 2.527.045.46.344.758.874.873 1.77-.022.367-.367.436-1.38.069-1.01 0-4.387l-.046-2.09.666.137q1.906.368 2.734-.022.827-.391.574-1.517-.16-.551-.987-.735-.828-.207-3.078-.298m-46.543-3.722q-.62.046-1.08.482-.988 1.057-2.895 6.892-.895 2.78-1.332 3.951-.459 1.172-.367 1.655.092.482.78.803.69.323 1.218-.252.529-.575 1.15-2.343l.711-1.976 4.847-.138 1.103 1.976q.713 1.24 1.034 1.608.345.345.85.437.505.091.942-.322t.322-.988q-.045-.183-.644-1.355a178 178 0 0 0-1.47-2.757q-.873-1.609-1.723-3.17a290 290 0 0 0-1.585-2.734q-.69-1.171-.85-1.356-.39-.46-1.011-.413m-335.38 13.788c-.173-.04-.13-.001.003.065l.151-.017q-.094-.03-.154-.048m409.802-10.48q-.276 0-.597.23-.323.23-.368.367a6 6 0 0 0-.138.62q-.092.483-.046 1.31.023.827.046 3.722.047 2.894.322 3.262.276.321 1.125.276.85-.047 1.356-.414t1.287-1.332q.78-.964.965-1.195.207-.23.367-.414l.506-.505q.069-.069.092-.046.137.091.229 1.7t.391 2.136q.299.53.987.529.689 0 .988-.413.368-.414.299-1.242l-.322-4.134q-.046-1.195-.23-1.792a1.5 1.5 0 0 0-.712-.896q-1.08-.551-3.354 2.022l-1.424 1.63-.299-2.32q-.183-1.424-.321-1.953a1.65 1.65 0 0 0-.506-.826q-.368-.322-.643-.322m-64.636 0q-.459 0-.69.275-.229.253-.297.69-.07.413-.092 1.287a105 105 0 0 0-.024 2.55q0 1.676.046 2.458.023.78.161 1.355.162.575.368.666t.803.092.897-.437q.298-.436.298-1.493v-1.218l1.838.139q1.77.114 1.976.23.207.114.068.803-.136.69.23 1.218.368.528.966.528.62 0 .895-.299.276-.321.368-1.126.093-.804.115-2.55v-1.7q0-.505-.069-.895-.07-.414-.16-.552a2.7 2.7 0 0 0-.322-.367q-.759-.78-1.47-.275-.713.504-.575 1.699l.115.942-1.838-.137q-1.81-.161-1.883-.207-.07-.093-.231-1.24-.16-1.15-.321-1.61-.162-.458-.437-.643-.276-.183-.735-.183m81.136-.827q-1.379-.344-2.917-.069a6.6 6.6 0 0 0-1.402.39 6.2 6.2 0 0 0-1.287.598q-.597.367-.873.666a3.6 3.6 0 0 0-.391.483 2.7 2.7 0 0 0-.343.872 8 8 0 0 0-.093.69 4.6 4.6 0 0 0-.023.78q.047.346.162.553a11 11 0 0 0 .78.918q.183.184.368.322.184.137.367.23.16.09.437.229.276.138.368.23.068.116-.115.367-.185.253-.69.253-.505.023-.987.437-.483.414-.483.781t.459.827q.46.46.712.551.254.092 1.08-.068.828-.139 1.723-.943l2.826-2.297.07 1.171q.069 1.333.688 1.816.643.482 1.471-.138l.161-.161q.069-.069.138-.276.069-.206.091-.436.023-.23.069-.735.046-.506.023-1.057 0-.552.023-2.344.023-1.79-.023-2.48-.045-.69-.321-1.034-.69-.782-2.068-1.126m-67.234.827q-1.241-.046-2.022.368-.78.413-1.24.758a3.1 3.1 0 0 0-.712.78q-.254.438-.46 1.219a4.9 4.9 0 0 0-.138 1.653 3.9 3.9 0 0 0 .482 1.654q.414.735 1.034 1.287.62.55 1.402.758.78.207 1.608-.023.826-.23 1.654-.896l.78-.69.23.644q.39 1.035.965 1.286.552.276 1.241-.275l.529-.414-.506-2.458q-.437-2.481-.299-2.94t-.505-1.057q-.597-.598-1.7-1.102a6.1 6.1 0 0 0-2.343-.552m32.956 0q-1.24-.046-2.021.368a9.6 9.6 0 0 0-1.24.758q-.437.345-.712.78-.254.438-.46 1.219-.207.78-.138 1.653a3.94 3.94 0 0 0 .482 1.654q.414.735 1.035 1.287.62.55 1.401.758a3 3 0 0 0 1.607-.023q.828-.23 1.655-.896l.781-.69.229.644q.391 1.035.965 1.286.552.276 1.241-.275l.529-.414-.506-2.458q-.437-2.481-.299-2.94t-.505-1.057q-.597-.598-1.7-1.102a6.1 6.1 0 0 0-2.344-.552m-33.186 2.481q.321-.045 1.01.207.69.253.713.367 0 .115-.667 1.332-.78 1.334-1.424 1.563-.666.23-1.126-.666-.803-1.447.506-2.32.666-.437.988-.483m32.957 0q.321-.045 1.01.207.69.253.712.367 0 .115-.666 1.332-.78 1.334-1.423 1.563-.667.23-1.126-.666-.804-1.447.505-2.32.666-.437.988-.483m97.024 1.433c-1.442-.069-1.644.661-1.998.726-.108.029-1.489.13-2.718.251-.156.138-.339.3-.526.476.49.02 1.126.04 1.933.054.496.016 5.47-1.42 3.309-1.507m-5.838 1.104-.055.051q-.12.117-.246.244.123.012.28.02.193-.19.373-.358zm-58.769-3.41q1.01-.114 1.745.092.367.16.345.735a.75.75 0 0 1-.069.413.85.85 0 0 1-.299.323q-.206.137-.919.505-.711.368-1.194.368-.482 0-1.447-.46-.965-.437-.965-.644 0-.39.896-.804a6.2 6.2 0 0 1 1.907-.528m-88.005.161q.758 1.356.758 1.448-.006.045-1.24.091-1.217.046-1.218-.183 0-.23.46-1.471l.482-1.264zm151.046.294c-.209.06-.452.12-.716.176q-.242.151-.505.327.377-.09.678-.179.285-.175.543-.324m-479.83-.451c-.172.11-.416.269-.716.477.347-.082.652-.16.89-.235l-.166-.247zm4.038-1.218a5 5 0 0 0-.516.121q.088.157.178.32.114-.026.218-.054.176-.048.284-.083zm-2.341.242.074.12q.17-.088.368-.183l-.078-.118q-.168.08-.364.181m481.996-.49c-.078.023-.242.048-.653.188.458-.107.887-.229.653-.188m-488.82-.75q.314.284.651.621c1.093.125 1.769.108 1.368-.19-.195-.12-1.037-.277-2.019-.432m8.32.562.071.12.22-.092.253-.108-.058-.096c-.118.04-.272.091-.486.176m-13.046-2.053c.021.13-.269.28-.511.419-.255.135-.418.272-.372.327-.241.161 2.605.81 4.914 1.179a17 17 0 0 0-.789-.655c-1.201-.173-2.25-.316-2.269-.357-.145-.071.17-.186.227-.342.07-.155-.211-.358-1.2-.571m498.198-2.612c.451-.308 4.629.458 9.757 1.963-.606-.002-3.45-.76-5.242-1.12-1.925-.412-3.624-.742-4.515-.843m-498 .987c-.105.04-.14.117-.112.212.105.031.236.073.398.135a9 9 0 0 1 1.12.527l.092.053c-.24-.34-1.041-1.086-1.498-.927m4.159-2.854c.616.103.853.35.813.55q.2.139.431.307.183.135.389.293l.223.173q.155.12.318.253.215.176.449.378c.271.056.511.101.709.131-.945-.821-1.644-1.26-1.975-1.518a29 29 0 0 0-.969-.615l-1.046-.386c.17.11.385.254.658.434m464.586.96c.217-.62-6.327-.734-3.78-.022.632.177 3.7.228 3.78.022m-463.645-2.224a35 35 0 0 1 .968.654q.44.066.843.117c-.762-.56-.987-.574-1.257-.79l-.067-.035zm428.16-.643c-1.254-.17-2.251.779-2.119.841 1.302.581 3.319-.335 2.119-.84m-9.765-.051c-1.657.063 1.084 1.402 3.254.62-1.08-.023-3.092-.626-3.254-.62m-.877.1c-2.659-1.086-2.592.33-.64.555.726.08.721-.521.64-.556m46.543-.732c1.342-.5 5.164.111 7.617.326-1.135.414-5.563-.158-7.617-.326m-17.378-1.78c.15-.012 3.472.29 3.629.33 2.705.798-6.715-.052-3.629-.33m-17.527-.203c-.436-.854 5.227.245 7.222.294.419.85-5.25-.22-7.222-.294m-28.91-.51c-1.437-.23-5.565-1.385-6.468-1.162 2.172.401 6.822 2.083 6.468 1.162m18.718-.68c.317-.326 3.867.19 5.139.215-.875.444-3.447.028-5.139-.214M134.483 8.51c.073-.538.006-.38 1.616-.048 11.917 2.542 14.73 3.086 14.245 3.321-1.023.099-5.321-.365-15.861-3.273m-395.938.471c-.205-.016-4.932.507-5.168.576-2.484.585.076.37 2.517.102 2.405-.268 4.767-.62 2.651-.678m13.815-1.537c-1.062.106-5.767.292-5.806.519-.073.35 5.297.12 5.806-.519m205.878-2.993c-2.997.191-6.09 2.55-2.377 2.097.395-.05 2.728-1.79 2.377-2.097M-.196 6.144c2.575-.539-3.4-1.189-4.51-.757-.545.211 3.373.992 4.51.757m70.348-.33c-.068-.475-4.309-.406-3.752-.083.186.107 3.8.464 3.752.083m-33.847-.346c-.317-.058-3.953-.008-3.825.337 1.343.221 5.86.048 3.825-.337m-65.257-.417c-2.85.628 3.293.959 2.717.224-.087-.04-2.605-.251-2.717-.224m13.107-.236c-2.527-.865-6.808-.702-5.728.45 4.73-.154-.608-1.05 5.728-.45m-37.726-.71c1.8-.868-7.554-.425-8.317.538 1.23.1 8.089-.439 8.317-.539m139.18-1.173c.235-.012 3.675.358 3.779.406 2.242.938-9.06-.165-3.779-.406M-9.669 1.178c.898-.146 1.735-1.758 6.466-.955h.013c1.38.237-.19.626.063.765.103.057 4.395.853.823.978-5.447.202-.521-1.19-3.424-1.2-.363-.003-5.837.897-5.515 1.087.04.02 1.68-.174 1.954-.096 1.032.29.536.792.68.815.466.049 9.162-.817 10.43-.059.404.217-13.85.806-14.39.711-.35-.077-.22-1.461-.583-1.594-.187-.07-5.89.523-6.625.41a5 5 0 0 1-.501-.1c.865.412-4.278.471-4.131-.013.085-.193 3.621-.146 3.757-.114.055.013.105.032.15.044-.75-.523 11.296-.643 8.69-1.387 3.497-.455-.485 1.142 2.143.708m97.474 1.138c-.576-.886 7.22-.05 7.813.193 2.371.908-7.2-.36-7.813-.193M2.595 1.308C4.468.781 3.567.043 7.099.338l-1.06.43c5.983-.319 12.91.429 19.849.496 1.76.02-.262-.89 2.046-.622 1.85.215 3.895 1.062 2.887 1.233-.249.041-4.012-.536-5.893-.5-5.556.108-4.157.884-4.48.901-.36.018-3.852-.545-5.755-.535-4.428.025-6.634.416-12.098-.04q-.685-.054-1.437-.126c.61-.077 1.074-.168 1.437-.267"/></svg>