<svg width="330" height="95" viewBox="0 0 330 95" fill="none" xmlns="http://www.w3.org/2000/svg">
<path fill-rule="evenodd" clip-rule="evenodd" d="M172.955 19.5142C192.523 18.7227 212.421 16.9186 231.751 17.8862C251.089 18.8542 265.422 21.8862 277.841 24.7643C289.925 27.5649 301.506 30.7642 302.681 34.3249C303.837 37.8257 284.516 40.6638 284.248 44.1706C283.945 48.1444 308.689 51.8338 301.061 55.5551C293.917 59.0402 268.676 60.1153 249.265 61.2361C232.051 62.23 213.653 61.2201 195.745 61.636C179.352 62.0167 164.416 63.5539 147.893 63.5905C129.507 63.6313 109.373 63.7496 94.1603 61.8613C78.9508 59.9734 76.5444 56.0637 65.5503 53.3699C53.1035 50.32 26.9673 48.6636 24.8486 44.8781C22.728 41.0888 49.964 38.724 55.2928 35.0417C61.0243 31.0811 40.9112 25.8001 56.6714 22.8879C72.8215 19.9037 102.025 22.874 124.703 22.2161C141.5 21.7287 156.349 20.1858 172.955 19.5142Z" fill="white"/>
<path d="M221.223 35.0392C221.587 35.0361 223.037 35.3237 223.661 35.3864C222.951 35.7718 219.918 35.0446 221.223 35.0392ZM295.945 5.29608C295.254 5.30876 294.575 5.32841 293.9 5.35233C295.66 5.81647 298.171 6.26447 299.97 6.90296C300.262 7.00707 299.339 7.24786 300.041 7.45611C300.741 7.66737 300.808 7.01599 301.9 7.25485C303.067 7.49136 308.804 9.7042 312.701 12.0879C314.063 12.8999 315.599 13.8467 317.699 15.7037C319.693 17.6149 322.76 20.2775 325.161 26.9029C327.586 33.2496 326.034 42.0502 323.711 46.0102C322.557 48.2558 321.44 49.7317 320.472 50.8984C319.453 52.1084 318.606 52.9288 317.87 53.6011C314.872 56.2414 313.292 57.032 311.908 57.8679C309.247 59.3664 307.668 60.0434 306.182 60.7128C303.311 61.9723 301.168 62.7836 299.448 63.4096C304.242 60.8719 298.737 62.5495 298.072 63.1448C297.989 63.2143 298.017 63.5637 297.799 64.0064C297.707 64.2202 297.515 64.4806 297.604 64.5818C297.669 64.6189 297.79 64.6384 298.38 64.358C298.705 64.1948 299.115 63.9879 299.941 63.4228C300.738 62.8175 301.925 62.1587 304.294 59.3258C306.375 56.858 309.124 51.7692 309.456 46.0949C309.719 42.4199 309.093 39.2951 308.369 37.0632C307.689 34.9888 306.929 33.5448 306.274 32.449C304.873 30.1922 304.227 29.6669 303.563 28.9826C302.294 27.7947 301.771 27.6085 300.938 27.0605C299.373 25.9832 296.765 24.8111 297.999 24.7628C298.74 23.9305 297.017 23.0884 300.694 24.1968C301.108 24.3391 305.69 25.6994 310.096 27.4553C311.642 28.2441 313.714 27.6353 319.748 32.3857C321.684 34.3071 324.856 36.3045 328.117 44.8889C329.676 49.0632 330.312 56.5028 328.301 62.3622C326.158 68.8268 323.13 72.1086 320.547 74.6399C316.835 78.023 314.802 78.9242 312.95 79.9265C305.779 83.32 303.2 83.539 299.92 84.4111C296.849 85.1122 294.16 85.5742 291.552 85.9483C294.647 83.503 288.847 85.5753 288.633 85.4978C287.253 85.1932 293.208 84.0999 290.804 84.1575C287.487 84.7518 284.328 85.2404 281.228 85.6864C283.798 85.6041 277.979 87.7313 276.878 87.2082C277.403 88.925 263.05 87.1419 261.056 87.8638C260.631 88.0255 263.521 88.6381 256.893 88.8363C256.182 88.8555 256.42 88.2998 256.048 88.3825C255.825 88.4313 254.571 90.2452 253.093 89.4365C252.624 89.1777 255.042 88.0733 250.841 88.5216C250.142 88.5921 249.279 88.694 248.233 88.8288C251.569 90.375 236.886 90.4936 234.414 90.0346C234.932 90.255 235.454 90.4741 235.976 90.6919C233.4 90.1422 232.955 90.7466 232.38 90.7311C230.069 90.6643 226.949 90.1165 224.863 90.2005C222.424 90.2975 222.402 91.4027 219.603 91.0037C220.264 91.2408 220.927 91.4773 221.594 91.7129C219.648 91.6782 217.724 91.6387 215.821 91.5986C220.259 90.0876 214.862 91.5374 214.52 91.573C213.96 91.6321 214.769 91.0223 213.833 91.1064C213.737 91.1197 213.869 91.685 212.435 91.7638C209.45 91.9277 209.933 91.2089 208.691 91.232C208.58 91.2375 208.967 91.7429 206.844 91.8951C200.158 92.3959 206.864 91.4975 207.137 91.4269C207.486 91.3307 205.135 89.2109 210.934 89.9058C208.981 89.6849 208.795 88.7404 208.575 88.7192C208.376 88.7005 205.034 88.8789 204.857 88.9164C203.231 89.2659 204.664 89.891 204.347 90.0126C204.084 90.1084 200.123 89.3419 199.253 91.3282C197.374 89.5781 200.277 89.6497 203.463 89.3159C203.923 88.936 200.436 88.647 200.26 88.6552C195.823 88.7774 198.31 90.1985 197.364 91.1758C197.163 91.3857 196.745 91.3504 196.435 91.3231C196.038 91.2884 195.817 91.2657 196.445 91.7761C196.529 91.8449 196.629 91.9234 196.746 92.0128C196.643 92.0201 196.545 92.0266 196.451 92.0324C192.921 92.2582 195.166 91.4367 194.916 91.3342C194.524 91.1807 193.142 91.6218 192.964 91.5792C192.704 91.5152 193.584 91.0139 192.563 90.8961C192.393 90.8797 190.784 91.7495 192.906 92.0335C190.084 92.049 190.335 92.7219 189.313 91.4029C187.454 94.0916 187.81 89.9494 187.018 89.846C184.905 89.5782 185.61 91.5777 185.505 91.6825C184.794 92.3558 178.853 92.0094 177.348 92.394C177.867 90.8935 182.097 92.0934 182.983 91.7573C185.988 90.6337 178.626 91.2799 180.75 89.3092C179.839 89.87 178.923 90.4318 178.001 90.9939C176.182 89.9144 178.66 89.2519 173.933 89.9624C173.216 91.0298 177.283 89.6044 176.497 90.4576C176.043 90.9588 173.286 91.2215 173.241 91.4732C173.206 91.7765 175.684 91.2757 175.315 91.7596C174.552 92.8108 165.218 92.3696 172.243 91.44C170.542 91.5504 169.467 90.1081 168.106 90.1938C167.902 90.2067 167.691 90.2537 167.47 90.3453C167.06 90.5159 167.702 90.9613 168.17 91.4498C168.572 91.8679 168.848 92.3182 168.232 92.6571C167.64 92.9799 166.241 93.2064 163.289 93.1769C163.051 92.2537 167.103 92.7305 167.195 92.6509C167.335 92.5403 166.51 90.4658 166.381 90.3675C165.969 90.0669 156.157 91.5758 153.958 90.5138C154.557 91.3423 150.741 91.198 147.954 91.0875C146.809 91.0398 145.858 91.0167 145.594 91.1316C145.368 91.2328 146.214 91.9829 145.972 92.0606C144.47 92.5231 140.365 91.1661 138.443 91.1125C136.294 91.0525 136.564 91.696 136.444 91.6938C135.495 91.6468 136.254 91.2205 135.674 91.2149C134.806 91.2122 128.738 91.0226 128.423 91.1004C128.333 91.1266 129.325 91.8792 127.991 91.989C127.757 92.0055 127.925 91.1532 123.948 91.4189C119.141 91.7247 127.263 92.5903 125.259 93.4377C122.195 92.0615 122.27 93.336 121.432 93.2083C121.142 93.1615 118.995 92.0049 116.616 91.9683C118.329 91.8681 120.027 91.7566 121.715 91.6359C120.066 91.3943 116.818 91.5003 115.437 91.2184C114.763 91.082 115.347 90.2223 113.88 90.1741C113.564 90.166 112.26 92.2731 116.14 91.4853C116.427 92.2723 114.608 91.6852 113.75 91.8586C113.62 91.886 113.062 93.1485 111.997 92.2868C111.729 92.064 114.782 88.5181 107.228 90.7514C106.982 90.8218 107.797 91.3488 107.557 91.4295C107.394 91.4857 105.483 91.156 105.265 91.2042C105.043 91.2586 105.946 91.8405 105.681 91.9212C104.322 92.3363 102.687 90.1716 105.424 90.5427C104.529 90.2229 103.619 89.8983 102.716 89.5693C103.605 91.1768 101.239 89.8749 99.938 89.7917C91.536 89.193 97.0469 90.7742 95.5547 91.1266C93.0897 91.6456 95.1944 89.313 91.5411 89.6015C91.2644 89.621 93.9381 90.7259 90.6406 90.2174C89.7449 90.0764 88.4906 89.8343 86.6209 89.3724C88.0079 89.5818 89.3366 89.7545 90.6791 89.9075C90.7111 89.9111 90.743 89.9147 90.775 89.9183C90.7543 89.859 90.7287 89.8035 90.6985 89.7514C89.8829 88.4499 85.7735 89.2068 85.4282 89.141C81.4949 88.5136 84.3425 88.7054 78.1311 87.8661C77.5741 87.7807 76.4752 87.0936 75.2378 86.8831C70.131 86.0396 81.5854 89.2913 81.6884 89.7241C81.9016 90.2993 69.4378 86.3853 69.3414 85.925C67.8376 84.7208 74.7452 87.6818 73.6497 86.4545C73.5256 86.3015 68.614 84.5805 65.4164 83.135C62.207 81.7237 61.1177 81.3014 60.5405 80.9253C59.861 80.4358 59.5105 79.4868 59.1996 79.2884C59.0321 79.1701 58.872 79.3533 58.68 80.1655C58.738 77.9835 57.9765 79.2659 57.7474 79.1888C54.7893 78.2364 54.6086 78.2049 51.4348 77.7464C50.7192 77.6448 50.1878 76.8994 49.916 76.9542C49.7551 76.9878 49.9397 77.7093 49.1654 77.7681C48.1528 77.849 41.7027 75.9266 41.1989 75.459C40.7564 75.0031 44.0563 75.8378 43.5429 75.1257C41.1634 74.6172 38.7851 74.3223 36.2161 73.7466C35.1446 73.5038 35.7601 73.2014 35.2937 73.0993C35.1322 73.0695 31.1871 72.6125 31.3057 72.7854C31.8692 73.3318 43.1308 75.2783 40.059 75.4276C39.4886 75.463 37.6221 74.1163 37.7665 75.34C34.6848 74.6472 31.5247 73.9297 27.8429 72.9494C25.9686 72.4424 24.022 71.9064 21.3931 71.0012C20.0728 70.5339 18.5415 69.9931 16.3292 68.9435C15.1341 68.3621 13.8127 67.7058 11.8451 66.3789C9.94055 64.9361 6.8485 63.1982 3.19497 56.9967C0.209637 52.1702 -1.27535 42.8927 1.38445 36.0885C3.61924 29.9617 6.75457 27.0693 8.51115 25.413C12.3668 22.1048 14.0642 21.5715 15.699 20.7444C18.6418 19.4464 20.2307 19.0683 21.8087 18.6416C24.7751 17.8988 26.9855 17.5535 29.1233 17.2229C27.1609 17.8405 25.0352 18.3256 22.1271 19.1185C20.5882 19.5656 19.0341 19.9472 16.1698 21.1904C14.5577 21.9883 12.8989 22.5176 9.18657 25.6177C8.18941 26.5027 7.23467 27.4119 5.96425 28.9997C4.62212 30.7009 3.20072 32.9223 2.11395 35.83C-0.66423 42.4635 0.709486 51.8972 3.71335 56.7066C9.29141 65.4731 12.2947 65.7149 14.4921 67.3324C16.5154 68.4636 17.9241 69.0477 19.1587 69.5473C21.5371 70.4842 23.1236 70.9542 24.6751 71.3812C25.9122 71.7345 29.2115 72.6512 28.9117 71.9729C27.1243 71.4974 25.1623 71.0158 22.4947 70.1871C21.1279 69.7493 19.6691 69.286 17.4125 68.2986C16.2314 67.7619 15.0036 67.21 12.9451 65.9069C11.1486 64.5789 7.93774 63.0524 4.03951 56.524C2.41592 53.623 1.06635 49.7552 0.922377 45.3244C0.697844 40.8761 2.14709 36.0896 3.47842 33.5602C6.62953 27.6619 9.10215 26.1628 10.9271 24.6316C14.2797 22.1947 16.0009 21.6256 17.3517 21.0387C20.0786 19.9722 21.6836 19.6346 23.1175 19.3352C23.3463 19.2898 22.6611 19.9873 23.5255 19.852C25.2074 19.5569 29.057 18.0082 29.7171 18.1203C29.8454 18.1431 27.759 19.1951 28.5339 19.4829C30.51 20.2178 30.4088 17.816 31.8228 17.6168C33.0217 17.4379 39.9478 17.5595 41.1154 16.6449C42.5685 15.6614 36.5209 16.8993 36.7666 16.2259C38.9221 15.5924 41.0212 15.2988 42.756 15.0941C43.6001 14.9986 44.3822 14.9142 44.8303 14.8896C45.0538 14.8786 45.1944 14.8812 45.1456 14.9466C45.0853 15.022 44.8489 15.1299 44.0445 15.5847C43.9896 15.6157 44.1434 15.3882 44.1286 15.2511C44.122 15.182 44.0818 15.1293 43.9521 15.1423C43.8282 15.1548 43.5898 15.2335 43.0089 15.5864C42.7598 15.7391 42.4934 15.9143 42.2131 16.1136C39.8668 17.6622 35.9196 21.9744 34.6019 27.4439C33.1805 32.9828 34.295 37.6315 35.4807 40.5679C36.1718 42.3463 37.3277 44.2107 38.1225 45.1691C38.9097 46.139 39.3702 46.5074 39.5243 46.6064C39.8523 46.7933 39.157 46.0482 39.079 45.8081C39.0749 45.7588 39.9327 45.6954 39.9671 45.7094C40.3789 45.9488 40.2124 46.0422 39.9774 46.0899C39.7395 46.1367 39.4324 46.141 39.3815 46.0999C38.971 45.7283 38.4656 44.8153 37.3272 42.9325C36.4068 41.3246 35.278 39.2189 34.7445 35.5878C34.148 32.0942 34.9403 26.2217 37.8332 22.0392C39.5438 19.5898 39.683 19.9108 39.7994 19.9339C39.8582 19.9741 39.9144 20.0135 40.1529 19.8291C40.3827 19.6553 40.8491 19.2057 41.436 18.6662C41.6374 18.4784 42.2672 17.8281 42.9737 17.2142C45.328 15.2631 45.1265 14.9231 45.4968 15.849C45.506 15.8965 45.5614 15.9408 45.4502 16.0672C45.3896 16.1338 45.2902 16.2164 45.0043 16.4033C44.7405 16.5868 44.2455 16.863 43.2428 17.6037C42.2566 18.3743 40.9454 19.2878 39.0097 21.9227C37.0676 24.4054 34.8963 30.0142 35.4546 34.8702C35.93 39.7178 37.6026 42.2122 38.4697 43.5447C39.4253 44.9021 39.945 45.3242 40.2228 45.5644C40.7543 45.9657 40.4054 45.4988 39.5835 44.6826C38.7016 43.7103 37.4684 42.9136 34.6426 39.0741C33.424 37.1129 30.6924 33.714 30.4341 26.2522C30.18 18.4747 35.2823 11.8876 37.7733 9.9543C43.3167 5.54259 45.0772 5.73049 47.011 4.94857C50.4248 3.96155 51.9436 3.83331 53.1072 3.59905C53.4212 3.54289 53.6611 3.49624 53.8169 3.45763C53.5748 3.47191 53.3325 3.48747 53.0897 3.50437C50.6814 3.77947 48.6259 3.69283 43.6346 5.58542C48.6481 3.70542 50.8063 3.5377 53.0171 3.11153C55.5051 2.72405 57.273 2.67249 57.5917 3.48853C73.5726 2.70773 86.2361 4.67199 99.253 6.02944C101.544 6.38125 100.27 7.0706 104.03 7.21536C103.069 6.85967 102.105 6.4993 101.14 6.13491C103.083 6.53504 111.525 7.74037 112.861 7.69227C113.036 7.68709 113.289 7.01614 115.363 7.15476C117.199 7.27502 117.488 7.80807 118.466 7.98628C119.292 8.13391 120.197 8.07329 120.442 8.11944C120.629 8.15571 120.707 8.4668 121.154 8.55183C122.563 8.81293 121.402 7.88582 122.819 8.9537C122.479 8.96936 122.14 8.98446 121.803 8.99908C122.801 9.15047 124.02 9.40605 124.337 9.60483C124.442 9.6678 124.456 9.72574 124.342 9.77388C124.209 9.83187 123.897 9.8756 123.336 9.89357C122.907 9.90719 123.27 9.63735 122.949 9.61935C110.716 8.81905 119.784 10.0519 124.346 9.90573C124.513 9.9008 124.674 9.89441 124.828 9.88648C125.994 10.3797 132.52 10.3504 132.748 10.4298C133.057 10.5526 131.95 10.8486 133.436 11.1623C133.738 11.2403 142.573 11.1579 139.416 11.6233C138.762 11.7249 134.52 11.5514 133.507 11.5417C135.941 12.4345 141.521 11.2955 142.164 11.3437C144.742 11.4885 137.27 12.0046 143.067 12.1347C147.536 12.223 143.31 11.679 145.013 11.4657C145.966 11.3554 151.084 11.9433 150.901 11.2296C152.645 11.1719 151.646 11.5358 151.864 11.565C152.076 11.588 155.509 11.4119 156.643 11.5702C156.78 11.5892 156.374 11.9386 156.517 11.9688C156.794 12.0186 160.126 11.9796 160.261 11.9544C160.345 11.9358 159.529 11.6247 159.852 11.5562C160.228 11.4763 163.457 11.6046 163.63 11.5272C163.874 11.4045 159.896 11.4113 160.54 11.0907C162.379 11.2084 165.362 11.0649 166.568 10.856C166.273 10.9176 164.487 10.8731 163.866 10.8301C164.131 10.3586 167.971 10.5103 166.677 10.8272C167.501 10.6608 166.926 10.5364 167.387 10.3705C167.509 10.3284 168.695 10.3693 168.921 10.3019C168.95 10.2878 167.716 10.0612 167.957 9.97933C168.391 9.82803 172.003 10.0556 172.302 10.1175C173.138 10.2811 170.2 10.2673 169.965 10.4492C169.931 10.4771 172.446 10.9605 172.486 10.9936C172.645 11.3401 169.857 10.9721 170.188 11.3011C170.879 11.3941 171.567 11.4874 172.257 11.581C169.62 11.7804 164.728 11.4875 163.494 11.8536C167.393 11.8052 171.502 11.9721 171.526 12.7728C171.538 13.1098 169.859 13.2766 169.93 13.3671C170.192 13.6828 172.515 13.389 172.604 13.4108C172.676 13.4311 172.71 13.4499 172.71 13.4676C172.71 13.4676 172.71 13.4676 172.71 13.4676C172.71 13.4676 172.71 13.4676 172.71 13.4676C172.71 13.4676 172.71 13.4676 172.71 13.4676C172.714 13.6415 169.39 13.717 169.227 13.8042C168.956 13.9533 170.464 14.5806 170.467 14.7138C170.417 14.7381 168.059 14.8832 168.868 15.1233C169.689 15.3617 171.755 15.363 171.828 15.3888C172.23 15.5249 168.619 15.6702 168.517 15.7621C168.462 15.8065 170.415 16.0518 170.474 16.126C170.526 16.2002 169.06 16.3825 168.493 16.6379C168.071 16.8274 169.334 16.9396 169.115 16.9721C168.958 16.9912 165.555 17.0727 165.391 17.1128C165.145 17.1687 165.953 17.3672 165.84 17.4258C165.68 17.5104 164.579 17.4658 164.726 17.544C164.838 17.6059 169.128 18.2178 169.108 18.4119C169.076 18.7465 164.546 18.155 168.791 19.32C168.82 19.327 169.832 19.1879 169.862 19.1953C170.499 19.4079 167.262 19.937 171.238 19.6837C163.86 20.4772 170.342 20.234 169.274 20.8532C168.864 21.0933 166.009 21.3775 165.997 21.4143C166.29 21.68 167.19 21.3954 167.506 21.513C167.68 21.575 165.141 22.0642 165.727 22.2196C166.029 22.2964 168.739 22.0543 168.85 22.0672C169.93 22.1686 168.626 22.4607 168.868 22.5722C169.028 22.6456 170.661 22.5254 170.704 22.538C170.774 22.5617 168.576 23.0833 168.121 23.2501C167.775 23.3758 169.098 23.4091 168.855 23.4714C167.395 23.8476 164.228 23.5068 167.295 24.1181C167.481 24.1549 168.623 24.0245 168.656 24.0325C169.373 24.2142 167.274 24.4373 166.911 24.6851C166.287 25.1103 169.287 24.597 166.796 25.1099C168.687 25.1453 169.732 25.0197 171.927 24.7406C165.847 25.517 163.764 26.751 170.499 25.9362C168.354 26.1633 168.619 26.6549 167.98 26.7412C167.585 26.795 164.447 26.6561 165.937 27.658C166.123 27.7809 167.998 27.3485 167.423 27.7234C162.899 28.2518 167.337 27.9269 167.344 27.9642C167.33 28.6421 156.242 29.6754 154.315 30.0396C152.1 30.4647 150.158 31.3898 149.672 31.466C148.074 31.7074 149.379 31.1847 149.014 31.1198C148.647 31.0526 144.125 32.3518 143.89 32.3526C142.993 32.3389 143.868 31.8101 143.775 31.8038C142.667 31.7189 136.502 32.8725 134.743 32.9858C134.813 33.2588 138.311 32.8203 136.15 33.5456C133.629 34.3983 133.421 33.1907 133.352 33.1447C130.597 33.4819 127.832 33.7939 125.047 34.0736C115.784 34.9758 106.8 35.3205 97.9784 35.6592C98.0877 36.4497 105.696 35.5478 105.878 35.6377C106.858 36.1967 94.0466 36.7314 92.5523 36.496C93.7191 36.6249 94.8958 36.7518 96.0723 36.8753C94.0229 37.8857 89.6175 36.8629 86.7532 37.4121C85.8274 37.5939 87.5918 37.8778 87.5562 37.9043C86.5027 38.3266 84.8615 38.1259 86.1073 37.5613C83.5709 38.1695 83.9572 37.62 82.0346 37.6831C81.9372 37.6876 82.7479 38.033 81.2405 38.2866C80.5139 38.4009 76.8066 38.6538 76.3143 39.0521C76.1138 39.219 77.9793 40.6318 78.2147 39.2754C82.2638 39.6416 79.5116 38.5788 81.0999 38.5072C81.3523 38.5021 80.7513 39.2618 84.8061 38.6852C84.0032 40.0357 79.3988 39.3511 78.6294 39.5715C77.0113 40.0239 83.6635 40.2287 84.955 39.1468C84.3513 40.2036 85.4348 39.2539 86.958 39.2128C88.6362 39.1664 87.8937 39.5062 88.8022 39.4579C91.2984 39.3292 90.2748 38.6852 92.3282 39.2086C90.3615 37.3575 95.879 38.7877 97.5157 39.1875C94.8438 39.4252 92.1946 39.6621 89.5766 39.9094C89.7238 40.0045 89.8712 40.0995 90.0187 40.1942C89.3269 40.2191 88.6393 40.2443 87.9565 40.2701C88.0684 40.1636 88.1804 40.0574 88.2925 39.9513C84.7438 40.8102 83.9245 40.1361 83.639 40.1425C79.9768 40.2881 75.8497 40.6019 72.3959 40.9622C71.8946 41.0217 72.1996 41.6534 68.5629 41.5677C67.4296 41.5466 68.4567 40.8478 67.1818 41.1107C65.7179 42.8467 65.6789 41.6539 65.2277 41.7244C63.9357 41.9454 63.2788 42.4768 63.1659 42.5035C62.3175 42.7198 61.2537 42.967 60.4295 43.2258C59.8987 43.3922 59.5848 43.5539 59.7353 43.5988C59.7373 43.6028 59.7316 43.7117 59.7605 43.8033C59.8059 43.8896 59.7328 44.0064 59.921 43.926C59.9744 43.9009 60.0013 43.7928 60.5491 43.4078C60.78 43.2278 61.3207 42.9106 62.136 42.3359C63.0938 41.6016 64.6224 40.8176 67.1567 37.4846C70.0094 34.4287 71.9039 25.2017 70.0741 20.8888C68.6211 16.4474 67.2125 15.3439 66.6628 14.5965C66.0424 13.9079 65.8967 13.8094 65.9692 13.8157C66.0481 13.8367 66.3577 14.0122 66.8286 14.2663C66.4448 13.8809 66.2091 13.6201 66.2002 13.5573C66.2007 13.5152 66.4019 13.5936 67.147 14.4183C66.9191 14.1636 66.6146 13.8219 66.4476 13.6289C66.2811 13.4344 66.2557 13.3755 66.4317 13.4724C66.7822 13.6847 67.8622 14.3498 69.7347 15.9609C71.4432 17.4872 74.9598 20.757 76.9569 26.7151C77.8844 29.437 78.0811 32.1698 78.161 32.639C78.2087 33.2276 78.4378 31.5492 77.7957 28.2577C75.7763 19.7399 71.3735 16.7748 69.8739 15.3736C68.0752 13.9277 67.453 13.5437 67.7421 12.9279C68.1433 13.3787 68.8435 13.7152 71.6507 16.5932C72.9315 18.4111 75.8665 19.765 78.1676 29.3004C79.2524 34.1277 77.9324 41.5089 75.1557 45.7409C73.8217 47.9434 72.5705 49.3834 71.2332 50.7087C70.1228 51.799 69.0281 52.6793 67.9893 53.4153C62.2394 57.1808 60.4795 57.3172 58.2771 58.2493C56.2531 58.9822 54.6573 59.4848 53.2649 59.9105C50.5367 60.7376 48.7284 61.2053 48.3133 61.2176C48.1302 61.2201 49.1025 60.4912 48.8509 60.5005C48.6296 60.5192 45.062 61.5844 44.6053 61.5262C44.3097 61.498 45.7821 60.8196 45.6276 60.693C45.4501 60.6194 41.2238 61.5418 41.1661 62.1581C42.0628 61.6701 45.0189 61.0893 43.5941 61.9656C43.4113 62.0764 42.3359 61.9865 42.1294 62.1216C40.1184 63.3906 46.5314 61.482 47.7673 61.1584C45.6018 62.1165 42.8839 62.7978 40.4135 63.4353C39.1861 63.753 38.0256 64.0621 37.1279 64.3707C36.2645 64.6621 35.5469 65.0271 36.0097 65.0633C36.1761 64.8973 36.2742 64.7397 36.1059 64.6951C35.9489 64.6451 35.7545 64.6017 35.6955 64.509C35.6306 64.4186 35.671 64.2955 35.6695 64.1971C35.6785 64.0951 35.5789 64.0371 35.5085 63.9861C35.3663 63.8892 36.2594 63.507 37.0319 63.1145C37.3799 62.9463 37.7079 62.7898 37.8243 62.7766C37.9476 62.7587 37.8842 62.8731 37.7238 63.0487C37.3973 63.4053 36.9265 63.8363 36.6392 64.1136C36.3545 64.3908 36.2688 64.5289 36.2996 64.5353C36.4653 64.5382 36.6783 64.47 37.0949 64.244C37.4993 64.016 38.0633 63.6889 39.1853 62.8316C39.4652 62.6145 39.738 62.3935 40.1088 62.076C40.5125 61.7313 40.9597 61.326 41.4505 60.8334C41.9408 60.3406 42.4753 59.7602 43.0416 59.0582C43.6698 58.2848 44.4534 57.2062 45.1647 55.9506C46.5331 53.6011 48.1607 49.4551 48.1541 44.7819C48.179 40.127 46.773 36.2407 45.1888 33.4945C44.0536 31.545 42.8729 30.1692 41.8676 29.1544C40.9591 28.2501 40.2636 27.6961 39.6378 27.2236C38.3635 26.2874 37.8507 26.0277 37.3457 25.6914C36.4939 25.1416 36.3875 24.8714 36.5688 24.4003C35.9687 24.1872 35.8443 24.2152 35.7017 24.2141C35.5847 24.2257 35.5364 24.2563 35.5008 24.2709C35.4518 24.3053 35.404 24.2757 35.9369 24.2177C35.8339 24.0606 35.7672 23.9117 35.7278 23.7697C36.4521 22.6762 41.0762 26.3146 40.6646 26.4883C39.5063 26.9748 37.3291 25.7071 37.2055 25.7091C37.0672 25.7056 36.6995 26.1877 36.1129 26.3887C35.8243 26.49 35.4875 26.5211 35.2061 26.4081C35.0765 26.3548 34.946 26.2608 34.9115 26.1436C34.8803 26.0292 34.9017 25.8717 35.2383 25.7798C35.3642 26.2244 35.0925 26.3512 34.8731 26.4249C34.6668 26.5044 34.71 26.6012 34.9587 26.7328C35.1802 26.8579 35.5442 26.9992 35.6372 27.1279C35.7447 27.2594 35.5739 27.3855 35.0233 27.5279C35.8179 27.6142 45.4914 29.7729 47.1105 29.2889C47.2994 29.2266 46.6816 27.7293 49.1 28.7143C50.2535 29.1851 47.3531 28.8935 47.8583 29.2737C49.0282 30.1827 59.4952 30.7568 70.5691 32.8873C75.859 33.9725 80.3404 35.5902 81.8511 36.1405C82.1744 36.2612 81.8829 36.6458 82.1961 36.7609C83.2657 37.1561 86.3607 37.6249 87.1535 38.0985C86.227 37.3195 86.8677 37.3058 87.7463 37.4768C88.6157 37.6462 89.6442 37.9245 90.0785 38.074C91.3815 38.522 91.1384 39.2993 91.7473 39.5976C92.9658 40.1781 94.8833 40.109 96.8589 40.1203C98.8947 40.1515 100.897 40.2779 102.194 41.2774C102.173 39.4336 106.999 42.4649 109.413 42.5538C111.274 42.6351 114.044 41.4639 111.554 40.6497C114.765 40.8232 118.217 40.5194 121.316 40.4219C121.829 40.4055 121.111 40.9567 121.989 40.911C122.069 40.9028 122.187 40.3597 122.941 40.3054C129.179 39.8371 126.139 40.9896 127.304 41.3313C127.958 41.521 128.445 41.6146 128.802 41.6449C125.126 41.766 120.944 41.9567 119.833 41.9596C120.746 43.1782 127.887 41.764 129.998 42.0704C130.071 42.082 129.812 42.7479 129.887 42.7524C129.888 42.7523 129.89 42.7523 129.891 42.7523C130.675 42.8032 135.731 42.5265 134.693 41.7378C134.414 41.5272 132.084 41.5459 129.345 41.6276C130.088 41.4762 129.539 40.7334 129.67 40.7011C131.254 40.3272 135.158 41.0275 136.556 41.114C136.875 41.133 136.852 40.6545 136.904 40.6529C138.172 40.7506 137.653 42.1231 138.956 40.7011C141.259 42.3865 134.645 40.9908 135.115 42.0918C135.371 42.7279 143.615 42.5637 147.845 41.884C149.165 41.6528 150.04 41.3518 150.026 41.0098C150.075 41.1532 150.266 41.3292 150.655 41.5258C151.518 41.9692 155.38 41.7243 156.049 41.4476C156.161 41.3949 156.075 40.0878 156.215 40.0709C156.553 40.035 161.374 40.8703 163.166 40.0022C162.178 39.866 161.196 39.7275 160.22 39.586C166.095 39.3067 165.194 38.9463 163.194 38.6556C163.096 38.6568 162.998 38.6117 162.904 38.6109C161.364 38.3956 159.428 38.1991 159.395 38.0967C159.317 37.8621 162.925 37.5289 165.421 37.5706C167.028 37.5997 168.15 37.7957 167.405 38.3129C167.289 38.3918 166.315 38.3801 165.463 38.4026C164.369 38.4316 163.47 38.5182 164.79 38.9406C164.893 38.9732 165.154 38.9732 165.491 38.9558C166.512 38.9035 168.25 38.6891 168.375 38.7544C169.008 39.0851 167.109 39.6205 165.554 40.1733C164.392 40.5857 163.416 41.008 163.775 41.3767C164.324 41.0447 164.937 40.8741 165.584 40.7775C166.761 40.602 168.05 40.6718 169.24 40.4644C170.08 40.3188 170.253 39.6517 170.356 39.6337C171.912 39.3779 171.072 40.1128 171.595 40.0673C171.871 40.0402 174.906 38.4094 174.431 40.4576C184.766 38.4358 177.145 38.8189 170.906 39.2754C172.829 38.4342 176.774 38.578 178.558 38.319C179.196 38.2252 178.779 37.5713 179.858 37.3837C181.874 37.0131 191.357 37.2713 195.184 37.4897C195.507 37.5056 195.787 37.5198 196.015 37.5312C195.644 37.5851 195.374 37.6597 195.19 37.743C194.745 37.9449 194.814 38.1971 195.204 38.3391C195.426 38.4202 195.753 38.4657 196.149 38.4463C197.523 38.3799 196.349 37.4185 196.615 37.3108C196.917 37.1861 203.321 37.6372 204.353 37.533C199.581 37.8579 200.676 38.5871 204.709 38.6895C204.128 38.8934 203.546 39.0984 202.963 39.3047C205.341 39.0172 210.239 40.1976 211.568 39.8975C211.778 39.8488 211.028 39.2264 211.146 39.199C212.328 38.9612 216.276 39.6698 216.456 39.468C216.614 39.2995 214.938 38.7515 215.564 38.5159C215.695 38.4664 217.308 39.3241 218.891 39.1624C219.479 39.1031 219.131 38.5221 219.279 38.4926C220.51 38.2491 219.78 39.1937 222.016 39.0957C223.65 39.0221 224.87 38.1159 227.091 38.4796C219.759 37.0998 225.954 37.7598 228.975 37.4672C229.458 37.4195 229.056 36.3839 231.926 36.944C225.794 38.6774 233.693 37.9697 235.255 37.9997C235.342 38.007 235.379 38.684 236.156 38.7028C236.222 38.7027 236.123 38.2457 236.841 38.2175C243.606 37.9222 239.285 38.4132 240.582 38.866C241.14 39.0597 244.36 38.3925 245.211 38.3574C245.409 38.3521 245.34 38.8239 246.104 38.7894C246.767 38.7586 247.39 38.6132 247.951 38.4652C248.606 38.3078 249.2 38.1505 249.71 38.1146C249.829 38.1087 249.867 38.8441 251.745 38.5479C252.267 38.4655 252.845 38.1878 252.085 37.9985C250.995 37.7305 249.498 37.8277 247.923 37.9809C246.09 38.1695 244.09 38.4214 242.616 38.0328C240.335 37.4338 247.192 37.2932 247.88 37.2426C247.904 37.2416 247.922 37.2409 247.934 37.2405C247.961 37.2392 247.935 37.2511 247.882 37.2718C247.68 37.36 247.03 37.6094 247.904 37.6643C247.974 37.6677 248.052 37.67 248.139 37.6711C249.528 37.6856 251.973 36.3433 254.023 36.5663C254.178 36.5831 255.864 37.6103 255.79 37.6745C255.728 37.7215 253.245 38.0247 253.626 38.3252C253.67 38.3593 255.253 38.3067 255.475 38.5314C255.743 38.8057 256.576 41.5393 256.918 41.5967C257.793 41.7389 257.196 41.1298 257.756 41.1556C258.962 41.2113 263.14 41.8818 263.213 40.9303C262.53 40.897 261.847 40.8631 261.161 40.8289C264.943 40.6075 263.302 40.2576 263.828 40.0629C264.392 39.8522 264.281 40.6885 265.555 40.7221C265.84 40.7325 271.103 40.3611 270.971 40.0175C268.112 40.6814 269.112 39.6199 268.979 39.6073C268.467 39.5594 267.853 40.1552 267.163 40.1686C262.315 40.246 267.144 39.1721 265.986 38.9785C265.588 38.9129 264.833 39.4289 264.664 39.4093C264.115 39.3456 264.067 38.7023 263.707 38.7656C262.866 38.9128 263.912 39.7931 263.847 39.8423C263.125 40.4385 260.1 39.8203 261.898 38.7692C260.764 38.4438 260.701 39.6574 259.788 39.2001C257.969 38.2925 260.625 38.4622 261.328 38.2825C263.847 37.6352 264.637 38.0789 268.195 37.8038C269.475 37.7053 270.941 37.0724 271.529 37.0191C271.896 36.9919 275.539 38.8459 275.38 35.7133C276.739 35.9636 278.993 37.9113 280.334 37.7346C281.525 37.5778 281.031 36.507 281.139 36.4581C281.314 36.3814 282.738 36.3791 283.202 36.1906C283.739 35.9704 283.41 35.5763 284.263 35.3449C286.338 34.7693 286.398 35.8662 286.624 35.921C289.152 36.519 287.854 35.0574 288.352 34.8836C288.519 34.8197 289.788 34.7617 290.904 34.6852C291.446 34.652 291.956 34.6076 292.121 34.6275C292.289 34.6559 292.097 34.719 291.131 35.1991C289.905 35.9056 287.038 37.0577 283.561 41.8458C286.102 38.3862 287.712 37.5029 288.947 36.6549C290.097 35.9501 290.712 35.7218 291.283 35.5106C291.541 35.4413 291.749 35.4052 291.915 35.391C291.813 35.5563 291.658 35.7025 291.449 35.8525C290.508 36.5504 288.657 36.9902 285.298 40.892C284.49 41.8926 283.786 42.9472 283.129 44.2161C282.404 45.6143 281.881 47.0699 281.571 48.3369C280.951 50.8896 281.088 52.5808 281.32 52.719C280.554 54.0986 280.834 60.7312 283.148 64.5473C285.303 68.4478 287.215 69.7693 288.279 70.5587C289.287 71.234 289.8 71.3625 290.076 71.4043C290.347 71.436 290.41 71.3664 290.418 71.3747C290.411 71.3785 290.281 71.6829 290.208 71.6456C290.055 71.5251 287.159 70.0114 286.254 69.829C284.338 69.4291 285.705 70.4881 287.228 71.5591C287.981 72.0924 288.707 72.6144 289.091 72.9627C289.492 73.3183 289.469 73.4532 289.439 73.468C289.482 73.4622 289.351 73.3784 288.847 73.1841C288.357 72.9947 287.554 72.7254 286.774 72.5119C285.181 72.0755 283.898 71.9088 285.565 73.1024C286.062 73.4651 287.198 73.0233 287.45 73.0986C289.074 73.5934 287.599 73.7673 287.696 73.8912C287.893 74.1065 288.966 73.8076 289.005 73.9463C289.019 73.9716 288.894 74.1069 288.847 74.2878C288.823 74.3778 288.824 74.4813 288.843 74.577C288.853 74.6678 288.919 74.7713 288.789 74.7455C288.791 74.921 288.813 74.994 288.559 74.8951C288.316 74.8011 287.828 74.5575 287.213 74.2622C285.998 73.6769 284.297 72.8738 283.866 72.7766C283.712 72.7427 283.965 73.252 283.657 73.33C283.281 73.3704 282.705 73.1813 279.443 70.9823C279.477 71.1425 279.511 71.3026 279.546 71.4625C278.073 70.8112 276.504 70.1486 273.915 68.6883C272.533 67.8645 271.05 67.0693 268.333 64.7507C267.075 63.6333 265.187 61.8807 263.212 58.883C261.042 55.5944 258.337 49.729 258.916 42.2369C260.353 30.4766 265.521 26.833 267.677 24.4966C270.134 22.2958 271.739 21.3844 272.988 20.6437C272.645 20.9901 270.908 22.3331 270.132 23.1524C269.114 24.2019 270.528 22.9873 273.705 21.1235C275.387 20.1763 275.333 20.0485 275.148 19.93C274.931 19.8371 274.363 19.9301 274.495 19.8533C275.932 18.9339 281.427 16.8926 284.995 16.0337C286.864 15.5414 288.697 15.0758 289.491 14.9109C289.675 14.8776 289.783 14.8678 289.72 14.9358C289.649 15.0119 289.446 15.13 288.782 15.5617C288.132 16.0453 287.045 16.5335 284.555 19.1794C283.328 20.568 281.46 22.813 280.005 26.8181C278.379 31.0583 278.207 37.2748 279.855 41.8615C281.775 47.1486 283.91 48.925 285 50.0718C286.172 51.1691 286.824 51.5647 287.252 51.837C288.09 52.3355 288.191 52.3011 288.267 52.3231C288.381 52.3443 288.174 52.2857 287.711 52.1543C287.266 52.0287 286.696 51.8841 286.624 51.8531C285.906 51.48 281.767 49.4845 280.764 49.2204C280.185 49.0547 280.598 49.7331 280.095 49.5246C279.623 49.3298 280.24 49.0449 280.103 48.9741C279.468 48.6334 276.121 47.6353 272.773 46.6308C270.237 45.8676 267.902 45.1264 266.956 44.6398C267.773 44.9742 270.658 45.5905 272.924 45.9785C274.447 46.236 275.62 46.3737 275.595 46.2234C275.579 46.1682 273.955 45.27 273.557 45.3261C273.467 45.2205 273.317 45.1525 273.126 45.1083C272.245 44.9065 270.534 45.1808 269.676 44.7052C269.557 44.6407 270.197 44.1262 268.259 43.3986C267.587 43.1497 265.723 43.1154 264.084 42.024C261.484 41.4238 248.347 37.1877 247.312 37.7358C247.277 37.7614 249.132 38.4216 247.825 38.3962C246.095 38.3669 247.765 37.5078 245.801 36.9731C245.506 36.8766 239.96 35.8826 239.768 35.9351C238.034 36.2571 242.838 37.4661 242.759 37.5428C242.57 37.6929 238.559 37.0066 238.397 36.9392C238.238 36.8653 241.608 36.6254 237.626 36.2116C238.074 36.3962 238.515 36.5824 238.956 36.7708C237.09 36.6175 236.954 36.0037 236.506 35.8873C235.103 35.5317 233.534 36.1343 231.32 34.7144C230.729 34.3409 231.75 34.1771 231.676 34.1231C231.458 33.9716 231.213 33.952 230.946 33.9695C230.364 34.0101 229.685 34.2318 228.958 33.6115C228.874 33.5498 231.432 33.4225 226.999 32.852C227.303 32.9608 227.606 33.0706 227.909 33.1813C227.286 33.2499 222.762 32.8112 222.14 32.7202C220.345 32.4291 221.916 32.0949 220.103 31.9788C221.27 32.7564 215.74 32.3213 216.043 31.8001C215.281 32.4313 210.512 31.5229 208.238 31.3774C206.812 31.2771 203.892 31.3896 203.431 31.3303C202.871 31.2584 203.022 30.8297 202.008 30.6814C201.719 30.6418 198.726 30.7937 196.039 30.2432C195.518 30.1353 194.396 29.3981 195.348 29.2597C196.979 29.015 200.102 29.7109 200.041 29.2839C199.975 28.8219 195.814 28.9486 194.679 28.8529C189.446 28.422 192.435 28.0678 192.294 27.92C191.929 27.5735 189.069 27.5223 188.947 27.4897C188.445 27.3494 190.46 27.1305 190.479 26.9268C190.502 26.6601 187.718 26.156 188.34 26.0776C189.232 25.9604 191.785 26.3829 191.944 26.368C194.017 26.1307 191.124 25.4807 190.318 25.1856C190.074 25.0936 191.019 24.9427 190.819 24.9153C187.768 24.5088 190.227 25.7679 188.206 25.6726C186.401 25.5881 188.697 25.2096 188.627 25.1854C188.537 25.1614 186.383 25.1346 186.038 24.9979C185.871 24.9394 191.419 24.1555 191.164 23.7946C189.389 23.8894 187.609 23.9812 185.828 24.0673C185.665 23.6311 188.249 23.9302 188.511 23.8832C189.04 23.7848 187.539 23.574 187.595 23.4337C187.625 23.3456 189.354 22.9951 187.769 22.8901C187.224 22.8559 186.102 23.1807 184.107 22.9021C190.966 22.3759 186.184 22.2084 185.974 22.0662C185.768 21.9189 189.029 21.4553 185.049 21.6358C184.832 20.7947 185.121 21.3657 186.245 21.1797C187.62 20.9471 184.404 20.776 189.478 20.8114C189.168 20.4079 185.101 20.5981 184.883 20.5735C184.695 20.5524 185.59 20.3213 185.264 20.2679C181.408 19.6681 184.047 19.9049 182.917 19.4725C182.817 19.4332 179.204 19.4345 181.944 19.2302C186.933 18.8407 189.052 19.3158 189.824 18.015C186.101 17.7058 181.671 18.757 180.547 18.8164C178.829 18.9265 180.598 18.5971 180.383 18.542C180.308 18.5251 178.828 18.6269 178.808 18.6093C177.71 17.8075 185.395 18.2049 187.797 17.9054C187.144 17.8044 186.491 17.7058 185.838 17.6094C186.713 17.5469 187.588 17.4839 188.463 17.4208C184.278 17.4123 188.311 17.3311 189.309 16.4818C189.533 16.2902 186.81 16.7933 189.908 16.0766C187.598 16.1404 188.325 15.9321 186.251 16.3054C186.288 16.0051 190.961 15.2783 192.807 14.9586C186.244 15.1577 190.035 15.9719 184.355 15.8444C183.327 16.2944 186.019 16.0091 185.802 16.0879C185.024 16.3659 183.159 16.1793 180.967 17.0818C180.61 17.2269 182.167 17.4993 179.891 17.6305C179.638 17.6435 178.175 17.4262 178.194 17.4032C178.374 17.1475 179.811 17.1388 179.866 17.0314C179.916 16.9301 178.32 17.102 178.314 17.0753C178.25 16.7741 179.641 16.8624 179.436 16.7807C178.991 16.5934 173.218 16.4015 180.721 15.9951C174.513 16.8334 179.94 16.4055 182.361 16.0745C182.978 15.9904 183.125 15.7872 184.003 15.6466C185.133 15.4645 186.467 15.4451 187.052 15.3596C187.682 15.2632 184.065 15.1124 189.268 14.7951C186.597 14.5617 181.961 15.4699 179.357 15.3808C174.11 15.24 182.957 14.3004 183.88 14.1335C184.125 14.0922 183.287 13.9146 183.45 13.8827C183.715 13.8307 188.76 13.448 189.247 13.1721C189.731 12.8962 187.4 13.3708 187.232 13.1556C187.116 13.0158 193.191 12.0829 189.888 12.3265C187.611 12.5066 183.469 13.5609 182.734 12.9885C186.057 12.5716 189.388 12.1422 192.734 11.7185C190.887 11.6505 189.044 11.5978 187.206 11.5579C190.943 11.0285 194.207 10.9598 197.775 10.1643C189.121 10.2826 200.532 9.11896 200.666 9.00115C200.704 8.92343 197.267 8.59507 196.716 8.53978C199.691 7.87158 208.935 6.63248 203.488 6.33908C204.476 6.42886 206.842 5.61362 206.81 5.57573C206.486 5.1813 201.308 6.12222 202.14 5.64347C203.1 5.08026 204.498 5.48493 206.011 5.25121C213.807 4.0834 211.587 1.98689 219.617 1.52207C219.456 1.45181 219.296 1.38193 219.135 1.31244C223.56 0.943508 228.053 0.684093 232.617 0.58515C237.034 0.485462 241.469 0.513556 245.916 0.679794C249.513 -0.128576 259.059 -0.197369 263.649 0.374218C264.583 0.466122 269.02 1.41922 269.337 1.5528C269.935 1.78377 266.464 1.45229 267.968 1.92739C268.306 2.00164 275.803 3.18131 275.362 2.60408C274.542 2.42764 271.843 2.3403 271.433 2.16793C269.777 1.45891 276.708 2.31568 282.815 3.29976C287.505 4.02878 292.243 4.97593 292.817 4.93137C292.322 4.648 291.835 4.3702 291.345 4.09475C292.844 4.46406 294.371 4.85865 295.945 5.29608ZM226.452 34.4958C225.676 34.8217 223.756 34.2545 222.603 34.2412C221.013 34.2245 218.297 35.5092 219.465 34.0501C221.816 34.1754 224.146 34.3216 226.452 34.4958ZM259.231 42.1117C257.8 41.4179 259.151 40.6537 260.289 41.4556C260.416 41.5458 261.166 43.0604 259.231 42.1117ZM243.695 37.6876C243.763 37.6869 245.053 37.9943 245.099 38.0217C246.215 38.6878 242.311 37.7512 243.695 37.6876ZM274.754 67.8953C272.462 66.6045 271.489 66.2383 272.268 67.0881C272.904 67.8276 274.523 69.0029 275.775 69.3588C275.944 69.4147 275.04 68.063 274.754 67.8953ZM270.801 65.2644C269.787 64.1722 268.417 63.1426 265.915 60.0936C263.822 57.5985 259.586 50.8002 260.212 42.3358C260.664 36.1669 262.774 32.4754 263.934 30.3868C265.259 28.1718 265.823 27.4664 266.046 27.017C266.232 26.6533 265.92 26.7953 264.88 27.986C264.003 29.3834 261.26 31.1569 259.431 40.2298C259.366 40.6613 259.272 41.3457 259.211 42.2593C258.923 44.9948 259.525 50.3992 261.212 54.0425C262.004 55.9097 263.047 57.6591 263.967 58.9226C264.827 60.1089 265.688 61.0819 266.473 61.8748C269.438 64.751 270.901 65.3096 270.801 65.2644ZM254.019 40.2265C254.241 39.9363 255.749 40.5027 256.389 40.7634C256.318 41.0644 254.67 40.3556 254.019 40.2265ZM288.44 51.8742C288.47 51.8036 288.603 51.7795 288.599 51.6941C288.6 51.6114 288.446 51.4641 288.144 51.2916C287.561 50.9499 286.482 50.5689 286.295 50.7036C286.618 50.7568 287.584 51.2578 288.083 51.61C288.338 51.786 288.466 51.9141 288.476 51.9487C288.491 51.9861 288.409 51.9354 288.44 51.8742ZM285.99 16.817C286.194 16.8191 287.989 16.2604 287.808 16.0153C286.911 15.8592 285.244 16.7519 285.99 16.817ZM286.153 73.1502C286.069 73.0641 286.416 73.1522 286.697 73.135C286.989 73.1278 287.266 73.0571 287.263 72.8516C287.226 72.5992 287.111 72.4749 285.577 71.1571C285.382 70.9841 285.162 70.785 284.911 70.5472C284.62 70.2704 284.281 69.9347 283.899 69.523C283.1 68.6205 282.291 67.8148 280.872 65.3999C279.632 63.171 277.901 59.5575 277.812 53.9646C277.586 48.6521 280.253 42.4377 282.158 39.9431C283.391 38.2446 283.163 38.4431 282.135 39.6505C281.608 40.3107 280.943 41.1656 280.068 42.7331C279.137 44.4159 278.172 46.7128 277.623 49.3559C276.317 54.7503 277.825 61.2803 278.892 63.5921C280.021 66.3242 280.768 67.3083 280.324 66.6804C278.533 63.8689 276.838 59.6074 276.688 54.6824C276.539 49.7482 277.782 45.8931 279.139 43.0699C276.713 47.6281 275.804 55.0886 277.421 60.5238C278.791 65.5639 281.076 68.4837 282.308 69.9918C285.16 73.2301 286.189 73.6056 286.938 74.1776C287.704 74.6745 287.951 74.7816 288.176 74.8878C288.381 74.9778 288.445 74.9808 288.487 74.9665C288.653 74.8817 288.684 74.7963 288.662 74.7281C288.631 74.6549 288.545 74.6002 288.29 74.4655C288.043 74.3343 287.667 74.1444 287.162 73.8331C286.679 73.5378 286.214 73.2064 286.153 73.1502ZM285.893 33.6334C285.658 33.9849 283.717 33.9507 283.258 33.8405C283.178 33.8196 283.418 32.9348 282.539 33.0535C281.826 33.1499 282.994 33.9745 281.583 33.9141C280.134 33.8519 281.985 33.1104 281.848 33.0726C281.688 33.024 279.504 33.541 279.517 33.0168C279.541 32.6311 281.937 32.769 282.491 32.651C283.21 32.5026 282.266 31.9199 283.477 31.9836C284.243 32.0205 283.957 33.162 284.123 33.2079C284.284 33.2465 286.729 32.4146 285.888 33.6302C285.89 33.6313 285.891 33.6323 285.893 33.6334ZM283.714 36.6446C282.49 37.9057 281.013 39.3429 279.139 43.0699C280.765 39.8383 282.272 38.1314 283.714 36.6446ZM230.892 34.8118C230.896 34.8135 230.9 34.8152 230.903 34.8169C231.121 34.9138 231.081 34.9772 230.894 35.0078C230.435 35.0847 229.059 34.9622 228.428 34.6671C228.423 34.4292 230.771 34.7543 230.892 34.8118ZM290.421 32.8373C290.988 32.4963 291.081 32.3956 291.16 32.2892C291.224 32.1915 291.213 32.1264 291.169 32.0783C291.046 32.0047 290.916 31.8965 289.748 32.3654C288.752 32.9122 287.434 33.1253 283.714 36.6446C286.151 34.3632 287.18 34.0967 287.979 33.7574C288.713 33.506 289.363 33.33 290.066 33.0169C290.185 32.9675 290.304 32.908 290.421 32.8373ZM273.557 45.3261C273.639 45.4226 273.677 45.5443 273.646 45.7143C273.433 45.4491 273.433 45.3436 273.557 45.3261ZM278.743 47.3619C280.622 47.4417 277.056 46.2485 276.971 46.6262C276.951 46.7682 278.673 47.3581 278.743 47.3619ZM279.02 70.1321C278.91 70.0494 280.045 70.0429 280.38 69.8642C280.551 69.7774 280.542 69.6618 280.098 69.4862C279.634 69.2936 278.853 69.1299 276.776 68.4655C280.501 70.5417 276.457 68.7948 276.361 68.9032C276.349 69.1649 278.164 70.087 279.607 70.6946C281.1 71.3343 282.393 71.806 282.821 72.0961C283.872 71.6309 280.017 70.83 279.027 70.1354C279.025 70.1343 279.022 70.1332 279.02 70.1321ZM258.847 34.1984C259.32 33.6459 260.922 33.7843 261.99 33.7909C261.524 34.3411 259.926 34.2056 258.847 34.1984ZM61.1895 43.6794C61.9978 43.3468 63.2319 42.8745 65.3397 41.132C67.3901 39.466 71.1004 35.1858 72.0123 29.0398C72.8872 23.0448 71.1246 19.0192 70.2745 17.2026C69.2548 15.1647 68.6239 14.4537 68.1882 13.8902C67.3161 12.8522 67.1537 12.8216 67.0231 12.7551C66.9106 12.7224 66.9018 12.8086 66.8604 12.8696C66.8246 12.9359 66.7625 12.9853 66.6978 13.0261C66.6394 13.0739 66.5672 13.0958 66.7009 13.307C66.8767 13.6264 67.1369 13.6654 68.677 16.0603C69.3853 17.3716 70.8714 19.4685 71.3638 24.5272C72.0428 29.6884 68.9926 36.6432 66.4048 39.0943C66.2237 39.3007 65.3758 40.2412 64.4489 41.0332C63.6768 41.7164 62.7797 42.3622 62.2361 42.7345C61.2145 43.4415 60.7933 43.7302 61.1895 43.6794ZM44.625 24.9737C45.1432 25.9455 42.9392 25.8602 41.6681 25.3366C41.3708 25.2172 40.4367 24.1893 41.7176 24.1533C41.4862 25.2319 43.4379 25.8775 44.625 24.9737ZM291.552 32.927C291.743 33.1612 291.763 33.1713 291.49 33.1595C291.243 33.1415 290.774 33.0736 290.42 33.0712C290.583 32.8 290.988 32.6798 291.27 32.6664C291.566 32.6504 291.655 32.7662 291.552 32.927ZM50.5075 59.695C49.6357 59.8714 49.2351 60.7358 49.3906 60.7565C50.0892 60.8538 51.5889 59.822 50.5075 59.695ZM289.343 73.4705C289.38 73.2688 289.543 73.2859 288.152 72.4222C287.461 71.9496 286.211 71.2274 284.227 69.1912C282.376 67.4863 280.011 63.2394 279.539 62.2939C280.117 63.8358 281.053 65.6766 282.083 67.1615C282.976 68.4648 283.959 69.5878 284.835 70.4426C286.386 71.9415 287.447 72.6012 288.046 72.9723C289.229 73.6575 289.247 73.5354 289.343 73.4705ZM260.889 34.4376C261.361 34.6203 258.996 35.0257 258.255 34.8503C258.293 34.4411 260.581 34.3188 260.889 34.4376ZM38.5007 63.2475C37.8991 63.3564 36.7136 63.7308 36.7014 64.0647C36.6123 64.491 38.287 63.7894 38.5007 63.2475ZM146.803 33.7403C146.898 33.8 144.203 34.8094 142.972 34.8642C140.638 34.9571 146.711 33.7029 146.803 33.7403ZM60.1268 56.1992C64.7704 54.9699 59.5563 56.4847 60.1124 56.9961C61.4136 56.4515 63.9289 55.6542 67.6903 52.9826C69.6407 51.5771 71.0654 50.0238 71.3486 49.5997C71.5256 49.2461 70.1487 50.7671 67.3849 52.5406C67.1316 52.6991 66.8683 52.858 66.5967 53.0152C64.1724 54.4751 61.305 55.7879 60.1268 56.1992ZM56.8674 57.1327C56.5759 57.4803 54.6819 58.8622 56.4904 58.221C57.3718 57.9065 58.594 56.6153 56.8674 57.1327ZM129.664 36.4863C127.604 36.3413 136.982 35.3112 137.235 35.3156C137.378 35.332 137.472 35.3533 137.526 35.3751C137.861 35.1976 139.608 34.9135 139.83 35.1976C139.303 35.2529 137.873 35.4983 137.703 35.4874C137.631 35.483 137.577 35.4768 137.539 35.4678C136.945 35.8535 130.07 36.5335 129.664 36.4863ZM113.805 37.6101C116.181 36.7611 116.601 37.8698 116.395 37.9233C113.8 38.6016 115.497 37.6167 115.416 37.5845C115.237 37.5327 113.396 38.0647 113.813 37.6096C113.81 37.6098 113.808 37.6099 113.805 37.6101ZM126.456 36.7087C126.552 36.6845 128.53 36.4755 128.612 36.4808C130.246 36.638 124.646 37.2399 126.456 36.7087ZM275.21 35.497C273.902 35.3687 275.123 34.652 275.987 34.8567C276.06 34.8771 276.353 35.609 275.21 35.497ZM55.4511 57.7616C54.6723 57.9669 45.8391 59.9397 46.6617 60.6391C46.9957 60.4928 49.5188 59.922 51.9713 59.2325C54.3914 58.5607 56.8353 57.6873 55.4511 57.7616ZM61.5041 28.1112C59.9328 27.902 61.7962 27.1789 62.5982 27.646C62.8914 27.8186 61.905 28.1645 61.5041 28.1112ZM288.243 71.9513C286.966 71.927 287.777 70.4863 288.526 71.4303C288.555 71.467 288.29 71.9513 288.243 71.9513ZM49.7114 26.254C54.7359 26.1945 53.0403 29.0118 46.9291 27.3671C47.1413 27.2574 47.3544 27.1476 47.5684 27.0377C40.6059 25.8627 47.0591 26.781 48.8939 26.7986C49.5798 26.8055 49.0826 26.2586 49.7072 26.2501C49.7086 26.2514 49.71 26.2527 49.7114 26.254ZM70.5626 29.6481C70.8297 29.802 71.0612 29.943 71.2592 30.0709C72.7637 31.0493 72.3422 31.2075 71.0351 30.9855C68.4938 30.5276 63.7795 29.3201 61.9954 29.2697C64.9233 28.7689 68.8645 29.5364 63.7846 27.843C67.5465 28.2944 68.8943 28.7619 69.0429 28.988C69.2182 29.2263 68.3774 29.3063 68.5382 29.3728C68.9069 29.5196 70.2918 29.4934 70.5626 29.6481ZM56.1285 27.5408C55.8325 27.5689 53.7581 26.9112 52.9971 26.904C54.1376 26.2916 58.0991 27.3342 56.1285 27.5408ZM97.5863 38.8949C97.7712 38.4884 98.205 38.1771 99.8525 38.2424C99.3366 38.4653 98.2776 38.6894 97.5863 38.8949ZM225.033 32.4517C223.979 32.3037 221.862 31.9565 222.507 32.3883C222.581 32.424 225.026 32.6573 225.033 32.4517ZM35.4827 63.1601C35.566 63.0894 35.5987 63.1774 37.1106 62.3558C37.9989 61.751 39.3667 61.3247 42.3952 57.7886C44.0525 55.6618 46.1483 52.5704 46.9129 47.123C47.6128 41.7358 46.0933 36.9646 44.3919 33.9405C43.3453 32.0489 42.2773 30.7393 41.3909 29.7735C40.5619 28.8803 39.995 28.3777 39.4727 27.9279C38.4069 27.0355 38.0035 26.7674 37.7035 26.5203C37.4271 26.2983 37.3577 26.2065 37.5125 26.2398C37.6902 26.2953 38.0054 26.39 39.0089 27.0433C39.6183 27.6938 41.1287 27.7017 44.871 33.6724C47.1826 37.3106 48.9013 45.537 46.3677 51.8911C45.3639 54.6716 44.0374 56.698 42.8266 58.2001C41.753 59.5148 40.8817 60.3178 40.0875 60.9895C37.2274 63.2473 36.5673 63.2131 36.037 63.4547C35.599 63.5844 35.4817 63.5413 35.4203 63.4777C35.3732 63.4061 35.3069 63.3371 35.4827 63.1601ZM75.5602 25.8175C75.9613 26.9801 76.7774 29.1175 76.9373 32.7867C77.1557 36.3429 75.9848 41.2161 74.1728 44.3139C70.4032 50.5769 67.7089 51.5738 67.1687 52.2278C67.1165 52.2722 67.0863 52.3009 67.0801 52.3129C67.0481 52.3798 67.1032 52.3801 67.2331 52.3209C67.9163 51.73 71.3038 50.6421 75.2081 43.0167C77 39.3589 77.5475 34.1011 77.031 31.0213C76.563 27.7724 75.8064 26.316 75.5602 25.8175ZM219.665 31.5528C219.526 31.5007 216.234 31.2879 216.597 31.4814C217.291 31.8415 220.15 31.7185 219.665 31.5528ZM270.564 37.0212C270.29 37.0523 269.88 36.4382 269.784 36.4343C269.564 36.4358 264.471 36.8324 266.372 35.9648C266.708 35.8263 274.01 35.8974 274.92 35.9268C275.35 36.7664 272.214 36.0769 271.467 36.188C271.335 36.2094 271.302 36.9307 270.566 37.0175C270.565 37.0187 270.564 37.0199 270.564 37.0212ZM106.241 38.0223C106.48 37.6527 112.852 37.0392 112.782 37.456C110.583 37.6581 108.411 37.8447 106.241 38.0223ZM103.037 38.1377C101.701 37.9475 104.846 37.7007 105.778 37.7613C105.781 38.0046 103.229 38.1664 103.037 38.1377ZM51.0795 56.824C50.4098 57.1357 52.7224 57.2133 52.2744 57.4812C51.9702 57.6596 50.3732 57.8335 49.9429 58.1779C49.8238 58.2851 51.5038 58.5073 51.9849 58.3379C52.6409 58.1097 51.876 57.7893 52.5992 57.5764C55.0861 56.8177 57.3193 56.5999 61.1339 54.9932C61.4711 54.8482 58.6154 55.6739 61.6572 54.371C61.8267 54.2927 62.2153 54.1831 63.034 53.8562C63.8096 53.5342 64.9638 53.0856 66.8908 51.8256C68.9224 50.1775 74.2597 47.4667 76.445 37.059C77.4166 29.125 74.4047 24.244 72.9216 21.957C71.2831 19.5902 70.0677 18.501 69.1582 17.6323C67.3303 15.9697 66.3504 15.2434 65.7766 14.7183C65.505 14.4789 65.357 14.3249 65.4529 14.406C65.5592 14.5259 65.884 14.7166 66.9188 16.1853C67.4124 16.9381 68.1881 18.0807 68.9569 20.3704C69.7166 22.5562 70.3237 26.6326 69.1992 30.5928C68.0909 34.6743 65.8229 37.3401 64.4212 38.6465C64.0368 39.0085 63.6541 39.3315 63.3103 39.5982C63.0148 39.8255 62.732 40.0255 62.4641 40.2019C61.9446 40.5455 61.3978 40.8451 61.0954 40.9815C61.1456 40.8946 61.7737 40.5965 63.2009 39.4079C64.1026 38.6072 65.0624 37.814 66.5499 35.5852C67.8875 33.6139 69.2922 30.0035 69.344 26.6442C69.2805 19.573 66.8523 17.4188 66.3604 16.4498C65.6203 15.454 65.4308 15.3304 65.3715 15.2507C64.8499 14.6891 64.8943 14.778 65.2935 15.1013C65.7064 15.4529 66.4538 16.0323 67.7258 17.2046C68.9628 18.6717 71.0315 19.3087 74.0826 26.5657C75.6059 30.0476 75.8409 37.7697 73.1492 42.5613C70.573 47.4823 68.0065 49.2448 66.1 50.6811C61.3234 53.7969 59.7716 53.9597 57.9157 54.7302C56.1903 55.3455 54.8877 55.7447 53.7539 56.087C52.401 56.4887 53.1382 56.6411 52.5671 56.8223C52.1274 56.9585 52.4939 56.168 51.0795 56.824ZM225.599 32.2604C225.107 31.7405 223.328 31.8419 222.189 31.7064C222.587 32.153 224.5 32.0319 225.599 32.2604ZM75.7566 39.2419C75.2013 39.3079 73.4589 39.2859 73.3317 39.4739C73.1425 39.7158 75.6419 39.6363 75.7566 39.2419ZM241.765 37.5602C241.714 37.5824 240.374 37.5429 240.323 37.5175C239.115 36.8906 243.118 37.0137 241.765 37.5602ZM207.827 36.7514C206.689 36.8327 205.534 37.0708 205.148 36.4146C205.881 36.521 207.963 36.2992 207.827 36.7514ZM158.917 38.3237C159.163 39.1785 156.027 38.7404 155.451 38.6787C155.651 38.2919 158.733 37.7121 158.917 38.3237ZM97.3967 37.177C99.4302 37.1198 99.0255 36.3119 100.311 36.6308C100.522 36.6854 101.157 38.3656 98.9298 37.8304C98.5305 37.7318 100.117 37.2535 97.3967 37.177ZM45.9329 27.2377C45.3636 27.6928 43.87 27.3787 42.8887 27.2267C43.1678 26.879 45.1806 27.1958 45.9329 27.2377ZM213.696 30.7308C212.774 30.2393 208.51 30.2998 209.575 30.6331C209.729 30.6759 213.104 30.6713 213.696 30.7308ZM290.287 35.3432C289.138 36.0639 291.841 35.8856 292.008 35.2946C291.926 35.3232 291.572 35.3211 291.169 35.3201C290.753 35.3228 290.327 35.3189 290.287 35.3432ZM170.022 38.2475C169.937 38.2783 168.055 38.3178 167.971 38.2908C166.396 37.7117 171.721 37.5967 170.022 38.2475ZM219.412 38.0393C218.727 38.5334 214.169 38.0071 213.13 37.4702C214.148 36.7364 220.282 37.4214 219.412 38.0393ZM89.0971 37.7863C90.5253 37.7018 91.8781 37.7471 93.1939 37.8339C92.9063 38.1329 89.2395 37.9982 89.0971 37.7863ZM163.194 38.6556C163.096 38.6568 162.998 38.6117 162.904 38.6109C163.002 38.6248 163.099 38.6414 163.194 38.6556ZM60.2838 40.5077C60.1312 40.5229 60.0224 40.556 59.9441 40.5994C59.6265 40.7801 59.8154 41.14 59.8457 41.1452C59.9073 41.1501 59.9733 41.1436 60.0419 41.1283C60.5493 41.0146 61.0971 40.4298 60.2838 40.5077ZM224.313 31.4414C223.925 30.9894 221.993 31.1168 220.878 30.9223C221.202 31.2658 223.424 31.3897 224.313 31.4414ZM77.2124 32.8054C78.6347 33.8545 73.6645 32.9513 70.6949 32.3738C69.8704 32.1997 69.1745 32.0196 68.8464 31.8502C68.8275 31.6952 69.671 31.6689 70.8478 31.7498C73.2517 31.8881 77.0364 32.6636 77.2124 32.8054ZM292.533 36.0721C292.599 36.3114 292.474 36.3489 291.804 36.5798C291.211 36.8195 290.452 37.1607 289.618 37.6445C288.766 38.1491 288.317 38.4197 288.98 37.8193C289.726 37.1696 290.845 36.4639 291.584 36.1293C292.312 35.8061 292.472 35.8957 292.533 36.0721ZM65.1374 30.8854C64.4208 30.932 62.9935 30.1995 63.5844 29.966C64.335 29.6629 65.3257 30.8678 65.1374 30.8854ZM41.995 58.786C41.7155 58.7777 38.7591 60.0844 40.1248 60.2211C41.0632 60.3166 41.071 59.6008 41.2813 59.5427C41.4726 59.4895 46.9103 58.9431 41.995 58.786ZM105.052 39.3949C103.873 39.5506 102.515 39.2251 101.334 39.1601C101.843 38.8576 104.579 38.92 105.052 39.3949ZM287.13 36.8085C287.282 36.9002 289.106 36.8049 290.189 36.6399C291.268 36.4746 291.798 36.2752 290.149 36.174C290.05 36.1695 286.3 36.2634 287.13 36.8085ZM97.3967 37.177C97.1407 37.184 96.8452 37.1794 96.5034 37.158C96.8435 37.1576 97.1393 37.1695 97.3967 37.177ZM74.9906 38.309C75.4169 37.9816 73.2414 38.0772 72.6045 38.2951C72.4165 38.6712 74.919 38.3511 74.9906 38.309ZM101.193 39.7129C100.494 39.8963 99.2925 39.559 98.476 39.5147C98.646 39.1595 100.931 39.3183 101.193 39.7129ZM153.22 40.5211C151.778 40.3313 150.033 40.4656 150.01 40.936C149.98 40.8629 149.91 40.786 149.795 40.7092C149.694 40.6449 148.58 40.8092 147.842 40.7613C147.702 40.7531 147.574 40.7386 147.467 40.7156C146.457 40.5007 146.832 40.3483 147.841 40.2594C150.828 39.9946 160.284 40.1672 151.647 41.4246C152.17 41.1249 152.698 40.8236 153.22 40.5211ZM225.468 39.2809C226.325 39.8631 228.717 39.2136 228.098 38.9795C227.672 38.82 224.614 38.6952 225.468 39.2809ZM190.794 39.3051C191.071 39.3971 193.6 38.9374 193.661 38.6377C192.179 38.3472 189.518 38.8672 190.794 39.3051ZM232.003 40.0724C232.532 40.1653 233.199 39.2762 233.137 39.2362C232.602 38.8999 231.115 39.5561 232.003 40.0724ZM93.2482 35.7334C92.4374 35.5886 89.8384 36.1225 89.2667 36.5535C89.1644 36.4794 88.885 36.3887 88.3743 36.2865C88.3759 36.2864 88.3774 36.2864 88.379 36.2863C87.5506 36.0697 67.4125 37.0871 80.9149 37.086C81.3433 37.0889 80.7623 36.7411 82.5015 36.7177C82.617 36.7167 82.6696 37.0197 83.027 37.0163C83.8369 37.0039 88.2531 36.9883 89.1545 36.7136C89.1607 36.7684 89.2172 36.8184 89.339 36.8612C90.4223 37.2367 93.875 35.8388 93.2482 35.7334ZM185.814 39.5552C186.321 39.7 187.911 39.4849 188.062 39.0864C187.258 38.9187 184.63 39.2154 185.814 39.5552ZM287.555 38.2353C288.429 38.4481 290.265 37.676 289.632 37.4606C289.3 37.3309 286.579 37.996 287.555 38.2353ZM201.959 39.0413C196.023 38.581 200.546 39.0783 199.644 39.6541C200.417 39.4474 201.189 39.2432 201.959 39.0413ZM119.84 35.321C118.903 35.3184 119.992 34.5831 121.037 34.8503C121.366 34.9343 120.361 35.32 119.84 35.321ZM160.869 29.7133C160.089 29.3947 163.785 29.1038 162.368 29.6058C162.302 29.6257 160.925 29.7216 160.869 29.7133ZM132.498 33.5896C131.892 34.029 131.49 34.127 129.724 34.2418C132.326 33.83 129.895 33.7927 132.498 33.5896ZM150.026 41.0098C150.017 40.9821 150.009 40.9617 150.01 40.936C150.021 40.9612 150.025 40.9851 150.026 41.0098ZM237.046 39.9585C237.722 40.5303 239.578 40.491 239.013 39.9216C238.96 39.8698 237.313 39.5431 237.046 39.9585ZM89.2667 36.5535C89.3576 36.6192 89.3092 36.6661 89.1545 36.7136C89.1487 36.6621 89.1896 36.6114 89.2667 36.5535ZM226.852 40.2602C226.925 39.8365 223.978 39.6004 223.855 39.647C222.147 40.3465 225.644 40.2597 226.852 40.2602ZM290.345 68.1156C290.23 68.1063 290.55 69.321 290.957 69.1037C291.303 68.9448 290.836 68.1638 290.345 68.1156ZM138.419 32.6864C139.382 32.5584 140.735 32.3732 141.001 32.6041C140.356 32.6543 138.41 32.8893 138.419 32.6864ZM159.407 29.6154C158.316 30.0494 155.78 30.4384 154.15 30.6384C154.097 30.2703 158.375 29.8544 159.407 29.6154ZM95.8232 35.8402C95.7447 35.8219 93.363 35.7474 93.6792 36.0962C94.139 36.6059 96.4915 36.0078 95.8232 35.8402ZM290.621 68.8505C290.29 68.5448 290.246 68.3518 290.492 68.362C290.722 68.3603 291.18 68.4862 291.422 68.4957C291.996 68.5636 291.852 68.3648 291.489 68.6188C291.291 68.7407 291.52 69.0354 291.482 69.158C291.462 69.2175 291.358 69.2231 291.15 69.1402C290.961 69.0685 290.678 68.9032 290.621 68.8505ZM242.833 40.6879C244.125 40.3665 240.88 39.8481 240.433 40.4034C241.041 40.4474 242.373 40.8031 242.833 40.6879ZM195.035 40.7079C195.112 40.7335 195.188 40.7579 195.261 40.7812C199.69 42.2118 197.146 39.3159 196.324 39.586C196.243 39.6132 195.602 40.1202 195.253 40.4442C195.097 40.5887 194.999 40.6964 195.035 40.7079ZM202.86 28.4902C202.244 28.5789 204.576 29.079 204.862 28.8197C205.04 28.6544 203.255 28.4309 202.86 28.4902ZM128.802 41.6449C128.984 41.639 129.166 41.633 129.345 41.6276C129.21 41.6551 129.033 41.6645 128.802 41.6449ZM255.302 42.4647C252.053 40.3313 252.469 42.045 252.199 42.0457C251.606 42.0419 250.207 41.4808 249.085 41.6206C250.359 41.3214 251.619 41.026 252.872 40.7331C252.405 40.673 250.261 40.5229 248.064 40.4227C245.8 40.2933 243.449 40.1714 243.366 40.3698C243.145 40.899 245.658 40.6925 245.73 40.734C245.838 40.7974 246.299 42.2386 246.535 42.287C246.647 42.3095 247.295 42.3131 248.173 42.308C250.556 42.2806 254.466 42.2394 255.302 42.4647ZM204.794 40.4163C204.052 40.232 203.838 39.6361 203.493 39.7762C203.375 39.8242 203.359 40.3914 202.957 40.5364C203.571 40.4951 204.183 40.4552 204.794 40.4163ZM260.752 40.2827C261.667 40.9125 257.721 40.7881 257.59 40.7174C256.891 40.2899 260.009 39.7676 260.752 40.2827ZM228.314 40.7874C228.458 40.8317 231.41 41.0991 231.383 40.7196C230.612 40.4213 226.649 40.254 228.314 40.7874ZM202.46 40.5732C201.344 40.5018 199.208 39.9356 199.463 40.7913C199.464 40.7913 199.466 40.7912 199.468 40.7912C200.469 40.7148 201.466 40.6423 202.46 40.5732ZM292.081 39.953C291.02 40.9439 289.275 42.6488 288.142 44.312C287.085 45.8814 286.882 46.2328 287.341 45.1678C287.709 44.2113 289.38 41.9096 290.315 40.9753C291.525 39.7406 292.281 39.15 292.85 38.7239C292.879 38.6965 292.907 38.6704 292.934 38.6457C293.271 38.8188 293.222 38.9819 293.064 39.1631C292.83 39.3545 292.368 39.6656 292.081 39.953ZM292.182 66.8267C292.144 66.6791 291.261 66.2604 290.078 65.895C288.931 65.5404 287.699 65.2859 288.002 65.7426C288.284 66.0879 291.142 66.6578 291.121 66.7146C291.229 66.8369 290.37 67.2028 291.454 67.5559C291.503 67.3149 292.249 66.9397 292.182 66.8267ZM285.357 55.0192C285.886 59.9715 287.695 62.1242 288.597 63.3979C289.529 64.5812 290.236 65.1988 290.578 65.5298C291.355 66.2471 291.54 66.4851 291.574 66.7022C291.602 66.9057 291.48 67.0473 291.186 67.0201C291.041 67.0072 290.826 66.9343 290.491 66.7258C290.133 66.4885 289.791 66.2735 288.989 65.4398C287.898 64.3578 285.857 61.2767 285.298 57.729C284.763 54.1189 285.321 52.264 285.357 55.0192ZM291.918 39.9954C292.43 40.0884 293.746 40.0683 293.761 39.4967C293.417 39.5054 292.186 39.7017 290.915 39.8239C290.826 40.1644 291.477 39.9212 291.922 39.9948C291.921 39.995 291.92 39.9952 291.918 39.9954ZM170.945 26.067C169.395 26.029 172.941 25.5555 173.095 25.5936C173.547 25.7112 171.64 26.0802 170.945 26.067ZM190.263 20.4069C189.823 20.3272 189.521 20.0257 188.572 20.2291C189.548 20.4196 190.525 20.6157 191.501 20.818C192.221 20.2499 190.745 20.4945 190.263 20.4069ZM186.48 18.6582C186.615 18.6381 185.829 17.8839 187.615 18.3143C188.823 18.6182 182.381 19.3026 181.197 19.0204C182.478 18.7961 185.314 18.824 186.48 18.6582ZM175.029 16.153C174.953 16.1035 177.389 15.8219 177.673 15.8385C179.168 15.9382 175.443 16.43 175.029 16.153ZM182.828 15.6586C181.673 15.6069 184.208 15.2922 184.971 15.3135C185.052 15.4544 183.006 15.6659 182.828 15.6586ZM154.497 16.0196C153.208 15.4866 152.175 16.7471 154.079 16.4385C154.17 16.4237 154.552 16.0454 154.497 16.0196ZM177.38 15.2247C178.531 15.2671 176.001 15.5788 175.243 15.5606C175.167 15.4347 177.205 15.2201 177.38 15.2247ZM153.527 14.6942C151.838 14.3118 152.516 15.6849 152.727 15.7335C153.595 15.9266 156.492 15.3194 157.085 15.1828C152.704 15.4779 154.323 14.8723 153.527 14.6942ZM145.942 15.7082C144.419 15.9049 148.357 16.0925 149.081 15.675C148.318 15.7143 146.375 15.6532 145.942 15.7082ZM136.64 15.3999C135.82 15.3559 133.379 15.2363 132.987 15.4888C133.874 15.441 136.31 15.6579 136.64 15.3999ZM134.75 14.6742C133.457 14.3376 133.2 15.3307 134.657 15.028C134.714 15.0162 134.797 14.6927 134.75 14.6742ZM127.579 14.2777C126.735 13.8529 125.818 14.847 127.169 14.8897C127.569 14.8996 127.669 14.3259 127.579 14.2777ZM151.347 13.2332C150.12 13.089 148.597 13.7154 151.196 13.7548C150.29 13.8564 149.386 13.9603 148.483 14.0661C151.899 14.361 151.596 13.5279 152.576 13.5555C153.945 13.5937 153.883 14.2671 153.623 14.4842C154.713 14.0499 159.483 13.9939 162.249 13.9149C159.806 13.7611 155.848 13.4943 153.454 13.3994C152.771 13.3717 152.122 13.5641 151.541 13.5484C150.608 13.5215 151.416 13.2422 151.352 13.2331C151.35 13.2331 151.349 13.2331 151.347 13.2332ZM118.302 13.995C115.883 13.3822 117.41 14.5311 118.784 14.3971C118.843 14.3852 118.363 14.0102 118.302 13.995ZM174.015 13.3697C177.313 13.3033 174.94 13.999 181.8 12.6015C178.926 13.3763 181.656 12.9439 181.1 13.1888C180.653 13.3818 178.947 13.4435 179.95 13.6249C178.633 13.4542 173.011 14.122 172.761 14.0928C172.763 14.0926 172.765 14.0924 172.768 14.0921C172.616 14.0796 172.964 13.3906 174.015 13.3697ZM136.491 12.9298C135.61 11.7723 135.385 13.6042 133.726 12.6254C131.653 14.0144 139.648 12.6809 140.708 13.8047C131.892 13.7179 146.6 14.8897 140.344 13.233C145.454 13.8259 141.992 13.0226 142.762 12.8086C143.584 12.5843 146.48 12.8228 146.308 12.4257C146.307 12.4257 146.305 12.4257 146.304 12.4257C144.542 12.4524 142.785 12.4786 141.034 12.5014C142.807 13.3892 139.204 13.1362 137.951 12.3811C137.465 12.5625 136.978 12.7454 136.491 12.9298ZM146.474 13.7359C146.297 13.7182 142.477 13.8733 142.736 14.0483C143.251 14.157 148.684 13.9608 146.474 13.7359ZM163.467 13.4588C162.069 13.4532 159.905 13.3036 159.166 13.5971C160.559 13.5939 162.721 13.7358 163.467 13.4588ZM93.1384 11.3367C91.3629 11.5715 96.7915 12.0817 95.2324 11.5361C95.1555 11.5098 93.2252 11.3258 93.1384 11.3367ZM132.556 13.0723C130.781 12.6882 131.663 13.8539 132.956 13.5625C133.031 13.5457 132.638 13.0899 132.556 13.0723ZM176.672 12.9757C176.779 12.7558 181.559 12.3538 182.41 12.253C181.937 12.5205 176.546 13.2325 176.672 12.9757ZM165.881 12.6685C163.049 11.8374 159.332 12.72 158.922 12.71C158.511 12.6871 159.131 12.3303 159.037 12.3205C158.82 12.2963 154.458 12.3065 154.251 12.3343C154.102 12.3552 154.924 12.8788 154.037 13.0473C155.761 12.7341 163.768 12.9464 164.185 12.9047C164.505 12.8675 162.045 12.3272 165.876 12.6684C165.878 12.6684 165.879 12.6684 165.881 12.6685ZM157.884 12.5959C158.988 12.8111 155.932 12.8346 155.189 12.7556C153.535 12.5733 157.741 12.5679 157.884 12.5959ZM150.536 12.382C150.184 12.3314 147.055 12.2791 146.809 12.5403C148.307 12.8748 151.331 12.4978 150.536 12.382ZM116.408 11.7055C115.623 11.6986 113.45 11.2964 113.325 11.5714C114.119 11.5889 116.28 11.9794 116.408 11.7055ZM192.926 9.18135C191.569 9.17477 194.687 8.68963 195.607 8.66278C195.663 8.80565 193.041 9.18163 192.926 9.18135ZM132.142 10.6456C131.83 10.5879 127.591 10.5256 124.362 10.4649C122.731 10.434 121.329 10.4024 120.88 10.4191C121.325 10.5175 122.734 10.6495 124.37 10.7519C127.563 10.9472 131.725 11.0429 132.004 10.9883C132.129 10.9635 132.203 10.6594 132.142 10.6456ZM153.188 10.893C154.071 10.5886 154.688 10.978 154.803 10.9834C155.926 11.0464 158.251 11.0151 157.76 11.3019C155.766 11.1487 151.43 11.5053 153.188 10.893ZM115.741 9.78631C112.526 9.6943 118.701 10.5959 117.885 10.1017C117.837 10.0736 116.073 9.79746 115.741 9.78631ZM133.21 10.5671C133.899 10.3059 143.596 10.7528 145.182 10.7584C143.811 11.2472 142.655 10.8491 140.78 10.8436C140.275 10.8432 140.423 11.0637 140.369 11.0632C139.493 11.0602 140.134 10.8174 139.593 10.8046C139.245 10.8015 132.212 10.9696 133.21 10.5671ZM153.69 10.6806C154.224 10.5012 160.413 10.5571 160.671 10.6146C162.556 10.9874 154.164 10.7449 153.69 10.6806ZM132.305 10.0485C133.3 9.44414 138.11 10.0084 134.85 10.2316C134.54 10.2528 133.203 9.93721 132.305 10.0485ZM116.086 9.13061C115.934 9.10103 112.58 8.66865 112.515 8.89318C113.003 9.0338 117.885 9.50725 116.086 9.13061ZM117.814 8.50335C117.733 8.50237 118.514 8.99923 116.956 8.81965C116.826 8.80354 116.583 8.29465 114.616 8.30252C114.216 8.30447 113.588 8.58025 113.634 8.60501C115.704 9.57158 121.831 8.56178 117.814 8.50335ZM153.782 10.3758C153.439 10.2089 154.209 9.75312 154.95 10.0088C155.267 10.1182 154.706 10.3868 153.782 10.3758ZM105.382 7.95153C107.377 7.75304 101.145 7.05044 100.813 7.11945C101.012 7.3958 105.185 7.97292 105.382 7.95153ZM195.97 6.46115C195.968 6.46138 195.966 6.46161 195.965 6.46184C197.673 6.28481 196.63 6.68837 196.71 6.68418C200.365 6.55027 199.377 6.11076 199.943 5.96111C201.162 5.64271 200.994 6.3839 203.055 5.81493C199.648 6.70478 202.758 6.1101 202.866 6.35759C203.292 7.35156 198.29 6.45644 196.611 6.92441C196.376 6.98496 198.135 7.06822 197.535 7.24267C195.58 7.78146 189.433 7.15845 195.97 6.46115ZM155.506 9.98038C156.278 9.71902 162.355 10.1568 160.762 10.3271C160.5 10.3473 154.361 10.357 155.506 9.98038ZM149.943 88.2813C148.383 88.8315 152.015 89.457 152.673 89.0189C153 88.8049 150.626 88.0427 149.943 88.2813ZM174.541 89.708C176.251 89.4974 177.908 87.1226 175.813 87.5995C175.59 87.6512 174.328 89.4047 174.541 89.708ZM57.8165 76.3016C58.9254 77.3641 59.1351 75.9723 58.2058 75.7528C57.8728 75.6761 57.7792 76.2679 57.8165 76.3016ZM128.835 89.061C129.019 89.1177 131.136 89.0598 131.06 88.7136C130.283 88.4958 127.651 88.6794 128.835 89.061ZM57.355 76.3935C58.199 76.34 57.0417 75.0118 55.7817 75.7474C56.3452 75.7875 57.2668 76.3974 57.355 76.3935ZM128.64 8.12667C127.856 8.396 125.706 8.2184 124.295 8.16782C124.191 8.16395 124.091 8.16089 123.996 8.15893C123.966 8.07069 124.08 8.01724 124.29 7.98816C125.199 7.86901 127.839 8.15103 128.64 8.12667ZM167.098 89.1983C168.742 88.5504 165.136 88.2638 165.498 88.9937C165.546 89.0326 167.035 89.2261 167.098 89.1983ZM37.2709 17.6989C36.2404 18.2585 39.8716 18.2412 38.7586 17.7083C38.7088 17.6878 37.3337 17.6674 37.2709 17.6989ZM35.7742 34.2866C35.5307 32.1498 36.1506 27.1632 38.2584 23.7416C39.3043 21.9443 40.2539 20.832 41.2566 19.8192C42.1023 18.9766 42.8468 18.3901 43.4779 17.9439C44.9204 16.9562 45.2549 16.89 45.4684 16.8182C45.567 16.7957 45.6052 16.8125 45.6137 16.8541C45.6211 16.8967 45.5955 16.9642 45.451 17.1063C45.3623 17.1993 45.1362 17.2578 43.6893 18.2498C42.4162 19.2065 39.8334 21.0222 37.6586 25.5429C35.575 29.9343 35.8925 34.1962 35.7742 34.2866ZM200.031 5.66951C199.527 5.3417 202.35 5.03833 202.76 5.05634C202.919 5.0666 200.686 6.0982 200.031 5.66951ZM64.4412 78.7895C65.0237 78.9449 67.0861 80.0922 67.7549 79.9359C66.4196 79.4356 64.4857 77.914 64.4412 78.7895ZM159.363 89.5242C160.897 90.373 163.428 90.1805 162.751 89.0359C159.955 89.2229 163.148 90.081 159.363 89.5242ZM52.2475 76.1908C52.9007 76.3872 53.5514 75.4656 53.4883 75.4025C52.8702 74.8016 51.6446 75.6604 52.2475 76.1908ZM108.827 88.7241C108.852 89.1998 111.409 89.1392 111.08 88.8145C110.976 88.7081 108.808 88.3429 108.827 88.7241ZM98.6691 5.2353C97.5983 4.83529 100.901 4.92954 101.857 5.35937C102.318 5.87437 98.8075 5.2833 98.6691 5.2353ZM31.7172 71.9431C31.51 72.5548 35.6656 73.054 34.1373 72.1993C33.764 71.9908 31.8061 71.7486 31.7172 71.9431ZM41.4893 15.8421C40.5143 16.3456 42.3461 16.3666 43.7333 16.2268C45.207 16.0639 45.6293 15.9167 45.0504 15.5738C45.01 15.5483 44.4344 15.5522 43.5145 15.6293C42.6375 15.6975 41.5683 15.8002 41.4893 15.8421ZM38.6983 44.9135C38.8994 45.1581 38.6314 45.5752 38.1455 45.6435C37.6166 45.6503 37.0253 45.5686 35.4287 43.329C35.2043 43.0112 35.8023 43.4595 36.3163 43.779C36.8239 44.0952 37.274 44.3274 37.1628 44.1365C37.1158 44.0625 36.7766 43.6996 35.9825 42.7854C35.2384 41.8578 33.9299 40.5713 32.0446 37.1115C31.124 35.3502 29.9972 32.7541 29.5105 29.318C28.967 25.756 29.4613 21.5718 30.6428 18.446C31.817 15.2913 33.1224 13.5013 34.1313 12.1875C35.0585 11.0224 35.581 10.5236 35.744 10.3398C37.0644 8.97214 35.0442 10.0925 36.3953 8.73656C37.3446 7.69579 41.2823 5.13123 43.8117 4.34703C46.3179 3.45546 48.2746 3.15153 49.336 2.92006C51.4679 2.47381 52.1755 2.30703 52.8285 2.09057C53.3944 1.89033 53.5348 1.74247 53.6742 1.72451C54.465 1.62575 55.7813 1.82775 57.2666 1.71931C64.7013 1.13143 74.1851 1.35877 78.9505 2.67866C74.6855 1.97557 70.5134 2.1355 65.9352 2.22311C67.271 1.22602 59.0376 3.0332 63.8627 1.84843C62.8319 1.9848 58.5556 2.0197 52.9625 2.81586C51.047 3.11967 49.1387 3.40334 46.1209 4.37352C44.4869 4.95409 42.783 5.48266 39.7563 7.43786C38.3753 8.36059 36.3295 9.91529 34.3742 12.4094C32.2005 15.1124 30.1553 19.4363 29.7661 23.9054C29.2307 33.3025 32.5959 37.0102 33.7314 39.085C35.1832 41.2035 36.0572 42.0874 36.7314 42.8407C38.0252 44.2238 38.4883 44.6577 38.6931 44.9086C38.6948 44.9102 38.6966 44.9119 38.6983 44.9135ZM181.25 89.9833C180.282 90.8586 185.483 90.3697 185.858 89.4059C185.181 89.31 181.379 89.8818 181.25 89.9833ZM155.741 93.2001C155.202 93.3507 154.728 94.9692 151.829 94.1892C151.827 94.1892 151.824 94.1893 151.822 94.1893C150.973 93.9598 151.931 93.5626 151.774 93.4252C151.714 93.3709 149.084 92.591 151.259 92.4504C154.57 92.2208 151.591 93.6379 153.359 93.6331C153.583 93.6358 156.879 92.7034 156.678 92.5148C156.657 92.4935 155.669 92.6994 155.501 92.6236C154.872 92.3398 155.163 91.8345 155.074 91.8126C154.8 91.768 149.528 92.6761 148.741 91.9204C148.511 91.7096 157.136 91.0483 157.444 91.1361C157.656 91.2088 157.61 92.5964 157.832 92.7266C157.953 92.795 161.347 92.1646 161.786 92.2714C161.915 92.3033 162.014 92.3393 162.087 92.3692C161.561 91.9622 164.612 91.8676 164.537 92.3532C164.495 92.5466 162.391 92.5247 162.313 92.4933C162.279 92.4805 162.25 92.4622 162.222 92.4499C162.701 92.9686 155.472 93.1687 157.052 93.8955C154.946 94.3719 157.319 92.7494 155.741 93.2001ZM145.682 94.1118C145.883 93.9676 146.083 93.8233 146.284 93.679C142.877 94.0157 138.897 93.2883 134.879 93.2387C133.858 93.2246 135.032 94.1277 133.692 93.8656C132.619 93.6553 131.43 92.8133 132.016 92.6404C132.16 92.5976 134.346 93.1672 135.435 93.1258C138.649 93.0028 137.833 92.2298 138.022 92.212C138.229 92.1928 140.24 92.7473 141.332 92.7316C143.794 92.6951 145.053 92.3199 147.957 92.697C148.33 92.7404 148.727 92.793 149.151 92.8562C148.574 92.979 148.212 93.1354 147.959 93.2982C147.257 93.802 147.489 94.3678 145.682 94.1118ZM18.3863 19.2492C18.4488 19.0039 19.7967 18.5211 20.9426 18.2335C22.1369 17.9234 23.2752 17.7299 23.8191 17.5742C23.8188 17.9864 20.4093 18.4258 18.3863 19.2492ZM310.745 11.1837C309.962 11.1736 311.813 12.1182 314.753 14.2629C317.554 16.0048 322.315 21.9297 319.456 18.0728C318.89 17.2872 316.442 14.858 314.679 13.6356C312.854 12.3043 311.398 11.524 310.745 11.1837ZM297.739 63.5902C298.116 63.512 297.588 63.953 297.456 64.054C297.294 64.1728 297.465 64.0396 297.367 63.8075C297.338 63.731 297.189 63.782 297.255 63.7658C297.289 63.7664 297.686 63.6049 297.739 63.5902ZM99.229 91.5236C99.0776 91.5351 96.94 91.134 96.8693 91.0842C95.5277 90.1303 102.538 91.3266 99.229 91.5236ZM308.331 81.3598C311.216 79.9812 307.913 81.1711 305.693 81.8107C303.403 82.4929 301.632 83.0215 303.416 82.8548C303.506 82.8442 304.512 82.5956 305.672 82.2488C306.815 81.9141 308.191 81.4264 308.331 81.3598ZM293.497 85.2411C294.174 85.1065 297.365 84.7203 297.407 84.482C297.37 84.1451 293.753 84.5973 293.497 85.2411ZM51.3758 78.8103C51.5159 79.6698 48.5577 78.4406 47.4187 78.3277C47.2847 77.473 50.343 78.6979 51.3758 78.8103ZM64.8722 83.8613C61.6049 82.5281 61.0879 82.302 60.3474 81.9292C59.7173 81.604 59.484 81.3812 59.6355 81.29C59.7859 81.2017 60.2984 81.2413 61.0908 81.5201C61.9463 81.8208 62.8576 82.2901 65.864 83.8615C65.6835 84.3729 65.744 84.2141 64.8722 83.8613ZM53.9424 79.8753C54.4645 79.4513 55.7503 79.9033 56.5137 80.1418C56.3271 80.4686 54.6373 79.9277 53.9424 79.8753ZM301.644 6.73318C302.296 6.62817 303.895 7.12453 305.335 7.76178C306.763 8.38712 308.044 9.16801 307.415 9.03803C306.915 8.79676 301.014 6.81494 301.644 6.73318ZM97.813 92.1197C98.1359 93.0128 93.2188 92.0874 92.8284 91.8309C91.3721 90.8939 97.4253 92.288 97.813 92.1197ZM30.9335 75.4271C29.9549 75.8265 27.4601 74.9325 25.5252 74.4053C26.5386 74.1592 29.6084 75.1285 30.9335 75.4271ZM41.4828 78.0719C41.3977 78.0798 39.4566 77.6452 39.3682 77.5987C37.859 76.6987 43.3413 77.9184 41.4828 78.0719ZM193.456 3.83201C193.519 3.81078 194.975 3.58261 195.026 3.58615C196.34 3.66825 191.972 4.34296 193.456 3.83201Z" fill="white"/>
</svg>
