<svg width="70" height="58" viewBox="0 0 70 58" fill="none" xmlns="http://www.w3.org/2000/svg">
<path d="M2.81736 0.963186C2.87347 0.490713 2.53594 0.0622111 2.06347 0.00609988C1.591 -0.0500114 1.16249 0.287516 1.10638 0.759989L1.96187 0.861588L2.81736 0.963186ZM1.95008 0.96089L2.77663 1.20377L2.79703 1.13434L2.80556 1.06249L1.95008 0.96089ZM1.78237 1.53162L0.955819 1.28874L1.78237 1.53162ZM1.38621 3.04859L0.548775 2.8464L1.38621 3.04859ZM1.34678 6.30523L2.0849 6.74948L1.34678 6.30523ZM0.970781 6.92995L0.232661 6.4857L0.970781 6.92995ZM1.18852 8.22035L0.392778 8.55047L1.18852 8.22035ZM1.75921 12.0556L0.92308 12.2631L1.75921 12.0556ZM1.68728 12.7129L0.898423 12.3666L1.68728 12.7129ZM1.387 13.397L0.598134 13.0508V13.0508L1.387 13.397ZM1.43238 14.0357L0.713155 14.5099L1.43238 14.0357ZM1.82344 14.6288L2.54267 14.1545L1.82344 14.6288ZM2.25288 16.5162L3.04565 16.179L2.25288 16.5162ZM2.50709 17.1139L1.71432 17.4511L2.50709 17.1139ZM2.61515 18.4112L1.75381 18.3947L2.61515 18.4112ZM2.67392 19.0602L1.83013 19.234L2.67392 19.0602ZM2.80416 19.6926L3.64796 19.5189L2.80416 19.6926ZM2.8634 20.3512L3.72477 20.366L2.8634 20.3512ZM2.85164 21.036L1.99027 21.0212L2.85164 21.036ZM2.92999 21.6956L2.09734 21.9167L2.92999 21.6956ZM3.09844 22.33L3.93109 22.1089L3.09844 22.33ZM3.40033 22.9112L2.73562 23.4592L3.40033 22.9112ZM3.83564 23.4392L4.50035 22.8912L3.83564 23.4392ZM4.09592 24.0398L4.95059 23.9315L4.09592 24.0398ZM4.18118 24.7129L3.3265 24.8212L4.18118 24.7129ZM4.36041 25.3454L5.14257 24.9843L4.36041 25.3454ZM4.49701 25.6413L5.27917 25.2801L4.49701 25.6413ZM4.63362 25.9371L3.85146 26.2983L4.63362 25.9371ZM5.82797 27.5173L5.42194 28.2771L5.82797 27.5173ZM6.16532 27.6976L6.57135 26.9378L6.16532 27.6976ZM6.50268 27.8779L6.90871 27.118L6.50268 27.8779ZM6.80166 28.4588L5.94409 28.3767L6.80166 28.4588ZM6.7249 29.2602L7.58247 29.3424L6.7249 29.2602ZM6.98019 29.8556L7.45629 29.1377L6.98019 29.8556ZM7.27387 30.0504L6.79776 30.7684L7.27387 30.0504ZM7.56754 30.2451L8.04364 29.5271L7.56754 30.2451ZM7.91866 30.7972L7.06809 30.9339L7.91866 30.7972ZM8.03357 31.5118L8.88414 31.375L8.03357 31.5118ZM8.36414 32.0694L7.85466 32.7641L8.36414 32.0694ZM8.91038 32.47L9.41985 31.7752L8.91038 32.47ZM9.50406 32.8277L9.88394 32.0545L9.50406 32.8277ZM9.82461 32.9852L9.44473 33.7584L9.82461 32.9852ZM10.1452 33.1427L10.5251 32.3695L10.1452 33.1427ZM10.607 33.5984L11.3856 33.2298L10.607 33.5984ZM10.8894 34.1949L10.1108 34.5636L10.8894 34.1949ZM11.1551 34.8201L11.9602 34.5134L11.1551 34.8201ZM11.2796 35.1469L10.4746 35.4536L11.2796 35.1469ZM11.4041 35.4739L12.2092 35.1672L11.4041 35.4739ZM11.8665 35.9208L11.5781 36.7326L11.8665 35.9208ZM12.2043 36.0408L12.4927 35.229L12.2043 36.0408ZM12.5422 36.1608L12.8306 35.349L12.5422 36.1608ZM13.0707 36.548L12.3695 37.0485L13.0707 36.548ZM13.4522 37.0824L14.1534 36.5819L13.4522 37.0824ZM13.8546 37.5972L13.1997 38.157L13.8546 37.5972ZM14.0663 37.8449L13.4114 38.4046L14.0663 37.8449ZM14.278 38.0925L13.6231 38.6523L14.278 38.0925ZM14.7935 38.4799L14.4338 39.2627L14.7935 38.4799ZM15.4013 38.7592L15.7611 37.9764L15.4013 38.7592ZM15.9424 39.1197L16.5296 38.4893L15.9424 39.1197ZM16.1795 39.3406L15.5923 39.971L16.1795 39.3406ZM16.4167 39.5615L15.8295 40.1919L16.4167 39.5615ZM16.932 39.9439L17.3646 39.1989L16.932 39.9439ZM17.2102 40.1055L16.7777 40.8505L17.2102 40.1055ZM17.4884 40.267L17.0559 41.012L17.4884 40.267ZM18.0624 40.5704L18.4349 39.7936L18.0624 40.5704ZM18.6539 40.8541L18.2813 41.6308L18.6539 40.8541ZM19.1587 41.2565L18.4869 41.7957L19.1587 41.2565ZM19.5771 41.7778L20.2489 41.2386L19.5771 41.7778ZM20.1068 42.133L20.3507 41.3068L20.1068 42.133ZM20.4273 42.2277L20.1834 43.0539L20.4273 42.2277ZM20.7479 42.3223L20.9918 41.4961L20.7479 42.3223ZM21.3228 42.618L20.7887 43.2939L21.3228 42.618ZM21.5773 42.8191L22.1114 42.1432L21.5773 42.8191ZM21.8317 43.0201L21.2975 43.6961L21.8317 43.0201ZM22.3681 43.3728L22.7759 42.6139L22.3681 43.3728ZM22.9322 43.6759L22.5244 44.4347L22.9322 43.6759ZM23.5292 43.9253L23.2736 44.748L23.5292 43.9253ZM24.1591 44.1209L24.4147 43.2982L24.1591 44.1209ZM24.7459 44.384L24.2986 45.1202L24.7459 44.384ZM25.8456 45.034L25.4342 45.7909L25.8456 45.034ZM26.4138 45.3428L26.8252 44.5859L26.4138 45.3428ZM26.9501 45.7394L26.3534 46.3608L26.9501 45.7394ZM27.4544 46.2236L28.0511 45.6021L27.4544 46.2236ZM28.0187 46.5484L28.2395 45.7157L28.0187 46.5484ZM28.6427 46.7139L28.4218 47.5467L28.6427 46.7139ZM29.24 46.9695L29.6863 46.2326L29.24 46.9695ZM29.8107 47.315L29.3644 48.052L29.8107 47.315ZM30.4015 47.6018L30.1004 48.4089L30.4015 47.6018ZM30.707 47.7157L30.4059 48.5229L30.707 47.7157ZM31.0124 47.8297L31.3135 47.0225L31.0124 47.8297ZM31.6731 47.8829L31.5279 47.0337L31.6731 47.8829ZM32.3836 47.7614L32.5288 48.6105L32.3836 47.7614ZM33.0605 47.757L33.2092 46.9084L33.0605 47.757ZM33.7039 47.8697L33.5552 48.7183L33.7039 47.8697ZM34.3299 48.0331L34.0442 48.8458L34.3299 48.0331ZM34.9386 48.2471L35.2243 47.4343L34.9386 48.2471ZM35.5677 48.3668L35.6014 47.5059L35.5677 48.3668ZM35.8925 48.3795L35.8588 49.2403L35.8925 48.3795ZM36.2173 48.3922L36.251 47.5314L36.2173 48.3922ZM36.8515 48.5034L36.5902 49.3243L36.8515 48.5034ZM37.4704 48.7005L37.209 49.5214L37.4704 48.7005ZM38.0686 49.0015L37.5739 49.7069L38.0686 49.0015ZM38.6461 49.4066L38.1515 50.1119L38.6461 49.4066ZM39.2695 49.5563L39.135 48.7053L39.2695 49.5563ZM39.604 49.5034L39.7385 50.3544L39.604 49.5034ZM39.9386 49.4506L40.073 50.3015L39.9386 49.4506ZM40.6013 49.3942L40.6105 50.2556L40.6013 49.3942ZM40.9294 49.3907L40.9202 48.5292L40.9294 49.3907ZM41.2575 49.3872L41.2667 50.2486L41.2575 49.3872ZM41.8752 49.6557L41.2853 50.2836L41.8752 49.6557ZM42.1647 49.9278L42.7547 49.3L42.1647 49.9278ZM42.4543 50.1999L41.8644 50.8277L42.4543 50.1999ZM43.0604 50.5067L43.1544 49.6504L43.0604 50.5067ZM43.3769 50.5415L43.4709 49.6851L43.3769 50.5415ZM43.6934 50.5762L43.7874 49.7199L43.6934 50.5762ZM44.3401 50.572L44.2391 49.7165L44.3401 50.572ZM44.6704 50.533L44.5694 49.6775L44.6704 50.533ZM45.0006 50.494L45.1016 51.3496L45.0006 50.494ZM45.6505 50.5476L45.4108 51.3751L45.6505 50.5476ZM45.9702 50.6402L46.2099 49.8128L45.9702 50.6402ZM46.2898 50.7328L46.0501 51.5603L46.2898 50.7328ZM46.9467 50.681L47.2859 51.4729L46.9467 50.681ZM47.284 50.5366L47.6232 51.3285L47.284 50.5366ZM47.6213 50.3921L47.2822 49.6002L47.6213 50.3921ZM48.267 50.3795L48.6055 49.5873L48.267 50.3795ZM48.8839 50.6431L48.5454 51.4353L48.8839 50.6431ZM49.5125 50.8466L49.7008 50.0059L49.5125 50.8466ZM50.1528 50.99L49.9646 51.8306L50.1528 50.99ZM50.8009 51.1059L50.6858 51.9597L50.8009 51.1059ZM51.1289 51.1501L51.2441 50.2964L51.1289 51.1501ZM51.4569 51.1944L51.5721 50.3406L51.4569 51.1944ZM52.1079 51.1354L52.3701 51.956L52.1079 51.1354ZM52.754 50.929L52.4918 50.1083L52.754 50.929ZM53.3929 50.969L53.7488 50.1845V50.1845L53.3929 50.969ZM54.0247 51.2556L53.6689 52.0402V52.0402L54.0247 51.2556ZM54.6674 51.3428L54.5216 50.4938L54.6674 51.3428ZM55.3209 51.2306L55.4667 52.0797L55.3209 51.2306ZM55.9779 51.1134L56.1348 51.9604L55.9779 51.1134ZM56.6384 50.991L56.4815 50.1439L56.6384 50.991ZM57.2848 50.8851L57.4055 51.7381L57.2848 50.8851ZM57.601 50.8404L57.4803 49.9874L57.601 50.8404ZM57.9172 50.7957L57.7965 49.9427L57.9172 50.7957ZM58.5526 50.7486L58.5461 49.8871L58.5526 50.7486ZM59.1909 50.7438L59.1974 51.6052L59.1909 50.7438ZM59.8355 50.7975L59.982 49.9486L59.8355 50.7975ZM60.4864 50.9098L60.3398 51.7588L60.4864 50.9098ZM61.1386 50.9037L60.9773 50.0574L61.1386 50.9037ZM61.7923 50.7791L61.9536 51.6253L61.7923 50.7791ZM62.4469 50.9027L62.022 51.6521L62.4469 50.9027ZM62.7747 51.0886L62.3498 51.838L62.7747 51.0886ZM63.1026 51.2745L63.5275 50.5251L63.1026 51.2745ZM63.7419 51.2976L63.3429 50.5341L63.7419 51.2976ZM64.0533 51.1349L64.4523 51.8984L64.0533 51.1349ZM64.3648 50.9721L64.7637 51.7357L64.3648 50.9721ZM65.0079 50.9297L64.7142 51.7396L65.0079 50.9297ZM65.3396 51.0499L65.6333 50.24L65.3396 51.0499ZM65.6714 51.1702L65.3777 51.9801L65.6714 51.1702ZM66.321 51.1354L66.6987 51.9097L66.321 51.1354ZM66.9568 50.8253L66.5791 50.051L66.9568 50.8253ZM67.4859 50.5845L67.8098 51.3828L67.4859 50.5845ZM67.9081 50.4132L67.5842 49.6149L67.9081 50.4132ZM68.1258 50.4087L67.2671 50.4781L68.1258 50.4087ZM68.1323 50.4898L68.8978 50.885L69.0109 50.666L68.991 50.4204L68.1323 50.4898ZM68.0456 50.6578L67.2801 50.2626L66.5879 51.6033L68.0944 51.5179L68.0456 50.6578ZM68.7881 51.2258C69.105 50.8709 69.0741 50.3263 68.7192 50.0094L62.9352 44.8459C62.5803 44.5291 62.0357 44.5599 61.7188 44.9149C61.4019 45.2698 61.4328 45.8144 61.7877 46.1312L66.9291 50.7211L62.3393 55.8624C62.0224 56.2173 62.0533 56.7619 62.4082 57.0788C62.7631 57.3956 63.3077 57.3648 63.6246 57.0098L68.7881 51.2258ZM1.96187 0.861588L1.10638 0.759989L1.09459 0.859291L1.95008 0.96089L2.80556 1.06249L2.81736 0.963186L1.96187 0.861588ZM1.95008 0.96089L1.12352 0.718014L0.955819 1.28874L1.78237 1.53162L2.60893 1.77449L2.77663 1.20377L1.95008 0.96089ZM1.78237 1.53162L0.955819 1.28874C0.842731 1.6736 0.756799 1.98479 0.701081 2.21557L1.53852 2.41776L2.37596 2.61995C2.42177 2.43017 2.49841 2.1506 2.60893 1.77449L1.78237 1.53162ZM1.53852 2.41776L0.701081 2.21557L0.624928 2.53098L1.46237 2.73317L2.2998 2.93536L2.37596 2.61995L1.53852 2.41776ZM1.46237 2.73317L0.624928 2.53098L0.548775 2.8464L1.38621 3.04859L2.22365 3.25077L2.2998 2.93536L1.46237 2.73317ZM1.38621 3.04859L0.548775 2.8464C0.481425 3.12535 0.44884 3.40945 0.450732 3.69711L1.31221 3.69144L2.17369 3.68577C2.17271 3.53684 2.18946 3.39237 2.22365 3.25077L1.38621 3.04859ZM1.31221 3.69144L0.450732 3.69711L0.452886 4.02455L1.31437 4.01888L2.17585 4.01321L2.17369 3.68577L1.31221 3.69144ZM1.31437 4.01888L0.452886 4.02455L0.45504 4.35199L1.31652 4.34632L2.178 4.34065L2.17585 4.01321L1.31437 4.01888ZM1.31652 4.34632L0.45504 4.35199C0.456776 4.61595 0.479429 4.8797 0.522536 5.14282L1.3727 5.00354L2.22287 4.86425C2.19394 4.68767 2.17914 4.51327 2.178 4.34065L1.31652 4.34632ZM1.3727 5.00354L0.522536 5.14282L0.576563 5.4726L1.42673 5.33331L2.27689 5.19403L2.22287 4.86425L1.3727 5.00354ZM1.42673 5.33331L0.576563 5.4726L0.63059 5.80237L1.48076 5.66309L2.33092 5.52381L2.27689 5.19403L1.42673 5.33331ZM1.48076 5.66309L0.63059 5.80237C0.631351 5.80702 0.631324 5.80926 0.631314 5.80974C0.631305 5.81019 0.631281 5.81091 0.630936 5.81256C0.630443 5.81493 0.626967 5.83056 0.608662 5.86098L1.34678 6.30523L2.0849 6.74948C2.3053 6.38329 2.40307 5.96419 2.33092 5.52381L1.48076 5.66309ZM1.34678 6.30523L0.608662 5.86098L0.420661 6.17334L1.15878 6.61759L1.8969 7.06184L2.0849 6.74948L1.34678 6.30523ZM1.15878 6.61759L0.420661 6.17334L0.232661 6.4857L0.970781 6.92995L1.7089 7.3742L1.8969 7.06184L1.15878 6.61759ZM0.970781 6.92995L0.232661 6.4857C-0.0282464 6.9192 -0.0766838 7.41883 0.122285 7.89844L0.918027 7.56833L1.71377 7.23821C1.71582 7.24316 1.72579 7.27276 1.72217 7.31668C1.71862 7.35952 1.70506 7.38059 1.7089 7.3742L0.970781 6.92995ZM0.918027 7.56833L0.122285 7.89844L0.257531 8.22445L1.05327 7.89434L1.84902 7.56422L1.71377 7.23821L0.918027 7.56833ZM1.05327 7.89434L0.257531 8.22445L0.392778 8.55047L1.18852 8.22035L1.98426 7.89024L1.84902 7.56422L1.05327 7.89434ZM1.18852 8.22035L0.392778 8.55047C0.442736 8.67089 0.460624 8.77352 0.459977 8.86408L1.32145 8.87023L2.18293 8.87638C2.18537 8.53511 2.11463 8.2045 1.98426 7.89024L1.18852 8.22035ZM1.32145 8.87023L0.459977 8.86408L0.457664 9.18795L1.31914 9.1941L2.18062 9.20025L2.18293 8.87638L1.32145 8.87023ZM1.31914 9.1941L0.457664 9.18795L0.455352 9.51182L1.31683 9.51797L2.17831 9.52412L2.18062 9.20025L1.31914 9.1941ZM1.31683 9.51797L0.455352 9.51182C0.453461 9.77656 0.473996 10.0394 0.517107 10.2997L1.36703 10.1589L2.21695 10.0182C2.19005 9.85569 2.17711 9.6912 2.17831 9.52412L1.31683 9.51797ZM1.36703 10.1589L0.517107 10.2997L0.569621 10.6168L1.41954 10.476L2.26947 10.3352L2.21695 10.0182L1.36703 10.1589ZM1.41954 10.476L0.569621 10.6168L0.622134 10.9338L1.47206 10.7931L2.32198 10.6523L2.26947 10.3352L1.41954 10.476ZM1.47206 10.7931L0.622134 10.9338C0.660895 11.1679 0.709089 11.4009 0.766651 11.6328L1.60278 11.4253L2.43892 11.2178C2.39219 11.0295 2.35324 10.8411 2.32198 10.6523L1.47206 10.7931ZM1.60278 11.4253L0.766651 11.6328L0.844866 11.948L1.681 11.7405L2.51713 11.533L2.43892 11.2178L1.60278 11.4253ZM1.681 11.7405L0.844866 11.948L0.92308 12.2631L1.75921 12.0556L2.59535 11.8481L2.51713 11.533L1.681 11.7405ZM1.75921 12.0556L0.92308 12.2631C0.924276 12.268 0.925111 12.2732 0.923953 12.2838C0.922648 12.2957 0.917762 12.3226 0.898423 12.3666L1.68728 12.7129L2.47615 13.0591C2.6407 12.6842 2.70007 12.2701 2.59535 11.8481L1.75921 12.0556ZM1.68728 12.7129L0.898423 12.3666L0.748279 12.7087L1.53714 13.055L2.326 13.4012L2.47615 13.0591L1.68728 12.7129ZM1.53714 13.055L0.748279 12.7087L0.598134 13.0508L1.387 13.397L2.17586 13.7433L2.326 13.4012L1.53714 13.055ZM1.387 13.397L0.598134 13.0508C0.387891 13.5298 0.41218 14.0534 0.713155 14.5099L1.43238 14.0357L2.15161 13.5614C2.15869 13.5722 2.17857 13.61 2.1826 13.6667C2.18649 13.7213 2.1726 13.7507 2.17586 13.7433L1.387 13.397ZM1.43238 14.0357L0.713155 14.5099L0.908685 14.8065L1.62791 14.3322L2.34714 13.858L2.15161 13.5614L1.43238 14.0357ZM1.62791 14.3322L0.908685 14.8065L1.10421 15.103L1.82344 14.6288L2.54267 14.1545L2.34714 13.858L1.62791 14.3322ZM1.82344 14.6288L1.10421 15.103C1.16285 15.1919 1.18232 15.2614 1.1871 15.3193L2.04567 15.2483L2.90424 15.1774C2.87343 14.8045 2.74474 14.461 2.54267 14.1545L1.82344 14.6288ZM2.04567 15.2483L1.1871 15.3193L1.2138 15.6423L2.07237 15.5713L2.93094 15.5004L2.90424 15.1774L2.04567 15.2483ZM2.07237 15.5713L1.2138 15.6423L1.2405 15.9653L2.09907 15.8944L2.95764 15.8234L2.93094 15.5004L2.07237 15.5713ZM2.09907 15.8944L1.2405 15.9653C1.26589 16.2725 1.33943 16.5697 1.46011 16.8534L2.25288 16.5162L3.04565 16.179C2.99685 16.0643 2.96785 15.9469 2.95764 15.8234L2.09907 15.8944ZM2.25288 16.5162L1.46011 16.8534L1.58721 17.1523L2.37998 16.8151L3.17275 16.4779L3.04565 16.179L2.25288 16.5162ZM2.37998 16.8151L1.58721 17.1523L1.71432 17.4511L2.50709 17.1139L3.29986 16.7767L3.17275 16.4779L2.37998 16.8151ZM2.50709 17.1139L1.71432 17.4511C1.75033 17.5358 1.76848 17.6255 1.76651 17.7291L2.62785 17.7456L3.48919 17.762C3.49568 17.4218 3.43332 17.0905 3.29986 16.7767L2.50709 17.1139ZM2.62785 17.7456L1.76651 17.7291L1.76016 18.0619L2.6215 18.0784L3.48284 18.0948L3.48919 17.762L2.62785 17.7456ZM2.6215 18.0784L1.76016 18.0619L1.75381 18.3947L2.61515 18.4112L3.4765 18.4276L3.48284 18.0948L2.6215 18.0784ZM2.61515 18.4112L1.75381 18.3947C1.7484 18.6785 1.77344 18.9587 1.83013 19.234L2.67392 19.0602L3.51772 18.8864C3.48758 18.7401 3.47345 18.5876 3.4765 18.4276L2.61515 18.4112ZM2.67392 19.0602L1.83013 19.234L1.89525 19.5502L2.73904 19.3764L3.58284 19.2026L3.51772 18.8864L2.67392 19.0602ZM2.73904 19.3764L1.89525 19.5502L1.96037 19.8664L2.80416 19.6926L3.64796 19.5189L3.58284 19.2026L2.73904 19.3764ZM2.80416 19.6926L1.96037 19.8664C1.99026 20.0116 2.00493 20.1677 2.00203 20.3364L2.8634 20.3512L3.72477 20.366C3.72971 20.0783 3.70489 19.7953 3.64796 19.5189L2.80416 19.6926ZM2.8634 20.3512L2.00203 20.3364L1.99615 20.6788L2.85752 20.6936L3.71889 20.7084L3.72477 20.366L2.8634 20.3512ZM2.85752 20.6936L1.99615 20.6788L1.99027 21.0212L2.85164 21.036L3.71301 21.0508L3.71889 20.7084L2.85752 20.6936ZM2.85164 21.036L1.99027 21.0212C1.98504 21.3256 2.01989 21.6251 2.09734 21.9167L2.92999 21.6956L3.76263 21.4745C3.72778 21.3433 3.7104 21.203 3.71301 21.0508L2.85164 21.036ZM2.92999 21.6956L2.09734 21.9167L2.18157 22.2339L3.01422 22.0128L3.84686 21.7917L3.76263 21.4745L2.92999 21.6956ZM3.01422 22.0128L2.18157 22.2339L2.2658 22.5511L3.09844 22.33L3.93109 22.1089L3.84686 21.7917L3.01422 22.0128ZM3.09844 22.33L2.2658 22.5511C2.35512 22.8875 2.51511 23.1918 2.73562 23.4592L3.40033 22.9112L4.06504 22.3632C3.99534 22.2786 3.95407 22.1955 3.93109 22.1089L3.09844 22.33ZM3.40033 22.9112L2.73562 23.4592L2.95327 23.7232L3.61798 23.1752L4.2827 22.6272L4.06504 22.3632L3.40033 22.9112ZM3.61798 23.1752L2.95327 23.7232L3.17093 23.9872L3.83564 23.4392L4.50035 22.8912L4.2827 22.6272L3.61798 23.1752ZM3.83564 23.4392L3.17093 23.9872C3.21334 24.0387 3.23348 24.0867 3.24125 24.148L4.09592 24.0398L4.95059 23.9315C4.90152 23.5441 4.74815 23.1917 4.50035 22.8912L3.83564 23.4392ZM4.09592 24.0398L3.24125 24.148L3.28388 24.4846L4.13855 24.3763L4.99322 24.2681L4.95059 23.9315L4.09592 24.0398ZM4.13855 24.3763L3.28388 24.4846L3.3265 24.8212L4.18118 24.7129L5.03585 24.6047L4.99322 24.2681L4.13855 24.3763ZM4.18118 24.7129L3.3265 24.8212C3.36555 25.1294 3.44871 25.4259 3.57825 25.7065L4.36041 25.3454L5.14257 24.9843C5.08997 24.8703 5.05364 24.7452 5.03585 24.6047L4.18118 24.7129ZM4.36041 25.3454L3.57825 25.7065L3.71485 26.0024L4.49701 25.6413L5.27917 25.2801L5.14257 24.9843L4.36041 25.3454ZM4.49701 25.6413L3.71485 26.0024L3.85146 26.2983L4.63362 25.9371L5.41578 25.576L5.27917 25.2801L4.49701 25.6413ZM4.63362 25.9371L3.85146 26.2983C3.96026 26.5339 4.08616 26.7612 4.22883 26.9798L4.95032 26.509L5.67181 26.0382C5.57435 25.8889 5.48912 25.7349 5.41578 25.576L4.63362 25.9371ZM4.95032 26.509L4.22883 26.9798L4.40892 27.2558L5.13042 26.785L5.85191 26.3143L5.67181 26.0382L4.95032 26.509ZM5.13042 26.785L4.40892 27.2558L4.58902 27.5318L5.31051 27.061L6.03201 26.5903L5.85191 26.3143L5.13042 26.785ZM5.31051 27.061L4.58902 27.5318C4.80015 27.8554 5.08991 28.0997 5.42194 28.2771L5.82797 27.5173L6.23399 26.7575C6.11621 26.6946 6.061 26.6347 6.03201 26.5903L5.31051 27.061ZM5.82797 27.5173L5.42194 28.2771L5.7593 28.4574L6.16532 27.6976L6.57135 26.9378L6.23399 26.7575L5.82797 27.5173ZM6.16532 27.6976L5.7593 28.4574L6.09666 28.6377L6.50268 27.8779L6.90871 27.118L6.57135 26.9378L6.16532 27.6976ZM6.50268 27.8779L6.09666 28.6377C6.08184 28.6298 6.02332 28.5915 5.98009 28.5075C5.93857 28.4268 5.94481 28.3692 5.94409 28.3767L6.80166 28.4588L7.65924 28.541C7.6841 28.2814 7.6533 27.9934 7.51212 27.719C7.36923 27.4414 7.14844 27.2461 6.90871 27.118L6.50268 27.8779ZM6.80166 28.4588L5.94409 28.3767L5.90571 28.7774L6.76328 28.8595L7.62085 28.9417L7.65924 28.541L6.80166 28.4588ZM6.76328 28.8595L5.90571 28.7774L5.86733 29.1781L6.7249 29.2602L7.58247 29.3424L7.62085 28.9417L6.76328 28.8595ZM6.7249 29.2602L5.86733 29.1781C5.84405 29.4211 5.86604 29.6884 5.97774 29.9489C6.09222 30.2159 6.27916 30.4245 6.50409 30.5736L6.98019 29.8556L7.45629 29.1377C7.46811 29.1455 7.48761 29.1607 7.50872 29.1853C7.5302 29.2105 7.54827 29.2395 7.56132 29.2699C7.58793 29.332 7.58016 29.3665 7.58247 29.3424L6.7249 29.2602ZM6.98019 29.8556L6.50409 30.5736L6.79776 30.7684L7.27387 30.0504L7.74997 29.3324L7.45629 29.1377L6.98019 29.8556ZM7.27387 30.0504L6.79776 30.7684L7.09144 30.9631L7.56754 30.2451L8.04364 29.5271L7.74997 29.3324L7.27387 30.0504ZM7.56754 30.2451L7.09144 30.9631C7.09501 30.9655 7.09361 30.965 7.08946 30.9608C7.08517 30.9565 7.08003 30.9504 7.07524 30.9429C7.07047 30.9354 7.06781 30.9293 7.06666 30.9261C7.06559 30.9232 7.06669 30.9252 7.06809 30.9339L7.91866 30.7972L8.76924 30.6604C8.69391 30.1919 8.44599 29.7939 8.04364 29.5271L7.56754 30.2451ZM7.91866 30.7972L7.06809 30.9339L7.12554 31.2912L7.97611 31.1545L8.82669 31.0177L8.76924 30.6604L7.91866 30.7972ZM7.97611 31.1545L7.12554 31.2912L7.18299 31.6485L8.03357 31.5118L8.88414 31.375L8.82669 31.0177L7.97611 31.1545ZM8.03357 31.5118L7.18299 31.6485C7.25452 32.0934 7.4766 32.4868 7.85466 32.7641L8.36414 32.0694L8.87361 31.3747C8.87178 31.3733 8.87334 31.3742 8.87662 31.3778C8.87997 31.3815 8.8833 31.3859 8.88599 31.3905C8.88864 31.3949 8.88933 31.3972 8.88886 31.3959C8.88833 31.3944 8.88621 31.3879 8.88414 31.375L8.03357 31.5118ZM8.36414 32.0694L7.85466 32.7641L8.12778 32.9644L8.63726 32.2697L9.14673 31.5749L8.87361 31.3747L8.36414 32.0694ZM8.63726 32.2697L8.12778 32.9644L8.4009 33.1647L8.91038 32.47L9.41985 31.7752L9.14673 31.5749L8.63726 32.2697ZM8.91038 32.47L8.4009 33.1647C8.62594 33.3297 8.8675 33.4749 9.12417 33.601L9.50406 32.8277L9.88394 32.0545C9.7132 31.9706 9.55898 31.8773 9.41985 31.7752L8.91038 32.47ZM9.50406 32.8277L9.12417 33.601L9.44473 33.7584L9.82461 32.9852L10.2045 32.212L9.88394 32.0545L9.50406 32.8277ZM9.82461 32.9852L9.44473 33.7584L9.76529 33.9159L10.1452 33.1427L10.5251 32.3695L10.2045 32.212L9.82461 32.9852ZM10.1452 33.1427L9.76529 33.9159C9.81955 33.9426 9.82459 33.9592 9.82833 33.9671L10.607 33.5984L11.3856 33.2298C11.201 32.84 10.8982 32.5528 10.5251 32.3695L10.1452 33.1427ZM10.607 33.5984L9.82833 33.9671L9.96955 34.2654L10.7482 33.8967L11.5268 33.528L11.3856 33.2298L10.607 33.5984ZM10.7482 33.8967L9.96955 34.2654L10.1108 34.5636L10.8894 34.1949L11.668 33.8262L11.5268 33.528L10.7482 33.8967ZM10.8894 34.1949L10.1108 34.5636C10.1947 34.7409 10.2746 34.9285 10.35 35.1267L11.1551 34.8201L11.9602 34.5134C11.8697 34.2757 11.7723 34.0466 11.668 33.8262L10.8894 34.1949ZM11.1551 34.8201L10.35 35.1267L10.4746 35.4536L11.2796 35.1469L12.0847 34.8403L11.9602 34.5134L11.1551 34.8201ZM11.2796 35.1469L10.4746 35.4536L10.5991 35.7805L11.4041 35.4739L12.2092 35.1672L12.0847 34.8403L11.2796 35.1469ZM11.4041 35.4739L10.5991 35.7805C10.7745 36.2411 11.1218 36.5704 11.5781 36.7326L11.8665 35.9208L12.1549 35.109C12.1449 35.1054 12.1596 35.1092 12.1807 35.1296C12.1904 35.1389 12.1979 35.1485 12.2033 35.1568C12.2085 35.1648 12.2099 35.1691 12.2092 35.1672L11.4041 35.4739ZM11.8665 35.9208L11.5781 36.7326L11.916 36.8526L12.2043 36.0408L12.4927 35.229L12.1549 35.109L11.8665 35.9208ZM12.2043 36.0408L11.916 36.8526L12.2538 36.9726L12.5422 36.1608L12.8306 35.349L12.4927 35.229L12.2043 36.0408ZM12.5422 36.1608L12.2538 36.9726C12.3289 36.9993 12.3544 37.0273 12.3695 37.0485L13.0707 36.548L13.7719 36.0475C13.5328 35.7125 13.206 35.4824 12.8306 35.349L12.5422 36.1608ZM13.0707 36.548L12.3695 37.0485L12.5603 37.3157L13.2615 36.8152L13.9627 36.3147L13.7719 36.0475L13.0707 36.548ZM13.2615 36.8152L12.5603 37.3157L12.751 37.5829L13.4522 37.0824L14.1534 36.5819L13.9627 36.3147L13.2615 36.8152ZM13.4522 37.0824L12.751 37.5829C12.8926 37.7812 13.0421 37.9726 13.1997 38.157L13.8546 37.5972L14.5094 37.0374C14.3847 36.8915 14.266 36.7397 14.1534 36.5819L13.4522 37.0824ZM13.8546 37.5972L13.1997 38.157L13.4114 38.4046L14.0663 37.8449L14.7211 37.2851L14.5094 37.0374L13.8546 37.5972ZM14.0663 37.8449L13.4114 38.4046L13.6231 38.6523L14.278 38.0925L14.9328 37.5328L14.7211 37.2851L14.0663 37.8449ZM14.278 38.0925L13.6231 38.6523C13.8475 38.9148 14.1209 39.1189 14.4338 39.2627L14.7935 38.4799L15.1533 37.6971C15.061 37.6546 14.9907 37.6005 14.9328 37.5328L14.278 38.0925ZM14.7935 38.4799L14.4338 39.2627L14.7377 39.4023L15.0974 38.6195L15.4572 37.8367L15.1533 37.6971L14.7935 38.4799ZM15.0974 38.6195L14.7377 39.4023L15.0416 39.542L15.4013 38.7592L15.7611 37.9764L15.4572 37.8367L15.0974 38.6195ZM15.4013 38.7592L15.0416 39.542C15.1634 39.598 15.2664 39.6675 15.3552 39.7501L15.9424 39.1197L16.5296 38.4893C16.3021 38.2775 16.0444 38.1066 15.7611 37.9764L15.4013 38.7592ZM15.9424 39.1197L15.3552 39.7501L15.5923 39.971L16.1795 39.3406L16.7667 38.7102L16.5296 38.4893L15.9424 39.1197ZM16.1795 39.3406L15.5923 39.971L15.8295 40.1919L16.4167 39.5615L17.0039 38.9311L16.7667 38.7102L16.1795 39.3406ZM16.4167 39.5615L15.8295 40.1919C16.0343 40.3827 16.2579 40.5487 16.4995 40.689L16.932 39.9439L17.3646 39.1989C17.2352 39.1238 17.1152 39.0348 17.0039 38.9311L16.4167 39.5615ZM16.932 39.9439L16.4995 40.689L16.7777 40.8505L17.2102 40.1055L17.6428 39.3604L17.3646 39.1989L16.932 39.9439ZM17.2102 40.1055L16.7777 40.8505L17.0559 41.012L17.4884 40.267L17.921 39.522L17.6428 39.3604L17.2102 40.1055ZM17.4884 40.267L17.0559 41.012C17.2613 41.1313 17.4726 41.243 17.6898 41.3471L18.0624 40.5704L18.4349 39.7936C18.2578 39.7086 18.0865 39.6181 17.921 39.522L17.4884 40.267ZM18.0624 40.5704L17.6898 41.3471L17.9855 41.489L18.3581 40.7122L18.7307 39.9354L18.4349 39.7936L18.0624 40.5704ZM18.3581 40.7122L17.9855 41.489L18.2813 41.6308L18.6539 40.8541L19.0264 40.0773L18.7307 39.9354L18.3581 40.7122ZM18.6539 40.8541L18.2813 41.6308C18.3599 41.6685 18.4266 41.7206 18.4869 41.7957L19.1587 41.2565L19.8306 40.7173C19.612 40.4449 19.3421 40.2287 19.0264 40.0773L18.6539 40.8541ZM19.1587 41.2565L18.4869 41.7957L18.696 42.0564L19.3679 41.5171L20.0398 40.9779L19.8306 40.7173L19.1587 41.2565ZM19.3679 41.5171L18.696 42.0564L18.9052 42.317L19.5771 41.7778L20.2489 41.2386L20.0398 40.9779L19.3679 41.5171ZM19.5771 41.7778L18.9052 42.317C19.1546 42.6278 19.4806 42.8464 19.8628 42.9593L20.1068 42.133L20.3507 41.3068C20.3056 41.2934 20.2783 41.2752 20.2489 41.2386L19.5771 41.7778ZM20.1068 42.133L19.8628 42.9593L20.1834 43.0539L20.4273 42.2277L20.6712 41.4014L20.3507 41.3068L20.1068 42.133ZM20.4273 42.2277L20.1834 43.0539L20.5039 43.1485L20.7479 42.3223L20.9918 41.4961L20.6712 41.4014L20.4273 42.2277ZM20.7479 42.3223L20.5039 43.1485C20.6155 43.1815 20.708 43.2301 20.7887 43.2939L21.3228 42.618L21.857 41.9421C21.5985 41.7378 21.3076 41.5893 20.9918 41.4961L20.7479 42.3223ZM21.3228 42.618L20.7887 43.2939L21.0431 43.495L21.5773 42.8191L22.1114 42.1432L21.857 41.9421L21.3228 42.618ZM21.5773 42.8191L21.0431 43.495L21.2975 43.6961L21.8317 43.0201L22.3658 42.3442L22.1114 42.1432L21.5773 42.8191ZM21.8317 43.0201L21.2975 43.6961C21.5062 43.861 21.7273 44.0064 21.9603 44.1316L22.3681 43.3728L22.7759 42.6139C22.633 42.5371 22.4964 42.4474 22.3658 42.3442L21.8317 43.0201ZM22.3681 43.3728L21.9603 44.1316L22.2424 44.2832L22.6502 43.5243L23.0579 42.7655L22.7759 42.6139L22.3681 43.3728ZM22.6502 43.5243L22.2424 44.2832L22.5244 44.4347L22.9322 43.6759L23.34 42.917L23.0579 42.7655L22.6502 43.5243ZM22.9322 43.6759L22.5244 44.4347C22.7624 44.5627 23.0125 44.6669 23.2736 44.748L23.5292 43.9253L23.7847 43.1025C23.6258 43.0532 23.478 42.9912 23.34 42.917L22.9322 43.6759ZM23.5292 43.9253L23.2736 44.748L23.5885 44.8458L23.8441 44.0231L24.0997 43.2004L23.7847 43.1025L23.5292 43.9253ZM23.8441 44.0231L23.5885 44.8458L23.9035 44.9437L24.1591 44.1209L24.4147 43.2982L24.0997 43.2004L23.8441 44.0231ZM24.1591 44.1209L23.9035 44.9437C24.0487 44.9888 24.1797 45.048 24.2986 45.1202L24.7459 44.384L25.1933 43.6477C24.9497 43.4997 24.6894 43.3836 24.4147 43.2982L24.1591 44.1209ZM24.7459 44.384L24.2986 45.1202L24.5705 45.2854L25.0178 44.5492L25.4651 43.8129L25.1933 43.6477L24.7459 44.384ZM25.0178 44.5492L24.5705 45.2854L24.8423 45.4506L25.2897 44.7143L25.737 43.9781L25.4651 43.8129L25.0178 44.5492ZM25.2897 44.7143L24.8423 45.4506C25.0356 45.568 25.2329 45.6814 25.4342 45.7909L25.8456 45.034L26.2571 44.2771C26.0796 44.1806 25.9063 44.0809 25.737 43.9781L25.2897 44.7143ZM25.8456 45.034L25.4342 45.7909L25.7183 45.9453L26.1297 45.1884L26.5412 44.4315L26.2571 44.2771L25.8456 45.034ZM26.1297 45.1884L25.7183 45.9453L26.0023 46.0997L26.4138 45.3428L26.8252 44.5859L26.5412 44.4315L26.1297 45.1884ZM26.4138 45.3428L26.0023 46.0997C26.119 46.1631 26.2362 46.2483 26.3534 46.3608L26.9501 45.7394L27.5467 45.1179C27.3276 44.9076 27.0873 44.7284 26.8252 44.5859L26.4138 45.3428ZM26.9501 45.7394L26.3534 46.3608L26.6056 46.6029L27.2022 45.9815L27.7989 45.36L27.5467 45.1179L26.9501 45.7394ZM27.2022 45.9815L26.6056 46.6029L26.8578 46.845L27.4544 46.2236L28.0511 45.6021L27.7989 45.36L27.2022 45.9815ZM27.4544 46.2236L26.8578 46.845C27.1223 47.0989 27.4371 47.2855 27.7978 47.3811L28.0187 46.5484L28.2395 45.7157C28.1842 45.7011 28.1228 45.671 28.0511 45.6021L27.4544 46.2236ZM28.0187 46.5484L27.7978 47.3811L28.1098 47.4639L28.3307 46.6312L28.5515 45.7985L28.2395 45.7157L28.0187 46.5484ZM28.3307 46.6312L28.1098 47.4639L28.4218 47.5467L28.6427 46.7139L28.8635 45.8812L28.5515 45.7985L28.3307 46.6312ZM28.6427 46.7139L28.4218 47.5467C28.5479 47.5801 28.6714 47.6323 28.7938 47.7064L29.24 46.9695L29.6863 46.2326C29.4282 46.0763 29.1535 45.9581 28.8635 45.8812L28.6427 46.7139ZM29.24 46.9695L28.7938 47.7064L29.0791 47.8792L29.5253 47.1423L29.9716 46.4053L29.6863 46.2326L29.24 46.9695ZM29.5253 47.1423L29.0791 47.8792L29.3644 48.052L29.8107 47.315L30.2569 46.5781L29.9716 46.4053L29.5253 47.1423ZM29.8107 47.315L29.3644 48.052C29.5996 48.1944 29.8451 48.3137 30.1004 48.4089L30.4015 47.6018L30.7025 46.7946C30.5505 46.7379 30.4021 46.666 30.2569 46.5781L29.8107 47.315ZM30.4015 47.6018L30.1004 48.4089L30.4059 48.5229L30.707 47.7157L31.008 46.9085L30.7025 46.7946L30.4015 47.6018ZM30.707 47.7157L30.4059 48.5229L30.7114 48.6368L31.0124 47.8297L31.3135 47.0225L31.008 46.9085L30.707 47.7157ZM31.0124 47.8297L30.7114 48.6368C31.0721 48.7714 31.4479 48.7954 31.8184 48.732L31.6731 47.8829L31.5279 47.0337C31.4248 47.0513 31.3601 47.0398 31.3135 47.0225L31.0124 47.8297ZM31.6731 47.8829L31.8184 48.732L32.1736 48.6713L32.0284 47.8221L31.8831 46.9729L31.5279 47.0337L31.6731 47.8829ZM32.0284 47.8221L32.1736 48.6713L32.5288 48.6105L32.3836 47.7614L32.2383 46.9122L31.8831 46.9729L32.0284 47.8221ZM32.3836 47.7614L32.5288 48.6105C32.6783 48.585 32.8041 48.5867 32.9118 48.6056L33.0605 47.757L33.2092 46.9084C32.888 46.8521 32.5624 46.8568 32.2383 46.9122L32.3836 47.7614ZM33.0605 47.757L32.9118 48.6056L33.2335 48.6619L33.3822 47.8133L33.5309 46.9648L33.2092 46.9084L33.0605 47.757ZM33.3822 47.8133L33.2335 48.6619L33.5552 48.7183L33.7039 47.8697L33.8526 47.0211L33.5309 46.9648L33.3822 47.8133ZM33.7039 47.8697L33.5552 48.7183C33.7236 48.7478 33.8865 48.7904 34.0442 48.8458L34.3299 48.0331L34.6156 47.2203C34.3676 47.1331 34.113 47.0668 33.8526 47.0211L33.7039 47.8697ZM34.3299 48.0331L34.0442 48.8458L34.3485 48.9528L34.6343 48.1401L34.92 47.3273L34.6156 47.2203L34.3299 48.0331ZM34.6343 48.1401L34.3485 48.9528L34.6529 49.0598L34.9386 48.2471L35.2243 47.4343L34.92 47.3273L34.6343 48.1401ZM34.9386 48.2471L34.6529 49.0598C34.9375 49.1599 35.2322 49.2158 35.534 49.2276L35.5677 48.3668L35.6014 47.5059C35.4702 47.5008 35.3455 47.4769 35.2243 47.4343L34.9386 48.2471ZM35.5677 48.3668L35.534 49.2276L35.8588 49.2403L35.8925 48.3795L35.9262 47.5187L35.6014 47.5059L35.5677 48.3668ZM35.8925 48.3795L35.8588 49.2403L36.1836 49.253L36.2173 48.3922L36.251 47.5314L35.9262 47.5187L35.8925 48.3795ZM36.2173 48.3922L36.1836 49.253C36.3228 49.2585 36.4577 49.2822 36.5902 49.3243L36.8515 48.5034L37.1129 47.6825C36.8328 47.5934 36.5448 47.5429 36.251 47.5314L36.2173 48.3922ZM36.8515 48.5034L36.5902 49.3243L36.8996 49.4229L37.161 48.602L37.4223 47.7811L37.1129 47.6825L36.8515 48.5034ZM37.161 48.602L36.8996 49.4229L37.209 49.5214L37.4704 48.7005L37.7318 47.8796L37.4223 47.7811L37.161 48.602ZM37.4704 48.7005L37.209 49.5214C37.3253 49.5584 37.4468 49.6177 37.5739 49.7069L38.0686 49.0015L38.5633 48.2962C38.3054 48.1154 38.0281 47.9739 37.7318 47.8796L37.4704 48.7005ZM38.0686 49.0015L37.5739 49.7069L37.8627 49.9094L38.3574 49.2041L38.8521 48.4988L38.5633 48.2962L38.0686 49.0015ZM38.3574 49.2041L37.8627 49.9094L38.1515 50.1119L38.6461 49.4066L39.1408 48.7013L38.8521 48.4988L38.3574 49.2041ZM38.6461 49.4066L38.1515 50.1119C38.5185 50.3693 38.9503 50.4789 39.4039 50.4072L39.2695 49.5563L39.135 48.7053C39.1308 48.706 39.1309 48.7056 39.1343 48.7058C39.1379 48.7059 39.1426 48.7064 39.1475 48.7076C39.1524 48.7088 39.1549 48.71 39.1547 48.7098C39.1543 48.7097 39.1497 48.7075 39.1408 48.7013L38.6461 49.4066ZM39.2695 49.5563L39.4039 50.4072L39.7385 50.3544L39.604 49.5034L39.4696 48.6525L39.135 48.7053L39.2695 49.5563ZM39.604 49.5034L39.7385 50.3544L40.073 50.3015L39.9386 49.4506L39.8041 48.5996L39.4696 48.6525L39.604 49.5034ZM39.9386 49.4506L40.073 50.3015C40.256 50.2726 40.435 50.2575 40.6105 50.2556L40.6013 49.3942L40.592 48.5327C40.33 48.5355 40.0673 48.558 39.8041 48.5996L39.9386 49.4506ZM40.6013 49.3942L40.6105 50.2556L40.9386 50.2521L40.9294 49.3907L40.9202 48.5292L40.592 48.5327L40.6013 49.3942ZM40.9294 49.3907L40.9386 50.2521L41.2667 50.2486L41.2575 49.3872L41.2483 48.5257L40.9202 48.5292L40.9294 49.3907ZM41.2575 49.3872L41.2667 50.2486C41.2607 50.2487 41.2534 50.2481 41.2459 50.2465C41.2385 50.245 41.2338 50.2432 41.2325 50.2426C41.2299 50.2415 41.2483 50.2488 41.2853 50.2836L41.8752 49.6557L42.4651 49.0279C42.1463 48.7283 41.7346 48.5205 41.2483 48.5257L41.2575 49.3872ZM41.8752 49.6557L41.2853 50.2836L41.5748 50.5556L42.1647 49.9278L42.7547 49.3L42.4651 49.0279L41.8752 49.6557ZM42.1647 49.9278L41.5748 50.5556L41.8644 50.8277L42.4543 50.1999L43.0442 49.5721L42.7547 49.3L42.1647 49.9278ZM42.4543 50.1999L41.8644 50.8277C42.1593 51.1048 42.5277 51.3149 42.9663 51.3631L43.0604 50.5067L43.1544 49.6504C43.1584 49.6508 43.1546 49.6516 43.1397 49.644C43.1232 49.6357 43.0908 49.6158 43.0442 49.5721L42.4543 50.1999ZM43.0604 50.5067L42.9663 51.3631L43.2828 51.3978L43.3769 50.5415L43.4709 49.6851L43.1544 49.6504L43.0604 50.5067ZM43.3769 50.5415L43.2828 51.3978L43.5993 51.4326L43.6934 50.5762L43.7874 49.7199L43.4709 49.6851L43.3769 50.5415ZM43.6934 50.5762L43.5993 51.4326C43.878 51.4632 44.1591 51.4609 44.4411 51.4276L44.3401 50.572L44.2391 49.7165C44.0809 49.7351 43.9308 49.7356 43.7874 49.7199L43.6934 50.5762ZM44.3401 50.572L44.4411 51.4276L44.7714 51.3886L44.6704 50.533L44.5694 49.6775L44.2391 49.7165L44.3401 50.572ZM44.6704 50.533L44.7714 51.3886L45.1016 51.3496L45.0006 50.494L44.8996 49.6385L44.5694 49.6775L44.6704 50.533ZM45.0006 50.494L45.1016 51.3496C45.2074 51.3371 45.3082 51.3454 45.4108 51.3751L45.6505 50.5476L45.8902 49.7202C45.5667 49.6264 45.2342 49.599 44.8996 49.6385L45.0006 50.494ZM45.6505 50.5476L45.4108 51.3751L45.7305 51.4677L45.9702 50.6402L46.2099 49.8128L45.8902 49.7202L45.6505 50.5476ZM45.9702 50.6402L45.7305 51.4677L46.0501 51.5603L46.2898 50.7328L46.5295 49.9054L46.2099 49.8128L45.9702 50.6402ZM46.2898 50.7328L46.0501 51.5603C46.4744 51.6832 46.898 51.639 47.2859 51.4729L46.9467 50.681L46.6076 49.8891C46.5717 49.9044 46.5521 49.9069 46.5461 49.9073C46.5412 49.9077 46.5373 49.9076 46.5295 49.9054L46.2898 50.7328ZM46.9467 50.681L47.2859 51.4729L47.6232 51.3285L47.284 50.5366L46.9449 49.7446L46.6076 49.8891L46.9467 50.681ZM47.284 50.5366L47.6232 51.3285L47.9604 51.1841L47.6213 50.3921L47.2822 49.6002L46.9449 49.7446L47.284 50.5366ZM47.6213 50.3921L47.9604 51.1841C47.973 51.1787 47.9794 51.1772 47.9799 51.1771C47.9803 51.177 47.9761 51.1779 47.9682 51.1781C47.9603 51.1783 47.9515 51.1775 47.9431 51.1758C47.9347 51.1742 47.9297 51.1722 47.9285 51.1717L48.267 50.3795L48.6055 49.5873C48.1619 49.3978 47.7009 49.4209 47.2822 49.6002L47.6213 50.3921ZM48.267 50.3795L47.9285 51.1717L48.237 51.3035L48.5755 50.5113L48.914 49.7191L48.6055 49.5873L48.267 50.3795ZM48.5755 50.5113L48.237 51.3035L48.5454 51.4353L48.8839 50.6431L49.2224 49.8509L48.914 49.7191L48.5755 50.5113ZM48.8839 50.6431L48.5454 51.4353C48.7985 51.5434 49.0583 51.6277 49.3243 51.6873L49.5125 50.8466L49.7008 50.0059C49.54 49.9699 49.3807 49.9185 49.2224 49.8509L48.8839 50.6431ZM49.5125 50.8466L49.3243 51.6873L49.6444 51.759L49.8327 50.9183L50.0209 50.0776L49.7008 50.0059L49.5125 50.8466ZM49.8327 50.9183L49.6444 51.759L49.9646 51.8306L50.1528 50.99L50.3411 50.1493L50.0209 50.0776L49.8327 50.9183ZM50.1528 50.99L49.9646 51.8306C50.2024 51.8839 50.4428 51.9269 50.6858 51.9597L50.8009 51.1059L50.9161 50.2521C50.7218 50.2259 50.5301 50.1916 50.3411 50.1493L50.1528 50.99ZM50.8009 51.1059L50.6858 51.9597L51.0137 52.0039L51.1289 51.1501L51.2441 50.2964L50.9161 50.2521L50.8009 51.1059ZM51.1289 51.1501L51.0137 52.0039L51.3417 52.0482L51.4569 51.1944L51.5721 50.3406L51.2441 50.2964L51.1289 51.1501ZM51.4569 51.1944L51.3417 52.0482C51.6903 52.0952 52.0361 52.0628 52.3701 51.956L52.1079 51.1354L51.8457 50.3148C51.749 50.3457 51.6608 50.3526 51.5721 50.3406L51.4569 51.1944ZM52.1079 51.1354L52.3701 51.956L52.6932 51.8528L52.431 51.0322L52.1687 50.2116L51.8457 50.3148L52.1079 51.1354ZM52.431 51.0322L52.6932 51.8528L53.0162 51.7496L52.754 50.929L52.4918 50.1083L52.1687 50.2116L52.431 51.0322ZM52.754 50.929L53.0162 51.7496C53.0197 51.7485 53.0221 51.7479 53.0236 51.7475C53.0243 51.7474 53.0249 51.7473 53.0252 51.7472C53.0254 51.7472 53.0255 51.7472 53.0256 51.7471C53.0256 51.7471 53.0257 51.7471 53.0257 51.7471C53.0257 51.7471 53.0257 51.7471 53.0256 51.7471C53.0255 51.7471 53.0254 51.7472 53.0253 51.7472C53.025 51.7472 53.0247 51.7472 53.0242 51.7472C53.0233 51.7472 53.0223 51.7472 53.0213 51.7472C53.019 51.747 53.0184 51.7467 53.0201 51.7472C53.0218 51.7476 53.0274 51.7492 53.0371 51.7536L53.3929 50.969L53.7488 50.1845C53.3487 50.003 52.9156 49.9729 52.4918 50.1083L52.754 50.929ZM53.3929 50.969L53.0371 51.7536L53.353 51.8969L53.7088 51.1123L54.0647 50.3278L53.7488 50.1845L53.3929 50.969ZM53.7088 51.1123L53.353 51.8969L53.6689 52.0402L54.0247 51.2556L54.3806 50.4711L54.0647 50.3278L53.7088 51.1123ZM54.0247 51.2556L53.6689 52.0402C54.0288 52.2035 54.4173 52.2599 54.8132 52.1919L54.6674 51.3428L54.5216 50.4938C54.4818 50.5006 54.4419 50.4989 54.3806 50.4711L54.0247 51.2556ZM54.6674 51.3428L54.8132 52.1919L55.1399 52.1358L54.9942 51.2867L54.8484 50.4377L54.5216 50.4938L54.6674 51.3428ZM54.9942 51.2867L55.1399 52.1358L55.4667 52.0797L55.3209 51.2306L55.1751 50.3815L54.8484 50.4377L54.9942 51.2867ZM55.3209 51.2306L55.4667 52.0797C55.6883 52.0417 55.911 52.0019 56.1348 51.9604L55.9779 51.1134L55.821 50.2663C55.6045 50.3064 55.3892 50.3448 55.1751 50.3815L55.3209 51.2306ZM55.9779 51.1134L56.1348 51.9604L56.4651 51.8993L56.3082 51.0522L56.1512 50.2051L55.821 50.2663L55.9779 51.1134ZM56.3082 51.0522L56.4651 51.8993L56.7953 51.8381L56.6384 50.991L56.4815 50.1439L56.1512 50.2051L56.3082 51.0522ZM56.6384 50.991L56.7953 51.8381C57.004 51.7994 57.2074 51.7661 57.4055 51.7381L57.2848 50.8851L57.1642 50.0321C56.9406 50.0637 56.7131 50.101 56.4815 50.1439L56.6384 50.991ZM57.2848 50.8851L57.4055 51.7381L57.7217 51.6934L57.601 50.8404L57.4803 49.9874L57.1642 50.0321L57.2848 50.8851ZM57.601 50.8404L57.7217 51.6934L58.0378 51.6487L57.9172 50.7957L57.7965 49.9427L57.4803 49.9874L57.601 50.8404ZM57.9172 50.7957L58.0378 51.6487C58.2108 51.6242 58.3845 51.6113 58.559 51.61L58.5526 50.7486L58.5461 49.8871C58.2951 49.889 58.0451 49.9075 57.7965 49.9427L57.9172 50.7957ZM58.5526 50.7486L58.559 51.61L58.8782 51.6076L58.8717 50.7462L58.8652 49.8847L58.5461 49.8871L58.5526 50.7486ZM58.8717 50.7462L58.8782 51.6076L59.1974 51.6052L59.1909 50.7438L59.1844 49.8823L58.8652 49.8847L58.8717 50.7462ZM59.1909 50.7438L59.1974 51.6052C59.3572 51.604 59.5208 51.6174 59.689 51.6465L59.8355 50.7975L59.982 49.9486C59.7163 49.9027 59.4502 49.8803 59.1844 49.8823L59.1909 50.7438ZM59.8355 50.7975L59.689 51.6465L60.0144 51.7026L60.1609 50.8537L60.3074 50.0047L59.982 49.9486L59.8355 50.7975ZM60.1609 50.8537L60.0144 51.7026L60.3398 51.7588L60.4864 50.9098L60.6329 50.0609L60.3074 50.0047L60.1609 50.8537ZM60.4864 50.9098L60.3398 51.7588C60.6595 51.8139 60.9812 51.8107 61.2999 51.7499L61.1386 50.9037L60.9773 50.0574C60.8602 50.0797 60.7471 50.0806 60.6329 50.0609L60.4864 50.9098ZM61.1386 50.9037L61.2999 51.7499L61.6268 51.6876L61.4654 50.8414L61.3041 49.9951L60.9773 50.0574L61.1386 50.9037ZM61.4654 50.8414L61.6268 51.6876L61.9536 51.6253L61.7923 50.7791L61.6309 49.9328L61.3041 49.9951L61.4654 50.8414ZM61.7923 50.7791L61.9536 51.6253C61.9563 51.6248 61.9564 51.6248 61.9595 51.6254C61.9641 51.6262 61.9844 51.6308 62.022 51.6521L62.4469 50.9027L62.8719 50.1533C62.5006 49.9428 62.0762 49.8479 61.6309 49.9328L61.7923 50.7791ZM62.4469 50.9027L62.022 51.6521L62.3498 51.838L62.7747 51.0886L63.1997 50.3392L62.8719 50.1533L62.4469 50.9027ZM62.7747 51.0886L62.3498 51.838L62.6776 52.0239L63.1026 51.2745L63.5275 50.5251L63.1997 50.3392L62.7747 51.0886ZM63.1026 51.2745L62.6776 52.0239C63.1286 52.2796 63.6523 52.3165 64.1409 52.0612L63.7419 51.2976L63.3429 50.5341C63.3582 50.5261 63.4002 50.5102 63.4575 50.5123C63.5119 50.5142 63.5378 50.5309 63.5275 50.5251L63.1026 51.2745ZM63.7419 51.2976L64.1409 52.0612L64.4523 51.8984L64.0533 51.1349L63.6543 50.3713L63.3429 50.5341L63.7419 51.2976ZM64.0533 51.1349L64.4523 51.8984L64.7637 51.7357L64.3648 50.9721L63.9658 50.2086L63.6543 50.3713L64.0533 51.1349ZM64.3648 50.9721L64.7637 51.7357C64.7684 51.7332 64.7677 51.7341 64.7622 51.7357C64.7564 51.7374 64.748 51.7391 64.738 51.7398C64.728 51.7404 64.7197 51.7398 64.7142 51.739C64.7089 51.7382 64.7087 51.7375 64.7142 51.7396L65.0079 50.9297L65.3016 50.1198C64.8543 49.9576 64.3886 49.9877 63.9658 50.2086L64.3648 50.9721ZM65.0079 50.9297L64.7142 51.7396L65.046 51.8598L65.3396 51.0499L65.6333 50.24L65.3016 50.1198L65.0079 50.9297ZM65.3396 51.0499L65.046 51.8598L65.3777 51.9801L65.6714 51.1702L65.965 50.3603L65.6333 50.24L65.3396 51.0499ZM65.6714 51.1702L65.3777 51.9801C65.8188 52.1401 66.2776 52.1151 66.6987 51.9097L66.321 51.1354L65.9433 50.3611C65.9367 50.3643 65.935 50.3645 65.9379 50.3637C65.9409 50.3629 65.9464 50.3618 65.9535 50.3614C65.9607 50.361 65.9664 50.3615 65.9697 50.362C65.9729 50.3625 65.9715 50.3627 65.965 50.3603L65.6714 51.1702ZM66.321 51.1354L66.6987 51.9097L67.0166 51.7546L66.6389 50.9803L66.2612 50.2061L65.9433 50.3611L66.321 51.1354ZM66.6389 50.9803L67.0166 51.7546L67.3345 51.5995L66.9568 50.8253L66.5791 50.051L66.2612 50.2061L66.6389 50.9803ZM66.9568 50.8253L67.3345 51.5995C67.5373 51.5006 67.6943 51.4297 67.8098 51.3828L67.4859 50.5845L67.1619 49.7862C66.996 49.8536 66.8002 49.9431 66.5791 50.051L66.9568 50.8253ZM67.4859 50.5845L67.8098 51.3828L68.0209 51.2971L67.697 50.4988L67.3731 49.7006L67.1619 49.7862L67.4859 50.5845ZM67.697 50.4988L68.0209 51.2971L68.232 51.2115L67.9081 50.4132L67.5842 49.6149L67.3731 49.7006L67.697 50.4988ZM67.9081 50.4132L68.232 51.2115C68.2879 51.1888 68.2172 51.2278 68.0859 51.2305C68.0177 51.2319 67.824 51.2268 67.6235 51.0897C67.3818 50.9245 67.2831 50.676 67.2671 50.4781L68.1258 50.4087L68.9845 50.3392C68.9663 50.1143 68.8568 49.8457 68.5959 49.6673C68.3762 49.5171 68.1547 49.5057 68.0502 49.5079C67.8464 49.5121 67.6691 49.5804 67.5842 49.6149L67.9081 50.4132ZM68.1258 50.4087L67.2671 50.4781L67.2736 50.5593L68.1323 50.4898L68.991 50.4204L68.9845 50.3392L68.1258 50.4087ZM68.1323 50.4898L67.3668 50.0946L67.2801 50.2626L68.0456 50.6578L68.8111 51.053L68.8978 50.885L68.1323 50.4898ZM68.0456 50.6578L68.0944 51.5179L68.1942 51.5122L68.1455 50.6521L68.0967 49.792L67.9969 49.7977L68.0456 50.6578Z" fill="white"/>
</svg>
