<svg width="104" height="53" viewBox="0 0 104 53" fill="none" xmlns="http://www.w3.org/2000/svg">
<path d="M0.387572 44.3786C-0.00970699 44.6405 -0.11952 45.1748 0.142298 45.572L4.40887 52.0461C4.67069 52.4434 5.20499 52.5532 5.60227 52.2914C5.99955 52.0295 6.10936 51.4952 5.84755 51.0979L2.05504 45.3433L7.80973 41.5507C8.20701 41.2889 8.31682 40.7546 8.055 40.3573C7.79318 39.9601 7.25888 39.8503 6.8616 40.1121L0.387572 44.3786ZM0.959588 45.1181L1.15443 44.2789L1.14375 44.2765L1.13302 44.2743L0.959588 45.1181ZM1.54838 45.2548L1.74322 44.4156L1.54838 45.2548ZM3.06706 45.7019L2.79431 46.5191L3.06706 45.7019ZM3.69025 45.8816L3.48643 46.7187L3.69025 45.8816ZM4.00348 45.9579L4.20731 45.1209L4.00348 45.9579ZM4.94315 46.1742L4.7714 47.0184L4.94315 46.1742ZM5.25635 46.2379L5.42809 45.3937L5.25635 46.2379ZM5.56955 46.3016L5.39781 47.1458L5.56955 46.3016ZM6.21072 46.3878L6.26957 45.5283L6.21072 46.3878ZM6.86664 46.4327L6.92549 45.5732L6.86664 46.4327ZM7.53757 46.3886L7.37358 45.5429L7.53757 46.3886ZM7.88055 46.3221L8.04454 47.1679L7.88055 46.3221ZM8.22352 46.2556L8.05953 45.4099L8.22352 46.2556ZM8.84306 46.4657L9.45226 45.8566L8.84306 46.4657ZM9.39621 47.0189L8.78701 47.6281L9.39621 47.0189ZM10.0228 47.1521L9.6961 46.3549L10.0228 47.1521ZM10.7227 46.8653L11.0494 47.6625L10.7227 46.8653ZM11.3822 46.8428L11.6957 46.0404L11.3822 46.8428ZM12.0012 47.0847L11.6876 47.8871L12.0012 47.0847ZM12.6052 47.4166L12.1036 48.117L12.6052 47.4166ZM13.1944 47.8385L13.696 47.1381L13.1944 47.8385ZM13.8344 47.9284L14.1192 48.7415L13.8344 47.9284ZM14.5253 47.6864L14.2404 46.8733L14.5253 47.6864ZM15.1732 47.6989L14.825 48.4869L15.1732 47.6989ZM15.4755 47.8325L15.1274 48.6205L15.4755 47.8325ZM15.7779 47.9661L16.1261 47.1781L15.7779 47.9661ZM16.3936 48.2207L16.0834 49.0244L16.3936 48.2207ZM16.7069 48.3416L17.0172 47.5379L16.7069 48.3416ZM17.0202 48.4626L17.3305 47.6589L17.0202 48.4626ZM17.6648 48.5591L17.6015 47.6999V47.6999L17.6648 48.5591ZM18.3274 48.5103L18.3907 49.3695L18.3274 48.5103ZM18.9835 48.4812L18.9713 47.6198L18.9835 48.4812ZM19.6332 48.472L19.6454 49.3334L19.6332 48.472ZM20.2632 48.6166L20.6415 47.8426L20.2632 48.6166ZM20.8738 48.915L20.4955 49.689L20.8738 48.915ZM21.5043 49.1011L21.6014 48.2451L21.5043 49.1011ZM22.1546 49.1749L22.0575 50.0309L22.1546 49.1749ZM22.8081 49.1888L22.8681 50.0482L22.8081 49.1888ZM23.1364 49.1659L23.0763 48.3065L23.1364 49.1659ZM23.4647 49.1429L23.5248 50.0023L23.4647 49.1429ZM24.1248 49.0191L23.8742 48.1948L24.1248 49.0191ZM24.4566 48.9182L24.7072 49.7424L24.4566 48.9182ZM24.7884 48.8173L25.039 49.6416L24.7884 48.8173ZM25.4403 48.7654L25.5705 47.9138L25.4403 48.7654ZM26.0807 48.8633L25.9505 49.7149L26.0807 48.8633ZM27.3571 49.173L27.1305 50.0042L27.3571 49.173ZM28.0013 49.2194L28.1078 50.0743L28.0013 49.2194ZM28.6523 49.1383L28.5458 48.2834L28.6523 49.1383ZM29.2918 49.1968L29.0325 50.0184L29.2918 49.1968ZM29.9199 49.3951L30.1792 48.5735L29.9199 49.3951ZM30.5563 49.5896L30.3119 50.4157L30.5563 49.5896ZM30.8787 49.685L30.6342 50.5111L30.8787 49.685ZM31.201 49.7804L31.4455 48.9543L31.201 49.7804ZM31.8527 49.754L32.1513 50.5621L31.8527 49.754ZM32.182 49.6323L31.8833 48.8243L32.182 49.6323ZM32.5113 49.5106L32.2127 48.7025L32.5113 49.5106ZM33.1584 49.4559L33.3361 48.6129L33.1584 49.4559ZM33.794 49.5898L33.6163 50.4328L33.794 49.5898ZM34.4349 49.752L34.1914 50.5784L34.4349 49.752ZM35.0812 49.9425L35.3247 49.1161L35.0812 49.9425ZM35.73 50.0261L35.6993 49.1651L35.73 50.0261ZM36.3811 50.0028L36.4118 50.8638L36.3811 50.0028ZM37.0281 49.8359L36.6534 49.0602L37.0281 49.8359ZM37.6711 49.5253L37.2963 48.7496L37.6711 49.5253ZM38.3148 49.3936L38.2519 50.2528L38.3148 49.3936ZM38.6371 49.4172L38.7 48.558L38.6371 49.4172ZM38.9594 49.4408L38.8965 50.3L38.9594 49.4408ZM39.6041 49.3828L39.8154 50.218L39.6041 49.3828ZM39.9265 49.3013L40.1378 50.1364L39.9265 49.3013ZM40.2489 49.2197L40.0376 48.3845L40.2489 49.2197ZM40.895 49.2186L40.6872 50.0546L40.895 49.2186ZM41.5425 49.3795L41.7502 48.5434L41.5425 49.3795ZM42.1838 49.3823L41.9793 48.5455L42.1838 49.3823ZM42.5013 49.3048L42.7057 50.1417L42.5013 49.3048ZM42.8189 49.2272L42.6145 48.3903L42.8189 49.2272ZM43.4708 49.2917L43.1341 50.0846L43.4708 49.2917ZM44.1396 49.5757L44.4764 48.7828L44.1396 49.5757ZM44.7895 49.6104L45.067 50.426L44.7895 49.6104ZM45.4205 49.3958L45.6979 50.2114L45.4205 49.3958ZM46.056 49.2629L45.9876 48.4042L46.056 49.2629ZM46.6962 49.2119L46.7646 50.0707L46.6962 49.2119ZM47.345 49.2001L47.3092 50.0608L47.345 49.2001ZM47.6738 49.2138L47.7096 48.353L47.6738 49.2138ZM48.0025 49.2275L47.9667 50.0882L48.0025 49.2275ZM48.6396 49.1061L48.9852 49.8952L48.6396 49.1061ZM48.9479 48.9711L48.6023 48.1819L48.9479 48.9711ZM49.2562 48.836L49.6018 49.6252L49.2562 48.836ZM49.9014 48.7938L50.1303 47.9633L49.9014 48.7938ZM50.5752 48.9795L50.8041 48.149L50.5752 48.9795ZM51.2203 48.9323L50.8639 48.148L51.2203 48.9323ZM51.5286 48.7922L51.1722 48.0079L51.5286 48.7922ZM51.8368 48.6522L52.1932 49.4365L51.8368 48.6522ZM52.4581 48.4348L52.2514 47.5984L52.4581 48.4348ZM53.0841 48.28L53.2908 49.1164L53.0841 48.28ZM53.6975 48.0626L54.0616 48.8434L53.6975 48.0626ZM53.9979 47.9225L53.6338 47.1417L53.9979 47.9225ZM54.2982 47.7824L54.6623 48.5632L54.2982 47.7824ZM54.947 47.7315L55.1605 46.8969L54.947 47.7315ZM55.2954 47.8206L55.5089 46.986L55.2954 47.8206ZM55.6437 47.9097L55.4302 48.7444L55.6437 47.9097ZM56.2879 47.848L55.8964 47.0806L56.2879 47.848ZM56.8794 47.5462L57.2709 48.3136L56.8794 47.5462ZM57.4783 47.2796L57.7856 48.0844L57.4783 47.2796ZM57.7815 47.1638L58.0888 47.9686L57.7815 47.1638ZM58.0847 47.0481L58.392 47.8529L58.0847 47.0481ZM58.7485 47.0312L58.9763 46.2003L58.7485 47.0312ZM59.4697 47.2289L59.2419 48.0597L59.4697 47.2289ZM60.1195 47.1665L60.539 47.919L60.1195 47.1665ZM60.698 46.844L60.2785 46.0915L60.698 46.844ZM61.3188 46.6544L61.2455 45.796L61.3188 46.6544ZM61.6503 46.6261L61.7237 47.4844L61.6503 46.6261ZM61.9819 46.5977L62.0552 47.4561L61.9819 46.5977ZM62.5841 46.3564L63.1168 47.0335L62.5841 46.3564ZM62.8548 46.1435L63.3875 46.8205L62.8548 46.1435ZM63.1255 45.9305L62.5929 45.2534L63.1255 45.9305ZM63.6994 45.6121L63.4165 44.7984L63.6994 45.6121ZM64.0025 45.5068L64.2854 46.3205L64.0025 45.5068ZM64.3057 45.4014L64.5885 46.2151L64.3057 45.4014ZM64.953 45.2882L64.9724 46.1495L64.953 45.2882ZM65.2971 45.2804L65.3166 46.1417L65.2971 45.2804ZM65.6413 45.2727L65.6219 44.4114L65.6413 45.2727ZM66.2568 45.0727L66.7548 45.7757L66.2568 45.0727ZM66.5281 44.8805L67.0261 45.5835L66.5281 44.8805ZM66.7994 44.6883L66.3014 43.9853L66.7994 44.6883ZM67.3461 44.3203L67.8097 45.0464L67.3461 44.3203ZM67.8969 43.9686L68.3605 44.6947L67.8969 43.9686ZM68.5414 43.8207L68.6064 42.9616L68.5414 43.8207ZM68.9105 43.8486L68.9755 42.9895L68.9105 43.8486ZM69.2796 43.8765L69.2146 44.7356L69.2796 43.8765ZM69.8914 43.6629L70.4991 44.2735L69.8914 43.6629ZM70.377 43.1797L69.7694 42.569L70.377 43.1797ZM70.8652 42.7087L70.2769 42.0794L70.8652 42.7087ZM71.3559 42.25L71.9442 42.8793L71.3559 42.25ZM71.9815 42.0428L71.9312 42.9029L71.9815 42.0428ZM72.3617 42.0651L72.3113 42.9251L72.3617 42.0651ZM72.7419 42.0873L72.7922 41.2273L72.7419 42.0873ZM73.3443 41.8455L72.6852 41.2907L73.3443 41.8455ZM73.7889 41.3174L74.448 41.8721L73.7889 41.3174ZM74.3429 40.9742L74.143 40.1362L74.3429 40.9742ZM74.6747 40.895L74.4748 40.057L74.6747 40.895ZM75.0065 40.8159L75.2063 41.6539L75.0065 40.8159ZM75.6171 40.5683L75.1717 39.8309L75.6171 40.5683ZM75.8959 40.3999L76.3413 41.1373L75.8959 40.3999ZM76.7197 39.8749L76.2221 39.1716L76.7197 39.8749ZM77.2516 39.4986L77.7492 40.2019L77.2516 39.4986ZM77.6998 39.0075L76.9615 38.5635L77.6998 39.0075ZM78.0642 38.4016L77.3259 37.9577L78.0642 38.4016ZM78.4824 37.8768L77.8923 37.2491L78.4824 37.8768ZM78.9545 37.433L79.5445 38.0607V38.0607L78.9545 37.433ZM79.5119 37.0981L79.226 36.2854L79.5119 37.0981ZM79.8333 36.9851L79.5474 36.1724L79.8333 36.9851ZM80.1546 36.872L80.4405 37.6847L80.1546 36.872ZM80.7306 36.5576L80.1962 35.8819L80.7306 36.5576ZM81.2398 36.1548L81.7742 36.8305L81.2398 36.1548ZM81.6647 35.6575L80.918 35.2279L81.6647 35.6575ZM82.0052 35.0657L81.2585 34.6361L82.0052 35.0657ZM82.4261 34.5672L81.8846 33.8972L82.4261 34.5672ZM82.9274 34.1622L83.4688 34.8322L82.9274 34.1622ZM83.3828 33.707L82.7135 33.1645L83.3828 33.707ZM83.7924 33.2017L84.4616 33.7441L83.7924 33.2017ZM84.2302 32.7295L84.8208 33.3567L84.2302 32.7295ZM84.4632 32.51L83.8726 31.8829L84.4632 32.51ZM84.6963 32.2906L84.1056 31.6634L84.6963 32.2906ZM85.2192 31.9015L84.7841 31.1579L85.2192 31.9015ZM85.7988 31.5624L86.2338 32.306L85.7988 31.5624ZM86.3241 31.1695L85.7314 30.5444L86.3241 31.1695ZM86.7953 30.7228L87.388 31.348L86.7953 30.7228ZM87.2327 30.247L87.9056 30.7849L87.2327 30.247ZM87.6364 29.742L86.9635 29.204L87.6364 29.742ZM88.1167 29.2977L87.6281 28.5882L88.1167 29.2977ZM88.3952 29.1059L87.9066 28.3964L88.3952 29.1059ZM88.6737 28.9141L89.1623 29.6237L88.6737 28.9141ZM89.0953 28.4223L88.3178 28.0514L89.0953 28.4223ZM89.2385 28.1223L90.016 28.4933L89.2385 28.1223ZM89.3816 27.8223L88.6041 27.4514L89.3816 27.8223ZM89.7119 27.2582L89.009 26.7601L89.7119 27.2582ZM90.0863 26.7298L90.7892 27.2279L90.0863 26.7298ZM90.4348 26.1804L91.1847 26.6045L90.4348 26.1804ZM90.7575 25.6099L90.0076 25.1858L90.7575 25.6099ZM91.1905 25.1234L90.6776 24.4312L91.1905 25.1234ZM91.7338 24.7208L92.2467 25.413L91.7338 24.7208ZM92.0458 24.1551L92.9021 24.2499L92.0458 24.1551ZM92.0861 23.7908L91.2298 23.6961L92.0861 23.7908ZM92.1264 23.4265L92.9827 23.5212L92.1264 23.4265ZM92.3355 22.7869L91.6011 22.3365L92.3355 22.7869ZM92.5043 22.5117L93.2387 22.962L92.5043 22.5117ZM92.6731 22.2365L91.9387 21.7861L92.6731 22.2365ZM93.1221 21.759L93.6262 22.4576L93.1221 21.759ZM93.4024 21.5568L93.9065 22.2554L93.4024 21.5568ZM93.6827 21.3545L93.1786 20.6559L93.6827 21.3545ZM94.2074 20.9199L94.801 21.5443L94.2074 20.9199ZM94.4519 20.6875L95.0454 21.3119L94.4519 20.6875ZM94.6963 20.4551L94.1028 19.8307L94.6963 20.4551ZM95.0334 19.9005L94.2055 19.6624L95.0334 19.9005ZM95.2188 19.2561L94.3908 19.018L95.2188 19.2561ZM95.4245 18.6284L96.2324 18.9275L95.4245 18.6284ZM95.6506 18.0176L94.8427 17.7185L95.6506 18.0176ZM96.017 17.4796L96.5996 18.1143L96.017 17.4796ZM96.2704 17.247L95.6878 16.6124L96.2704 17.247ZM96.5238 17.0145L97.1063 17.6492L96.5238 17.0145ZM96.9094 16.4848L96.1223 16.1345L96.9094 16.4848ZM97.0416 16.1876L96.2545 15.8374L97.0416 16.1876ZM97.1738 15.8904L97.9609 16.2407L97.1738 15.8904ZM97.2876 15.2242L98.1481 15.1814L97.2876 15.2242ZM97.2693 14.8552L96.4088 14.898L97.2693 14.8552ZM97.2509 14.4861L96.3904 14.529L97.2509 14.4861ZM97.4481 13.8619L96.79 13.3059L97.4481 13.8619ZM97.8793 13.3516L98.5373 13.9076L97.8793 13.3516ZM98.1886 12.7838L97.3634 12.5364L98.1886 12.7838ZM98.2823 12.4711L99.1075 12.7186V12.7186L98.2823 12.4711ZM98.3761 12.1585L97.5509 11.9111L98.3761 12.1585ZM98.6237 11.5639L97.8674 11.1512L98.6237 11.5639ZM98.7776 11.2819L99.5338 11.6945L98.7776 11.2819ZM98.9314 10.9998L98.1752 10.5872L98.9314 10.9998ZM99.6471 9.19599L100.261 9.80061L99.6471 9.19599ZM99.8917 8.94779L100.505 9.55242L99.8917 8.94779ZM100.136 8.69959L99.5225 8.09498L100.136 8.69959ZM100.5 8.15359L99.7007 7.83275L100.5 8.15359ZM100.739 7.55797L101.539 7.87881L100.739 7.55797ZM101.165 6.68389L100.405 6.27917L101.165 6.68389ZM101.573 5.79641L100.753 5.53117L101.573 5.79641ZM101.674 5.48521L102.493 5.75044L101.674 5.48521ZM101.774 5.17401L100.955 4.90878L101.774 5.17401ZM101.864 4.51799L102.725 4.48989L101.864 4.51799ZM101.841 3.82833L100.98 3.85643L101.841 3.82833ZM101.906 3.16888L101.069 2.96641L101.906 3.16888ZM102.058 2.53962L101.221 2.33716L102.058 2.53962ZM102.246 1.9197L103.055 2.21531L102.246 1.9197ZM102.357 1.6144L101.548 1.31878L102.357 1.6144ZM102.469 1.3091L103.278 1.60471L102.469 1.3091ZM102.707 0.968282L102.94 1.79769L102.707 0.968282ZM102.833 0.932766L102.923 0.0759189L102.759 0.0588276L102.6 0.103363L102.833 0.932766ZM103.051 0.955534L102.962 1.81238L103.627 1.88181L103.859 1.25425L103.051 0.955534ZM103.894 1.16046C104.059 0.714179 103.831 0.218663 103.385 0.0536837C102.939 -0.111293 102.443 0.116745 102.278 0.563019L103.086 0.861737L103.894 1.16046ZM0.861635 45.098L0.688201 45.9418L0.786154 45.962L0.959588 45.1181L1.13302 44.2743L1.03507 44.2541L0.861635 45.098ZM0.959588 45.1181L0.764747 45.9573L1.35354 46.094L1.54838 45.2548L1.74322 44.4156L1.15443 44.2789L0.959588 45.1181ZM1.54838 45.2548L1.35354 46.094C1.73782 46.1832 2.00638 46.2561 2.17439 46.3122L2.44714 45.495L2.71989 44.6778C2.47462 44.5959 2.144 44.5087 1.74322 44.4156L1.54838 45.2548ZM2.44714 45.495L2.17439 46.3122L2.48435 46.4156L2.7571 45.5984L3.02985 44.7813L2.71989 44.6778L2.44714 45.495ZM2.7571 45.5984L2.48435 46.4156L2.79431 46.5191L3.06706 45.7019L3.33981 44.8847L3.02985 44.7813L2.7571 45.5984ZM3.06706 45.7019L2.79431 46.5191C3.02333 46.5955 3.25405 46.6621 3.48643 46.7187L3.69025 45.8816L3.89408 45.0446C3.70881 44.9995 3.52407 44.9462 3.33981 44.8847L3.06706 45.7019ZM3.69025 45.8816L3.48643 46.7187L3.79966 46.7949L4.00348 45.9579L4.20731 45.1209L3.89408 45.0446L3.69025 45.8816ZM4.00348 45.9579L3.79966 46.7949L4.11289 46.8712L4.31671 46.0342L4.52054 45.1971L4.20731 45.1209L4.00348 45.9579ZM4.31671 46.0342L4.11289 46.8712C4.33226 46.9246 4.55177 46.9737 4.7714 47.0184L4.94315 46.1742L5.11489 45.33C4.91692 45.2897 4.7188 45.2454 4.52054 45.1971L4.31671 46.0342ZM4.94315 46.1742L4.7714 47.0184L5.08461 47.0821L5.25635 46.2379L5.42809 45.3937L5.11489 45.33L4.94315 46.1742ZM5.25635 46.2379L5.08461 47.0821L5.39781 47.1458L5.56955 46.3016L5.7413 45.4574L5.42809 45.3937L5.25635 46.2379ZM5.56955 46.3016L5.39781 47.1458C5.64491 47.1961 5.89638 47.2298 6.15188 47.2473L6.21072 46.3878L6.26957 45.5283C6.08777 45.5158 5.9118 45.4921 5.7413 45.4574L5.56955 46.3016ZM6.21072 46.3878L6.15188 47.2473L6.47984 47.2697L6.53868 46.4102L6.59753 45.5507L6.26957 45.5283L6.21072 46.3878ZM6.53868 46.4102L6.47984 47.2697L6.8078 47.2922L6.86664 46.4327L6.92549 45.5732L6.59753 45.5507L6.53868 46.4102ZM6.86664 46.4327L6.8078 47.2922C7.10552 47.3125 7.40414 47.292 7.70156 47.2344L7.53757 46.3886L7.37358 45.5429C7.21371 45.5739 7.06504 45.5827 6.92549 45.5732L6.86664 46.4327ZM7.53757 46.3886L7.70156 47.2344L8.04454 47.1679L7.88055 46.3221L7.71656 45.4764L7.37358 45.5429L7.53757 46.3886ZM7.88055 46.3221L8.04454 47.1679L8.38751 47.1014L8.22352 46.2556L8.05953 45.4099L7.71656 45.4764L7.88055 46.3221ZM8.22352 46.2556L8.38751 47.1014C8.37878 47.1031 8.36232 47.1051 8.34007 47.1038C8.31749 47.1025 8.29453 47.098 8.27322 47.0908C8.22903 47.0758 8.21705 47.058 8.23386 47.0749L8.84306 46.4657L9.45226 45.8566C9.09382 45.4981 8.60641 45.3038 8.05953 45.4099L8.22352 46.2556ZM8.84306 46.4657L8.23386 47.0749L8.51044 47.3515L9.11964 46.7423L9.72884 46.1332L9.45226 45.8566L8.84306 46.4657ZM9.11964 46.7423L8.51044 47.3515L8.78701 47.6281L9.39621 47.0189L10.0054 46.4098L9.72884 46.1332L9.11964 46.7423ZM9.39621 47.0189L8.78701 47.6281C8.97074 47.8118 9.21181 47.9694 9.512 48.0332C9.81459 48.0975 10.1022 48.0506 10.3494 47.9493L10.0228 47.1521L9.6961 46.3549C9.71001 46.3492 9.77653 46.3279 9.87027 46.3478C9.9616 46.3673 10.0061 46.4104 10.0054 46.4098L9.39621 47.0189ZM10.0228 47.1521L10.3494 47.9493L10.6994 47.8059L10.3727 47.0087L10.0461 46.2115L9.6961 46.3549L10.0228 47.1521ZM10.3727 47.0087L10.6994 47.8059L11.0494 47.6625L10.7227 46.8653L10.396 46.0681L10.0461 46.2115L10.3727 47.0087ZM10.7227 46.8653L11.0494 47.6625C11.0851 47.6478 11.0979 47.6488 11.0919 47.649C11.0893 47.6491 11.0847 47.6489 11.0792 47.648C11.0737 47.647 11.0699 47.6457 11.0686 47.6452L11.3822 46.8428L11.6957 46.0404C11.2544 45.868 10.8036 45.9011 10.396 46.0681L10.7227 46.8653ZM11.3822 46.8428L11.0686 47.6452L11.3781 47.7662L11.6917 46.9638L12.0052 46.1613L11.6957 46.0404L11.3822 46.8428ZM11.6917 46.9638L11.3781 47.7662L11.6876 47.8871L12.0012 47.0847L12.3147 46.2823L12.0052 46.1613L11.6917 46.9638ZM12.0012 47.0847L11.6876 47.8871C11.8216 47.9394 11.9603 48.0143 12.1036 48.117L12.6052 47.4166L13.1069 46.7162C12.8575 46.5376 12.5935 46.3912 12.3147 46.2823L12.0012 47.0847ZM12.6052 47.4166L12.1036 48.117L12.3982 48.3279L12.8998 47.6275L13.4014 46.9272L13.1069 46.7162L12.6052 47.4166ZM12.8998 47.6275L12.3982 48.3279L12.6927 48.5389L13.1944 47.8385L13.696 47.1381L13.4014 46.9272L12.8998 47.6275ZM13.1944 47.8385L12.6927 48.5389C13.1201 48.845 13.6273 48.9138 14.1192 48.7415L13.8344 47.9284L13.5495 47.1154C13.5467 47.1164 13.5749 47.1068 13.6215 47.1134C13.6429 47.1164 13.6616 47.1219 13.676 47.1279C13.69 47.1338 13.6967 47.1386 13.696 47.1381L13.1944 47.8385ZM13.8344 47.9284L14.1192 48.7415L14.4647 48.6204L14.1798 47.8074L13.895 46.9944L13.5495 47.1154L13.8344 47.9284ZM14.1798 47.8074L14.4647 48.6204L14.8102 48.4994L14.5253 47.6864L14.2404 46.8733L13.895 46.9944L14.1798 47.8074ZM14.5253 47.6864L14.8102 48.4994C14.8259 48.4939 14.836 48.4917 14.8409 48.4909C14.8457 48.4901 14.8462 48.4904 14.8433 48.4903C14.8403 48.4903 14.836 48.4898 14.8315 48.4888C14.827 48.4878 14.8246 48.4868 14.825 48.4869L15.1732 47.6989L15.5213 46.9109C15.0974 46.7236 14.6532 46.7287 14.2404 46.8733L14.5253 47.6864ZM15.1732 47.6989L14.825 48.4869L15.1274 48.6205L15.4755 47.8325L15.8237 47.0445L15.5213 46.9109L15.1732 47.6989ZM15.4755 47.8325L15.1274 48.6205L15.4298 48.7541L15.7779 47.9661L16.1261 47.1781L15.8237 47.0445L15.4755 47.8325ZM15.7779 47.9661L15.4298 48.7541C15.6441 48.8488 15.8619 48.9389 16.0834 49.0244L16.3936 48.2207L16.7039 47.417C16.5076 47.3412 16.315 47.2616 16.1261 47.1781L15.7779 47.9661ZM16.3936 48.2207L16.0834 49.0244L16.3967 49.1453L16.7069 48.3416L17.0172 47.5379L16.7039 47.417L16.3936 48.2207ZM16.7069 48.3416L16.3967 49.1453L16.71 49.2663L17.0202 48.4626L17.3305 47.6589L17.0172 47.5379L16.7069 48.3416ZM17.0202 48.4626L16.71 49.2663C17.0364 49.3923 17.3787 49.444 17.7281 49.4183L17.6648 48.5591L17.6015 47.6999C17.5092 47.7067 17.4218 47.6941 17.3305 47.6589L17.0202 48.4626ZM17.6648 48.5591L17.7281 49.4183L18.0594 49.3939L17.9961 48.5347L17.9328 47.6755L17.6015 47.6999L17.6648 48.5591ZM17.9961 48.5347L18.0594 49.3939L18.3907 49.3695L18.3274 48.5103L18.2641 47.6511L17.9328 47.6755L17.9961 48.5347ZM18.3274 48.5103L18.3907 49.3695C18.595 49.3544 18.7966 49.3455 18.9958 49.3427L18.9835 48.4812L18.9713 47.6198C18.7373 47.6232 18.5016 47.6336 18.2641 47.6511L18.3274 48.5103ZM18.9835 48.4812L18.9958 49.3427L19.3206 49.338L19.3083 48.4766L19.2961 47.6152L18.9713 47.6198L18.9835 48.4812ZM19.3083 48.4766L19.3206 49.338L19.6454 49.3334L19.6332 48.472L19.6209 47.6106L19.2961 47.6152L19.3083 48.4766ZM19.6332 48.472L19.6454 49.3334C19.7205 49.3323 19.7972 49.3477 19.885 49.3906L20.2632 48.6166L20.6415 47.8426C20.3223 47.6865 19.9789 47.6055 19.6209 47.6106L19.6332 48.472ZM20.2632 48.6166L19.885 49.3906L20.1902 49.5398L20.5685 48.7658L20.9468 47.9918L20.6415 47.8426L20.2632 48.6166ZM20.5685 48.7658L20.1902 49.5398L20.4955 49.689L20.8738 48.915L21.2521 48.141L20.9468 47.9918L20.5685 48.7658ZM20.8738 48.915L20.4955 49.689C20.784 49.83 21.0889 49.921 21.4071 49.9571L21.5043 49.1011L21.6014 48.2451C21.486 48.232 21.3707 48.1989 21.2521 48.141L20.8738 48.915ZM21.5043 49.1011L21.4071 49.9571L21.7323 49.994L21.8294 49.138L21.9265 48.282L21.6014 48.2451L21.5043 49.1011ZM21.8294 49.138L21.7323 49.994L22.0575 50.0309L22.1546 49.1749L22.2517 48.3189L21.9265 48.282L21.8294 49.138ZM22.1546 49.1749L22.0575 50.0309C22.3267 50.0614 22.5972 50.0671 22.8681 50.0482L22.8081 49.1888L22.748 48.3294C22.5812 48.3411 22.416 48.3375 22.2517 48.3189L22.1546 49.1749ZM22.8081 49.1888L22.8681 50.0482L23.1964 50.0253L23.1364 49.1659L23.0763 48.3065L22.748 48.3294L22.8081 49.1888ZM23.1364 49.1659L23.1964 50.0253L23.5248 50.0023L23.4647 49.1429L23.4046 48.2835L23.0763 48.3065L23.1364 49.1659ZM23.4647 49.1429L23.5248 50.0023C23.8116 49.9823 24.0955 49.9284 24.3754 49.8433L24.1248 49.0191L23.8742 48.1948C23.7117 48.2443 23.5555 48.273 23.4046 48.2835L23.4647 49.1429ZM24.1248 49.0191L24.3754 49.8433L24.7072 49.7424L24.4566 48.9182L24.2059 48.094L23.8742 48.1948L24.1248 49.0191ZM24.4566 48.9182L24.7072 49.7424L25.039 49.6416L24.7884 48.8173L24.5377 47.9931L24.2059 48.094L24.4566 48.9182ZM24.7884 48.8173L25.039 49.6416C25.1457 49.6091 25.2329 49.6052 25.3101 49.617L25.4403 48.7654L25.5705 47.9138C25.2208 47.8603 24.8733 47.891 24.5377 47.9931L24.7884 48.8173ZM25.4403 48.7654L25.3101 49.617L25.6303 49.666L25.7605 48.8144L25.8907 47.9628L25.5705 47.9138L25.4403 48.7654ZM25.7605 48.8144L25.6303 49.666L25.9505 49.7149L26.0807 48.8633L26.2109 48.0117L25.8907 47.9628L25.7605 48.8144ZM26.0807 48.8633L25.9505 49.7149C26.1308 49.7425 26.3116 49.7809 26.493 49.8303L26.7197 48.9992L26.9463 48.168C26.7027 48.1016 26.4575 48.0494 26.2109 48.0117L26.0807 48.8633ZM26.7197 48.9992L26.493 49.8303L26.8118 49.9172L27.0384 49.0861L27.265 48.2549L26.9463 48.168L26.7197 48.9992ZM27.0384 49.0861L26.8118 49.9172L27.1305 50.0042L27.3571 49.173L27.5838 48.3418L27.265 48.2549L27.0384 49.0861ZM27.3571 49.173L27.1305 50.0042C27.4506 50.0914 27.7785 50.1153 28.1078 50.0743L28.0013 49.2194L27.8948 48.3645C27.7902 48.3775 27.6886 48.3704 27.5838 48.3418L27.3571 49.173ZM28.0013 49.2194L28.1078 50.0743L28.4333 50.0337L28.3268 49.1788L28.2203 48.3239L27.8948 48.3645L28.0013 49.2194ZM28.3268 49.1788L28.4333 50.0337L28.7588 49.9932L28.6523 49.1383L28.5458 48.2834L28.2203 48.3239L28.3268 49.1788ZM28.6523 49.1383L28.7588 49.9932C28.8523 49.9815 28.9408 49.9894 29.0325 50.0184L29.2918 49.1968L29.5511 48.3753C29.2241 48.2721 28.8862 48.241 28.5458 48.2834L28.6523 49.1383ZM29.2918 49.1968L29.0325 50.0184L29.3466 50.1175L29.6059 49.296L29.8652 48.4744L29.5511 48.3753L29.2918 49.1968ZM29.6059 49.296L29.3466 50.1175L29.6606 50.2166L29.9199 49.3951L30.1792 48.5735L29.8652 48.4744L29.6059 49.296ZM29.9199 49.3951L29.6606 50.2166C29.8751 50.2843 30.0921 50.3507 30.3119 50.4157L30.5563 49.5896L30.8008 48.7635C30.5908 48.7013 30.3836 48.638 30.1792 48.5735L29.9199 49.3951ZM30.5563 49.5896L30.3119 50.4157L30.6342 50.5111L30.8787 49.685L31.1231 48.8589L30.8008 48.7635L30.5563 49.5896ZM30.8787 49.685L30.6342 50.5111L30.9566 50.6065L31.201 49.7804L31.4455 48.9543L31.1231 48.8589L30.8787 49.685ZM31.201 49.7804L30.9566 50.6065C31.358 50.7252 31.7657 50.7046 32.1513 50.5621L31.8527 49.754L31.554 48.946C31.5005 48.9657 31.4738 48.9627 31.4455 48.9543L31.201 49.7804ZM31.8527 49.754L32.1513 50.5621L32.4806 50.4404L32.182 49.6323L31.8833 48.8243L31.554 48.946L31.8527 49.754ZM32.182 49.6323L32.4806 50.4404L32.81 50.3187L32.5113 49.5106L32.2127 48.7025L31.8833 48.8243L32.182 49.6323ZM32.5113 49.5106L32.81 50.3187C32.89 50.2891 32.9407 50.2904 32.9808 50.2989L33.1584 49.4559L33.3361 48.6129C32.9524 48.5321 32.5717 48.5699 32.2127 48.7025L32.5113 49.5106ZM33.1584 49.4559L32.9808 50.2989L33.2985 50.3658L33.4762 49.5229L33.6538 48.6799L33.3361 48.6129L33.1584 49.4559ZM33.4762 49.5229L33.2985 50.3658L33.6163 50.4328L33.794 49.5898L33.9716 48.7468L33.6538 48.6799L33.4762 49.5229ZM33.794 49.5898L33.6163 50.4328C33.8052 50.4726 33.9969 50.5211 34.1914 50.5784L34.4349 49.752L34.6784 48.9256C34.442 48.856 34.2064 48.7963 33.9716 48.7468L33.794 49.5898ZM34.4349 49.752L34.1914 50.5784L34.5146 50.6736L34.7581 49.8472L35.0016 49.0209L34.6784 48.9256L34.4349 49.752ZM34.7581 49.8472L34.5146 50.6736L34.8378 50.7688L35.0812 49.9425L35.3247 49.1161L35.0016 49.0209L34.7581 49.8472ZM35.0812 49.9425L34.8378 50.7688C35.1391 50.8576 35.4478 50.8982 35.7607 50.887L35.73 50.0261L35.6993 49.1651C35.578 49.1694 35.4543 49.1543 35.3247 49.1161L35.0812 49.9425ZM35.73 50.0261L35.7607 50.887L36.0862 50.8754L36.0555 50.0145L36.0248 49.1535L35.6993 49.1651L35.73 50.0261ZM36.0555 50.0145L36.0862 50.8754L36.4118 50.8638L36.3811 50.0028L36.3504 49.1419L36.0248 49.1535L36.0555 50.0145ZM36.3811 50.0028L36.4118 50.8638C36.7592 50.8514 37.0914 50.7621 37.4029 50.6116L37.0281 49.8359L36.6534 49.0602C36.5362 49.1168 36.437 49.1388 36.3504 49.1419L36.3811 50.0028ZM37.0281 49.8359L37.4029 50.6116L37.7243 50.4563L37.3496 49.6806L36.9748 48.9049L36.6534 49.0602L37.0281 49.8359ZM37.3496 49.6806L37.7243 50.4563L38.0458 50.301L37.6711 49.5253L37.2963 48.7496L36.9748 48.9049L37.3496 49.6806ZM37.6711 49.5253L38.0458 50.301C38.1387 50.2561 38.2032 50.2492 38.2519 50.2528L38.3148 49.3936L38.3777 48.5344C37.9968 48.5065 37.632 48.5874 37.2963 48.7496L37.6711 49.5253ZM38.3148 49.3936L38.2519 50.2528L38.5742 50.2764L38.6371 49.4172L38.7 48.558L38.3777 48.5344L38.3148 49.3936ZM38.6371 49.4172L38.5742 50.2764L38.8965 50.3L38.9594 49.4408L39.0223 48.5816L38.7 48.558L38.6371 49.4172ZM38.9594 49.4408L38.8965 50.3C39.2061 50.3227 39.5136 50.2944 39.8154 50.218L39.6041 49.3828L39.3928 48.5476C39.2648 48.58 39.1424 48.5904 39.0223 48.5816L38.9594 49.4408ZM39.6041 49.3828L39.8154 50.218L40.1378 50.1364L39.9265 49.3013L39.7152 48.4661L39.3928 48.5476L39.6041 49.3828ZM39.9265 49.3013L40.1378 50.1364L40.4602 50.0549L40.2489 49.2197L40.0376 48.3845L39.7152 48.4661L39.9265 49.3013ZM40.2489 49.2197L40.4602 50.0549C40.5372 50.0354 40.6086 50.0351 40.6872 50.0546L40.895 49.2186L41.1028 48.3825C40.7498 48.2948 40.3905 48.2952 40.0376 48.3845L40.2489 49.2197ZM40.895 49.2186L40.6872 50.0546L41.011 50.1351L41.2187 49.299L41.4265 48.4629L41.1028 48.3825L40.895 49.2186ZM41.2187 49.299L41.011 50.1351L41.3347 50.2155L41.5425 49.3795L41.7502 48.5434L41.4265 48.4629L41.2187 49.299ZM41.5425 49.3795L41.3347 50.2155C41.683 50.3021 42.0382 50.3047 42.3882 50.2192L42.1838 49.3823L41.9793 48.5455C41.9059 48.5634 41.8336 48.5641 41.7502 48.5434L41.5425 49.3795ZM42.1838 49.3823L42.3882 50.2192L42.7057 50.1417L42.5013 49.3048L42.2969 48.4679L41.9793 48.5455L42.1838 49.3823ZM42.5013 49.3048L42.7057 50.1417L43.0233 50.0641L42.8189 49.2272L42.6145 48.3903L42.2969 48.4679L42.5013 49.3048ZM42.8189 49.2272L43.0233 50.0641C43.0345 50.0614 43.0621 50.054 43.1341 50.0846L43.4708 49.2917L43.8076 48.4987C43.4338 48.3399 43.0267 48.2896 42.6145 48.3903L42.8189 49.2272ZM43.4708 49.2917L43.1341 50.0846L43.4684 50.2266L43.8052 49.4337L44.142 48.6408L43.8076 48.4987L43.4708 49.2917ZM43.8052 49.4337L43.4684 50.2266L43.8028 50.3687L44.1396 49.5757L44.4764 48.7828L44.142 48.6408L43.8052 49.4337ZM44.1396 49.5757L43.8028 50.3687C44.2017 50.5381 44.6373 50.5722 45.067 50.426L44.7895 49.6104L44.512 48.7948C44.5091 48.7958 44.5089 48.7956 44.5107 48.7954C44.5126 48.7951 44.5144 48.7951 44.5152 48.7951C44.518 48.7953 44.5063 48.7955 44.4764 48.7828L44.1396 49.5757ZM44.7895 49.6104L45.067 50.426L45.3825 50.3187L45.105 49.5031L44.8275 48.6875L44.512 48.7948L44.7895 49.6104ZM45.105 49.5031L45.3825 50.3187L45.6979 50.2114L45.4205 49.3958L45.143 48.5802L44.8275 48.6875L45.105 49.5031ZM45.4205 49.3958L45.6979 50.2114C45.8432 50.1619 45.985 50.1328 46.1245 50.1217L46.056 49.2629L45.9876 48.4042C45.7004 48.427 45.4184 48.4865 45.143 48.5802L45.4205 49.3958ZM46.056 49.2629L46.1245 50.1217L46.4446 50.0962L46.3761 49.2374L46.3077 48.3786L45.9876 48.4042L46.056 49.2629ZM46.3761 49.2374L46.4446 50.0962L46.7646 50.0707L46.6962 49.2119L46.6277 48.3531L46.3077 48.3786L46.3761 49.2374ZM46.6962 49.2119L46.7646 50.0707C46.9425 50.0565 47.1239 50.0531 47.3092 50.0608L47.345 49.2001L47.3808 48.3393C47.1278 48.3288 46.8767 48.3333 46.6277 48.3531L46.6962 49.2119ZM47.345 49.2001L47.3092 50.0608L47.6379 50.0745L47.6738 49.2138L47.7096 48.353L47.3808 48.3393L47.345 49.2001ZM47.6738 49.2138L47.6379 50.0745L47.9667 50.0882L48.0025 49.2275L48.0384 48.3667L47.7096 48.353L47.6738 49.2138ZM48.0025 49.2275L47.9667 50.0882C48.3199 50.1029 48.6625 50.0366 48.9852 49.8952L48.6396 49.1061L48.294 48.317C48.2056 48.3557 48.1235 48.3702 48.0384 48.3667L48.0025 49.2275ZM48.6396 49.1061L48.9852 49.8952L49.2935 49.7602L48.9479 48.9711L48.6023 48.1819L48.294 48.317L48.6396 49.1061ZM48.9479 48.9711L49.2935 49.7602L49.6018 49.6252L49.2562 48.836L48.9106 48.0469L48.6023 48.1819L48.9479 48.9711ZM49.2562 48.836L49.6018 49.6252C49.6168 49.6186 49.6243 49.6179 49.6279 49.6176C49.632 49.6174 49.6455 49.6169 49.6725 49.6244L49.9014 48.7938L50.1303 47.9633C49.723 47.851 49.3046 47.8743 48.9106 48.0469L49.2562 48.836ZM49.9014 48.7938L49.6725 49.6244L50.0094 49.7172L50.2383 48.8867L50.4672 48.0561L50.1303 47.9633L49.9014 48.7938ZM50.2383 48.8867L50.0094 49.7172L50.3463 49.8101L50.5752 48.9795L50.8041 48.149L50.4672 48.0561L50.2383 48.8867ZM50.5752 48.9795L50.3463 49.8101C50.7586 49.9237 51.1812 49.8963 51.5767 49.7166L51.2203 48.9323L50.8639 48.148C50.8495 48.1546 50.8434 48.1548 50.842 48.1549C50.8403 48.1551 50.8291 48.1559 50.8041 48.149L50.5752 48.9795ZM51.2203 48.9323L51.5767 49.7166L51.885 49.5766L51.5286 48.7922L51.1722 48.0079L50.8639 48.148L51.2203 48.9323ZM51.5286 48.7922L51.885 49.5766L52.1932 49.4365L51.8368 48.6522L51.4804 47.8679L51.1722 48.0079L51.5286 48.7922ZM51.8368 48.6522L52.1932 49.4365C52.3529 49.3639 52.51 49.3093 52.6648 49.2711L52.4581 48.4348L52.2514 47.5984C51.9888 47.6633 51.7317 47.7537 51.4804 47.8679L51.8368 48.6522ZM52.4581 48.4348L52.6648 49.2711L52.9778 49.1937L52.7711 48.3574L52.5644 47.5211L52.2514 47.5984L52.4581 48.4348ZM52.7711 48.3574L52.9778 49.1937L53.2908 49.1164L53.0841 48.28L52.8774 47.4437L52.5644 47.5211L52.7711 48.3574ZM53.0841 48.28L53.2908 49.1164C53.5551 49.051 53.8122 48.9597 54.0616 48.8434L53.6975 48.0626L53.3334 47.2818C53.1823 47.3523 53.0305 47.4059 52.8774 47.4437L53.0841 48.28ZM53.6975 48.0626L54.0616 48.8434L54.362 48.7033L53.9979 47.9225L53.6338 47.1417L53.3334 47.2818L53.6975 48.0626ZM53.9979 47.9225L54.362 48.7033L54.6623 48.5632L54.2982 47.7824L53.9342 47.0017L53.6338 47.1417L53.9979 47.9225ZM54.2982 47.7824L54.6623 48.5632C54.6708 48.5593 54.6746 48.5588 54.6781 48.5585C54.6825 48.5582 54.6995 48.5574 54.7335 48.5661L54.947 47.7315L55.1605 46.8969C54.7529 46.7926 54.3307 46.8167 53.9342 47.0017L54.2982 47.7824ZM54.947 47.7315L54.7335 48.5661L55.0819 48.6552L55.2954 47.8206L55.5089 46.986L55.1605 46.8969L54.947 47.7315ZM55.2954 47.8206L55.0819 48.6552L55.4302 48.7444L55.6437 47.9097L55.8573 47.0751L55.5089 46.986L55.2954 47.8206ZM55.6437 47.9097L55.4302 48.7444C55.8473 48.8511 56.2793 48.8195 56.6794 48.6154L56.2879 47.848L55.8964 47.0806C55.8931 47.0822 55.8923 47.0823 55.8936 47.0819C55.8949 47.0816 55.8962 47.0813 55.8967 47.0813C55.899 47.0811 55.8876 47.0829 55.8573 47.0751L55.6437 47.9097ZM56.2879 47.848L56.6794 48.6154L56.9751 48.4645L56.5836 47.6971L56.1921 46.9297L55.8964 47.0806L56.2879 47.848ZM56.5836 47.6971L56.9751 48.4645L57.2709 48.3136L56.8794 47.5462L56.4879 46.7788L56.1921 46.9297L56.5836 47.6971ZM56.8794 47.5462L57.2709 48.3136C57.4413 48.2267 57.6129 48.1504 57.7856 48.0844L57.4783 47.2796L57.171 46.4747C56.9395 46.5631 56.7118 46.6646 56.4879 46.7788L56.8794 47.5462ZM57.4783 47.2796L57.7856 48.0844L58.0888 47.9686L57.7815 47.1638L57.4742 46.359L57.171 46.4747L57.4783 47.2796ZM57.7815 47.1638L58.0888 47.9686L58.392 47.8529L58.0847 47.0481L57.7774 46.2432L57.4742 46.359L57.7815 47.1638ZM58.0847 47.0481L58.392 47.8529C58.3978 47.8506 58.429 47.8369 58.5207 47.862L58.7485 47.0312L58.9763 46.2003C58.5872 46.0936 58.1758 46.0911 57.7774 46.2432L58.0847 47.0481ZM58.7485 47.0312L58.5207 47.862L58.8813 47.9609L59.1091 47.13L59.3369 46.2992L58.9763 46.2003L58.7485 47.0312ZM59.1091 47.13L58.8813 47.9609L59.2419 48.0597L59.4697 47.2289L59.6975 46.3981L59.3369 46.2992L59.1091 47.13ZM59.4697 47.2289L59.2419 48.0597C59.6694 48.177 60.123 48.1509 60.539 47.919L60.1195 47.1665L59.7 46.414C59.7018 46.4131 59.7062 46.4109 59.7128 46.4088C59.7195 46.4067 59.7256 46.4056 59.7301 46.4052C59.7344 46.4048 59.7348 46.4052 59.7301 46.4047C59.7253 46.4043 59.7146 46.4028 59.6975 46.3981L59.4697 47.2289ZM60.1195 47.1665L60.539 47.919L60.8283 47.7577L60.4088 47.0052L59.9893 46.2528L59.7 46.414L60.1195 47.1665ZM60.4088 47.0052L60.8283 47.7577L61.1175 47.5964L60.698 46.844L60.2785 46.0915L59.9893 46.2528L60.4088 47.0052ZM60.698 46.844L61.1175 47.5964C61.2033 47.5486 61.2921 47.5213 61.3922 47.5128L61.3188 46.6544L61.2455 45.796C60.9035 45.8252 60.5785 45.9243 60.2785 46.0915L60.698 46.844ZM61.3188 46.6544L61.3922 47.5128L61.7237 47.4844L61.6503 46.6261L61.577 45.7677L61.2455 45.796L61.3188 46.6544ZM61.6503 46.6261L61.7237 47.4844L62.0552 47.4561L61.9819 46.5977L61.9085 45.7394L61.577 45.7677L61.6503 46.6261ZM61.9819 46.5977L62.0552 47.4561C62.4499 47.4224 62.8091 47.2756 63.1168 47.0335L62.5841 46.3564L62.0514 45.6793C61.9982 45.7213 61.9559 45.7353 61.9085 45.7394L61.9819 46.5977ZM62.5841 46.3564L63.1168 47.0335L63.3875 46.8205L62.8548 46.1435L62.3221 45.4664L62.0514 45.6793L62.5841 46.3564ZM62.8548 46.1435L63.3875 46.8205L63.6582 46.6076L63.1255 45.9305L62.5929 45.2534L62.3221 45.4664L62.8548 46.1435ZM63.1255 45.9305L63.6582 46.6076C63.7691 46.5203 63.8768 46.4625 63.9823 46.4259L63.6994 45.6121L63.4165 44.7984C63.1178 44.9022 62.8429 45.0567 62.5929 45.2534L63.1255 45.9305ZM63.6994 45.6121L63.9823 46.4259L64.2854 46.3205L64.0025 45.5068L63.7197 44.693L63.4165 44.7984L63.6994 45.6121ZM64.0025 45.5068L64.2854 46.3205L64.5885 46.2151L64.3057 45.4014L64.0228 44.5876L63.7197 44.693L64.0025 45.5068ZM64.3057 45.4014L64.5885 46.2151C64.6999 46.1764 64.8262 46.1528 64.9724 46.1495L64.953 45.2882L64.9335 44.427C64.6208 44.434 64.3156 44.4859 64.0228 44.5876L64.3057 45.4014ZM64.953 45.2882L64.9724 46.1495L65.3166 46.1417L65.2971 45.2804L65.2777 44.4192L64.9335 44.427L64.953 45.2882ZM65.2971 45.2804L65.3166 46.1417L65.6608 46.1339L65.6413 45.2727L65.6219 44.4114L65.2777 44.4192L65.2971 45.2804ZM65.6413 45.2727L65.6608 46.1339C66.0555 46.125 66.4286 46.0068 66.7548 45.7757L66.2568 45.0727L65.7588 44.3697C65.7233 44.3949 65.6861 44.4099 65.6219 44.4114L65.6413 45.2727ZM66.2568 45.0727L66.7548 45.7757L67.0261 45.5835L66.5281 44.8805L66.0301 44.1775L65.7588 44.3697L66.2568 45.0727ZM66.5281 44.8805L67.0261 45.5835L67.2974 45.3913L66.7994 44.6883L66.3014 43.9853L66.0301 44.1775L66.5281 44.8805ZM66.7994 44.6883L67.2974 45.3913C67.4672 45.271 67.6379 45.1561 67.8097 45.0464L67.3461 44.3203L66.8825 43.5942C66.687 43.719 66.4933 43.8494 66.3014 43.9853L66.7994 44.6883ZM67.3461 44.3203L67.8097 45.0464L68.0851 44.8706L67.6215 44.1444L67.1579 43.4183L66.8825 43.5942L67.3461 44.3203ZM67.6215 44.1444L68.0851 44.8706L68.3605 44.6947L67.8969 43.9686L67.4333 43.2425L67.1579 43.4183L67.6215 44.1444ZM67.8969 43.9686L68.3605 44.6947C68.3665 44.6909 68.3905 44.6732 68.4764 44.6797L68.5414 43.8207L68.6064 42.9616C68.2003 42.9309 67.7946 43.0118 67.4333 43.2425L67.8969 43.9686ZM68.5414 43.8207L68.4764 44.6797L68.8455 44.7076L68.9105 43.8486L68.9755 42.9895L68.6064 42.9616L68.5414 43.8207ZM68.9105 43.8486L68.8455 44.7076L69.2146 44.7356L69.2796 43.8765L69.3446 43.0175L68.9755 42.9895L68.9105 43.8486ZM69.2796 43.8765L69.2146 44.7356C69.6875 44.7713 70.1442 44.6267 70.4991 44.2735L69.8914 43.6629L69.2838 43.0522C69.2852 43.0508 69.2906 43.0457 69.3004 43.0395C69.3102 43.0333 69.3215 43.0278 69.3331 43.0237C69.3579 43.0151 69.3661 43.0191 69.3446 43.0175L69.2796 43.8765ZM69.8914 43.6629L70.4991 44.2735L70.7419 44.0319L70.1342 43.4213L69.5266 42.8106L69.2838 43.0522L69.8914 43.6629ZM70.1342 43.4213L70.7419 44.0319L70.9847 43.7903L70.377 43.1797L69.7694 42.569L69.5266 42.8106L70.1342 43.4213ZM70.377 43.1797L70.9847 43.7903C71.1403 43.6355 71.2966 43.4847 71.4535 43.338L70.8652 42.7087L70.2769 42.0794C70.1066 42.2385 69.9375 42.4017 69.7694 42.569L70.377 43.1797ZM70.8652 42.7087L71.4535 43.338L71.6989 43.1087L71.1106 42.4793L70.5222 41.85L70.2769 42.0794L70.8652 42.7087ZM71.1106 42.4793L71.6989 43.1087L71.9442 42.8793L71.3559 42.25L70.7676 41.6206L70.5222 41.85L71.1106 42.4793ZM71.3559 42.25L71.9442 42.8793C71.9417 42.8816 71.9364 42.8861 71.9284 42.8909C71.9203 42.8957 71.9123 42.8992 71.9058 42.9013C71.8994 42.9034 71.897 42.9034 71.9002 42.9031C71.9036 42.9027 71.9135 42.9018 71.9312 42.9029L71.9815 42.0428L72.0318 41.1828C71.5775 41.1562 71.1273 41.2844 70.7676 41.6206L71.3559 42.25ZM71.9815 42.0428L71.9312 42.9029L72.3113 42.9251L72.3617 42.0651L72.412 41.2051L72.0318 41.1828L71.9815 42.0428ZM72.3617 42.0651L72.3113 42.9251L72.6916 42.9474L72.7419 42.0873L72.7922 41.2273L72.412 41.2051L72.3617 42.0651ZM72.7419 42.0873L72.6916 42.9474C73.184 42.9762 73.6603 42.8079 74.0034 42.4003L73.3443 41.8455L72.6852 41.2907C72.6894 41.2858 72.6984 41.2763 72.7129 41.2656C72.7277 41.2547 72.7445 41.2454 72.7617 41.2385C72.7977 41.224 72.814 41.2286 72.7922 41.2273L72.7419 42.0873ZM73.3443 41.8455L74.0034 42.4003L74.2257 42.1362L73.5666 41.5814L72.9075 41.0267L72.6852 41.2907L73.3443 41.8455ZM73.5666 41.5814L74.2257 42.1362L74.448 41.8721L73.7889 41.3174L73.1298 40.7626L72.9075 41.0267L73.5666 41.5814ZM73.7889 41.3174L74.448 41.8721C74.4789 41.8354 74.5034 41.8215 74.5428 41.8121L74.3429 40.9742L74.143 40.1362C73.7401 40.2323 73.3952 40.4472 73.1298 40.7626L73.7889 41.3174ZM74.3429 40.9742L74.5428 41.8121L74.8746 41.733L74.6747 40.895L74.4748 40.057L74.143 40.1362L74.3429 40.9742ZM74.6747 40.895L74.8746 41.733L75.2063 41.6539L75.0065 40.8159L74.8066 39.9779L74.4748 40.057L74.6747 40.895ZM75.0065 40.8159L75.2063 41.6539C75.51 41.5815 75.7969 41.4662 76.0625 41.3058L75.6171 40.5683L75.1717 39.8309C75.0655 39.8951 74.9453 39.9448 74.8066 39.9779L75.0065 40.8159ZM75.6171 40.5683L76.0625 41.3058L76.3413 41.1373L75.8959 40.3999L75.4505 39.6625L75.1717 39.8309L75.6171 40.5683ZM75.8959 40.3999L76.3413 41.1373L76.6202 40.9689L76.1748 40.2315L75.7294 39.4941L75.4505 39.6625L75.8959 40.3999ZM76.1748 40.2315L76.6202 40.9689C76.8239 40.8459 77.0229 40.7157 77.2172 40.5782L76.7197 39.8749L76.2221 39.1716C76.0618 39.285 75.8975 39.3925 75.7294 39.4941L76.1748 40.2315ZM76.7197 39.8749L77.2172 40.5782L77.4832 40.3901L76.9856 39.6867L76.4881 38.9834L76.2221 39.1716L76.7197 39.8749ZM76.9856 39.6867L77.4832 40.3901L77.7492 40.2019L77.2516 39.4986L76.7541 38.7953L76.4881 38.9834L76.9856 39.6867ZM77.2516 39.4986L77.7492 40.2019C78.0318 40.0019 78.2605 39.7468 78.4381 39.4515L77.6998 39.0075L76.9615 38.5635C76.8962 38.6721 76.8261 38.7444 76.7541 38.7953L77.2516 39.4986ZM77.6998 39.0075L78.4381 39.4515L78.6203 39.1486L77.882 38.7046L77.1437 38.2606L76.9615 38.5635L77.6998 39.0075ZM77.882 38.7046L78.6203 39.1486L78.8024 38.8456L78.0642 38.4016L77.3259 37.9577L77.1437 38.2606L77.882 38.7046ZM78.0642 38.4016L78.8024 38.8456C78.8868 38.7053 78.9777 38.5936 79.0725 38.5045L78.4824 37.8768L77.8923 37.2491C77.6724 37.4559 77.4844 37.6941 77.3259 37.9577L78.0642 38.4016ZM78.4824 37.8768L79.0725 38.5045L79.3085 38.2826L78.7184 37.6549L78.1284 37.0272L77.8923 37.2491L78.4824 37.8768ZM78.7184 37.6549L79.3085 38.2826L79.5445 38.0607L78.9545 37.433L78.3644 36.8053L78.1284 37.0272L78.7184 37.6549ZM78.9545 37.433L79.5445 38.0607C79.61 37.9992 79.6907 37.9484 79.7978 37.9108L79.5119 37.0981L79.226 36.2854C78.9046 36.3985 78.6137 36.571 78.3644 36.8053L78.9545 37.433ZM79.5119 37.0981L79.7978 37.9108L80.1191 37.7978L79.8333 36.9851L79.5474 36.1724L79.226 36.2854L79.5119 37.0981ZM79.8333 36.9851L80.1191 37.7978L80.4405 37.6847L80.1546 36.872L79.8687 36.0594L79.5474 36.1724L79.8333 36.9851ZM80.1546 36.872L80.4405 37.6847C80.7401 37.5793 81.0169 37.4295 81.265 37.2333L80.7306 36.5576L80.1962 35.8819C80.1047 35.9542 79.9976 36.014 79.8687 36.0594L80.1546 36.872ZM80.7306 36.5576L81.265 37.2333L81.5196 37.0319L80.9852 36.3562L80.4508 35.6805L80.1962 35.8819L80.7306 36.5576ZM80.9852 36.3562L81.5196 37.0319L81.7742 36.8305L81.2398 36.1548L80.7054 35.4792L80.4508 35.6805L80.9852 36.3562ZM81.2398 36.1548L81.7742 36.8305C82.0341 36.625 82.2463 36.3742 82.4114 36.0872L81.6647 35.6575L80.918 35.2279C80.8561 35.3354 80.785 35.4162 80.7054 35.4792L81.2398 36.1548ZM81.6647 35.6575L82.4114 36.0872L82.5817 35.7912L81.8349 35.3616L81.0882 34.932L80.918 35.2279L81.6647 35.6575ZM81.8349 35.3616L82.5817 35.7912L82.7519 35.4953L82.0052 35.0657L81.2585 34.6361L81.0882 34.932L81.8349 35.3616ZM82.0052 35.0657L82.7519 35.4953C82.8156 35.3846 82.888 35.3016 82.9676 35.2373L82.4261 34.5672L81.8846 33.8972C81.63 34.1029 81.4218 34.3522 81.2585 34.6361L82.0052 35.0657ZM82.4261 34.5672L82.9676 35.2373L83.2182 35.0348L82.6767 34.3647L82.1352 33.6946L81.8846 33.8972L82.4261 34.5672ZM82.6767 34.3647L83.2182 35.0348L83.4688 34.8322L82.9274 34.1622L82.3859 33.4921L82.1352 33.6946L82.6767 34.3647ZM82.9274 34.1622L83.4688 34.8322C83.6833 34.6589 83.8779 34.4643 84.052 34.2495L83.3828 33.707L82.7135 33.1645C82.6146 33.2865 82.5056 33.3954 82.3859 33.4921L82.9274 34.1622ZM83.3828 33.707L84.052 34.2495L84.2568 33.9968L83.5876 33.4543L82.9183 32.9119L82.7135 33.1645L83.3828 33.707ZM83.5876 33.4543L84.2568 33.9968L84.4616 33.7441L83.7924 33.2017L83.1231 32.6592L82.9183 32.9119L83.5876 33.4543ZM83.7924 33.2017L84.4616 33.7441C84.5743 33.6052 84.694 33.4761 84.8208 33.3567L84.2302 32.7295L83.6396 32.1024C83.4557 32.2756 83.2835 32.4613 83.1231 32.6592L83.7924 33.2017ZM84.2302 32.7295L84.8208 33.3567L85.0539 33.1372L84.4632 32.51L83.8726 31.8829L83.6396 32.1024L84.2302 32.7295ZM84.4632 32.51L85.0539 33.1372L85.2869 32.9177L84.6963 32.2906L84.1056 31.6634L83.8726 31.8829L84.4632 32.51ZM84.6963 32.2906L85.2869 32.9177C85.3927 32.8181 85.5143 32.7269 85.6542 32.6451L85.2192 31.9015L84.7841 31.1579C84.5375 31.3022 84.3106 31.4704 84.1056 31.6634L84.6963 32.2906ZM85.2192 31.9015L85.6542 32.6451L85.944 32.4756L85.509 31.732L85.0739 30.9884L84.7841 31.1579L85.2192 31.9015ZM85.509 31.732L85.944 32.4756L86.2338 32.306L85.7988 31.5624L85.3637 30.8188L85.0739 30.9884L85.509 31.732ZM85.7988 31.5624L86.2338 32.306C86.482 32.1608 86.7104 31.9905 86.9169 31.7947L86.3241 31.1695L85.7314 30.5444C85.6238 30.6463 85.502 30.738 85.3637 30.8188L85.7988 31.5624ZM86.3241 31.1695L86.9169 31.7947L87.1525 31.5713L86.5597 30.9462L85.9669 30.321L85.7314 30.5444L86.3241 31.1695ZM86.5597 30.9462L87.1525 31.5713L87.388 31.348L86.7953 30.7228L86.2025 30.0977L85.9669 30.321L86.5597 30.9462ZM86.7953 30.7228L87.388 31.348C87.5736 31.172 87.7462 30.9842 87.9056 30.7849L87.2327 30.247L86.5598 29.709C86.45 29.8463 86.331 29.9758 86.2025 30.0977L86.7953 30.7228ZM87.2327 30.247L87.9056 30.7849L88.1074 30.5324L87.4345 29.9945L86.7616 29.4565L86.5598 29.709L87.2327 30.247ZM87.4345 29.9945L88.1074 30.5324L88.3093 30.2799L87.6364 29.742L86.9635 29.204L86.7616 29.4565L87.4345 29.9945ZM87.6364 29.742L88.3093 30.2799C88.3888 30.1805 88.486 30.0894 88.6054 30.0072L88.1167 29.2977L87.6281 28.5882C87.3761 28.7617 87.1531 28.9668 86.9635 29.204L87.6364 29.742ZM88.1167 29.2977L88.6054 30.0072L88.8838 29.8154L88.3952 29.1059L87.9066 28.3964L87.6281 28.5882L88.1167 29.2977ZM88.3952 29.1059L88.8838 29.8154L89.1623 29.6237L88.6737 28.9141L88.1851 28.2046L87.9066 28.3964L88.3952 29.1059ZM88.6737 28.9141L89.1623 29.6237C89.47 29.4118 89.7113 29.132 89.8728 28.7933L89.0953 28.4223L88.3178 28.0514C88.2885 28.1127 88.2487 28.1608 88.1851 28.2046L88.6737 28.9141ZM89.0953 28.4223L89.8728 28.7933L90.016 28.4933L89.2385 28.1223L88.4609 27.7514L88.3178 28.0514L89.0953 28.4223ZM89.2385 28.1223L90.016 28.4933L90.1591 28.1933L89.3816 27.8223L88.6041 27.4514L88.4609 27.7514L89.2385 28.1223ZM89.3816 27.8223L90.1591 28.1933C90.2339 28.0366 90.3192 27.8912 90.4148 27.7563L89.7119 27.2582L89.009 26.7601C88.855 26.9774 88.7201 27.2081 88.6041 27.4514L89.3816 27.8223ZM89.7119 27.2582L90.4148 27.7563L90.602 27.4921L89.8991 26.994L89.1962 26.4959L89.009 26.7601L89.7119 27.2582ZM89.8991 26.994L90.602 27.4921L90.7892 27.2279L90.0863 26.7298L89.3834 26.2317L89.1962 26.4959L89.8991 26.994ZM90.0863 26.7298L90.7892 27.2279C90.9311 27.0277 91.063 26.8198 91.1847 26.6045L90.4348 26.1804L89.6849 25.7563C89.5916 25.9214 89.4911 26.0798 89.3834 26.2317L90.0863 26.7298ZM90.4348 26.1804L91.1847 26.6045L91.346 26.3193L90.5961 25.8952L89.8463 25.4711L89.6849 25.7563L90.4348 26.1804ZM90.5961 25.8952L91.346 26.3193L91.5073 26.034L90.7575 25.6099L90.0076 25.1858L89.8463 25.4711L90.5961 25.8952ZM90.7575 25.6099L91.5073 26.034C91.5536 25.9522 91.6159 25.8803 91.7033 25.8156L91.1905 25.1234L90.6776 24.4312C90.4027 24.6348 90.1764 24.8873 90.0076 25.1858L90.7575 25.6099ZM91.1905 25.1234L91.7033 25.8156L91.975 25.6143L91.4621 24.9221L90.9492 24.2299L90.6776 24.4312L91.1905 25.1234ZM91.4621 24.9221L91.975 25.6143L92.2467 25.413L91.7338 24.7208L91.2209 24.0286L90.9492 24.2299L91.4621 24.9221ZM91.7338 24.7208L92.2467 25.413C92.6378 25.1232 92.8513 24.7087 92.9021 24.2499L92.0458 24.1551L91.1895 24.0604C91.1881 24.0728 91.1865 24.0778 91.1868 24.077C91.1871 24.076 91.1889 24.0707 91.1933 24.0626C91.1978 24.0545 91.2034 24.0465 91.2095 24.0396C91.2156 24.0327 91.2201 24.0292 91.2209 24.0286L91.7338 24.7208ZM92.0458 24.1551L92.9021 24.2499L92.9424 23.8856L92.0861 23.7908L91.2298 23.6961L91.1895 24.0604L92.0458 24.1551ZM92.0861 23.7908L92.9424 23.8856L92.9827 23.5212L92.1264 23.4265L91.2702 23.3317L91.2298 23.6961L92.0861 23.7908ZM92.1264 23.4265L92.9827 23.5212C92.9975 23.3873 93.0322 23.2988 93.0699 23.2373L92.3355 22.7869L91.6011 22.3365C91.4139 22.6419 91.3091 22.9799 91.2702 23.3317L92.1264 23.4265ZM92.3355 22.7869L93.0699 23.2373L93.2387 22.962L92.5043 22.5117L91.7699 22.0613L91.6011 22.3365L92.3355 22.7869ZM92.5043 22.5117L93.2387 22.962L93.4075 22.6868L92.6731 22.2365L91.9387 21.7861L91.7699 22.0613L92.5043 22.5117ZM92.6731 22.2365L93.4075 22.6868C93.4563 22.6072 93.5252 22.5305 93.6262 22.4576L93.1221 21.759L92.618 21.0604C92.3453 21.2572 92.1149 21.4987 91.9387 21.7861L92.6731 22.2365ZM93.1221 21.759L93.6262 22.4576L93.9065 22.2554L93.4024 21.5568L92.8983 20.8581L92.618 21.0604L93.1221 21.759ZM93.4024 21.5568L93.9065 22.2554L94.1868 22.0531L93.6827 21.3545L93.1786 20.6559L92.8983 20.8581L93.4024 21.5568ZM93.6827 21.3545L94.1868 22.0531C94.4043 21.8962 94.6092 21.7266 94.801 21.5443L94.2074 20.9199L93.6139 20.2955C93.4797 20.423 93.3348 20.5432 93.1786 20.6559L93.6827 21.3545ZM94.2074 20.9199L94.801 21.5443L95.0454 21.3119L94.4519 20.6875L93.8583 20.0631L93.6139 20.2955L94.2074 20.9199ZM94.4519 20.6875L95.0454 21.3119L95.2899 21.0795L94.6963 20.4551L94.1028 19.8307L93.8583 20.0631L94.4519 20.6875ZM94.6963 20.4551L95.2899 21.0795C95.5632 20.8197 95.757 20.5017 95.8614 20.1387L95.0334 19.9005L94.2055 19.6624C94.1864 19.729 94.1553 19.7808 94.1028 19.8307L94.6963 20.4551ZM95.0334 19.9005L95.8614 20.1387L95.9541 19.8164L95.1261 19.5783L94.2982 19.3402L94.2055 19.6624L95.0334 19.9005ZM95.1261 19.5783L95.9541 19.8164L96.0467 19.4942L95.2188 19.2561L94.3908 19.018L94.2982 19.3402L95.1261 19.5783ZM95.2188 19.2561L96.0467 19.4942C96.1028 19.2993 96.1647 19.1105 96.2324 18.9275L95.4245 18.6284L94.6166 18.3294C94.5336 18.5536 94.4584 18.7832 94.3908 19.018L95.2188 19.2561ZM95.4245 18.6284L96.2324 18.9275L96.3455 18.6221L95.5376 18.323L94.7296 18.0239L94.6166 18.3294L95.4245 18.6284ZM95.5376 18.323L96.3455 18.6221L96.4585 18.3166L95.6506 18.0176L94.8427 17.7185L94.7296 18.0239L95.5376 18.323ZM95.6506 18.0176L96.4585 18.3166C96.4838 18.2484 96.5256 18.1822 96.5996 18.1143L96.017 17.4796L95.4345 16.8449C95.1707 17.0871 94.9682 17.3796 94.8427 17.7185L95.6506 18.0176ZM96.017 17.4796L96.5996 18.1143L96.853 17.8817L96.2704 17.247L95.6878 16.6124L95.4345 16.8449L96.017 17.4796ZM96.2704 17.247L96.853 17.8817L97.1063 17.6492L96.5238 17.0145L95.9412 16.3798L95.6878 16.6124L96.2704 17.247ZM96.5238 17.0145L97.1063 17.6492C97.3571 17.419 97.5576 17.147 97.6964 16.835L96.9094 16.4848L96.1223 16.1345C96.0848 16.2187 96.0282 16.2999 95.9412 16.3798L96.5238 17.0145ZM96.9094 16.4848L97.6964 16.835L97.8287 16.5378L97.0416 16.1876L96.2545 15.8374L96.1223 16.1345L96.9094 16.4848ZM97.0416 16.1876L97.8287 16.5378L97.9609 16.2407L97.1738 15.8904L96.3867 15.5402L96.2545 15.8374L97.0416 16.1876ZM97.1738 15.8904L97.9609 16.2407C98.111 15.9032 98.1661 15.5439 98.1481 15.1814L97.2876 15.2242L96.4272 15.2671C96.4337 15.3967 96.4129 15.4815 96.3867 15.5402L97.1738 15.8904ZM97.2876 15.2242L98.1481 15.1814L98.1297 14.8123L97.2693 14.8552L96.4088 14.898L96.4272 15.2671L97.2876 15.2242ZM97.2693 14.8552L98.1297 14.8123L98.1113 14.4432L97.2509 14.4861L96.3904 14.529L96.4088 14.898L97.2693 14.8552ZM97.2509 14.4861L98.1113 14.4432C98.1105 14.426 98.1112 14.4151 98.1119 14.4095C98.1125 14.404 98.1131 14.4029 98.1125 14.405C98.1118 14.4073 98.1104 14.4106 98.1085 14.414C98.1066 14.4174 98.1054 14.4188 98.1061 14.4179L97.4481 13.8619L96.79 13.3059C96.49 13.661 96.3686 14.09 96.3904 14.529L97.2509 14.4861ZM97.4481 13.8619L98.1061 14.4179L98.3217 14.1627L97.6637 13.6067L97.0056 13.0507L96.79 13.3059L97.4481 13.8619ZM97.6637 13.6067L98.3217 14.1627L98.5373 13.9076L97.8793 13.3516L97.2212 12.7956L97.0056 13.0507L97.6637 13.6067ZM97.8793 13.3516L98.5373 13.9076C98.7555 13.6494 98.9165 13.3556 99.0138 13.0312L98.1886 12.7838L97.3634 12.5364C97.3357 12.6288 97.2905 12.7136 97.2212 12.7956L97.8793 13.3516ZM98.1886 12.7838L99.0138 13.0312L99.1075 12.7186L98.2823 12.4711L97.4571 12.2237L97.3634 12.5364L98.1886 12.7838ZM98.2823 12.4711L99.1075 12.7186L99.2013 12.4059L98.3761 12.1585L97.5509 11.9111L97.4571 12.2237L98.2823 12.4711ZM98.3761 12.1585L99.2013 12.4059C99.2469 12.2539 99.3065 12.1111 99.3799 11.9765L98.6237 11.5639L97.8674 11.1512C97.7357 11.3926 97.6303 11.6463 97.5509 11.9111L98.3761 12.1585ZM98.6237 11.5639L99.3799 11.9765L99.5338 11.6945L98.7776 11.2819L98.0213 10.8692L97.8674 11.1512L98.6237 11.5639ZM98.7776 11.2819L99.5338 11.6945L99.6877 11.4125L98.9314 10.9998L98.1752 10.5872L98.0213 10.8692L98.7776 11.2819ZM98.9314 10.9998L99.6877 11.4125C99.8262 11.1586 99.9303 10.8897 100.001 10.6077L99.1646 10.3994L98.3287 10.1912C98.2932 10.3337 98.2418 10.465 98.1752 10.5872L98.9314 10.9998ZM99.1646 10.3994L100.001 10.6077L100.08 10.2893L99.244 10.081L98.408 9.87275L98.3287 10.1912L99.1646 10.3994ZM99.244 10.081L100.08 10.2893L100.159 9.97087L99.3233 9.7626L98.4873 9.55434L98.408 9.87275L99.244 10.081ZM99.3233 9.7626L100.159 9.97087C100.173 9.91755 100.199 9.86329 100.261 9.80061L99.6471 9.19599L99.0335 8.59137C98.7692 8.85963 98.5798 9.18311 98.4873 9.55434L99.3233 9.7626ZM99.6471 9.19599L100.261 9.80061L100.505 9.55242L99.8917 8.94779L99.278 8.34317L99.0335 8.59137L99.6471 9.19599ZM99.8917 8.94779L100.505 9.55242L100.75 9.30421L100.136 8.69959L99.5225 8.09498L99.278 8.34317L99.8917 8.94779ZM100.136 8.69959L100.75 9.30421C100.986 9.06444 101.174 8.78774 101.3 8.47443L100.5 8.15359L99.7007 7.83275C99.6671 7.91652 99.6123 8.00382 99.5225 8.09498L100.136 8.69959ZM100.5 8.15359L101.3 8.47443L101.419 8.17662L100.62 7.85578L99.8202 7.53494L99.7007 7.83275L100.5 8.15359ZM100.62 7.85578L101.419 8.17662L101.539 7.87881L100.739 7.55797L99.9397 7.23713L99.8202 7.53494L100.62 7.85578ZM100.739 7.55797L101.539 7.87881C101.607 7.7094 101.685 7.54207 101.773 7.37675L101.012 6.97203L100.252 6.56731C100.135 6.78618 100.031 7.00947 99.9397 7.23713L100.739 7.55797ZM101.012 6.97203L101.773 7.37675L101.926 7.08861L101.165 6.68389L100.405 6.27917L100.252 6.56731L101.012 6.97203ZM101.165 6.68389L101.926 7.08861L102.079 6.80047L101.319 6.39575L100.558 5.99103L100.405 6.27917L101.165 6.68389ZM101.319 6.39575L102.079 6.80047C102.205 6.56361 102.31 6.31715 102.392 6.06164L101.573 5.79641L100.753 5.53117C100.702 5.6906 100.637 5.8437 100.558 5.99103L101.319 6.39575ZM101.573 5.79641L102.392 6.06164L102.493 5.75044L101.674 5.48521L100.854 5.21997L100.753 5.53117L101.573 5.79641ZM101.674 5.48521L102.493 5.75044L102.594 5.43925L101.774 5.17401L100.955 4.90878L100.854 5.21997L101.674 5.48521ZM101.774 5.17401L102.594 5.43925C102.693 5.13203 102.735 4.81371 102.725 4.48989L101.864 4.51799L101.003 4.54609C101.007 4.68203 100.989 4.80106 100.955 4.90878L101.774 5.17401ZM101.864 4.51799L102.725 4.48989L102.713 4.14506L101.852 4.17316L100.991 4.20126L101.003 4.54609L101.864 4.51799ZM101.852 4.17316L102.713 4.14506L102.702 3.80023L101.841 3.82833L100.98 3.85643L100.991 4.20126L101.852 4.17316ZM101.841 3.82833L102.702 3.80023C102.697 3.64283 102.712 3.50086 102.743 3.37134L101.906 3.16888L101.069 2.96641C100.998 3.2564 100.97 3.55407 100.98 3.85643L101.841 3.82833ZM101.906 3.16888L102.743 3.37134L102.819 3.05672L101.982 2.85425L101.145 2.65179L101.069 2.96641L101.906 3.16888ZM101.982 2.85425L102.819 3.05672L102.895 2.74209L102.058 2.53962L101.221 2.33716L101.145 2.65179L101.982 2.85425ZM102.058 2.53962L102.895 2.74209C102.939 2.56402 102.992 2.38848 103.055 2.21531L102.246 1.9197L101.437 1.62408C101.351 1.85798 101.279 2.09572 101.221 2.33716L102.058 2.53962ZM102.246 1.9197L103.055 2.21531L103.166 1.91001L102.357 1.6144L101.548 1.31878L101.437 1.62408L102.246 1.9197ZM102.357 1.6144L103.166 1.91001L103.278 1.60471L102.469 1.3091L101.66 1.01348L101.548 1.31878L102.357 1.6144ZM102.469 1.3091L103.278 1.60471C103.302 1.53837 103.31 1.53589 103.29 1.56445C103.279 1.58077 103.25 1.61945 103.198 1.66287C103.145 1.70742 103.059 1.7641 102.94 1.79769L102.707 0.968282L102.474 0.138878C102.156 0.228188 101.969 0.447324 101.878 0.578032C101.778 0.720199 101.71 0.876287 101.66 1.01348L102.469 1.3091ZM102.707 0.968282L102.94 1.79769L103.066 1.76217L102.833 0.932766L102.6 0.103363L102.474 0.138878L102.707 0.968282ZM102.833 0.932766L102.744 1.78961L102.962 1.81238L103.051 0.955534L103.141 0.0986847L102.923 0.0759189L102.833 0.932766ZM103.051 0.955534L103.859 1.25425L103.894 1.16046L103.086 0.861737L102.278 0.563019L102.243 0.656816L103.051 0.955534Z" fill="white"/>
</svg>
