<svg width="94" height="46" viewBox="0 0 94 46" fill="none" xmlns="http://www.w3.org/2000/svg">
<path d="M0.751129 2.11849C0.279267 2.17952 -0.0537823 2.61151 0.00724417 3.08338C0.0682777 3.55524 0.50027 3.88828 0.972133 3.82725L0.861631 2.97287L0.751129 2.11849ZM0.960806 2.96004L1.07131 3.81443L1.24809 3.79156L1.40128 3.70043L0.960806 2.96004ZM1.51707 2.6291L1.0766 1.88872L1.51707 2.6291ZM2.39544 2.26181L2.29881 1.40574L2.39544 2.26181ZM2.71754 2.22545L2.81417 3.08151L2.71754 2.22545ZM3.03965 2.18909L2.94301 1.33303L3.03965 2.18909ZM3.70301 2.2733L3.98999 1.46101L3.70301 2.2733ZM4.38552 2.51444L4.09853 3.32673L4.38552 2.51444ZM5.028 2.43014L5.51249 3.1425L5.028 2.43014ZM5.63046 2.0204L6.11495 2.73276L5.63046 2.0204ZM6.25592 1.79848L6.30115 2.65879L6.25592 1.79848ZM6.58016 1.78144L6.53493 0.921126L6.58016 1.78144ZM6.9044 1.76439L6.85917 0.904079L6.9044 1.76439ZM7.55658 1.77672L7.63343 0.918651L7.55658 1.77672ZM8.21247 1.83546L8.13561 2.69352L8.21247 1.83546ZM8.85571 1.75868L8.58084 0.94221V0.94221L8.85571 1.75868ZM9.17101 1.65254L8.89615 0.836063L9.17101 1.65254ZM9.48632 1.54639L9.76118 2.36286L9.48632 1.54639ZM10.1309 1.48546L10.0137 2.33895L10.1309 1.48546ZM10.7895 1.57589L10.9067 0.722395L10.7895 1.57589ZM11.4386 1.57122L11.3058 0.720013L11.4386 1.57122ZM12.0782 1.47146L12.2109 2.32267L12.0782 1.47146ZM12.7265 1.47581L12.8668 0.625815L12.7265 1.47581ZM13.055 1.53004L12.9147 2.38004L13.055 1.53004ZM13.3835 1.58427L13.2432 2.43427L13.3835 1.58427ZM14.3452 1.39941L14.0409 0.593448L14.3452 1.39941ZM15.3067 1.25314L15.5411 0.424135L15.3067 1.25314ZM15.635 1.34596L15.4006 2.17496L15.635 1.34596ZM15.9633 1.43878L16.1977 0.609779V0.609779L15.9633 1.43878ZM16.6148 1.5245L16.5959 0.663209L16.6148 1.5245ZM17.2611 1.5103L17.2801 2.37159L17.2611 1.5103ZM17.9034 1.37961L18.2145 2.18297L17.9034 1.37961ZM18.2225 1.25603L17.9114 0.452666L18.2225 1.25603ZM18.5416 1.13244L18.2305 0.329082L18.5416 1.13244ZM19.1847 1.04477L19.2796 0.188512L19.1847 1.04477ZM19.5087 1.08068L19.4138 1.93693L19.5087 1.08068ZM19.8327 1.11659L19.7377 1.97284L19.8327 1.11659ZM20.4804 1.15726L20.4677 2.01866L20.4804 1.15726ZM20.8042 1.16202L20.8169 0.300609L20.8042 1.16202ZM21.128 1.16678L21.1153 2.02818L21.128 1.16678ZM21.7749 1.08155L21.5438 0.251633L21.7749 1.08155ZM22.4212 0.901589L22.6523 1.73151L22.4212 0.901589ZM23.0671 0.923587L23.3494 0.109665L23.0671 0.923587ZM23.3899 1.03557L23.6723 0.221645L23.3899 1.03557ZM23.7128 1.14755L23.9951 0.333625L23.7128 1.14755ZM24.3588 1.27707L24.4055 0.416842L24.3588 1.27707ZM25.0052 1.31217L24.9585 2.1724L25.0052 1.31217ZM25.6519 1.32064L25.6278 0.459481L25.6519 1.32064ZM25.9755 1.31157L25.9996 2.17273L25.9755 1.31157ZM26.2991 1.3025L26.3232 2.16366L26.2991 1.3025ZM26.9445 1.30197L26.9216 2.16317L26.9445 1.30197ZM27.2664 1.31052L27.2893 0.449324L27.2664 1.31052ZM27.5883 1.31907L27.6111 0.457871L27.5883 1.31907ZM28.2333 1.34537L28.2805 0.485163L28.2333 1.34537ZM28.5564 1.36312L28.5091 2.22332L28.5564 1.36312ZM28.8795 1.38087L28.9267 0.520666L28.8795 1.38087ZM29.5196 1.52422L29.8369 0.723306L29.5196 1.52422ZM29.8365 1.64982L29.5192 2.45073L29.8365 1.64982ZM30.1535 1.77542L30.4709 0.974506L30.1535 1.77542ZM30.8015 1.74898L30.442 0.96608L30.8015 1.74898ZM31.1326 1.59694L30.7731 0.814042L31.1326 1.59694ZM31.4637 1.4449L31.8232 2.2278L31.4637 1.4449ZM32.11 1.42795L31.7706 2.21978L32.11 1.42795ZM32.7403 1.69811L33.0797 0.906273L32.7403 1.69811ZM33.3863 1.75236L33.5908 2.58924L33.3863 1.75236ZM34.048 1.59069L33.8436 0.753811L34.048 1.59069ZM34.6952 1.58395L34.8916 0.745146L34.6952 1.58395ZM35.0115 1.65803L35.2079 0.819229L35.0115 1.65803ZM35.3278 1.73211L35.1313 2.57091L35.3278 1.73211ZM35.9807 1.71373L35.7526 0.882991L35.9807 1.71373ZM36.6541 1.52881L36.8822 2.35955L36.6541 1.52881ZM37.3046 1.54311L37.0272 2.35871L37.3046 1.54311ZM37.9323 1.75663L38.2097 0.941029L37.9323 1.75663ZM38.5648 1.91211L38.695 1.06051L38.5648 1.91211ZM38.8836 1.96084L38.7534 2.81245L38.8836 1.96084ZM39.2023 2.00957L39.0721 2.86117L39.2023 2.00957ZM39.8532 2.03524L39.7936 1.17581L39.8532 2.03524ZM40.1854 2.01219L40.1258 1.15275L40.1854 2.01219ZM40.5176 1.98913L40.5773 2.84857L40.5176 1.98913ZM41.1621 2.06543L41.4233 1.24448L41.1621 2.06543ZM41.4744 2.16478L41.2132 2.98573L41.4744 2.16478ZM42.395 2.54661L41.9419 3.27931L42.395 2.54661ZM42.9872 2.91286L43.4404 2.18015L42.9872 2.91286ZM43.9067 3.27914L43.6638 4.1057L43.9067 3.27914ZM44.2183 3.37072L44.4612 2.54417L44.2183 3.37072ZM44.8606 3.44606L44.9029 4.30653L44.8606 3.44606ZM45.1913 3.42983L45.149 2.56936L45.1913 3.42983ZM45.5219 3.41359L45.5642 4.27405L45.5219 3.41359ZM46.189 3.37232L46.1251 2.51319L46.189 3.37232ZM46.5254 3.34729L46.5893 4.20641L46.5254 3.34729ZM46.8618 3.32226L46.7978 2.46314L46.8618 3.32226ZM47.4906 3.47173L47.932 2.73192L47.4906 3.47173ZM48.0755 3.82074L47.6341 4.56055L48.0755 3.82074ZM48.6846 4.05234L48.5316 4.90016L48.6846 4.05234ZM49.0011 4.10943L49.154 3.26161L49.0011 4.10943ZM49.3177 4.16653L49.1647 5.01435L49.3177 4.16653ZM49.9775 4.19646L49.9096 3.33764L49.9775 4.19646ZM50.6642 4.14211L50.7321 5.00093L50.6642 4.14211ZM51.2939 4.29334L50.8384 5.02458L51.2939 4.29334ZM51.5803 4.47173L51.1248 5.20297L51.5803 4.47173ZM51.8666 4.65013L52.3221 3.91889L51.8666 4.65013ZM52.4776 4.86931L52.3702 5.72409L52.4776 4.86931ZM53.735 5.17189L53.2728 5.89893L53.735 5.17189ZM54.302 5.5323L53.8398 6.25935L54.302 5.5323ZM54.8904 5.81407L54.6182 6.63143L54.8904 5.81407ZM55.5003 6.01719L55.228 6.83455L55.5003 6.01719ZM56.1543 6.10533L56.1213 5.24446L56.1543 6.10533ZM56.5035 6.09191L56.4704 5.23104L56.5035 6.09191ZM56.8526 6.07849L56.8857 6.93935L56.8526 6.07849ZM57.4931 6.21321L57.8836 5.4453L57.4931 6.21321ZM57.7844 6.36135L57.3939 7.12926L57.7844 6.36135ZM58.0757 6.50949L57.6852 7.2774L58.0757 6.50949ZM58.8557 7.16914L59.4786 6.57402L58.8557 7.16914ZM59.1001 7.42489L58.4771 8.02002L59.1001 7.42489ZM59.6723 7.7359L59.5292 8.58542V8.58542L59.6723 7.7359ZM60.0002 7.79114L60.1434 6.94162V6.94162L60.0002 7.79114ZM60.9328 8.07027L61.3811 7.33458L60.9328 8.07027ZM61.4864 8.40755L61.0381 9.14324L61.4864 8.40755ZM62.1178 8.58498L62.0964 9.44621L62.1178 8.58498ZM62.8271 8.60257L62.8484 7.74133L62.8271 8.60257ZM63.4497 8.80149L62.9513 9.50415L63.4497 8.80149ZM63.9858 9.18176L64.4842 8.4791L63.9858 9.18176ZM64.4853 9.62276L63.8521 10.2069L64.4853 9.62276ZM64.9481 10.1245L65.5813 9.54035L64.9481 10.1245ZM65.5446 10.3882L65.5748 9.5272L65.5446 10.3882ZM65.9096 10.401L65.9397 9.54L65.9096 10.401ZM66.2746 10.4138L66.2444 11.2747L66.2746 10.4138ZM66.9251 10.5814L66.5145 11.3387L66.9251 10.5814ZM67.4963 10.8911L67.9069 10.1337L67.4963 10.8911ZM67.9777 11.3451L67.2568 11.8168L67.9777 11.3451ZM68.1734 11.6444L68.8943 11.1727L68.1734 11.6444ZM68.3692 11.9436L67.6483 12.4153L68.3692 11.9436ZM68.7903 12.4835L69.4192 11.8947L68.7903 12.4835ZM69.0155 12.7241L68.3865 13.3128L69.0155 12.7241ZM69.2407 12.9647L69.8697 12.376L69.2407 12.9647ZM69.7235 13.3952L69.2122 14.0886V14.0886L69.7235 13.3952ZM70.2384 13.7749L70.7497 13.0815V13.0815L70.2384 13.7749ZM70.8011 14.0931L70.4672 14.8872L70.8011 14.0931ZM71.4115 14.3497L71.7454 13.5556L71.4115 14.3497ZM71.993 14.6476L72.4437 13.9135L71.993 14.6476ZM72.2692 14.8172L71.8185 15.5514L72.2692 14.8172ZM72.5455 14.9868L72.0948 15.721L72.5455 14.9868ZM73.1242 15.3019L73.4976 14.5255L73.1242 15.3019ZM73.7292 15.5929L73.3559 16.3693L73.7292 15.5929ZM74.2611 15.9691L73.6501 16.5765L74.2611 15.9691ZM74.7199 16.4307L75.3309 15.8233L74.7199 16.4307ZM75.1565 16.9149L74.4895 17.4602L75.1565 16.9149ZM75.5709 17.4218L76.2379 16.8765L75.5709 17.4218ZM76.0231 17.8889L75.4569 18.5382L76.0231 17.8889ZM76.2682 18.1026L76.8344 17.4534L76.2682 18.1026ZM76.5132 18.3163L77.0794 17.667L76.5132 18.3163ZM76.9443 18.799L77.6528 18.3089L76.9443 18.799ZM77.3164 19.337L76.6079 19.8271L77.3164 19.337ZM77.7458 19.8238L77.1712 20.4657L77.7458 19.8238ZM77.9891 20.0416L78.5637 19.3998L77.9891 20.0416ZM78.2325 20.2595L78.8071 19.6176L78.2325 20.2595ZM78.6776 20.7314L78.0029 21.2671L78.6776 20.7314ZM79.0811 21.2395L79.7558 20.7038L79.0811 21.2395ZM79.5345 21.7115L80.0983 21.0601L79.5345 21.7115ZM79.7861 21.9293L80.35 21.2779L79.7861 21.9293ZM80.0378 22.1471L79.4739 22.7984L80.0378 22.1471ZM80.3515 22.7183L81.2 22.5691L80.3515 22.7183ZM80.4137 23.0717L79.5652 23.221L80.4137 23.0717ZM80.7587 24.0188L80.1241 24.6015L80.7587 24.0188ZM80.9793 24.2591L80.3448 24.8418L80.9793 24.2591ZM81.1999 24.4993L81.8345 23.9166L81.1999 24.4993ZM81.5595 25.0335L82.3384 24.6654L81.5595 25.0335ZM82.1087 26.2096L82.8944 25.8561L82.1087 26.2096ZM82.3734 26.7979L83.159 26.4445L82.3734 26.7979ZM82.6066 27.4008L81.7878 27.6686V27.6686L82.6066 27.4008ZM83.2283 28.5331L83.6962 27.8097L83.2283 28.5331ZM83.8661 28.9455L83.3982 29.6689L83.8661 28.9455ZM84.3392 29.4399L83.5798 29.8466L84.3392 29.4399ZM84.6479 30.0161L85.4073 29.6093L84.6479 30.0161ZM84.7086 30.6914L85.546 30.894L84.7086 30.6914ZM84.5213 31.4656L83.684 31.2631L84.5213 31.4656ZM84.5572 32.1439L85.3443 31.7937L84.5572 32.1439ZM85.0836 33.3112L84.3036 33.677L85.0836 33.3112ZM85.3591 33.8987L86.1391 33.533L85.3591 33.8987ZM85.8099 35.1061L84.9949 35.3853L85.8099 35.1061ZM86.0339 36.043L86.8804 35.8828L86.0339 36.043ZM86.0937 36.3592L85.2473 36.5194L86.0937 36.3592ZM86.1665 37.0041L85.3056 37.0378L86.1665 37.0041ZM86.1794 37.3327L87.0402 37.2989L86.1794 37.3327ZM86.1923 37.6613L87.0531 37.6275L86.1923 37.6613ZM86.2581 38.3023L87.1075 38.1584L86.2581 38.3023ZM86.3639 38.9271L85.5145 39.071L86.3639 38.9271ZM86.6095 39.5349L87.3311 39.0644L86.6095 39.5349ZM86.8021 39.8304L87.5237 39.3598L86.8021 39.8304ZM86.9947 40.1258L86.2731 40.5963L86.9947 40.1258ZM87.1069 40.7574L87.9448 40.9578L87.1069 40.7574ZM86.9461 41.4298L86.1082 41.2294L86.9461 41.4298ZM86.9736 42.0757L86.1601 42.3592L86.9736 42.0757ZM87.0815 42.3855L87.895 42.102L87.0815 42.3855ZM87.1895 42.6953L86.3759 42.9787L87.1895 42.6953ZM87.3196 43.3297L86.4601 43.3886L87.3196 43.3297ZM87.3419 43.6543L86.4824 43.7132L87.3419 43.6543ZM87.3641 43.979L88.2236 43.9201L87.3641 43.979ZM87.4222 44.3656L88.1684 43.9352L87.4222 44.3656ZM87.4579 44.4277L86.7117 44.8581L86.8544 45.1055L87.1165 45.2186L87.4579 44.4277ZM87.5159 44.4527L88.3693 44.3352L88.3031 43.8542L87.8573 43.6617L87.5159 44.4527ZM87.0091 45.2383C87.3882 45.5257 87.9286 45.4514 88.216 45.0722L92.8999 38.8934C93.1874 38.5142 93.113 37.9738 92.7338 37.6864C92.3547 37.399 91.8143 37.4733 91.5269 37.8525L87.3634 43.3448L81.8711 39.1813C81.492 38.8939 80.9516 38.9683 80.6641 39.3474C80.3767 39.7266 80.4511 40.267 80.8303 40.5544L87.0091 45.2383ZM0.861631 2.97287L0.972133 3.82725L1.07131 3.81443L0.960806 2.96004L0.850305 2.10566L0.751129 2.11849L0.861631 2.97287ZM0.960806 2.96004L1.40128 3.70043L1.95755 3.36948L1.51707 2.6291L1.0766 1.88872L0.520327 2.21966L0.960806 2.96004ZM1.51707 2.6291L1.95755 3.36948C2.11969 3.27302 2.24856 3.20785 2.34716 3.16662C2.45003 3.1236 2.49406 3.11764 2.49207 3.11787L2.39544 2.26181L2.29881 1.40574C1.89297 1.45155 1.46841 1.65563 1.0766 1.88872L1.51707 2.6291ZM2.39544 2.26181L2.49207 3.11787L2.81417 3.08151L2.71754 2.22545L2.62092 1.36939L2.29881 1.40574L2.39544 2.26181ZM2.71754 2.22545L2.81417 3.08151L3.13628 3.04515L3.03965 2.18909L2.94301 1.33303L2.62092 1.36939L2.71754 2.22545ZM3.03965 2.18909L3.13628 3.04515C3.20705 3.03716 3.29697 3.04353 3.41602 3.0856L3.70301 2.2733L3.98999 1.46101C3.65403 1.34231 3.30171 1.29254 2.94301 1.33303L3.03965 2.18909ZM3.70301 2.2733L3.41602 3.0856L3.75727 3.20617L4.04426 2.39387L4.33125 1.58158L3.98999 1.46101L3.70301 2.2733ZM4.04426 2.39387L3.75727 3.20617L4.09853 3.32673L4.38552 2.51444L4.67251 1.70215L4.33125 1.58158L4.04426 2.39387ZM4.38552 2.51444L4.09853 3.32673C4.58645 3.49912 5.08681 3.43201 5.51249 3.1425L5.028 2.43014L4.54351 1.71778C4.54047 1.71985 4.56244 1.70502 4.60469 1.69947C4.64716 1.6939 4.67355 1.70252 4.67251 1.70215L4.38552 2.51444ZM5.028 2.43014L5.51249 3.1425L5.81372 2.93763L5.32923 2.22527L4.84474 1.51291L4.54351 1.71778L5.028 2.43014ZM5.32923 2.22527L5.81372 2.93763L6.11495 2.73276L5.63046 2.0204L5.14597 1.30804L4.84474 1.51291L5.32923 2.22527ZM5.63046 2.0204L6.11495 2.73276C6.20189 2.67362 6.26075 2.66092 6.30115 2.65879L6.25592 1.79848L6.21069 0.938171C5.81878 0.958776 5.46065 1.09402 5.14597 1.30804L5.63046 2.0204ZM6.25592 1.79848L6.30115 2.65879L6.62539 2.64175L6.58016 1.78144L6.53493 0.921126L6.21069 0.938171L6.25592 1.79848ZM6.58016 1.78144L6.62539 2.64175L6.94963 2.6247L6.9044 1.76439L6.85917 0.904079L6.53493 0.921126L6.58016 1.78144ZM6.9044 1.76439L6.94963 2.6247C7.12452 2.61551 7.30112 2.61878 7.47973 2.63478L7.55658 1.77672L7.63343 0.918651C7.37479 0.895485 7.11659 0.890545 6.85917 0.904079L6.9044 1.76439ZM7.55658 1.77672L7.47973 2.63478L7.80767 2.66415L7.88452 1.80609L7.96137 0.948021L7.63343 0.918651L7.55658 1.77672ZM7.88452 1.80609L7.80767 2.66415L8.13561 2.69352L8.21247 1.83546L8.28932 0.977393L7.96137 0.948021L7.88452 1.80609ZM8.21247 1.83546L8.13561 2.69352C8.47437 2.72386 8.8085 2.68359 9.13058 2.57516L8.85571 1.75868L8.58084 0.94221C8.48252 0.97531 8.38782 0.986216 8.28932 0.977393L8.21247 1.83546ZM8.85571 1.75868L9.13058 2.57516L9.44588 2.46901L9.17101 1.65254L8.89615 0.836063L8.58084 0.94221L8.85571 1.75868ZM9.17101 1.65254L9.44588 2.46901L9.76118 2.36286L9.48632 1.54639L9.21145 0.729916L8.89615 0.836063L9.17101 1.65254ZM9.48632 1.54639L9.76118 2.36286C9.84543 2.3345 9.92611 2.32692 10.0137 2.33895L10.1309 1.48546L10.2481 0.631968C9.89665 0.58371 9.5476 0.616751 9.21145 0.729916L9.48632 1.54639ZM10.1309 1.48546L10.0137 2.33895L10.343 2.38416L10.4602 1.53067L10.5774 0.677181L10.2481 0.631968L10.1309 1.48546ZM10.4602 1.53067L10.343 2.38416L10.6723 2.42938L10.7895 1.57589L10.9067 0.722395L10.5774 0.677181L10.4602 1.53067ZM10.7895 1.57589L10.6723 2.42938C10.9725 2.47061 11.2731 2.46894 11.5713 2.42243L11.4386 1.57122L11.3058 0.720013C11.1776 0.74001 11.0454 0.741452 10.9067 0.722395L10.7895 1.57589ZM11.4386 1.57122L11.5713 2.42243L11.8911 2.37255L11.7584 1.52134L11.6256 0.670133L11.3058 0.720013L11.4386 1.57122ZM11.7584 1.52134L11.8911 2.37255L12.2109 2.32267L12.0782 1.47146L11.9454 0.620253L11.6256 0.670133L11.7584 1.52134ZM12.0782 1.47146L12.2109 2.32267C12.331 2.30394 12.4549 2.30414 12.5862 2.32581L12.7265 1.47581L12.8668 0.625815C12.56 0.575177 12.2517 0.57248 11.9454 0.620253L12.0782 1.47146ZM12.7265 1.47581L12.5862 2.32581L12.9147 2.38004L13.055 1.53004L13.1953 0.680042L12.8668 0.625815L12.7265 1.47581ZM13.055 1.53004L12.9147 2.38004L13.2432 2.43427L13.3835 1.58427L13.5238 0.734271L13.1953 0.680042L13.055 1.53004ZM13.3835 1.58427L13.2432 2.43427C13.6143 2.49552 13.9826 2.45721 14.333 2.32491L14.0287 1.51895L13.7243 0.712994C13.6526 0.740082 13.5908 0.745325 13.5238 0.734271L13.3835 1.58427ZM14.0287 1.51895L14.333 2.32491L14.6496 2.20536L14.3452 1.39941L14.0409 0.593448L13.7243 0.712994L14.0287 1.51895ZM14.3452 1.39941L14.6496 2.20536L14.9662 2.08582L14.6618 1.27986L14.3575 0.473904L14.0409 0.593448L14.3452 1.39941ZM14.6618 1.27986L14.9662 2.08582C15.0032 2.07182 15.0293 2.06998 15.0723 2.08214L15.3067 1.25314L15.5411 0.424135C15.1464 0.312534 14.7426 0.328509 14.3575 0.473904L14.6618 1.27986ZM15.3067 1.25314L15.0723 2.08214L15.4006 2.17496L15.635 1.34596L15.8694 0.516958L15.5411 0.424135L15.3067 1.25314ZM15.635 1.34596L15.4006 2.17496L15.7289 2.26778L15.9633 1.43878L16.1977 0.609779L15.8694 0.516958L15.635 1.34596ZM15.9633 1.43878L15.7289 2.26778C16.0256 2.35166 16.3281 2.39251 16.6337 2.38579L16.6148 1.5245L16.5959 0.663209C16.4706 0.665961 16.3388 0.649668 16.1977 0.609779L15.9633 1.43878ZM16.6148 1.5245L16.6337 2.38579L16.9569 2.37869L16.938 1.5174L16.919 0.656106L16.5959 0.663209L16.6148 1.5245ZM16.938 1.5174L16.9569 2.37869L17.2801 2.37159L17.2611 1.5103L17.2422 0.649005L16.919 0.656106L16.938 1.5174ZM17.2611 1.5103L17.2801 2.37159C17.6013 2.36453 17.914 2.29935 18.2145 2.18297L17.9034 1.37961L17.5923 0.57625C17.4673 0.624647 17.3519 0.646594 17.2422 0.649005L17.2611 1.5103ZM17.9034 1.37961L18.2145 2.18297L18.5336 2.05939L18.2225 1.25603L17.9114 0.452666L17.5923 0.57625L17.9034 1.37961ZM18.2225 1.25603L18.5336 2.05939L18.8528 1.9358L18.5416 1.13244L18.2305 0.329082L17.9114 0.452666L18.2225 1.25603ZM18.5416 1.13244L18.8528 1.9358C18.943 1.90085 19.0184 1.89311 19.0898 1.90102L19.1847 1.04477L19.2796 0.188512C18.9191 0.148552 18.5657 0.199261 18.2305 0.329082L18.5416 1.13244ZM19.1847 1.04477L19.0898 1.90102L19.4138 1.93693L19.5087 1.08068L19.6036 0.224422L19.2796 0.188512L19.1847 1.04477ZM19.5087 1.08068L19.4138 1.93693L19.7377 1.97284L19.8327 1.11659L19.9276 0.260331L19.6036 0.224422L19.5087 1.08068ZM19.8327 1.11659L19.7377 1.97284C19.9809 1.99979 20.2242 2.01508 20.4677 2.01866L20.4804 1.15726L20.4931 0.295849C20.3049 0.293082 20.1164 0.281263 19.9276 0.260331L19.8327 1.11659ZM20.4804 1.15726L20.4677 2.01866L20.7915 2.02342L20.8042 1.16202L20.8169 0.300609L20.4931 0.295849L20.4804 1.15726ZM20.8042 1.16202L20.7915 2.02342L21.1153 2.02818L21.128 1.16678L21.1407 0.30537L20.8169 0.300609L20.8042 1.16202ZM21.128 1.16678L21.1153 2.02818C21.4165 2.03261 21.7141 1.99276 22.006 1.91147L21.7749 1.08155L21.5438 0.251633C21.4049 0.290323 21.2713 0.30729 21.1407 0.30537L21.128 1.16678ZM21.7749 1.08155L22.006 1.91147L22.3291 1.82149L22.098 0.991572L21.8669 0.161651L21.5438 0.251633L21.7749 1.08155ZM22.098 0.991572L22.3291 1.82149L22.6523 1.73151L22.4212 0.901589L22.19 0.0716694L21.8669 0.161651L22.098 0.991572ZM22.4212 0.901589L22.6523 1.73151C22.6956 1.71946 22.7318 1.71913 22.7848 1.73751L23.0671 0.923587L23.3494 0.109665C22.972 -0.0212638 22.5776 -0.0362546 22.19 0.0716694L22.4212 0.901589ZM23.0671 0.923587L22.7848 1.73751L23.1076 1.84949L23.3899 1.03557L23.6723 0.221645L23.3494 0.109665L23.0671 0.923587ZM23.3899 1.03557L23.1076 1.84949L23.4304 1.96147L23.7128 1.14755L23.9951 0.333625L23.6723 0.221645L23.3899 1.03557ZM23.7128 1.14755L23.4304 1.96147C23.7174 2.06102 24.0119 2.12101 24.3121 2.13731L24.3588 1.27707L24.4055 0.416842C24.2747 0.409741 24.1385 0.383387 23.9951 0.333625L23.7128 1.14755ZM24.3588 1.27707L24.3121 2.13731L24.6353 2.15486L24.682 1.29462L24.7287 0.434389L24.4055 0.416842L24.3588 1.27707ZM24.682 1.29462L24.6353 2.15486L24.9585 2.1724L25.0052 1.31217L25.0519 0.451936L24.7287 0.434389L24.682 1.29462ZM25.0052 1.31217L24.9585 2.1724C25.1975 2.18538 25.4367 2.18851 25.6761 2.1818L25.6519 1.32064L25.6278 0.459481C25.4357 0.464867 25.2437 0.462352 25.0519 0.451936L25.0052 1.31217ZM25.6519 1.32064L25.6761 2.1818L25.9996 2.17273L25.9755 1.31157L25.9513 0.450407L25.6278 0.459481L25.6519 1.32064ZM25.9755 1.31157L25.9996 2.17273L26.3232 2.16366L26.2991 1.3025L26.2749 0.441335L25.9513 0.450407L25.9755 1.31157ZM26.2991 1.3025L26.3232 2.16366C26.5233 2.15805 26.7228 2.15789 26.9216 2.16317L26.9445 1.30197L26.9674 0.440775C26.737 0.434658 26.5062 0.434849 26.2749 0.441335L26.2991 1.3025ZM26.9445 1.30197L26.9216 2.16317L27.2435 2.17172L27.2664 1.31052L27.2893 0.449324L26.9674 0.440775L26.9445 1.30197ZM27.2664 1.31052L27.2435 2.17172L27.5654 2.18026L27.5883 1.31907L27.6111 0.457871L27.2893 0.449324L27.2664 1.31052ZM27.5883 1.31907L27.5654 2.18026C27.7718 2.18574 27.9787 2.19418 28.186 2.20557L28.2333 1.34537L28.2805 0.485163C28.057 0.472886 27.8339 0.463787 27.6111 0.457871L27.5883 1.31907ZM28.2333 1.34537L28.186 2.20557L28.5091 2.22332L28.5564 1.36312L28.6036 0.502915L28.2805 0.485163L28.2333 1.34537ZM28.5564 1.36312L28.5091 2.22332L28.8322 2.24107L28.8795 1.38087L28.9267 0.520666L28.6036 0.502915L28.5564 1.36312ZM28.8795 1.38087L28.8322 2.24107C28.9501 2.24755 29.0725 2.27373 29.2022 2.32513L29.5196 1.52422L29.8369 0.723306C29.544 0.607237 29.2397 0.537856 28.9267 0.520666L28.8795 1.38087ZM29.5196 1.52422L29.2022 2.32513L29.5192 2.45073L29.8365 1.64982L30.1539 0.848907L29.8369 0.723306L29.5196 1.52422ZM29.8365 1.64982L29.5192 2.45073L29.8361 2.57633L30.1535 1.77542L30.4709 0.974506L30.1539 0.848907L29.8365 1.64982ZM30.1535 1.77542L29.8361 2.57633C30.2822 2.75311 30.743 2.72387 31.1611 2.53188L30.8015 1.74898L30.442 0.96608C30.431 0.971131 30.4259 0.972395 30.4262 0.972315C30.4267 0.972185 30.4312 0.971138 30.4389 0.970826C30.4466 0.970508 30.4546 0.971071 30.4616 0.972309C30.4686 0.973525 30.4718 0.974898 30.4709 0.974506L30.1535 1.77542ZM30.8015 1.74898L31.1611 2.53188L31.4922 2.37984L31.1326 1.59694L30.7731 0.814042L30.442 0.96608L30.8015 1.74898ZM31.1326 1.59694L31.4922 2.37984L31.8232 2.2278L31.4637 1.4449L31.1042 0.662003L30.7731 0.814042L31.1326 1.59694ZM31.4637 1.4449L31.8232 2.2278C31.8328 2.2234 31.8361 2.22288 31.8336 2.22351C31.8307 2.2242 31.8237 2.22558 31.8134 2.22585C31.8031 2.22612 31.7928 2.22517 31.7838 2.22339C31.775 2.22163 31.7704 2.21968 31.7706 2.21978L32.11 1.42795L32.4494 0.636109C32.0002 0.443596 31.5306 0.46621 31.1042 0.662003L31.4637 1.4449ZM32.11 1.42795L31.7706 2.21978L32.0858 2.35486L32.4252 1.56303L32.7645 0.771191L32.4494 0.636109L32.11 1.42795ZM32.4252 1.56303L32.0858 2.35486L32.401 2.48994L32.7403 1.69811L33.0797 0.906273L32.7645 0.771191L32.4252 1.56303ZM32.7403 1.69811L32.401 2.48994C32.7814 2.65301 33.1875 2.68777 33.5908 2.58924L33.3863 1.75236L33.1819 0.915473C33.144 0.924722 33.1195 0.923317 33.0797 0.906273L32.7403 1.69811ZM33.3863 1.75236L33.5908 2.58924L33.9217 2.50841L33.7172 1.67153L33.5127 0.834642L33.1819 0.915473L33.3863 1.75236ZM33.7172 1.67153L33.9217 2.50841L34.2525 2.42758L34.048 1.59069L33.8436 0.753811L33.5127 0.834642L33.7172 1.67153ZM34.048 1.59069L34.2525 2.42758C34.348 2.40425 34.4262 2.40576 34.4987 2.42274L34.6952 1.58395L34.8916 0.745146C34.5424 0.663353 34.1892 0.669364 33.8436 0.753811L34.048 1.59069ZM34.6952 1.58395L34.4987 2.42274L34.815 2.49683L35.0115 1.65803L35.2079 0.819229L34.8916 0.745146L34.6952 1.58395ZM35.0115 1.65803L34.815 2.49683L35.1313 2.57091L35.3278 1.73211L35.5242 0.893312L35.2079 0.819229L35.0115 1.65803ZM35.3278 1.73211L35.1313 2.57091C35.4925 2.65552 35.8565 2.64126 36.2089 2.54447L35.9807 1.71373L35.7526 0.882991C35.6561 0.909483 35.5847 0.90748 35.5242 0.893312L35.3278 1.73211ZM35.9807 1.71373L36.2089 2.54447L36.5456 2.45201L36.3174 1.62127L36.0893 0.790529L35.7526 0.882991L35.9807 1.71373ZM36.3174 1.62127L36.5456 2.45201L36.8822 2.35955L36.6541 1.52881L36.426 0.698068L36.0893 0.790529L36.3174 1.62127ZM36.6541 1.52881L36.8822 2.35955C36.9498 2.341 36.9901 2.3461 37.0272 2.35871L37.3046 1.54311L37.5821 0.727509C37.2007 0.597769 36.8073 0.593336 36.426 0.698068L36.6541 1.52881ZM37.3046 1.54311L37.0272 2.35871L37.341 2.46547L37.6184 1.64987L37.8959 0.83427L37.5821 0.727509L37.3046 1.54311ZM37.6184 1.64987L37.341 2.46547L37.6548 2.57223L37.9323 1.75663L38.2097 0.941029L37.8959 0.83427L37.6184 1.64987ZM37.9323 1.75663L37.6548 2.57223C37.9106 2.65925 38.1707 2.72337 38.4346 2.76372L38.5648 1.91211L38.695 1.06051C38.534 1.03589 38.3724 0.996354 38.2097 0.941029L37.9323 1.75663ZM38.5648 1.91211L38.4346 2.76372L38.7534 2.81245L38.8836 1.96084L39.0138 1.10923L38.695 1.06051L38.5648 1.91211ZM38.8836 1.96084L38.7534 2.81245L39.0721 2.86117L39.2023 2.00957L39.3325 1.15796L39.0138 1.10923L38.8836 1.96084ZM39.2023 2.00957L39.0721 2.86117C39.3494 2.90357 39.6301 2.91429 39.9129 2.89467L39.8532 2.03524L39.7936 1.17581C39.6334 1.18692 39.4802 1.18053 39.3325 1.15796L39.2023 2.00957ZM39.8532 2.03524L39.9129 2.89467L40.2451 2.87162L40.1854 2.01219L40.1258 1.15275L39.7936 1.17581L39.8532 2.03524ZM40.1854 2.01219L40.2451 2.87162L40.5773 2.84857L40.5176 1.98913L40.458 1.1297L40.1258 1.15275L40.1854 2.01219ZM40.5176 1.98913L40.5773 2.84857C40.6921 2.8406 40.798 2.85364 40.9009 2.88638L41.1621 2.06543L41.4233 1.24448C41.1098 1.14476 40.7861 1.10693 40.458 1.1297L40.5176 1.98913ZM41.1621 2.06543L40.9009 2.88638L41.2132 2.98573L41.4744 2.16478L41.7356 1.34383L41.4233 1.24448L41.1621 2.06543ZM41.4744 2.16478L41.2132 2.98573L41.5254 3.08508L41.7866 2.26413L42.0478 1.44318L41.7356 1.34383L41.4744 2.16478ZM41.7866 2.26413L41.5254 3.08508C41.6622 3.1286 41.8009 3.1921 41.9419 3.27931L42.395 2.54661L42.8481 1.81391C42.5944 1.65695 42.3274 1.53214 42.0478 1.44318L41.7866 2.26413ZM42.395 2.54661L41.9419 3.27931L42.238 3.46244L42.6911 2.72973L43.1443 1.99703L42.8481 1.81391L42.395 2.54661ZM42.6911 2.72973L42.238 3.46244L42.5341 3.64556L42.9872 2.91286L43.4404 2.18015L43.1443 1.99703L42.6911 2.72973ZM42.9872 2.91286L42.5341 3.64556C42.7924 3.8053 43.0653 3.92983 43.3521 4.01412L43.595 3.18756L43.8379 2.36101C43.7092 2.32319 43.5769 2.26459 43.4404 2.18015L42.9872 2.91286ZM43.595 3.18756L43.3521 4.01412L43.6638 4.1057L43.9067 3.27914L44.1495 2.45259L43.8379 2.36101L43.595 3.18756ZM43.9067 3.27914L43.6638 4.1057L43.9754 4.19728L44.2183 3.37072L44.4612 2.54417L44.1495 2.45259L43.9067 3.27914ZM44.2183 3.37072L43.9754 4.19728C44.2775 4.28603 44.588 4.32199 44.9029 4.30653L44.8606 3.44606L44.8184 2.5856C44.6923 2.59179 44.5747 2.57752 44.4612 2.54417L44.2183 3.37072ZM44.8606 3.44606L44.9029 4.30653L45.2335 4.29029L45.1913 3.42983L45.149 2.56936L44.8184 2.5856L44.8606 3.44606ZM45.1913 3.42983L45.2335 4.29029L45.5642 4.27405L45.5219 3.41359L45.4797 2.55313L45.149 2.56936L45.1913 3.42983ZM45.5219 3.41359L45.5642 4.27405C45.792 4.26286 46.0216 4.24866 46.2529 4.23144L46.189 3.37232L46.1251 2.51319C45.9079 2.52935 45.6928 2.54266 45.4797 2.55313L45.5219 3.41359ZM46.189 3.37232L46.2529 4.23144L46.5893 4.20641L46.5254 3.34729L46.4614 2.48817L46.1251 2.51319L46.189 3.37232ZM46.5254 3.34729L46.5893 4.20641L46.9257 4.18138L46.8618 3.32226L46.7978 2.46314L46.4614 2.48817L46.5254 3.34729ZM46.8618 3.32226L46.9257 4.18138C46.9714 4.17798 47.0048 4.18507 47.0492 4.21155L47.4906 3.47173L47.932 2.73192C47.5865 2.52573 47.2006 2.43317 46.7978 2.46314L46.8618 3.32226ZM47.4906 3.47173L47.0492 4.21155L47.3417 4.38605L47.7831 3.64624L48.2245 2.90642L47.932 2.73192L47.4906 3.47173ZM47.7831 3.64624L47.3417 4.38605L47.6341 4.56055L48.0755 3.82074L48.517 3.08092L48.2245 2.90642L47.7831 3.64624ZM48.0755 3.82074L47.6341 4.56055C47.9127 4.72678 48.2129 4.84266 48.5316 4.90016L48.6846 4.05234L48.8375 3.20452C48.7342 3.18589 48.6283 3.14736 48.517 3.08092L48.0755 3.82074ZM48.6846 4.05234L48.5316 4.90016L48.8482 4.95725L49.0011 4.10943L49.154 3.26161L48.8375 3.20452L48.6846 4.05234ZM49.0011 4.10943L48.8482 4.95725L49.1647 5.01435L49.3177 4.16653L49.4706 3.31871L49.154 3.26161L49.0011 4.10943ZM49.3177 4.16653L49.1647 5.01435C49.4536 5.06644 49.748 5.07881 50.0455 5.05527L49.9775 4.19646L49.9096 3.33764C49.7493 3.35032 49.6038 3.34274 49.4706 3.31871L49.3177 4.16653ZM49.9775 4.19646L50.0455 5.05527L50.3888 5.0281L50.3208 4.16928L50.2529 3.31047L49.9096 3.33764L49.9775 4.19646ZM50.3208 4.16928L50.3888 5.0281L50.7321 5.00093L50.6642 4.14211L50.5962 3.2833L50.2529 3.31047L50.3208 4.16928ZM50.6642 4.14211L50.7321 5.00093C50.7814 4.99703 50.8072 5.00519 50.8384 5.02458L51.2939 4.29334L51.7493 3.5621C51.3986 3.34363 51.0046 3.25097 50.5962 3.2833L50.6642 4.14211ZM51.2939 4.29334L50.8384 5.02458L51.1248 5.20297L51.5803 4.47173L52.0357 3.74049L51.7493 3.5621L51.2939 4.29334ZM51.5803 4.47173L51.1248 5.20297L51.4112 5.38137L51.8666 4.65013L52.3221 3.91889L52.0357 3.74049L51.5803 4.47173ZM51.8666 4.65013L51.4112 5.38137C51.7044 5.56404 52.0263 5.68087 52.3702 5.72409L52.4776 4.86931L52.5851 4.01453C52.4962 4.00336 52.4107 3.97408 52.3221 3.91889L51.8666 4.65013ZM52.4776 4.86931L52.3702 5.72409L52.6948 5.76488L52.8023 4.9101L52.9097 4.05532L52.5851 4.01453L52.4776 4.86931ZM52.8023 4.9101L52.6948 5.76488L53.0195 5.80567L53.1269 4.95089L53.2343 4.09611L52.9097 4.05532L52.8023 4.9101ZM53.1269 4.95089L53.0195 5.80567C53.1062 5.81656 53.1882 5.84516 53.2728 5.89893L53.735 5.17189L54.1971 4.44484C53.9037 4.25834 53.5803 4.1396 53.2343 4.09611L53.1269 4.95089ZM53.735 5.17189L53.2728 5.89893L53.5563 6.07914L54.0185 5.3521L54.4806 4.62504L54.1971 4.44484L53.735 5.17189ZM54.0185 5.3521L53.5563 6.07914L53.8398 6.25935L54.302 5.5323L54.7641 4.80525L54.4806 4.62504L54.0185 5.3521ZM54.302 5.5323L53.8398 6.25935C54.0855 6.41553 54.3452 6.54051 54.6182 6.63143L54.8904 5.81407L55.1626 4.99671C55.0291 4.95223 54.8964 4.88935 54.7641 4.80525L54.302 5.5323ZM54.8904 5.81407L54.6182 6.63143L54.9231 6.73299L55.1953 5.91563L55.4676 5.09827L55.1626 4.99671L54.8904 5.81407ZM55.1953 5.91563L54.9231 6.73299L55.228 6.83455L55.5003 6.01719L55.7725 5.19983L55.4676 5.09827L55.1953 5.91563ZM55.5003 6.01719L55.228 6.83455C55.5379 6.93774 55.8602 6.97877 56.1874 6.96619L56.1543 6.10533L56.1213 5.24446C55.983 5.24978 55.8692 5.23204 55.7725 5.19983L55.5003 6.01719ZM56.1543 6.10533L56.1874 6.96619L56.5366 6.95277L56.5035 6.09191L56.4704 5.23104L56.1213 5.24446L56.1543 6.10533ZM56.5035 6.09191L56.5366 6.95277L56.8857 6.93935L56.8526 6.07849L56.8195 5.21762L56.4704 5.23104L56.5035 6.09191ZM56.8526 6.07849L56.8857 6.93935C56.9821 6.93565 57.0483 6.95355 57.1026 6.98112L57.4931 6.21321L57.8836 5.4453C57.5494 5.27535 57.1886 5.20344 56.8195 5.21762L56.8526 6.07849ZM57.4931 6.21321L57.1026 6.98112L57.3939 7.12926L57.7844 6.36135L58.1749 5.59344L57.8836 5.4453L57.4931 6.21321ZM57.7844 6.36135L57.3939 7.12926L57.6852 7.2774L58.0757 6.50949L58.4662 5.74158L58.1749 5.59344L57.7844 6.36135ZM58.0757 6.50949L57.6852 7.2774C57.7859 7.3286 57.8872 7.40251 57.9885 7.50851L58.6114 6.91338L59.2343 6.31826C59.0097 6.08325 58.7539 5.8879 58.4662 5.74158L58.0757 6.50949ZM58.6114 6.91338L57.9885 7.50851L58.2328 7.76426L58.8557 7.16914L59.4786 6.57402L59.2343 6.31826L58.6114 6.91338ZM58.8557 7.16914L58.2328 7.76426L58.4771 8.02002L59.1001 7.42489L59.723 6.82977L59.4786 6.57402L58.8557 7.16914ZM59.1001 7.42489L58.4771 8.02002C58.7597 8.31572 59.1154 8.5157 59.5292 8.58542L59.6723 7.7359L59.8154 6.88637C59.792 6.88243 59.7662 6.87508 59.723 6.82977L59.1001 7.42489ZM59.6723 7.7359L59.5292 8.58542L59.8571 8.64067L60.0002 7.79114L60.1434 6.94162L59.8154 6.88637L59.6723 7.7359ZM60.0002 7.79114L59.8571 8.64067L60.185 8.69591L60.3281 7.84639L60.4713 6.99686L60.1434 6.94162L60.0002 7.79114ZM60.3281 7.84639L60.185 8.69591C60.2985 8.71503 60.3961 8.75204 60.4846 8.80597L60.9328 8.07027L61.3811 7.33458C61.1006 7.16366 60.795 7.05141 60.4713 6.99686L60.3281 7.84639ZM60.9328 8.07027L60.4846 8.80597L60.7613 8.97461L61.2096 8.23891L61.6579 7.50321L61.3811 7.33458L60.9328 8.07027ZM61.2096 8.23891L60.7613 8.97461L61.0381 9.14324L61.4864 8.40755L61.9346 7.67185L61.6579 7.50321L61.2096 8.23891ZM61.4864 8.40755L61.0381 9.14324C61.3635 9.34147 61.7238 9.43698 62.0964 9.44621L62.1178 8.58498L62.1391 7.72374C62.0389 7.72126 61.9783 7.69847 61.9346 7.67185L61.4864 8.40755ZM62.1178 8.58498L62.0964 9.44621L62.4511 9.45501L62.4724 8.59377L62.4938 7.73254L62.1391 7.72374L62.1178 8.58498ZM62.4724 8.59377L62.4511 9.45501L62.8057 9.4638L62.8271 8.60257L62.8484 7.74133L62.4938 7.73254L62.4724 8.59377ZM62.8271 8.60257L62.8057 9.4638C62.8851 9.46577 62.9235 9.48447 62.9513 9.50415L63.4497 8.80149L63.9482 8.09883C63.6186 7.86501 63.2418 7.75109 62.8484 7.74133L62.8271 8.60257ZM63.4497 8.80149L62.9513 9.50415L63.2193 9.69429L63.7178 8.99162L64.2162 8.28896L63.9482 8.09883L63.4497 8.80149ZM63.7178 8.99162L63.2193 9.69429L63.4873 9.88442L63.9858 9.18176L64.4842 8.4791L64.2162 8.28896L63.7178 8.99162ZM63.9858 9.18176L63.4873 9.88442C63.6152 9.97515 63.7369 10.0821 63.8521 10.2069L64.4853 9.62276L65.1185 9.0386C64.9251 8.82897 64.7137 8.64187 64.4842 8.4791L63.9858 9.18176ZM64.4853 9.62276L63.8521 10.2069L64.0835 10.4578L64.7167 9.87363L65.3499 9.28947L65.1185 9.0386L64.4853 9.62276ZM64.7167 9.87363L64.0835 10.4578L64.3149 10.7087L64.9481 10.1245L65.5813 9.54035L65.3499 9.28947L64.7167 9.87363ZM64.9481 10.1245L64.3149 10.7087C64.6369 11.0577 65.059 11.2332 65.5144 11.2491L65.5446 10.3882L65.5748 9.5272C65.5616 9.52674 65.5552 9.52543 65.554 9.52518C65.553 9.52497 65.5559 9.52554 65.5613 9.52792C65.5668 9.53034 65.5722 9.53348 65.5768 9.53677C65.5812 9.54 65.5827 9.5418 65.5813 9.54035L64.9481 10.1245ZM65.5446 10.3882L65.5144 11.2491L65.8794 11.2619L65.9096 10.401L65.9397 9.54L65.5748 9.5272L65.5446 10.3882ZM65.9096 10.401L65.8794 11.2619L66.2444 11.2747L66.2746 10.4138L66.3047 9.55279L65.9397 9.54L65.9096 10.401ZM66.2746 10.4138L66.2444 11.2747C66.3713 11.2792 66.4551 11.3065 66.5145 11.3387L66.9251 10.5814L67.3357 9.82404C67.0144 9.64982 66.6645 9.5654 66.3047 9.55279L66.2746 10.4138ZM66.9251 10.5814L66.5145 11.3387L66.8001 11.4936L67.2107 10.7362L67.6213 9.97888L67.3357 9.82404L66.9251 10.5814ZM67.2107 10.7362L66.8001 11.4936L67.0857 11.6484L67.4963 10.8911L67.9069 10.1337L67.6213 9.97888L67.2107 10.7362ZM67.4963 10.8911L67.0857 11.6484C67.1382 11.6769 67.1963 11.7245 67.2568 11.8168L67.9777 11.3451L68.6985 10.8734C68.4979 10.5668 68.2351 10.3117 67.9069 10.1337L67.4963 10.8911ZM67.9777 11.3451L67.2568 11.8168L67.4525 12.1161L68.1734 11.6444L68.8943 11.1727L68.6985 10.8734L67.9777 11.3451ZM68.1734 11.6444L67.4525 12.1161L67.6483 12.4153L68.3692 11.9436L69.0901 11.4719L68.8943 11.1727L68.1734 11.6444ZM68.3692 11.9436L67.6483 12.4153C67.8038 12.6529 67.9745 12.8726 68.1613 13.0722L68.7903 12.4835L69.4192 11.8947C69.3058 11.7735 69.1957 11.6333 69.0901 11.4719L68.3692 11.9436ZM68.7903 12.4835L68.1613 13.0722L68.3865 13.3128L69.0155 12.7241L69.6444 12.1353L69.4192 11.8947L68.7903 12.4835ZM69.0155 12.7241L68.3865 13.3128L68.6118 13.5534L69.2407 12.9647L69.8697 12.376L69.6444 12.1353L69.0155 12.7241ZM69.2407 12.9647L68.6118 13.5534C68.7968 13.7511 68.9969 13.9298 69.2122 14.0886L69.7235 13.3952L70.2347 12.7018C70.1067 12.6074 69.985 12.4991 69.8697 12.376L69.2407 12.9647ZM69.7235 13.3952L69.2122 14.0886L69.4697 14.2784L69.9809 13.585L70.4922 12.8916L70.2347 12.7018L69.7235 13.3952ZM69.9809 13.585L69.4697 14.2784L69.7272 14.4683L70.2384 13.7749L70.7497 13.0815L70.4922 12.8916L69.9809 13.585ZM70.2384 13.7749L69.7272 14.4683C69.9556 14.6367 70.2031 14.7762 70.4672 14.8872L70.8011 14.0931L71.135 13.2989C70.9923 13.2389 70.8646 13.1662 70.7497 13.0815L70.2384 13.7749ZM70.8011 14.0931L70.4672 14.8872L70.7724 15.0156L71.1063 14.2214L71.4402 13.4272L71.135 13.2989L70.8011 14.0931ZM71.1063 14.2214L70.7724 15.0156L71.0776 15.1439L71.4115 14.3497L71.7454 13.5556L71.4402 13.4272L71.1063 14.2214ZM71.4115 14.3497L71.0776 15.1439C71.2415 15.2128 71.3962 15.2922 71.5422 15.3818L71.993 14.6476L72.4437 13.9135C72.2214 13.777 71.9885 13.6577 71.7454 13.5556L71.4115 14.3497ZM71.993 14.6476L71.5422 15.3818L71.8185 15.5514L72.2692 14.8172L72.72 14.0831L72.4437 13.9135L71.993 14.6476ZM72.2692 14.8172L71.8185 15.5514L72.0948 15.721L72.5455 14.9868L72.9962 14.2527L72.72 14.0831L72.2692 14.8172ZM72.5455 14.9868L72.0948 15.721C72.3048 15.85 72.5236 15.969 72.7509 16.0783L73.1242 15.3019L73.4976 14.5255C73.3215 14.4408 73.1545 14.3498 72.9962 14.2527L72.5455 14.9868ZM73.1242 15.3019L72.7509 16.0783L73.0534 16.2238L73.4267 15.4474L73.8001 14.671L73.4976 14.5255L73.1242 15.3019ZM73.4267 15.4474L73.0534 16.2238L73.3559 16.3693L73.7292 15.5929L74.1026 14.8165L73.8001 14.671L73.4267 15.4474ZM73.7292 15.5929L73.3559 16.3693C73.4721 16.4252 73.5684 16.4942 73.6501 16.5765L74.2611 15.9691L74.8721 15.3618C74.648 15.1363 74.3897 14.9546 74.1026 14.8165L73.7292 15.5929ZM74.2611 15.9691L73.6501 16.5765L73.8795 16.8072L74.4905 16.1999L75.1015 15.5926L74.8721 15.3618L74.2611 15.9691ZM74.4905 16.1999L73.8795 16.8072L74.1088 17.038L74.7199 16.4307L75.3309 15.8233L75.1015 15.5926L74.4905 16.1999ZM74.7199 16.4307L74.1088 17.038C74.242 17.172 74.3689 17.3127 74.4895 17.4602L75.1565 16.9149L75.8234 16.3696C75.6677 16.1792 75.5036 15.9971 75.3309 15.8233L74.7199 16.4307ZM75.1565 16.9149L74.4895 17.4602L74.6967 17.7136L75.3637 17.1683L76.0306 16.623L75.8234 16.3696L75.1565 16.9149ZM75.3637 17.1683L74.6967 17.7136L74.904 17.9671L75.5709 17.4218L76.2379 16.8765L76.0306 16.623L75.3637 17.1683ZM75.5709 17.4218L74.904 17.9671C75.0725 18.1732 75.2569 18.3637 75.4569 18.5382L76.0231 17.8889L76.5894 17.2397C76.4627 17.1292 76.3456 17.0083 76.2379 16.8765L75.5709 17.4218ZM76.0231 17.8889L75.4569 18.5382L75.7019 18.7519L76.2682 18.1026L76.8344 17.4534L76.5894 17.2397L76.0231 17.8889ZM76.2682 18.1026L75.7019 18.7519L75.9469 18.9656L76.5132 18.3163L77.0794 17.667L76.8344 17.4534L76.2682 18.1026ZM76.5132 18.3163L75.9469 18.9656C76.0561 19.0608 76.1521 19.1681 76.2357 19.2891L76.9443 18.799L77.6528 18.3089C77.4883 18.0712 77.2969 17.8567 77.0794 17.667L76.5132 18.3163ZM76.9443 18.799L76.2357 19.2891L76.4218 19.5581L77.1303 19.068L77.8388 18.5779L77.6528 18.3089L76.9443 18.799ZM77.1303 19.068L76.4218 19.5581L76.6079 19.8271L77.3164 19.337L78.0249 18.8469L77.8388 18.5779L77.1303 19.068ZM77.3164 19.337L76.6079 19.8271C76.7704 20.0621 76.9585 20.2753 77.1712 20.4657L77.7458 19.8238L78.3204 19.1819C78.2087 19.082 78.1105 18.9707 78.0249 18.8469L77.3164 19.337ZM77.7458 19.8238L77.1712 20.4657L77.4146 20.6835L77.9891 20.0416L78.5637 19.3998L78.3204 19.1819L77.7458 19.8238ZM77.9891 20.0416L77.4146 20.6835L77.6579 20.9013L78.2325 20.2595L78.8071 19.6176L78.5637 19.3998L77.9891 20.0416ZM78.2325 20.2595L77.6579 20.9013C77.784 21.0143 77.8989 21.1361 78.0029 21.2671L78.6776 20.7314L79.3522 20.1956C79.1872 19.9878 79.0053 19.795 78.8071 19.6176L78.2325 20.2595ZM78.6776 20.7314L78.0029 21.2671L78.2047 21.5212L78.8793 20.9855L79.554 20.4497L79.3522 20.1956L78.6776 20.7314ZM78.8793 20.9855L78.2047 21.5212L78.4064 21.7753L79.0811 21.2395L79.7558 20.7038L79.554 20.4497L78.8793 20.9855ZM79.0811 21.2395L78.4064 21.7753C78.5751 21.9876 78.7635 22.1835 78.9707 22.3628L79.5345 21.7115L80.0983 21.0601C79.97 20.949 79.8562 20.8302 79.7558 20.7038L79.0811 21.2395ZM79.5345 21.7115L78.9707 22.3628L79.2223 22.5806L79.7861 21.9293L80.35 21.2779L80.0983 21.0601L79.5345 21.7115ZM79.7861 21.9293L79.2223 22.5806L79.4739 22.7984L80.0378 22.1471L80.6016 21.4957L80.35 21.2779L79.7861 21.9293ZM80.0378 22.1471L79.4739 22.7984C79.4822 22.8056 79.4849 22.8099 79.4869 22.8136C79.4894 22.818 79.4971 22.8334 79.5031 22.8675L80.3515 22.7183L81.2 22.5691C81.1271 22.1547 80.9312 21.7811 80.6016 21.4957L80.0378 22.1471ZM80.3515 22.7183L79.5031 22.8675L79.5652 23.221L80.4137 23.0717L81.2622 22.9225L81.2 22.5691L80.3515 22.7183ZM80.4137 23.0717L79.5652 23.221L79.6274 23.5744L80.4759 23.4251L81.3243 23.2759L81.2622 22.9225L80.4137 23.0717ZM80.4759 23.4251L79.6274 23.5744C79.6944 23.9551 79.8548 24.3082 80.1241 24.6015L80.7587 24.0188L81.3932 23.4361C81.3683 23.409 81.3402 23.3664 81.3243 23.2759L80.4759 23.4251ZM80.7587 24.0188L80.1241 24.6015L80.3448 24.8418L80.9793 24.2591L81.6138 23.6763L81.3932 23.4361L80.7587 24.0188ZM80.9793 24.2591L80.3448 24.8418L80.5654 25.082L81.1999 24.4993L81.8345 23.9166L81.6138 23.6763L80.9793 24.2591ZM81.1999 24.4993L80.5654 25.082C80.6541 25.1786 80.7252 25.2844 80.7807 25.4017L81.5595 25.0335L82.3384 24.6654C82.2086 24.3908 82.04 24.1404 81.8345 23.9166L81.1999 24.4993ZM81.5595 25.0335L80.7807 25.4017L80.9196 25.6956L81.6985 25.3275L82.4773 24.9593L82.3384 24.6654L81.5595 25.0335ZM81.6985 25.3275L80.9196 25.6956L81.0586 25.9896L81.8374 25.6214L82.6163 25.2533L82.4773 24.9593L81.6985 25.3275ZM81.8374 25.6214L81.0586 25.9896C81.1489 26.1807 81.237 26.3718 81.323 26.563L82.1087 26.2096L82.8944 25.8561C82.8039 25.6551 82.7112 25.4541 82.6163 25.2533L81.8374 25.6214ZM82.1087 26.2096L81.323 26.563L81.4554 26.8571L82.241 26.5037L83.0267 26.1503L82.8944 25.8561L82.1087 26.2096ZM82.241 26.5037L81.4554 26.8571L81.5877 27.1513L82.3734 26.7979L83.159 26.4445L83.0267 26.1503L82.241 26.5037ZM82.3734 26.7979L81.5877 27.1513C81.6632 27.3193 81.73 27.4917 81.7878 27.6686L82.6066 27.4008L83.4255 27.133C83.3487 26.8983 83.2599 26.6687 83.159 26.4445L82.3734 26.7979ZM82.6066 27.4008L81.7878 27.6686L81.8888 27.9773L82.7076 27.7095L83.5264 27.4417L83.4255 27.133L82.6066 27.4008ZM82.7076 27.7095L81.8888 27.9773L81.9897 28.2859L82.8085 28.0182L83.6274 27.7504L83.5264 27.4417L82.7076 27.7095ZM82.8085 28.0182L81.9897 28.2859C82.1284 28.7101 82.4116 29.0308 82.7605 29.2565L83.2283 28.5331L83.6962 27.8097C83.6548 27.7829 83.6373 27.7638 83.6317 27.7568C83.6288 27.7533 83.6278 27.7515 83.6278 27.7515C83.6278 27.7514 83.6277 27.7513 83.6274 27.7504L82.8085 28.0182ZM83.2283 28.5331L82.7605 29.2565L83.0793 29.4627L83.5472 28.7393L84.015 28.0159L83.6962 27.8097L83.2283 28.5331ZM83.5472 28.7393L83.0793 29.4627L83.3982 29.6689L83.8661 28.9455L84.3339 28.2221L84.015 28.0159L83.5472 28.7393ZM83.8661 28.9455L83.3982 29.6689C83.5083 29.7401 83.5562 29.8025 83.5798 29.8466L84.3392 29.4399L85.0987 29.0331C84.9165 28.693 84.6489 28.4259 84.3339 28.2221L83.8661 28.9455ZM84.3392 29.4399L83.5798 29.8466L83.7342 30.1348L84.4936 29.728L85.253 29.3212L85.0987 29.0331L84.3392 29.4399ZM84.4936 29.728L83.7342 30.1348L83.8885 30.4229L84.6479 30.0161L85.4073 29.6093L85.253 29.3212L84.4936 29.728ZM84.6479 30.0161L83.8885 30.4229C83.8865 30.4192 83.8846 30.4147 83.8833 30.4102C83.8821 30.4059 83.8821 30.4041 83.8822 30.4061C83.8826 30.4102 83.8841 30.4356 83.8713 30.4888L84.7086 30.6914L85.546 30.894C85.6468 30.4772 85.6309 30.0268 85.4073 29.6093L84.6479 30.0161ZM84.7086 30.6914L83.8713 30.4888L83.7776 30.8759L84.615 31.0785L85.4523 31.2811L85.546 30.894L84.7086 30.6914ZM84.615 31.0785L83.7776 30.8759L83.684 31.2631L84.5213 31.4656L85.3587 31.6682L85.4523 31.2811L84.615 31.0785ZM84.5213 31.4656L83.684 31.2631C83.5882 31.6589 83.5889 32.0868 83.7701 32.4941L84.5572 32.1439L85.3443 31.7937C85.3467 31.7991 85.3445 31.7981 85.3437 31.7833C85.3429 31.7665 85.3438 31.7298 85.3587 31.6682L84.5213 31.4656ZM84.5572 32.1439L83.7701 32.4941L83.8996 32.7853L84.6867 32.4351L85.4738 32.0849L85.3443 31.7937L84.5572 32.1439ZM84.6867 32.4351L83.8996 32.7853L84.0291 33.0764L84.8163 32.7262L85.6034 32.3761L85.4738 32.0849L84.6867 32.4351ZM84.8163 32.7262L84.0291 33.0764C84.1179 33.2759 84.2093 33.476 84.3036 33.677L85.0836 33.3112L85.8636 32.9454C85.7741 32.7546 85.6874 32.5648 85.6034 32.3761L84.8163 32.7262ZM85.0836 33.3112L84.3036 33.677L84.4413 33.9707L85.2213 33.605L86.0013 33.2392L85.8636 32.9454L85.0836 33.3112ZM85.2213 33.605L84.4413 33.9707L84.5791 34.2645L85.3591 33.8987L86.1391 33.533L86.0013 33.2392L85.2213 33.605ZM85.3591 33.8987L84.5791 34.2645C84.6578 34.4324 84.7268 34.603 84.7862 34.7763L85.6012 34.497L86.4162 34.2178C86.3365 33.9851 86.2441 33.7568 86.1391 33.533L85.3591 33.8987ZM85.6012 34.497L84.7862 34.7763L84.8906 35.0808L85.7056 34.8016L86.5205 34.5223L86.4162 34.2178L85.6012 34.497ZM85.7056 34.8016L84.8906 35.0808L84.9949 35.3853L85.8099 35.1061L86.6249 34.8268L86.5205 34.5223L85.7056 34.8016ZM85.8099 35.1061L84.9949 35.3853C85.0512 35.5495 85.0954 35.7166 85.1276 35.887L85.9741 35.7268L86.8206 35.5666C86.773 35.3154 86.7078 35.0687 86.6249 34.8268L85.8099 35.1061ZM85.9741 35.7268L85.1276 35.887L85.1874 36.2032L86.0339 36.043L86.8804 35.8828L86.8206 35.5666L85.9741 35.7268ZM86.0339 36.043L85.1874 36.2032L85.2473 36.5194L86.0937 36.3592L86.9402 36.199L86.8804 35.8828L86.0339 36.043ZM86.0937 36.3592L85.2473 36.5194C85.2791 36.6876 85.2987 36.8602 85.3056 37.0378L86.1665 37.0041L87.0273 36.9703C87.0171 36.7097 86.9882 36.4525 86.9402 36.199L86.0937 36.3592ZM86.1665 37.0041L85.3056 37.0378L85.3185 37.3664L86.1794 37.3327L87.0402 37.2989L87.0273 36.9703L86.1665 37.0041ZM86.1794 37.3327L85.3185 37.3664L85.3314 37.6951L86.1923 37.6613L87.0531 37.6275L87.0402 37.2989L86.1794 37.3327ZM86.1923 37.6613L85.3314 37.6951C85.3414 37.9497 85.367 38.2002 85.4087 38.4462L86.2581 38.3023L87.1075 38.1584C87.0786 37.9879 87.0603 37.8111 87.0531 37.6275L86.1923 37.6613ZM86.2581 38.3023L85.4087 38.4462L85.4616 38.7586L86.311 38.6147L87.1604 38.4708L87.1075 38.1584L86.2581 38.3023ZM86.311 38.6147L85.4616 38.7586L85.5145 39.071L86.3639 38.9271L87.2133 38.7832L87.1604 38.4708L86.311 38.6147ZM86.3639 38.9271L85.5145 39.071C85.5717 39.4083 85.7022 39.7208 85.8878 40.0055L86.6095 39.5349L87.3311 39.0644C87.2599 38.9552 87.2267 38.8624 87.2133 38.7832L86.3639 38.9271ZM86.6095 39.5349L85.8878 40.0055L86.0805 40.3009L86.8021 39.8304L87.5237 39.3598L87.3311 39.0644L86.6095 39.5349ZM86.8021 39.8304L86.0805 40.3009L86.2731 40.5963L86.9947 40.1258L87.7164 39.6552L87.5237 39.3598L86.8021 39.8304ZM86.9947 40.1258L86.2731 40.5963C86.2772 40.6026 86.2774 40.6041 86.276 40.6008C86.2746 40.5972 86.2724 40.5907 86.2709 40.5821C86.2693 40.5734 86.269 40.5656 86.2692 40.5597C86.2694 40.5541 86.2701 40.5529 86.2691 40.557L87.1069 40.7574L87.9448 40.9578C88.0547 40.4984 87.9711 40.0458 87.7164 39.6552L86.9947 40.1258ZM87.1069 40.7574L86.2691 40.557L86.1887 40.8932L87.0265 41.0936L87.8644 41.294L87.9448 40.9578L87.1069 40.7574ZM87.0265 41.0936L86.1887 40.8932L86.1082 41.2294L86.9461 41.4298L87.7839 41.6302L87.8644 41.294L87.0265 41.0936ZM86.9461 41.4298L86.1082 41.2294C86.0184 41.6047 86.0309 41.9885 86.1601 42.3592L86.9736 42.0757L87.7871 41.7923C87.7724 41.75 87.7665 41.7031 87.7839 41.6302L86.9461 41.4298ZM86.9736 42.0757L86.1601 42.3592L86.268 42.669L87.0815 42.3855L87.895 42.102L87.7871 41.7923L86.9736 42.0757ZM87.0815 42.3855L86.268 42.669L86.3759 42.9787L87.1895 42.6953L88.003 42.4118L87.895 42.102L87.0815 42.3855ZM87.1895 42.6953L86.3759 42.9787C86.4228 43.1133 86.4506 43.2493 86.4601 43.3886L87.3196 43.3297L88.1791 43.2708C88.159 42.9771 88.1 42.6902 88.003 42.4118L87.1895 42.6953ZM87.3196 43.3297L86.4601 43.3886L86.4824 43.7132L87.3419 43.6543L88.2014 43.5954L88.1791 43.2708L87.3196 43.3297ZM87.3419 43.6543L86.4824 43.7132L86.5046 44.0378L87.3641 43.979L88.2236 43.9201L88.2014 43.5954L87.3419 43.6543ZM87.3641 43.979L86.5046 44.0378C86.5127 44.1562 86.5232 44.2685 86.5378 44.3658C86.5451 44.4142 86.5552 44.4713 86.5701 44.5301C86.5815 44.5753 86.6103 44.6824 86.6759 44.7961L87.4222 44.3656L88.1684 43.9352C88.1845 43.963 88.1963 43.9875 88.2047 44.0064C88.2132 44.0255 88.2196 44.0419 88.2241 44.0547C88.233 44.0793 88.238 44.0977 88.2401 44.1063C88.2414 44.1112 88.2422 44.1148 88.2427 44.1169C88.2431 44.1191 88.2434 44.1203 88.2434 44.1203C88.2434 44.1203 88.2432 44.1195 88.2429 44.1177C88.2426 44.1159 88.2422 44.1134 88.2417 44.1101C88.2396 44.0959 88.2367 44.0732 88.2334 44.04C88.2302 44.0073 88.2269 43.9675 88.2236 43.9201L87.3641 43.979ZM87.4222 44.3656L86.6759 44.7961L86.7117 44.8581L87.4579 44.4277L88.2042 43.9972L88.1684 43.9352L87.4222 44.3656ZM87.4579 44.4277L87.1165 45.2186L87.1744 45.2436L87.5159 44.4527L87.8573 43.6617L87.7994 43.6367L87.4579 44.4277ZM87.5159 44.4527L86.6624 44.5701L86.6761 44.6692L87.5295 44.5518L88.383 44.4343L88.3693 44.3352L87.5159 44.4527Z" fill="white"/>
</svg>
